<svg enable-background="new 0 0 80 80" viewBox="0 0 80 80" xmlns="http://www.w3.org/2000/svg" xmlns:xlink="http://www.w3.org/1999/xlink"><linearGradient id="a" gradientTransform="matrix(1 0 0 -1 0 -143.7778)" gradientUnits="userSpaceOnUse" x1="45.7576" x2="64.0903" y1="-171.5202" y2="-153.1874"><stop offset="0" stop-color="#fdb728"/><stop offset="1" stop-color="#ffcd23"/></linearGradient><linearGradient id="b"><stop offset="0" stop-color="#d0e8f8"/><stop offset="1" stop-color="#e1eef9"/></linearGradient><linearGradient id="c" gradientTransform="matrix(1 0 0 -1 0 -143.7778)" gradientUnits="userSpaceOnUse" x1="15.6937" x2="19.6937" xlink:href="#b" y1="-199.9277" y2="-199.9277"/><linearGradient id="d" gradientTransform="matrix(1 0 0 -1 0 -143.7778)" gradientUnits="userSpaceOnUse" x1="25.6937" x2="29.6937" xlink:href="#b" y1="-199.9277" y2="-199.9277"/><linearGradient id="e" gradientTransform="matrix(1 0 0 -1 0 -143.7778)" gradientUnits="userSpaceOnUse" x1="35.6937" x2="39.6937" xlink:href="#b" y1="-199.9277" y2="-199.9277"/><linearGradient id="f" gradientTransform="matrix(1 0 0 -1 0 -143.7778)" gradientUnits="userSpaceOnUse" x1="15.6937" x2="19.6937" xlink:href="#b" y1="-216.2278" y2="-216.2278"/><linearGradient id="g" gradientTransform="matrix(1 0 0 -1 0 -143.7778)" gradientUnits="userSpaceOnUse" x1="25.6937" x2="29.6937" xlink:href="#b" y1="-216.2278" y2="-216.2278"/><linearGradient id="h" gradientTransform="matrix(1 0 0 -1 0 -143.7778)" gradientUnits="userSpaceOnUse" x1="20.6937" x2="24.6937" xlink:href="#b" y1="-208.2278" y2="-208.2278"/><linearGradient id="i" gradientTransform="matrix(1 0 0 -1 0 -143.7778)" gradientUnits="userSpaceOnUse" x1="30.6937" x2="34.6937" xlink:href="#b" y1="-208.2278" y2="-208.2278"/><linearGradient id="j" gradientUnits="userSpaceOnUse" x1="18.375" x2="50.7367" y1="49.85" y2="17.4883"><stop offset="0" stop-color="#a7d3f1"/><stop offset="1" stop-color="#bbd8f2"/></linearGradient><linearGradient id="k" gradientTransform="matrix(1 0 0 -1 0 -143.7778)" gradientUnits="userSpaceOnUse" x1="45.2529" x2="65.578" xlink:href="#b" y1="-192.1373" y2="-171.8123"/><linearGradient id="l" gradientTransform="matrix(1 0 0 -1 0 -143.7778)" gradientUnits="userSpaceOnUse" x1="45.4159" x2="55.0771" xlink:href="#b" y1="-201.7278" y2="-201.7278"/><circle cx="54.9" cy="18.6" fill="url(#a)" r="13"/><circle cx="17.7" cy="56.1" fill="url(#c)" r="2"/><circle cx="27.7" cy="56.1" fill="url(#d)" r="2"/><circle cx="37.7" cy="56.1" fill="url(#e)" r="2"/><circle cx="17.7" cy="72.4" fill="url(#f)" r="2"/><circle cx="27.7" cy="72.4" fill="url(#g)" r="2"/><circle cx="22.7" cy="64.4" fill="url(#h)" r="2"/><circle cx="32.7" cy="64.4" fill="url(#i)" r="2"/><path d="m52.6 45.8c5.9 0 10.7-4.8 10.7-10.7s-4.8-10.7-10.7-10.7h-.1c-.9-8.5-8.2-15.1-16.9-15.1-6.9 0-12.9 4.1-15.5 10-.1 0-.2 0-.3 0-7.3 0-13.2 5.9-13.2 13.2s5.9 13.2 13.2 13.2" fill="url(#j)"/><path d="m66.8 45.8c3.7 0 6.7-3 6.7-6.7s-3-6.7-6.7-6.7c0 0 0 0-.1 0-.6-5.3-5.1-9.5-10.6-9.5-4.3 0-8.1 2.6-9.8 6.3-.1 0-.1 0-.2 0-4.6 0-8.3 3.7-8.3 8.3s3.7 8.3 8.3 8.3" fill="url(#k)"/><circle cx="50.3" cy="57.9" fill="url(#l)" r="4.8"/></svg>