<svg enable-background="new 0 0 80 80" viewBox="0 0 80 80" xmlns="http://www.w3.org/2000/svg" xmlns:xlink="http://www.w3.org/1999/xlink"><linearGradient id="a"><stop offset="0" stop-color="#d0e8f8"/><stop offset="1" stop-color="#e1eef9"/></linearGradient><linearGradient id="b" gradientTransform="matrix(1 0 0 -1 0 -143.7778)" gradientUnits="userSpaceOnUse" x1="16.2119" x2="20.2119" xlink:href="#a" y1="-198.0277" y2="-198.0277"/><linearGradient id="c" gradientTransform="matrix(1 0 0 -1 0 -143.7778)" gradientUnits="userSpaceOnUse" x1="26.2119" x2="30.2119" xlink:href="#a" y1="-198.0277" y2="-198.0277"/><linearGradient id="d" gradientTransform="matrix(1 0 0 -1 0 -143.7778)" gradientUnits="userSpaceOnUse" x1="36.2119" x2="40.2119" xlink:href="#a" y1="-198.0277" y2="-198.0277"/><linearGradient id="e" gradientTransform="matrix(1 0 0 -1 0 -143.7778)" gradientUnits="userSpaceOnUse" x1="16.2119" x2="20.2119" xlink:href="#a" y1="-214.3278" y2="-214.3278"/><linearGradient id="f" gradientTransform="matrix(1 0 0 -1 0 -143.7778)" gradientUnits="userSpaceOnUse" x1="26.2119" x2="30.2119" xlink:href="#a" y1="-214.3278" y2="-214.3278"/><linearGradient id="g" gradientTransform="matrix(1 0 0 -1 0 -143.7778)" gradientUnits="userSpaceOnUse" x1="21.2119" x2="25.2119" xlink:href="#a" y1="-206.3278" y2="-206.3278"/><linearGradient id="h" gradientTransform="matrix(1 0 0 -1 0 -143.7778)" gradientUnits="userSpaceOnUse" x1="31.2119" x2="35.2119" xlink:href="#a" y1="-206.3278" y2="-206.3278"/><linearGradient id="i" gradientUnits="userSpaceOnUse" x1="18.8932" x2="51.2549" y1="47.95" y2="15.5883"><stop offset="0" stop-color="#a7d3f1"/><stop offset="1" stop-color="#bbd8f2"/></linearGradient><linearGradient id="j" gradientTransform="matrix(1 0 0 -1 0 -143.7778)" gradientUnits="userSpaceOnUse" x1="45.7711" x2="66.0961" xlink:href="#a" y1="-190.2373" y2="-169.9123"/><linearGradient id="k" gradientTransform="matrix(1 0 0 -1 0 -143.7778)" gradientUnits="userSpaceOnUse" x1="45.9341" x2="55.5953" xlink:href="#a" y1="-199.8278" y2="-199.8278"/><circle cx="18.2" cy="54.2" fill="url(#b)" r="2"/><circle cx="28.2" cy="54.2" fill="url(#c)" r="2"/><circle cx="38.2" cy="54.2" fill="url(#d)" r="2"/><circle cx="18.2" cy="70.5" fill="url(#e)" r="2"/><circle cx="28.2" cy="70.5" fill="url(#f)" r="2"/><circle cx="23.2" cy="62.5" fill="url(#g)" r="2"/><circle cx="33.2" cy="62.5" fill="url(#h)" r="2"/><path d="m53.1 43.9c5.9 0 10.7-4.8 10.7-10.7s-4.8-10.7-10.7-10.7h-.1c-.9-8.5-8.2-15-16.9-15-6.9 0-12.9 4.1-15.5 10-.1 0-.2 0-.3 0-7.3 0-13.2 5.9-13.2 13.2s5.9 13.2 13.2 13.2" fill="url(#i)"/><path d="m67.3 43.9c3.7 0 6.7-3 6.7-6.7s-3-6.7-6.7-6.7c0 0 0 0-.1 0-.6-5.3-5.1-9.5-10.6-9.5-4.3 0-8.1 2.6-9.8 6.3-.1 0-.1 0-.2 0-4.6 0-8.3 3.7-8.3 8.3s3.7 8.3 8.3 8.3" fill="url(#j)"/><circle cx="50.8" cy="56" fill="url(#k)" r="4.8"/></svg>