<svg enable-background="new 0 0 80 80" viewBox="0 0 80 80" xmlns="http://www.w3.org/2000/svg" xmlns:xlink="http://www.w3.org/1999/xlink"><linearGradient id="a" gradientTransform="matrix(1 0 0 -1 0 -143.7778)" gradientUnits="userSpaceOnUse" x1="49.1196" x2="64.7209" y1="-171.3894" y2="-155.7882"><stop offset="0" stop-color="#00aeef"/><stop offset="1" stop-color="#00bdf2"/></linearGradient><linearGradient id="b" gradientTransform="matrix(1 0 0 -1 0 -143.7778)" gradientUnits="userSpaceOnUse" x1="18.2572" x2="50.619" y1="-196.0303" y2="-163.6686"><stop offset="0" stop-color="#a7d3f1"/><stop offset="1" stop-color="#bbd8f2"/></linearGradient><linearGradient id="c"><stop offset="0" stop-color="#d0e8f8"/><stop offset="1" stop-color="#e1eef9"/></linearGradient><linearGradient id="d" gradientUnits="userSpaceOnUse" x1="45.1465" x2="65.518" xlink:href="#c" y1="50.7508" y2="30.3793"/><linearGradient id="e" gradientTransform="matrix(1 0 0 -1 0 -143.7778)" gradientUnits="userSpaceOnUse" x1="18.2492" x2="22.2492" xlink:href="#c" y1="-202.2474" y2="-202.2474"/><linearGradient id="f" gradientTransform="matrix(1 0 0 -1 0 -143.7778)" gradientUnits="userSpaceOnUse" x1="28.2492" x2="32.2492" xlink:href="#c" y1="-202.2474" y2="-202.2474"/><linearGradient id="g" gradientTransform="matrix(1 0 0 -1 0 -143.7778)" gradientUnits="userSpaceOnUse" x1="38.2492" x2="42.2492" xlink:href="#c" y1="-202.2474" y2="-202.2474"/><linearGradient id="h" gradientTransform="matrix(1 0 0 -1 0 -143.7778)" gradientUnits="userSpaceOnUse" x1="18.2492" x2="22.2492" xlink:href="#c" y1="-218.5474" y2="-218.5474"/><linearGradient id="i" gradientTransform="matrix(1 0 0 -1 0 -143.7778)" gradientUnits="userSpaceOnUse" x1="28.2492" x2="32.2492" xlink:href="#c" y1="-218.5474" y2="-218.5474"/><linearGradient id="j" gradientTransform="matrix(1 0 0 -1 0 -143.7778)" gradientUnits="userSpaceOnUse" x1="23.2492" x2="27.2492" xlink:href="#c" y1="-210.5474" y2="-210.5474"/><linearGradient id="k" gradientTransform="matrix(1 0 0 -1 0 -143.7778)" gradientUnits="userSpaceOnUse" x1="33.2492" x2="37.2492" xlink:href="#c" y1="-210.5474" y2="-210.5474"/><linearGradient id="l" gradientTransform="matrix(1 0 0 -1 0 -143.7778)" gradientUnits="userSpaceOnUse" x1="47.9715" x2="57.6328" xlink:href="#c" y1="-204.1474" y2="-204.1474"/><path d="m59.4 31.9c-8.1 0-14.6-6.6-14.6-14.6 0-6.5 4.3-12.2 10.6-14 .3-.1.6 0 .8.2s.3.5.2.8c-.3 1.2-.5 2.4-.5 3.6 0 7.2 5.9 13.1 13.1 13.1 1.2 0 2.4-.2 3.6-.5.3-.1.6 0 .8.2s.3.5.2.8c-2 6.1-7.7 10.4-14.2 10.4z" fill="url(#a)"/><path d="m52.5 48.2c5.9 0 10.7-4.8 10.7-10.7s-4.8-10.7-10.7-10.7h-.1c-.9-8.5-8.2-15.1-16.9-15.1-6.9 0-12.9 4.1-15.5 10-.1 0-.2 0-.3 0-7.3 0-13.2 5.9-13.2 13.2s5.9 13.2 13.2 13.2" fill="url(#b)"/><path d="m66.7 48.2c3.7 0 6.7-3 6.7-6.7s-3-6.7-6.7-6.7c0 0 0 0-.1 0-.6-5.3-5.1-9.5-10.6-9.5-4.3 0-8.1 2.6-9.8 6.3-.1 0-.1 0-.2 0-4.6 0-8.3 3.7-8.3 8.3s3.7 8.3 8.3 8.3" fill="url(#d)"/><circle cx="20.2" cy="58.5" fill="url(#e)" r="2"/><circle cx="30.2" cy="58.5" fill="url(#f)" r="2"/><circle cx="40.2" cy="58.5" fill="url(#g)" r="2"/><circle cx="20.2" cy="74.8" fill="url(#h)" r="2"/><circle cx="30.2" cy="74.8" fill="url(#i)" r="2"/><circle cx="25.2" cy="66.8" fill="url(#j)" r="2"/><circle cx="35.2" cy="66.8" fill="url(#k)" r="2"/><circle cx="52.8" cy="60.4" fill="url(#l)" r="4.8"/></svg>