<svg enable-background="new 0 0 80 80" viewBox="0 0 80 80" xmlns="http://www.w3.org/2000/svg" xmlns:xlink="http://www.w3.org/1999/xlink"><linearGradient id="a" gradientTransform="matrix(1 0 0 -1 0 2192.2222)" gradientUnits="userSpaceOnUse" x1="24.1269" x2="48.8941" y1="2133.4001" y2="2158.1675"><stop offset="0" stop-color="#00aeef"/><stop offset="1" stop-color="#00bdf2"/></linearGradient><linearGradient id="b"><stop offset="0" stop-color="#fdb728"/><stop offset="1" stop-color="#ffcd23"/></linearGradient><linearGradient id="c" gradientTransform="matrix(1 0 0 -1 0 2192.2222)" gradientUnits="userSpaceOnUse" x1="51.8906" x2="57.6903" xlink:href="#b" y1="2159.1855" y2="2164.9854"/><linearGradient id="d" gradientTransform="matrix(1 0 0 -1 0 2192.2222)" gradientUnits="userSpaceOnUse" x1="45.1862" x2="48.5755" xlink:href="#b" y1="2174.5706" y2="2177.96"/><path d="m40.5 65.6c-12.8 0-23.2-10.4-23.2-23.2 0-10.3 6.9-19.4 16.8-22.3.4-.1.9 0 1.2.3s.4.8.3 1.2c-.5 1.9-.8 3.8-.8 5.7 0 11.4 9.3 20.8 20.8 20.8 1.9 0 3.8-.3 5.7-.8.4-.1.9 0 1.2.3s.4.8.3 1.2c-2.8 9.9-12 16.8-22.3 16.8z" fill="url(#a)"/><path d="m55.6 34.6c-.4 1.6-1.1 1.6-1.6 0-.4-1.6-2.1-3.2-3.7-3.7-1.6-.4-1.6-1.1 0-1.6s3.2-2.1 3.7-3.7c.4-1.6 1.1-1.6 1.6 0 .4 1.6 2.1 3.2 3.7 3.7 1.6.4 1.6 1.1 0 1.6-1.7.4-3.3 2.1-3.7 3.7z" fill="url(#c)"/><path d="m47.3 18.5c-.3.9-.7.9-.9 0-.3-.9-1.2-1.9-2.1-2.1s-.9-.7 0-.9c.9-.3 1.9-1.2 2.1-2.1s.7-.9.9 0 1.2 1.9 2.1 2.1c.9.3.9.7 0 .9s-1.9 1.2-2.1 2.1z" fill="url(#d)"/></svg>