<svg enable-background="new 0 0 80 80" viewBox="0 0 80 80" xmlns="http://www.w3.org/2000/svg" xmlns:xlink="http://www.w3.org/1999/xlink"><linearGradient id="a" gradientTransform="matrix(1 0 0 -1 0 1986)" gradientUnits="userSpaceOnUse" x1="45.7076" x2="64.0403" y1="1943.9576" y2="1962.2904"><stop offset="0" stop-color="#fdb728"/><stop offset="1" stop-color="#ffcd23"/></linearGradient><linearGradient id="b" gradientUnits="userSpaceOnUse" x1="18.325" x2="50.6867" y1="64.15" y2="31.7883"><stop offset="0" stop-color="#a7d3f1"/><stop offset="1" stop-color="#bbd8f2"/></linearGradient><linearGradient id="c" gradientTransform="matrix(1 0 0 -1 0 1986)" gradientUnits="userSpaceOnUse" x1="45.2729" x2="65.5979" y1="1923.3104" y2="1943.6355"><stop offset="0" stop-color="#d0e8f8"/><stop offset="1" stop-color="#e1eef9"/></linearGradient><circle cx="54.9" cy="32.9" fill="url(#a)" r="13"/><path d="m52.5 60.1c5.9 0 10.7-4.8 10.7-10.7s-4.8-10.7-10.7-10.7h-.1c-.9-8.5-8.2-15.1-16.9-15.1-6.9 0-12.9 4.1-15.5 10-.1 0-.2 0-.3 0-7.3 0-13.2 5.9-13.2 13.2s5.9 13.2 13.2 13.2" fill="url(#b)"/><path d="m66.8 60.1c3.7 0 6.7-3 6.7-6.7s-3-6.7-6.7-6.7c0 0 0 0-.1 0-.6-5.3-5.1-9.5-10.6-9.5-4.3 0-8.1 2.6-9.8 6.3-.1 0-.1 0-.2 0-4.6 0-8.3 3.7-8.3 8.3s3.7 8.3 8.3 8.3" fill="url(#c)"/></svg>