<svg enable-background="new 0 0 80 80" viewBox="0 0 80 80" xmlns="http://www.w3.org/2000/svg" xmlns:xlink="http://www.w3.org/1999/xlink"><linearGradient id="a" gradientTransform="matrix(1 0 0 -1 0 -346.4445)" gradientUnits="userSpaceOnUse" x1="14.7543" x2="43.6821" y1="-400.9401" y2="-372.0123"><stop offset="0" stop-color="#fdb728"/><stop offset="1" stop-color="#ffcd23"/></linearGradient><linearGradient id="b"><stop offset="0" stop-color="#d0e8f8"/><stop offset="1" stop-color="#e1eef9"/></linearGradient><linearGradient id="c" gradientUnits="userSpaceOnUse" x1="37.8358" x2="40.6642" xlink:href="#b" y1="41.1142" y2="38.2858"/><linearGradient id="d" gradientUnits="userSpaceOnUse" x1="47.8358" x2="50.6642" xlink:href="#b" y1="41.1142" y2="38.2858"/><linearGradient id="e" gradientUnits="userSpaceOnUse" x1="57.8358" x2="60.6642" xlink:href="#b" y1="41.1142" y2="38.2858"/><linearGradient id="f" gradientUnits="userSpaceOnUse" x1="67.8358" x2="70.6642" xlink:href="#b" y1="41.1142" y2="38.2858"/><linearGradient id="g" gradientUnits="userSpaceOnUse" x1="47.8358" x2="50.6642" xlink:href="#b" y1="55.1142" y2="52.2858"/><linearGradient id="h" gradientUnits="userSpaceOnUse" x1="57.8358" x2="60.6642" xlink:href="#b" y1="55.1142" y2="52.2858"/><linearGradient id="i" gradientUnits="userSpaceOnUse" x1="32.8358" x2="35.6642" xlink:href="#b" y1="48.1142" y2="45.2858"/><linearGradient id="j" gradientUnits="userSpaceOnUse" x1="42.8358" x2="45.6642" xlink:href="#b" y1="48.1142" y2="45.2858"/><linearGradient id="k" gradientUnits="userSpaceOnUse" x1="52.8358" x2="55.6642" xlink:href="#b" y1="48.1142" y2="45.2858"/><linearGradient id="l" gradientUnits="userSpaceOnUse" x1="62.8358" x2="65.6642" xlink:href="#b" y1="48.1142" y2="45.2858"/><circle cx="29.2" cy="40" fill="url(#a)" r="20.5"/><circle cx="39.2" cy="39.7" fill="url(#c)" r="2"/><circle cx="49.2" cy="39.7" fill="url(#d)" r="2"/><circle cx="59.2" cy="39.7" fill="url(#e)" r="2"/><circle cx="69.2" cy="39.7" fill="url(#f)" r="2"/><circle cx="49.2" cy="53.7" fill="url(#g)" r="2"/><circle cx="59.2" cy="53.7" fill="url(#h)" r="2"/><circle cx="34.2" cy="46.7" fill="url(#i)" r="2"/><circle cx="44.2" cy="46.7" fill="url(#j)" r="2"/><circle cx="54.2" cy="46.7" fill="url(#k)" r="2"/><circle cx="64.2" cy="46.7" fill="url(#l)" r="2"/></svg>