<svg enable-background="new 0 0 80 80" viewBox="0 0 80 80" xmlns="http://www.w3.org/2000/svg" xmlns:xlink="http://www.w3.org/1999/xlink"><linearGradient id="a"><stop offset="0" stop-color="#00aeef"/><stop offset="1" stop-color="#00bdf2"/></linearGradient><linearGradient id="b" gradientTransform="matrix(1 0 0 -1 0 942.4445)" gradientUnits="userSpaceOnUse" x1="49.624" x2="65.2253" xlink:href="#a" y1="908.9504" y2="924.5518"/><linearGradient id="c" gradientTransform="matrix(1 0 0 -1 0 942.4445)" gradientUnits="userSpaceOnUse" x1="17.7901" x2="50.1518" y1="885.8248" y2="918.1866"><stop offset="0" stop-color="#a7d3f1"/><stop offset="1" stop-color="#bbd8f2"/></linearGradient><linearGradient id="d" gradientUnits="userSpaceOnUse" x1="44.5964" x2="64.9679" y1="55.2008" y2="34.8293"><stop offset="0" stop-color="#d0e8f8"/><stop offset="1" stop-color="#e1eef9"/></linearGradient><linearGradient id="e" gradientTransform="matrix(1 0 0 -1 0 942.4445)" gradientUnits="userSpaceOnUse" x1="15.0651" x2="28.0651" xlink:href="#a" y1="881.0248" y2="881.0248"/><linearGradient id="f" gradientTransform="matrix(1 0 0 -1 0 942.4445)" gradientUnits="userSpaceOnUse" x1="31.5651" x2="49.5651" xlink:href="#a" y1="881.0248" y2="881.0248"/><linearGradient id="g" gradientTransform="matrix(1 0 0 -1 0 942.4445)" gradientUnits="userSpaceOnUse" x1="15.0651" x2="38.0651" xlink:href="#a" y1="873.0248" y2="873.0248"/><linearGradient id="h" gradientTransform="matrix(1 0 0 -1 0 942.4445)" gradientUnits="userSpaceOnUse" x1="41.5651" x2="59.5651" xlink:href="#a" y1="873.0248" y2="873.0248"/><path d="m60 37.7c-8.1 0-14.6-6.6-14.6-14.6 0-6.5 4.3-12.2 10.6-14 .3-.1.6 0 .8.2s.3.5.2.8c-.3 1.2-.5 2.4-.5 3.6 0 7.2 5.9 13.1 13.1 13.1 1.2 0 2.4-.2 3.6-.5.3-.1.6 0 .8.2s.3.5.2.8c-2 6.1-7.8 10.4-14.2 10.4z" fill="url(#b)"/><path d="m52 52.6c5.9 0 10.7-4.8 10.7-10.7s-4.8-10.7-10.7-10.7h-.1c-.9-8.5-8.2-15.1-16.9-15.1-6.9 0-12.9 4.1-15.5 10-.1 0-.2 0-.3 0-7.3 0-13.2 5.9-13.2 13.2s5.9 13.2 13.2 13.2" fill="url(#c)"/><path d="m66.2 52.6c3.7 0 6.7-3 6.7-6.7s-3-6.7-6.7-6.7c0 0 0 0-.1 0-.6-5.3-5.1-9.5-10.6-9.5-4.3 0-8.1 2.6-9.8 6.3-.1 0-.1 0-.2 0-4.6 0-8.3 3.7-8.3 8.3s3.7 8.3 8.3 8.3" fill="url(#d)"/><path d="m26.6 62.9h-10c-.8 0-1.5-.7-1.5-1.5s.7-1.5 1.5-1.5h10c.8 0 1.5.7 1.5 1.5s-.7 1.5-1.5 1.5z" fill="url(#e)"/><path d="m48.1 62.9h-15c-.8 0-1.5-.7-1.5-1.5s.7-1.5 1.5-1.5h15c.8 0 1.5.7 1.5 1.5s-.7 1.5-1.5 1.5z" fill="url(#f)"/><path d="m36.6 70.9h-20c-.8 0-1.5-.7-1.5-1.5s.7-1.5 1.5-1.5h20c.8 0 1.5.7 1.5 1.5s-.7 1.5-1.5 1.5z" fill="url(#g)"/><path d="m58.1 70.9h-15c-.8 0-1.5-.7-1.5-1.5s.7-1.5 1.5-1.5h15c.8 0 1.5.7 1.5 1.5s-.7 1.5-1.5 1.5z" fill="url(#h)"/></svg>