<svg enable-background="new 0 0 80 80" viewBox="0 0 80 80" xmlns="http://www.w3.org/2000/svg" xmlns:xlink="http://www.w3.org/1999/xlink"><linearGradient id="a" gradientTransform="matrix(1 0 0 -1 0 942.4445)" gradientUnits="userSpaceOnUse" x1="45.7076" x2="64.0403" y1="909.552" y2="927.8848"><stop offset="0" stop-color="#fdb728"/><stop offset="1" stop-color="#ffcd23"/></linearGradient><linearGradient id="b" gradientUnits="userSpaceOnUse" x1="18.325" x2="50.6867" y1="55" y2="22.6383"><stop offset="0" stop-color="#a7d3f1"/><stop offset="1" stop-color="#bbd8f2"/></linearGradient><linearGradient id="c" gradientTransform="matrix(1 0 0 -1 0 942.4445)" gradientUnits="userSpaceOnUse" x1="45.2806" x2="65.6056" y1="888.9126" y2="909.2376"><stop offset="0" stop-color="#d0e8f8"/><stop offset="1" stop-color="#e1eef9"/></linearGradient><linearGradient id="d"><stop offset="0" stop-color="#00aeef"/><stop offset="1" stop-color="#00bdf2"/></linearGradient><linearGradient id="e" gradientTransform="matrix(1 0 0 -1 0 942.4445)" gradientUnits="userSpaceOnUse" x1="15.6669" x2="28.6669" xlink:href="#d" y1="882.6445" y2="882.6445"/><linearGradient id="f" gradientTransform="matrix(1 0 0 -1 0 942.4445)" gradientUnits="userSpaceOnUse" x1="32.1669" x2="50.1669" xlink:href="#d" y1="882.6445" y2="882.6445"/><linearGradient id="g" gradientTransform="matrix(1 0 0 -1 0 942.4445)" gradientUnits="userSpaceOnUse" x1="15.6669" x2="38.6669" xlink:href="#d" y1="874.6445" y2="874.6445"/><linearGradient id="h" gradientTransform="matrix(1 0 0 -1 0 942.4445)" gradientUnits="userSpaceOnUse" x1="42.1669" x2="60.1669" xlink:href="#d" y1="874.6445" y2="874.6445"/><circle cx="54.9" cy="23.7" fill="url(#a)" r="13"/><path d="m52.5 51c5.9 0 10.7-4.8 10.7-10.7s-4.8-10.7-10.7-10.7h-.1c-.9-8.5-8.2-15.1-16.9-15.1-6.9 0-12.9 4.1-15.5 10-.1 0-.2 0-.3 0-7.3 0-13.2 5.9-13.2 13.2s5.9 13.2 13.2 13.2" fill="url(#b)"/><path d="m66.8 51c3.7 0 6.7-3 6.7-6.7s-3-6.7-6.7-6.7c0 0 0 0-.1 0-.6-5.3-5.1-9.5-10.6-9.5-4.3 0-8.1 2.6-9.8 6.3-.1 0-.1 0-.2 0-4.6 0-8.3 3.7-8.3 8.3s3.7 8.3 8.3 8.3" fill="url(#c)"/><path d="m27.2 61.3h-10c-.8 0-1.5-.7-1.5-1.5s.7-1.5 1.5-1.5h10c.8 0 1.5.7 1.5 1.5s-.7 1.5-1.5 1.5z" fill="url(#e)"/><path d="m48.7 61.3h-15c-.8 0-1.5-.7-1.5-1.5s.7-1.5 1.5-1.5h15c.8 0 1.5.7 1.5 1.5s-.7 1.5-1.5 1.5z" fill="url(#f)"/><path d="m37.2 69.3h-20c-.8 0-1.5-.7-1.5-1.5s.7-1.5 1.5-1.5h20c.8 0 1.5.7 1.5 1.5s-.7 1.5-1.5 1.5z" fill="url(#g)"/><path d="m58.7 69.3h-15c-.8 0-1.5-.7-1.5-1.5s.7-1.5 1.5-1.5h15c.8 0 1.5.7 1.5 1.5s-.7 1.5-1.5 1.5z" fill="url(#h)"/></svg>