<svg enable-background="new 0 0 80 80" viewBox="0 0 80 80" xmlns="http://www.w3.org/2000/svg" xmlns:xlink="http://www.w3.org/1999/xlink"><linearGradient id="a" gradientUnits="userSpaceOnUse" x1="18.8432" x2="51.2049" y1="53.1" y2="20.7383"><stop offset="0" stop-color="#a7d3f1"/><stop offset="1" stop-color="#bbd8f2"/></linearGradient><linearGradient id="b" gradientTransform="matrix(1 0 0 -1 0 942.4445)" gradientUnits="userSpaceOnUse" x1="45.804" x2="66.1291" y1="890.8177" y2="911.1428"><stop offset="0" stop-color="#d0e8f8"/><stop offset="1" stop-color="#e1eef9"/></linearGradient><linearGradient id="c"><stop offset="0" stop-color="#00aeef"/><stop offset="1" stop-color="#00bdf2"/></linearGradient><linearGradient id="d" gradientTransform="matrix(1 0 0 -1 0 942.4445)" gradientUnits="userSpaceOnUse" x1="16.1851" x2="29.1851" xlink:href="#c" y1="884.5444" y2="884.5444"/><linearGradient id="e" gradientTransform="matrix(1 0 0 -1 0 942.4445)" gradientUnits="userSpaceOnUse" x1="32.6851" x2="50.6851" xlink:href="#c" y1="884.5444" y2="884.5444"/><linearGradient id="f" gradientTransform="matrix(1 0 0 -1 0 942.4445)" gradientUnits="userSpaceOnUse" x1="16.1851" x2="39.1851" xlink:href="#c" y1="876.5444" y2="876.5444"/><linearGradient id="g" gradientTransform="matrix(1 0 0 -1 0 942.4445)" gradientUnits="userSpaceOnUse" x1="42.6851" x2="60.6851" xlink:href="#c" y1="876.5444" y2="876.5444"/><path d="m53 49.1c5.9 0 10.7-4.8 10.7-10.7s-4.8-10.7-10.7-10.7h-.1c-.9-8.5-8.2-15.1-16.9-15.1-6.9 0-12.9 4.1-15.5 10-.1 0-.2 0-.3 0-7.3 0-13.2 5.9-13.2 13.2s5.9 13.2 13.2 13.2" fill="url(#a)"/><path d="m67.3 49.1c3.7 0 6.7-3 6.7-6.7s-3-6.7-6.7-6.7c0 0 0 0-.1 0-.6-5.3-5.1-9.5-10.6-9.5-4.3 0-8.1 2.6-9.8 6.3-.1 0-.1 0-.2 0-4.6 0-8.3 3.7-8.3 8.3s3.7 8.3 8.3 8.3" fill="url(#b)"/><path d="m27.7 59.4h-10c-.8 0-1.5-.7-1.5-1.5s.7-1.5 1.5-1.5h10c.8 0 1.5.7 1.5 1.5s-.7 1.5-1.5 1.5z" fill="url(#d)"/><path d="m49.2 59.4h-15c-.8 0-1.5-.7-1.5-1.5s.7-1.5 1.5-1.5h15c.8 0 1.5.7 1.5 1.5s-.7 1.5-1.5 1.5z" fill="url(#e)"/><path d="m37.7 67.4h-20c-.8 0-1.5-.7-1.5-1.5s.7-1.5 1.5-1.5h20c.8 0 1.5.7 1.5 1.5s-.7 1.5-1.5 1.5z" fill="url(#f)"/><path d="m59.2 67.4h-15c-.8 0-1.5-.7-1.5-1.5s.7-1.5 1.5-1.5h15c.8 0 1.5.7 1.5 1.5s-.7 1.5-1.5 1.5z" fill="url(#g)"/></svg>