<svg enable-background="new 0 0 80 80" viewBox="0 0 80 80" xmlns="http://www.w3.org/2000/svg" xmlns:xlink="http://www.w3.org/1999/xlink"><linearGradient id="a" gradientTransform="matrix(1 0 0 -1 0 739.7778)" gradientUnits="userSpaceOnUse" x1="49.1306" x2="64.7319" y1="709.4359" y2="725.0372"><stop offset="0" stop-color="#00aeef"/><stop offset="1" stop-color="#00bdf2"/></linearGradient><linearGradient id="b" gradientTransform="matrix(1 0 0 -1 0 739.7778)" gradientUnits="userSpaceOnUse" x1="18.282" x2="50.6437" y1="684.8308" y2="717.1925"><stop offset="0" stop-color="#a7d3f1"/><stop offset="1" stop-color="#bbd8f2"/></linearGradient><linearGradient id="c"><stop offset="0" stop-color="#d0e8f8"/><stop offset="1" stop-color="#e1eef9"/></linearGradient><linearGradient id="d" gradientUnits="userSpaceOnUse" x1="45.1464" x2="65.5179" xlink:href="#c" y1="53.4701" y2="33.0986"/><linearGradient id="e" gradientTransform="matrix(1 0 0 -1 0 739.7778)" gradientUnits="userSpaceOnUse" x1="16.7931" x2="26.4543" xlink:href="#c" y1="675.7889" y2="675.7889"/><linearGradient id="f" gradientTransform="matrix(1 0 0 -1 0 739.7778)" gradientUnits="userSpaceOnUse" x1="44.7151" x2="54.3763" xlink:href="#c" y1="675.7889" y2="675.7889"/><linearGradient id="g" gradientTransform="matrix(1 0 0 -1 0 739.7778)" gradientUnits="userSpaceOnUse" x1="31.2308" x2="40.892" xlink:href="#c" y1="668.7889" y2="668.7889"/><path d="m59.4 34.6c-8.1 0-14.6-6.6-14.6-14.6 0-6.5 4.3-12.2 10.6-14 .3-.1.6 0 .8.2s.3.5.2.8c-.3 1.2-.5 2.4-.5 3.6 0 7.2 5.9 13.1 13.1 13.1 1.2 0 2.4-.2 3.6-.5.3-.1.6 0 .8.2s.3.5.2.8c-1.9 6.1-7.7 10.4-14.2 10.4z" fill="url(#a)"/><path d="m52.5 50.9c5.9 0 10.7-4.8 10.7-10.7s-4.8-10.7-10.7-10.7h-.1c-.9-8.5-8.2-15.1-16.9-15.1-6.9 0-12.9 4.1-15.5 10-.1 0-.2 0-.3 0-7.3 0-13.2 5.9-13.2 13.2s5.9 13.2 13.2 13.2" fill="url(#b)"/><path d="m66.7 50.9c3.7 0 6.7-3 6.7-6.7s-3-6.7-6.7-6.7c0 0 0 0-.1 0-.6-5.3-5.1-9.5-10.6-9.5-4.3 0-8.1 2.6-9.8 6.3-.1 0-.1 0-.2 0-4.6 0-8.3 3.7-8.3 8.3s3.7 8.3 8.3 8.3" fill="url(#d)"/><circle cx="21.6" cy="64" fill="url(#e)" r="4.8"/><circle cx="49.5" cy="64" fill="url(#f)" r="4.8"/><circle cx="36" cy="71" fill="url(#g)" r="4.8"/></svg>