<svg enable-background="new 0 0 80 80" viewBox="0 0 80 80" xmlns="http://www.w3.org/2000/svg" xmlns:xlink="http://www.w3.org/1999/xlink"><linearGradient id="a" gradientUnits="userSpaceOnUse" x1="18.8432" x2="51.2049" y1="50.6889" y2="18.3271"><stop offset="0" stop-color="#a7d3f1"/><stop offset="1" stop-color="#bbd8f2"/></linearGradient><linearGradient id="b"><stop offset="0" stop-color="#d0e8f8"/><stop offset="1" stop-color="#e1eef9"/></linearGradient><linearGradient id="c" gradientTransform="matrix(1 0 0 -1 0 739.7778)" gradientUnits="userSpaceOnUse" x1="45.8126" x2="66.1377" xlink:href="#b" y1="690.5709" y2="710.8959"/><linearGradient id="d" gradientTransform="matrix(1 0 0 -1 0 739.7778)" gradientUnits="userSpaceOnUse" x1="17.3379" x2="26.9991" xlink:href="#b" y1="679.9889" y2="679.9889"/><linearGradient id="e" gradientTransform="matrix(1 0 0 -1 0 739.7778)" gradientUnits="userSpaceOnUse" x1="45.2507" x2="54.912" xlink:href="#b" y1="679.9889" y2="679.9889"/><linearGradient id="f" gradientTransform="matrix(1 0 0 -1 0 739.7778)" gradientUnits="userSpaceOnUse" x1="31.7756" x2="41.4368" xlink:href="#b" y1="672.9889" y2="672.9889"/><path d="m53 46.7c5.9 0 10.7-4.8 10.7-10.7s-4.8-10.7-10.7-10.7h-.1c-.9-8.5-8.2-15.1-16.9-15.1-6.9 0-12.9 4.1-15.5 10-.1 0-.2 0-.3 0-7.3 0-13.2 5.9-13.2 13.2s5.9 13.2 13.2 13.2" fill="url(#a)"/><path d="m67.3 46.7c3.7 0 6.7-3 6.7-6.7s-3-6.7-6.7-6.7c0 0 0 0-.1 0-.6-5.3-5.1-9.5-10.6-9.5-4.3 0-8.1 2.6-9.8 6.3-.1 0-.1 0-.2 0-4.6 0-8.3 3.7-8.3 8.3s3.7 8.3 8.3 8.3" fill="url(#c)"/><circle cx="22.2" cy="59.8" fill="url(#d)" r="4.8"/><circle cx="50.1" cy="59.8" fill="url(#e)" r="4.8"/><circle cx="36.6" cy="66.8" fill="url(#f)" r="4.8"/></svg>