<svg enable-background="new 0 0 80 80" viewBox="0 0 80 80" xmlns="http://www.w3.org/2000/svg" xmlns:xlink="http://www.w3.org/1999/xlink"><linearGradient id="a" gradientTransform="matrix(1 0 0 -1 0 739.7778)" gradientUnits="userSpaceOnUse" x1="45.7324" x2="64.0651" y1="709.3212" y2="727.6541"><stop offset="0" stop-color="#fdb728"/><stop offset="1" stop-color="#ffcd23"/></linearGradient><linearGradient id="b" gradientUnits="userSpaceOnUse" x1="18.325" x2="50.6867" y1="52.5889" y2="20.2272"><stop offset="0" stop-color="#a7d3f1"/><stop offset="1" stop-color="#bbd8f2"/></linearGradient><linearGradient id="c"><stop offset="0" stop-color="#d0e8f8"/><stop offset="1" stop-color="#e1eef9"/></linearGradient><linearGradient id="d" gradientTransform="matrix(1 0 0 -1 0 739.7778)" gradientUnits="userSpaceOnUse" x1="45.2892" x2="65.6142" xlink:href="#c" y1="688.6656" y2="708.9907"/><linearGradient id="e" gradientTransform="matrix(1 0 0 -1 0 739.7778)" gradientUnits="userSpaceOnUse" x1="16.8197" x2="26.4809" xlink:href="#c" y1="678.0889" y2="678.0889"/><linearGradient id="f" gradientTransform="matrix(1 0 0 -1 0 739.7778)" gradientUnits="userSpaceOnUse" x1="44.7325" x2="54.3938" xlink:href="#c" y1="678.0889" y2="678.0889"/><linearGradient id="g" gradientTransform="matrix(1 0 0 -1 0 739.7778)" gradientUnits="userSpaceOnUse" x1="31.2574" x2="40.9186" xlink:href="#c" y1="671.0889" y2="671.0889"/><circle cx="54.9" cy="21.3" fill="url(#a)" r="13"/><path d="m52.5 48.6c5.9 0 10.7-4.8 10.7-10.7s-4.8-10.7-10.7-10.7h-.1c-.9-8.5-8.2-15.1-16.9-15.1-6.9 0-12.9 4.1-15.5 10-.1 0-.2 0-.3 0-7.3 0-13.2 5.9-13.2 13.2s5.9 13.2 13.2 13.2" fill="url(#b)"/><path d="m66.8 48.6c3.7 0 6.7-3 6.7-6.7s-3-6.7-6.7-6.7c0 0 0 0-.1 0-.6-5.3-5.1-9.5-10.6-9.5-4.3 0-8.1 2.6-9.8 6.3-.1 0-.1 0-.2 0-4.6 0-8.3 3.7-8.3 8.3s3.7 8.3 8.3 8.3" fill="url(#d)"/><circle cx="21.7" cy="61.7" fill="url(#e)" r="4.8"/><circle cx="49.6" cy="61.7" fill="url(#f)" r="4.8"/><circle cx="36.1" cy="68.7" fill="url(#g)" r="4.8"/></svg>