<svg enable-background="new 0 0 80 80" viewBox="0 0 80 80" xmlns="http://www.w3.org/2000/svg" xmlns:xlink="http://www.w3.org/1999/xlink"><linearGradient id="a" gradientTransform="matrix(1 0 0 -1 0 -346.4445)" gradientUnits="userSpaceOnUse" x1="13.9864" x2="42.9142" y1="-400.9081" y2="-371.9803"><stop offset="0" stop-color="#fdb728"/><stop offset="1" stop-color="#ffcd23"/></linearGradient><linearGradient id="b"><stop offset="0" stop-color="#d0e8f8"/><stop offset="1" stop-color="#e1eef9"/></linearGradient><linearGradient id="c" gradientUnits="userSpaceOnUse" x1="30.5" x2="37.6" xlink:href="#b" y1="42.75" y2="35.65"/><linearGradient id="d" gradientUnits="userSpaceOnUse" x1="48.25" x2="57.85" xlink:href="#b" y1="44" y2="34.4"/><linearGradient id="e" gradientUnits="userSpaceOnUse" x1="30.5" x2="37.6" xlink:href="#b" y1="57.25" y2="50.15"/><linearGradient id="f" gradientUnits="userSpaceOnUse" x1="48.25" x2="57.85" xlink:href="#b" y1="58.5" y2="48.9"/><linearGradient id="g" gradientUnits="userSpaceOnUse" x1="33" x2="45.1" xlink:href="#b" y1="52.75" y2="40.65"/><linearGradient id="h" gradientUnits="userSpaceOnUse" x1="58.25" x2="67.85" xlink:href="#b" y1="51.5" y2="41.9"/><circle cx="28.4" cy="40" fill="url(#a)" r="20.5"/><path d="m39.1 40.7h-10c-.8 0-1.5-.7-1.5-1.5s.7-1.5 1.5-1.5h10c.8 0 1.5.7 1.5 1.5s-.7 1.5-1.5 1.5z" fill="url(#c)"/><path d="m60.6 40.7h-15c-.8 0-1.5-.7-1.5-1.5s.7-1.5 1.5-1.5h15c.8 0 1.5.7 1.5 1.5s-.7 1.5-1.5 1.5z" fill="url(#d)"/><path d="m39.1 55.2h-10c-.8 0-1.5-.7-1.5-1.5s.7-1.5 1.5-1.5h10c.8 0 1.5.7 1.5 1.5s-.7 1.5-1.5 1.5z" fill="url(#e)"/><path d="m60.6 55.2h-15c-.8 0-1.5-.7-1.5-1.5s.7-1.5 1.5-1.5h15c.8 0 1.5.7 1.5 1.5s-.7 1.5-1.5 1.5z" fill="url(#f)"/><path d="m49.1 48.2h-20c-.8 0-1.5-.7-1.5-1.5s.7-1.5 1.5-1.5h20c.8 0 1.5.7 1.5 1.5s-.7 1.5-1.5 1.5z" fill="url(#g)"/><path d="m70.6 48.2h-15c-.8 0-1.5-.7-1.5-1.5s.7-1.5 1.5-1.5h15c.8 0 1.5.7 1.5 1.5s-.7 1.5-1.5 1.5z" fill="url(#h)"/></svg>