<svg enable-background="new 0 0 80 80" viewBox="0 0 80 80" xmlns="http://www.w3.org/2000/svg" xmlns:xlink="http://www.w3.org/1999/xlink"><linearGradient id="a" gradientTransform="matrix(1 0 0 -1 0 -1206)" gradientUnits="userSpaceOnUse" x1="45.3793" x2="63.7121" y1="-1237.7206" y2="-1219.3879"><stop offset="0" stop-color="#fdb728"/><stop offset="1" stop-color="#ffcd23"/></linearGradient><linearGradient id="b"><stop offset="0" stop-color="#d0e8f8"/><stop offset="1" stop-color="#e1eef9"/></linearGradient><linearGradient id="c" gradientTransform="matrix(1 0 0 -1 0 -1206)" gradientUnits="userSpaceOnUse" x1="18.983" x2="22.983" xlink:href="#b" y1="-1266.1" y2="-1266.1"/><linearGradient id="d" gradientTransform="matrix(1 0 0 -1 0 -1206)" gradientUnits="userSpaceOnUse" x1="28.983" x2="32.983" xlink:href="#b" y1="-1266.1" y2="-1266.1"/><linearGradient id="e" gradientTransform="matrix(1 0 0 -1 0 -1206)" gradientUnits="userSpaceOnUse" x1="38.983" x2="42.983" xlink:href="#b" y1="-1266.1" y2="-1266.1"/><linearGradient id="f" gradientTransform="matrix(1 0 0 -1 0 -1206)" gradientUnits="userSpaceOnUse" x1="48.983" x2="52.983" xlink:href="#b" y1="-1266.1" y2="-1266.1"/><linearGradient id="g" gradientTransform="matrix(1 0 0 -1 0 -1206)" gradientUnits="userSpaceOnUse" x1="13.983" x2="17.983" xlink:href="#b" y1="-1274.4" y2="-1274.4"/><linearGradient id="h" gradientTransform="matrix(1 0 0 -1 0 -1206)" gradientUnits="userSpaceOnUse" x1="23.983" x2="27.983" xlink:href="#b" y1="-1274.4" y2="-1274.4"/><linearGradient id="i" gradientTransform="matrix(1 0 0 -1 0 -1206)" gradientUnits="userSpaceOnUse" x1="33.983" x2="37.983" xlink:href="#b" y1="-1274.4" y2="-1274.4"/><linearGradient id="j" gradientTransform="matrix(1 0 0 -1 0 -1206)" gradientUnits="userSpaceOnUse" x1="43.983" x2="47.983" xlink:href="#b" y1="-1274.4" y2="-1274.4"/><linearGradient id="k" gradientUnits="userSpaceOnUse" x1="18.325" x2="50.6867" y1="53.8" y2="21.4383"><stop offset="0" stop-color="#a7d3f1"/><stop offset="1" stop-color="#bbd8f2"/></linearGradient><linearGradient id="l" gradientTransform="matrix(1 0 0 -1 0 -1206)" gradientUnits="userSpaceOnUse" x1="45.2312" x2="65.5563" xlink:href="#b" y1="-1258.3812" y2="-1238.0562"/><circle cx="54.5" cy="22.6" fill="url(#a)" r="13"/><circle cx="21" cy="60.1" fill="url(#c)" r="2"/><circle cx="31" cy="60.1" fill="url(#d)" r="2"/><circle cx="41" cy="60.1" fill="url(#e)" r="2"/><circle cx="51" cy="60.1" fill="url(#f)" r="2"/><circle cx="16" cy="68.4" fill="url(#g)" r="2"/><circle cx="26" cy="68.4" fill="url(#h)" r="2"/><circle cx="36" cy="68.4" fill="url(#i)" r="2"/><circle cx="46" cy="68.4" fill="url(#j)" r="2"/><path d="m52.5 49.8c5.9 0 10.7-4.8 10.7-10.7s-4.8-10.7-10.7-10.7h-.1c-.9-8.5-8.2-15.1-16.9-15.1-6.9 0-12.9 4.1-15.5 10-.1 0-.2 0-.3 0-7.3 0-13.2 5.9-13.2 13.2s5.9 13.2 13.2 13.2" fill="url(#k)"/><path d="m66.8 49.8c3.7 0 6.7-3 6.7-6.7s-3-6.7-6.7-6.7c0 0 0 0-.1 0-.6-5.3-5.1-9.5-10.6-9.5-4.3 0-8.1 2.6-9.8 6.3-.1 0-.1 0-.2 0-4.6 0-8.3 3.7-8.3 8.3s3.7 8.3 8.3 8.3" fill="url(#l)"/></svg>