<svg enable-background="new 0 0 80 80" viewBox="0 0 80 80" xmlns="http://www.w3.org/2000/svg" xmlns:xlink="http://www.w3.org/1999/xlink"><linearGradient id="a" gradientTransform="matrix(1 0 0 -1 0 -1206)" gradientUnits="userSpaceOnUse" x1="49.5673" x2="65.1686" y1="-1237.594" y2="-1221.9928"><stop offset="0" stop-color="#00aeef"/><stop offset="1" stop-color="#00bdf2"/></linearGradient><linearGradient id="b" gradientTransform="matrix(1 0 0 -1 0 -1206)" gradientUnits="userSpaceOnUse" x1="17.6772" x2="50.089" y1="-1262.2415" y2="-1229.8297"><stop offset="0" stop-color="#a7d3f1"/><stop offset="1" stop-color="#bbd8f2"/></linearGradient><linearGradient id="c"><stop offset="0" stop-color="#d0e8f8"/><stop offset="1" stop-color="#e1eef9"/></linearGradient><linearGradient id="d" gradientUnits="userSpaceOnUse" x1="44.5116" x2="64.8831" xlink:href="#c" y1="54.7509" y2="34.3794"/><linearGradient id="e" gradientTransform="matrix(1 0 0 -1 0 -1206)" gradientUnits="userSpaceOnUse" x1="18.2919" x2="22.2919" xlink:href="#c" y1="-1268.4696" y2="-1268.4696"/><linearGradient id="f" gradientTransform="matrix(1 0 0 -1 0 -1206)" gradientUnits="userSpaceOnUse" x1="28.2919" x2="32.2919" xlink:href="#c" y1="-1268.4696" y2="-1268.4696"/><linearGradient id="g" gradientTransform="matrix(1 0 0 -1 0 -1206)" gradientUnits="userSpaceOnUse" x1="38.2919" x2="42.2919" xlink:href="#c" y1="-1268.4696" y2="-1268.4696"/><linearGradient id="h" gradientTransform="matrix(1 0 0 -1 0 -1206)" gradientUnits="userSpaceOnUse" x1="48.2919" x2="52.2919" xlink:href="#c" y1="-1268.4696" y2="-1268.4696"/><linearGradient id="i" gradientTransform="matrix(1 0 0 -1 0 -1206)" gradientUnits="userSpaceOnUse" x1="13.2919" x2="17.2919" xlink:href="#c" y1="-1276.7697" y2="-1276.7697"/><linearGradient id="j" gradientTransform="matrix(1 0 0 -1 0 -1206)" gradientUnits="userSpaceOnUse" x1="23.2919" x2="27.2919" xlink:href="#c" y1="-1276.7697" y2="-1276.7697"/><linearGradient id="k" gradientTransform="matrix(1 0 0 -1 0 -1206)" gradientUnits="userSpaceOnUse" x1="33.2919" x2="37.2919" xlink:href="#c" y1="-1276.7697" y2="-1276.7697"/><linearGradient id="l" gradientTransform="matrix(1 0 0 -1 0 -1206)" gradientUnits="userSpaceOnUse" x1="43.2919" x2="47.2919" xlink:href="#c" y1="-1276.7697" y2="-1276.7697"/><path d="m59.9 35.9c-8.1 0-14.6-6.6-14.6-14.6 0-6.5 4.3-12.2 10.6-14 .3-.1.6 0 .8.2s.3.5.2.8c-.3 1.2-.5 2.4-.5 3.6 0 7.2 5.9 13.1 13.1 13.1 1.2 0 2.4-.2 3.6-.5.3-.1.6 0 .8.2s.3.5.2.8c-2 6-7.8 10.4-14.2 10.4z" fill="url(#a)"/><path d="m51.9 52.2c5.9 0 10.7-4.8 10.7-10.7s-4.8-10.7-10.7-10.7h-.1c-.9-8.5-8.2-15.1-16.9-15.1-6.9 0-12.9 4.1-15.5 10-.1 0-.2 0-.3 0-7.3.1-13.2 6-13.2 13.3s5.9 13.2 13.2 13.2" fill="url(#b)"/><path d="m66.1 52.2c3.7 0 6.7-3 6.7-6.7s-3-6.7-6.7-6.7c0 0 0 0-.1 0-.6-5.3-5.1-9.5-10.6-9.5-4.3 0-8.1 2.6-9.8 6.3-.1 0-.1 0-.2 0-4.6 0-8.3 3.7-8.3 8.3s3.7 8.3 8.3 8.3" fill="url(#d)"/><circle cx="20.3" cy="62.5" fill="url(#e)" r="2"/><circle cx="30.3" cy="62.5" fill="url(#f)" r="2"/><circle cx="40.3" cy="62.5" fill="url(#g)" r="2"/><circle cx="50.3" cy="62.5" fill="url(#h)" r="2"/><circle cx="15.3" cy="70.8" fill="url(#i)" r="2"/><circle cx="25.3" cy="70.8" fill="url(#j)" r="2"/><circle cx="35.3" cy="70.8" fill="url(#k)" r="2"/><circle cx="45.3" cy="70.8" fill="url(#l)" r="2"/></svg>