<svg enable-background="new 0 0 80 80" viewBox="0 0 80 80" xmlns="http://www.w3.org/2000/svg" xmlns:xlink="http://www.w3.org/1999/xlink"><linearGradient id="a" gradientTransform="matrix(1 0 0 -1 0 1159.3334)" gradientUnits="userSpaceOnUse" x1="22.315" x2="41.5185" y1="1089.6042" y2="1108.8076"><stop offset="0" stop-color="#fdb728"/><stop offset="1" stop-color="#ffcd23"/></linearGradient><linearGradient id="b" gradientTransform="matrix(1 0 0 -1 0 1159.3334)" gradientUnits="userSpaceOnUse" x1="49.1451" x2="64.7464" y1="1129.0133" y2="1144.6146"><stop offset="0" stop-color="#00aeef"/><stop offset="1" stop-color="#00bdf2"/></linearGradient><linearGradient id="c" gradientTransform="matrix(1 0 0 -1 0 1159.3334)" gradientUnits="userSpaceOnUse" x1="18.2896" x2="50.6513" y1="1103.8794" y2="1136.2411"><stop offset="0" stop-color="#a7d3f1"/><stop offset="1" stop-color="#bbd8f2"/></linearGradient><linearGradient id="d" gradientUnits="userSpaceOnUse" x1="45.1464" x2="65.5179" y1="53.9847" y2="33.6132"><stop offset="0" stop-color="#d0e8f8"/><stop offset="1" stop-color="#e1eef9"/></linearGradient><path d="m34.1 47.7c-1.7 0-3.7 1.2-4.5 2.6l-5.3 9.1c-.8 1.4-.2 2.5 1.5 2.4l4.3-.3c1.6-.1 2.3 1 1.6 2.4l-4.8 8.8c-.8 1.4-.4 1.8.9.7l17.3-14.2c1.3-1 1-1.8-.7-1.8l-6.6.3c-1.6.1-2.3-1-1.5-2.4l2.9-5c.8-1.4.2-2.6-1.5-2.6z" fill="url(#a)"/><path d="m59.4 34.6c-8.1 0-14.6-6.6-14.6-14.6 0-6.5 4.3-12.2 10.6-14 .3-.1.6 0 .8.2s.3.5.2.8c-.3 1.2-.5 2.4-.5 3.6 0 7.2 5.9 13.1 13.1 13.1 1.2 0 2.4-.2 3.6-.5.3-.1.6 0 .8.2s.3.5.2.8c-1.9 6-7.7 10.4-14.2 10.4z" fill="url(#b)"/><path d="m52.5 51.4c5.9 0 10.7-4.8 10.7-10.7s-4.8-10.7-10.7-10.7h-.1c-.9-8.5-8.2-15.1-16.9-15.1-6.9 0-12.9 4.1-15.5 10-.1 0-.2 0-.3 0-7.3 0-13.2 5.9-13.2 13.2s5.9 13.2 13.2 13.2" fill="url(#c)"/><path d="m66.7 51.4c3.7 0 6.7-3 6.7-6.7s-3-6.7-6.7-6.7c0 0 0 0-.1 0-.6-5.3-5.1-9.5-10.6-9.5-4.3 0-8.1 2.6-9.8 6.3-.1 0-.1 0-.2 0-4.6 0-8.3 3.7-8.3 8.3s3.7 8.3 8.3 8.3" fill="url(#d)"/></svg>