<svg enable-background="new 0 0 80 80" viewBox="0 0 80 80" xmlns="http://www.w3.org/2000/svg" xmlns:xlink="http://www.w3.org/1999/xlink"><linearGradient id="a" gradientTransform="matrix(1 0 0 -1 0 1779.7778)" gradientUnits="userSpaceOnUse" x1="18.8432" x2="51.2049" y1="1725.6777" y2="1758.0396"><stop offset="0" stop-color="#a7d3f1"/><stop offset="1" stop-color="#bbd8f2"/></linearGradient><linearGradient id="b" gradientUnits="userSpaceOnUse" x1="45.7495" x2="66.1209" y1="52.6812" y2="32.3097"><stop offset="0" stop-color="#d0e8f8"/><stop offset="1" stop-color="#e1eef9"/></linearGradient><linearGradient id="c"><stop offset="0" stop-color="#00aeef"/><stop offset="1" stop-color="#00bdf2"/></linearGradient><linearGradient id="d" gradientTransform="matrix(1 0 0 -1 0 1779.7778)" gradientUnits="userSpaceOnUse" x1="17.2032" x2="24.0908" xlink:href="#c" y1="1717.8817" y2="1717.8817"/><linearGradient id="e" gradientTransform="matrix(1 0 0 -1 0 1779.7778)" gradientUnits="userSpaceOnUse" x1="30.8103" x2="37.698" xlink:href="#c" y1="1717.8817" y2="1717.8817"/><linearGradient id="f" gradientTransform="matrix(1 0 0 -1 0 1779.7778)" gradientUnits="userSpaceOnUse" x1="45.4268" x2="52.3145" xlink:href="#c" y1="1717.8817" y2="1717.8817"/><path d="m53 50.1c5.9 0 10.7-4.8 10.7-10.7s-4.8-10.7-10.7-10.7h-.1c-.9-8.5-8.2-15.1-16.9-15.1-6.9 0-12.9 4.1-15.5 10-.1 0-.2 0-.3 0-7.3 0-13.2 5.9-13.2 13.2s5.9 13.2 13.2 13.2" fill="url(#a)"/><path d="m67.3 50.1c3.7 0 6.7-3 6.7-6.7s-3-6.7-6.7-6.7c0 0 0 0-.1 0-.6-5.3-5.1-9.5-10.6-9.5-4.3 0-8.1 2.6-9.8 6.3-.1 0-.1 0-.2 0-4.6 0-8.3 3.7-8.3 8.3s3.7 8.3 8.3 8.3" fill="url(#b)"/><path d="m19.2 66.4c-.3 0-.7-.1-1-.3-1-.6-1.3-1.8-.7-2.7l2.9-5c.6-1 1.8-1.3 2.7-.7 1 .6 1.3 1.8.7 2.7l-2.9 5c-.4.7-1 1-1.7 1z" fill="url(#d)"/><path d="m32.8 66.4c-.3 0-.7-.1-1-.3-1-.6-1.3-1.8-.7-2.7l2.9-5c.6-1 1.8-1.3 2.7-.7 1 .6 1.3 1.8.7 2.7l-2.9 5c-.3.7-1 1-1.7 1z" fill="url(#e)"/><path d="m47.4 66.4c-.3 0-.7-.1-1-.3-1-.6-1.3-1.8-.7-2.7l2.9-5c.6-1 1.8-1.3 2.7-.7 1 .6 1.3 1.8.7 2.7l-2.9 5c-.3.7-1 1-1.7 1z" fill="url(#f)"/></svg>