<svg enable-background="new 0 0 80 80" viewBox="0 0 80 80" xmlns="http://www.w3.org/2000/svg" xmlns:xlink="http://www.w3.org/1999/xlink"><linearGradient id="a"><stop offset="0" stop-color="#d0e8f8"/><stop offset="1" stop-color="#e1eef9"/></linearGradient><linearGradient id="b" gradientTransform="matrix(1 0 0 -1 0 -1206)" gradientUnits="userSpaceOnUse" x1="18.983" x2="22.983" xlink:href="#a" y1="-1264.25" y2="-1264.25"/><linearGradient id="c" gradientTransform="matrix(1 0 0 -1 0 -1206)" gradientUnits="userSpaceOnUse" x1="28.983" x2="32.983" xlink:href="#a" y1="-1264.25" y2="-1264.25"/><linearGradient id="d" gradientTransform="matrix(1 0 0 -1 0 -1206)" gradientUnits="userSpaceOnUse" x1="38.983" x2="42.983" xlink:href="#a" y1="-1264.25" y2="-1264.25"/><linearGradient id="e" gradientTransform="matrix(1 0 0 -1 0 -1206)" gradientUnits="userSpaceOnUse" x1="48.983" x2="52.983" xlink:href="#a" y1="-1264.25" y2="-1264.25"/><linearGradient id="f" gradientTransform="matrix(1 0 0 -1 0 -1206)" gradientUnits="userSpaceOnUse" x1="13.983" x2="17.983" xlink:href="#a" y1="-1272.55" y2="-1272.55"/><linearGradient id="g" gradientTransform="matrix(1 0 0 -1 0 -1206)" gradientUnits="userSpaceOnUse" x1="23.983" x2="27.983" xlink:href="#a" y1="-1272.55" y2="-1272.55"/><linearGradient id="h" gradientTransform="matrix(1 0 0 -1 0 -1206)" gradientUnits="userSpaceOnUse" x1="33.983" x2="37.983" xlink:href="#a" y1="-1272.55" y2="-1272.55"/><linearGradient id="i" gradientTransform="matrix(1 0 0 -1 0 -1206)" gradientUnits="userSpaceOnUse" x1="43.983" x2="47.983" xlink:href="#a" y1="-1272.55" y2="-1272.55"/><linearGradient id="j" gradientUnits="userSpaceOnUse" x1="18.325" x2="50.6867" y1="51.95" y2="19.5883"><stop offset="0" stop-color="#a7d3f1"/><stop offset="1" stop-color="#bbd8f2"/></linearGradient><linearGradient id="k" gradientTransform="matrix(1 0 0 -1 0 -1206)" gradientUnits="userSpaceOnUse" x1="45.253" x2="65.5779" xlink:href="#a" y1="-1256.5095" y2="-1236.1846"/><circle cx="21" cy="58.2" fill="url(#b)" r="2"/><circle cx="31" cy="58.2" fill="url(#c)" r="2"/><circle cx="41" cy="58.2" fill="url(#d)" r="2"/><circle cx="51" cy="58.2" fill="url(#e)" r="2"/><circle cx="16" cy="66.6" fill="url(#f)" r="2"/><circle cx="26" cy="66.6" fill="url(#g)" r="2"/><circle cx="36" cy="66.6" fill="url(#h)" r="2"/><circle cx="46" cy="66.6" fill="url(#i)" r="2"/><path d="m52.5 47.9c5.9 0 10.7-4.8 10.7-10.7s-4.8-10.7-10.7-10.7h-.1c-.9-8.5-8.2-15.1-16.9-15.1-6.9 0-12.9 4.1-15.5 10-.1 0-.2 0-.3 0-7.3 0-13.2 5.9-13.2 13.2s5.9 13.2 13.2 13.2" fill="url(#j)"/><path d="m66.8 47.9c3.7 0 6.7-3 6.7-6.7s-3-6.7-6.7-6.7c0 0 0 0-.1 0-.6-5.3-5.1-9.5-10.6-9.5-4.3 0-8.1 2.6-9.8 6.3-.1 0-.1 0-.2 0-4.6 0-8.3 3.7-8.3 8.3s3.7 8.3 8.3 8.3" fill="url(#k)"/></svg>