<svg enable-background="new 0 0 80 80" viewBox="0 0 80 80" xmlns="http://www.w3.org/2000/svg" xmlns:xlink="http://www.w3.org/1999/xlink"><linearGradient id="a"><stop offset="0" stop-color="#fdb728"/><stop offset="1" stop-color="#ffcd23"/></linearGradient><linearGradient id="b" gradientTransform="matrix(1 0 0 -1 0 1159.3334)" gradientUnits="userSpaceOnUse" x1="46.9076" x2="65.2403" xlink:href="#a" y1="1128.807" y2="1147.1398"/><linearGradient id="c" gradientTransform="matrix(1 0 0 -1 0 1159.3334)" gradientUnits="userSpaceOnUse" x1="22.3441" x2="41.5517" xlink:href="#a" y1="1092.0125" y2="1111.22"/><linearGradient id="d" gradientUnits="userSpaceOnUse" x1="18.325" x2="50.6867" y1="53.0339" y2="20.6722"><stop offset="0" stop-color="#a7d3f1"/><stop offset="1" stop-color="#bbd8f2"/></linearGradient><linearGradient id="e" gradientTransform="matrix(1 0 0 -1 0 1159.3334)" gradientUnits="userSpaceOnUse" x1="45.2762" x2="65.6013" y1="1107.7632" y2="1128.0883"><stop offset="0" stop-color="#d0e8f8"/><stop offset="1" stop-color="#e1eef9"/></linearGradient><circle cx="56.1" cy="21.3" fill="url(#b)" r="13"/><path d="m34.1 45.3c-1.6 0-3.7 1.2-4.5 2.6l-5.3 9.1c-.8 1.4-.2 2.5 1.5 2.4l4.3-.3c1.6-.1 2.3 1 1.6 2.4l-4.8 8.8c-.8 1.4-.4 1.8.9.7l17.3-14.2c1.3-1 1-1.8-.7-1.8l-6.6.3c-1.6.1-2.3-1-1.5-2.4l2.9-5c.8-1.4.1-2.6-1.5-2.6z" fill="url(#c)"/><path d="m52.5 49c5.9 0 10.7-4.8 10.7-10.7s-4.8-10.7-10.7-10.7h-.1c-.9-8.5-8.2-15.1-16.9-15.1-6.9 0-12.9 4.1-15.5 10-.1 0-.2 0-.3 0-7.3 0-13.2 5.9-13.2 13.2s5.9 13.2 13.2 13.2" fill="url(#d)"/><path d="m66.8 49c3.7 0 6.7-3 6.7-6.7s-3-6.7-6.7-6.7c0 0 0 0-.1 0-.6-5.3-5.1-9.5-10.6-9.5-4.3 0-8.1 2.6-9.8 6.3-.1 0-.1 0-.2 0-4.6 0-8.3 3.7-8.3 8.3s3.7 8.3 8.3 8.3" fill="url(#e)"/></svg>