<svg enable-background="new 0 0 80 80" viewBox="0 0 80 80" xmlns="http://www.w3.org/2000/svg" xmlns:xlink="http://www.w3.org/1999/xlink"><linearGradient id="a" gradientTransform="matrix(1 0 0 -1 0 1779.7778)" gradientUnits="userSpaceOnUse" x1="45.7076" x2="64.0403" y1="1746.9854" y2="1765.3182"><stop offset="0" stop-color="#fdb728"/><stop offset="1" stop-color="#ffcd23"/></linearGradient><linearGradient id="b" gradientUnits="userSpaceOnUse" x1="18.325" x2="50.6867" y1="57" y2="24.6383"><stop offset="0" stop-color="#a7d3f1"/><stop offset="1" stop-color="#bbd8f2"/></linearGradient><linearGradient id="c" gradientTransform="matrix(1 0 0 -1 0 1779.7778)" gradientUnits="userSpaceOnUse" x1="45.2313" x2="65.5563" y1="1724.1967" y2="1744.5216"><stop offset="0" stop-color="#d0e8f8"/><stop offset="1" stop-color="#e1eef9"/></linearGradient><linearGradient id="d"><stop offset="0" stop-color="#00aeef"/><stop offset="1" stop-color="#00bdf2"/></linearGradient><linearGradient id="e" gradientTransform="matrix(1 0 0 -1 0 1779.7778)" gradientUnits="userSpaceOnUse" x1="16.8921" x2="23.7798" xlink:href="#d" y1="1714.8817" y2="1714.8817"/><linearGradient id="f" gradientTransform="matrix(1 0 0 -1 0 1779.7778)" gradientUnits="userSpaceOnUse" x1="30.5093" x2="37.397" xlink:href="#d" y1="1714.8817" y2="1714.8817"/><linearGradient id="g" gradientTransform="matrix(1 0 0 -1 0 1779.7778)" gradientUnits="userSpaceOnUse" x1="45.1206" x2="52.0083" xlink:href="#d" y1="1714.8817" y2="1714.8817"/><circle cx="54.9" cy="23.6" fill="url(#a)" r="13"/><path d="m52.5 53c5.9 0 10.7-4.8 10.7-10.7s-4.8-10.7-10.7-10.7h-.1c-.9-8.5-8.2-15.1-16.9-15.1-6.9 0-12.9 4.1-15.5 10-.1 0-.2 0-.3 0-7.3 0-13.2 5.9-13.2 13.2s5.9 13.2 13.2 13.2" fill="url(#b)"/><path d="m66.8 53c3.7 0 6.7-3 6.7-6.7s-3-6.7-6.7-6.7c0 0 0 0-.1 0-.6-5.3-5.1-9.5-10.6-9.5-4.3 0-8.1 2.6-9.8 6.3-.1 0-.1 0-.2 0-4.6 0-8.3 3.7-8.3 8.3s3.7 8.3 8.3 8.3" fill="url(#c)"/><path d="m18.9 69.4c-.3 0-.7-.1-1-.3-1-.6-1.3-1.8-.7-2.7l2.9-5c.6-1 1.8-1.3 2.7-.7 1 .6 1.3 1.8.7 2.7l-2.9 5c-.3.6-1 1-1.7 1z" fill="url(#e)"/><path d="m32.5 69.4c-.3 0-.7-.1-1-.3-1-.6-1.3-1.8-.7-2.7l2.9-5c.6-1 1.8-1.3 2.7-.7 1 .6 1.3 1.8.7 2.7l-2.9 5c-.3.6-1 1-1.7 1z" fill="url(#f)"/><path d="m47.1 69.4c-.3 0-.7-.1-1-.3-1-.6-1.3-1.8-.7-2.7l2.9-5c.6-1 1.8-1.3 2.7-.7 1 .6 1.3 1.8.7 2.7l-2.9 5c-.3.6-1 1-1.7 1z" fill="url(#g)"/></svg>