<svg enable-background="new 0 0 80 80" viewBox="0 0 80 80" xmlns="http://www.w3.org/2000/svg" xmlns:xlink="http://www.w3.org/1999/xlink"><linearGradient id="a" gradientUnits="userSpaceOnUse" x1="18.8432" x2="51.2049" y1="50.5" y2="18.1383"><stop offset="0" stop-color="#a7d3f1"/><stop offset="1" stop-color="#bbd8f2"/></linearGradient><linearGradient id="b" gradientTransform="matrix(1 0 0 -1 0 1568.2222)" gradientUnits="userSpaceOnUse" x1="45.8114" x2="66.1365" y1="1519.203" y2="1539.5281"><stop offset="0" stop-color="#d0e8f8"/><stop offset="1" stop-color="#e1eef9"/></linearGradient><linearGradient id="c"><stop offset="0" stop-color="#00aeef"/><stop offset="1" stop-color="#00bdf2"/></linearGradient><linearGradient id="d" gradientTransform="matrix(1 0 0 -1 0 1568.2222)" gradientUnits="userSpaceOnUse" x1="14.7032" x2="21.5908" xlink:href="#c" y1="1509.9261" y2="1509.9261"/><linearGradient id="e" gradientTransform="matrix(1 0 0 -1 0 1568.2222)" gradientUnits="userSpaceOnUse" x1="30.8103" x2="37.6979" xlink:href="#c" y1="1509.9261" y2="1509.9261"/><linearGradient id="f" gradientTransform="matrix(1 0 0 -1 0 1568.2222)" gradientUnits="userSpaceOnUse" x1="46.9268" x2="53.8145" xlink:href="#c" y1="1509.9261" y2="1509.9261"/><linearGradient id="g" gradientTransform="matrix(1 0 0 -1 0 1568.2222)" gradientUnits="userSpaceOnUse" x1="19.7032" x2="26.5908" xlink:href="#c" y1="1502.7262" y2="1502.7262"/><linearGradient id="h" gradientTransform="matrix(1 0 0 -1 0 1568.2222)" gradientUnits="userSpaceOnUse" x1="36.3103" x2="43.1979" xlink:href="#c" y1="1502.7262" y2="1502.7262"/><linearGradient id="i" gradientTransform="matrix(1 0 0 -1 0 1568.2222)" gradientUnits="userSpaceOnUse" x1="52.9268" x2="59.8145" xlink:href="#c" y1="1502.7262" y2="1502.7262"/><path d="m53 46.5c5.9 0 10.7-4.8 10.7-10.7s-4.8-10.7-10.7-10.7h-.1c-.9-8.5-8.2-15.1-16.9-15.1-6.9 0-12.9 4.1-15.5 10-.1 0-.2 0-.3 0-7.3 0-13.2 5.9-13.2 13.2s5.9 13.2 13.2 13.2" fill="url(#a)"/><path d="m67.3 46.5c3.7 0 6.7-3 6.7-6.7s-3-6.7-6.7-6.7c0 0 0 0-.1 0-.6-5.3-5.1-9.5-10.6-9.5-4.3 0-8.1 2.6-9.8 6.3-.1 0-.1 0-.2 0-4.6 0-8.3 3.7-8.3 8.3s3.7 8.3 8.3 8.3" fill="url(#b)"/><path d="m16.7 62.8c-.3 0-.7-.1-1-.3-1-.6-1.3-1.8-.7-2.7l2.9-5c.6-1 1.8-1.3 2.7-.7 1 .6 1.3 1.8.7 2.7l-2.9 5c-.4.6-1 1-1.7 1z" fill="url(#d)"/><path d="m32.8 62.8c-.3 0-.7-.1-1-.3-1-.6-1.3-1.8-.7-2.7l2.9-5c.6-1 1.8-1.3 2.7-.7 1 .6 1.3 1.8.7 2.7l-2.9 5c-.3.6-1 1-1.7 1z" fill="url(#e)"/><path d="m48.9 62.8c-.3 0-.7-.1-1-.3-1-.6-1.3-1.8-.7-2.7l2.9-5c.6-1 1.8-1.3 2.7-.7 1 .6 1.3 1.8.7 2.7l-2.9 5c-.3.6-1 1-1.7 1z" fill="url(#f)"/><path d="m21.7 70c-.3 0-.7-.1-1-.3-1-.6-1.3-1.8-.7-2.7l2.9-5c.6-1 1.8-1.3 2.7-.7 1 .6 1.3 1.8.7 2.7l-2.9 5c-.4.6-1 1-1.7 1z" fill="url(#g)"/><path d="m38.3 70c-.3 0-.7-.1-1-.3-1-.6-1.3-1.8-.7-2.7l2.9-5c.6-1 1.8-1.3 2.7-.7 1 .6 1.3 1.8.7 2.7l-2.9 5c-.3.6-1 1-1.7 1z" fill="url(#h)"/><path d="m54.9 70c-.3 0-.7-.1-1-.3-1-.6-1.3-1.8-.7-2.7l2.9-5c.6-1 1.8-1.3 2.7-.7 1 .6 1.3 1.8.7 2.7l-2.9 5c-.3.6-1 1-1.7 1z" fill="url(#i)"/></svg>