<svg enable-background="new 0 0 80 80" viewBox="0 0 80 80" xmlns="http://www.w3.org/2000/svg" xmlns:xlink="http://www.w3.org/1999/xlink"><linearGradient id="a" gradientTransform="matrix(1 0 0 -1 0 1568.2222)" gradientUnits="userSpaceOnUse" x1="45.7076" x2="64.0403" y1="1538.1798" y2="1556.5126"><stop offset="0" stop-color="#fdb728"/><stop offset="1" stop-color="#ffcd23"/></linearGradient><linearGradient id="b" gradientUnits="userSpaceOnUse" x1="18.325" x2="50.6867" y1="52.65" y2="20.2883"><stop offset="0" stop-color="#a7d3f1"/><stop offset="1" stop-color="#bbd8f2"/></linearGradient><linearGradient id="c" gradientTransform="matrix(1 0 0 -1 0 1568.2222)" gradientUnits="userSpaceOnUse" x1="45.2747" x2="65.5998" y1="1517.0344" y2="1537.3595"><stop offset="0" stop-color="#d0e8f8"/><stop offset="1" stop-color="#e1eef9"/></linearGradient><linearGradient id="d"><stop offset="0" stop-color="#00aeef"/><stop offset="1" stop-color="#00bdf2"/></linearGradient><linearGradient id="e" gradientTransform="matrix(1 0 0 -1 0 1568.2222)" gradientUnits="userSpaceOnUse" x1="14.185" x2="21.0726" xlink:href="#d" y1="1507.7761" y2="1507.7761"/><linearGradient id="f" gradientTransform="matrix(1 0 0 -1 0 1568.2222)" gradientUnits="userSpaceOnUse" x1="30.2922" x2="37.1798" xlink:href="#d" y1="1507.7761" y2="1507.7761"/><linearGradient id="g" gradientTransform="matrix(1 0 0 -1 0 1568.2222)" gradientUnits="userSpaceOnUse" x1="46.4086" x2="53.2963" xlink:href="#d" y1="1507.7761" y2="1507.7761"/><linearGradient id="h" gradientTransform="matrix(1 0 0 -1 0 1568.2222)" gradientUnits="userSpaceOnUse" x1="19.185" x2="26.0726" xlink:href="#d" y1="1500.5762" y2="1500.5762"/><linearGradient id="i" gradientTransform="matrix(1 0 0 -1 0 1568.2222)" gradientUnits="userSpaceOnUse" x1="35.7921" x2="42.6798" xlink:href="#d" y1="1500.5762" y2="1500.5762"/><linearGradient id="j" gradientTransform="matrix(1 0 0 -1 0 1568.2222)" gradientUnits="userSpaceOnUse" x1="52.4086" x2="59.2963" xlink:href="#d" y1="1500.5762" y2="1500.5762"/><circle cx="54.9" cy="20.9" fill="url(#a)" r="13"/><path d="m52.5 48.6c5.9 0 10.7-4.8 10.7-10.7s-4.8-10.7-10.7-10.7h-.1c-.9-8.5-8.2-15.1-16.9-15.1-6.9 0-12.9 4.1-15.5 10-.1 0-.2 0-.3 0-7.3 0-13.2 5.9-13.2 13.2s5.9 13.2 13.2 13.2" fill="url(#b)"/><path d="m66.8 48.6c3.7 0 6.7-3 6.7-6.7s-3-6.7-6.7-6.7c0 0 0 0-.1 0-.6-5.3-5.1-9.5-10.6-9.5-4.3 0-8.1 2.6-9.8 6.3-.1 0-.1 0-.2 0-4.6 0-8.3 3.7-8.3 8.3s3.7 8.3 8.3 8.3" fill="url(#c)"/><path d="m16.2 65c-.3 0-.7-.1-1-.3-1-.6-1.3-1.8-.7-2.7l2.9-5c.6-1 1.8-1.3 2.7-.7 1 .6 1.3 1.8.7 2.7l-2.9 5c-.4.6-1 1-1.7 1z" fill="url(#e)"/><path d="m32.3 65c-.3 0-.7-.1-1-.3-1-.6-1.3-1.8-.7-2.7l2.9-5c.6-1 1.8-1.3 2.7-.7 1 .6 1.3 1.8.7 2.7l-2.9 5c-.3.6-1 1-1.7 1z" fill="url(#f)"/><path d="m48.4 65c-.3 0-.7-.1-1-.3-1-.6-1.3-1.8-.7-2.7l2.9-5c.6-1 1.8-1.3 2.7-.7 1 .6 1.3 1.8.7 2.7l-2.9 5c-.3.6-1 1-1.7 1z" fill="url(#g)"/><path d="m21.2 72.1c-.3 0-.7-.1-1-.3-1-.6-1.3-1.8-.7-2.7l2.9-5c.6-1 1.8-1.3 2.7-.7 1 .6 1.3 1.8.7 2.7l-2.9 5c-.4.8-1 1-1.7 1z" fill="url(#h)"/><path d="m37.8 72.1c-.3 0-.7-.1-1-.3-1-.6-1.3-1.8-.7-2.7l2.9-5c.6-1 1.8-1.3 2.7-.7 1 .6 1.3 1.8.7 2.7l-2.9 5c-.3.8-1 1-1.7 1z" fill="url(#i)"/><path d="m54.4 72.1c-.3 0-.7-.1-1-.3-1-.6-1.3-1.8-.7-2.7l2.9-5c.6-1 1.8-1.3 2.7-.7 1 .6 1.3 1.8.7 2.7l-2.9 5c-.3.8-1 1-1.7 1z" fill="url(#j)"/></svg>