<svg enable-background="new 0 0 80 80" viewBox="0 0 80 80" xmlns="http://www.w3.org/2000/svg" xmlns:xlink="http://www.w3.org/1999/xlink"><linearGradient id="a"><stop offset="0" stop-color="#00aeef"/><stop offset="1" stop-color="#00bdf2"/></linearGradient><linearGradient id="b" gradientTransform="matrix(1 0 0 -1 0 1363.7778)" gradientUnits="userSpaceOnUse" x1="49.1306" x2="64.7319" xlink:href="#a" y1="1335.9052" y2="1351.5065"/><linearGradient id="c" gradientTransform="matrix(1 0 0 -1 0 1363.7778)" gradientUnits="userSpaceOnUse" x1="18.2843" x2="50.6461" y1="1311.9023" y2="1344.2642"><stop offset="0" stop-color="#a7d3f1"/><stop offset="1" stop-color="#bbd8f2"/></linearGradient><linearGradient id="d" gradientUnits="userSpaceOnUse" x1="45.1464" x2="65.5179" y1="50.4008" y2="30.0293"><stop offset="0" stop-color="#d0e8f8"/><stop offset="1" stop-color="#e1eef9"/></linearGradient><linearGradient id="e" gradientTransform="matrix(1 0 0 -1 0 1363.7778)" gradientUnits="userSpaceOnUse" x1="11.3303" x2="21.8298" xlink:href="#a" y1="1301.0121" y2="1301.0121"/><linearGradient id="f" gradientTransform="matrix(1 0 0 -1 0 1363.7778)" gradientUnits="userSpaceOnUse" x1="18.4704" x2="32.4709" xlink:href="#a" y1="1297.9121" y2="1297.9121"/><linearGradient id="g" gradientTransform="matrix(1 0 0 -1 0 1363.7778)" gradientUnits="userSpaceOnUse" x1="43.2517" x2="53.2521" xlink:href="#a" y1="1301.3622" y2="1301.3622"/><linearGradient id="h" gradientTransform="matrix(1 0 0 -1 0 1363.7778)" gradientUnits="userSpaceOnUse" x1="31.3611" x2="43.3615" xlink:href="#a" y1="1299.7122" y2="1299.7122"/><path d="m59.4 32.1c-8.1 0-14.6-6.6-14.6-14.6 0-6.5 4.3-12.2 10.6-14 .3-.1.6 0 .8.2s.3.5.2.8c-.3 1.2-.5 2.4-.5 3.6 0 7.2 5.9 13.1 13.1 13.1 1.2 0 2.4-.2 3.6-.5.3-.1.6 0 .8.2s.3.5.2.8c-1.9 6.1-7.7 10.4-14.2 10.4z" fill="url(#b)"/><path d="m52.5 47.8c5.9 0 10.7-4.8 10.7-10.7s-4.8-10.7-10.7-10.7h-.1c-.9-8.5-8.2-15.1-16.9-15.1-6.9 0-12.9 4.1-15.5 10-.1 0-.2 0-.3 0-7.3 0-13.2 5.9-13.2 13.2s5.9 13.2 13.2 13.2" fill="url(#c)"/><path d="m66.7 47.8c3.7 0 6.7-3 6.7-6.7s-3-6.7-6.7-6.7c0 0 0 0-.1 0-.6-5.3-5.1-9.5-10.6-9.5-4.3 0-8.1 2.6-9.8 6.3-.1 0-.1 0-.2 0-4.6 0-8.3 3.7-8.3 8.3s3.7 8.3 8.3 8.3" fill="url(#d)"/><path d="m13.3 70.4c-.3 0-.7-.1-1-.3-1-.6-1.3-1.8-.7-2.7l6.5-11.3c.6-1 1.8-1.3 2.7-.7 1 .6 1.3 1.8.7 2.7l-6.5 11.3c-.3.7-1 1-1.7 1z" fill="url(#e)"/><path d="m20.5 76.5c-.3 0-.7-.1-1-.3-1-.6-1.3-1.8-.7-2.7l10-17.3c.6-1 1.8-1.3 2.7-.7 1 .6 1.3 1.8.7 2.7l-10 17.3c-.4.6-1.1 1-1.7 1z" fill="url(#f)"/><path d="m45.2 69.6c-.3 0-.7-.1-1-.3-1-.6-1.3-1.8-.7-2.7l6-10.4c.6-1 1.8-1.3 2.7-.7 1 .6 1.3 1.8.7 2.7l-6 10.4c-.3.6-1 1-1.7 1z" fill="url(#g)"/><path d="m33.3 73c-.3 0-.7-.1-1-.3-1-.6-1.3-1.8-.7-2.7l8-13.9c.6-1 1.8-1.3 2.7-.7 1 .6 1.3 1.8.7 2.7l-8 13.9c-.3.7-1 1-1.7 1z" fill="url(#h)"/></svg>