<svg enable-background="new 0 0 80 80" viewBox="0 0 80 80" xmlns="http://www.w3.org/2000/svg" xmlns:xlink="http://www.w3.org/1999/xlink"><linearGradient id="a" gradientUnits="userSpaceOnUse" x1="18.8432" x2="51.2049" y1="47.95" y2="15.5883"><stop offset="0" stop-color="#a7d3f1"/><stop offset="1" stop-color="#bbd8f2"/></linearGradient><linearGradient id="b" gradientTransform="matrix(1 0 0 -1 0 1363.7778)" gradientUnits="userSpaceOnUse" x1="45.813" x2="66.1381" y1="1317.3102" y2="1337.6351"><stop offset="0" stop-color="#d0e8f8"/><stop offset="1" stop-color="#e1eef9"/></linearGradient><linearGradient id="c"><stop offset="0" stop-color="#00aeef"/><stop offset="1" stop-color="#00bdf2"/></linearGradient><linearGradient id="d" gradientTransform="matrix(1 0 0 -1 0 1363.7778)" gradientUnits="userSpaceOnUse" x1="11.8751" x2="22.3745" xlink:href="#c" y1="1304.8817" y2="1304.8817"/><linearGradient id="e" gradientTransform="matrix(1 0 0 -1 0 1363.7778)" gradientUnits="userSpaceOnUse" x1="19.0103" x2="33.0107" xlink:href="#c" y1="1301.8817" y2="1301.8817"/><linearGradient id="f" gradientTransform="matrix(1 0 0 -1 0 1363.7778)" gradientUnits="userSpaceOnUse" x1="43.7965" x2="53.7969" xlink:href="#c" y1="1305.3317" y2="1305.3317"/><linearGradient id="g" gradientTransform="matrix(1 0 0 -1 0 1363.7778)" gradientUnits="userSpaceOnUse" x1="31.9103" x2="43.9108" xlink:href="#c" y1="1303.5817" y2="1303.5817"/><path d="m53 43.9c5.9 0 10.7-4.8 10.7-10.7s-4.8-10.7-10.7-10.7h-.1c-.9-8.5-8.2-15.1-16.9-15.1-6.9 0-12.9 4.1-15.5 10-.1 0-.2 0-.3 0-7.3 0-13.2 6-13.2 13.2s5.9 13.2 13.2 13.2" fill="url(#a)"/><path d="m67.3 43.9c3.7 0 6.7-3 6.7-6.7s-3-6.7-6.7-6.7c0 0 0 0-.1 0-.6-5.3-5.1-9.5-10.6-9.5-4.3 0-8.1 2.6-9.8 6.3-.1 0-.1 0-.2 0-4.6 0-8.3 3.7-8.3 8.3s3.7 8.3 8.3 8.3" fill="url(#b)"/><path d="m13.9 66.6c-.3 0-.7-.1-1-.3-1-.6-1.3-1.8-.7-2.7l6.5-11.3c.6-1 1.8-1.3 2.7-.7 1 .6 1.3 1.8.7 2.7l-6.5 11.3c-.4.5-1.1 1-1.7 1z" fill="url(#d)"/><path d="m21 72.6c-.3 0-.7-.1-1-.3-1-.6-1.3-1.8-.7-2.7l10-17.3c.6-1 1.8-1.3 2.7-.7 1 .6 1.3 1.8.7 2.7l-10 17.3c-.3.7-1 1-1.7 1z" fill="url(#e)"/><path d="m45.8 65.6c-.3 0-.7-.1-1-.3-1-.6-1.3-1.8-.7-2.7l6-10.4c.6-1 1.8-1.3 2.7-.7 1 .6 1.3 1.8.7 2.7l-6 10.4c-.4.7-1 1-1.7 1z" fill="url(#f)"/><path d="m33.9 69.1c-.3 0-.7-.1-1-.3-1-.6-1.3-1.8-.7-2.7l8-13.9c.6-1 1.8-1.3 2.7-.7 1 .6 1.3 1.8.7 2.7l-8 13.9c-.4.7-1 1-1.7 1z" fill="url(#g)"/></svg>