<svg enable-background="new 0 0 80 80" viewBox="0 0 80 80" xmlns="http://www.w3.org/2000/svg" xmlns:xlink="http://www.w3.org/1999/xlink"><linearGradient id="a"><stop offset="0" stop-color="#00aeef"/><stop offset="1" stop-color="#00bdf2"/></linearGradient><linearGradient id="b" gradientTransform="matrix(1 0 0 -1 0 1568.2222)" gradientUnits="userSpaceOnUse" x1="49.1306" x2="64.7319" xlink:href="#a" y1="1537.7496" y2="1553.3508"/><linearGradient id="c" gradientTransform="matrix(1 0 0 -1 0 1568.2222)" gradientUnits="userSpaceOnUse" x1="18.2827" x2="50.6444" y1="1513.7451" y2="1546.1069"><stop offset="0" stop-color="#a7d3f1"/><stop offset="1" stop-color="#bbd8f2"/></linearGradient><linearGradient id="d" gradientUnits="userSpaceOnUse" x1="45.1464" x2="65.5179" y1="53.0008" y2="32.6293"><stop offset="0" stop-color="#d0e8f8"/><stop offset="1" stop-color="#e1eef9"/></linearGradient><linearGradient id="e" gradientTransform="matrix(1 0 0 -1 0 1568.2222)" gradientUnits="userSpaceOnUse" x1="16.6584" x2="23.5461" xlink:href="#a" y1="1505.9066" y2="1505.9066"/><linearGradient id="f" gradientTransform="matrix(1 0 0 -1 0 1568.2222)" gradientUnits="userSpaceOnUse" x1="32.7702" x2="39.6579" xlink:href="#a" y1="1505.9066" y2="1505.9066"/><linearGradient id="g" gradientTransform="matrix(1 0 0 -1 0 1568.2222)" gradientUnits="userSpaceOnUse" x1="48.882" x2="55.7697" xlink:href="#a" y1="1505.9066" y2="1505.9066"/><linearGradient id="h" gradientTransform="matrix(1 0 0 -1 0 1568.2222)" gradientUnits="userSpaceOnUse" x1="21.6584" x2="28.5461" xlink:href="#a" y1="1498.8065" y2="1498.8065"/><linearGradient id="i" gradientTransform="matrix(1 0 0 -1 0 1568.2222)" gradientUnits="userSpaceOnUse" x1="38.2707" x2="45.1584" xlink:href="#a" y1="1498.8065" y2="1498.8065"/><linearGradient id="j" gradientTransform="matrix(1 0 0 -1 0 1568.2222)" gradientUnits="userSpaceOnUse" x1="54.882" x2="61.7697" xlink:href="#a" y1="1498.8065" y2="1498.8065"/><path d="m59.4 34.7c-8.1 0-14.6-6.6-14.6-14.6 0-6.5 4.3-12.2 10.6-14 .3-.1.6 0 .8.2s.3.5.2.8c-.3 1.2-.5 2.4-.5 3.6 0 7.2 5.9 13.1 13.1 13.1 1.2 0 2.4-.2 3.6-.5.3-.1.6 0 .8.2s.3.5.2.8c-1.9 6.1-7.7 10.4-14.2 10.4z" fill="url(#b)"/><path d="m52.5 50.4c5.9 0 10.7-4.8 10.7-10.7s-4.8-10.7-10.7-10.7h-.1c-.9-8.5-8.2-15.1-16.9-15.1-6.9 0-12.9 4.1-15.5 10-.1 0-.2 0-.3 0-7.3 0-13.2 5.9-13.2 13.2s5.9 13.2 13.2 13.2" fill="url(#c)"/><path d="m66.7 50.4c3.7 0 6.7-3 6.7-6.7s-3-6.7-6.7-6.7c0 0 0 0-.1 0-.6-5.3-5.1-9.5-10.6-9.5-4.3 0-8.1 2.6-9.8 6.3-.1 0-.1 0-.2 0-4.6 0-8.3 3.7-8.3 8.3s3.7 8.3 8.3 8.3" fill="url(#d)"/><path d="m18.6 66.8c-.3 0-.7-.1-1-.3-1-.6-1.3-1.8-.7-2.7l2.9-5c.6-1 1.8-1.3 2.7-.7 1 .6 1.3 1.8.7 2.7l-2.9 5c-.3.6-1 1-1.7 1z" fill="url(#e)"/><path d="m34.8 66.8c-.3 0-.7-.1-1-.3-1-.6-1.3-1.8-.7-2.7l2.9-5c.6-1 1.8-1.3 2.7-.7 1 .6 1.3 1.8.7 2.7l-2.9 5c-.4.6-1.1 1-1.7 1z" fill="url(#f)"/><path d="m50.9 66.8c-.3 0-.7-.1-1-.3-1-.6-1.3-1.8-.7-2.7l2.9-5c.6-1 1.8-1.3 2.7-.7 1 .6 1.3 1.8.7 2.7l-2.9 5c-.4.6-1 1-1.7 1z" fill="url(#g)"/><path d="m23.6 73.9c-.3 0-.7-.1-1-.3-1-.6-1.3-1.8-.7-2.7l2.9-5c.6-1 1.8-1.3 2.7-.7 1 .6 1.3 1.8.7 2.7l-2.9 5c-.3.7-1 1-1.7 1z" fill="url(#h)"/><path d="m40.3 73.9c-.3 0-.7-.1-1-.3-1-.6-1.3-1.8-.7-2.7l2.9-5c.6-1 1.8-1.3 2.7-.7 1 .6 1.3 1.8.7 2.7l-2.9 5c-.4.7-1.1 1-1.7 1z" fill="url(#i)"/><path d="m56.9 73.9c-.3 0-.7-.1-1-.3-1-.6-1.3-1.8-.7-2.7l2.9-5c.6-1 1.8-1.3 2.7-.7 1 .6 1.3 1.8.7 2.7l-2.9 5c-.4.7-1 1-1.7 1z" fill="url(#j)"/></svg>