<svg enable-background="new 0 0 80 80" viewBox="0 0 80 80" xmlns="http://www.w3.org/2000/svg" xmlns:xlink="http://www.w3.org/1999/xlink"><linearGradient id="a" gradientTransform="matrix(1 0 0 -1 0 1363.7778)" gradientUnits="userSpaceOnUse" x1="45.7329" x2="64.0656" y1="1336.0605" y2="1354.3933"><stop offset="0" stop-color="#fdb728"/><stop offset="1" stop-color="#ffcd23"/></linearGradient><linearGradient id="b" gradientUnits="userSpaceOnUse" x1="18.325" x2="50.6867" y1="49.85" y2="17.4883"><stop offset="0" stop-color="#a7d3f1"/><stop offset="1" stop-color="#bbd8f2"/></linearGradient><linearGradient id="c" gradientTransform="matrix(1 0 0 -1 0 1363.7778)" gradientUnits="userSpaceOnUse" x1="45.2897" x2="65.6147" y1="1315.405" y2="1335.73"><stop offset="0" stop-color="#d0e8f8"/><stop offset="1" stop-color="#e1eef9"/></linearGradient><linearGradient id="d"><stop offset="0" stop-color="#00aeef"/><stop offset="1" stop-color="#00bdf2"/></linearGradient><linearGradient id="e" gradientTransform="matrix(1 0 0 -1 0 1363.7778)" gradientUnits="userSpaceOnUse" x1="11.3569" x2="21.8563" xlink:href="#d" y1="1302.9817" y2="1302.9817"/><linearGradient id="f" gradientTransform="matrix(1 0 0 -1 0 1363.7778)" gradientUnits="userSpaceOnUse" x1="18.4921" x2="32.4925" xlink:href="#d" y1="1299.9817" y2="1299.9817"/><linearGradient id="g" gradientTransform="matrix(1 0 0 -1 0 1363.7778)" gradientUnits="userSpaceOnUse" x1="43.2783" x2="53.2787" xlink:href="#d" y1="1303.4316" y2="1303.4316"/><linearGradient id="h" gradientTransform="matrix(1 0 0 -1 0 1363.7778)" gradientUnits="userSpaceOnUse" x1="31.3921" x2="43.3926" xlink:href="#d" y1="1301.6816" y2="1301.6816"/><circle cx="54.9" cy="18.6" fill="url(#a)" r="13"/><path d="m52.5 45.9c5.9 0 10.7-4.8 10.7-10.7s-4.8-10.7-10.7-10.7h-.1c-.9-8.5-8.2-15.1-16.9-15.1-6.9 0-12.9 4.1-15.5 10-.1 0-.2 0-.3 0-7.3 0-13.2 5.9-13.2 13.2s5.9 13.2 13.2 13.2" fill="url(#b)"/><path d="m66.8 45.9c3.7 0 6.7-3 6.7-6.7s-3-6.7-6.7-6.7c0 0 0 0-.1 0-.6-5.3-5.1-9.5-10.6-9.5-4.3 0-8.1 2.6-9.8 6.3-.1 0-.1 0-.2 0-4.6 0-8.3 3.7-8.3 8.3s3.7 8.3 8.3 8.3" fill="url(#c)"/><path d="m13.4 68.4c-.3 0-.7-.1-1-.3-1-.6-1.3-1.8-.7-2.7l6.5-11.3c.6-1 1.8-1.3 2.7-.7 1 .6 1.3 1.8.7 2.7l-6.5 11.3c-.4.7-1.1 1-1.7 1z" fill="url(#e)"/><path d="m20.5 74.4c-.3 0-.7-.1-1-.3-1-.6-1.3-1.8-.7-2.7l10-17.3c.6-1 1.8-1.3 2.7-.7 1 .6 1.3 1.8.7 2.7l-10 17.3c-.3.7-1 1-1.7 1z" fill="url(#f)"/><path d="m45.3 67.6c-.3 0-.7-.1-1-.3-1-.6-1.3-1.8-.7-2.7l6-10.4c.6-1 1.8-1.3 2.7-.7 1 .6 1.3 1.8.7 2.7l-6 10.4c-.4.5-1 1-1.7 1z" fill="url(#g)"/><path d="m33.4 71.1c-.3 0-.7-.1-1-.3-1-.6-1.3-1.8-.7-2.7l8-13.9c.6-1 1.8-1.3 2.7-.7 1 .6 1.3 1.8.7 2.7l-8 13.9c-.4.5-1 1-1.7 1z" fill="url(#h)"/></svg>