<svg enable-background="new 0 0 80 80" viewBox="0 0 80 80" xmlns="http://www.w3.org/2000/svg" xmlns:xlink="http://www.w3.org/1999/xlink"><linearGradient id="a" gradientUnits="userSpaceOnUse" x1="18.8432" x2="51.2049" y1="47.9" y2="15.5383"><stop offset="0" stop-color="#a7d3f1"/><stop offset="1" stop-color="#bbd8f2"/></linearGradient><linearGradient id="b"><stop offset="0" stop-color="#d0e8f8"/><stop offset="1" stop-color="#e1eef9"/></linearGradient><linearGradient id="c" gradientTransform="matrix(1 0 0 -1 0 314.8889)" gradientUnits="userSpaceOnUse" x1="45.7966" x2="66.1216" xlink:href="#b" y1="268.4548" y2="288.7798"/><linearGradient id="d"><stop offset="0" stop-color="#00aeef"/><stop offset="1" stop-color="#00bdf2"/></linearGradient><linearGradient id="e" gradientTransform="matrix(1 0 0 -1 0 314.8889)" gradientUnits="userSpaceOnUse" x1="11.8748" x2="22.3748" xlink:href="#d" y1="256.0428" y2="256.0428"/><linearGradient id="f" gradientTransform="matrix(1 0 0 -1 0 314.8889)" gradientUnits="userSpaceOnUse" x1="19.0103" x2="33.0112" xlink:href="#d" y1="252.9428" y2="252.9428"/><linearGradient id="g" gradientTransform="matrix(1 0 0 -1 0 314.8889)" gradientUnits="userSpaceOnUse" x1="40.2477" x2="44.2477" xlink:href="#b" y1="261.6889" y2="261.6889"/><linearGradient id="h" gradientTransform="matrix(1 0 0 -1 0 314.8889)" gradientUnits="userSpaceOnUse" x1="50.2477" x2="54.2477" xlink:href="#b" y1="261.6889" y2="261.6889"/><linearGradient id="i" gradientTransform="matrix(1 0 0 -1 0 314.8889)" gradientUnits="userSpaceOnUse" x1="31.2477" x2="35.2477" xlink:href="#b" y1="245.0889" y2="245.0889"/><linearGradient id="j" gradientTransform="matrix(1 0 0 -1 0 314.8889)" gradientUnits="userSpaceOnUse" x1="36.2477" x2="40.2477" xlink:href="#b" y1="253.5889" y2="253.5889"/><linearGradient id="k" gradientTransform="matrix(1 0 0 -1 0 314.8889)" gradientUnits="userSpaceOnUse" x1="46.2477" x2="50.2477" xlink:href="#b" y1="253.5889" y2="253.5889"/><path d="m53 43.9c5.9 0 10.7-4.8 10.7-10.7s-4.8-10.7-10.7-10.7h-.1c-.9-8.5-8.2-15.1-16.9-15.1-6.9 0-12.9 4.1-15.5 10-.1 0-.2 0-.3 0-7.3 0-13.2 5.9-13.2 13.2s5.9 13.2 13.2 13.2" fill="url(#a)"/><path d="m67.3 43.9c3.7 0 6.7-3 6.7-6.7s-3-6.7-6.7-6.7c0 0 0 0-.1 0-.6-5.3-5.1-9.5-10.6-9.5-4.3 0-8.1 2.6-9.8 6.3-.1 0-.1 0-.2 0-4.6 0-8.3 3.7-8.3 8.3s3.7 8.3 8.3 8.3" fill="url(#c)"/><path d="m13.9 66.5c-.3 0-.7-.1-1-.3-1-.6-1.3-1.8-.7-2.7l6.5-11.3c.6-1 1.8-1.3 2.7-.7 1 .6 1.3 1.8.7 2.7l-6.5 11.3c-.4.6-1.1 1-1.7 1z" fill="url(#e)"/><path d="m21 72.6c-.3 0-.7-.1-1-.3-1-.6-1.3-1.8-.7-2.7l10-17.3c.6-1 1.8-1.3 2.7-.7 1 .6 1.3 1.8.7 2.7l-10 17.3c-.3.6-1 1-1.7 1z" fill="url(#f)"/><circle cx="42.2" cy="53.2" fill="url(#g)" r="2"/><circle cx="52.2" cy="53.2" fill="url(#h)" r="2"/><circle cx="33.2" cy="69.8" fill="url(#i)" r="2"/><circle cx="38.2" cy="61.3" fill="url(#j)" r="2"/><circle cx="48.2" cy="61.3" fill="url(#k)" r="2"/></svg>