<svg enable-background="new 0 0 80 80" viewBox="0 0 80 80" xmlns="http://www.w3.org/2000/svg" xmlns:xlink="http://www.w3.org/1999/xlink"><linearGradient id="a" gradientTransform="matrix(1 0 0 -1 0 314.8889)" gradientUnits="userSpaceOnUse" x1="45.4473" x2="63.78" y1="287.2362" y2="305.5689"><stop offset="0" stop-color="#fdb728"/><stop offset="1" stop-color="#ffcd23"/></linearGradient><linearGradient id="b" gradientUnits="userSpaceOnUse" x1="18.325" x2="50.6867" y1="49.8" y2="17.4383"><stop offset="0" stop-color="#a7d3f1"/><stop offset="1" stop-color="#bbd8f2"/></linearGradient><linearGradient id="c"><stop offset="0" stop-color="#d0e8f8"/><stop offset="1" stop-color="#e1eef9"/></linearGradient><linearGradient id="d" gradientTransform="matrix(1 0 0 -1 0 314.8889)" gradientUnits="userSpaceOnUse" x1="45.257" x2="65.5821" xlink:href="#c" y1="266.5334" y2="286.8584"/><linearGradient id="e"><stop offset="0" stop-color="#00aeef"/><stop offset="1" stop-color="#00bdf2"/></linearGradient><linearGradient id="f" gradientTransform="matrix(1 0 0 -1 0 314.8889)" gradientUnits="userSpaceOnUse" x1="11.3566" x2="21.8566" xlink:href="#e" y1="254.1428" y2="254.1428"/><linearGradient id="g" gradientTransform="matrix(1 0 0 -1 0 314.8889)" gradientUnits="userSpaceOnUse" x1="18.4921" x2="32.493" xlink:href="#e" y1="251.0428" y2="251.0428"/><linearGradient id="h" gradientTransform="matrix(1 0 0 -1 0 314.8889)" gradientUnits="userSpaceOnUse" x1="39.7295" x2="43.7295" xlink:href="#c" y1="259.6889" y2="259.6889"/><linearGradient id="i" gradientTransform="matrix(1 0 0 -1 0 314.8889)" gradientUnits="userSpaceOnUse" x1="49.7295" x2="53.7295" xlink:href="#c" y1="259.6889" y2="259.6889"/><linearGradient id="j" gradientTransform="matrix(1 0 0 -1 0 314.8889)" gradientUnits="userSpaceOnUse" x1="30.7295" x2="34.7295" xlink:href="#c" y1="243.0889" y2="243.0889"/><linearGradient id="k" gradientTransform="matrix(1 0 0 -1 0 314.8889)" gradientUnits="userSpaceOnUse" x1="35.7295" x2="39.7295" xlink:href="#c" y1="251.5889" y2="251.5889"/><linearGradient id="l" gradientTransform="matrix(1 0 0 -1 0 314.8889)" gradientUnits="userSpaceOnUse" x1="45.7295" x2="49.7295" xlink:href="#c" y1="251.5889" y2="251.5889"/><circle cx="54.6" cy="18.5" fill="url(#a)" r="13"/><path d="m52.5 45.8c5.9 0 10.7-4.8 10.7-10.7s-4.8-10.7-10.7-10.7h-.1c-.9-8.5-8.2-15.1-16.9-15.1-6.9 0-12.9 4.1-15.5 10-.1 0-.2 0-.3 0-7.3 0-13.2 5.9-13.2 13.2s5.9 13.2 13.2 13.2" fill="url(#b)"/><path d="m66.8 45.8c3.7 0 6.7-3 6.7-6.7s-3-6.7-6.7-6.7c0 0 0 0-.1 0-.6-5.3-5.1-9.5-10.6-9.5-4.3 0-8.1 2.6-9.8 6.3-.1 0-.1 0-.2 0-4.6 0-8.3 3.7-8.3 8.3s3.7 8.3 8.3 8.3" fill="url(#d)"/><path d="m13.4 68.4c-.3 0-.7-.1-1-.3-1-.6-1.3-1.8-.7-2.7l6.5-11.3c.6-1 1.8-1.3 2.7-.7 1 .6 1.3 1.8.7 2.7l-6.5 11.3c-.4.7-1.1 1-1.7 1z" fill="url(#f)"/><path d="m20.5 74.5c-.3 0-.7-.1-1-.3-1-.6-1.3-1.8-.7-2.7l10-17.3c.6-1 1.8-1.3 2.7-.7 1 .6 1.3 1.8.7 2.7l-10 17.3c-.3.6-1 1-1.7 1z" fill="url(#g)"/><circle cx="41.7" cy="55.2" fill="url(#h)" r="2"/><circle cx="51.7" cy="55.2" fill="url(#i)" r="2"/><circle cx="32.7" cy="71.8" fill="url(#j)" r="2"/><circle cx="37.7" cy="63.3" fill="url(#k)" r="2"/><circle cx="47.7" cy="63.3" fill="url(#l)" r="2"/></svg>