<svg enable-background="new 0 0 80 80" viewBox="0 0 80 80" xmlns="http://www.w3.org/2000/svg" xmlns:xlink="http://www.w3.org/1999/xlink"><linearGradient id="a"><stop offset="0" stop-color="#00aeef"/><stop offset="1" stop-color="#00bdf2"/></linearGradient><linearGradient id="b" gradientTransform="matrix(1 0 0 -1 0 314.8889)" gradientUnits="userSpaceOnUse" x1="49.1306" x2="64.7319" xlink:href="#a" y1="287.0163" y2="302.6176"/><linearGradient id="c" gradientTransform="matrix(1 0 0 -1 0 314.8889)" gradientUnits="userSpaceOnUse" x1="18.3401" x2="50.7018" y1="262.9693" y2="295.331"><stop offset="0" stop-color="#a7d3f1"/><stop offset="1" stop-color="#bbd8f2"/></linearGradient><linearGradient id="d"><stop offset="0" stop-color="#d0e8f8"/><stop offset="1" stop-color="#e1eef9"/></linearGradient><linearGradient id="e" gradientUnits="userSpaceOnUse" x1="45.1464" x2="65.5579" xlink:href="#d" y1="50.5009" y2="30.0893"/><linearGradient id="f" gradientTransform="matrix(1 0 0 -1 0 314.8889)" gradientUnits="userSpaceOnUse" x1="11.33" x2="21.83" xlink:href="#a" y1="252.0232" y2="252.0232"/><linearGradient id="g" gradientTransform="matrix(1 0 0 -1 0 314.8889)" gradientUnits="userSpaceOnUse" x1="18.4697" x2="32.4706" xlink:href="#a" y1="249.0232" y2="249.0232"/><linearGradient id="h" gradientTransform="matrix(1 0 0 -1 0 314.8889)" gradientUnits="userSpaceOnUse" x1="39.7029" x2="43.7029" xlink:href="#d" y1="257.6693" y2="257.6693"/><linearGradient id="i" gradientTransform="matrix(1 0 0 -1 0 314.8889)" gradientUnits="userSpaceOnUse" x1="49.7029" x2="53.7029" xlink:href="#d" y1="257.6693" y2="257.6693"/><linearGradient id="j" gradientTransform="matrix(1 0 0 -1 0 314.8889)" gradientUnits="userSpaceOnUse" x1="30.7029" x2="34.7029" xlink:href="#d" y1="241.0693" y2="241.0693"/><linearGradient id="k" gradientTransform="matrix(1 0 0 -1 0 314.8889)" gradientUnits="userSpaceOnUse" x1="35.7029" x2="39.7029" xlink:href="#d" y1="249.5693" y2="249.5693"/><linearGradient id="l" gradientTransform="matrix(1 0 0 -1 0 314.8889)" gradientUnits="userSpaceOnUse" x1="45.7029" x2="49.7029" xlink:href="#d" y1="249.5693" y2="249.5693"/><path d="m59.4 32.1c-8.1 0-14.6-6.6-14.6-14.6 0-6.5 4.3-12.2 10.6-14 .3-.1.6 0 .8.2s.3.5.2.8c-.3 1.2-.5 2.4-.5 3.6 0 7.2 5.9 13.1 13.1 13.1 1.2 0 2.4-.2 3.6-.5.3-.1.6 0 .8.2s.3.5.2.8c-1.9 6.1-7.7 10.4-14.2 10.4z" fill="url(#b)"/><path d="m52.5 47.9c5.9 0 10.7-4.8 10.7-10.7s-4.8-10.7-10.7-10.7h-.1c-.9-8.5-8.2-15.1-16.9-15.1-6.9 0-12.9 4.1-15.5 10-.1 0-.2 0-.3 0-7.3 0-13.2 5.9-13.2 13.2s5.9 13.2 13.2 13.2" fill="url(#c)"/><path d="m66.7 47.9c3.7 0 6.7-3 6.7-6.7s-3-6.7-6.7-6.7c0 0 0 0-.1 0-.5-5.4-5.1-9.5-10.6-9.5-4.3 0-8.1 2.6-9.8 6.3-.1 0-.1 0-.2 0-4.6 0-8.3 3.7-8.3 8.3s3.7 8.3 8.3 8.3" fill="url(#e)"/><path d="m13.3 70.5c-.3 0-.7-.1-1-.3-1-.6-1.3-1.8-.7-2.7l6.5-11.3c.6-1 1.8-1.3 2.7-.7 1 .6 1.3 1.8.7 2.7l-6.5 11.3c-.3.6-1 1-1.7 1z" fill="url(#f)"/><path d="m20.5 76.5c-.3 0-.7-.1-1-.3-1-.6-1.3-1.8-.7-2.7l10-17.3c.6-1 1.8-1.3 2.7-.7 1 .6 1.3 1.8.7 2.7l-10 17.3c-.4.7-1.1 1-1.7 1z" fill="url(#g)"/><circle cx="41.7" cy="57.2" fill="url(#h)" r="2"/><circle cx="51.7" cy="57.2" fill="url(#i)" r="2"/><circle cx="32.7" cy="73.8" fill="url(#j)" r="2"/><circle cx="37.7" cy="65.3" fill="url(#k)" r="2"/><circle cx="47.7" cy="65.3" fill="url(#l)" r="2"/></svg>