<svg enable-background="new 0 0 80 80" viewBox="0 0 80 80" xmlns="http://www.w3.org/2000/svg" xmlns:xlink="http://www.w3.org/1999/xlink"><linearGradient id="a" gradientTransform="matrix(1 0 0 -1 0 531.7778)" gradientUnits="userSpaceOnUse" x1="45.3793" x2="63.7121" y1="504.0572" y2="522.3898"><stop offset="0" stop-color="#fdb728"/><stop offset="1" stop-color="#ffcd23"/></linearGradient><linearGradient id="b"><stop offset="0" stop-color="#d0e8f8"/><stop offset="1" stop-color="#e1eef9"/></linearGradient><linearGradient id="c" gradientTransform="matrix(1 0 0 -1 0 531.7778)" gradientUnits="userSpaceOnUse" x1="17.677" x2="21.677" xlink:href="#b" y1="475.6778" y2="475.6778"/><linearGradient id="d" gradientTransform="matrix(1 0 0 -1 0 531.7778)" gradientUnits="userSpaceOnUse" x1="27.677" x2="31.677" xlink:href="#b" y1="475.6778" y2="475.6778"/><linearGradient id="e" gradientTransform="matrix(1 0 0 -1 0 531.7778)" gradientUnits="userSpaceOnUse" x1="37.677" x2="41.677" xlink:href="#b" y1="475.6778" y2="475.6778"/><linearGradient id="f" gradientTransform="matrix(1 0 0 -1 0 531.7778)" gradientUnits="userSpaceOnUse" x1="47.677" x2="51.677" xlink:href="#b" y1="475.6778" y2="475.6778"/><linearGradient id="g" gradientTransform="matrix(1 0 0 -1 0 531.7778)" gradientUnits="userSpaceOnUse" x1="17.677" x2="21.677" xlink:href="#b" y1="459.3778" y2="459.3778"/><linearGradient id="h" gradientTransform="matrix(1 0 0 -1 0 531.7778)" gradientUnits="userSpaceOnUse" x1="27.677" x2="31.677" xlink:href="#b" y1="459.3778" y2="459.3778"/><linearGradient id="i" gradientTransform="matrix(1 0 0 -1 0 531.7778)" gradientUnits="userSpaceOnUse" x1="37.677" x2="41.677" xlink:href="#b" y1="459.3778" y2="459.3778"/><linearGradient id="j" gradientTransform="matrix(1 0 0 -1 0 531.7778)" gradientUnits="userSpaceOnUse" x1="47.677" x2="51.677" xlink:href="#b" y1="459.3778" y2="459.3778"/><linearGradient id="k" gradientTransform="matrix(1 0 0 -1 0 531.7778)" gradientUnits="userSpaceOnUse" x1="12.677" x2="16.677" xlink:href="#b" y1="467.3778" y2="467.3778"/><linearGradient id="l" gradientTransform="matrix(1 0 0 -1 0 531.7778)" gradientUnits="userSpaceOnUse" x1="22.677" x2="26.677" xlink:href="#b" y1="467.3778" y2="467.3778"/><linearGradient id="m" gradientTransform="matrix(1 0 0 -1 0 531.7778)" gradientUnits="userSpaceOnUse" x1="32.677" x2="36.677" xlink:href="#b" y1="467.3778" y2="467.3778"/><linearGradient id="n" gradientTransform="matrix(1 0 0 -1 0 531.7778)" gradientUnits="userSpaceOnUse" x1="42.677" x2="46.677" xlink:href="#b" y1="467.3778" y2="467.3778"/><linearGradient id="o" gradientUnits="userSpaceOnUse" x1="18.325" x2="50.6867" y1="49.8" y2="17.4383"><stop offset="0" stop-color="#a7d3f1"/><stop offset="1" stop-color="#bbd8f2"/></linearGradient><linearGradient id="p" gradientTransform="matrix(1 0 0 -1 0 531.7778)" gradientUnits="userSpaceOnUse" x1="45.2312" x2="65.5563" xlink:href="#b" y1="483.3965" y2="503.7216"/><circle cx="54.5" cy="18.6" fill="url(#a)" r="13"/><circle cx="19.7" cy="56.1" fill="url(#c)" r="2"/><circle cx="29.7" cy="56.1" fill="url(#d)" r="2"/><circle cx="39.7" cy="56.1" fill="url(#e)" r="2"/><circle cx="49.7" cy="56.1" fill="url(#f)" r="2"/><circle cx="19.7" cy="72.4" fill="url(#g)" r="2"/><circle cx="29.7" cy="72.4" fill="url(#h)" r="2"/><circle cx="39.7" cy="72.4" fill="url(#i)" r="2"/><circle cx="49.7" cy="72.4" fill="url(#j)" r="2"/><circle cx="14.7" cy="64.4" fill="url(#k)" r="2"/><circle cx="24.7" cy="64.4" fill="url(#l)" r="2"/><circle cx="34.7" cy="64.4" fill="url(#m)" r="2"/><circle cx="44.7" cy="64.4" fill="url(#n)" r="2"/><path d="m52.5 45.8c5.9 0 10.7-4.8 10.7-10.7s-4.8-10.7-10.7-10.7h-.1c-.9-8.5-8.2-15.1-16.9-15.1-6.9 0-12.9 4.1-15.5 10-.1 0-.2 0-.3 0-7.3 0-13.2 5.9-13.2 13.2s5.9 13.2 13.2 13.2" fill="url(#o)"/><path d="m66.8 45.8c3.7 0 6.7-3 6.7-6.7s-3-6.7-6.7-6.7c0 0 0 0-.1 0-.6-5.3-5.1-9.5-10.6-9.5-4.3 0-8.1 2.6-9.8 6.3-.1 0-.1 0-.2 0-4.6 0-8.3 3.7-8.3 8.3s3.7 8.3 8.3 8.3" fill="url(#p)"/></svg>