<svg enable-background="new 0 0 80 80" viewBox="0 0 80 80" xmlns="http://www.w3.org/2000/svg" xmlns:xlink="http://www.w3.org/1999/xlink"><linearGradient id="a" gradientTransform="matrix(1 0 0 -1 0 531.7778)" gradientUnits="userSpaceOnUse" x1="49.652" x2="65.2533" y1="504.1837" y2="519.785"><stop offset="0" stop-color="#00aeef"/><stop offset="1" stop-color="#00bdf2"/></linearGradient><linearGradient id="b" gradientTransform="matrix(1 0 0 -1 0 531.7778)" gradientUnits="userSpaceOnUse" x1="17.762" x2="50.1737" y1="479.5363" y2="511.948"><stop offset="0" stop-color="#a7d3f1"/><stop offset="1" stop-color="#bbd8f2"/></linearGradient><linearGradient id="c"><stop offset="0" stop-color="#d0e8f8"/><stop offset="1" stop-color="#e1eef9"/></linearGradient><linearGradient id="d" gradientUnits="userSpaceOnUse" x1="44.5964" x2="64.9679" xlink:href="#c" y1="50.7509" y2="30.3794"/><linearGradient id="e" gradientTransform="matrix(1 0 0 -1 0 531.7778)" gradientUnits="userSpaceOnUse" x1="17.0706" x2="21.0706" xlink:href="#c" y1="473.3082" y2="473.3082"/><linearGradient id="f" gradientTransform="matrix(1 0 0 -1 0 531.7778)" gradientUnits="userSpaceOnUse" x1="27.0706" x2="31.0706" xlink:href="#c" y1="473.3082" y2="473.3082"/><linearGradient id="g" gradientTransform="matrix(1 0 0 -1 0 531.7778)" gradientUnits="userSpaceOnUse" x1="37.0706" x2="41.0706" xlink:href="#c" y1="473.3082" y2="473.3082"/><linearGradient id="h" gradientTransform="matrix(1 0 0 -1 0 531.7778)" gradientUnits="userSpaceOnUse" x1="47.0706" x2="51.0706" xlink:href="#c" y1="473.3082" y2="473.3082"/><linearGradient id="i" gradientTransform="matrix(1 0 0 -1 0 531.7778)" gradientUnits="userSpaceOnUse" x1="17.0706" x2="21.0706" xlink:href="#c" y1="457.0081" y2="457.0081"/><linearGradient id="j" gradientTransform="matrix(1 0 0 -1 0 531.7778)" gradientUnits="userSpaceOnUse" x1="27.0706" x2="31.0706" xlink:href="#c" y1="457.0081" y2="457.0081"/><linearGradient id="k" gradientTransform="matrix(1 0 0 -1 0 531.7778)" gradientUnits="userSpaceOnUse" x1="37.0706" x2="41.0706" xlink:href="#c" y1="457.0081" y2="457.0081"/><linearGradient id="l" gradientTransform="matrix(1 0 0 -1 0 531.7778)" gradientUnits="userSpaceOnUse" x1="47.0706" x2="51.0706" xlink:href="#c" y1="457.0081" y2="457.0081"/><linearGradient id="m" gradientTransform="matrix(1 0 0 -1 0 531.7778)" gradientUnits="userSpaceOnUse" x1="12.0706" x2="16.0706" xlink:href="#c" y1="465.0081" y2="465.0081"/><linearGradient id="n" gradientTransform="matrix(1 0 0 -1 0 531.7778)" gradientUnits="userSpaceOnUse" x1="22.0706" x2="26.0706" xlink:href="#c" y1="465.0081" y2="465.0081"/><linearGradient id="o" gradientTransform="matrix(1 0 0 -1 0 531.7778)" gradientUnits="userSpaceOnUse" x1="32.0706" x2="36.0706" xlink:href="#c" y1="465.0081" y2="465.0081"/><linearGradient id="p" gradientTransform="matrix(1 0 0 -1 0 531.7778)" gradientUnits="userSpaceOnUse" x1="42.0706" x2="46.0706" xlink:href="#c" y1="465.0081" y2="465.0081"/><path d="m60 31.9c-8.1 0-14.6-6.6-14.6-14.6 0-6.5 4.3-12.2 10.6-14 .3-.1.6 0 .8.2s.3.5.2.8c-.3 1.2-.5 2.4-.5 3.6 0 7.2 5.9 13.1 13.1 13.1 1.2 0 2.4-.2 3.6-.5.3-.1.6 0 .8.2s.3.5.2.8c-2 6-7.8 10.4-14.2 10.4z" fill="url(#a)"/><path d="m52 48.2c5.9 0 10.7-4.8 10.7-10.7s-4.8-10.7-10.7-10.7h-.1c-.9-8.5-8.2-15.1-16.9-15.1-6.9 0-12.9 4.1-15.5 10-.1 0-.2 0-.3 0-7.3.1-13.2 6-13.2 13.3s5.9 13.2 13.2 13.2" fill="url(#b)"/><path d="m66.2 48.2c3.7 0 6.7-3 6.7-6.7s-3-6.7-6.7-6.7c0 0 0 0-.1 0-.6-5.3-5.1-9.5-10.6-9.5-4.3 0-8.1 2.6-9.8 6.3-.1 0-.1 0-.2 0-4.6 0-8.3 3.7-8.3 8.3s3.7 8.3 8.3 8.3" fill="url(#d)"/><circle cx="19.1" cy="58.5" fill="url(#e)" r="2"/><circle cx="29.1" cy="58.5" fill="url(#f)" r="2"/><circle cx="39.1" cy="58.5" fill="url(#g)" r="2"/><circle cx="49.1" cy="58.5" fill="url(#h)" r="2"/><circle cx="19.1" cy="74.8" fill="url(#i)" r="2"/><circle cx="29.1" cy="74.8" fill="url(#j)" r="2"/><circle cx="39.1" cy="74.8" fill="url(#k)" r="2"/><circle cx="49.1" cy="74.8" fill="url(#l)" r="2"/><circle cx="14.1" cy="66.8" fill="url(#m)" r="2"/><circle cx="24.1" cy="66.8" fill="url(#n)" r="2"/><circle cx="34.1" cy="66.8" fill="url(#o)" r="2"/><circle cx="44.1" cy="66.8" fill="url(#p)" r="2"/></svg>