<svg enable-background="new 0 0 80 80" viewBox="0 0 80 80" xmlns="http://www.w3.org/2000/svg" xmlns:xlink="http://www.w3.org/1999/xlink"><linearGradient id="a"><stop offset="0" stop-color="#d0e8f8"/><stop offset="1" stop-color="#e1eef9"/></linearGradient><linearGradient id="b" gradientTransform="matrix(1 0 0 -1 0 531.7778)" gradientUnits="userSpaceOnUse" x1="18.1952" x2="22.1952" xlink:href="#a" y1="477.5278" y2="477.5278"/><linearGradient id="c" gradientTransform="matrix(1 0 0 -1 0 531.7778)" gradientUnits="userSpaceOnUse" x1="28.1952" x2="32.1952" xlink:href="#a" y1="477.5278" y2="477.5278"/><linearGradient id="d" gradientTransform="matrix(1 0 0 -1 0 531.7778)" gradientUnits="userSpaceOnUse" x1="38.1952" x2="42.1952" xlink:href="#a" y1="477.5278" y2="477.5278"/><linearGradient id="e" gradientTransform="matrix(1 0 0 -1 0 531.7778)" gradientUnits="userSpaceOnUse" x1="48.1952" x2="52.1952" xlink:href="#a" y1="477.5278" y2="477.5278"/><linearGradient id="f" gradientTransform="matrix(1 0 0 -1 0 531.7778)" gradientUnits="userSpaceOnUse" x1="18.1952" x2="22.1952" xlink:href="#a" y1="461.2278" y2="461.2278"/><linearGradient id="g" gradientTransform="matrix(1 0 0 -1 0 531.7778)" gradientUnits="userSpaceOnUse" x1="28.1952" x2="32.1952" xlink:href="#a" y1="461.2278" y2="461.2278"/><linearGradient id="h" gradientTransform="matrix(1 0 0 -1 0 531.7778)" gradientUnits="userSpaceOnUse" x1="38.1952" x2="42.1952" xlink:href="#a" y1="461.2278" y2="461.2278"/><linearGradient id="i" gradientTransform="matrix(1 0 0 -1 0 531.7778)" gradientUnits="userSpaceOnUse" x1="48.1952" x2="52.1952" xlink:href="#a" y1="461.2278" y2="461.2278"/><linearGradient id="j" gradientTransform="matrix(1 0 0 -1 0 531.7778)" gradientUnits="userSpaceOnUse" x1="13.1952" x2="17.1952" xlink:href="#a" y1="469.2278" y2="469.2278"/><linearGradient id="k" gradientTransform="matrix(1 0 0 -1 0 531.7778)" gradientUnits="userSpaceOnUse" x1="23.1952" x2="27.1952" xlink:href="#a" y1="469.2278" y2="469.2278"/><linearGradient id="l" gradientTransform="matrix(1 0 0 -1 0 531.7778)" gradientUnits="userSpaceOnUse" x1="33.1952" x2="37.1952" xlink:href="#a" y1="469.2278" y2="469.2278"/><linearGradient id="m" gradientTransform="matrix(1 0 0 -1 0 531.7778)" gradientUnits="userSpaceOnUse" x1="43.1952" x2="47.1952" xlink:href="#a" y1="469.2278" y2="469.2278"/><linearGradient id="n" gradientUnits="userSpaceOnUse" x1="18.8432" x2="51.2049" y1="47.95" y2="15.5883"><stop offset="0" stop-color="#a7d3f1"/><stop offset="1" stop-color="#bbd8f2"/></linearGradient><linearGradient id="o" gradientTransform="matrix(1 0 0 -1 0 531.7778)" gradientUnits="userSpaceOnUse" x1="45.7711" x2="66.0961" xlink:href="#a" y1="485.2682" y2="505.5932"/><circle cx="20.2" cy="54.2" fill="url(#b)" r="2"/><circle cx="30.2" cy="54.2" fill="url(#c)" r="2"/><circle cx="40.2" cy="54.2" fill="url(#d)" r="2"/><circle cx="50.2" cy="54.2" fill="url(#e)" r="2"/><circle cx="20.2" cy="70.6" fill="url(#f)" r="2"/><circle cx="30.2" cy="70.6" fill="url(#g)" r="2"/><circle cx="40.2" cy="70.6" fill="url(#h)" r="2"/><circle cx="50.2" cy="70.6" fill="url(#i)" r="2"/><circle cx="15.2" cy="62.6" fill="url(#j)" r="2"/><circle cx="25.2" cy="62.6" fill="url(#k)" r="2"/><circle cx="35.2" cy="62.6" fill="url(#l)" r="2"/><circle cx="45.2" cy="62.6" fill="url(#m)" r="2"/><path d="m53 43.9c5.9 0 10.7-4.8 10.7-10.7s-4.8-10.6-10.7-10.6h-.1c-.9-8.5-8.2-15.2-16.9-15.2-6.9 0-12.9 4.1-15.5 10-.1 0-.2 0-.3 0-7.3 0-13.2 5.9-13.2 13.2s5.9 13.2 13.2 13.2" fill="url(#n)"/><path d="m67.3 43.9c3.7 0 6.7-3 6.7-6.7s-3-6.7-6.7-6.7c0 0 0 0-.1 0-.6-5.3-5.1-9.5-10.6-9.5-4.3 0-8.1 2.6-9.8 6.3-.1 0-.1 0-.2 0-4.6 0-8.3 3.7-8.3 8.3s3.7 8.4 8.3 8.4" fill="url(#o)"/></svg>