<svg enable-background="new 0 0 80 80" viewBox="0 0 80 80" xmlns="http://www.w3.org/2000/svg" xmlns:xlink="http://www.w3.org/1999/xlink"><linearGradient id="a" gradientTransform="matrix(1 0 0 -1 0 -776.6667)" gradientUnits="userSpaceOnUse" x1="35.2303" x2="54.4337" y1="-846.3959" y2="-827.1924"><stop offset="0" stop-color="#fdb728"/><stop offset="1" stop-color="#ffcd23"/></linearGradient><linearGradient id="b"><stop offset="0" stop-color="#00aeef"/><stop offset="1" stop-color="#00bdf2"/></linearGradient><linearGradient id="c" gradientTransform="matrix(1 0 0 -1 0 -776.6667)" gradientUnits="userSpaceOnUse" x1="49.0458" x2="64.6471" xlink:href="#b" y1="-807.0232" y2="-791.4219"/><linearGradient id="d" gradientTransform="matrix(1 0 0 -1 0 -776.6667)" gradientUnits="userSpaceOnUse" x1="18.2397" x2="50.5892" y1="-832.1545" y2="-799.8051"><stop offset="0" stop-color="#a7d3f1"/><stop offset="1" stop-color="#bbd8f2"/></linearGradient><linearGradient id="e"><stop offset="0" stop-color="#d0e8f8"/><stop offset="1" stop-color="#e1eef9"/></linearGradient><linearGradient id="f" gradientUnits="userSpaceOnUse" x1="45.0616" x2="65.4331" xlink:href="#e" y1="53.9847" y2="33.6132"/><linearGradient id="g" gradientTransform="matrix(1 0 0 -1 0 -776.6667)" gradientUnits="userSpaceOnUse" x1="10.2455" x2="20.7449" xlink:href="#b" y1="-843.0162" y2="-843.0162"/><linearGradient id="h" gradientTransform="matrix(1 0 0 -1 0 -776.6667)" gradientUnits="userSpaceOnUse" x1="27.5091" x2="31.5091" xlink:href="#e" y1="-837.1202" y2="-837.1202"/><linearGradient id="i" gradientTransform="matrix(1 0 0 -1 0 -776.6667)" gradientUnits="userSpaceOnUse" x1="23.5091" x2="27.5091" xlink:href="#e" y1="-845.2202" y2="-845.2202"/><path d="m47 47.7c-1.7 0-3.7 1.2-4.5 2.6l-5.3 9.1c-.8 1.4-.2 2.5 1.5 2.4l4.3-.3c1.6-.1 2.3 1 1.6 2.4l-4.8 8.8c-.8 1.4-.4 1.8.9.7l17.3-14.2c1.3-1 1-1.8-.7-1.8l-6.6.3c-1.6.1-2.3-1-1.5-2.4l2.9-5c.8-1.4.2-2.6-1.5-2.6z" fill="url(#a)"/><path d="m59.3 34.6c-8.1 0-14.6-6.6-14.6-14.6 0-6.5 4.3-12.2 10.6-14 .3-.1.6 0 .8.2s.3.5.2.8c-.3 1.2-.5 2.4-.5 3.6 0 7.2 5.9 13.1 13.1 13.1 1.2 0 2.4-.2 3.6-.5.3-.1.6 0 .8.2s.3.5.2.8c-1.9 6.1-7.7 10.4-14.2 10.4z" fill="url(#c)"/><path d="m52.4 51.4c5.9 0 10.7-4.8 10.7-10.7s-4.8-10.7-10.7-10.7h-.1c-1-8.4-8.2-15-16.9-15-6.9 0-12.9 4.1-15.5 10-.1 0-.2 0-.3 0-7.3 0-13.2 6-13.2 13.2 0 7.3 5.9 13.2 13.2 13.2" fill="url(#d)"/><path d="m66.6 51.4c3.7 0 6.7-3 6.7-6.7s-3-6.7-6.7-6.7c0 0 0 0-.1 0-.6-5.3-5.1-9.5-10.6-9.5-4.3 0-8.1 2.6-9.8 6.3-.1 0-.1 0-.2 0-4.6 0-8.3 3.7-8.3 8.3s3.7 8.3 8.3 8.3" fill="url(#f)"/><path d="m12.2 74c-.3 0-.7-.1-1-.3-1-.6-1.3-1.8-.7-2.7l6.5-11.3c.6-1 1.8-1.3 2.7-.7 1 .6 1.3 1.8.7 2.7l-6.5 11.3c-.3.6-1 1-1.7 1z" fill="url(#g)"/><circle cx="29.5" cy="60.5" fill="url(#h)" r="2"/><circle cx="25.5" cy="68.6" fill="url(#i)" r="2"/></svg>