<svg enable-background="new 0 0 80 80" viewBox="0 0 80 80" xmlns="http://www.w3.org/2000/svg" xmlns:xlink="http://www.w3.org/1999/xlink"><linearGradient id="a"><stop offset="0" stop-color="#fdb728"/><stop offset="1" stop-color="#ffcd23"/></linearGradient><linearGradient id="b" gradientTransform="matrix(1 0 0 -1 0 -776.6667)" gradientUnits="userSpaceOnUse" x1="45.7076" x2="64.0403" xlink:href="#a" y1="-807.3929" y2="-789.0602"/><linearGradient id="c" gradientTransform="matrix(1 0 0 -1 0 -776.6667)" gradientUnits="userSpaceOnUse" x1="35.3257" x2="54.5333" xlink:href="#a" y1="-843.806" y2="-824.5984"/><linearGradient id="d" gradientUnits="userSpaceOnUse" x1="18.325" x2="50.6867" y1="52.8339" y2="20.4722"><stop offset="0" stop-color="#a7d3f1"/><stop offset="1" stop-color="#bbd8f2"/></linearGradient><linearGradient id="e"><stop offset="0" stop-color="#d0e8f8"/><stop offset="1" stop-color="#e1eef9"/></linearGradient><linearGradient id="f" gradientTransform="matrix(1 0 0 -1 0 -776.6667)" gradientUnits="userSpaceOnUse" x1="45.2578" x2="65.5829" xlink:href="#e" y1="-828.0552" y2="-807.7302"/><linearGradient id="g" gradientTransform="matrix(1 0 0 -1 0 -776.6667)" gradientUnits="userSpaceOnUse" x1="10.3567" x2="20.8562" y1="-840.3466" y2="-840.3466"><stop offset="0" stop-color="#00aeef"/><stop offset="1" stop-color="#00bdf2"/></linearGradient><linearGradient id="h" gradientTransform="matrix(1 0 0 -1 0 -776.6667)" gradientUnits="userSpaceOnUse" x1="27.6204" x2="31.6204" xlink:href="#e" y1="-835.1005" y2="-835.1005"/><linearGradient id="i" gradientTransform="matrix(1 0 0 -1 0 -776.6667)" gradientUnits="userSpaceOnUse" x1="23.6204" x2="27.6204" xlink:href="#e" y1="-843.2006" y2="-843.2006"/><circle cx="54.9" cy="21.5" fill="url(#b)" r="13"/><path d="m47.1 45.1c-1.6 0-3.7 1.2-4.5 2.6l-5.3 9.1c-.8 1.4-.2 2.5 1.5 2.4l4.3-.3c1.6-.1 2.3 1 1.6 2.4l-4.8 8.8c-.8 1.4-.4 1.8.9.7l17.3-14.2c1.3-1 1-1.8-.7-1.8l-6.6.3c-1.6.1-2.3-1-1.5-2.4l2.9-5c.8-1.4.1-2.6-1.5-2.6z" fill="url(#c)"/><path d="m52.5 48.8c5.9 0 10.7-4.8 10.7-10.7s-4.8-10.7-10.7-10.7h-.1c-.9-8.5-8.2-15.1-16.9-15.1-6.9 0-12.9 4.1-15.5 10-.1 0-.2 0-.3 0-7.3 0-13.2 5.9-13.2 13.2s5.9 13.2 13.2 13.2" fill="url(#d)"/><path d="m66.8 48.8c3.7 0 6.7-3 6.7-6.7s-3-6.7-6.7-6.7c0 0 0 0-.1 0-.6-5.3-5.1-9.5-10.6-9.5-4.3 0-8.1 2.6-9.8 6.3-.1 0-.1 0-.2 0-4.6 0-8.3 3.7-8.3 8.3s3.7 8.3 8.3 8.3" fill="url(#f)"/><path d="m12.4 71.3c-.3 0-.7-.1-1-.3-1-.6-1.3-1.8-.7-2.7l6.5-11.3c.6-1 1.8-1.3 2.7-.7 1 .6 1.3 1.8.7 2.7l-6.5 11.3c-.4.7-1.1 1-1.7 1z" fill="url(#g)"/><circle cx="29.6" cy="58.4" fill="url(#h)" r="2"/><circle cx="25.6" cy="66.5" fill="url(#i)" r="2"/></svg>