<svg enable-background="new 0 0 80 80" viewBox="0 0 80 80" xmlns="http://www.w3.org/2000/svg" xmlns:xlink="http://www.w3.org/1999/xlink"><linearGradient id="a" gradientTransform="matrix(1 0 0 -1 0 -998)" gradientUnits="userSpaceOnUse" x1="35.2303" x2="54.4337" y1="-1067.7292" y2="-1048.5258"><stop offset="0" stop-color="#fdb728"/><stop offset="1" stop-color="#ffcd23"/></linearGradient><linearGradient id="b" gradientTransform="matrix(1 0 0 -1 0 -998)" gradientUnits="userSpaceOnUse" x1="49.0458" x2="64.6471" y1="-1028.3566" y2="-1012.7552"><stop offset="0" stop-color="#00aeef"/><stop offset="1" stop-color="#00bdf2"/></linearGradient><linearGradient id="c" gradientTransform="matrix(1 0 0 -1 0 -998)" gradientUnits="userSpaceOnUse" x1="18.2397" x2="50.5892" y1="-1053.4879" y2="-1021.1384"><stop offset="0" stop-color="#a7d3f1"/><stop offset="1" stop-color="#bbd8f2"/></linearGradient><linearGradient id="d"><stop offset="0" stop-color="#d0e8f8"/><stop offset="1" stop-color="#e1eef9"/></linearGradient><linearGradient id="e" gradientUnits="userSpaceOnUse" x1="45.0616" x2="65.4331" xlink:href="#d" y1="53.9847" y2="33.6132"/><linearGradient id="f" gradientTransform="matrix(1 0 0 -1 0 -998)" gradientUnits="userSpaceOnUse" x1="16.9859" x2="20.9859" xlink:href="#d" y1="-1059.7035" y2="-1059.7035"/><linearGradient id="g" gradientTransform="matrix(1 0 0 -1 0 -998)" gradientUnits="userSpaceOnUse" x1="26.9859" x2="30.9859" xlink:href="#d" y1="-1059.7035" y2="-1059.7035"/><linearGradient id="h" gradientTransform="matrix(1 0 0 -1 0 -998)" gradientUnits="userSpaceOnUse" x1="11.9859" x2="15.9859" xlink:href="#d" y1="-1068.0035" y2="-1068.0035"/><linearGradient id="i" gradientTransform="matrix(1 0 0 -1 0 -998)" gradientUnits="userSpaceOnUse" x1="21.9859" x2="25.9859" xlink:href="#d" y1="-1068.0035" y2="-1068.0035"/><path d="m47 47.7c-1.7 0-3.7 1.2-4.5 2.6l-5.3 9.1c-.8 1.4-.2 2.5 1.5 2.4l4.3-.3c1.6-.1 2.3 1 1.6 2.4l-4.8 8.8c-.8 1.4-.4 1.8.9.7l17.3-14.2c1.3-1 1-1.8-.7-1.8l-6.6.3c-1.6.1-2.3-1-1.5-2.4l2.9-5c.8-1.4.2-2.6-1.5-2.6z" fill="url(#a)"/><path d="m59.3 34.6c-8.1 0-14.6-6.6-14.6-14.6 0-6.5 4.3-12.2 10.6-14 .3-.1.6 0 .8.2s.3.5.2.8c-.3 1.2-.5 2.4-.5 3.6 0 7.2 5.9 13.1 13.1 13.1 1.2 0 2.4-.2 3.6-.5.3-.1.6 0 .8.2s.3.5.2.8c-1.9 6.1-7.7 10.4-14.2 10.4z" fill="url(#b)"/><path d="m52.4 51.4c5.9 0 10.7-4.8 10.7-10.7s-4.8-10.7-10.7-10.7h-.1c-1-8.4-8.2-15-16.9-15-6.9 0-12.9 4.1-15.5 10-.1 0-.2 0-.3 0-7.3 0-13.2 6-13.2 13.2 0 7.3 5.9 13.2 13.2 13.2" fill="url(#c)"/><path d="m66.6 51.4c3.7 0 6.7-3 6.7-6.7s-3-6.7-6.7-6.7c0 0 0 0-.1 0-.6-5.3-5.1-9.5-10.6-9.5-4.3 0-8.1 2.6-9.8 6.3-.1 0-.1 0-.2 0-4.6 0-8.3 3.7-8.3 8.3s3.7 8.3 8.3 8.3" fill="url(#e)"/><circle cx="19" cy="61.7" fill="url(#f)" r="2"/><circle cx="29" cy="61.7" fill="url(#g)" r="2"/><circle cx="14" cy="70" fill="url(#h)" r="2"/><circle cx="24" cy="70" fill="url(#i)" r="2"/></svg>