<svg enable-background="new 0 0 80 80" viewBox="0 0 80 80" xmlns="http://www.w3.org/2000/svg" xmlns:xlink="http://www.w3.org/1999/xlink"><linearGradient id="a" gradientTransform="matrix(1 0 0 -1 0 -998)" gradientUnits="userSpaceOnUse" x1="35.331" x2="54.5344" y1="-1063.2341" y2="-1044.0306"><stop offset="0" stop-color="#fdb728"/><stop offset="1" stop-color="#ffcd23"/></linearGradient><linearGradient id="b" gradientUnits="userSpaceOnUse" x1="18.325" x2="50.6867" y1="50.9339" y2="18.5722"><stop offset="0" stop-color="#a7d3f1"/><stop offset="1" stop-color="#bbd8f2"/></linearGradient><linearGradient id="c"><stop offset="0" stop-color="#d0e8f8"/><stop offset="1" stop-color="#e1eef9"/></linearGradient><linearGradient id="d" gradientTransform="matrix(1 0 0 -1 0 -998)" gradientUnits="userSpaceOnUse" x1="45.2631" x2="65.5881" xlink:href="#c" y1="-1047.4833" y2="-1027.1583"/><linearGradient id="e" gradientTransform="matrix(1 0 0 -1 0 -998)" gradientUnits="userSpaceOnUse" x1="17.677" x2="21.677" xlink:href="#c" y1="-1055.4839" y2="-1055.4839"/><linearGradient id="f" gradientTransform="matrix(1 0 0 -1 0 -998)" gradientUnits="userSpaceOnUse" x1="27.677" x2="31.677" xlink:href="#c" y1="-1055.4839" y2="-1055.4839"/><linearGradient id="g" gradientTransform="matrix(1 0 0 -1 0 -998)" gradientUnits="userSpaceOnUse" x1="12.677" x2="16.677" xlink:href="#c" y1="-1063.7839" y2="-1063.7839"/><linearGradient id="h" gradientTransform="matrix(1 0 0 -1 0 -998)" gradientUnits="userSpaceOnUse" x1="22.677" x2="26.677" xlink:href="#c" y1="-1063.7839" y2="-1063.7839"/><path d="m47.1 43.2c-1.6 0-3.7 1.2-4.5 2.6l-5.3 9.1c-.8 1.4-.2 2.5 1.5 2.4l4.3-.3c1.6-.1 2.3 1 1.6 2.4l-4.8 8.8c-.8 1.4-.4 1.8.9.7l17.3-14.2c1.3-1 1-1.8-.7-1.8l-6.6.3c-1.6.1-2.3-1-1.5-2.4l2.9-5c.8-1.4.2-2.6-1.5-2.6z" fill="url(#a)"/><path d="m52.5 46.9c5.9 0 10.7-4.8 10.7-10.7s-4.8-10.7-10.7-10.7h-.1c-.9-8.5-8.2-15.1-16.9-15.1-6.9 0-12.9 4.1-15.5 10-.1 0-.2 0-.3 0-7.3 0-13.2 5.9-13.2 13.2s5.9 13.2 13.2 13.2" fill="url(#b)"/><path d="m66.8 46.9c3.7 0 6.7-3 6.7-6.7s-3-6.7-6.7-6.7c0 0 0 0-.1 0-.6-5.3-5.1-9.5-10.6-9.5-4.3 0-8.1 2.6-9.8 6.3-.1 0-.1 0-.2 0-4.6 0-8.3 3.7-8.3 8.3s3.7 8.3 8.3 8.3" fill="url(#d)"/><circle cx="19.7" cy="57.5" fill="url(#e)" r="2"/><circle cx="29.7" cy="57.5" fill="url(#f)" r="2"/><circle cx="14.7" cy="65.8" fill="url(#g)" r="2"/><circle cx="24.7" cy="65.8" fill="url(#h)" r="2"/></svg>