<svg enable-background="new 0 0 80 80" viewBox="0 0 80 80" xmlns="http://www.w3.org/2000/svg" xmlns:xlink="http://www.w3.org/1999/xlink"><linearGradient id="a"><stop offset="0" stop-color="#d0e8f8"/><stop offset="1" stop-color="#e1eef9"/></linearGradient><linearGradient id="b" gradientTransform="matrix(1 0 0 -1 0 -346.4445)" gradientUnits="userSpaceOnUse" x1="18.5" x2="61.5" xlink:href="#a" y1="-369.6444" y2="-369.6444"/><linearGradient id="c" gradientTransform="matrix(1 0 0 -1 0 -346.4445)" gradientUnits="userSpaceOnUse" x1="26.5255" x2="51.5255" xlink:href="#a" y1="-379.3445" y2="-379.3445"/><linearGradient id="d" gradientTransform="matrix(1 0 0 -1 0 -346.4445)" gradientUnits="userSpaceOnUse" x1="32.5255" x2="54.5255" xlink:href="#a" y1="-388.9445" y2="-388.9445"/><linearGradient id="e" gradientTransform="matrix(1 0 0 -1 0 -346.4445)" gradientUnits="userSpaceOnUse" x1="32.5255" x2="48.5255" xlink:href="#a" y1="-398.5445" y2="-398.5445"/><linearGradient id="f" gradientTransform="matrix(1 0 0 -1 0 -346.4445)" gradientUnits="userSpaceOnUse" x1="34.0255" x2="39.0255" xlink:href="#a" y1="-408.1444" y2="-408.1444"/><path d="m59.5 25.2h-39c-1.1 0-2-.9-2-2s.9-2 2-2h39c1.1 0 2 .9 2 2s-.9 2-2 2z" fill="url(#b)"/><path d="m49.5 34.9h-21c-1.1 0-2-.9-2-2s.9-2 2-2h21c1.1 0 2 .9 2 2s-.9 2-2 2z" fill="url(#c)"/><path d="m52.5 44.5h-18c-1.1 0-2-.9-2-2s.9-2 2-2h18c1.1 0 2 .9 2 2s-.9 2-2 2z" fill="url(#d)"/><path d="m46.5 54.1h-12c-1.1 0-2-.9-2-2s.9-2 2-2h12c1.1 0 2 .9 2 2s-.9 2-2 2z" fill="url(#e)"/><path d="m37 63.7h-1c-1.1 0-2-.9-2-2s.9-2 2-2h1c1.1 0 2 .9 2 2s-.9 2-2 2z" fill="url(#f)"/></svg>