<svg enable-background="new 0 0 80 80" viewBox="0 0 80 80" xmlns="http://www.w3.org/2000/svg" xmlns:xlink="http://www.w3.org/1999/xlink"><linearGradient id="a"><stop offset="0" stop-color="#00aeef"/><stop offset="1" stop-color="#00bdf2"/></linearGradient><linearGradient id="b" gradientTransform="matrix(1 0 0 -1 0 -568.6667)" gradientUnits="userSpaceOnUse" x1="21.05" x2="62.0025" xlink:href="#a" y1="-620.7667" y2="-620.7667"/><linearGradient id="c" gradientTransform="matrix(1 0 0 -1 0 -568.6667)" gradientUnits="userSpaceOnUse" x1="7.2501" x2="72.7499" xlink:href="#a" y1="-611.8666" y2="-611.8666"/><linearGradient id="d" gradientTransform="matrix(1 0 0 -1 0 -568.6667)" gradientUnits="userSpaceOnUse" x1="31.6884" x2="61.9883" xlink:href="#a" y1="-596.5667" y2="-596.5667"/><path d="m56.8 57.2c-2.8 0-5.1-2.3-5.1-5.1 0-.7.1-1.3.4-1.9h-29.4c-.9 0-1.6-.7-1.6-1.6s.7-1.6 1.6-1.6h34.1.1.1c2.8 0 5.1 2.3 5.1 5.1-.1 2.8-2.4 5.1-5.3 5.1z" fill="url(#b)"/><path d="m67.5 48.3c-2.8 0-5.1-2.3-5.1-5.1 0-.7.1-1.3.4-1.9h-53.9c-.9 0-1.6-.7-1.6-1.6s.7-1.6 1.6-1.6h58.6.1.1c2.8 0 5.1 2.3 5.1 5.1-.1 2.8-2.5 5.1-5.3 5.1z" fill="url(#c)"/><path d="m56.8 22.8c-2.8 0-5.1 2.3-5.1 5.1 0 .7.1 1.3.4 1.9h-18.9c-.9 0-1.6.7-1.6 1.6s.7 1.6 1.6 1.6h23.4.1.1c2.8 0 5.1-2.3 5.1-5.1.1-2.8-2.2-5.1-5.1-5.1z" fill="url(#d)"/></svg>