<svg enable-background="new 0 0 80 80" viewBox="0 0 80 80" xmlns="http://www.w3.org/2000/svg" xmlns:xlink="http://www.w3.org/1999/xlink"><linearGradient id="a"><stop offset="0" stop-color="#00aeef"/><stop offset="1" stop-color="#00bdf2"/></linearGradient><linearGradient id="b" gradientTransform="matrix(1 0 0 -1 0 -568.6667)" gradientUnits="userSpaceOnUse" x1="21.95" x2="62.9026" xlink:href="#a" y1="-615.7667" y2="-615.7667"/><linearGradient id="c" gradientTransform="matrix(1 0 0 -1 0 -568.6667)" gradientUnits="userSpaceOnUse" x1="8.0795" x2="73.5795" xlink:href="#a" y1="-606.8667" y2="-606.8667"/><linearGradient id="d" gradientTransform="matrix(1 0 0 -1 0 -568.6667)" gradientUnits="userSpaceOnUse" x1="32.5754" x2="62.8754" xlink:href="#a" y1="-591.5667" y2="-591.5667"/><linearGradient id="e"><stop offset="0" stop-color="#d0e8f8"/><stop offset="1" stop-color="#e1eef9"/></linearGradient><linearGradient id="f" gradientTransform="matrix(1 0 0 -1 0 -568.6667)" gradientUnits="userSpaceOnUse" x1="6.3054" x2="10.3054" xlink:href="#e" y1="-621.8667" y2="-621.8667"/><linearGradient id="g" gradientTransform="matrix(1 0 0 -1 0 -568.6667)" gradientUnits="userSpaceOnUse" x1="16.3054" x2="20.3054" xlink:href="#e" y1="-621.8667" y2="-621.8667"/><linearGradient id="h" gradientTransform="matrix(1 0 0 -1 0 -568.6667)" gradientUnits="userSpaceOnUse" x1="26.3054" x2="30.3054" xlink:href="#e" y1="-621.8667" y2="-621.8667"/><linearGradient id="i" gradientTransform="matrix(1 0 0 -1 0 -568.6667)" gradientUnits="userSpaceOnUse" x1="36.3054" x2="40.3054" xlink:href="#e" y1="-621.8667" y2="-621.8667"/><linearGradient id="j" gradientTransform="matrix(1 0 0 -1 0 -568.6667)" gradientUnits="userSpaceOnUse" x1="11.3054" x2="15.3054" xlink:href="#e" y1="-628.8667" y2="-628.8667"/><linearGradient id="k" gradientTransform="matrix(1 0 0 -1 0 -568.6667)" gradientUnits="userSpaceOnUse" x1="21.3054" x2="25.3054" xlink:href="#e" y1="-628.8667" y2="-628.8667"/><linearGradient id="l" gradientTransform="matrix(1 0 0 -1 0 -568.6667)" gradientUnits="userSpaceOnUse" x1="31.3054" x2="35.3054" xlink:href="#e" y1="-628.8667" y2="-628.8667"/><linearGradient id="m" gradientTransform="matrix(1 0 0 -1 0 -568.6667)" gradientUnits="userSpaceOnUse" x1="11.3054" x2="15.3054" xlink:href="#e" y1="-614.8667" y2="-614.8667"/><path d="m57.7 52.2c-2.8 0-5.1-2.3-5.1-5.1 0-.7.1-1.3.4-1.9h-29.5c-.9 0-1.6-.7-1.6-1.6s.7-1.6 1.6-1.6h34.1.1.1c2.8 0 5.1 2.3 5.1 5.1-.1 2.8-2.4 5.1-5.2 5.1z" fill="url(#b)"/><path d="m68.3 43.3c-2.8 0-5.1-2.3-5.1-5.1 0-.7.1-1.3.4-1.9h-53.9c-.9 0-1.6-.7-1.6-1.6s.7-1.6 1.6-1.6h58.6.1.1c2.8 0 5.1 2.3 5.1 5.1-.1 2.8-2.4 5.1-5.3 5.1z" fill="url(#c)"/><path d="m57.7 17.8c-2.8 0-5.1 2.3-5.1 5.1 0 .7.1 1.3.4 1.9h-18.8c-.9 0-1.6.7-1.6 1.6s.7 1.6 1.6 1.6h23.4.1.1c2.8 0 5.1-2.3 5.1-5.1-.1-2.8-2.4-5.1-5.2-5.1z" fill="url(#d)"/><circle cx="8.3" cy="53.2" fill="url(#f)" r="2"/><circle cx="18.3" cy="53.2" fill="url(#g)" r="2"/><circle cx="28.3" cy="53.2" fill="url(#h)" r="2"/><circle cx="38.3" cy="53.2" fill="url(#i)" r="2"/><circle cx="13.3" cy="60.2" fill="url(#j)" r="2"/><circle cx="23.3" cy="60.2" fill="url(#k)" r="2"/><circle cx="33.3" cy="60.2" fill="url(#l)" r="2"/><circle cx="13.3" cy="46.2" fill="url(#m)" r="2"/></svg>