<svg enable-background="new 0 0 96 96" viewBox="0 0 96 96" xmlns="http://www.w3.org/2000/svg" xmlns:xlink="http://www.w3.org/1999/xlink"><clipPath id="a"><circle cx="48" cy="48" r="48"/></clipPath><path clip-path="url(#a)" d="m0 0h96v96h-96z" fill="#fff"/><g clip-path="url(#a)"><path d="m22.1 96h11.2l1.5-18.6c-9.9 2.9-11.9 4-12.7 18.6z" fill="#1e1e29"/><path d="m60.9 77.4 1.5 18.6h11.2c-.9-14.6-2.9-15.7-12.7-18.6z" fill="#1e1e29"/><path d="m60.1 78.8c-3.1-7.6-19.6-5.4-23.9-1.7-4.4 3.7-5.6 8.1 1 14.5 2 1.9 3.7 3.3 5.3 4.4h8.5c4.1-4.4 10.9-12.7 9.1-17.2z" fill="#e8e8e8"/><path d="m51.4 84.4s-1.1-2.5-4.3-1.9c-2.9.5-3.3 3-3.3 3l2.4 2.4-2.5 8.1h9.3l-3.2-8.6z" fill="#379bdb"/><path d="m36 77.8c.2-.5.5-1 .8-1.5-3.5 1.5-6.8 3.8-7.7 7-.8 2.8.6 8.1 1.5 12.7h16.4c-3.7-3.5-13-12.9-11-18.2z" fill="#1e1e29"/><path d="m63.1 79.1c-1-1-2.2-1.9-3.7-2.6.2.5.3 1 .2 1.5-.7 7.5-7 15.1-9.8 18.1h13.5c0-.2.1-.4.1-.6 1.2-6.1 4.3-11.5-.3-16.4z" fill="#1e1e29"/><path d="m63 90.1c-.2-.8-2.9-4.6-2.9-4.6l5-2.9c-2.4-4.6-7.1-7.4-7.1-7.4 1.1 9.7-5.6 17.7-8.3 20.7h2.6c.8-.6 1.7-1.2 2.7-1.8 3.8-2 8-3.6 8-4z" fill="#313142"/><path d="m37.1 76.2s-5.1 2.4-7.1 7.4l6 2.3s-2.6 5-2.7 5.8c-.1.5 4.5.3 10.2 3.3.7.3 1.3.7 1.8 1.1h1.9c-2.9-2.7-10.1-9.5-10.1-19.9z" fill="#313142"/><path d="m53.2 78.2c-3.4-1.8-17.1-2.2-15.6 2.7 1.6 4.9 5.6 7.4 5.6 7.4l4.6-4.4 4.9 4.2c4.7-4.2 6-8.3 6-8.3s-2.1.2-5.5-1.6z" opacity=".1"/><path d="m36.8 76.4c-2.3 5.8 6 10.6 6 10.6l4.9-3.1 4.6 2.9s9.1-4.8 5.7-11.6c-3-6.1-18.5-5.6-21.2 1.2z" fill="#f5f5f5"/><path d="m44.2 68.2c-2.9.6-4.9 3.5-5.1 6.4-.2 2.2.2 3.5 1.4 4.8.9.9 2.4 1.8 3.9 2.3 1.1.3 3 1.6 3.3 1.6.1 0 .8-.5 1.8-1.1 1.5-.8 3.6-1.8 4.4-3.4 1.2-2.4 2.3-7.1 0-8.9-2.3-2-6.9-2.3-9.7-1.7z" fill="#ed9d6c"/><path d="m66.9 30.5c.4-12.7-10.4-21-28-18.1-30.8 5.1-21.9 47.8-13.3 45.2 6.4-1.9 12.7-4.3 19-6.5 5.9-2 12.7-1.4 18.9-1.5 4.9-.1 4.6-2.1 4.5-6.1-.2-7.4-1.2-10-1.1-13z" fill="#4f2c1e"/><path d="m40.7 21.5c-11.2 3.2-17.8 20.3-14.4 35.6 2.5 11.4 12.5 23.3 25.8 21.2 13.5-2.1 18.8-19.7 15.9-33.8-3.2-15.2-11.6-27.5-27.3-23z" fill="#ffb97f"/><path d="m21.8 51c-5.5 2-2.5 10 2.2 11.3 1.5.4 3.1.3 4.6.1 0 0 .1-.1.1-.1.6-1.1-1.1-6.5-1.5-7.6-1.2-2.8-2.8-4.7-5.4-3.7z" fill="#ffb97f"/><path d="m60.6 24.4c-6.1-2.9-12.1-3.2-18.9-2.7-4.5.3-11.4.6-14.7 4.3-2.7 2.9-2.5 8-2.3 11.7.1 1.4 1 12.1 1.6 9.8 1.1-4.3 4.4-6.2 3.9-10.6 6.8 2.4 16.7 1.3 25.2-.4 5.3-1 9.5-2.7 11 1.7-1.1-3.5-4.9-13.4-5.8-13.8z" fill="#bf3c1b" opacity=".3"/><path d="m24 53.8c-1.3-.5-4.4.8-2.7 3.2.6-2.4 2.1-1 2 .7-.1 1.1-1.2 1.2.1 2.5.7.7 1.9.3 2.5-.1 2-1.5-.3-5.7-1.9-6.3z" fill="#b54319" opacity=".35"/><path d="m70.9 12.6c-6.8 6.5-19.7-5.3-35.8 1.1-22 8.9-11.4 32.2-11.1 35 .3 2.5 2 5.4 2.9 6.4.6.3 2 .1 3.1-.2-2.2-1.7-3.5-6.8-2.2-11.8.7-2.8 1.9-4.8 1.2-8.4 2.1 1.6 16.6 3.1 34.1-2.3 5.7-1.7 8.8-5.5 10.3-8.5-1.5.2-2.5.5-4.3.9 2.2-2.9 2.1-8.3 1.8-12.2z" fill="#4f2c1e"/><path d="m52.1 13.7c-8.3-1.6-20.7-.7-26.5 6.6-5.8 7.2.2 12.5 21.9 10.3 19.7-2 22.6-16.4 22.6-16.4-5.7 3.3-9.7 1.1-18-.5z" fill="#693a27"/><path d="m23 50.7c2 0 2.6 3.8 4.1 4.6.6.2 1.9 0 2.8-.4-1.7-2-2.5-7.5-2.7-9.1-.8 2.5-6 5-4.2 4.9z" fill="#4f2c1e"/><path d="m33.9 50.5c.1.9 2.2.3 2.8.4-.5.6-2.1.8-2.8 1.2-.7.5-.6.8.3.7.5-.1 3.3-1 3.6-1.3 1.5-1.6-3.2-1.3-3.9-1z" fill="#b54319" opacity=".5"/><path d="m66.2 48.3c-.6-.3-1.9-.3-2.4-.8.5-.2 2.3.1 2.3-.8-.6-.2-4.5.3-3.3 1.5.3.3 2.7.8 3.1.8.8 0 .9-.3.3-.7z" fill="#b54319" opacity=".5"/><path d="m39.2 46c-3-1-4.4 4.4-2.3 5.9.9-.4 2-.3 2.9 0 1.9-1.2 1.7-5.2-.6-5.9z" fill="#121b21"/><path d="m51.9 53.5c-1.5.2-2.1-.3-3.1.3-.9.6.7 2.7 3.3 2.3s3.6-2.5 2.9-3c-.7-.6-1.5.2-3.1.4z" fill="#b54319" opacity=".35"/><path d="m50.2 45.3c-1.3.2-1.2 3.7-1.5 5.4s-.5 3.3.3 3.7c1.8 1 5.1 0 6.1-1 .4-.4-.7-2-1.6-3.6s-1.9-4.7-3.3-4.5z" fill="#ffcb9e"/><path d="m62.8 43.7c-3.1-1.3-4.9 5.3-1.5 5.8.7-.6 1.6-1 2.5-1 .9-1.4.6-4-1-4.8z" fill="#121b21"/><path d="m38.4 46.8c-1.2.5-.1 2.8 1 1.8.8-.7 0-2.2-1-1.8z" fill="#7d8ba8"/><path d="m62.1 44.6c-1.1.4-.3 2.6.8 1.8.8-.6.2-2.1-.8-1.8z" fill="#7d8ba8"/><path d="m61.9 57.3c-.5.2.5.3 1.7.5.2 0 .4.1.5.3-5.8 2.3-18.7 4.2-26.8 2.2l.2-.2c1.1-.8 2.8-.9 2.3-1.1 0 0-2.8.1-3.9.8-1 .7-.8 2.7 0 2.7.6 0 .6-1 1.1-1.9.7 2.1 4.2 10.5 13.9 10 7.3-.4 9.4-2.9 9.5-6.5 0-2 2.4-4.6 3.9-5.9.2.6-.2 1.5.4 1.5.8.1 1.5-1.3.9-2.3-.8-1-3.7-.1-3.7-.1z" fill="#b54319" opacity=".5"/><path d="m60.4 38.6c-2.2-.1-3.8-.3-3.8-.2 0 1.2.5 3.8 2.1 3.7 1-.1 2-.3 3-.3 1.8 0 3.1.4 3.7.7.7.3.9-.8.7-1.1-1.2-1.3-2.5-2.7-5.7-2.8z" fill="#4f2c1e"/><path d="m38.2 40.7c-3.3 1-4.3 2.7-5 4.1-.2.4.4 1.4 1.1.9.6-.4 1.8-1.2 3.6-1.7 1-.3 2.2-.3 3.3-.5 1.8-.3 1.4-2.9 1-4.1-.1-.1-1.7.6-4 1.3z" fill="#4f2c1e"/><path d="m38.9 61.6s3.7 8.7 12.3 7.8c7.8-.8 8.5-3.8 8.7-6 .3-2.9 2.3-4.1 2.3-4.1-13 4.5-23.3 2.3-23.3 2.3z" fill="#8f2724"/><path d="m44.8 66.1c3.5 1.2 7.3 1.1 11.2-.2 2.6-.9 3.8-5.3 3.8-5.3s-7.2 1.9-18 1.8c0-.1.3 2.8 3 3.7z" fill="#fff9f0"/><path d="m52.9 66.1c-3.7.3-6.9 0-8.7-.6-1.5-.5-1.4.3-1.1 1 0 0 .7 2.9 7.4 3 5.9.1 8.2-3.8 7.5-4.6-.6-.7-1.4.9-5.1 1.2z" fill="#fff9f0"/><path d="m66.7 51.4c-1.2-1.1-3.1-.9-4.4-.6-1.8.4-3.9 1.5-1.8 3.7 1.1 1.2 8.3.6 6.8-2.3-.2-.3-.3-.6-.6-.8z" fill="#ffcb9e"/><path d="m40.4 53.9c-1.2-1.1-3.3-.8-4.7-.5-1.8.5-4.1 1.7-1.8 3.9 1.2 1.2 8.7.3 7.1-2.7-.1-.3-.3-.5-.6-.7z" fill="#ffcb9e"/><g fill="#e8dac5"><path d="m41.8 62.3s.1.9.4 1.2c0 0 13.9-2.3 17.1-1.3 0 0 .5-1 .6-1.6-.1-.1-9.9 2-18.1 1.7z"/><path d="m45 65.5c6 2.5 12.2-.6 12.2-.6-7 1.9-12.2.6-12.2.6z"/></g></g></svg>