<svg enable-background="new 0 0 96 96" viewBox="0 0 96 96" xmlns="http://www.w3.org/2000/svg" xmlns:xlink="http://www.w3.org/1999/xlink"><clipPath id="a"><circle cx="48" cy="48" r="48"/></clipPath><linearGradient id="b" gradientUnits="userSpaceOnUse" x1="48.1496" x2="48.1496" y1="71.382" y2="77.6593"><stop offset="0" stop-color="#eea17a"/><stop offset="1" stop-color="#ffcca6"/></linearGradient><path clip-path="url(#a)" d="m0 0h96v96h-96z" fill="#bfdefd"/><g clip-path="url(#a)"><path d="m42.8 81.4-2.2-4.1c-2.9 1.4-3.7 4.7-4.5 8.2-.4 1.7-1.8 7.6-2.8 10.5h5.1c.8-2.7 2.1-8.2 2.4-9.5.5-2.3 1.1-4.7 2-5.1z" fill="#e8e8e8"/><path d="m55.8 77.3-2.2 4.1c.9.5 1.5 2.8 2 5.1.3 1.3 1.6 6.8 2.4 9.5h5.1c-1-2.9-2.4-8.8-2.8-10.5-.8-3.5-1.5-6.8-4.5-8.2z" fill="#e8e8e8"/><path d="m58 88.1c1.5-3.8 1.6-4.7.7-6.8-3.9-9.3-14.1-7.9-17.6-4.8-1.1 1-1.9 2.4-2.2 3.8-1.5 3.9-.1 5.8.8 9.1.5 1.9.6 4 .4 6.5h16.6c-.3-2.2 0-4.7 1.3-7.8z" fill="#e8e8e8"/><path d="m48.3 89c-.4 0-.7.3-.7.7s.3.7.7.7.7-.3.7-.7c.1-.4-.3-.7-.7-.7z" fill="#fff"/><path d="m48.4 93.6c-.4 0-.7.3-.7.7s.3.7.7.7.7-.3.7-.7c.1-.4-.3-.7-.7-.7z" fill="#fff"/><path d="m53.7 75.5c-2.7-1.5.2-8.5-2-10.3-1.6-1.3-4.3-1.4-6.2-.7-3.7 1.5 0 10.1-3.6 11.6-.7.3-.9 1.2.5 3.4 1.7 2.8 2.9 4.1 6.1 5.6 2.6-1.2 5.3-3.8 6.1-6.2.7-1.9-.2-3-.9-3.4z" fill="url(#b)"/><path d="m48.6 85.2c-.8 0-7.8-1.9-7.8-1.9l.6 5.1s6.5-2.9 7.2-2.9 7.3 3.1 7.3 3.1v-5.3s-6.2 1.9-7.3 1.9z" opacity=".1"/><path d="m54 75.4s1.3 2.8-.4 5.4c-1.3 2.1-5 4.4-5 4.4l6.9 2.1c0-.1 1.5-9.8-1.5-11.9z" fill="#f5f5f5"/><path d="m43.7 81.3c-2.3-3.3-1.6-5.4-1.6-5.4-3.4 2.3-.4 11.3-.4 11.3l6.8-2c.1 0-3.1-1.5-4.8-3.9z" fill="#f5f5f5"/><path d="m53 78.2c.1-.4.5-.8.6-1.2.2-.6.1-1.2 0-1.7-.6-.2-1.7.6-2.3.8-.9.3-1.7.7-2.6 1-1.6.4-3.4 0-4.8-.7-.6-.3-1.2-.7-1.5-1.3-.2 1.8.4 2.7 1.9 3.7.7.5 1.6.5 2.3.9-.9.8-1.2 2.7-1.5 3.9-.4 2.1.1 4.3-.3 6.4 1.3.1 3.2-1.4 4.2-2.2s1.8-1.7 2.4-2.9c.3-.6.5-1.1.6-1.7 1.8 1.3 3.5 1.8 5.7 1.8-.5-1.3-1.4-3-2.4-3.9-.7-.9-2.4-1.8-2.3-2.9z" fill="#bf3c1b" opacity=".2"/><g fill="#eb5088"><path d="m52.8 73.7c-.4.2-.8.8-1.1 1.1-1 1-2.3 1.5-3.7 1.4-.5 0-1.1-.1-1.6-.3-1.2-.4-2.6-1.1-3-2.4-.6.3-1.1.8-1.6 1.3.2 1.1.7 2 1.5 2.7.5.4 1.1.8 1.7 1 3.1 1.2 7.3-.1 9.1-2.9.2-.3.2-.4.1-.6-.1-.1-1.3-1.3-1.4-1.3z"/><path d="m49.2 79.9c2 .7 4.9-1.3 3.6-3.5-2.2-3.6-7.7 2-3.6 3.5z"/><path d="m49.9 77.7c-.8 1.1-2.1 1.5-3 2.7-.7 1-1.2 2.3-1.4 3.6-.3 1.9-.3 3.9-.9 5.7 3.9-.2 7.9-4.3 6.7-8.9-.3-1-.8-2.3-1.4-3.1z"/><path d="m50.3 77.1c.9 8.7 7.7 9.3 11.3 7.8-4-1.6-5.5-9.1-11.3-7.8z"/></g><path d="m54.8 81.5c-1.6-1.1-2.5-1-3.2-1.9.3 1.2.5 2 1.5 2.9.9.8 2.1 1.5 3.3 1.5-.2-.8-.8-2-1.6-2.5z" fill="#cf2965"/><path d="m49.4 83.7c-.3.8-.4 2.1-.2 3 .8-.5 1.4-1.7 1.7-2.8.4-1.3.2-2.1 0-3.3-.2 1.1-.8 1.4-1.5 3.1z" fill="#cf2965"/><path d="m50.7 79.5c-.3.1-.6.2-.9.2-.4 0-.7-.1-1-.2-.1 0-.2-.1-.3-.1.3.4.6.5 1 .8.3.2.7.3 1 .5.2.2.4.3.7.2s.5-.5.6-.8c.3-.5.7-1.2.7-1.8-.2.2-.4.4-.6.6-.3.2-.7.4-1.2.6z" fill="#cf2965"/><path d="m27.2 45c-2.6-.3-4.8 1.7-4 7.9s6.5 5.4 6.5 5.4.1-13-2.5-13.3z" fill="#d9af96" opacity=".5"/><path d="m50.9 12.9c-43.9 3.5-47.7 62-13.8 53.6 6.2-1.5 2.6-7.8 12.4-8.5 6.2-.5 8.3 7.3 10.8 8 27.9 7.8 24.5-45.5-9.4-53.1z" fill="#4f2619"/><path d="m63.9 56.3c-2.2.2-3.7 2.4-3.5 4.9s2.2 4.4 4.4 4.2 3.7-2.4 3.5-4.9c-.3-2.5-2.3-4.4-4.4-4.2zm.7 7.5c-1.6.1-3-1.2-3.2-3.1-.2-1.8 1-3.4 2.5-3.5 1.6-.1 3 1.2 3.2 3s-.9 3.4-2.5 3.6z" fill="#fff9f0"/><path d="m47.2 24.3c-14.9.5-19.8 10.3-19.4 25.1.4 14.7 10.9 24.5 21.9 25.1 8.4.5 19.1-12.7 18.2-27.4-.8-14.6-6.4-23.3-20.7-22.8z" fill="#ffcb9e"/><path d="m61 24.3c-3-1.9-6.9-1.8-10.2-1.1-2.2.4-4.3 1.1-6.3 2-6.1 2.7-12.2 7-15.5 12.9-.7 1.3-3 5.3-1.7 6.7.9.9.5 2.9 1.3 2 5.6-5.4 15.4-3.8 22.2-10.2 2.2-2 4.5-5.7 5.8-7.8-.5 2.6 9.2 9.2 10.7 13.4 1.2 3.4 1.1-3 1.2-4.8.4-5.4-2.9-10.2-7.5-13.1z" fill="#bf3c1b" opacity=".2"/><path d="m37 44.8c-3.1-1.2-4.6 4.5-2.5 6.2.9-.3 2.1-.3 3 .1 1.9-1.2 1.7-5.4-.5-6.3z" fill="#2f2120"/><path d="m36.5 37.9c-1.3.2-2.7 1.1-3.4 3.1 3.8-3.1 6.2-1.3 7.6-.8-.8-1.4-2.3-2.6-4.2-2.3z" fill="#7d4732"/><path d="m36.2 46.3c-1.3.2-.8 2.8.5 2.1 1-.4.7-2.3-.5-2.1z" fill="#b08a72"/><path d="m64 25c-3.1-3.7-7.6-5.6-12.1-7.1-3.3-1.2-6.7-1.6-10.1-.9-8.7 1.7-14 10.1-15.4 18.3-.4 2.6-2.8 11.7.6 16 .8-4.7 2.1-7.3 12.5-10.3 11.1-3.2 16.2-11.2 17.6-13.7.3 6.4 10.7 8.9 10.7 18.3.1-2.3 1.6-6.4 1.3-8.8-.7-4.2-2.2-8.5-5.1-11.8z" fill="#4f2619"/><path d="m65.6 54.5c-.6-1.2-2.1-1.5-3.2-1.5-1.4-.1-3.4.3-2.3 2.5.6 1.2 6.1 2.4 5.8-.3-.1-.3-.2-.5-.3-.7z" fill="#ffb696"/><path d="m38.4 54.3c-.8-1.2-2.5-1.2-3.8-1-1.6.2-3.7 1.2-2.1 3.5.8 1.2 7.1 1.3 6.3-1.7-.2-.3-.3-.6-.4-.8z" fill="#ffb696"/><path d="m50.6 53.1c-1 0-1.3-.4-2-.1s.8 1.7 1.9 1.6c1.3-.1 2.5-1.1 2.1-1.6-.3-.4-.9.1-2 .1z" fill="#d14f2e" opacity=".3"/><path d="m63.9 44.9c-3.1-2-5.8 5.3-2.4 6.3.8-.6 1.8-.6 2.7-.4 1.2-1.6 1.4-4.9-.3-5.9z" fill="#2f2120"/><path d="m62.4 45.9c-1.2 0-1 2.7.3 2.2 1-.3.8-2.2-.3-2.2z" fill="#b08a72"/><path d="m64 44.7c-2.8-1.1-3.7 2.3-3.7 2.3s1.4-1.7 3.3-.6c4.4 2.4 7.2-.5 7.2-.5-3.5 1.1-5.3-.6-6.8-1.2z" fill="#121b21"/><path d="m34.9 45c-1.1.6-3.7 2.3-7.2 1.3 0 0 3.3 2.9 7.5.3 1.8-1.1 3.4.3 3.4.3s-.8-3.4-3.7-1.9z" fill="#121b21"/><path d="m62.9 18.8c-12.6 11.6-31.9 1.7-31.9 1.7-6 3.5-11.3 11.5-11.3 11.6.2-.4 4.6 1.2 5.1 1.4 2.2.9 4.3 2.1 6.6 2.9 2.5.9 5.6 1.7 8.3 1.7 5.4.1 13-5 18-12.2.2 2.5 1 4.2 2.2 5.6 6 6.8 14-.1 14-.1s-2.8-7.1-11-12.6z" fill="#784430"/><path d="m63.5 37.9c-1.8-.4-3.4.8-4.2 2.2 1.4-.5 3.9-2.3 7.6 1-.7-2.1-2.1-3-3.4-3.2z" fill="#784430"/><path d="m25.4 45c-4 1.8-2.4 10 .9 11.5 1 .5 2.1.5 3.2.3 0 0 0-.1.1-.1.5-1.1-.4-6.6-.6-7.7-.7-2.9-1.7-4.8-3.6-4z" fill="#ffcb9e"/><path d="m26.7 47.8c-.8-.4-2.5.9-1.3 3.1.2-2.3 1.2-1 1.2.6 0 1.1-.6 1.2.2 2.4.5.7 1.2.3 1.5-.2 1-1.4-.6-5.4-1.6-5.9z" fill="#d14f2e" opacity=".3"/><path d="m28.2 57.1c-2.2 0-3.9 2.1-3.8 4.6s1.9 4.5 4 4.5c2.2 0 3.9-2.1 3.8-4.6 0-2.5-1.8-4.5-4-4.5zm.2 7.5c-1.6 0-2.9-1.5-2.9-3.3s1.2-3.3 2.8-3.3 2.9 1.5 2.9 3.3-1.3 3.3-2.8 3.3z" fill="#fff9f0"/><path d="m58.9 59.5c-.3.3-8.5 8-19.7-.2-.4-.3-1.1-.3-1.4.1s-.3 1 .2 1.3c2.8 2 5.4 3.2 7.8 3.7 3.3.8 6.1.4 8.2-.2 3.9-1.1 6.3-3.4 6.4-3.5.4-.4.3-.9-.1-1.3-.4-.3-1-.3-1.4.1z" fill="#c20902" opacity=".5"/></g></svg>