<svg enable-background="new 0 0 96 96" viewBox="0 0 96 96" xmlns="http://www.w3.org/2000/svg" xmlns:xlink="http://www.w3.org/1999/xlink"><clipPath id="a"><circle cx="48" cy="48" r="48"/></clipPath><path clip-path="url(#a)" d="m0 0h96v96h-96z" fill="#8ca9b9"/><g clip-path="url(#a)"><path d="m33.5 80.5c-2.4 3.3-2 9.6-.8 15.5h29.9c1.1-5.5 1.6-11.4-.1-15.3-3.2-7.3-23.1-8.1-29-.2z" fill="#bcceeb"/><path d="m47.3 83.6c-2.8.5-3.2 2.9-3.2 2.9l2.3 2.3-.9 7.2h5.2l-1.5-7.1 2.2-3.5c0 .1-1-2.4-4.1-1.8z" fill="#379bdb"/><path d="m37.5 80.9c1.3 5.7 6.1 8.4 6.1 8.4l4.3-4.5 4.6 4.3c4.4-4.3 5.4-5.2 5.7-8.9.4-3.8-21.9-4.5-20.7.7z" opacity=".1"/><path d="m37.6 77c-2.1 6 5.7 11 5.7 11l4.7-3.2 4.3 3s8.6-4.9 5.3-12c-2.9-6.4-17.5-5.9-20 1.2z" fill="#cbdaf2"/><path d="m44.5 69.7c-2.9.6-4.8 3.4-5 6.2-.2 2.2.2 3.4 1.4 4.7.9.9 2.3 1.7 3.8 2.2 1.1.3 2.9 1.6 3.2 1.6.1 0 .7-.5 1.7-1 1.5-.8 3.5-1.8 4.3-3.3 1.2-2.3 2.2-6.9 0-8.7-2.2-2-6.7-2.3-9.4-1.7z" fill="#f7b07c"/><path d="m66.3 17c-7.6-8.1-20.2-9-34.4-3 1.3.1 4 .3 7.4-.3-7.4 3.3-16.3 7.8-18.2 16.3-2.2 9.8-.3 21.3 5.3 22 4.8.6 10.7-9.8 14-8.8 6.9 1.9 24.1-.3 28.9-7.2 2.2-3.1 2.3-7.9 1.1-12.1-.9-2.8-2.4-5.2-4.1-6.9z" fill="#2b221c"/><path d="m43.7 21.6c-11.7 2.2-19.9 18.6-17.8 34 1.6 11.5 10.7 24.1 24.4 23.2 14-1 20.9-17.9 19.1-32.1-1.8-15.4-9.3-28.2-25.7-25.1z" fill="#ffcb9e"/><path d="m59.1 24.4c-4.5-1.3-9.2-2-13.9-2.1-4.2-.1-8.7-.3-12.6 1.4-2.1.9-4.8 2.2-5.6 4.4-.7 1.8-1.4 4.3-.4 5.9 2.2 3.4 6.6 1.4 8.2.5 3.6-1.8 19.9-.6 27.5-.6 3.2 0 7.7-.5 6.4-4.7-1-3.2-6.6-4-9.6-4.8z" fill="#bf3c1b" opacity=".3"/><path d="m21.9 49.2c-5.7 1.5-3.4 9.7 1.2 11.4 1.5.5 3.1.6 4.6.5 0 0 .1-.1.1-.1.7-1.1-.3-7-.6-8.1-.8-3-2.5-4.5-5.3-3.7z" fill="#ffcb9e"/><path d="m23.9 52.2c-1.3-.6-4.5.5-3 2.9.8-2.3 2.2-.8 2 .8-.1 1.1-1.3 1.1-.2 2.5.6.8 1.9.5 2.6.1 2.2-1.3.2-5.6-1.4-6.3z" fill="#c94614" opacity=".3"/><path d="m62.1 17.2c-8.8-4.5-22.4-3.3-29.8 2-7.6 5.5-9.5 15.3-9.5 24 0 3 .8 5.1 3.1 7.1 2.7 2.3 2.5-4.6 2.7-7.3.6-5.9 3-10.7 9.7-10.9 4.4-.2 21.8-1 25.9.4 2.2.7 5.2 1.9 5.7-1.6.5-3.8-.6-7.7-3.2-10.5-1.3-1.2-2.9-2.3-4.6-3.2z" fill="#2b221c"/><path d="m64.1 18.7c-3.3-3.1-8-5.5-12.5-5.9-2.3-.2-7.1-.1-9.3.8.7.4 2.7.8 3.3 1.3-3.3.7-6.4 1.7-9.4 3-.9.4-8.7 5.5-8.7 5.5 2.1 1.1 4.7.7 7 .2 3.5-.8 7-1.1 10.6-.3 3.3.7 6.3 2.3 9.5 3.1.1-1.4-1.3-2.7-1.9-3.7 1.9 0 9.1 4.4 10.5 5.6-.4-1.2-2.1-3.8-2.3-5.1 1.8.3 6 3.9 7.2 6 .1-1.6 0-3.8-.5-5.2-.6-2.1-1.8-3.8-3.5-5.3z" fill="#45362e"/><path d="m60.4 60.2c-2.5.2-5.3.3-8.9.5-3.3.2-7.6.7-11.3.5-2.7-.2-3.7.1-2 2.2 5 5.8 8.3 6.3 12.6 6.5 6.2.2 8.6-2.6 9.5-5.4.2-.5.9-1.5 1.8-2.4 1.8-2 1.8-2.2-1.7-1.9z" fill="#f7a286"/><path d="m38.7 61.7s3.9 5.9 11.7 5.9c5 0 8.2-1.5 9.1-3.6 1-2.2 3.1-3.1 3.1-3.1-13.6 3.2-23.9.8-23.9.8z" fill="#8f3935"/><path d="m41.5 62.2s.3 1.8 3 2.4c3.5.8 7.3.8 11.2.2 2.6-.4 3.9-3.3 3.9-3.3s-7.4 1.7-18.1.7z" fill="#fff9f0"/><path d="m52.2 65.1c-3.5.2-6.5.1-8.3-.9-1.3-.7-1.4.1-1.1.6 0 0 1.2 2.5 7.1 2.9 5.6.4 8.5-2.6 7.9-3.1s-2.3.3-5.6.5z" fill="#fff9f0"/><path d="m41.5 62.2s.2.8.7 1.3c0 0 13.2-1.3 16.4-.3 0 0 .9-1 1.1-1.6 0-.1-9.2 1.6-18.2.6z" fill="#e8dac5"/><path d="m45 64.6c4.8 2.4 10.4.2 10.4.2-5.9 1.2-10.4-.2-10.4-.2z" fill="#e8dac5"/><path d="m67.4 53.4c-.9-1.3-2.9-1.6-4.3-1.6-1.8 0-4.3.6-2.7 3.1.9 1.4 8.1 2.4 7.3-.7 0-.2-.2-.5-.3-.8z" fill="#ffa073"/><path d="m40 53.1c-1.3-1.1-3.3-.9-4.8-.5-1.9.4-4.2 1.7-1.9 3.9 1.2 1.2 8.9.4 7.3-2.6-.1-.4-.3-.6-.6-.8z" fill="#ffa073"/><path d="m37.2 45.5c-3-1.3-4.9 3.9-2.9 5.6 1-.3 2.1-.2 3 .2 2.1-.9 2.2-4.8-.1-5.8z" fill="#261b18"/><path d="m51.5 54.9c-1.8 0-2.5-.8-3.7 0-1.2.7.5 3 3.6 2.9s4.4-2.2 3.8-3c-.6-.9-1.7.1-3.7.1z" fill="#b54d26" opacity=".3"/><path d="m51.1 48.5c-3.3-.3-3.6 6.5-2.8 7.1 1.9 1.4 5.7.4 6.8-.7.5-.5-.9-6.2-4-6.4z" fill="#ffdfc2"/><path d="m66.2 45.3c-3.1-1.8-5.3 4-2.8 5.6.8-.5 2.4-.4 3.2 0 1.2-1.3 1.3-4.6-.4-5.6z" fill="#261b18"/><path d="m35.8 46.8c-1.2.4-.3 2.7.9 1.9.9-.6.2-2.2-.9-1.9z" fill="#e6d2c3" opacity=".7"/><path d="m64.6 46.3c-1.2.2-.6 2.5.6 1.9.9-.4.5-2.1-.6-1.9z" fill="#e6d2c3" opacity=".7"/><path d="m40 40.2c-2.2-.2-5.1.1-7.1.8-3 1.1-2.1 2.8-1.7 3.2.3.4.4-.8 3.9-1.7 3.2-.8 6.6.1 7-.7.3-1-1.1-1.5-2.1-1.6z" fill="#2b221c"/><path d="m67.1 40c-2.1-.6-5-.5-7.2-.1-1.1.2-2.4.9-1.8 2.1.4.9 3.7-.5 7 0 3.5.5 3.7 1.9 4 1.4s1.1-2.5-2-3.4z" fill="#2b221c"/><g fill="#bcceeb"><path d="m23.8 96h9.6s.5-10.2 3.9-11.8l-.5-6.5c-9.6 2.2-12.6 10.1-13 18.3z"/><path d="m59.2 77.7-.5 6.5c3.4 1.6 3.9 11.8 3.9 11.8h9.6c-.5-8.2-3.4-16.1-13-18.3z"/></g></g></svg>