<svg enable-background="new 0 0 96 96" viewBox="0 0 96 96" xmlns="http://www.w3.org/2000/svg" xmlns:xlink="http://www.w3.org/1999/xlink"><clipPath id="a"><circle cx="48" cy="48" r="48"/></clipPath><path clip-path="url(#a)" d="m0 0h96v96h-96z" fill="#4c6a8e"/><g clip-path="url(#a)"><path d="m34.9 81.9c-2.5 3.2-2.5 8.7-1.8 14.1h32c.5-4.6.5-9.4-1.2-13-3.1-7.1-23.1-8.7-29-1.1z" fill="#313142"/><path d="m47.8 68.8c-11.3 0-11.2 19.1 1 19.1 11.4 0 14.7-19.1-1-19.1z" opacity=".3"/><path d="m47.7 68.2c-12 0-12 18.1 1 18.1 12.2 0 15.8-18.1-1-18.1z" fill="#3e3e4f"/><path d="m26.2 96h9.6c.3-5.2.8-11 2-12.4l1.2-4.8c-5.7 1.3-12.1 7.1-12.8 17.2z" fill="#313142"/><path d="m58.5 78.8 1.2 4.8c1.2 1.3 1.7 7.1 2 12.4h9.6c-.7-10.1-7.1-15.9-12.8-17.2z" fill="#313142"/><path d="m75 27.1c-.9.6-2.2 1.1-3 .9 1.8-1.1 2.6-2.6 2.5-5.2-4.7-3.8-16.1-11.5-28.8-12.2-7.8-.4-16 1.6-20.3 8.7-1 1.7-1.6 3-2.1 4.9-.7-1.4-1.3-2.3-1.3-3.9-1.6 1.8-1.4 4.9-.1 6.4-1.4-.1-3 .7-4 1.7.9 0 2.5 0 3.3.5-1.1 1.5-1.3 3.7-1.3 5.4 0 2.9.3 7.1 1.1 10.4s2 11.3 7 10.3c6.8-1.4 14.2-5.1 21.2-2.5 4.9 1.8 9.3 4.9 14.2 6.7 4.4 1.6 8.7 5.9 9.9-.2 1-4.7 1.2-9.6.4-14.3-.6-3.8-1.3-8.6-3.3-11.9 1.3-.3 4.3-2 4.6-5.7z" fill="#1f1a17"/><path d="m47.1 22.2c-12.9.9-23.9 15.1-22.9 30.8 1.1 15.7 11.7 26.3 26.7 26.2 16.6-.2 23-13.9 21.9-29.6-1.1-15.8-12.9-28.3-25.7-27.4z" fill="#ffc490"/><path d="m70.3 48c-.5-.3-4.5-.8-3.5.7.2.4 2.4 1.4 2.8 1.5.7.1.8-.1.3-.6s-1.8-.7-2.1-1.3c.6-.1 2.2.6 2.5-.3z" fill="#d14f2e" opacity=".4"/><path d="m36.5 50.8c.3.9 1.9 0 2.5 0-.3.7-1.6 1-2 1.5-.5.5-.3.8.4.6.4-.1 2.5-1.3 2.7-1.7.8-1.5-3.1-.7-3.6-.4z" fill="#d14f2e" opacity=".4"/><path d="m42.3 46.2c-2.9-1.3-4.7 3.9-2.8 5.5.9-.3 2-.2 2.9.3 1.9-1 2-4.9-.1-5.8z" fill="#1f1a17"/><path d="m54.5 53.3c-1.6.1-2.3-.6-3.4.1s.4 3.1 3.3 2.9c2.8-.2 4.1-2.6 3.5-3.2-.7-.7-1.6.1-3.4.2z" fill="#b55019" opacity=".35"/><path d="m53.1 44.7c-1.5.1-2.4 2.2-2.6 4.9-.2 2.8-.1 3.9.6 4.5 1.8 1.3 5.2 1 6.7-.6 2-2.1-1.3-9.1-4.7-8.8z" fill="#ffd1a7"/><path d="m66.4 44.5c-3.1-1.3-4.9 5.1-1.6 5.6.7-.6 1.6-.9 2.4-.9 1-1.4.8-4-.8-4.7z" fill="#1f1a17"/><path d="m40.8 47.3c-1.2.4-.3 2.7.8 1.9.9-.7.2-2.3-.8-1.9z" fill="#a88888"/><path d="m65 45.6c-1.1.4-.3 2.5.8 1.7.7-.5.1-2-.8-1.7z" fill="#a88888"/><path d="m22 49.3c-6.4 1.6-4 9.6 1.1 11.2 1.6.5 3.4.6 5.1.4 0 0 .1-.1.1-.1.8-1.1-.4-6.4-.8-7.5-.9-2.8-2.4-4.7-5.5-4z" fill="#ffc490"/><path d="m41.6 29.7c-5 .5-11.3 2.7-12.5 8.2-.4 2-1 4.4-1.1 6.6v2.1c.1.8 1.9 8.9 1.9 8.1.7-12.6 3.7-16.7 4.4-18.6 15 2.2 22.7 1.5 28.2.9 2.1-.2 7.2-.8 4.7-4-1.7-2.1-18.6-4-25.6-3.3z" fill="#bc551e" opacity=".4"/><path d="m25.3 52.3c-1.6-.8-6-.3-4.4 2.4 1.4-2.1 3.1-.4 2.5 1.2-.3 1.1-1.9.9-.6 2.5.7.9 2.5.8 3.4.5 3.1-1 1.1-5.6-.9-6.6z" fill="#d14f2e" opacity=".4"/><path d="m61 21.3c-7.1-3.3-18.1-4.3-25.8-.4-2.4 1.2-4.4 2.9-6 5.1-3.3 4.8-7.6 12.8-5.8 18.7.4 1.3.2 3.2.6 4.5 1.2 3.3 2.9 16 5.7 16 1 0 4 .7 3.5-.2-4.5-8.4-3.3-23.1.4-30.1 23 2.8 36.1-.4 35.3-5.6-.6-3.5-4.8-6.6-7.9-8z" fill="#1f1a17"/><path d="m43.6 54.2c-1.6-1.2-4-.8-5.6-.2-2.1.7-4.7 2.5-1.8 4.9 1.5 1.3 10.4-.3 8.2-3.8-.3-.4-.5-.7-.8-.9z" fill="#fab27b"/><path d="m66.2 51.4c-1 .2-1.9.8-2.4 1.5-.9 1.1-.9 2.6 1.1 3.5 1.9.9 5.9 1.1 6.8-1.4 1.3-3.3-3.3-4.1-5.5-3.6z" fill="#fab27b"/><path d="m53 71.6c-1.9.6-2.5 2-2.6 3.6 0-.3 1-1.9 3.8-2.3 1.7-.3 4.2.4 5.1 1.5.2-2.6-4-3.5-6.3-2.8z" fill="#d14f2e" opacity=".2"/><path d="m63.9 37.8c-1.8.2-3.8 1.6-5.6 1.2.3 1.9 1.5 2.9 3.1 3.2 1.5.2 2.5-.3 3.6-.8.4-.2.9-.4 1.4-.5.9-.3 1.6 0 2.5 0-.1-.3-.2-.6-.3-.9-1-1.9-2.8-2.4-4.7-2.2z" fill="#1f1a17"/><path d="m44.2 39.9c-1.1-.2-2.3-.8-3.4-.9-2.8-.3-5.6 3.4-3.8 5.8.4-.3.7-.7 1-1.1 1.7-1.8 4.2-.4 6.3-.1 2.8.5 4.1-1.3 4-3.9-1.3.5-2.7.5-4.1.2z" fill="#1f1a17"/><path d="m64.3 57c.3-.1 1.1.8 1.2 1.1 0 .6-.6.9-1 1.2-1.4.8-3.2.9-4.8 1.2-3.9.7-7.9.9-11.9.6-2.2-.2-4.5-.7-6.6-1.5l.2-.2c1.1-.7 2.7-.8 2.3-1-2.5-1.1-5.3.2-7.2 1.6 2.3-.5 4.6-.3 5.9 1.9 3.2 5.6 6.6 9.3 12 9.2 7.1-.1 8.5-4.8 9.4-8 .4-1.3.8-2 1.7-2.9 1-1.1 1.9-1.9 3-2.4.7-.3 1.5-.5 2.5-.5-1.6-1.6-5-1-6.7-.3z" fill="#bc551e" opacity=".3"/><path d="m42.8 60.7s3.6 8.2 11.9 7.5c5.7-.4 7.9-3.2 8.5-5.7.7-2.5 2.1-3.3 2.1-3.3-11.7 5.4-22.5 1.5-22.5 1.5z" fill="#8f322d"/><path d="m45.6 61.5s.3 2.6 2.9 3.6c3.4 1.2 7.1 1.2 10.8.1 2.5-.7 3.7-4.8 3.7-4.8s-7.1 2.6-17.4 1.1z" fill="#fff3e2"/><path d="m56.3 65.2c-3.6.2-6.7-.2-8.4-.8-1.4-.5-1.4.3-1.1.9 0 0 .6 2.7 7.2 3 5.7.2 8-3.3 7.3-4-.6-.6-1.4.8-5 .9z" fill="#fff3e2"/><path d="m45.5 61.4s.1 1.6 1.1 2.4c0 0 12-1.7 15.1-.7 0 0 1.2-1.7 1.3-2.8 0 0-8.9 2.7-17.5 1.1z" fill="#e8dac5"/><path d="m48.7 64.4c5.8 2.4 11.9-.2 11.9-.2-6.9 1.7-11.9.2-11.9.2z" fill="#e8dac5"/><path d="m66.8 53.4c-.4 0-1.2.2-1.5.5-.8.6.3.4.7.7 1 .6.2 2-.7 2-1.6.1-3.2.2-4.8.3-4.8.4-9.7 1.1-14.5 1-1.1 0-3.1.4-4.1-.3-1.4-1 1.9-2 .2-2.3-1.1-.2-2.6 1.3-3.1 2.2.1.2 0 .4 0 .5-.4 2 1.3 3.2 2.9 4.1 1.4.8 2.9.7 4.4.6 1.6-.1 3 0 4.6 0 1.5.1 3 .2 4.6.1 1.5-.1 3-.4 4.5-.6 2.7-.4 5-.2 7.1-2.2 1.3-1.2 2-2.1 1.8-3.9 0-1.3-.5-2.7-2.1-2.7z" fill="#bc551e" opacity=".3"/><path d="m64.9 54.1c1-.6 2 0 1.9.7-.1 1.1-1.5 1-2.2.9-2.5-.2-5-1.1-7.5-.3-3.3 1-5.5-.1-8.9.4-1.7.3-3.4.8-5 1.3-.8.2-1.9.4-2.1-.5-.2-.7.8-1.4 1.6-.9-.4-.8-1.9-1-2.6-.7-1.2.4-1.5 1.4-1.3 2.5.3 1.6 2.7 2.7 4.1 3.3 2.1.8 4.6 1.2 6.8 1.5 1.6.2 3.2.3 4.8.2 1.7-.1 3.4-.2 5.1-.6 2.1-.5 4.2-1.2 6-2.4 1.4-.9 3.5-2.2 3.3-4.3s-2.8-2.9-4-1.1z" fill="#1f1a17"/><g fill="#332823"><path d="m22.3 33.8c-.1 1.9 3.9 3.6 5.3 3.9-1 .2-1.9.3-2.9.2s-2.2-.9-3.2-.8c.3 2.3 3.8 2.8 5.5 3.6-.7.2-1.2.2-2 .2-.5 0-1.4-.3-1.9-.1-1.4.6-.9 3.8-.8 5 .2 1.9 1.5 4.1 3 .8-.5 4.8 4.4 12.3 4 9.1-.4-3.6-.2-6.8.2-10.3.2-1.7.4-3.3.8-5 .1-.4 1.1-4.7 1-4.7-.9 0-1.9-.1-2.8-.2-2-.4-4-1.6-6.2-1.7z"/><path d="m54.9 32.6c-14.4 2.1-25.2.1-25.2.1s14.6 3.9 28 2.1c13.4-1.9 11.5-6 11.5-6s0 1.7-14.3 3.8z"/><path d="m61.9 56.5c-2-.4-3.5-.5-5.3.2s-3.2 1-5.2.1c-2.5-1-8.1.8-7.3 1.7s3.4.5 3.4.5.1 1.2 1.2 1.5 3.1-1.2 3.1-1.2-.1 1.5 1.4 1.5c1.5.1 2.7-1.6 2.7-1.6s.9 1.6 2.4 1.3c1.5-.2 1.3-1.5 1.3-1.5s1.8.9 2.8.5c1.1-.3.5-1.8.5-1.8s1.2.6 2.8-.2c1.5-.7-1.8-.7-3.8-1z"/><path d="m28.7 25c4.1 3.7 9.9 3.1 14.9 2.3-3.2 2.3-13.8 1.9-18.5.6 3.6 2 8.3 3.6 19.1 4.1 7.4.3 14.7-.9 21.4-3.9 2.7-1.2 5.5-3.1 7.4-5.5-2.7-1-14.5-8.4-23.1-9.9-15.8-2.8-26.9 7.2-21.2 12.3z"/></g></g></svg>