<svg enable-background="new 0 0 96 96" viewBox="0 0 96 96" xmlns="http://www.w3.org/2000/svg" xmlns:xlink="http://www.w3.org/1999/xlink"><clipPath id="a"><circle cx="48" cy="48" r="48"/></clipPath><linearGradient id="b" gradientUnits="userSpaceOnUse" x1="47.4696" x2="47.4696" y1="75.4189" y2="80.5076"><stop offset="0" stop-color="#ee996d"/><stop offset=".01630819" stop-color="#ee9a6e"/><stop offset=".3731" stop-color="#f8b181"/><stop offset=".7088" stop-color="#fdbf8d"/><stop offset="1" stop-color="#ffc491"/></linearGradient><path clip-path="url(#a)" d="m0 0h96v96h-96z" fill="#4c6a8e"/><g clip-path="url(#a)"><path d="m59.5 85.8-4.3.5c.1 1.1.2 2.1.3 3.1.2 2.2.4 4.3 1.1 6.6h4.6c-1.1-2.2-1.2-4.3-1.5-6.9 0-1.1-.1-2.1-.2-3.3z" fill="#ffc38f"/><path d="m56.2 78.5-2.4 4.7c.2.1.8.7 1.5 4.1l5.1-1.1c-.7-3.2-1.5-6.3-4.2-7.7z" fill="#e8e8e8"/><path d="m40.8 86.3-4.3-.5c-.1 1.2-.2 2.2-.3 3.3-.2 2.7-.4 4.7-1.5 6.9h4.6c.8-2.3.9-4.4 1.1-6.6.2-1 .3-2 .4-3.1z" fill="#ffc38f"/><path d="m35.6 86.2 5.1 1.1c.7-3.4 1.3-4 1.5-4.1l-2.4-4.7c-2.6 1.4-3.5 4.5-4.2 7.7z" fill="#e8e8e8"/><path d="m56.7 88.5c1.6-5.9 1.7-9.5-1.9-10.7-3.5-1.2-10-1.6-13.9.1-3.1 1.3-4.1 3.5-2 10 1 3 1.7 5.8 1.8 8.1h14.5c.2-1.9.7-4.3 1.5-7.5z" fill="#e8e8e8"/><path d="m52 71.7c.3-5.2-8.7-5.4-8.6.3 0 2.5.2 4.4-.3 5.3-3.6 5.6 12.3 6.3 8.9.3-.8-1.4-.1-3.6 0-5.9z" fill="url(#b)"/><path d="m51.7 84.6c-2.5.9-5.6.5-8.2-.1-1.5-.4-2.3 1.3-1.9 2.8.6 1.9 3.7 2.4 6.4 2.4 5.3-.1 7.3-2.1 6.4-4.5-.2-.6-1.4-1-2.7-.6z" fill="#f5f5f5"/><path d="m54.8 85c.9-2.9.9-7-1.8-9-.4-.3-1-.2-1.3.2s-.2 1 .2 1.3c1.8 1.3 1.9 4.4 1.1 6.9-.7 2.4-2.1 4.7-3.4 6.7-1.2 1.9-2.1 3.5-2.4 4.9h2c.3-1 1.1-2.4 2-3.9 1.4-2.1 2.8-4.5 3.6-7.1z" fill="#379bdb"/><path d="m42.4 84.1c-.8-2-1.2-4.9 1.3-7.3.4-.4.4-1 0-1.4s-1-.4-1.3 0c-2.6 2.4-3.2 5.8-1.8 9.4.9 2.4 2.5 4.8 3.9 6.8 1.1 1.6 2.2 3.3 2.5 4.3h2c-.3-1.4-1.5-3.2-2.9-5.4-1.3-1.9-2.8-4.2-3.7-6.4z" fill="#379bdb"/><path d="m20.9 16.1c-5.7 4.5-5.9 12.4-1.9 17.5s11.8 5.6 17.4 1.1 7-12.2 3-17.3c-3.9-5.1-12.9-5.8-18.5-1.3z" fill="#261b18"/><path d="m21.9 17.1c-2.7 2.2-4.5 6.2-2.8 9.2 1.5 2.5 2.6-.2 3-1.9 1.3 2.5 2.5-.6 2.6-2.2 1.1 1.2 3-1 3.1-2.1 2.3-.4 4-2.8 6.1-3.7-2.2-3.5-9.2-1.6-12 .7z" fill="#573d2f"/><path d="m63.7 18.2c-15.7-11.7-37.5-2.9-40.9 11.5-2.4 9.9.5 18.7 6 25.1 2.7 3.2 4.6 7.1 7.3 10.3 2.6 3.1 5.7-2 8-3.2 3-1.6 6.6-2.4 10-1.8 3 .5 5 3.7 8 3.9 4 .2 5.3-6.5 6.3-9.3.9-2.6 1.7-5.3 2.3-8 2.9-12 1.2-22.4-7-28.5z" fill="#261b18"/><path d="m46 21.1c-11 1.8-19.2 17.4-17.6 32.3 1.2 11.2 11.3 22.7 21.3 23.1 10.6.4 21.1-16.7 19.8-30.5-1.5-14.8-8.1-27.4-23.5-24.9z" fill="#ffc38f"/><path d="m60 23.9c-4.3-1.4-8.7-2.3-13.2-2.5-4-.2-8.3-.5-12.1 1-2.1.9-4.6 2.1-5.5 4.3-1 2.8-.7 6.4-.3 9.3.4 3.2 1.1 6.5 2.7 9.3.2-2 1.1-3.8 1.6-5.7 1.6-6.1 5.6-8.2 10.4-8.9 4-.5 8.5-.1 12.5-.1 2.2 0 14.6 2.5 12.1-2.6-1.2-2.3-6-3.4-8.2-4.1z" fill="#bf3c1b" opacity=".3"/><path d="m24.7 47.2c-5.4 1.3-3.2 9.9 1.2 11.6 1.4.5 2.7.7 4 0 0 0 .1-.1.1-.1.7-1-.1-6.8-.4-7.9-.7-2.8-2.3-4.3-4.9-3.6z" fill="#ffc38f"/><path d="m26.5 50.1c-1.2-.6-4.2.3-2.9 2.7.8-2.2 2.1-.7 1.9.9-.2 1-1.3 1-.2 2.4.6.7 1.8.5 2.4.1 2-1.1.3-5.4-1.2-6.1z" fill="#b54d26" opacity=".3"/><path d="m55 16.9c-3.6-.8-7.6-1-11.3-.7-6.2.6-13.8 3.3-15.9 9.9-1.3 4-.8 8.7-.6 12.9.1 2.5-1 7.3 1.1 9.3 2.4 2.3 3.5-1 3.8-3.4.3-2.7.2-5.6 1.1-8.2 2.1-6.3 5.4-7.4 14.6-7.9 4.7-.2 16.4-.8 18.5 3.5.8 1.6 7.8-2.8 1.8-9.9-2.8-3.1-9.3-4.7-13.1-5.5z" fill="#261b18"/><path d="m39.1 15.5c-2.9.7-5.7 2.2-8 4.2-1.6 1.4-3 3-4 4.8-1.1 2-1.7 4.1-1.6 6.4.1 1.5 1.3 4.7 3.6 4 0-1.5-.2-3-.4-4.5.5.3 2.6 1.9 3.3 1.5s.3-2.5.4-3.1c2.5 2.9 4-1.3 3.9-3.5 1.1.7 1.8 1.9 3 2.5 1.6.8 3.4 0 5.3-.3 2.4-.4 4.9-.7 7.3-.7 2.5 0 3 .3 4.1-2 0 .7.4 1.4.9 1.8.9-.5 1.5-1.3 1.5-2.3 0 2.6 5.7 4.3 7.6 3.7 3.1-.9-.2-5.6-2-7.5-6.2-6.6-16.6-7-24.9-5z" fill="#573d2f"/><path d="m67.6 54.3c-.9-1.5-2.7-1.7-4-1.5-1.7.1-3.9 1.1-2.3 4.2.9 1.6 7.6 2.2 6.7-1.6-.1-.4-.2-.8-.4-1.1z" fill="#ff7752"/><path d="m41.5 54c-1-1.4-2.8-1.4-4.1-1.2-1.7.2-4.6 2.1-2.2 4.4 1.7 1.6 8 1.4 6.8-2.2-.2-.5-.3-.8-.5-1z" fill="#ff7752"/><path d="m40.7 45.8c-3.9-1.2-6.5 3.1-3.9 4.7 1.3-.2 2.7-.1 3.9.3 2.7-.8 2.9-4.1 0-5z" fill="#1c5c57"/><path d="m52 53.3c-1 .1-1.9-.5-2.8.1-.9.5.2 2.1 2.8 1.9s3.2-1.6 2.7-2.1c-.4-.7-1.6 0-2.7.1z" fill="#b54d26" opacity=".3"/><path d="m40.4 48.1c-1.2.3-.4 2.3.8 1.6.8-.5.2-1.9-.8-1.6z" fill="#6cd9d2" opacity=".7"/><path d="m65.7 45.6c-4-.7-6 4-3.2 5.1 1.2-.4 2.7-.4 3.9-.2 2.5-1.1 2.3-4.4-.7-4.9z" fill="#1c5c57"/><path d="m65.5 48c-1.1.5 0 2.3 1 1.5.8-.6 0-1.9-1-1.5z" fill="#6cd9d2" opacity=".7"/><path d="m38.8 44.5c-2.1.4-4.9 2.6-8.2 0 0 0 1.1 4.1 8 1.8 2.8-.9 4.3 2.1 4.3 2.1s0-4.7-4.1-3.9z" fill="#161110"/><path d="m65.5 44.8c-3.8-1.1-4.2 3.5-4.2 3.5s1.6-2.7 4.4-1.6c6.1 2.5 7.6-1.3 7.6-1.3-3.5 2.3-5.8 0-7.8-.6z" fill="#161110"/><path d="m64.6 38.5c-2.7.1-5.4 1.7-5.1 3 .3 1.5 2.6-.1 5.2-.7 3.3-.7 5.1.1 5.1-.2-.3-1-2.7-2.2-5.2-2.1z" fill="#261b18"/><path d="m39.7 38.4c-3-.4-6.3.5-6.5 1.5-.1.7 2.4-.2 6.5.8 3.2.8 5.6 2.5 6.1 1.1.4-1.2-2.8-3-6.1-3.4z" fill="#261b18"/><path d="m60.3 61.3c-.3.3-8.5 8-19.7-.2-.4-.3-1.1-.3-1.4.1s-.3 1 .2 1.3c2.8 2 5.4 3.2 7.8 3.7 3.3.8 6.1.4 8.2-.2 3.9-1.1 6.3-3.4 6.4-3.5.4-.4.3-.9-.1-1.3-.4-.3-1-.3-1.4.1z" fill="#c20902" opacity=".5"/></g></svg>