<svg enable-background="new 0 0 96 96" viewBox="0 0 96 96" xmlns="http://www.w3.org/2000/svg" xmlns:xlink="http://www.w3.org/1999/xlink"><clipPath id="a"><circle cx="48" cy="48" r="48"/></clipPath><path clip-path="url(#a)" d="m0 0h96v96h-96z" fill="#7997a0"/><g clip-path="url(#a)"><path d="m34.2 77.1s-4.2 2.1-6.2 3.3c-3.1 1.8-4.6 2.7-4.6 6.3 0 3.4-.2 6.5-.5 9.3h11.1c.8-4.6 1.3-8.2 1.3-8.2z" fill="#e34f7e"/><path d="m65.2 80.4c-2-1.1-6.2-3.3-6.2-3.3l-1.1 10.6s.5 3.7 1.3 8.2h11.1c-.3-2.8-.5-5.9-.5-9.3 0-3.5-1.5-4.4-4.6-6.2z" fill="#e34f7e"/><path d="m58.2 77.6c-2.8-7.2-18-5.1-22-1.6s-5.1 7.7.9 13.9c3.5 3.6 6.4 5.3 8.2 6.1h2.8c2.7-2.9 12.1-13.3 10.1-18.4z" fill="#e34f7e"/><path d="m65.6 80.3c-1-1.1-6.8-4.6-8.6-5.5.2.5.8 1.4.8 1.9-.9 9.3-10.2 18.9-10.2 18.9s-13.8-12.7-11.5-18.9c.2-.5.4-1 .7-1.4-3.2 1.4-9 4.3-9.6 5.4-.5 1 3 8.2 4.1 15.2v.1h30.4c.9-5.1 4.5-14.9 3.9-15.7z" fill="#313142"/><path d="m51.9 77.1c-3.1-1.7-15.8-2.1-14.3 2.6 1.4 4.7 5.1 7.1 5.1 7.1l4.2-4.2 4.5 4c4.3-4 5.5-7.9 5.5-7.9s-1.9.1-5-1.6z" opacity=".1"/><path d="m36.8 75.3c-2.1 5.6 5.5 10.1 5.5 10.1l4.5-3 4.2 2.8s8.4-4.5 5.2-11c-2.7-5.8-16.9-5.3-19.4 1.1z" fill="#f06799"/><path d="m43.6 67.5c-2.7.6-4.5 3.3-4.7 6.1-.1 2.1.2 3.4 1.3 4.6.8.9 2.2 1.7 3.6 2.2 1 .3 2.7 1.5 3.1 1.5.1 0 .7-.5 1.6-1 1.4-.7 3.3-1.7 4.1-3.3 1.1-2.3 2.1-6.8 0-8.5-2.2-1.9-6.4-2.2-9-1.6z" fill="#f7b07c"/><path d="m73 29.2c-.9.6-2.1 1-2.9.7 1.7-1 2.5-2.3 2.6-4.8-4.4-3.8-14.8-11.5-26.8-12.6-7.4-.7-15.2 1-19.5 7.5-1 1.6-1.6 2.8-2.2 4.6-.6-1.4-1.2-2.2-1.1-3.7-1.6 1.7-1.5 4.5-.3 6.1-1.4-.1-2.9.6-3.9 1.5.9 0 2.3.1 3.1.6-1.1 1.3-1.3 3.4-1.4 5-.1 2.7 0 6.7.7 9.9.7 3.1 1.5 10.7 6.2 10 6.5-1.1 13.6-4.3 20.1-1.6 4.5 1.9 8.6 5 13.2 6.9 4.1 1.7 8 5.9 9.4.2 1.1-4.4 1.4-9 .9-13.5-.4-3.7-.9-8.1-2.7-11.4 1.3-.5 4.2-2 4.6-5.4z" fill="#c9beb7"/><path d="m46.8 23.5c-12.2.4-23.1 13.4-22.7 28.3s10.1 25.2 24.3 25.6c15.6.5 22.2-12.2 21.7-27.1-.4-14.9-11.1-27.2-23.3-26.8z" fill="#ffc490"/><path d="m67.8 48.7c-.5-.3-4.2-.9-3.3.5.2.3 2.2 1.4 2.6 1.5.7.2.8-.1.3-.6-.4-.5-1.7-.7-2-1.3.6 0 2.1.7 2.4-.1z" fill="#bc551e" opacity=".3"/><path d="m35.8 50.2c.3.8 1.8.1 2.3.1-.3.6-1.6.9-2 1.3-.4.5-.3.7.3.6.4-.1 2.4-1.1 2.6-1.5 1-1.4-2.7-.8-3.2-.5z" fill="#bc551e" opacity=".3"/><path d="m41.4 46c-2.7-1.3-4.6 3.5-2.8 5.1.9-.2 1.9-.1 2.7.4 1.8-.9 2.1-4.6.1-5.5z" fill="#1f1a17"/><path d="m52.7 53.2c-1.5 0-2.1-.6-3.2 0s.3 3 3 2.9 4-2.3 3.4-2.9c-.6-.9-1.5-.1-3.2 0z" fill="#bc551e" opacity=".4"/><path d="m51.6 44.9c-1.4.1-2.4 2-2.6 4.5-.3 2.6-.2 3.7.4 4.2 1.7 1.3 4.8 1.2 6.4-.3 1.9-1.8-.9-8.5-4.2-8.4z" fill="#ffd1a7"/><path d="m64.2 45.2c-2.8-1.4-4.8 4.6-1.7 5.3.7-.5 1.5-.8 2.3-.8 1.1-1.3.9-3.7-.6-4.5z" fill="#1f1a17"/><path d="m40 46.9c-1.1.3-.4 2.5.7 1.8.8-.5.3-2.1-.7-1.8z" fill="#a88888"/><path d="m62.9 46.3c-1 .3-.4 2.4.7 1.7.7-.6.2-2-.7-1.7z" fill="#a88888"/><path d="m22.1 48.2c-6.1 1.3-4.2 9 .6 10.6 1.5.5 3.2.6 4.8.6 0 0 .1-.1.1-.1.8-1-.2-6.1-.5-7.1-.7-2.7-2-4.6-5-4z" fill="#ffc490"/><path d="m41.3 30.4c-4.7.3-10.8 2.1-12.1 7.3-.5 1.9-1.1 4.1-1.3 6.2-.1.7-.1 1.3 0 2 .1.8 1.4 8.5 1.5 7.7 1.1-11.9 4.1-15.7 4.8-17.4 14.1 2.6 21.4 2.3 26.6 1.9 2-.2 6.9-.5 4.6-3.6-1.5-2.2-17.4-4.5-24.1-4.1z" fill="#bc551e" opacity=".3"/><path d="m25.2 51.2c-1.5-.8-5.7-.5-4.2 2.1 1.4-2 2.9-.3 2.3 1.2-.4 1-1.9.8-.6 2.3.7.8 2.3.8 3.2.6 2.8-.8 1.1-5.3-.7-6.2z" fill="#bc551e" opacity=".3"/><path d="m60 23.2c-6.6-3.4-17-4.7-24.3-1.3-2.3 1.1-4.3 2.6-5.8 4.6-3.3 4.5-7.6 11.8-6.2 17.4.3 1.3.1 3 .4 4.3 1 3.1 2.2 15.2 4.8 15.3 1 .1 3.8.8 3.3-.1-3.9-8.1-2.3-21.9 1.4-28.4 21.6 3.5 34.1.9 33.5-4-.4-3.3-4.3-6.4-7.1-7.8z" fill="#c9beb7"/><path d="m42.3 53.6c-1.4-1.2-3.7-.9-5.2-.4-2 .6-4.5 2.2-1.9 4.6 1.4 1.3 9.8.1 7.9-3.3-.2-.4-.5-.7-.8-.9z" fill="#fab27b"/><path d="m63.8 51.8c-.9.2-1.8.7-2.3 1.3-.9 1-.9 2.4.9 3.4 1.7.9 5.5 1.2 6.5-1 1.4-3.2-3-4.1-5.1-3.7z" fill="#fab27b"/><path d="m50.6 70.4c-1.8.5-2.5 1.8-2.6 3.3 0-.3 1-1.7 3.7-2 1.6-.2 4 .5 4.7 1.6.3-2.5-3.6-3.5-5.8-2.9z" fill="#f5ae79"/><path d="m62.1 38.8c-1.7.1-3.7 1.4-5.4.9.2 1.8 1.3 2.8 2.8 3.1 1.4.3 2.3-.2 3.4-.6.4-.2.9-.3 1.4-.5.8-.2 1.5 0 2.4.1 0-.3-.1-.6-.3-.8-.8-1.8-2.5-2.3-4.3-2.2z" fill="#3d302a"/><path d="m43.5 40.1c-1-.2-2.1-.8-3.1-1-2.6-.4-5.4 3-3.8 5.4.3-.3.7-.7 1-1 1.7-1.7 4-.3 5.9.2 2.6.6 3.9-1 3.9-3.5-1.4.3-2.7.2-3.9-.1z" fill="#3d302a"/><path d="m61.8 57c.3-.1 1 .8 1.1 1 0 .5-.6.9-1 1.1-1.4.7-3.1.7-4.5.9-3.7.5-7.5.6-11.2.1-2.1-.3-4.2-.9-6.2-1.7.1 0 .1-.1.2-.1 1.1-.6 2.6-.6 2.2-.8-2.3-1.1-5 0-6.9 1.3 2.2-.4 4.4-.1 5.5 2 2.8 5.4 5.9 9 11 9.1 6.7.1 8.2-4.3 9.2-7.2.4-1.2.9-1.8 1.7-2.7.9-1 1.8-1.7 2.9-2.1.7-.3 1.5-.4 2.4-.4-1.5-1.5-4.7-1.2-6.4-.5z" fill="#bc551e" opacity=".3"/><path d="m41.3 59.7s3.1 7.9 11 7.5c5.4-.2 7.6-2.8 8.3-5 .7-2.4 2.1-3 2.1-3-11.2 4.5-21.4.5-21.4.5z" fill="#8f322d"/><path d="m44 60.5s.2 2.5 2.6 3.5c3.2 1.2 6.7 1.4 10.2.5 2.4-.6 3.7-4.4 3.7-4.4s-6.8 2.2-16.5.4z" fill="#fff3e2"/><path d="m54 64.5c-3.4 0-6.3-.4-7.9-1.1-1.3-.5-1.3.2-1.1.8 0 0 .5 2.6 6.7 3.1 5.4.4 7.7-2.8 7-3.5-.6-.6-1.3.7-4.7.7z" fill="#fff3e2"/><path d="m44 60.5s0 1.5.9 2.3c0 0 11.4-1.1 14.3-.1 0 0 1.2-1.6 1.3-2.6 0 0-8.5 2.2-16.5.4z" fill="#e8dac5"/><path d="m46.8 63.4c5.4 2.6 11.2.3 11.2.3-6.5 1.3-11.2-.3-11.2-.3z" fill="#e8dac5"/><path d="m64.4 53.7c-.4 0-1.1.2-1.4.4-.8.6.2.4.7.7 1 .6.1 1.9-.8 1.9-1.5 0-3 .1-4.5.2-4.6.2-9.2.7-13.7.5-1 0-3 .2-3.8-.5-1.3-1 1.8-1.8.2-2.2-1.1-.2-2.5 1.1-3 2-.1.2-.1.3-.2.5-.5 1.8 1.1 2.9 2.6 3.8 1.3.8 2.7.8 4.2.7s2.9.1 4.3.2 2.9.3 4.3.2 2.8-.3 4.3-.4c2.5-.3 4.7 0 6.8-1.8 1.3-1.1 1.9-1.9 1.9-3.7-.1-1.1-.5-2.5-1.9-2.5z" fill="#bc551e" opacity=".3"/><path d="m62.5 54.3c1-.6 1.9.1 1.8.8-.1 1-1.4.9-2.1.8-2.3-.3-4.7-1.2-7.1-.6-3.1.9-5.2-.3-8.4 0-1.6.2-3.2.7-4.7 1-.8.2-1.8.3-2-.6-.1-.7.8-1.3 1.5-.8-.3-.7-1.7-1-2.4-.8-1.1.4-1.4 1.3-1.3 2.3.2 1.6 2.4 2.7 3.7 3.2 1.9.8 4.3 1.3 6.3 1.6 1.5.2 3 .4 4.5.4 1.6 0 3.2-.1 4.8-.4 2-.4 4-1 5.7-2.1 1.4-.8 3.4-1.9 3.3-4 0-1.6-2.4-2.5-3.6-.8z" fill="#c9beb7"/><g fill="#f0eae6"><path d="m23 33.5c-.2 1.8 3.6 3.5 4.9 3.8-.9.2-1.8.2-2.7.1-1-.2-2-.9-3-.9.2 2.2 3.5 2.8 5.1 3.6-.7.1-1.2.2-1.9.1-.5 0-1.3-.4-1.7-.2-1.3.5-1 3.6-.9 4.7.2 1.8 1.3 3.9 2.8.9-.6 4.5 3.7 11.7 3.5 8.8-.3-3.4.1-6.5.6-9.8.3-1.6.5-3.1.9-4.7.1-.4 1.2-4.4 1.1-4.4-.9 0-1.8-.2-2.7-.3-2.1-.3-3.9-1.5-6-1.7z"/><path d="m53.8 33.6c-13.6 1.4-23.8-.9-23.8-.9s13.6 4.2 26.4 3c12.7-1.3 11.1-5.3 11.1-5.3s-.1 1.7-13.7 3.2z"/><path d="m59.6 56.4c-1.9-.4-3.3-.6-5 0s-3 .8-4.9-.1c-2.3-1.1-7.7.5-7 1.4s3.2.6 3.2.6 0 1.2 1 1.5 2.9-1 2.9-1-.1 1.4 1.2 1.5c1.4.1 2.6-1.4 2.6-1.4s.8 1.5 2.2 1.3 1.3-1.4 1.3-1.4 1.6.9 2.7.6c1-.3.5-1.7.5-1.7s1.1.6 2.7 0c1.6-.8-1.5-.9-3.4-1.3z"/><path d="m29.3 25.5c3.8 3.6 9.3 3.3 14 2.7-3.1 2.1-13.1 1.3-17.5-.1 3.4 2 7.7 3.7 17.9 4.6 6.9.6 13.9-.3 20.4-2.9 2.6-1 5.3-2.7 7.2-4.9-2.5-1-13.4-8.4-21.5-10.2-14.8-3.3-25.6 5.8-20.5 10.8z"/></g></g></svg>