<svg enable-background="new 0 0 96 96" viewBox="0 0 96 96" xmlns="http://www.w3.org/2000/svg" xmlns:xlink="http://www.w3.org/1999/xlink"><clipPath id="a"><circle cx="48" cy="48" r="48"/></clipPath><path clip-path="url(#a)" d="m0 0h96v96h-96z" fill="#fff"/><g clip-path="url(#a)"><path d="m63.7 83c-3.2-7.1-23.1-8.6-29-1-2.5 3.2-2.5 8.7-1.8 14.1h32c.5-4.7.4-9.5-1.2-13.1z" fill="#313142"/><path d="m48.5 87.9c11.4 0 14.7-19.1-1-19.1-11.2 0-11.2 19.1 1 19.1z" opacity=".3"/><path d="m48.5 86.3c12.2 0 15.7-18.1-1-18.1-12.1 0-12 18.1 1 18.1z" fill="#3e3e4f"/><path d="m38.8 78.8-1.2 4.8c-1.2 1.3-1.7 7.1-2 12.4h-9.6c.7-10.1 7-15.9 12.8-17.2z" fill="#313142"/><path d="m58.2 78.8 1.2 4.8c1.2 1.3 1.7 7.1 2 12.4h9.6c-.7-10.1-7-15.9-12.8-17.2z" fill="#313142"/><path d="m70.7 49.8c-2.2-.9-3.6.6-4.3 3.6-.3 1.2-1 7.6-.5 8.7 0 .1.1.1.1.2 1.2.2 2.5.2 3.8-.3 3.7-1.5 5.5-10.2.9-12.2z" fill="#f7be8c"/><path d="m25.4 31.4c-1.5 7-1.8 16.3 1.6 23.1 1.8 3.5 5.9 1.2 8.9.4 3.6-.9 7.3-1.7 11-2.5 6-1.3 12.6 0 18.7.6 4.8.5 5.1 2.7 5.1-1.2 0-4.8 1.2-12.8 0-18.2-6-25.9-41.8-19.1-45.3-2.2z" fill="#cfa078"/><path d="m46.2 22.8c-17.1 2.3-19.7 18-18.1 33.4 1.2 11.5 9.7 24.3 23 23.7 13.5-.6 20.7-17.3 19.4-31.4-1.5-15.4-4.8-28.4-24.3-25.7z" fill="#ffcb9e"/><path d="m24.4 49.6c-5.6 1.1-2.7 10.2 1.5 12.3 1.7.8 3.6.5 4.3-1.3.9-1.2.3-4.7-.7-7.7-.8-2.5-2.5-3.8-5.1-3.3z" fill="#ffcb9e"/><path d="m26.2 52.7c-1.2-.6-4.4.3-3 2.8.8-2.2 2.2-.7 1.9.9-.2 1.1-1.3 1.1-.2 2.5.6.8 1.9.5 2.5.1 2.1-1.2.3-5.5-1.2-6.3z" fill="#c94614" opacity=".3"/><path d="m47.9 19.8c-13.8-.1-23.7 9.9-22.8 29.8.6 0 1.8 0 2.6.8 1.1 1.1 1.1 2.4 1.4 3 .1.3.3.8 1.4.8-2-6.7-.8-16.1 1.5-19.2 5.6-7.6 18.2 2.7 22.4 2.5 3.1-.1 10.7-9.6 13.7-2.5 2.1 4.9 2-15-20.2-15.2z" fill="#cfa078"/><path d="m68 53.9c-.8-1.3-2.7-1.6-4-1.6-1.7-.1-4 .5-2.5 3 .8 1.3 7.7 2.5 6.9-.6-.1-.3-.2-.5-.4-.8z" fill="#ffa073"/><path d="m39.5 53.1c-1.2-1.1-3.1-.9-4.5-.6-1.8.4-4 1.6-1.8 3.7 1.2 1.2 8.4.5 6.9-2.4-.1-.2-.3-.5-.6-.7z" fill="#ffa073"/><path d="m38.4 45.8c-2.8-1.3-4.7 3.8-2.7 5.5.9-.3 2-.1 2.8.3 1.9-1.1 2-4.9-.1-5.8z" fill="#305d80"/><path d="m51.8 55c-1.7 0-2.3-.8-3.5-.1s.5 2.9 3.4 2.8 4.2-2.1 3.6-2.8c-.6-.8-1.6.1-3.5.1z" fill="#b54d26" opacity=".3"/><path d="m51.4 48.8c-3.1-.3-3.4 6.3-2.7 6.9 1.7 1.4 5.4.5 6.5-.6.4-.5-.8-6.1-3.8-6.3z" fill="#ffdfc2"/><path d="m65.8 45.9c-2.9-1.8-5.1 3.8-2.7 5.4.8-.5 2.3-.3 3 0 1.2-1.3 1.2-4.5-.3-5.4z" fill="#305d80"/><path d="m37 47c-1.2.4-.3 2.6.8 1.8.9-.5.3-2.1-.8-1.8z" fill="#86bae3"/><path d="m64.3 46.8c-1.1.2-.6 2.5.6 1.8.8-.4.4-2-.6-1.8z" fill="#86bae3"/><path d="m61.1 57.5c-.3 1.1 0 1.9.5 2.4-1.7 4.1-6.1 6.7-11.3 6.7-5.1-.1-9.1-2.7-10.8-6.2.5-.6.6-1.4 0-2.5-.7 1.5-2.5 2.1-3.8 1.5.5 1.1 1.4 1.6 2.2 1.7 1.9 4 6.4 7 12 7.2h.5c6 .1 11.1-2.9 13-7.6.8-.1 1.6-.7 1.9-1.8-1.2.6-3.2.1-4.2-1.4z" fill="#94110c" opacity=".5"/><g fill="#693a27"><path d="m42.1 40.3c-2-.2-3.9-.2-5.9.2-3 .6-4.9 1.9-4.6 2.6s2.4.2 5.9.1c3.1-.1 5.5.4 5.9-.6.4-1.4-.2-2.2-1.3-2.3z"/><path d="m66 40.5c-1.9-.4-3.6-.4-5.5-.2-1 .1-1.7.9-1.3 2.3.3 1 2.6.5 5.6.6 3.2.1 5.2.6 5.5-.1.3-.8-1.5-2-4.3-2.6z"/></g></g></svg>