<svg enable-background="new 0 0 96 96" viewBox="0 0 96 96" xmlns="http://www.w3.org/2000/svg" xmlns:xlink="http://www.w3.org/1999/xlink"><clipPath id="a"><circle cx="48" cy="48" r="48"/></clipPath><linearGradient id="b" gradientUnits="userSpaceOnUse" x1="47.6742" x2="47.6742" y1="72.5227" y2="78.831"><stop offset="0" stop-color="#eea17a"/><stop offset="1" stop-color="#ffcca6"/></linearGradient><path clip-path="url(#a)" d="m0 0h96v96h-96z" fill="#fff"/><g clip-path="url(#a)"><path d="m40.7 78.2c-2.9 1.4-3.7 4.7-4.5 8.2-.3 1.5-1.5 6.5-2.5 9.6h5c1.1-4.2 3.3-13.3 4.1-13.7z" fill="#e8e8e8"/><path d="m54.3 78.2-2.2 4.1c.8.4 3 9.6 4.1 13.7h5c-.9-3.1-2.1-8.1-2.5-9.6-.7-3.5-1.5-6.8-4.4-8.2z" fill="#e8e8e8"/><path d="m56.2 90.5c1.1-3.4.3-9.9-1.4-12-4.1-4.9-11.1-3.3-13.9-.7-1.1 1-2.9 5.7-1.4 13 .3 1.6.5 3.3.4 5.2h15.6c-.2-1.6 0-3.4.7-5.5z" fill="#1e1e29"/><path d="m48.1 88.4c-.4 0-.7.3-.7.7s.3.8.7.8.7-.3.7-.8c0-.4-.3-.7-.7-.7z" fill="#313142"/><path d="m48.1 92.4c-.4 0-.7.3-.7.8 0 .4.3.8.7.8s.7-.3.7-.8c.1-.4-.3-.8-.7-.8z" fill="#313142"/><path d="m53 76.7c-2.6-1.5.2-8.6-1.9-10.3-1.6-1.3-4.2-1.4-6-.7-3.6 1.6 0 10.1-3.5 11.6-.7.3-.8 1.2.5 3.4 1.6 2.8 2.8 4.2 5.9 5.7 2.5-1.2 5.1-3.8 5.9-6.2.7-2-.2-3.1-.9-3.5z" fill="url(#b)"/><path d="m40.6 84.5.6 5.2s6.3-2.9 6.9-2.9c.7 0 7.1 3.1 7.1 3.1v-5.3s-6 1.8-7 1.8c-.9 0-7.6-1.9-7.6-1.9z" fill="#121219" opacity=".5"/><path d="m53.1 76.7s1.4 2.7-.1 5.3c-1.3 2.1-4.8 4.4-4.8 4.4l6.6 2.1c-.1-.1 1.5-9.7-1.7-11.8z" fill="#313142"/><path d="m43.4 82.5c-2.2-3.3-1.5-5.5-1.5-5.5-3.2 2.3-.4 11.4-.4 11.4l6.6-2s-3.1-1.5-4.7-3.9z" fill="#313142"/><path d="m26.3 45.4c-2.7-.3-4.9 1.7-4.1 8s6.6 5.5 6.6 5.5.1-13.3-2.5-13.5z" fill="#d9af96" opacity=".5"/><path d="m50.5 12.5c-45 3.6-48.8 63.4-14.1 54.8 6.4-1.6 2.6-7.9 12.6-8.7 6.3-.5 8.5 7.4 11 8.2 28.7 8 25.1-46.6-9.5-54.3z" fill="#261b18"/><path d="m63.7 56.8c-2.2.2-3.8 2.4-3.6 5s2.2 4.5 4.5 4.3c2.2-.2 3.8-2.4 3.6-5-.2-2.5-2.2-4.4-4.5-4.3zm.8 7.7c-1.6.1-3.1-1.3-3.2-3.1-.2-1.9 1-3.5 2.6-3.6s3.1 1.3 3.2 3.1c.2 1.8-1 3.5-2.6 3.6z" fill="#fff9f0"/><path d="m46.7 24.1c-15.2.5-20.2 10.5-19.8 25.6s11.2 25 22.4 25.7c8.6.5 19.5-13 18.6-28-.9-14.9-6.6-23.7-21.2-23.3z" fill="#ffcb9e"/><path d="m60.8 24.2c-3.1-2-7-1.8-10.5-1.1-2.2.4-4.4 1.2-6.5 2.1-6.2 2.7-12.4 7.2-15.9 13.2-.7 1.3-3.1 5.5-1.7 6.9.9.9.5 2.9 1.4 2.1 5.7-5.5 15.7-3.9 22.7-10.4 2.2-2.1 4.6-5.8 6-8-.5 2.7 9.4 9.4 10.9 13.7 1.2 3.5 1.1-3.1 1.2-4.9.4-5.8-2.9-10.7-7.6-13.6z" fill="#e89361" opacity=".7"/><path d="m36.2 45.1c-3.1-1.2-4.7 4.6-2.5 6.3 1-.4 2.1-.3 3 .1 2-1.2 1.9-5.5-.5-6.4z" fill="#2f2120"/><path d="m35.8 38.1c-1.3.2-2.8 1.1-3.5 3.1 3.8-3.2 6.4-1.3 7.8-.8-.8-1.4-2.4-2.6-4.3-2.3z" fill="#7d4732"/><path d="m35.5 46.6c-1.3.2-.8 2.9.5 2.2 1-.5.6-2.3-.5-2.2z" fill="#b08a72"/><path d="m63.9 24.9c-3.2-3.7-7.8-5.7-12.3-7.3-3.3-1.2-6.8-1.6-10.4-.9-8.9 1.7-14.3 10.3-15.8 18.7-.4 2.6-2.8 11.9.6 16.4.8-4.8 2.1-7.4 12.7-10.5 11.3-3.3 16.5-11.5 18-14 .3 6.6 10.9 9.1 11 18.7.1-2.4 1.7-6.5 1.3-9-.7-4.3-2.2-8.7-5.1-12.1z" fill="#261b18"/><path d="m65.5 54.4c-.6-1.1-2.1-1.5-3.3-1.5-1.5-.1-3.4.3-2.4 2.6.6 1.2 6.3 2.4 5.9-.3 0-.3 0-.5-.2-.8z" fill="#ff9d73"/><path d="m37.7 54.2c-.9-1.2-2.6-1.2-3.8-1-1.6.2-3.7 1.2-2.2 3.5.8 1.3 7.3 1.3 6.4-1.7-.2-.3-.3-.5-.4-.8z" fill="#ff9d73"/><path d="m50.2 53.6c-1 0-1.4-.4-2-.1-.7.4.8 1.7 2 1.7 1.4-.1 2.5-1.2 2.1-1.6-.4-.5-1 0-2.1 0z" fill="#e89361" opacity=".5"/><path d="m63.8 45.2c-3.1-2-5.9 5.4-2.4 6.4.8-.6 1.9-.6 2.8-.4 1.1-1.6 1.3-4.9-.4-6z" fill="#2f2120"/><path d="m62.3 46.3c-1.2 0-1.1 2.8.3 2.3.9-.4.8-2.3-.3-2.3z" fill="#b08a72"/><path d="m63.9 45c-2.9-1.1-3.8 2.3-3.8 2.3s1.4-1.7 3.4-.6c4.5 2.5 7.3-.5 7.3-.5-3.6 1.2-5.4-.6-6.9-1.2z" fill="#121b21"/><path d="m34.1 45.3c-1.2.6-3.8 2.4-7.4 1.3 0 0 3.4 3 7.7.3 1.9-1.2 3.5.3 3.5.3s-.8-3.5-3.8-1.9z" fill="#121b21"/><path d="m62.7 18.5c-12.9 11.9-32.6 1.7-32.6 1.7-6.1 3.7-11.5 11.9-11.5 11.9.3-.4 4.7 1.2 5.2 1.4 2.3.9 4.4 2.2 6.7 3 2.5.9 5.7 1.7 8.4 1.8 5.5.1 13.3-5.1 18.4-12.5.2 2.6 1 4.3 2.2 5.7 6.1 6.9 14.3-.1 14.3-.1s-2.7-7.3-11.1-12.9z" fill="#57443a"/><path d="m63.4 38c-1.9-.4-3.5.8-4.3 2.2 1.4-.5 4-2.3 7.7 1-.6-2-2.1-2.9-3.4-3.2z" fill="#784430"/><path d="m24.4 45.3c-4 1.8-2.4 10.2.9 11.7 1.1.5 2.2.5 3.3.3 0 0 0-.1.1-.1.5-1.1-.4-6.7-.6-7.9-.7-2.8-1.7-4.8-3.7-4z" fill="#ffcb9e"/><path d="m25.7 48.1c-.8-.4-2.6.9-1.4 3.2.2-2.3 1.2-1 1.3.6 0 1.1-.6 1.2.2 2.5.5.7 1.2.3 1.5-.2 1.1-1.4-.6-5.5-1.6-6.1z" fill="#b54d26" opacity=".3"/><path d="m27.3 57.7c-2.2 0-4 2.1-3.9 4.7s1.9 4.6 4.1 4.6 4-2.1 3.9-4.7-1.9-4.7-4.1-4.6zm.1 7.6c-1.6 0-3-1.5-3-3.3 0-1.9 1.2-3.4 2.9-3.4 1.6 0 3 1.5 3 3.3 0 1.9-1.3 3.4-2.9 3.4z" fill="#fff9f0"/><path d="m59.5 60c-.4-.3-.9-.3-1.2.1-.3.3-7.2 7.2-17.3.4-.4-.3-.9-.2-1.2.1s-.2.8.2 1.1c2.5 1.7 4.8 2.6 6.9 3 2.9.6 5.4.2 7.2-.4 3.4-1.1 5.4-3.2 5.5-3.2.3-.3.3-.8-.1-1.1z" fill="#c20902" opacity=".5"/></g></svg>