<svg enable-background="new 0 0 96 96" viewBox="0 0 96 96" xmlns="http://www.w3.org/2000/svg" xmlns:xlink="http://www.w3.org/1999/xlink"><clipPath id="a"><circle cx="48" cy="48" r="48"/></clipPath><linearGradient id="b" gradientUnits="userSpaceOnUse" x1="48.9891" x2="48.9891" y1="78.2531" y2="84.729"><stop offset="0" stop-color="#ee996d"/><stop offset=".01630819" stop-color="#ee9a6e"/><stop offset=".3731" stop-color="#f8b181"/><stop offset=".7088" stop-color="#fdbf8d"/><stop offset="1" stop-color="#ffc491"/></linearGradient><path clip-path="url(#a)" d="m0 0h96v96h-96z" fill="#86b7e2"/><g clip-path="url(#a)"><path d="m39.5 80.5s-2.9.7-4.3 1.5c-2.1 1.1-3.1 1.6-3.1 3.9 0 4.1-.6 7.6-1.1 10.1h7.4c1.1-4.4 1.8-9.5 1.8-9.5z" fill="#1e1e29"/><path d="m62.1 82c-1.4-.7-4.3-1.5-4.3-1.5l-.7 6s.7 5.1 1.8 9.5h7.4c-.5-2.5-1.1-6.1-1.1-10.1 0-2.3-1-2.8-3.1-3.9z" fill="#1e1e29"/><path d="m57.6 79.9c-5.7-2.9-14-1.9-17.8.4-5 3.1-4.2 8-2.9 15.7h23.2c1.4-7.4 2.4-13.6-2.5-16.1z" fill="#bcceeb"/><path d="m40.8 83.1c1.1 3.8 4.9 6 4.9 6l2.7-3.1 3.6 3c2.4-1.3 4.8-4.4 4.8-7 0-1.7-17.1-2.7-16 1.1z" opacity=".1"/><path d="m40.6 80.2s-5.9 1.5-6.4 2.7c-.4 1 1 7.2 2.1 13.1h6.1c0-5-.4-11.1-1.8-15.8z" fill="#1e1e29"/><path d="m41.8 83.1c-.3-.8-5.6 1.1-5.5 1.8.1.4 2.4 6.3 4 11.2h2c.2-6.2-.1-11.9-.5-13z" fill="#313142"/><path d="m36.2 81.7c-.1.5 5.8 3.3 5.8 2.7s-.2-6.5-.2-6.5c-2.6 1.4-5.5 3.2-5.6 3.8z" fill="#313142"/><path d="m63.1 82.9c-.5-1.2-6.4-2.7-6.4-2.7-1.5 4.7-1.8 10.8-1.8 15.8h6.1c1.1-5.9 2.5-12.1 2.1-13.1z" fill="#1e1e29"/><path d="m55.5 83.1c-.5 1.1-.8 6.8-.6 12.9h2c1.7-4.9 4-10.7 4-11.2.2-.6-5.1-2.5-5.4-1.7z" fill="#313142"/><path d="m55.4 77.9s-.1 6-.2 6.5c0 .6 5.9-2.2 5.8-2.8 0-.5-2.9-2.3-5.6-3.7z" fill="#313142"/><path d="m40.8 78.6c-3 4.2 4.6 9.5 4.6 9.5l3-2.4 3.4 2.5s6.9-3.9 4.5-9.2c-2.2-4.8-12.4-4.7-15.5-.4z" fill="#cbdaf2"/><path d="m46.6 73.5c-1.9.5-3.1 2.7-3.3 4.9-.2 2.8 3.2 6.6 5.5 6.7 1.8 0 9.2-5.3 4-10.4-1.5-1.4-4.4-1.6-6.2-1.2z" fill="url(#b)"/><path d="m48.8 88.4c-.4 0-.8.3-.8.7s.3.7.8.7c.4 0 .8-.3.8-.7-.1-.4-.4-.7-.8-.7z" fill="#cbdaf2"/><path d="m48.8 92.6c-.4 0-.8.3-.8.7s.3.7.8.7c.4 0 .8-.3.8-.7-.1-.4-.4-.7-.8-.7z" fill="#cbdaf2"/><path d="m68.7 23.3c-2.7-3.5-3.6-7.5.9-7.8-2.9-2.1-11.2-4.4-20.3-4 .3-.8.1-1.4.8-2-3.9.5-8.6.6-13.6 3.6-2.3 1.4-3.3 3.5-5.9 4.2-2.6.8-4 1.2-6.5 2.6-5.3 3-8.1 9.5-8.7 11.4 1-1 3.4-1.6 4.4-1.2-1.9 3.2-2.1 6-1 9.2 1.2 3.3-1.7 7.7-.6 13.9 1.7 9.8 9.2 9.1 9 15.4 0-.1 5.5-3.3 6.1-4.2 1.2-1.6 1.4-3.7 2.7-5.3 3.2-4 8.8-5.8 13.8-5.7 3.6.1 4.9 1.6 7 4 1.4 1.6 6.7 3.6 9.9 10.2 1.6-1.9 3.2-4.9 3.2-7.2.5 1 2.7 1 4.9 0-2.5-2-4.6-8.6-4.3-11.8.2-2.2 4.1-4 2.2-9.7-.5-1.5-.9-1.2-1-2.8 1.9-.3 3.2-1.5 4.8-2.6-5.3-.1-4.6-6-7.8-10.2z" fill="#231e1a"/><path d="m67.6 57.5c-.9.1-1.6 1-1.5 2.1s.9 1.9 1.8 1.8 1.6-1 1.5-2.1-.9-1.9-1.8-1.8z" fill="#fff"/><path d="m46.5 24c-11.9 1.1-21 11.4-20.1 27.9s11.5 27.1 23.4 27.1c10.5 0 20.2-14.8 18.8-31.3-1.5-16.3-10.3-24.8-22.1-23.7z" fill="#ffc596"/><path d="m22.3 47.6c-5.3 2.4-2.7 11.5 1.7 12.9 1.4.4 2.9.3 4.4.1 0-.1.1-.1.1-.2.6-1.3-.8-7.4-1.2-8.7-1-3.2-2.5-5.3-5-4.1z" fill="#ffc596"/><path d="m25.3 50.8c-1.4-.8-5.1.2-3.5 3.2 1-2.6 2.6-.8 2.2 1.1-.2 1.3-1.6 1.2-.3 2.9.7.9 2.2.7 2.9.3 2.5-1.3.5-6.6-1.3-7.5z" fill="#b54d26" opacity=".3"/><path d="m26.2 59.1c-.9 0-1.6.9-1.6 2s.8 2 1.7 2 1.6-.9 1.6-2-.8-2-1.7-2z" fill="#fff"/><path d="m60.8 25c-6.4-.5-13.2-.1-19.4 1.5-9.9 2.6-17.5 13.5-16.6 23.7.5 5.9 2.5 13.8 9.7 13.3-.6-.9-1.2-1.6-1.7-2.5-2.7-5.2-3.8-13.7-1.8-19.4.4.1 2.4.7 2.3 1.2.4-4.3 2.2-6.1 6.1-7.6 2.8-1.1 6.6-2.4 9.6-2.6 2.4-.1 4.5 2 6.6 3.1 2.3 1.1 4.8 1.9 7.4 1.5-.4-.8-.8-1.7-.7-2.5.1-.5 3.2 2.7 3.4 2.9 1.1 1.5 2 3.3 2.2 5.2-.2-4.5-3.6-17.5-7.1-17.8z" fill="#bf3c1b" opacity=".3"/><path d="m62.9 23c-11.5-5.2-23.1-2-33.9 3.2-2.3 1.1-4.3 3-5.6 5.2-2.3 4.2-.3 14.9 1.8 23.5 1.6 6.8 7.2 7.4 7.2 7.4-5.3-7-2.2-24 0-27.7-.9 1.4-.6 4.3.5 5.5 0-3.9 3.3-5.2 6.2-6.7 3.3-1.7 8-3.2 11.7-3.3 1.4 2.6 7.1 5.8 10.1 5.4-.9-.7-1.5-2-.9-3 1.6.7 2.9.7 4.3 1.8.4.3 3.4 3 3.4 3.2-.1-2.9 1.1-6.1.2-8.9-.8-2.5-2.5-4.5-5-5.6z" fill="#231e1a"/><path d="m68.6 25.9c-1.7-2-4.2-6.1-9.2-7.2 1.2-1.3 4-2.7 6.1-3.4-2.9-1-7.6-1.9-11.1-1.7-1.5.1-3 .9-4.5.4-.5-.2-2.5-1.6-1.4-3.3-2.7.6-6.1 1.6-8.6 2.9-2.4 1.2-4.3 3.1-6.7 4.3-3.1 1.6-6.1 1.2-10 3.7-2.4 1.6-3.9 5-4.8 6.1 1.6-.8 6.2-2.9 7.9-2.6-2.2 5.1-1.9 7.9-6.7 12.6 9.6 1.4 11.5-6 14.9-7.1-.2 1.6-.9 3.1-1 4.7 4.4-5.7 11.2-6.9 17.8-7.7 1 1.8 4.3 4 6.3 4.6-.1-1.5 0-2.9.4-4.3 2.8.3 13.9 8 16.3 6.1-3.3-.2-3.4-5.3-5.7-8.1z" fill="#423833"/><path d="m41 46.5c-3.3-1.1-4.8 4.7-2.6 6.3 1-.4 2.2-.3 3.2 0 2-1.2 1.8-5.5-.6-6.3z" fill="#1a1614"/><path d="m64.6 46.3c-3.2-1.9-6 5.3-2.4 6.3.8-.6 1.9-.6 2.8-.5 1.2-1.5 1.3-4.7-.4-5.8z" fill="#1a1614"/><path d="m32.2 44.6c1.1-.7 4.1-1.6 7.5-1.7 2.7-.1 4.1.9 4.5-2.2-2.1.6-4 .6-6.2 1.1-1.8.3-4.4 1-5.8 2.8z" fill="#2b241e"/><path d="m64.2 40.9c-1.8-.3-3.4-.3-5.2-.8.2 3.1 1.4 2.1 3.8 2 2.9 0 5.4.8 6.4 1.4-1.3-1.6-3.4-2.3-5-2.6z" fill="#2b241e"/><path d="m52.5 57.2c-1.2.1-1.7-.3-2.4.2-.8.5 1.1 2 2.6 1.7 1.6-.3 2.8-1.7 2.3-2.2s-1.2.2-2.5.3z" fill="#b54d26" opacity=".3"/><path d="m31.9 48s3.4 3.3 7.4.4l-.5-1.7c.1.1-3.1 3.4-6.9 1.3z" fill="#1a1614"/><path d="m64.7 46.4-.5 1.5c4 2.9 6.7.2 6.7.2-3.1 1.3-6.2-1.7-6.2-1.7z" fill="#1a1614"/><path d="m39.5 47.5c-1.3.5-.1 3 1.1 2 .8-.8 0-2.5-1.1-2z" fill="#a88686"/><path d="m63 47c-1.2.3-.6 2.7.7 2 .9-.6.4-2.3-.7-2z" fill="#a88686"/><path d="m63.3 55.2c-1.8.1-3.1 1.2-3 2.4s1.6 2.1 3.4 1.9c1.8-.1 3.1-1.2 3-2.5 0-1.1-1.6-1.9-3.4-1.8z" fill="#ffa26f"/><path d="m38.8 55.3c-2-.2-3.6.8-3.8 2.1-.1 1.3 1.4 2.5 3.3 2.7 2 .2 3.6-.8 3.8-2.1.2-1.4-1.3-2.6-3.3-2.7z" fill="#ffa26f"/><path d="m60.4 63.1c-.3.3-8.5 8-19.7-.2-.4-.3-1.1-.3-1.4.1s-.3 1 .2 1.3c2.8 2 5.4 3.2 7.8 3.7 3.3.8 6.1.4 8.2-.2 3.9-1.1 6.3-3.4 6.4-3.5.4-.4.3-.9-.1-1.3-.4-.3-1.1-.3-1.4.1z" fill="#c20902" opacity=".5"/><path d="m47.1 47.1c-2.8-2.6-14.1-1.3-17.2-1.1-3 .2 1.8 6.4 3.6 7.7 2.4 1.7 11.1 1.5 13.5-.3 1.5-1.2 2.4-4.3.1-6.3zm-1.1 5.8c-2.1 1.3-9.3 1.3-11.3.4-2.3-1.1-5.6-5.9-3-6.2 2.5-.3 11.2-1.8 14.7.8 1.3 1 1.9 3.7-.4 5z" fill="#f5f5f5"/><path d="m47.5 47.7c1.9-1.3 7.9-1 8.7.5.5.9-.6 1.2-1 1-3-1.5-7-.2-7.2-.2-.7-.3-.7-1.1-.5-1.3z" fill="#f5f5f5"/><path d="m56.6 53.2c2.3 1.8 9.5 2 12 .2 1.8-1.3 5.4-8.3 3-8.3-2.9 0-12.4-.8-15 1.6-2.3 2.1-1.5 5.4 0 6.5zm.9-5.5c3.6-2.6 10.4-1.4 12.8-1.3 1.7.1-.6 5.6-2.9 6.7-2 1-7.8 1-9.8-.2-2.2-1.5-1.5-4.2-.1-5.2z" fill="#f5f5f5"/><g fill="#fff"><path d="m32.5 47.6c1.8-.8 12.1-1.1 13.1.1.7.8-1.9 1.9-3.1 2.1-2.3.3-6.1.4-8.2-.2-.6-.1-3.4-1.3-1.8-2z" opacity=".3"/><path d="m41.1 47.6c1.8-.2 5 .3 4.6.9-.4.7-5.4.8-5.8-.1-.2-.4.4-.7 1.2-.8z"/><path d="m34.7 51.6c1.2.1 3.2 1.1 2.9 1.6s-3.6-.3-3.8-1.1c-.1-.4.3-.5.9-.5z" opacity=".7"/><path d="m58.4 47.7c1.8-.8 10.8-1.4 11.8-.3.7.8-1.9 2-3.1 2.2-2.3.4-4.7.5-6.9.1-.6-.2-3.4-1.3-1.8-2z" opacity=".3"/><path d="m65.7 47.4c1.8-.3 5 .1 4.6.8s-5.4 1-5.8.1c-.2-.5.3-.8 1.2-.9z"/><path d="m59.3 51.6c1.2.1 3.2 1 2.9 1.5s-3.6-.2-3.8-1c-.1-.4.3-.6.9-.5z" opacity=".7"/></g></g></svg>