<svg enable-background="new 0 0 96 96" viewBox="0 0 96 96" xmlns="http://www.w3.org/2000/svg" xmlns:xlink="http://www.w3.org/1999/xlink"><clipPath id="a"><circle cx="48" cy="48" r="48"/></clipPath><path clip-path="url(#a)" d="m0 0h96v96h-96z" fill="#313e68"/><g clip-path="url(#a)"><path d="m63.7 80.3-3.8 6.1c3 1.9 4.7 5.5 4.8 9.6h7.1c0-6.5-3-12.5-8.1-15.7z" fill="#8d573e"/><path d="m23.1 96h7.1c0-4.1 1.8-7.7 4.8-9.6l-3.8-6.1c-5 3.2-8 9.2-8.1 15.7z" fill="#8d573e"/><path d="m58.9 78.4c-7.1-3.8-17.4-2.5-22.1.6-5.4 3.5-5.3 9-4.1 17h30c1.2-8.1 1.5-14.8-3.8-17.6z" fill="#e8e8e8"/><path d="m58 77.7c-1.7 5.5-2.4 12.3-2.7 18.3h7.7c1.2-6.8 2.4-13.3 2-14.4-.5-1.5-7-3.9-7-3.9z" fill="#8d573e"/><path d="m58.1 76.6s-1.1 7.1-1.3 8c-.2 1 6.2.4 6.3-.6 0-.9-1.6-5.6-5-7.4z" fill="#a1664c"/><path d="m57 83.7c-.9 1.5-1.5 6.8-1.7 12.3h3.3c1.2-2.9 2.3-5.3 2.5-5.8.4-1.2-3.4-7.8-4.1-6.5z" fill="#a1664c"/><path d="m29.9 81.6c-.4 1.1.8 7.6 2 14.4h7.6c-.3-6-1.1-12.7-2.8-18.3.1 0-6.2 2.4-6.8 3.9z" fill="#8d573e"/><path d="m31.9 84.1c.1 1 6.6 1.5 6.3.6-.2-1-1.3-8-1.3-8-3.4 1.7-5 6.4-5 7.4z" fill="#a1664c"/><path d="m33.9 90.2c.2.5 1.3 3 2.5 5.8h3.3c-.2-5.5-.8-10.8-1.7-12.3-.7-1.3-4.5 5.3-4.1 6.5z" fill="#a1664c"/><path d="m36.9 82.4c1.5 4.9 6.8 7.6 6.8 7.6l4.5-4.3 4.8 4.1c2.9-2.1 6-5.4 6-8.6.1-2.4-23.6-3.7-22.1 1.2z" opacity=".1"/><path d="m36.9 76.6c-4.2 5.4 6.4 12.1 6.4 12.1l4.9-3.1 4.5 2.9s9-4.7 5.6-11.4c-3-6-17.1-5.9-21.4-.5z" fill="#f5f5f5"/><path d="m54.3 71.8c-2.4-1.9-7-2.2-9.9-1.6-3 .6-4.9 3.4-5.1 6.3-.3 3.6 5 8.5 8.7 8.6 2.8 0 14.6-6.8 6.3-13.3z" fill="#ffb67d"/><path d="m47.3 90.8c-.5 0-.9.4-.9.9s.4.9.9.9.9-.4.9-.9c.1-.5-.3-.9-.9-.9z" fill="#f5f5f5"/><path d="m73.1 35.4c-1.4-1.6-2.8 11.6-3.8 12.9-2.2 3-1.7 8.2 1.9 9.7.3.1 4 .7 3.6-.3-2.5-7.2 3.7-16-1.7-22.3z" fill="#2b2521"/><path d="m42.5 14.6c-31.8 6-26.2 42.7-17 41.2 9.3-1.5 40.4-8.5 43.2-9.3 2.8-.7 6.1-1.2 4.3-13.2-1.9-13-17.4-21.1-30.5-18.7z" fill="#2b2521"/><path d="m47.1 21.7c-13.7.4-24.4 14.3-23.9 31s12 30 25.7 29.6 24.4-14.3 23.9-31-12-30-25.7-29.6z" fill="#ffcb9e"/><path d="m41.7 46.3c-3-1.5-5.2 3.9-3.2 5.8 1-.2 2.1-.1 3 .4 2.2-1 2.5-5.2.2-6.2z" fill="#211011"/><path d="m64.9 61.6c-.5-.3-1.1-.2-1.5.2-.3.4-7.9 9.1-20.4 1.8-.5-.3-1.1-.2-1.4.3-.3.4-.2 1 .3 1.3 3.1 1.8 5.9 2.7 8.4 3 3.5.5 6.4-.2 8.5-1 4-1.6 6.1-4.1 6.2-4.2.5-.5.4-1.1-.1-1.4z" fill="#94110c" opacity=".5"/><path d="m53.9 54c-1.5 0-2.2-.6-3.2-.1-1.1.5.4 2.8 3.1 2.8s4-2.1 3.4-2.7c-.7-.7-1.6 0-3.3 0z" fill="#b54d26" opacity=".3"/><path d="m53.7 50.8c-2.7.1-4.1 2.3-2.7 3.4 1.7 1.3 4.8.8 5.9-.1.8-.6 0-3.4-3.2-3.3z" fill="#ffd8b5"/><path d="m65.9 45.4c-3.2-1.6-5.4 5.2-1.9 5.9.7-.6 1.7-.9 2.6-.9 1.2-1.4 1.1-4.1-.7-5z" fill="#211011"/><path d="m40.8 47c-1.3.4-.4 2.8.8 2 .9-.6.3-2.3-.8-2z" fill="#a89191"/><path d="m65.2 46.3c-1.2.4-.4 2.7.8 1.9.8-.6.2-2.2-.8-1.9z" fill="#a89191"/><path d="m19.4 49.5c-6.8 1.4-4.7 10.1.7 11.9 1.7.6 3.6.7 5.4.7 0 0 .1-.1.1-.1.9-1.1-.2-6.8-.5-8-.9-3.1-2.5-5.2-5.7-4.5z" fill="#ffcb9e"/><path d="m63.7 30.6c-6.4-1.3-13.2-1.7-19.7-.8-5.2.7-10.5 2.4-13.2 7.2-1.4 2.4-2 5.1-2.5 7.9-.6 3.4-.1 7.1.7 7.4.6-4.1 3.1-3.9 3.9-7.9.7-3.5 4.6-5.8 4.8-6-.6 1-1.4 3.3-1.2 4.4 1.3-2 5.9-5.1 15.9-4 3 .3 8.8.7 11.7.1 2.1-.4 5.3-2.2 6.5-4.4 1.4-2.6-5.4-3.6-6.9-3.9z" fill="#b54d26" opacity=".3"/><path d="m60 24.3c-8.9-5.5-17-4.4-24.1-1.5-9.3 3.8-15 18.7-14.3 27.6.4 5.2 7.4 5.5 7.4 2.6 0-8.8 1.4-15 14.3-18.1 10.3-2.4 22.4-1.1 25.5 1 3.1 2.2.1-6.1-8.8-11.6z" fill="#2b2521"/><path d="m22.8 52.8c-1.7-.9-6.4-.5-4.8 2.4 1.6-2.2 3.3-.3 2.6 1.3-.4 1.1-2.1.9-.7 2.6.8.9 2.6.9 3.6.7 3.3-.9 1.4-5.9-.7-7z" fill="#b54d26" opacity=".3"/><g fill="#2b2521"><path d="m58.7 15.6c-8.1-2.2-16.9-2.3-24.2 1.9-5.3 3-6.2 8.7-4.3 14.6.6 1.9 1.8 4.7 4.2 5.1.9.1 5.6-1.4 5.9-2-.6 1.1-1.1 2.4-1.1 3.7 9.9-5.9 26.8 2.8 36.1-4.1 4.3-3.2-2.4-15.3-16.6-19.2z"/><path d="m27.5 47.7c-1.6-1-4.1-.2-5.8-1.2.8.5.1 4 .1 4.8-.2 4.8 2.6 7.9 7.1 8.5.2 0 .4.1.7.1.2-3-.4-5.8-.4-8.9 0-2.2-.2-2.4-1.7-3.3z"/><path d="m39.9 15.2c-4.7.9-9.8 1.9-13.6-.4 0 .8-.2 3.1 1.8 4.2-1.2 1-3.6 1-6-.2 2.4 7.8 12.2 6 16.6 3.5 2.1-1.3 4.6-7.8 1.2-7.1z"/><path d="m67.8 39.5c-1-.4-2.2-.5-3.2-.5-.6 0-3.1-.4-3.6.1-1.8 2 5.6 2.1 6.3 2.1 1.7 0 2.2-.9.5-1.7z"/><path d="m40.2 39.7c-1 .1-2.3.3-3.2.8-1.6.9-1 1.7.7 1.6.7 0 8-.9 6-2.7-.5-.4-2.9.2-3.5.3z"/><path d="m58.1 44.2c-1.4 1.7-.9 8.2.3 9.7s11.1.9 13.2-.1 2.5-8.4.6-10.6c-1.8-2.1-12-1.4-14.1 1zm13.1 8c-1.7.8-10 1.5-11.2.4-1.1-1.1-1.9-5.7-.8-7 1.6-1.8 10.2-2.6 11.9-1.1 1.7 1.6 1.9 6.9.1 7.7z"/><path d="m31.6 44.5c-1.7 1.7-1.1 8.7.4 10.4s13.2 1.3 15.8.3c2.5-1 2.9-8.9.7-11.3-2.3-2.3-14.5-1.9-16.9.6zm15.7 8.9c-2.1.8-12 1.2-13.4.1s-2.3-6-1-7.3c1.9-1.8 12.2-2.3 14.2-.7s2.3 7.1.2 7.9z"/><path d="m51.1 47.5c-.3.1-3 2-2 2.4.3.1 1.7-.9 2-1 .9-.3 1.9-.5 2.9-.5 1.4 0 1.9.4 2.9.9.5.3 1.5.8.8-.5-1.2-2.3-4.6-2.2-6.6-1.3z"/><path d="m29.2 47.3c-.9.1-5 .1-5.4 1-.5.9.9 1.4 1.6 1.6 1.3.3 2.7.5 4 .7 1.9.3 1.9-.2 1.9-2 0-1.7-.4-1.5-2.1-1.3z"/></g><path d="m34.9 51.8c-.5-.1-.9 0-.8.5.1.8 3.2 1.5 3.5 1.1.3-.6-1.5-1.5-2.7-1.6z" fill="#fff" opacity=".7"/><path d="m46.4 45.8c-2-.7-11.4-.8-12.3.3-.7.8 2.2 1.8 3.5 2 2.4.3 5 .2 7.1-.3.6-.2 3.4-1.4 1.7-2z" fill="#fff" opacity=".3"/><path d="m41.5 45.1c-1 .1-1.7.4-1.4 1 .5 1.1 6.4.9 6.8.1s-3.3-1.3-5.4-1.1z" fill="#fff"/><path d="m60.8 51.4c-.5 0-.8.1-.7.5.2.8 3 1.4 3.3.9.1-.5-1.6-1.4-2.6-1.4z" fill="#fff" opacity=".7"/><path d="m70.9 45c-1.8-.6-10.3-.4-11.1.8-.6.8 2.1 1.7 3.2 1.8 2.2.2 4.5.1 6.4-.6.6-.2 3.1-1.5 1.5-2z" fill="#fff" opacity=".3"/><path d="m66.5 44.5c-.9.2-1.5.5-1.3 1 .5 1.1 5.8.6 6.2-.2.3-.8-3-1.2-4.9-.8z" fill="#fff"/><path d="m69.1 22.3c-5.6-4.7-13.8-6.2-21.1-6.1-5.9 0-15.8 1.9-18.2 8.2-1.7 4.3 2.7 6.9 6.3 7.9 2.6.7 5.3.8 8 .7-.7.9-1.2 1.8-1.9 2.6 8.8-1 18.8 1.5 27.4-1.2 7.5-2.4 3.2-9-.5-12.1z" fill="#423833"/></g></svg>