<svg enable-background="new 0 0 96 96" viewBox="0 0 96 96" xmlns="http://www.w3.org/2000/svg" xmlns:xlink="http://www.w3.org/1999/xlink"><clipPath id="a"><circle cx="48" cy="48" r="48"/></clipPath><path clip-path="url(#a)" d="m0 0h96v96h-96z" fill="#fff"/><g clip-path="url(#a)"><path d="m39.7 82.6-1.2-6.6c-6.4 1.2-10 7-10.4 12.3-.2 2.9-.5 7.4-.5 7.8h8.3c-.1-.1.4-11.7 3.8-13.5z" fill="#9ab5de"/><path d="m59.6 76-1.3 6.6c3.4 1.9 3.9 13.4 3.9 13.4h8.3c0-.4-.3-4.9-.5-7.8-.4-5.2-4-11-10.4-12.2z" fill="#9ab5de"/><path d="m59.8 75.5c-5.3-1.9-15.4-2.6-21.7.3-3.5 1.6-3 11.3-2.7 20.2h27.4c.1-9 .4-19.3-3-20.5z" fill="#9ab5de"/><path d="m60.6 75.7c-.2-.6-.9-1-1.5-.8s-1 .9-.8 1.5c1 3.6.4 10.2-.3 17.3-.1.8-.1 1.6-.2 2.3h2.4c.1-.7.1-1.4.2-2.1.7-7.3 1.3-14.1.2-18.2z" fill="#3a3a4a"/><path d="m57.9 92.4 2.8.1.1-1.2-2.9-.1z" fill="#f2f2f2"/><path d="m39.8 76.4c.2-.6-.2-1.3-.8-1.5s-1.3.2-1.5.8c-1.2 4-.5 10.9.2 18.2.1.7.1 1.4.2 2.1h2.4c-.1-.8-.1-1.6-.2-2.3-.7-7.1-1.3-13.7-.3-17.3z" fill="#3a3a4a"/><path d="m37.3 91.2h2.8v1.2h-2.8z" fill="#f2f2f2" transform="matrix(.9998 -.01988008 .01988008 .9998 -1.8181 .7887)"/><path d="m54.3 79c-3.3-2-16.6-2.6-15.1 3.2 1.5 5.7 5.4 8.6 5.4 8.6l4.4-5.1 4.7 4.8c4.5-4.8 5.8-9.5 5.8-9.5s-1.9.1-5.2-2z" opacity=".1"/><path d="m38.9 76.9c-2.1 6.8 5.6 12.3 5.6 12.3l4.6-3.6 4.3 3.4s8.4-5.5 5.2-13.4c-2.9-7.1-17.2-6.5-19.7 1.3z" fill="#b0c6e8"/><path d="m48.9 66.3c-3.7.1-8.9 2.4-9.2 8.2-.1 2.7.3 4.3 1.7 5.8 2.2 2.4 7.2 4.5 7.8 4.5.6-.1 5.5-2.4 7.7-4.8 1.4-1.5 1.7-3.1 1.5-5.8-.5-5.9-5.8-8-9.5-7.9z" fill="#f1aa83"/><path d="m49.1 92c-.5 0-.9.4-.9.9s.4.9.9.9.9-.4.9-.9-.4-.9-.9-.9z" fill="#f2f2f2"/><path d="m43.4 12.3c-30.7 2.3-25.8 45-17 43.2 6.5-1.3 12.8-3.1 19.2-4.7 6-1.5 12.6-.3 18.7.2 4.8.4 4.7-1.7 5-5.6.5-7.2-.3-9.9.1-12.8 1.4-12.4-8.5-21.6-26-20.3z" fill="#c9beb7"/><path d="m44.4 21.4c-11.3 2.1-19.3 18.4-17.3 33.6 1.5 11.4 10.2 24 23.4 23.2 13.5-.9 20.3-17.6 18.6-31.7-1.8-15.3-8.9-28.1-24.7-25.1z" fill="#ffb97f"/><path d="m23.2 48.7c-5.5 1.5-3.4 9.6 1.1 11.3 1.4.5 3 .6 4.5.5 0 0 .1-.1.1-.1.7-1-.5-6.5-.8-7.6-.9-2.9-2.3-4.8-4.9-4.1z" fill="#ffb97f"/><path d="m64.1 25.8c-6.1-2.5-12.1-3.9-18.8-4.1-4.5-.1-11.2-.4-14.8 2.9-2.9 2.6-3.1 7.6-3.3 11.2-.1 1.4-.1 12 .7 9.7 1.5-4.2 4.9-5.7 4.8-10.1 6.5 2.9 16.2 2.7 24.7 1.9 5.3-.5 9.6-1.8 10.7 2.6.6-3.8.2-12.4-4-14.1z" fill="#bf3c1b" opacity=".2"/><path d="m25.1 51.7c-1.2-.6-4.3.4-2.9 2.9.8-2.3 2.1-.8 1.9.8-.1 1.1-1.3 1.1-.2 2.5.6.8 1.9.5 2.5.1 2.1-1.3.2-5.6-1.3-6.3z" fill="#b54319" opacity=".35"/><path d="m74.8 15.4c-7.2 5.8-18.9-7-35.3-2.1-22.4 6.7-14.1 30.6-14 33.4.1 2.5 1.5 5.5 2.3 6.5.6.3 1.9.3 3 0-2-1.9-2.8-7-1.2-11.8.9-2.7 2.2-4.6 1.9-8.2 2 1.8 16 4.5 33.6.8 5.7-1.2 9.1-4.7 10.9-7.4-1.5 0-2.5.3-4.3.5 2.7-2.6 3.1-7.8 3.1-11.7z" fill="#c9beb7"/><path d="m56.3 14.8c-8-2.3-20.3-2.5-26.6 4.1s-.9 12.3 20.6 12.1c19.6-.2 23.6-14.1 23.6-14.1-5.9 2.7-9.6.2-17.6-2.1z" fill="#f0eae6" opacity=".7"/><path d="m24.4 48.5c1.9.1 2.2 3.9 3.6 4.9.6.3 1.8.2 2.8-.1-1.5-2.1-1.8-7.6-1.8-9.2-1 2.3-6.4 4.3-4.6 4.4z" fill="#9e8f88"/><path d="m23.3 27.3c-.8 1.8-1.3 3.6-1.6 5.6-.3 2.3-.5 5.6 1.2 7.4 2 2.2 5.2.9 6-1.5 2.4-7.2-5.6-11.5-5.6-11.5z" fill="#f0eae6" opacity=".7"/><path d="m37.6 76.6c2.3 8.6 20.9 10.8 24.8 1.3 3-7.1-26.5-7.9-24.8-1.3z" opacity=".1"/><path d="m68.9 44.8c1.1 23.2-6.1 14.5-6.1 14.5l-2.2.9c.8 5.7-5 8-6 4.2l-5.6.3c-1.5 5.6-7.3-.6-7.2-3.9.1-3.4-2.7-.8-2.7-.8-3.6 3.6-8.6-5.3-9.1-7.2l-2.8-.2s.1 31.4 27 28.9c23-2.2 15-37.7 15-37.7z" fill="#c9beb7"/><path d="m45.1 63.2c1.7 4.3 10.9 4.1 12.2.6-3.1 1.1-9.8 1.6-12.2-.6z" fill="#bf3c1b" opacity=".3"/><path d="m53.4 60.9c-2.2.2-5 0-6.9-.4-1.8-.4-3.1 1.4-1.7 2.9 1.9 2.1 5.4 2 7.8 1.9 1.8-.1 5.7-.5 6-3.5.2-2.5-4.1-.9-5.2-.9z" fill="#ffcb9e"/><path d="m38.6 60.3c7.5 3.7 20.9 3.4 25.6-.8-5.9 1.2-19.8 2-25.6.8z" fill="#6e2210" opacity=".3"/><path d="m35.2 49.3c.1.9 2.1.5 2.8.6-.5.6-2.2.6-2.8 1-.7.4-.6.7.2.7.5 0 3.3-.7 3.7-1 1.4-1.4-3.2-1.5-3.9-1.3z" fill="#b54319" opacity=".5"/><path d="m67.1 50c-.5-.4-1.9-.4-2.3-1 .5-.1 2.2.3 2.4-.6-.6-.2-4.5-.1-3.3 1.2.3.3 2.6 1 3 1 .6.1.7-.1.2-.6z" fill="#b54319" opacity=".5"/><path d="m40.7 45.3c-2.9-1.3-4.7 3.9-2.8 5.6.9-.3 2-.2 2.9.3 2-1 2.1-4.9-.1-5.9z" fill="#121b21"/><path d="m52.6 54.8-2.2-.1c-2.6-.3-5.3.5-7.5 1.6-1.1.6-4.2 2.6-4.8 3.8 7 2.1 15.6 2.2 22.9.6 1.4-.3 2.7-.7 3.9-1.5-2.7-2.2-6.5-4.6-10.1-4.7-.8 0-1.5.2-2.2.3z" fill="#c9beb7"/><path d="m52.5 53.8c-1.5 0-2.1-.5-3.1 0s.5 2.3 3 2.2c2.6-.1 3.7-1.9 3.1-2.4s-1.4.2-3 .2z" fill="#a67663" opacity=".3"/><path d="m51.6 45.6c-1.3.1-1.5 3.5-1.9 5.1s-.7 3.2-.1 3.6c1.7 1.2 5.1.4 6-.5.4-.4-.5-2-1.3-3.7-.6-1.3-1.3-4.6-2.7-4.5z" fill="#ffd2ab"/><path d="m64.1 45.2c-3-1.6-5.3 4.7-2 5.5.7-.5 1.7-.8 2.5-.7 1.1-1.3 1.1-3.9-.5-4.8z" fill="#121b21"/><path d="m39.9 46.1c-1.2.4-.3 2.7.9 1.9.8-.7.1-2.3-.9-1.9z" fill="#7d8ba8"/><path d="m63.3 46c-1.1.3-.5 2.5.7 1.8.8-.4.3-2-.7-1.8z" fill="#7d8ba8"/><path d="m61.5 39c-2.6.1-4.6 0-4.6 0 0 1.2.6 3.7 2.5 3.5 1.2-.1 2.4-.5 3.6-.5 2.1-.1 3.6.2 4.4.4.9.2 1.1-.9.8-1.2-1.3-1-2.9-2.3-6.7-2.2z" fill="#4f2c1e"/><path d="m40.7 39.4c-4.2 0-5.9 1.4-7.2 2.5-.3.3 0 1.4 1 1.2.8-.2 2.5-.6 4.8-.6 1.3 0 2.7.3 4 .4 2.2.2 2.6-2.4 2.4-3.6.1-.2-2.1 0-5 .1z" fill="#4f2c1e"/><path d="m67.3 53c-1-1.3-2.9-1.3-4.3-1.1-1.8.2-4 1.3-2.1 3.9 1 1.4 8.1 1.4 6.9-1.9-.1-.4-.3-.7-.5-.9z" fill="#ffd2ab"/><path d="m41.4 53.2c-1.1-1.4-3.1-1.3-4.5-1-1.8.3-4.2 1.6-2.1 4.3 1.1 1.5 8.5 1.3 7.2-2.3-.2-.4-.4-.8-.6-1z" fill="#ffd2ab"/><path d="m55.1 56.2c-1.2.6-2.2 1-3.6 1-.9 0-3.1-1.2-4.5-1s-4.1 1.9-5.2 2.7c6.5 1.4 14.9 1.9 19.6-.6-1.5-1.3-4.6-2.9-6.3-2.1z" fill="#f0eae6" opacity=".7"/><path d="m62.8 67.5c-2-2.4-4-.3-3.9 2.2-2.9-4.1-8.2-1.3-8.4 1.4-1.6-4.5-6.2-4.2-5.9-1.1-.7-2.7-4.5-6.2-7.4-5.7-5 .9-.7 7.5 1 9.8 6.1 8.2 30.9 7.4 29.2-8.5-.6-4.2-5.2-3.2-4.6 1.9z" fill="#f0eae6" opacity=".7"/><path d="m61.6 45.2c1.2-.1 2.4-.1 3.6-.1.9 0 2.2.1 3-.2 1.3-.5 1-2.3.2-3.2s-2-.6-3.1-.5c-1.4.1-2.8.4-4.2.7-1.7.4-3.7.6-5.3 1.4-1.5.8-2.1 1.2-3.9 1.2-3.3-.1-6.1-2.2-9.3-2.5-3.4-.3-6.9-.7-10.2.2-.9.2-3.5 1.3-1.7 2.2 1.7.9 4.3.6 6.3.7.9 0 1.8 0 2.6.1 3.1.3 7.9-.2 7.7 3.7-.2 2.7-1.9 5.4-4 6-2.1.5-4.3.7-6.4.7-1.6 0-3.2-.3-4.6-1-.4-.2-1.7-1-2.1-.4-.7 1 1.9 2.5 2.5 2.8 1.5.7 3.1.9 4.8 1 4.1.4 8.2.2 10.5-3.6 1.3-2.2 2-4.7 3.2-7 2-3.7 2.8 1.3 3.4 3.5.3 1.2.8 2.4 1.5 3.5 1.2 1.8 3.7 2.9 5.7 3 1.3.1 5.3-.2 6.5-.7.7-.3 1.1-1.5.2-1.9-.5-.2-4.2.5-4.7.5-.8 0-1.6-.1-2.4-.2-1-.2-2-.7-2.8-1.3-.6-.5-1.1-1-1.5-1.7-.8-1.4-.8-3.1-.2-4.6.7-2 2.9-2.2 4.7-2.3z" fill="#a67663" opacity=".3"/><path d="m28.9 42c-2.7.3-5-.3-5.6.2-.8.8.8 3.1.8 3.1s.9.5 2.1.6c.3 1.9.5 6.7 4.1 9.5 3 2.4 12.4 2.5 15.2.8 3.5-2 4.8-5.5 5.2-8.9 1.1-8.2-18-5.7-21.8-5.3zm16.7 12c-3.4 2.5-12.5 2-15-.7-2-2.1-2.6-6.8-1.5-7.6 3.3-2.3 16-2.3 19.1-.3 1.5 1 0 6.7-2.6 8.6z" fill="#3a3a4a"/><path d="m72.5 41c-3.3-.2-19.8-1.8-18.7 6.4.5 3.3 1.7 6.7 4.7 8.6 2.5 1.5 10.5 1 13-1.5 3-3 3.1-7.8 3.3-9.7 1.1-.1 1.8-.7 1.8-.7s1.3-2.4.6-3.1c-.4-.5-2.4.2-4.7 0zm-1.1 11.4c-2.1 2.9-9.9 3.8-12.9 1.4-2.3-1.8-3.7-7.3-2.5-8.4 2.6-2.2 13.6-2.8 16.5-.6 1 .7.6 5.4-1.1 7.6z" fill="#3a3a4a"/><g fill="#fff"><path d="m58.2 44.8c-1.8.7 1.4 1.9 2.1 2.1 2.4.5 5.2.5 7.8.1 1.4-.2 4.4-1.3 3.6-2.2-1.1-1.1-11.4-.8-13.5 0z" opacity=".3"/><path d="m66.3 44.8c-1 .1-1.6.4-1.4.8.5.9 6.3.8 6.7.1s-3.2-1.1-5.3-.9z"/><path d="m59.9 51.7c-.6 0-1 .1-.9.5.2.8 3.8 1.4 4.1.9.3-.4-1.9-1.3-3.2-1.4z" opacity=".7"/><path d="m32.6 52.4c-.7-.1-1.2 0-1.1.5.2.8 4.1 1.5 4.5 1.1.4-.5-2-1.4-3.4-1.6z" opacity=".7"/><path d="m46.7 45c-2.4-.7-14.4-.8-15.5.3-.8.8 2.8 1.8 4.4 2 3.1.3 6.3.2 9-.3.8-.1 4.3-1.3 2.1-2z" opacity=".3"/><path d="m41.5 44.7c-1.1.1-1.8.4-1.5.9.5.9 6.9.8 7.4.1.4-.8-3.6-1.2-5.9-1z"/></g><path d="m56.4 42.6c-2.6.8-5.2 1-8.5.1-2.7-.7 1.4 1.6 1.7 3s-.1 5.8.8 3.3 2.6-2.6 3.7-.3 1.3-3.7 1.8-4.2c.4-.6 3-2.6.5-1.9z" fill="#3a3a4a"/><path d="m30.2 42.7c7.2-.1 13-.3 17.5 1.1-3-2.2-7.9-2.4-17.5-1.1z" fill="#c1c5c9"/><path d="m57.2 43.4c3.7-1.6 8.5-1.2 14.8-1.8-8.5-.1-12.5-.3-14.8 1.8z" fill="#c1c5c9"/></g></svg>