<svg enable-background="new 0 0 96 96" viewBox="0 0 96 96" xmlns="http://www.w3.org/2000/svg" xmlns:xlink="http://www.w3.org/1999/xlink"><clipPath id="a"><circle cx="48" cy="48" r="48"/></clipPath><linearGradient id="b" gradientUnits="userSpaceOnUse" x1="47.8939" x2="47.8939" y1="72.9362" y2="80.1237"><stop offset="0" stop-color="#ee966a"/><stop offset="1" stop-color="#ffc295"/></linearGradient><path clip-path="url(#a)" d="m0 0h96v96h-96z" fill="#4c6a8e"/><g clip-path="url(#a)"><path d="m40.5 82.5-2.2-4.1c-2.9 1.4-3.7 4.7-4.5 8.2-.3 1.5-1.5 6.3-2.4 9.4h5c.8-2.9 1.8-7.2 2.1-8.4.5-2.3 1.1-4.6 2-5.1z" fill="#1e1e29"/><path d="m58.2 78.4-2.2 4.1c.9.5 1.5 2.8 2 5.1.3 1.2 1.3 5.5 2.1 8.4h5c-.9-3.1-2.1-7.9-2.4-9.4-.9-3.5-1.6-6.8-4.5-8.2z" fill="#1e1e29"/><path d="m57.1 79.6c-2.6-6.6-13.2-5.3-16.9-2.1s-2.9 8.9 1.3 13.1c2.2 2.2 3.8 4.1 4.9 5.5h4.4c3.1-4.7 7.8-12.8 6.3-16.5z" fill="#fff"/><path d="m58.1 89.1c1.6-3.8 1.2-4.6.7-6.9-.9-4.7-2.1-2.2-2.5-.8-2.2 6.8-7.6 13.2-7.6 13.2s-7.4-7.4-9.2-13.1c-.4-1.4-.1-3.4-1.2-.8-2 4.5-.4 6.3.6 9.9.4 1.7.6 3.5.5 5.5h17.3c-.1-2.1.3-4.3 1.4-7z" fill="#1e1e29"/><path d="m55 76.4c-.3-.1-.5-.1-.6-.1.8 1.1 1.4 2 1.1 3.5-1 5.1-3.8 10.6-6.8 14.8 0 0 7.8-6.2 11.5-9.7.7-.7-.6-1.5-1.3-2-.5-.3-1.1-.6-1.6-.8.3-.6 2.9-1.8 3.6-2.7s-4-2.5-5.9-3z" fill="#3e3e4f"/><path d="m56.8 75.8c-.4 0-.7.3-.7.6 0 .4.3.7.7.7s.7-.3.7-.6c0-.4-.3-.7-.7-.7z" fill="#fff9f0"/><path d="m41.3 76.6c-.3.1-7.4 1.5-6.3 2.9.7.9 3.4 2.1 3.6 2.7-.5.2-1.1.5-1.6.8-.7.5-2.1 1.3-1.3 2 3.7 3.5 13 9.5 13 9.5-2.6-3.3-4.9-6.8-6.7-10.6-1-2.2-2.6-5.1-.7-7.3z" fill="#3e3e4f"/><path d="m44.2 75.9c-.4 0-.7.3-.7.6 0 .4.3.7.7.7s.7-.3.7-.6c0-.4-.3-.7-.7-.7z" fill="#fff9f0"/><path d="m53.6 76.2c-2.8-1.6.2-8.7-2-10.5-1.8-1.3-4.6-1.5-6.6-.7-3.9 1.6 0 10.2-3.8 11.8-.7.3-.9 1.2.5 3.5 1.8 2.8 3.9 5.6 6.5 8.4 2.1-1.9 5.8-7.6 6.4-8.9 1-2.6.4-2.8-1-3.6z" fill="url(#b)"/><path d="m27.8 34.1c-14.5 1.9-16.2 19.1-8.6 27.2 5.9 6.3 5.3 10.5.5 10.9 2.8 2.9 21.6 9.7 25.3-13.2 3.8-22.9-10.3-25.8-17.2-24.9z" fill="#f7d57c"/><path d="m25.4 37.6c-3.7-.4-9.9 3.9-9.6 12.7.1 4.1 2.5 8.7 2.5 8.7s-3.2-13 9.8-14.3c14.4-1.4-2.7-7.1-2.7-7.1z" fill="#ffedbf"/><path d="m36.7 47.9c-2.8 2-10.3-.3-5.8 13.4 3.2 9.7-.9 13.1-8.6 12 0 0 11.8 5.7 21.4-5.8 10.4-12.6 5.8-28.7-7-19.6z" fill="#ebbb5c"/><path d="m28.7 45.2c-2.8-.3-5.1 1.7-4.2 8 .8 6.3 6.8 5.5 6.8 5.5s.1-13.2-2.6-13.5z" fill="#ebbb5c"/><path d="m47.5 14.6c-32.6.5-27.3 43.4-13.1 42.1 7.2-.7 5.5-8.9 12.6-10.5 3.5-.8 7.1-.7 10.6-.5 3.4.3 9.4 9.7 11.1 7.6 3.9-5 7.4-39.1-21.2-38.7z" fill="#f7d57c"/><path d="m48.9 24c-15.1.5-20 10.5-19.7 25.5.4 15 11.1 24.9 22.2 25.6 8.6.5 19.4-12.9 18.6-27.9-.9-14.8-6.6-23.6-21.1-23.2z" fill="#ffc59a"/><path d="m49.1 30.2c-1.3.3.3 2.6.3 2.6.3-1.5 1.2-1.3 2.1-.5 0 0-1.1-2.4-2.4-2.1z" fill="#bf3c1b" opacity=".15"/><path d="m53.3 29.2c-2.6-.1-1.8 3.1-1.8 3.1.5-1.7 2.7-1.9 4.7-.4-.1.1-.3-2.6-2.9-2.7z" fill="#bf3c1b" opacity=".15"/><path d="m36.8 26.7c-11.5 4.4-5.2 26.1-5.2 26.1-3.8-30.5 15.4-21.2 17.8-20-2.1-3.3-4.5-9.2-12.6-6.1z" fill="#bf3c1b" opacity=".15"/><path d="m60.1 24.2c-3 .2-4 5.7-3.9 7.8 2.9-3.8 9.3-2.8 12.2 5.1.1-3.2-4.2-13.2-8.3-12.9z" fill="#bf3c1b" opacity=".15"/><path d="m40.1 44.8c-3.3-1-4.5 4.9-2.1 6.5 1-.4 2.1-.5 3.1-.1 1.9-1.4 1.4-5.7-1-6.4z" fill="#1e4c76"/><path d="m39.4 46.4c-1.3.3-.6 2.9.7 2.1 1-.6.5-2.4-.7-2.1z" fill="#9cd0ff"/><path d="m26.8 45.1c-4.2 1.8-2.5 10.2.9 11.7 1.1.5 2.2.5 3.4.3 0 0 0-.1.1-.1.5-1.1-.4-6.7-.7-7.9-.6-2.8-1.7-4.8-3.7-4z" fill="#ffc59a"/><path d="m28.1 47.9c-.8-.4-2.6.9-1.4 3.2.2-2.3 1.2-1 1.3.6.1 1.1-.7 1.2.2 2.5.5.7 1.2.3 1.6-.2 1.1-1.4-.6-5.5-1.7-6.1z" fill="#bf3c1b" opacity=".15"/><path d="m44 16.6c-15.1 2.9-22.7 24.9-10.8 42.6-2-5.8-4-21.9-.2-26.9s12-2.7 16.3.5c0-.7.1-1.3.3-1.9.2.2 1.5 1.1 1.7 1.5.5-2.6 3.2-2.1 4.7-.4 1.5-5.7 10.2-6.1 13 8.5.3 1.6.3-6.3 0-8-1.3-7.7-10.9-18.6-25-15.9z" fill="#f7d57c"/><path d="m64.9 53.2c-1.5-.1-3.6.5-2.6 2.8.6 1.3 6.5 2.3 6.2-.5 0-.3-.1-.6-.2-.8-.6-1.1-2.2-1.4-3.4-1.5z" fill="#ffb085"/><path d="m41.3 54.4c-.9-1.2-2.7-1.2-4-1-1.7.3-3.9 1.3-2.3 3.7.8 1.3 7.5 1.3 6.7-1.9-.1-.2-.3-.5-.4-.8z" fill="#ffb085"/><path d="m52.4 60c-4.7.1-10.6.5-14.2-1.4 4.4 8.6 8.6 10 13.3 10.3 6 .4 8.4-2.7 9.3-5.4.4-1.2 3-4.3 4.2-4.4-3.6 1.3-6.9.8-12.6.9z" fill="#d95f46" opacity=".6"/><path d="m40.2 60.1s3.6 6.1 11 6.3c4.8.1 7.9-1.2 8.9-3.3 1-2.2 3.1-3 3.1-3-13.1 2.8-23 0-23 0z" fill="#8f302b"/><path d="m42.9 60.7s.2 1.4 2.8 2.1c3.4.9 7 1 10.8.6 2.6-.3 3.9-2.7 3.9-2.7s-7.3 1.4-17.5 0z" fill="#fff9f0"/><path d="m53.1 64.3c-3.4.1-6.3-.5-8-1.5-1.2-.7-1.3 0-1.1.5 0 0 1.1 2.5 6.7 3.1 5.4.6 8.3-2.3 7.7-2.8-.5-.5-2.1.7-5.3.7z" fill="#fff9f0"/><path d="m42.9 60.7s.2.9.9 1.2c0 0 12.4-.9 15.4.2 0 0 1-.9 1.2-1.4 0-.1-8.9 1.3-17.5 0z" fill="#e8dac5"/><path d="m46.3 63.4c4.5 2.5 10 .5 10 .5-5.7 1.1-10-.5-10-.5z" fill="#e8dac5"/><path d="m52.8 54c-1.2 0-1.6-.5-2.5-.1-.8.4.9 2 2.4 1.9 1.6-.1 3-1.4 2.6-1.9-.4-.4-1.2.2-2.5.1z" fill="#bf3c1b" opacity=".15"/><path d="m65.9 45c-3-2.1-6.5 4.4-3 5.7.9-.5 2-.4 2.9-.2 1.3-1.2 1.8-4.3.1-5.5z" fill="#1e4c76"/><path d="m64.3 45.9c-1.3-.1-1.3 2.5.1 2.1 1-.2 1-2-.1-2.1z" fill="#9cd0ff"/><path d="m66 44.9c-2.8-1.3-4.1 1.8-4.1 1.8s1.6-1.5 3.5-.3c4.3 2.7 7.5.1 7.5.1-3.7.9-5.3-.9-6.9-1.6z" fill="#121b21"/><path d="m37.9 45.1c-1.1.7-3.7 2.6-7.5 1.8 0 0 3.7 2.7 7.9-.3 1.8-1.3 3.6 0 3.6 0s-1-3.2-4-1.5z" fill="#121b21"/><path d="m62.6 19.5c-13.2 11.8-29.9.7-29.9.7-6.4 3.6-8 12.4-8 12.4s3.2 1.7 6.1-2.1 7.5-4.1 12.7-3.1 10-.6 16-1.3 10 6 10 6c-.9-7.4-6.9-12.6-6.9-12.6z" fill="#ffedbf"/><path d="m29.1 56.9c-.9 0-1.7.6-1.7 1.5s.7 1.6 1.6 1.7c.9 0 1.7-.6 1.7-1.5s-.7-1.6-1.6-1.7z" fill="#fff9f0"/><path d="m64.3 38c-3.4-.2-3.4 3.9-3.4 3.9s.7-2.4 3.5-2.2 4.3 3.6 4.3 3.6-1-5.1-4.4-5.3z" fill="#cf904b"/><path d="m39.3 38.4c-3.9.5-4.7 5.6-4.7 5.6s1.5-3.5 4.7-3.9 4.2 1.9 4.2 1.9-.3-4.1-4.2-3.6z" fill="#cf904b"/><path d="m29.4 46.1c-3.2.2 1.9 6.2 3.8 7.4 2.6 1.7 11.6 1.5 14.2-.3 1.6-1.1 2.6-4.1.1-6.1-3-2.4-14.8-1.2-18.1-1zm16.9 6.8c-2.2 1.2-9.8 1.2-11.8.4-2.4-1-5.9-5.7-3.1-6 2.6-.3 11.7-1.7 15.4.7 1.4.9 2 3.5-.5 4.9z" fill="#f5f5f5"/><path d="m48 47.8c-.2.1-.3 1 .6 1.2.2.1 4.4-1.3 7.5.2.4.2 1.6-.1 1.1-.9-.9-1.4-7.3-1.7-9.2-.5z" fill="#f5f5f5"/><path d="m73.2 45.3c-3.1 0-13-.8-15.7 1.5-2.5 2.1-1.5 5.2 0 6.3 2.4 1.8 10 1.9 12.6.2 1.9-1.3 5.7-8.1 3.1-8zm-4.4 7.7c-2.1.9-8.2 1-10.2-.2-2.3-1.3-1.6-4-.1-5 3.8-2.6 10.9-1.4 13.4-1.3 1.8.1-.7 5.4-3.1 6.5z" fill="#f5f5f5"/><path d="m32.1 47.7c-1.7.7 1.3 1.8 1.9 2 2.2.5 6.2.5 8.6.2 1.3-.2 4-1.2 3.3-2.1-1-1.1-11.9-.8-13.8-.1z" fill="#fff" opacity=".3"/><path d="m41.3 47.7c-.9.1-1.5.3-1.3.8.4.9 5.8.7 6.1.1.4-.6-2.9-1.1-4.8-.9z" fill="#fff"/><path d="m34.5 51.6c-.6-.1-1 0-.9.5.2.8 3.6 1.6 4 1.1.2-.5-1.9-1.5-3.1-1.6z" fill="#fff" opacity=".7"/><path d="m59.4 47.7c-1.7.7 1.3 1.8 2 1.9 2.2.4 4.8.4 7.2-.1 1.3-.2 4-1.4 3.2-2.1-1.1-1.1-10.6-.5-12.4.3z" fill="#fff" opacity=".3"/><path d="m67.1 47.5c-.9.1-1.5.4-1.3.8.5.9 5.8.6 6.1-.1.4-.6-2.9-1-4.8-.7z" fill="#fff"/><path d="m60.3 51.5c-.6 0-1 .1-.9.5.2.8 3.7 1.5 4 1s-1.8-1.4-3.1-1.5z" fill="#fff" opacity=".7"/><g fill="#fff9f0"><path d="m57.3 76.3c-.4 0-.7.3-.7.6 0 .4.3.7.7.7s.7-.3.7-.6c0-.4-.3-.7-.7-.7z"/><path d="m43.6 76.7c-.4 0-.7.3-.7.6 0 .4.3.7.7.7s.7-.3.7-.6c0-.4-.3-.7-.7-.7z"/><path d="m45 77.9c-.5 0-.8.4-.8.8s.4.8.9.8.8-.4.8-.8c0-.5-.4-.8-.9-.8z"/><path d="m44.4 79.1c-.4 0-.8.4-.8.8s.4.8.9.8.8-.4.8-.8c-.1-.5-.4-.8-.9-.8z"/><path d="m46.9 79.9c-.5 0-.8.4-.8.9 0 .4.4.8.9.8s.8-.4.8-.8c-.1-.6-.5-.9-.9-.9z"/><path d="m49.3 80c-.5 0-.8.4-.8.8s.4.8.9.8.8-.4.8-.8c0-.5-.4-.9-.9-.8z"/><path d="m56.3 77.6c-.5 0-.8.4-.8.8s.4.8.9.8.8-.4.8-.9c-.1-.4-.5-.8-.9-.7z"/><path d="m51.8 79c-.5 0-.8.4-.8.8s.4.8.9.8.8-.4.8-.8c-.1-.5-.5-.8-.9-.8z"/></g><path d="m43.4 90.8s3.8-1 4.8-1c1.3 0 4.5.8 4.5.8s-3.4-1.5-4.6-1.5c-.8 0-4.7 1.7-4.7 1.7z" fill="#a09d98" opacity=".2"/><path d="m49.8 89.4 5.6 2.2s.8-7 .2-12.9z" fill="#fff"/><path d="m41 91.7 5.6-2.2-6.1-10.8c-.6 5.9.5 13 .5 13z" fill="#fff"/></g></svg>