<svg enable-background="new 0 0 96 96" viewBox="0 0 96 96" xmlns="http://www.w3.org/2000/svg" xmlns:xlink="http://www.w3.org/1999/xlink"><clipPath id="a"><circle cx="48" cy="48" r="48"/></clipPath><linearGradient id="b" gradientUnits="userSpaceOnUse" x1="48.9977" x2="48.9977" y1="74.9937" y2="82.1734"><stop offset="0" stop-color="#ee996d"/><stop offset=".01630819" stop-color="#ee9a6e"/><stop offset=".3731" stop-color="#f8b181"/><stop offset=".7088" stop-color="#fdbf8d"/><stop offset="1" stop-color="#ffc491"/></linearGradient><path clip-path="url(#a)" d="m0 0h96v96h-96z" fill="#fff"/><g clip-path="url(#a)"><path d="m41.1 82.1-2.1-4.1c-3.2 1.6-3.8 5-4.5 8.6-.6 3.1-1.2 6.5-3.5 9.4h5.4c1.5-2.9 2.1-5.9 2.6-8.5.6-3 1-4.9 2.1-5.4z" fill="#ffc38f"/><path d="m57.8 78-2.1 4.1c1.1.6 1.5 2.4 2.1 5.4.5 2.6 1.1 5.6 2.6 8.5h5.4c-2.2-2.9-2.9-6.3-3.5-9.4-.7-3.6-1.3-7-4.5-8.6z" fill="#ffc38f"/><path d="m58.9 91.5c1.4-7.2 0-11.8-1.3-14.7-5.7-3.2-15.1-2-18.9.6-.9 3-1.4 8.2-.1 13.6.5 2.2.8 3.7.8 5h18.9c0-1.1.2-2.5.6-4.5z" fill="#ebebeb"/><path d="m49.7 87.5 2.3-2.3s-.6-2-3.2-2.1c-3-.2-3.7 2-3.7 2l2.4 2.4-2.9 5.6 2.2 2.9h3.7l2.5-3z" fill="#3a3a4a"/><path d="m40.7 80.4c1.1 4.2 4.9 6.7 4.9 6.7l2.7-3.4 3.7 3.3c2.4-1.4 4.8-4.9 4.8-7.7 0-2-17.2-3.1-16.1 1.1z" opacity=".1"/><path d="m40.8 75.3c-3 4.7 4.6 10.6 4.6 10.6l3-2.7 3.4 2.8s7-4.4 4.5-10.2c-2.2-5.3-12.5-5.2-15.5-.5z" fill="#fbfbfb"/><path d="m46.6 69.8c-1.9.6-3.1 3-3.3 5.5-.2 3.2 3.2 7.4 5.5 7.5 1.8 0 9.2-5.8 4-11.5-1.5-1.8-4.4-2.1-6.2-1.5z" fill="url(#b)"/><path d="m76.7 42.9c3.6-1 7.7-8.8 1.6-8.4 1.6 2.5-2.3 3.6-3.5 1.8-.1-.2-.2-.3-.2-.5-.2-3.1-3.4-5.2-5.8-7.1-3.5-2.8-8.1-5.1-12.6-6.1-7.9-1.8-17.4-1.4-23.7 3.9-2.5 2.1-4.8 6.6-8.3 7.4-4.3 1-6.7 5.4-3.3 8.2-1.8 1.1-3.5-.2-3.8-1.9-3.7 2.6-5.1 7.6 0 9.9-6 3.1-4.5 9.5 1.9 12.3-3 2.8-1.5 7.6 1.6 9.5-.2-2 1.6-6.4 5-4.2 2.1 1.4 1 5.1-1.9 3.3-.8 3.4 4.9 5.5 6.6 2.7-.2 2.5 1.5 3.5 3.9 3.4 3.5-.2 4.7-2.6 7-3.3 2.9-.9 6.5-1 9.5-1 5.8-.1 10.7 5.6 16.5 3.1 2.2-1 3.3-2.4 3-4.5-1.6 1.1-5.7-.5-2.3-3.1 1.7-1.3 4.1-.1 5.8-1.1 2-1.2 1.2-5.4 1.3-5.5 1.4-.9 3.8-1 4 1.6 3-5.9.1-7.5-3-7.9 7-1.3 8.4-11.1.7-12.5z" fill="#3d1f12"/><path d="m70.8 59.5c-1.1 0-2 1-2 2.1s.9 2 2 1.9c1.1 0 2-1 2-2.1 0-1-.9-1.9-2-1.9z" fill="#de3e78"/><path d="m48.3 21.9c-11.7 1.1-20.8 11.1-20.1 26.9.8 15.9 12.2 28.5 24.6 27.1 10.3-1.1 19-14 17.1-31.4-1.8-15.5-9.9-23.7-21.6-22.6z" fill="#ffc38f"/><path d="m66.2 43.4c-1.3.3-2.7 1.4-3 2.1.7-.4 1.7-.4 2.5-.2.6.1 1.2.5 1.8.6 1.2.2 3.5.2 2.6-1.7-.5-1.1-2.4-1.1-3.9-.8z" fill="#139e9b" opacity=".5"/><path d="m25.2 46.3c-5.1 2.3-2.7 11.1 1.5 12.4 1.4.4 2.8.3 4.2 0 0-.1.1-.1.1-.2.6-1.3-.7-7.1-1.1-8.3-.9-2.9-2.2-5-4.7-3.9z" fill="#ffc38f"/><path d="m28.1 49.4c-1.4-.7-4.9.2-3.4 3.1 1-2.5 2.5-.7 2.1 1.1-.2 1.2-1.5 1.2-.3 2.8.7.9 2.1.7 2.8.2 2.4-1.3.5-6.3-1.2-7.2z" fill="#d94c18" opacity=".3"/><path d="m44 28.1c-3.2.6-6.3 1.6-8.9 3-4.2 2.1-4.4 4.3-6.5 8.3-1 2-3.5 4.1-1.1 6.2-2.4.9-2.9 5.1-1.4 6.9.4.5.9.9 1.6 1-.5 1-.8 2.4-.3 3.5.6 1.3 1.6 2.5 2.9 2.2 0 1 .5 2.9 1.2 3.8 1.7 2.1 4.6 2.9 6.5 1.3 1.8-1.6 1.6-3.8-.7-4.7-.2.7-1 1.4-1.7.9-.9-.7.3-2.9.3-3.8-.1-2.4-1.5-1.5-2.9-2.7.7-.7 1.7-1.5 1.7-2.6 0-1.5-1-1.7-1.9-2.4-1.5-1.3-1-1-.2-2.4 1-1.7 1.6-3.8-.4-5.1 1-.1 2-.5 2.1-1.6 1.7.9 3.7-.9 4.3-2.4-.2.5 1.9-.4 2-.5.7-.5 1.3-1.7 1.5-2.5.1 2.2 2.4 3.6 4.1 1.9 1.1 2.7 3.4 2.6 5.9 2 .9 3.1-1.7 1.8-2.6 3.3-1.5 2.6 3.8 3.7 5.2 3.2 1.6-.6 2.5-2.4 2.5-4.1.2 2 3.1 1.1 4.1.3.6 2.8 3.2 3.4 5.2 1.5.4 4.6 6.4 4.6 5.2-.8-3-12.6-16.2-15.9-27.7-13.7z" fill="#bf3c1b" opacity=".3"/><path d="m73 23c2.6-5.4-8-9.5-12-6.6-.6-6.7-9-7-13-2.3-1.5-2.4-4.8-3-5.3-3.1-2.3-.4-4.8.1-6.3 1.8 2.2 0 6 4.3-.7 3.7-2.8-.3-4.4-1.3-7.2.2-2.2 1.2-3.8 3.4-1.6 5.4 0 0-5-.3-5.7 4.2-.3 1.8.4 2.3-1.4 3.7-1.2.9-2.5 1.5-4.1 1 0 1.8 1.7 4.1 2.5 4.7 1.7 1.2 3.6 1.1 5.5.2-.2 1.1 3.2 10.8 4.7 9.8-2.4 1.7-3.5 5.1-1.1 6.7.4.2.8.4 1.4.6-3.7 1.4-.8 6.9 2.9 5.1-3.2 3.8 6.3 8.2 6.5 3.7.1-1.2-.8-2.6-2-2.8.6.1.9 2.9-.8 2.2-2.4-1 1.8-4.4-.4-5.8-1.1-.7-4.3.1-3.1-2 .8-1.4 2.7-2.2.5-4-.7-.5-1.8-.6-1.8-1.6-.1-1 1.1-1.4 1.6-2 1.5-2.2-.8-4.7-2.8-5.5 1.3-.1 4.8.5 4.4-1.8 2 1.7 4.9-.7 4.1-3 .4 1.1 2.2.7 2.9.3 1.2-.8 1.1-2.3 1.7-3.5.2 1.3.5 2.5 1.7 3.2s2.5.4 3.2-.8c.7 2.6 3.3 4.7 5.5 2.1.5 1 .8 2.4.1 3.4-1.1 1.5-2.5-.1-3.4.6-1.1.9.9 2.7 1.7 2.9 1.5.5 3.6-.3 4.5-1.6.7-1 .6-2.2.6-3.4 1.3 2 3.3 3.4 5.4 1.3 1.5 1.9 3 2.8 5.2.9 1 1.7.9 4.1 3.3 4.4 2.9.4 2.7-2.9 2.2-4.9-.7-2.4-1.5-7.2 1.3-9.3 1.7-1.3 4.3-.5 3.5 1.8 2.5-1.6 2.8-4 1.7-6.3-1.1-1.7-3.4-3.3-5.9-3.6z" fill="#3d1f12"/><path d="m28.6 60.2c-1 0-1.8.9-1.8 1.9s.8 1.8 1.9 1.8c1 0 1.8-.9 1.8-1.9s-.9-1.8-1.9-1.8z" fill="#de3e78"/><path d="m42.3 20.8c0-.1 0-.1 0 0z" fill="#78452f"/><path d="m71.8 36.1c-.1-1.4 0-2.2-.3-3.6-.4-1.9-1.5-2.4-3.2-2.3 2-3 5.9-3.5 8.3-1 .9-3.4-3.1-6.3-6.4-5.5.7-1.9 1.3-4.3-.7-5.9-2.1-1.6-5.3-1.8-7.5-.4-1.8 1.1-3.8 3.3-6.4 1.7 1.5 1 5.2-4.3.9-6.1-2.7-1.2-5 .4-6.9 2.2-.6.6-1.2 1.2-1.5 1.9-1.8-3.5-4.7-5.7-9.1-4.6 3.4.1 4.8 5.4 1.7 6.8-1.8.9-3.4-1-4.8-1.7-1.3-.6-3.4-.8-4.8-.5-1.4.4-3.1 1.7-3.7 2.9 2.4-.3 3.8 4.5 9.1 3-2.2 1.9-4.7 2-6.7 1.1-1.4-.6-3.1-1.2-4.7-.3-2.2 1.2-1.7 4.4-2.8 6.3-1 1.8-2 2-3.8 2.5 1.9 1.3 3 1.4 5.4 1.2-1.6.2-2.5 2.4-2.7 3.7-.2 1.6 1.2 2.9 1 4.4-.2 1.3-1.9 2.1-3.1 2.1.8.9 2 .9 3.1.5 1.4-.5 1.7-2.3 2.8-2.5 1.5-.3 3.1 2.2 3.1 3.4 2.3-1.1-.4-4.7-1.8-5.7 1.5 0 5.7-.2 5.4-2.3.2 1.3 2.9 0 3.3-.7.5-1 .3-2.5-.7-3.1.9.1 2.4.9 3.1.1.6-.7-.1-2.3-.5-2.9 6.9 2.7 4.9-4.5.7-4.4 3.2-.3 4.1-.7 4.4-5.7 0-.1 0-.1 0 0 .2 2.9-.5 5.8 4.3 5.3-7 2.5-4.2 8.2 2.8 6.5-1.1.2-1.1 2.3.5 3.4 1 .7 3.1.3 3.5-.2 1.2 1.9 1.6 3.6.1 5.3 1.7.1 2.3-2.4 2.6-3.6 1.3.8 2.4 1.9 4 1.3 1.2-.5 1.8-1.8 2.6-2.7 0 2.1.8 3.7 2.1 4 1.5.3 2.7-.2 3.8-1.4-.1 1.8.7 3.3 1.6 4.3.9.9 2.9 2 4.7.8-.8 0-1.4-.4-1.7-1 2.9-.3 5.2-1.9 5-4.9-1.8.9-5.9 1.4-6.1-1.7z" fill="#78452f"/><g fill="#3d1f12"><path d="m59.1 32c1.3 4.7 5.4 6 7.8 2.1-2.6 2.3-6.7.4-7.8-2.1z"/><path d="m27.9 37.3c2.8 2.4 6.2.1 4.8-3.4-.3 2.3-3.1 4.1-4.8 3.4z"/><path d="m67.1 35.8c-1.7 3.2 1.5 5.8 4.6 3.6-2.4.3-4.9-1.8-4.6-3.6z"/><path d="m63.2 28.3c2.1 2.5 4.9 3 8 1.8l-.1-2.2c-2 1-5 1.6-7.9.4z"/><path d="m64.7 22c2.1 2.5 4.1 2.3 6.1 1.6l.4-2.4c-1.5 1.2-4.4 2-6.5.8z"/><path d="m21 34 .7 2.1c3.4.1 5.8-1.3 6.8-4.4-2.4 2.1-5.3 2.6-7.5 2.3z"/></g><path d="m16.5 43.2-.1-1.4c-1.5 1.6-2.5 3.4-1.4 5.4.7 1.3 2.6 2.7 4.2 1.6.6-.4.8-1.6 1-2.3 0 0-.1-.1-.1-.1-2 .2-4.1-1.3-3.6-3.2z" fill="#78452f"/><path d="m18.6 50.8-1.2.7c-2.8.1-4.2 4.7-3 6.7.7 1.2 2.3 2.1 3.7 2.3-1-1.6-2-3.4-1.5-5.3.5-1.6 1.9-2.7 2-4.4z" fill="#78452f"/><path d="m78.8 45.3c-.7-.5-1.6-.9-2.5-1v.5c2.5 3.2 2 5.6.6 8.9 0 0 .1.1.1.1 3.5-1.5 5.1-6.2 1.8-8.5z" fill="#78452f"/><path d="m77 56.6-1.2-.3c-.5 2.7 2.9 2.1 3.3 4.1.7-1.7.4-4-2.1-3.8z" fill="#78452f"/><path d="m19.1 64c-1.4 1.4-1.2 4.4.3 5.8.1-.9.6-1.6.6-2.5 0-.8-.6-1.5-.5-2.4z" fill="#78452f"/><path d="m68.4 55c-.6-1.1-2.1-1.4-3.2-1.5-1.4-.1-3.4.3-2.4 2.5.6 1.2 6.2 2.4 5.8-.3 0-.3-.1-.5-.2-.7z" fill="#ff7752"/><path d="m42 54.5c-.9-1.2-2.6-1.2-3.8-1-1.6.2-3.7 1.2-2.2 3.5.8 1.2 7.2 1.3 6.3-1.7 0-.3-.2-.5-.3-.8z" fill="#ff7752"/><path d="m60.3 43.3c3.1.3 5.7-.6 10.4-.2-1.7-2.2-8.1-2.3-10.4.2z" fill="#3d1f12"/><path d="m53.3 56c-1.1 0-1.5-.4-2.2 0s.9 1.9 2.2 1.8c1.5-.1 2.7-1.4 2.3-1.8-.5-.6-1.1 0-2.3 0z" fill="#d94c18" opacity=".3"/><path d="m32.4 42.6c5.9.1 7.8.4 11.9.3-2.2-2.7-9.4-2.5-11.9-.3z" fill="#3d1f12"/><path d="m52.5 59.7c-4.2.1-10.4 1.3-13.7-.7 5.4 9.3 8.8 11 13.1 11.4 5.4.4 7.3-3.3 8.1-6.2.4-1.2 3.1-4.2 4.2-4.9-3.3.8-6.6.3-11.7.4z" fill="#f04d4d" opacity=".8"/><path d="m41.3 60.6s3.2 6.2 9.9 6.5c4.3.1 7.1-1.3 8-3.4.9-2.3 2.7-3.1 2.7-3.1-11.6 2.9-20.6 0-20.6 0z" fill="#b32f29"/><path d="m43.8 61.2s.2 1.9 2.6 2.6c3.1 1 6.3 1.1 9.8.6 2.3-.3 3.5-3.3 3.5-3.3s-6.7 1.6-15.9.1z" fill="#fff9f0"/><path d="m53 64.6c-3.1.1-5.6-.2-7.1-1.2-1.1-.7-1.2 0-1 .5 0 0 1 2.6 6 3.3 4.9.6 7.5-2.4 6.9-2.9-.5-.6-1.9.3-4.8.3z" fill="#fff9f0"/><path d="m43.8 61.2s.2.9.6 1.3c0 0 11.5-.8 14.2.2 0 0 .8-1 1-1.6 0 .1-8 1.5-15.8.1z" fill="#e8dac5"/><path d="m46.8 63.8c4.1 2.6 9 .5 9 .5-5.2 1.2-9-.5-9-.5z" fill="#e8dac5"/><path d="m39.3 45.6c-3.1-1.2-4.7 4.6-2.5 6.2.9-.4 2.1-.3 3 .1 1.9-1.2 1.8-5.4-.5-6.3z" fill="#1f1a17"/><path d="m39.7 47.5c-1.3.2-.8 2.8.5 2.2 1-.5.7-2.3-.5-2.2z" fill="#a87f7f"/><path d="m66.5 45.7c-3.1-2-5.8 5.3-2.4 6.3.8-.6 1.8-.6 2.7-.4 1.2-1.5 1.3-4.8-.3-5.9z" fill="#1f1a17"/><path d="m66.3 47.2c-1.2 0-1 2.8.3 2.3.9-.4.8-2.3-.3-2.3z" fill="#a87f7f"/><path d="m66.5 45.5c-2.8-1.1-3.8 2.3-3.8 2.3s1.4-1.7 3.3-.6c4.4 2.5 7.2-.5 7.2-.5-3.4 1.1-5.1-.6-6.7-1.2z" fill="#121b21"/><path d="m37.2 45.8c-1.1.6-3.8 2.3-7.3 1.3 0 0 3.3 2.9 7.6.3 1.9-1.2 3.4.3 3.4.3s-.7-3.4-3.7-1.9z" fill="#121b21"/><path d="m37.6 43.4c-1.6-.3-3.7-.3-4.3.9-1 1.9 1.5 1.9 2.8 1.6.7-.1 1.3-.6 1.9-.7.9-.1 1.9-.2 2.7.2-.2-.6-1.8-1.7-3.1-2z" fill="#139e9b" opacity=".5"/></g></svg>