<svg enable-background="new 0 0 96 96" viewBox="0 0 96 96" xmlns="http://www.w3.org/2000/svg" xmlns:xlink="http://www.w3.org/1999/xlink"><clipPath id="a"><circle cx="48" cy="48" r="48"/></clipPath><linearGradient id="b" gradientUnits="userSpaceOnUse" x1="47.7887" x2="47.7887" y1="76.163" y2="80.9718"><stop offset="0" stop-color="#e88958"/><stop offset=".3384" stop-color="#f49d62"/><stop offset=".6924" stop-color="#fcab69"/><stop offset="1" stop-color="#ffb06b"/></linearGradient><path clip-path="url(#a)" d="m0 0h96v96h-96z" fill="#fff"/><g clip-path="url(#a)"><path d="m42.8 84.3-2.3-4.6c-3.1 1.6-4.2 5.6-5.2 9.7-.6 2.2-1.1 4.5-2 6.6h5.5c.6-1.8 1.1-3.6 1.5-5.3.6-2.7 1.4-5.8 2.5-6.4z" fill="#ebebeb"/><path d="m56.2 79.7-2.3 4.6c1.1.5 1.9 3.7 2.6 6.4.4 1.7.9 3.5 1.5 5.3h5.5c-.9-2.1-1.5-4.4-2-6.6-1.1-4.1-2.1-8.1-5.3-9.7z" fill="#ebebeb"/><path d="m57 89.6c1.6-5.8 1.7-9.4-1.9-10.6-3.5-1.2-9.9-1.5-13.7.1-3.1 1.3-4 3.4-1.9 9.9.8 2.4 1.4 4.8 1.7 7h14.6c.1-1.7.5-3.8 1.2-6.4z" fill="#313142"/><path d="m52.3 73c.3-5.2-8.6-5.4-8.6.3 0 2.5.2 4.4-.3 5.2-1.8 2.8 4.9 6.8 4.9 6.8s5.2-4.2 3.9-6.5c-.7-1.4 0-3.5.1-5.8z" fill="url(#b)"/><path d="m52 85.8c-2.5.9-5.6.5-8.2-.1-1.5-.4-2.3 1.3-1.9 2.8.6 1.9 3.7 2.4 6.4 2.4 5.3-.1 7.3-2.1 6.4-4.4-.3-.8-1.4-1.2-2.7-.7z" fill="#fff" opacity=".1"/><path d="m78 38.5c-1.9-1.6-3-2.6-3.2-5.1-.2-2.6.3-5.5-.9-8-1.1-2.2-3.6-2.7-5.6-3.6-2.3-1.1-3.3-2.8-4.6-4.9-2.5-4-7.8-4.9-12-3-.4-2.2-3.2-3.1-6.2-3.2-3.1-.1-6.6 1.4-9.1 3.3-2.9 2.2-5 5.1-7.7 7.6-5.2 4.7-16.2 10-13.1 18.9 1.1 3.3 3.2 4.2 1.3 7.7-1.7 3.3-2.6 5.1.1 8.1 1.1 1.2 2.2 1.7 2.3 3.5 0 1.6-1.4 2.9-1.3 4.6.2 3.5 2.9 6 6.2 8.1 4.2 2.6 9.5 4.5 12.3 6.7 5 4 7.6-3 11.6-3.2 2.1-.1 3.1 1.9 5.8 4.1 4.3 3.4 10.4 7 13.8 1.7-1.4 0-2.7-.7-3.8-1.6 5.6.1 10.7-1.8 10.2-8.2-.2-2.5-1.1-3.4.7-5.4 1.7-1.9 5.4-2 5.5-5.2.2-2.9-3.4-3.6-4-5.9-.7-2.5 1.5-3.5 2.8-5.3 3.6-4.6 3-8.2-1.1-11.7z" fill="#261b18"/><path d="m45.4 23.4c-11.6 1.9-20 17.6-18.1 32.4 1.4 11 11.2 22.9 23.1 22.1 14.3-.9 21.5-16.9 20-29.9-1.6-14.9-8.8-27.4-25-24.6z" fill="#ffbc82"/><path d="m69.6 35.9c-.6-3.2-2.9-6.7-6.1-8.1-4.2-1.8-11.2-5.3-15.8-3.9-5.4 1.8-10.4 5.5-14.2 9.5-4.9 5.2-8.5 17.2-4.7 23.6.8-1.1.9-2.8 1.4-4.2 1.8-4.9 7.2-7.8 11-11.1 1.1 2.7 3.4 3.1 6 3.7-.5-1.7-.3-3.3.4-4.8.4-.8.9-1.6 1.4-2.3.6-.8 4.6-4.1 4-5.1 2 3.2 5.8 5.2 9.1 6.8 4.3 2 5.2 5.1 7.2 9.1-.4-.9.8-5 .8-6.3.1-2.2 0-4.7-.5-6.9z" fill="#bc551e" opacity=".3"/><path d="m72 34.3c-.6-2.8-4.6-5.7-6.2-8.2-2-3.1-4.4-5.9-7.7-7.7-5.7-3.1-12.7-2.9-19-1.9-7.4 1.1-13.2 7.5-16 14-3.2 7.3-3.7 14.3-2.5 24.6.6 5.3 1.3 12.2 4.3 16.8.9 1.4 3.3 2.9 2.4 4.9-1.3 2.6-3.7-.6-3.3-1.1-.1.1-.4.6-.5.8.1 1.6.4 2.9 1.5 4 3.6 3.7 8.2 1.3 9.9-2.9 2.3-5.6-2.8-8.5-4.3-13.6-1.6-5.5-1.9-10.5 1.5-15.4 3.2-4.6 5.6-8.2 10.9-10.8-1.5 3.3 1.4 8.7 5.5 7.1-3.4-1.2-2.4-4.2-.7-6.6.6-.8 6.1-6.6 5.2-7.5 2.2 2.2 4.6 4.3 7.2 5.9 2.5 1.6 5 2.1 6.8 4.7.9 1.3 1.6 2.8 2 4.3.3 1.1.1 3.1.7 4.1 1.7 2.6 5.2.1 5.6-2.1.5-3.1-1.5-4.7-2.8-7.2s-.1-4-.5-6.2z" fill="#261b18"/><path d="m66.5 23.8c-3.7-1.5-4.5-5.4-7.3-7.8-2.5-2-6.5-1.2-8.5 1.1-1.1-3.3-4.6-4-6.7-3.7-2.2.2-4.1 2-5.5 3.7-3 3.5-5.6 5.5-9.6 7.9-3.4 2-7.9 5.4-8.1 9.7-.1 1.7.9 6 2.5 6.9 1.8 1.1 4.1.4 5.9 0 5.3-1.4 12.4-5.8 17.4-12-.8 3.9-.8 7.2-.8 8.6 1-1.9 2.6-3.4 3.6-5.4.7-1.3.9-2.7 1.2-4.1.4-1.5 1.1-2.5 1.9-3.8 2 3.6 4.5 7.5 8.8 8.3 1.5.3 3 0 4.4.3s2.2 1 3.3 1.7c2.9 1.6 3.3-2.8 3.5-5 .4-4.9-2.5-5-6-6.4z" fill="#57443a"/><path d="m24.1 60.6c-.7 0-1.2.2-1.6.5-1.6 1.3-2.7 8.6 5.7 8.1-.6-.9-1.2-2-1.2-3.1-.1-1.6-.2-5.5-2.9-5.5z" fill="#57443a"/><path d="m73.3 39.5c-.4.1-.9.4-1.4.9-1.7 2 1.2 4.6 2.4 5.8.8.7 1.3 1.9 1.6 2.9 5.7-6.3-.6-10.1-2.6-9.6z" fill="#57443a"/><path d="m67.9 71.8c-.2 1.9 1.1 3.4-.1 5.3 2.2-.3 5-2.7 4.4-5.4-.8-3.3-4.1-1.7-4.3.1z" fill="#57443a"/><path d="m21 50.5c-1.5 2.4.5 5.6 2.5 6.5-.5-2.3 1.1-3.3 1.5-5.1.4-1.9-2.3-4.3-4-1.4z" fill="#57443a"/><path d="m73.6 59.1c-.9 1.6-.4 3.5-2.3 4.8 2.1.7 5.7-.4 6.2-3.2.6-3.3-3-3.2-3.9-1.6z" fill="#57443a"/><path d="m64.8 51.5c-1.7-.3-4 0-2.9 2.6.6 1.4 7.2 3.4 6.9.3 0-.3-.1-.6-.2-.9-.8-1.2-2.5-1.8-3.8-2z" fill="#ffc48f"/><path d="m42.3 52.4c-1.3-1-3.2-.6-4.5-.2-1.7.5-3.8 1.9-1.5 3.8 1.2 1 8.3-.2 6.6-2.9-.2-.3-.4-.5-.6-.7z" fill="#ffc48f"/><path d="m52.5 54.1c-1.4-.1-1.4-.9-2.4-.3s-.3 2.8 2.2 2.9 3.7-1.7 3.2-2.5c-.6-.8-1.5 0-3-.1z" fill="#b54319" opacity=".5"/><path d="m52.1 50c-1.2 0-2.9 3.9-2.3 4.5 1.4 1.5 4.6.8 5.5-.2.4-.4-1.9-4.3-3.2-4.3z" fill="#ffc48f"/><path d="m66.3 45.5c-3.9-1.7-7.4 3.1-4.6 5.7.6-.6 3.6-1.6 5.5-.2 1.5-1.2 1.1-4.6-.9-5.5z" fill="#425361"/><path d="m66.7 48.2c-1.1.3-.6 2.4.5 1.7.8-.5.4-2-.5-1.7z" fill="#c3d5e3"/><path d="m63 46.1c-1.8.6-1 4.1.9 2.8 1.4-.9.8-3.3-.9-2.8z" fill="#c3d5e3"/><path d="m37.3 45.8c-2.1 1-2.3 4.4-.7 5.5 1.8-1.5 4.9-.6 5.5 0 2.7-2.6-.9-7.3-4.8-5.5z" fill="#425361"/><path d="m37 48.5c-1-.3-1.3 1.2-.5 1.7 1.1.7 1.5-1.4.5-1.7z" fill="#c3d5e3"/><path d="m40.6 46.3c-1.6-.5-2.2 2-.8 2.9 1.8 1.1 2.6-2.4.8-2.9z" fill="#c3d5e3"/><path d="m43.5 40.5c-1.9-.2-3.7-.4-5.7-.1-1.2.2-2.7.6-3.7 1.3-.3.2-.8.6-.8 1 .3.1.6-.1.9-.2 1.5-.3 3-.2 4.5-.1 1.2.1 2.3.2 3.5.3.8 0 1.8.3 2.3-.5.6-1 0-1.6-1-1.7z" fill="#261b18"/><path d="m68.8 41.3c-1-.6-2.4-1-3.6-1.2-1.9-.2-3.7-.1-5.5.2-1 .1-1.6.7-1 1.6.5.7 1.5.5 2.2.4 1.1-.1 2.3-.2 3.4-.3 1.5-.1 2.9-.2 4.4.1.3.1.5.2.8.1 0-.3-.4-.7-.7-.9z" fill="#261b18"/><path d="m65.5 44.8c-3.6-.7-4.6 2.9-4.6 2.9s1.7-2.2 4.1-1.2c5.2 2.2 8-1.5 8-1.5-3.8 1.7-5.7.2-7.5-.2z" fill="#121b21"/><path d="m38.2 45.2c-1.8.4-3.7 2-7.5.2 0 0 2.8 3.7 8.1 1.4 2.3-1 4.1 1.2 4.1 1.2s-1.1-3.5-4.7-2.8z" fill="#121b21"/><path d="m37.2 59.2c6.1 9 9.8 10.6 14.5 10.9 5.9.3 7.8-3.5 8.7-6.3.4-1.2 3.3-4.3 4.4-5-3.6.9-7.2.5-12.7.7-4.6.2-11.3 1.6-14.9-.3z" fill="#ff3b3b"/><path d="m40 60.8s3.7 6.1 11 6.1c4.7 0 7.7-1.5 8.6-3.5.9-2.3 2.9-3.1 2.9-3.1-12.7 3-22.5.5-22.5.5z" fill="#a80a0a"/><path d="m42.7 61.3s.2 1.8 2.8 2.5c3.3.9 6.9.9 10.6.3 2.5-.4 3.7-3.3 3.7-3.3s-7.1 1.7-17.1.5z" fill="#fff9f0"/><path d="m52.8 64.4c-3.3.2-6.1 0-7.8-1-1.2-.7-1.3.1-1 .6 0 0 1.1 2.5 6.6 3 5.3.5 8-2.6 7.4-3.1s-2.1.3-5.2.5z" fill="#fff9f0"/><path d="m42.7 61.3s.2.9.7 1.3c0 0 12.4-1.2 15.4-.2 0 0 .9-1 1-1.6 0 0-8.6 1.6-17.1.5z" fill="#e8dac5"/><path d="m46 63.7c4.5 2.5 9.8.3 9.8.3-5.6 1.3-9.8-.3-9.8-.3z" fill="#e8dac5"/><path d="m67.5 42.1c-2.1.1-4.2.4-6.2 1-1.7.5-3.8.7-5.4 1.5-1.5.8-2.1 1.3-3.9 1.2-3.2-.1-5.9-2.1-9-2.4-3.3-.3-6.7-.7-9.9.2-.8.2-3.4 1.2-1.7 2.1s4.2.6 6.1.7c.9 0 1.7 0 2.6.1 3 .3 7.7-.1 7.4 3.6-.2 2.6-1.8 5.3-3.9 5.8-2 .5-4.2.7-6.2.7-1.6 0-3.1-.3-4.5-1-.4-.2-1.6-1-2-.4-.7.9 1.8 2.5 2.4 2.8 1.5.7 3 .9 4.6 1 3.9.4 8 .2 10.2-3.4 1.3-2.1 1.9-4.6 3.1-6.8 2-3.5 2.9 1.3 3.5 3.4.3 1.2.9 2.3 1.6 3.3 1.3 1.8 3.8 2.7 5.9 2.8 1.3.1 2.6 0 3.8-.5.7-.3 1-1.2.1-1.5-.5-.2-1.4-.1-1.9-.1-.8 0-1.6 0-2.4-.2-1-.2-2.1-.6-2.9-1.3-.6-.4-1.1-1-1.5-1.6-.8-1.3-.8-3-.3-4.5.7-2 2.9-2.2 4.7-2.3 2.2-.2 4.4-.2 6.6-.4 1-.1 1.9 0 2.9.1 1.3 0 4-.4 2.5-2.2-1.4-1.8-4.2-1.8-6.3-1.7z" fill="#b54d26" opacity=".3"/><path d="m30 42.1c-2.6.1-4.8-.6-5.4-.1-.8.7.6 3 .6 3s.8.6 2 .7c.2 1.8.1 6.5 3.4 9.5 2.8 2.5 11.8 3.2 14.6 1.7 3.5-1.8 5-5 5.6-8.3 1.5-7.9-17.1-6.6-20.8-6.5zm15.4 12.7c-3.4 2.2-12.2 1.2-14.5-1.6-1.8-2.2-2.1-6.8-1-7.4 3.3-2 15.7-1.3 18.5.9 1.4 1-.4 6.4-3 8.1z" fill="#3a3a4a"/><path d="m72.6 41.3c-3.3 0-20.2-.5-18.5 7.3.7 3.2 2.1 6.4 5.3 8 2.6 1.3 10.7.3 13.1-2.3 2.9-3.1 2.6-7.8 2.7-9.6 1.1-.1 1.8-.8 1.8-.8s1.2-2.4.4-3c-.5-.4-2.4.4-4.8.4zm-.4 11c-2 2.9-9.9 4.3-13 2.2-2.4-1.6-4.2-6.9-3-8 2.5-2.3 13.6-3.5 16.7-1.6.9.6.8 5.2-.7 7.4z" fill="#3a3a4a"/><g fill="#fff"><path d="m58.3 45.8c-1.8.8 1.5 1.8 2.2 1.9 2.5.4 5.3.2 7.9-.3 1.4-.3 4.4-1.6 3.5-2.3-1.1-1.2-11.6-.2-13.6.7z" opacity=".3"/><path d="m66.5 45.3c-1 .2-1.6.5-1.4.9.5.9 6.4.4 6.8-.3s-3.3-.9-5.4-.6z"/><path d="m60.2 52.7c-.6 0-1.1.1-1 .5.2.8 3.8 1.3 4.2.8s-1.9-1.3-3.2-1.3z" opacity=".7"/><path d="m32.9 52.5c-.7-.1-1.1 0-1.1.4.1.8 3.9 1.7 4.3 1.3s-1.8-1.5-3.2-1.7z" opacity=".7"/><path d="m47 46.2c-2.3-.8-13.8-1.7-15-.6-.8.7 2.6 1.9 4.1 2.2 3 .5 6 .6 8.7.2.8-.1 4.4-1 2.2-1.8z" opacity=".3"/><path d="m42 45.5c-1.1 0-1.8.3-1.6.7.5.9 6.6 1.1 7.1.5.6-.5-3.2-1.2-5.5-1.2z"/></g><path d="m56.2 43.9c-2.4 1.1-4.8 1.3-8.1.1-2.5-.9 1.3 1.6 1.6 3 .3 1.3-.1 5.4.7 3 .9-2.4 2.6-2.6 3.8-.4 1.1 2.2 1-3.7 1.5-4.2.5-.7 2.9-2.7.5-1.5z" fill="#3a3a4a"/><path d="m31.2 42.9c7 .3 12.6.5 16.9 2.2-2.8-2.3-7.5-2.8-16.9-2.2z" fill="#c1c5c9"/><path d="m72 41.9c-8.6.3-12.6.4-14.9 2.6 3.8-1.8 8.6-1.7 14.9-2.6z" fill="#c1c5c9"/></g></svg>