<svg enable-background="new 0 0 96 96" viewBox="0 0 96 96" xmlns="http://www.w3.org/2000/svg" xmlns:xlink="http://www.w3.org/1999/xlink"><clipPath id="a"><circle cx="48" cy="48" r="48"/></clipPath><path clip-path="url(#a)" d="m0 0h96v96h-96z" fill="#3e72a4"/><g clip-path="url(#a)"><path d="m35.6 78s-4.3 2-6.3 3.1c-3.2 1.7-4.7 2.5-4.7 6 0 3.2-.2 6.2-.5 8.9h11.3c.8-4.4 1.3-7.9 1.3-7.9z" fill="#1e1e29"/><path d="m66.5 81.1c-2-1.1-6.3-3.1-6.3-3.1l-1.1 10.1s.5 3.5 1.3 7.9h11.3c-.3-2.7-.5-5.7-.5-8.9 0-3.4-1.5-4.3-4.7-6z" fill="#1e1e29"/><path d="m58.8 79c-2.7-6.7-17.3-4.7-21.1-1.5-3.9 3.2-4.9 7.1.9 12.8 3.3 3.3 6.1 4.9 7.9 5.7h2.7c2.5-2.7 11.5-12.3 9.6-17z" fill="#379bdb"/><path d="m49.8 86.6 1.3-2.7s-1-2.2-3.8-1.7c-2.5.5-2.9 2.7-2.9 2.7l2.1 2.1-2.3 7.7.6 1.3h7.3l.6-1.6z" fill="#313142"/><path d="m65.9 81.5c-1-1-6.6-4.2-8.3-5 .2.4.8 1.3.8 1.8-.8 8.5-9.8 17.4-9.8 17.4s-13.3-11.7-11-17.5c.2-.5.4-.9.7-1.3-3.1 1.3-8.7 4-9.2 5-.4.9 2.9 7.6 4 14.1v.1h29.2c.7-4.8 4.2-13.9 3.6-14.6z" fill="#1e1e29"/><path d="m61.3 89c-.1-.7-2.5-4.1-2.5-4.1l4.5-2.5c-2.1-4-6.2-6.5-6.2-6.5 1.1 10.5-7.9 18.7-8.3 19.5-.1.2-.1.5-.1.7h1.1c1-.8 2.7-2.2 4.7-3.4 3.1-2 6.9-3.3 6.8-3.7z" fill="#313142"/><path d="m48.6 95.2c-.4-.7-10.1-7.1-10.1-18.5 0 0-4.5 2.1-6.2 6.5l5.3 2s-2.3 4.4-2.4 5.1c0 .4 4 .3 9 2.9 1.7.9 3.1 2.1 3.8 2.8h.8c-.1-.2-.1-.5-.2-.8z" fill="#313142"/><path d="m52.7 78.5c-3-1.6-15.2-2-13.8 2.4s4.9 6.5 4.9 6.5l4.1-3.9 4.3 3.7c4.1-3.7 5.3-7.3 5.3-7.3s-1.8.2-4.8-1.4z" opacity=".1"/><path d="m38.2 76.9c-2 5.2 5.3 9.4 5.3 9.4l4.4-2.7 4.1 2.6s8.1-4.2 5-10.2c-2.7-5.6-16.4-5.1-18.8.9z" fill="#43acf0"/><path d="m44.7 69.7c-2.6.6-4.3 3.1-4.5 5.6-.1 2 .2 3.1 1.3 4.2.8.8 2.1 1.6 3.4 2 1 .3 2.6 1.4 2.9 1.4.1 0 .7-.5 1.6-1 1.3-.7 3.2-1.6 3.9-3 1.1-2.1 2-6.3 0-7.9s-6.1-1.9-8.6-1.3z" fill="#ed9d6c"/><path d="m42.7 12.7c-30.9 2.1-26.3 45.1-17.4 43.4 6.5-1.3 12.9-3.1 19.4-4.6 6-1.4 12.7-.2 18.8.3 4.8.4 4.7-1.7 5-5.6.5-7.3-.2-10 .1-12.9 1.7-12.5-8.2-21.8-25.9-20.6z" fill="#4f2c1e"/><path d="m43.7 21.9c-11.4 2.1-19.6 18.3-17.7 33.7 1.4 11.5 10.1 24.3 23.4 23.5 13.6-.8 20.6-17.6 19-31.8-1.7-15.4-8.8-28.3-24.7-25.4z" fill="#ffb97f"/><path d="m22.2 49.2c-5.6 1.5-3.5 9.7 1.1 11.4 1.5.5 3 .6 4.5.5 0 0 .1-.1.1-.1.7-1.1-.4-6.5-.8-7.6-.9-2.9-2.3-4.9-4.9-4.2z" fill="#ffb97f"/><path d="m63.5 26.4c-6.2-2.6-12.1-4-18.9-4.2-4.6-.2-11.3-.6-15 2.7-2.9 2.6-3.2 7.6-3.4 11.3-.1 1.4-.2 12.1.6 9.8 1.5-4.2 4.9-5.7 4.9-10.1 6.5 3 16.3 2.9 24.9 2.1 5.4-.5 9.7-1.8 10.7 2.7.8-3.9.4-12.6-3.8-14.3z" fill="#bf3c1b" opacity=".3"/><path d="m24.1 52.2c-1.2-.6-4.4.4-2.9 2.9.8-2.3 2.2-.8 1.9.9-.2 1.1-1.3 1.1-.2 2.5.6.8 1.9.5 2.5.1 2-1.3.2-5.7-1.3-6.4z" fill="#a82807" opacity=".4"/><path d="m74.3 16c-7.3 5.8-19-7.2-35.5-2.4-22.6 6.6-14.4 30.7-14.3 33.6.1 2.5 1.5 5.6 2.2 6.6.6.3 2 .3 3 .1-2-1.9-2.8-7.1-1.1-11.9.9-2.7 2.3-4.6 2-8.2 2 1.8 16.1 4.6 33.9 1.1 5.8-1.2 9.2-4.6 11-7.4-1.5 0-2.6.2-4.3.5 2.7-2.8 3.1-8.1 3.1-12z" fill="#4f2c1e"/><path d="m55.7 15.3c-8.1-2.3-20.4-2.7-26.8 3.9s-1 12.4 20.6 12.3c19.7-.1 23.9-14 23.9-14-5.9 2.7-9.6.1-17.7-2.2z" fill="#693a27"/><path d="m34.2 49.8c.1.9 2.1.5 2.8.6-.5.6-2.2.6-2.8.9-.7.4-.6.7.2.7.5 0 3.3-.7 3.7-1 1.5-1.2-3.2-1.4-3.9-1.2z" fill="#a82807" opacity=".4"/><path d="m66.3 50.8c-.5-.4-1.9-.4-2.3-1 .5-.1 2.2.4 2.4-.5-.6-.2-4.5-.2-3.4 1.2.3.3 2.6 1 3 1.1.8-.1.9-.3.3-.8z" fill="#a82807" opacity=".4"/><path d="m39.8 45.9c-2.9-1.3-4.8 3.9-2.8 5.6.9-.3 2-.1 2.9.3 2-1 2.1-4.9-.1-5.9z" fill="#121b21"/><path d="m51.6 54.6c-1.5 0-2.1-.5-3.1 0s.4 2.7 3 2.6 3.8-2.1 3.2-2.7c-.6-.7-1.4.1-3.1.1z" fill="#a82807" opacity=".4"/><path d="m50.8 46.3c-1.3.1-1.5 3.5-2 5.2s-.8 3.2-.1 3.7c1.7 1.2 5.1.5 6.1-.4.4-.4-.5-2-1.3-3.7-.6-1.6-1.3-4.9-2.7-4.8z" fill="#ffcb9e"/><path d="m63.3 46c-3-1.6-5.4 4.7-2.1 5.5.7-.5 1.7-.8 2.5-.7 1.2-1.3 1.2-3.9-.4-4.8z" fill="#121b21"/><path d="m39 46.7c-1.2.4-.3 2.7.9 1.9.8-.7.1-2.3-.9-1.9z" fill="#7d8ba8"/><path d="m62.6 46.8c-1.1.3-.5 2.5.7 1.8.7-.5.3-2-.7-1.8z" fill="#7d8ba8"/><path d="m61.6 39.9c-2.2-.3-3.7-.7-3.8-.6-.1 1.2.1 3.8 1.7 3.8 1 0 2-.1 3-.1 1.7.2 3 .7 3.6 1 .7.3 1-.7.8-1.1-.9-1.1-2.2-2.6-5.3-3z" fill="#4f3023"/><path d="m38.5 40c-3.3.7-4.5 2.3-5.3 3.6-.2.4.2 1.4 1 1 .6-.3 1.9-1 3.7-1.3 1-.2 2.2-.1 3.3-.2 1.8-.2 1.7-2.8 1.4-4-.1-.1-1.7.4-4.1.9z" fill="#4f3023"/><path d="m66.5 54c-1-1.2-3-1.2-4.3-1-1.8.2-4 1.1-2.2 3.5 1 1.2 8.2 1.4 7-1.6-.1-.4-.3-.7-.5-.9z" fill="#ffcb9e"/><path d="m40.3 53.8c-1.1-1.2-3.1-1.2-4.6-.9-1.8.3-4.2 1.3-2.1 3.7 1.1 1.3 8.6 1.2 7.2-1.9-.1-.4-.3-.6-.5-.9z" fill="#ffcb9e"/><path d="m54.8 61.8c-2.2-.6-5.1-1-8.5-.2-2.5.6-5.2 1.7-8.1 3.8-.5.3-.6.9-.2 1.3.3.4 1 .5 1.5.1 11.7-8.4 20.1-.4 20.4-.1.4.4 1 .4 1.5 0 .4-.4.5-1 .1-1.3-.2-.1-2.6-2.5-6.7-3.6z" fill="#94110c" opacity=".5"/><path d="m65.7 53.1c-2.4-.1-4.7.2-7.1-.3-3.1-.6-3.6-5.7-.6-6.7 3-.9 6.2 1.1 9.2 0 1.1-.4 1.2-.9 1-1.3-.6-1-3.3-1.9-4.1-2-2.7-.3-5.5.1-8.2.1-8.6 0-17.4-.9-26.2.9-3.3.7-.3 3.6 1.6 3.8 2.1.2 4.2-.6 6.3-.6 2.3-.1 8.1-1 7.8 2.7-.2 2.3-1.5 3.5-3.7 3.9-2.1.4-4.3.4-6.3.4-.9 0-7-1.2-6.2 1 .4 1.1 3.4 1.3 4.4 1.5 2.1.3 4.2-.1 6.3-.2 2.7-.2 4.9-.4 6.5-2.8 1.3-1.9 2-4.1 3.2-6 2-3.1 3.8 1.3 4.5 3.2.6 1.6 1.5 3.2 2.9 4.2 1.3 1 2.7.9 4.3 1.1 1.9.2 4.9.9 6.4-.7 1.9-2-.1-2.2-2-2.2z" opacity=".1"/><path d="m74.6 43.4c-1.2-1.5-47.8-1.5-49.3.1 0 0-.1.1-.1.1 0 .3.2 2.2.2 2.2s.4.5 1.5.4c.3 1.7 1.1 5.6 3.2 7.4 2.7 2.3 11.9 1.5 14.6.3 3.3-1.4 2.7-8.3 6.4-8.4 2.7 0 2.7 6 5.2 7.5 2.6 1.5 12.7 2.2 14.9 0 1.5-1.6 1.4-5 1.7-7.3.5 0 1.4-.2 1.8-.7.1-.3.1-1.5.1-1.8-.1.3-.2.2-.2.2zm-30.1 9.1c-2.4 1.6-11.9 1.6-13.7.4s-2.6-6.1-1.6-6.6c1.1-.6 15.5-1.6 17.1-.8 1.5.7-.2 5.9-1.8 7zm25.1.1c-1.7 1.1-10.8 1-13.1-.6-1.5-1-3.1-5.9-1.7-6.6 1.5-.7 15.3.4 16.3 1 1.1.6.2 5.1-1.5 6.2z" fill="#3a3a4a"/><path d="m56.3 45.5c-2.1.6 1.4 2.1 2.1 2.3 2.6.7 5.6.9 8.5.8 1.5-.1 4.9-1 4.1-1.9-1.1-1.4-12.4-1.9-14.7-1.2z" fill="#fff" opacity=".3"/><path d="m31 43.6 39.1.1c-17.9-1.9-39.1-.1-39.1-.1z" fill="#c1c5c9"/><g fill="#fff"><path d="m65.2 46.1c-1.1 0-1.8.2-1.6.8.5 1 6.8 1.3 7.3.6s-3.4-1.4-5.7-1.4z"/><path d="m57.6 50.9c-.7 0-1.1.1-1 .5.2.8 4.1 1.4 4.5.9.3-.5-2-1.3-3.5-1.4z" opacity=".7"/><path d="m32.1 51.6c-.7 0-1.1.1-1 .5.2.8 4.1 1.4 4.5.9.3-.4-2.1-1.3-3.5-1.4z" opacity=".7"/><path d="m45.3 45.8c-2.4-.7-14.3-.5-15.4.7-.8.9 2.8 1.8 4.4 1.9 3.1.2 6.2.1 8.9-.5.8-.2 4.3-1.5 2.1-2.1z" opacity=".3"/><path d="m40.2 45.5c-1.1.1-1.8.4-1.5.9.6 1 6.9.6 7.3-.1.4-.6-3.5-1.1-5.8-.8z"/></g></g></svg>