<svg enable-background="new 0 0 96 96" viewBox="0 0 96 96" xmlns="http://www.w3.org/2000/svg" xmlns:xlink="http://www.w3.org/1999/xlink"><clipPath id="a"><circle cx="48" cy="48" r="48"/></clipPath><linearGradient id="b" gradientUnits="userSpaceOnUse" x1="47.7438" x2="47.7438" y1="73.5695" y2="78.342"><stop offset="0" stop-color="#ee996d"/><stop offset=".01630819" stop-color="#ee9a6e"/><stop offset=".3731" stop-color="#f8b181"/><stop offset=".7088" stop-color="#fdbf8d"/><stop offset="1" stop-color="#ffc491"/></linearGradient><path clip-path="url(#a)" d="m0 0h96v96h-96z" fill="#3e72a4"/><g clip-path="url(#a)"><path d="m68.9 72.4c-3.5 4.3 0 5.6 3.4 7.8 1.7 1.1 3.7 3.1 5.1.2.8-1.6.8-2.9 1.4-4.6.5-1.4 1.1-3.3 2-4.5 2.4-3.2-1-12.3-11.9 1.1z" fill="#ffc38f"/><path d="m67.8 52.2c-.5-.5-1.4-.5-2 .1l-8.1 8.1c-.6.6-.6 1.5-.1 2l14.4 14.4c.5.5 1.4.5 2-.1l8.1-8.1c.6-.6.6-1.5.1-2z" fill="#23232d"/><path d="m67.3 51.7c-.5-.5-1.4-.5-1.9.1l-7.9 8c-.5.6-.6 1.4-.1 1.9l13.8 13.8c.5.5 1.4.5 1.9-.1l7.9-8c.5-.5.6-1.4.1-1.9z" fill="#141418"/><path d="m67.3 51.7c-.5-.5-1.4-.5-1.9.1l-7.9 8c-.5.6-.6 1.4-.1 1.9l13.8 13.8c.5.5 1.4.5 1.9-.1l7.9-8c.5-.5.6-1.4.1-1.9z" fill="#3a3a4a"/><path d="m67.4 54.6c-.4-.4-1.1-.4-1.5 0l-5.8 5.8c-.4.4-.4 1.1 0 1.5l10.6 10.6c.4.4 1.1.4 1.5 0l5.8-5.8c.4-.4.4-1.1 0-1.5z" fill="#fff"/><path d="m65.4 51.8-7.9 8c-.5.6-.6 1.4-.1 1.9l9.9 9.9c1.6-4.5 5.8-12.8 6.3-13.6l-6.3-6.3c-.5-.5-1.4-.4-1.9.1z" fill="#fff" opacity=".5"/><path d="m66 70.8c-.2.7.9 2 1.2 2.6.5 1-.3 2.9.9 3.6 1 .6 1.8-.1 2.1-.9.7-1.5 0-3.4-1.4-4.8-.6-.7-2.4-1.6-2.8-.5z" fill="#ffc38f"/><path d="m56.2 79.3c-.7-.5-1.3 3.8-.8 5.6 2 6.8 19 11 22.1-3.6l-6.3-1.6c-2.3 13.4-12.9 1.1-15-.4z" fill="#e8e8e8"/><path d="m74.9 81.9c-.4.2-.6.6-.4 1s.6.6 1 .4.6-.6.4-1-.6-.6-1-.4z" fill="#fff"/><path d="m41.3 83.9-2.2-4.4c-3 1.5-3.8 5-4.6 8.8-.3 1.2-1.1 4.7-1.9 7.7h5.1c.7-2.7 1.3-5.7 1.6-6.7.5-2.4 1-4.9 2-5.4z" fill="#e8e8e8"/><path d="m56.3 79.3c-3.6-3.6-12.9-3.3-16.8-.3-4.2 3.3.1 11.2.8 16.9h15.1c.1-7.7 4.9-12.5.9-16.6z" fill="#e8e8e8"/><path d="m56.6 89.1c-1.3-2.8-1-7.5-.3-9.8-3.6-3.6-13.3-3.3-17.4.1.6 2 .9 6-.4 9.1.7 2.8 1.4 5.2 1.6 7.5h15.5c-.1-2.8.4-4.8 1-6.9z" fill="#313142"/><path d="m52.2 76.3c-2.6-1.1-7.2-1-9.6.1-4.6 2.3.3 9.6.3 9.6l5-1.3 5 1.1c.1 0 3.9-7.5-.7-9.5z" fill="#f5f5f5"/><path d="m52.3 77c-.8-.7-.6-2.7-.5-5 .3-5.3-8.8-5.5-8.8.3 0 2.6.1 4.2-.6 4.9-1.3 1.4-1.2 3.8 5.5 6.9 3.6-1.9 8.3-3.9 4.4-7.1z" fill="url(#b)"/><path d="m42.1 77.2c-.4 0-.8.4-.7.8 0 .4.4.8.8.8s.8-.4.7-.8c0-.4-.3-.8-.8-.8z" fill="#fff9f0"/><path d="m43.9 78.4c-.4 0-.8.4-.7.8 0 .4.4.8.8.8s.8-.4.7-.8c0-.4-.4-.8-.8-.8z" fill="#fff9f0"/><path d="m46.2 79.3c-.4 0-.8.4-.7.8 0 .4.4.8.8.8s.8-.4.7-.8c0-.5-.4-.9-.8-.8z" fill="#fff9f0"/><path d="m48.5 79.4c-.4 0-.8.4-.7.8 0 .4.4.8.8.8s.8-.4.7-.8c0-.5-.4-.8-.8-.8z" fill="#fff9f0"/><path d="m52.7 77.2c-.4 0-.8.4-.7.8 0 .4.4.8.8.8s.8-.4.7-.8c0-.5-.4-.9-.8-.8z" fill="#fff9f0"/><path d="m50.8 78.5c-.4 0-.8.4-.7.8 0 .4.4.8.8.8s.8-.4.7-.8c0-.4-.3-.8-.8-.8z" fill="#fff9f0"/><path d="m51.7 86.8c-2.8 1-6.1.6-9-.1-1.6-.4-2.6 1.5-2.1 3.2.7 2.2 4.1 2.8 7 2.7 5.8-.1 8-2.4 7-5.1-.2-.7-1.4-1.2-2.9-.7z" fill="#fff" opacity=".07"/><path d="m53 11.9c-1-2.7-1.2-3.7-.7-5.5-2.1.9-4 3.1-4.3 4.8-1.7-2.7-5.7-5-9.1-4.8 1.6 1.5 2.9 3.6 3.4 5.4-2.2.3-3.8.4-6 .7-11.5 1.5-18.2 8.5-21.2 19-1.4 4.9-.8 11.8-.1 16.8.4 2.6 2.9 9.1.1 11-1.7 1.2-4-.1-3.6-2.1-2.7 1.6-3.1 5.5-.8 7.5 2.4 2.1 6.7 2.3 9.5 1.3-.8 3.5.6 8.8 2.9 11.4.4-1.5 1.3-3.2 2.5-4.1-.7.6 2.4 2.2 2.8 2.3 1.3.3 2.6-.3 3.8-.7 3.3-1.1 5.8-3 9.3-3.7 8.1-1.7 19.3 5.4 23.7 3.2-.9-7.6 4.9-16.5 11.4-34.2.1.1 2.7 4.4 2.7 4.6 1.5-7.4 1.9-31.6-26.3-32.9z" fill="#c93712"/><path d="m68.5 57.2c-1.1 0-2 .9-2 2.1 0 1.1.9 2 2 2s2-.9 2-2.1c.1-1.2-.9-2.1-2-2z" fill="#ff9819"/><path d="m43.2 18.5c-11.4 2.4-19.2 18.9-16.9 34.3 1.7 11.5 10.8 24.1 24.1 23 13.6-1.2 20.2-18.3 18.2-32.5-2.1-15.4-9.5-28.2-25.4-24.8z" fill="#ffc38f"/><path d="m68.5 26.2c-.7-1.1-1.7-2-2.9-2.6-2.4-1.4-5.1-2.1-7.8-2.9-4.5-1.3-9.1-2-13.8-2-4.2 0-8.7-.2-12.5 1.6-2.1 1-4.7 2.4-5.5 4.7-1 3-.4 6.7.1 9.7.6 3.3 1.4 6.6 3.2 9.5.1-2.3 1.1-4.6 2.5-6.4 1.1-1.4 2.7-4 4.6-4.4 0 0-1.3 3.7-1.5 4.1-.7 1.3-2 1.9-3.2 2.7 1.2 1 4.7.8 6.2.5 1-.2 2.2-.5 3-1.1-.1.3-.2.8-.2 1.2 1.9-.3 3.8-.2 5.7-.6 1.5-.3 2.8-.8 4.1-1.4-.2.3-.3.6-.4.9.4-.1.8-.3 1.1-.4-.2.4-.3.9-.3 1.4 3.7-.1 7.5-.2 11.1-.5 2.5-.2 5.1-1.7 6.2-3.9.8-1.6 1.2-3.4 1.1-5.2-.1-1.7.2-3.3-.8-4.9z" fill="#a61900" opacity=".2"/><path d="m22.2 46.4c-5.6 1.6-3.2 9.8 1.4 11.4 1.5.5 3 .6 4.5.4 0 0 .1-.1.1-.1.7-1.1-.4-7-.7-8.2-.9-2.8-2.6-4.2-5.3-3.5z" fill="#ffc38f"/><path d="m24.2 49.4c-1.3-.6-4.4.5-2.9 3 .7-2.3 2.2-.8 2 .8-.1 1.1-1.3 1.1-.1 2.5.6.7 1.9.5 2.5 0 2.1-1.2.1-5.6-1.5-6.3z" fill="#d14f2e" opacity=".4"/><path d="m67.1 21.9c-2.4-1.7-3.8-4.3-6.6-5.6-2.5-1.2-5.4-2.2-8.1-2.6-3.8-.7-7.9-.7-11.7-.2-6.4.9-14.2 4-16.1 10.9-1.2 4.2-.5 9.1-.1 13.4.4 5-.3 10.9 4.4 14.1.3-1.2.2-2.5.4-3.7.2-1.6.7-3.2.6-4.9s-.3-2.9.1-4.6c.6-2.7 2.6-5.1 4.7-6.8 1.8-1.5 2.9-.8 2.4 1.5-.5 1.9-2.3 3.7-3.8 4.9.2-.1 4.8.3 5.8 0 1.9-.7 3.8-1.8 4.9-3.7-.9 1.6-.6 2.7-2.1 4.2 4.5 1.3 6.9-.2 10.6-3-.3.8-.7 1.6-1.1 2.2.6-.3 1.5-.9 2-1.1-.3.8-.6 1.5-.9 2.2 2.9-.5 5.9.7 8.8-.1 3.6-.9 9.4-5.4 10-9.3.2-1.6-.2-3.1-1-4.5-.9-1.3-2-2.4-3.2-3.3z" fill="#c93712"/><path d="m62.7 17.8c-8.5.8-14.4 9.8-23.4 7.9-3.8-.8-7.3-1.9-11.2-1.8-3.8.1-8.8 1.6-10.5 5.3-.4.8-2.9 9.9-.9 10.2 2.3.3 4.5-.8 6.5-1.5s2.7.6 4.2 1.6c-1.1-.7 3.6-6.3 4.4-6.9 1.4-1.2 3.5-2.1 5.2-1.4.2.1.4.2.5.3 1.8 1.2-.1 3.8-.4 5.4 3.2-1.3 6.1-3.2 8.8-5.3-.3 1.9-.7 3.6-1.1 5.5 2.3-.1 4.3-1.5 6-3.1.9-.9 1.6-2.2 2.8-2.8.6-.3.9-.6 1.2.1 0 .2-.8 2.6-1 2.7.8-.6 2.8-3.4 4-3.1 1.2.4-2.6 6.6-3.1 6.5 3.3.8 7-.2 9.8-2 1.3-.8 2.7-2 3.7-3.3 1.2-1.6.2-2.9.7-4.6.5.9 1.2 1.4 1.6 2.5 1 2.8.2 5.3-.4 8.1 3.9 1.5 4.7-1.4 5.3-4.8.8 1.1 1.3 2.3 2.1 3.4 1.4-8.4-5.7-19.7-14.8-18.9z" fill="#e85216"/><path d="m25.3 59.1c-1.1 0-2 .9-2 2.1 0 1.1.9 2 2 2s2-.9 2-2.1c0-1.1-.9-2-2-2z" fill="#ff9819"/><path d="m67.1 54.1c-.6-1.1-2.2-1.4-3.3-1.5-1.5-.1-3.5.4-2.3 2.6.6 1.2 6.4 2.3 5.9-.4-.1-.3-.2-.5-.3-.7z" fill="#ff7752"/><path d="m39.8 54.5c-.9-1.2-2.6-1.1-3.9-.9-1.6.3-3.7 1.3-2.1 3.6.9 1.2 7.4 1.2 6.4-1.9-.1-.3-.3-.6-.4-.8z" fill="#ff7752"/><path d="m58.5 42.2c3.3.3 7.1.2 11.2.1-1.9-2.7-8.8-2.7-11.2-.1z" fill="#c93712"/><path d="m51.5 55.1c-1.1 0-1.5-.4-2.3 0s.9 1.9 2.3 1.7c1.5-.2 2.7-1.4 2.3-1.9-.4-.4-1.1.2-2.3.2z" fill="#d14f2e" opacity=".4"/><path d="m30.8 42.3c6 0 8 .2 12.2 0-2.3-2.8-9.6-2.4-12.2 0z" fill="#c93712"/><path d="m37.9 45.2c-3.2-1.1-4.7 4.8-2.4 6.4 1-.4 2.1-.4 3.1 0 1.9-1.2 1.7-5.5-.7-6.4z" fill="#1c5c57"/><path d="m38.2 48.1c-1.3.2-.8 2.9.6 2.2.9-.5.5-2.4-.6-2.2z" fill="#6cd9d2" opacity=".7"/><path d="m65.4 45c-3.2-2-5.9 5.4-2.4 6.5.9-.6 1.9-.6 2.8-.4 1.1-1.7 1.3-5-.4-6.1z" fill="#1c5c57"/><path d="m64.9 47.5c-1.2 0-1.1 2.8.3 2.3 1-.3.8-2.3-.3-2.3z" fill="#6cd9d2" opacity=".7"/><path d="m65.5 44.8c-2.9-1.1-3.8 2.3-3.8 2.3s1.4-1.7 3.4-.6c4.5 2.5 7.4-.5 7.4-.5-3.7 1.2-5.5-.6-7-1.2z" fill="#121b21"/><path d="m35.8 45.5c-1.1.6-3.8 2.5-7.4 1.5 0 0 3.5 2.9 7.7.1 1.9-1.2 3.5.2 3.5.2s-.8-3.5-3.8-1.8z" fill="#121b21"/><path d="m36.7 59.3c3.7 9 7.3 11.7 13.7 11.7 6.1 0 9.2-3.9 9.9-7.5.2-1.1 2.8-4.5 3.7-5.3-3.2 1.2-8.7 1.1-13.8 1.4-4.3.3-10 1.4-13.5-.3z" fill="#ff3b3b" opacity=".8"/><path d="m38.1 60.4s2.7 8.4 11.8 7.8c8.2-.5 9.4-3.5 9.9-5.5.7-2.7 3-3.9 3-3.9-14.3 4-24.7 1.6-24.7 1.6z" fill="#8f2621"/><path d="m40.5 60.9s0 1.9 2.8 2.4c3.6.6 7.6.6 11.7-.2 2.8-.5 4.2-3.2 4.2-3.2s-8.1 1.5-18.7 1z" fill="#fff9f0"/><path d="m52 66.3c-3.2.2-5.9 0-7.4-.3-1.2-.3-1.2.2-1 .6 0 0 .4 1.7 6.2 1.7 5 0 7.2-2.3 6.6-2.7-.5-.4-1.3.5-4.4.7z" fill="#fff9f0"/><path d="m40.5 60.9s0 .6.4 1.1c0 0 14.2-1.3 17.4-.8 0 0 .8-.9.9-1.3.1 0-7.4 1.5-18.7 1z" fill="#e8dac5"/><path d="m45.1 66.3c5 1.4 10.5-.4 10.5-.4-6.2 1.2-10.5.4-10.5.4z" fill="#e8dac5"/><path d="m67 41.6c-2.2.1-4.3.4-6.5 1-1.8.5-3.9.7-5.6 1.5-1.5.8-2.2 1.3-4 1.2-3.3-.1-6.1-2.2-9.4-2.6-3.4-.4-6.9-.8-10.3.1-.9.2-3.5 1.2-1.8 2.2 1.7.9 4.4.6 6.3.7.9 0 1.8.1 2.7.1 3.1.3 8-.1 7.7 3.8-.2 2.7-1.9 5.5-4.1 6-2.1.5-4.3.7-6.5.6-1.6 0-3.2-.3-4.7-1-.4-.2-1.7-1-2.1-.4-.7 1 1.8 2.6 2.5 2.9 1.5.7 3.1.9 4.8 1.1 4.1.5 8.3.2 10.6-3.5 1.3-2.2 2-4.8 3.3-7 2-3.7 3 1.3 3.6 3.5.4 1.2.9 2.4 1.6 3.5 1.3 1.8 3.9 2.8 6.1 2.9 1.3.1 2.7 0 4-.5.8-.3 1.1-1.2.2-1.5-.6-.2-1.4-.1-2-.1-.8 0-1.7-.1-2.5-.2-1.1-.2-2.1-.6-3-1.3-.6-.5-1.2-1-1.6-1.7-.8-1.4-.9-3.1-.3-4.6.8-2.1 3-2.2 4.9-2.4 2.3-.2 4.6-.1 6.9-.3 1-.1 2 0 3 .1 1.3 0 4.1-.4 2.6-2.3-1.3-1.9-4.2-1.9-6.4-1.8z" fill="#b54d26" opacity=".3"/><path d="m28.1 41.4c-2.7.1-5-.7-5.6-.1-.9.7.5 3.1.5 3.1s.9.6 2.1.7c.2 1.9.1 6.8 3.5 9.8 2.9 2.6 12.3 3.3 15.2 1.9 3.6-1.8 5.2-5.2 5.8-8.6 1.6-8.1-17.7-6.9-21.5-6.8zm15.9 13.2c-3.6 2.3-12.7 1.2-15.1-1.7-1.8-2.3-2.1-7-1-7.7 3.4-2.1 16.3-1.2 19.2 1 1.5 1.1-.4 6.7-3.1 8.4z" fill="#3a3a4a"/><path d="m72.3 40.8c-3.4 0-20.9-.7-19.3 7.5.7 3.3 2.2 6.7 5.5 8.4 2.7 1.4 11.1.4 13.7-2.3 3-3.2 2.8-8 2.9-9.9 1.1-.1 1.9-.8 1.9-.8s1.2-2.5.5-3.1c-.7-.7-2.7.2-5.2.2zm-.5 11.4c-2.1 3-10.3 4.4-13.6 2.2-2.5-1.7-4.4-7.2-3.1-8.3 2.6-2.4 14.2-3.6 17.3-1.6 1.2.7 1 5.4-.6 7.7z" fill="#3a3a4a"/><g fill="#fff"><path d="m57.5 45.4c-1.9.8 1.6 1.8 2.3 2 2.6.4 5.5.2 8.3-.3 1.4-.3 4.5-1.6 3.7-2.4-1.4-1.2-12.2-.2-14.3.7z" opacity=".3"/><path d="m66 44.9c-1 .2-1.7.5-1.4.9.6.9 6.6.4 7-.3s-3.4-1-5.6-.6z"/><path d="m59.4 52.5c-.7 0-1.1.1-1 .5.2.8 4 1.3 4.3.8.4-.4-1.9-1.2-3.3-1.3z" opacity=".7"/><path d="m31.1 52.2c-.7-.1-1.2 0-1.1.4.1.8 4 1.8 4.4 1.4.4-.5-1.9-1.6-3.3-1.8z" opacity=".7"/><path d="m45.8 45.7c-2.5-.8-14.4-1.7-15.7-.7-.9.8 2.7 2 4.3 2.3 3.1.5 6.3.7 9.1.3.8-.1 4.4-1.1 2.3-1.9z" opacity=".3"/><path d="m40.5 45c-1.1 0-1.9.3-1.6.8.5 1 6.9 1.2 7.4.6.6-.7-3.4-1.4-5.8-1.4z"/></g><path d="m55.3 43.3c-2.5 1.1-4.9 1.3-8.4.1-2.6-.9 1.4 1.7 1.7 3.1s-.2 5.6.8 3.1c.9-2.5 2.8-2.7 3.9-.4 1.2 2.3 1.1-3.8 1.6-4.4.4-.5 2.9-2.6.4-1.5z" fill="#3a3a4a"/><path d="m29.3 42.2c7.3.4 13.1.6 17.5 2.3-2.8-2.3-7.8-2.9-17.5-2.3z" fill="#c1c5c9"/><path d="m71.7 41.4c-8.9.3-13 .4-15.4 2.6 3.8-1.8 8.8-1.7 15.4-2.6z" fill="#c1c5c9"/></g></svg>