<svg enable-background="new 0 0 96 96" viewBox="0 0 96 96" xmlns="http://www.w3.org/2000/svg" xmlns:xlink="http://www.w3.org/1999/xlink"><clipPath id="a"><circle cx="48" cy="48" r="48"/></clipPath><linearGradient id="b" gradientUnits="userSpaceOnUse" x1="48.8209" x2="48.8209" y1="76.6384" y2="83.4974"><stop offset="0" stop-color="#854326"/><stop offset="1" stop-color="#9c552c"/></linearGradient><path clip-path="url(#a)" d="m0 0h96v96h-96z" fill="#5f5d7f"/><g clip-path="url(#a)"><path d="m39.1 79s-3 .8-4.4 1.5c-2.2 1.2-3.2 1.7-3.2 4.1 0 4.6-.7 8.6-1.2 11.3h7.5c1.2-4.8 2-10.6 2-10.6z" fill="#1e1e29"/><path d="m62.2 80.6c-1.4-.8-4.4-1.5-4.4-1.5l-.7 6.4s.8 5.8 2 10.6h7.5c-.6-2.7-1.2-6.7-1.2-11.3 0-2.5-1-3-3.2-4.2z" fill="#1e1e29"/><path d="m57.6 78.4c-5.8-3.1-14.4-2-18.3.5-5.2 3.3-4.2 8.8-2.8 17.2h23.6c1.5-8.1 2.6-15-2.5-17.7z" fill="#379bdb"/><path d="m40.4 81.8c1.1 4.1 5 6.4 5 6.4l2.8-3.2 3.6 3.2c2.5-1.4 4.9-4.6 4.9-7.4.1-2-17.4-3.1-16.3 1z" opacity=".1"/><path d="m40.2 78.7s-6.1 1.6-6.6 2.9c-.4 1 1.1 8 2.2 14.4h6.2c.1-5.5-.2-12.2-1.8-17.3z" fill="#1e1e29"/><path d="m41.4 81.8c-.3-.8-5.7 1.2-5.6 1.9.1.5 2.6 7.1 4.3 12.4h1.9c.2-6.8-.1-13.1-.6-14.3z" fill="#313142"/><path d="m35.7 80.3c-.1.6 6 3.5 6 2.9s-.2-6.9-.2-6.9c-2.7 1.5-5.7 3.4-5.8 4z" fill="#313142"/><path d="m63.3 81.6c-.5-1.3-6.6-2.9-6.6-2.9-1.5 5.1-1.9 11.9-1.8 17.3h6.1c1.1-6.4 2.7-13.4 2.3-14.4z" fill="#1e1e29"/><path d="m55.5 81.8c-.5 1.2-.8 7.5-.6 14.2h1.9c1.7-5.3 4.2-11.9 4.3-12.4.1-.7-5.3-2.7-5.6-1.8z" fill="#313142"/><path d="m55.4 76.3s-.1 6.3-.2 6.9c0 .6 6-2.4 6-2.9-.1-.6-3.1-2.5-5.8-4z" fill="#313142"/><path d="m40.4 77c-3.1 4.5 4.7 10.1 4.7 10.1l3-2.6 3.5 2.7s7.1-4.2 4.6-9.8c-2.2-5-12.6-4.9-15.8-.4z" fill="#43acf0"/><path d="m46.4 71.6c-1.9.5-3.2 2.8-3.3 5.2-.2 3 3.3 7 5.7 7.1 1.8 0 9.4-5.6 4.1-11-1.7-1.5-4.7-1.8-6.5-1.3z" fill="url(#b)"/><path d="m48.6 88.6c-.4 0-.8.3-.8.7s.4.7.8.7.8-.3.8-.7c-.1-.4-.4-.7-.8-.7z" fill="#54bcff"/><path d="m48.6 92.8c-.4 0-.8.3-.8.7s.4.7.8.7.8-.3.8-.7c-.1-.4-.4-.7-.8-.7z" fill="#54bcff"/><path d="m16.8 15c-6 5-5.9 13.4-1.4 18.7s13 5.6 19 .6 7.2-13.3 2.6-18.5c-4.5-5.3-14.2-5.7-20.2-.8z" fill="#261b18"/><path d="m18 16c-2.9 2.4-4.7 6.7-2.7 9.9 1.7 2.6 2.8-.3 3.2-2.2 1.5 2.7 2.7-.7 2.7-2.4 1.2 1.2 3.2-1.2 3.4-2.4 2.4-.5 4.3-3.1 6.5-4.1-2.6-3.5-10.2-1.2-13.1 1.2z" fill="#45362e"/><path d="m63.5 15.8c-17.5-12-41-1.8-44.2 13.7-2.2 10.7 1.2 19.9 7.4 26.6 3.1 3.4 5.3 7.4 8.3 10.7 2.9 3.2 6.2-2.4 8.6-3.7 3.2-1.8 7.1-2.8 10.8-2.3 3.3.5 5.6 3.8 8.9 3.9 4.4.1 5.5-7.1 6.5-10.1.9-2.8 1.6-5.7 2.2-8.6 2.8-13 .6-24-8.5-30.2z" fill="#261b18"/><path d="m44.3 19.5c-11.9 2.3-20.3 19.2-18 35.1 1.8 12.9 12.9 23.8 25 23.8 11.6 0 21.3-18.5 19.5-33.1-2.2-15.9-9.8-29-26.5-25.8z" fill="#9c552c"/><path d="m59.6 22c-4.7-1.4-9.6-2.1-14.5-2.2-4.4-.1-9.1-.3-13.2 1.5-2.2 1-5 2.4-5.8 4.8-1 3-.5 6.8 0 9.9.6 3.4 1.4 6.8 3.3 9.8.1-2.1 1.1-4.1 1.5-6.1 1.5-6.6 5.8-9 11-9.8 4.3-.7 9.2-.4 13.6-.5 2.4-.1 16 2.2 13.1-3.2-1.3-2.5-6.5-3.5-9-4.2z" fill="#66241b" opacity=".4"/><path d="m22 48c-5.9 1.6-3.1 10.6 1.7 12.3 1.5.5 3 .7 4.4-.1 0 0 .1-.1.1-.1.7-1.1-.3-7.2-.7-8.4-.9-3-2.7-4.5-5.5-3.7z" fill="#9c552c"/><path d="m24.1 51.1c-1.3-.6-4.6.5-3 3 .8-2.4 2.3-.8 2.1.9-.1 1.1-1.4 1.1-.2 2.6.7.8 2 .5 2.7.1 2-1.4 0-5.9-1.6-6.6z" fill="#66241b" opacity=".7"/><path d="m54 14.7c-4-.7-8.3-.8-12.3-.3-6.8.8-14.9 4-17 11-1.3 4.3-.6 9.3-.2 13.8.2 2.7-.9 7.9 1.5 9.9 2.7 2.3 3.8-1.2 4-3.7.3-2.9 0-6 .9-8.8 2-6.8 5.7-8.1 15.6-8.9 5.1-.4 17.8-1.4 20.3 3.1.9 1.7 8.4-3.3 1.6-10.6-3.1-3.3-10.3-4.7-14.4-5.5z" fill="#261b18"/><path d="m63.8 18.2c-7-6.7-18.3-6.8-27.3-4.4-3.1.8-6.1 2.5-8.5 4.7-1.7 1.5-3.2 3.3-4.2 5.2-1.2 2.1-1.7 4.5-1.5 6.9.2 1.6 1.6 5 4.1 4.1-.1-1.6-.4-3.2-.6-4.8.5.3 2.9 1.9 3.6 1.5s.3-2.6.4-3.3c2.9 3 4.3-1.5 4.1-3.9 1.2.7 2.1 2 3.3 2.6 1.8.8 3.7-.1 5.7-.5 2.6-.5 5.3-.9 8-1 2.8-.1 3.3.2 4.3-2.3.1.7.4 1.5 1.1 1.9 1-.6 1.5-1.4 1.5-2.5.1 2.8 6.3 4.4 8.5 3.7 3.3-1-.4-6-2.5-7.9z" fill="#45362e"/><path d="m30.7 49.5c.1 1 2.4.5 3.1.7-.6.6-2.4.6-3.2 1s-.7.7.2.7c.6 0 3.7-.7 4.1-1.1 1.8-1.3-3.4-1.5-4.2-1.3z" fill="#66241b" opacity=".7"/><path d="m69.9 50.5c-.6-.5-1.9-.5-2.3-1.2.5-.1 2.6.5 2.6-.5-.6-.2-4.8-.3-3.5 1.2.3.4 2.6 1.2 3 1.2.8.1.8-.2.2-.7z" fill="#66241b" opacity=".7"/><path d="m68.4 53.8c-1-1.2-3-1.3-4.4-1.2-1.8.2-4.2 1.1-2.3 3.5 1 1.3 8.3 1.6 7.2-1.6-.2-.2-.3-.5-.5-.7z" fill="#bf6c3c"/><path d="m40 54.3c-1.1-1.1-3.1-1.1-4.5-.9-1.8.3-4.9 1.9-2.3 3.8 1.9 1.3 8.7.9 7.3-2.1-.1-.3-.3-.5-.5-.8z" fill="#bf6c3c"/><path d="m38.8 46c-4.3-1.1-6.9 3.6-4 5.1 1.4-.2 3-.2 4.2.2 2.9-1 3-4.5-.2-5.3z" fill="#261b18"/><path d="m51.4 53.2c-1.1 0-2-.6-3-.1s.2 2.2 3 2.1c2.8 0 3.6-1.6 3.1-2.1-.6-.7-1.9 0-3.1.1z" fill="#66241b" opacity=".7"/><path d="m51.4 48.2c-2-.2-3.6 3.5-2.7 4.7.6.8 5 .9 5.7-.1.2-.4-1.1-4.4-3-4.6z" fill="#bf6c3c"/><path d="m38.5 48.4c-1.3.4-.3 2.4 1 1.7.9-.5.2-2-1-1.7z" fill="#f0ded1" opacity=".7"/><path d="m66 44.9c-4.4-.6-6.4 4.4-3.3 5.6 1.3-.4 2.9-.6 4.2-.3 2.8-1.4 2.4-4.9-.9-5.3z" fill="#261b18"/><path d="m65.9 47.4c-1.2.5 0 2.5 1.2 1.5.8-.6-.1-1.9-1.2-1.5z" fill="#f0ded1" opacity=".7"/><path d="m64.2 59.9c-7.4-1.2-19 .5-25.7.6-.5 0-1 .2-.7.8 1 2.5 5 11.5 14.2 11.4 7.7-.1 8.5-5.4 8.8-8.2.2-1.4 2.3-3 3.9-4.1.6-.3.2-.4-.5-.5z" fill="#d47b48"/><path d="m38.8 61.4s3 7.5 12 7.1c8.1-.3 9.2-2.9 9.6-4.7.6-2.4 2.8-3.4 2.8-3.4-13.9 3.3-24.4 1-24.4 1z" fill="#78231f"/><path d="m41.7 62.2s0 2.4 2.8 3.3c3.5 1.1 7.5 1.2 11.6.2 2.8-.7 4.5-4.4 4.5-4.4s-7.7 1.4-18.9.9z" fill="#fff7ea"/><path d="m52.9 65.8c-3.9.1-7.2-.3-9-.8-1.5-.5-1.5.2-1.3.8 0 0 .4 2.5 7.4 2.8 6.1.3 8.9-2.9 8.3-3.6-.6-.6-1.5.7-5.4.8z" fill="#fff7ea"/><path d="m41.7 62.1s.1.7.3 1.1c0 0 14.7-1.4 17.9-.5 0 0 .6-.8.8-1.4-.1 0-10.5 1.4-19 .8z" fill="#ecdcc4"/><path d="m44.7 64.9c6 2.3 12.8 0 12.8 0-7.5 1.4-12.8 0-12.8 0z" fill="#ecdcc4"/><path d="m36.7 44.7c-2.3.5-5.2 2.9-9 .3 0 0 1.3 4.3 8.8 1.7 3-1.1 4.7 2.1 4.7 2.1s0-5.1-4.5-4.1z" fill="#161110"/><path d="m65.8 44.1c-4.2-1-4.5 3.8-4.5 3.8s1.6-2.9 4.7-1.8c6.8 2.5 8.2-1.6 8.2-1.6-3.6 2.5-6.2.1-8.4-.4z" fill="#161110"/><path d="m58.7 40.7c4.2.2 6.2-.1 12.3-.2-2.7-3.1-10.2-3.5-12.3.2z" fill="#261b18"/><path d="m29.4 40.4c6 .1 8.1.4 12.3.2-2.2-3.6-9.6-3.2-12.3-.2z" fill="#261b18"/><path d="m67.4 40.6c-2.2.1-4.5.5-6.6 1-1.9.5-4 .7-5.7 1.6-1.6.8-2.2 1.3-4.1 1.3-3.4-.2-6.2-2.3-9.6-2.6-3.5-.4-7.1-.8-10.6.1-.9.2-3.6 1.3-1.8 2.3s4.5.7 6.5.7c.9 0 1.8.1 2.7.2 3.2.3 8.2-.1 7.9 3.9-.2 2.8-2 5.6-4.2 6.1s-4.5.7-6.6.7c-1.7 0-3.3-.3-4.8-1.1-.4-.2-1.7-1-2.1-.5-.7 1 1.9 2.7 2.6 3 1.6.7 3.2.9 4.9 1.1 4.2.5 8.5.3 10.9-3.6 1.4-2.2 2.1-4.9 3.4-7.2 2.1-3.8 3.1 1.4 3.7 3.6.4 1.3.9 2.5 1.7 3.6 1.4 1.9 4 2.9 6.3 3 1.4.1 2.8 0 4.1-.5.8-.3 1.1-1.2.2-1.6-.6-.2-1.5-.1-2.1-.1-.9 0-1.7-.1-2.6-.2-1.1-.2-2.2-.7-3.1-1.3-.6-.5-1.2-1.1-1.6-1.8-.8-1.4-.9-3.2-.3-4.8.8-2.1 3.1-2.3 5.1-2.5 2.4-.2 4.7-.1 7.1-.4 1-.1 2.1 0 3.1.1 1.3 0 4.2-.4 2.7-2.3-1.9-1.8-4.9-1.9-7.1-1.8z" fill="#b54d26" opacity=".3"/><path d="m27.3 40.5c-2.8.1-5.1-.7-5.8-.1-.9.7.6 3.2.6 3.2s.9.6 2.2.7c.2 1.9.1 6.9 3.6 10.1 3 2.6 12.6 3.4 15.6 1.9 3.7-1.9 5.3-5.4 6-8.8 1.6-8.4-18.3-7.2-22.2-7zm16.4 13.5c-3.7 2.4-13.1 1.2-15.5-1.8-1.9-2.3-2.2-7.2-1-7.9 3.5-2.1 16.7-1.3 19.8 1.1 1.5 1.1-.5 6.8-3.3 8.6z" fill="#f06799"/><path d="m72.9 39.8c-3.5 0-21.5-.7-19.8 7.7.7 3.4 2.2 6.8 5.6 8.6 2.8 1.4 11.4.4 14-2.4 3.1-3.3 2.9-8.3 3-10.2 1.2-.1 1.9-.8 1.9-.8s1.3-2.5.5-3.2c-.6-.6-2.7.3-5.2.3zm-.6 11.8c-2.1 3.1-10.5 4.5-13.9 2.2-2.6-1.7-4.5-7.4-3.2-8.6 2.7-2.4 14.6-3.7 17.8-1.6 1.1.7 1 5.6-.7 8z" fill="#f06799"/><g fill="#fff"><path d="m57.6 44.5c-2 .8 1.6 1.9 2.4 2 2.7.4 5.7.2 8.5-.3 1.5-.3 4.7-1.6 3.8-2.5-1.4-1.1-12.6-.1-14.7.8z" opacity=".3"/><path d="m66.3 44c-1.1.2-1.8.5-1.5 1 .6.9 6.8.4 7.2-.3.5-.7-3.4-1-5.7-.7z"/><path d="m59.6 51.8c-.7 0-1.1.1-1 .5.2.8 4.1 1.4 4.5.9.2-.5-2.1-1.3-3.5-1.4z" opacity=".7"/><path d="m30.4 51.6c-.7-.1-1.2 0-1.1.4.1.9 4.1 1.9 4.6 1.4.4-.5-2-1.6-3.5-1.8z" opacity=".7"/><path d="m45.5 44.9c-2.5-.9-14.8-1.8-16.1-.7-.9.8 2.7 2.1 4.4 2.3 3.2.5 6.5.7 9.3.3.9-.1 4.7-1.1 2.4-1.9z" opacity=".3"/><path d="m40.2 44.2c-1.1 0-1.9.3-1.7.8.5 1 7.1 1.3 7.6.6.6-.7-3.5-1.5-5.9-1.4z"/></g><path d="m55.4 42.4c-2.6 1.2-5.1 1.4-8.7.1-2.7-1 1.4 1.8 1.7 3.2s-.2 5.7.8 3.2c.9-2.6 2.8-2.7 4-.4 1.2 2.4 1.1-3.9 1.6-4.5.6-.6 3.1-2.8.6-1.6z" fill="#f06799"/><path d="m28.6 41.3c7.5.4 13.5.6 18 2.4-2.9-2.5-8-3-18-2.4z" fill="#ffd1e2"/><path d="m72.2 40.4c-9.1.3-13.4.4-15.9 2.7 4-1.8 9.1-1.7 15.9-2.7z" fill="#ffd1e2"/></g></svg>