<svg enable-background="new 0 0 96 96" viewBox="0 0 96 96" xmlns="http://www.w3.org/2000/svg" xmlns:xlink="http://www.w3.org/1999/xlink"><clipPath id="a"><circle cx="48" cy="48" r="48"/></clipPath><path clip-path="url(#a)" d="m0 0h96v96h-96z" fill="#fff"/><g clip-path="url(#a)"><path d="m62.2 78.5c-3.2-7.4-23.1-8.1-29-.2-2.8 3.7-1.8 11.3-.3 17.8h29.4c1-6.1 1.8-13.3-.1-17.6z" fill="#918fa0"/><path d="m49.7 86.1 1.4-2.9s-1.1-2.5-4.2-1.9c-2.8.5-3.2 2.9-3.2 2.9l2.3 2.3-2.5 8.5.6 1h8.1l.6-1.4z" fill="#1f1f26"/><path d="m34.3 85.1 1.1-9.1s-10.9 5.2-10.4 20h6.5c.3-6.7 2.8-10.9 2.8-10.9z" fill="#918fa0"/><path d="m59.8 76 1.1 9.1s2.5 4.2 2.7 10.9h6.5c.6-14.8-10.3-20-10.3-20z" fill="#918fa0"/><path d="m37.1 78.6c1.3 5.7 6.1 8.4 6.1 8.4l4.3-4.5 4.6 4.3c4.4-4.3 5.4-5.2 5.7-8.9.4-3.8-21.9-4.5-20.7.7z" opacity=".2"/><path d="m37.3 74.7c-2.1 6 5.7 11 5.7 11l4.7-3.2 4.3 3s8.6-4.9 5.3-12c-3-6.4-17.5-5.8-20 1.2z" fill="#a7a5b2"/><path d="m44.1 67.5c-2.9.6-4.8 3.4-5 6.2-.2 2.2.2 3.4 1.4 4.7.9.9 2.3 1.7 3.8 2.2 1.1.3 2.9 1.6 3.2 1.6.1 0 .7-.5 1.7-1 1.5-.8 3.5-1.8 4.3-3.3 1.2-2.3 2.2-6.9 0-8.7-2.2-2.1-6.6-2.4-9.4-1.7z" fill="#f7b07c"/><path d="m72.4 27.9c-.9.6-2.1 1-2.8.8 1.7-1.1 2.4-2.4 2.4-4.9-4.5-3.6-15.3-10.9-27.3-11.5-7.4-.4-15.1 1.5-19.2 8.2-1 1.6-1.5 2.8-2 4.7-.7-1.4-1.3-2.1-1.2-3.7-1.6 1.7-1.3 4.6-.1 6.1-1.4-.1-2.9.7-3.8 1.6.9 0 2.3 0 3.1.5-1 1.4-1.2 3.5-1.2 5.1 0 2.7.3 6.7 1.1 9.8s1.9 10.7 6.6 9.7c6.4-1.3 13.4-4.9 20-2.4 4.6 1.7 8.8 4.6 13.5 6.3 4.2 1.5 8.2 5.6 9.4-.1.9-4.4 1.1-9 .4-13.5-.7-3.6-1.3-8-3.3-11.2 1.2-.4 4.1-2 4.4-5.5z" fill="#c9beb7"/><path d="m46 23.3c-12.2.8-22.6 14.2-21.6 29.1s11.1 24.9 25.2 24.7c15.7-.1 21.7-13.1 20.7-28-1-14.8-12.1-26.6-24.3-25.8z" fill="#ffc490"/><path d="m68 47.7c-.5-.3-4.2-.7-3.3.7.2.3 2.3 1.3 2.7 1.4.7.1.8-.1.3-.6-.4-.4-1.7-.6-2-1.2.5-.1 2 .5 2.3-.3z" fill="#bc551e" opacity=".3"/><path d="m36 50.3c.3.8 1.8 0 2.3 0-.3.6-1.5.9-1.9 1.4s-.3.7.4.6c.4-.1 2.4-1.2 2.6-1.6.8-1.4-2.9-.7-3.4-.4z" fill="#bc551e" opacity=".3"/><path d="m41.5 46c-2.7-1.2-4.5 3.6-2.6 5.2.9-.2 1.9-.1 2.7.2 1.8-.9 1.9-4.6-.1-5.4z" fill="#1f1a17"/><path d="m53 52.7c-1.5.1-2.2-.5-3.2.1s.4 2.9 3.1 2.8c2.7-.2 3.9-2.4 3.3-3-.6-.8-1.5 0-3.2.1z" fill="#bc551e" opacity=".4"/><path d="m51.7 44.5c-1.4.1-2.3 2.1-2.5 4.6-.2 2.6-.1 3.7.6 4.2 1.7 1.3 4.9 1 6.4-.5 1.8-1.9-1.3-8.5-4.5-8.3z" fill="#ffd1a7"/><path d="m64.2 44.3c-2.9-1.3-4.6 4.8-1.5 5.3.6-.6 1.5-.9 2.3-.9 1-1.3.8-3.7-.8-4.4z" fill="#1f1a17"/><path d="m40.1 47c-1.1.4-.3 2.5.8 1.8.7-.7.1-2.2-.8-1.8z" fill="#a88888"/><path d="m62.9 45.4c-1 .3-.3 2.4.7 1.6.8-.5.2-1.9-.7-1.6z" fill="#a88888"/><path d="m22.3 48.9c-6 1.5-3.8 9.1 1 10.6 1.6.5 3.2.5 4.8.4 0 0 .1-.1.1-.1.7-1-.4-6.1-.7-7.1-.9-2.7-2.3-4.5-5.2-3.8z" fill="#ffc490"/><path d="m40.8 30.4c-4.7.5-10.7 2.5-11.8 7.8-.4 1.9-.9 4.1-1 6.2v2c.1.8 1.8 8.4 1.8 7.6.7-11.9 3.5-15.8 4.1-17.6 14.2 2.1 21.5 1.5 26.6.9 2-.2 6.8-.7 4.4-3.8-1.4-2-17.4-3.8-24.1-3.1z" fill="#bc551e" opacity=".3"/><path d="m25.5 51.8c-1.5-.7-5.7-.2-4.1 2.3 1.3-2 2.9-.4 2.4 1.1-.3 1-1.8.8-.5 2.3.7.8 2.4.7 3.2.5 2.7-.9.8-5.3-1-6.2z" fill="#bc551e" opacity=".3"/><path d="m59.2 22.4c-6.7-3.1-17.1-4.1-24.4-.4-2.3 1.1-4.2 2.7-5.7 4.8-3.1 4.7-7.1 12.2-5.5 17.8.4 1.2.2 3 .6 4.3 1.1 3.1 2.8 15.1 5.4 15.1 1 0 3.8.7 3.3-.2-4.2-7.9-3.1-21.8.4-28.4 21.7 2.6 34.1-.4 33.3-5.3-.6-3.4-4.5-6.3-7.4-7.7z" fill="#c9beb7"/><path d="m42.7 53.5c-1.5-1.2-3.7-.7-5.3-.2-2 .7-4.4 2.3-1.7 4.7 1.4 1.3 9.8-.3 7.7-3.6-.2-.4-.4-.7-.7-.9z" fill="#fab27b"/><path d="m64.1 50.9c-.9.2-1.8.8-2.3 1.4-.9 1.1-.8 2.5 1 3.3 1.8.9 5.6 1 6.5-1.3 1.2-3.1-3.2-3.9-5.2-3.4z" fill="#fab27b"/><path d="m51.6 70c-1.8.6-2.4 1.9-2.5 3.4 0-.3.9-1.8 3.6-2.2 1.6-.2 4 .4 4.8 1.4.2-2.5-3.7-3.3-5.9-2.6z" fill="#f5ae79"/><path d="m61.9 38c-1.7.2-3.6 1.5-5.3 1.1.3 1.8 1.4 2.8 3 3 1.4.2 2.3-.3 3.4-.7.4-.2.9-.4 1.4-.5.8-.2 1.5 0 2.4 0 0-.3-.1-.6-.3-.8-1.1-1.8-2.8-2.3-4.6-2.1z" fill="#3d302a"/><path d="m43.3 40c-1.1-.2-2.1-.7-3.2-.8-2.6-.3-5.3 3.2-3.6 5.5.3-.3.6-.7.9-1 1.6-1.7 4-.4 5.9-.1 2.6.5 3.9-1.2 3.8-3.7-1.2.4-2.5.4-3.8.1z" fill="#3d302a"/><path d="m62.3 56.2c.3-.1 1.1.7 1.1 1 0 .5-.6.9-1 1.1-1.3.7-3 .8-4.5 1.1-3.7.6-7.4.9-11.2.5-2.1-.2-4.2-.7-6.2-1.4.1-.1.1-.1.2-.2 1-.6 2.6-.7 2.1-.9-2.3-1-5 .2-6.8 1.5 2.1-.5 4.4-.3 5.6 1.8 3.1 5.3 6.2 8.8 11.3 8.7 6.7-.1 8.1-4.6 8.9-7.5.3-1.2.8-1.9 1.6-2.7.9-1 1.8-1.8 2.8-2.3.7-.3 1.5-.5 2.4-.5-1.5-1.4-4.7-.9-6.3-.2z" fill="#bc551e" opacity=".3"/><path d="m41.9 59.7s3.4 7.7 11.3 7.1c5.3-.4 7.5-3.1 8.1-5.4.6-2.4 2-3.1 2-3.1-11.1 5-21.4 1.4-21.4 1.4z" fill="#8f322d"/><path d="m44.6 60.4s.3 2.5 2.8 3.4c3.2 1.1 6.7 1.1 10.2.1 2.4-.7 3.5-4.5 3.5-4.5s-6.7 2.4-16.5 1z" fill="#fff3e2"/><path d="m54.8 64c-3.4.2-6.3-.2-7.9-.8-1.4-.5-1.3.2-1 .9 0 0 .6 2.6 6.8 2.8 5.4.2 7.5-3.1 6.9-3.8-.8-.6-1.5.7-4.8.9z" fill="#fff3e2"/><path d="m44.6 60.4s.1 1.5 1 2.2c0 0 11.3-1.6 14.2-.7 0 0 1.1-1.6 1.2-2.6 0 0-8.4 2.6-16.4 1.1z" fill="#e8dac5"/><path d="m47.5 63.2c5.5 2.3 11.2-.2 11.2-.2-6.5 1.5-11.2.2-11.2.2z" fill="#e8dac5"/><path d="m64.7 52.8c-.4 0-1.1.2-1.4.5-.7.6.3.4.7.6 1 .6.2 1.9-.7 1.9-1.5.1-3 .2-4.5.3-4.6.4-9.1 1-13.7 1-1 0-3 .3-3.8-.3-1.3-1 1.8-1.9.2-2.2-1.1-.2-2.5 1.2-2.9 2.1-.1.2-.1.3-.1.5-.4 1.9 1.3 3 2.7 3.8 1.3.7 2.7.7 4.2.6s2.9 0 4.3 0c1.4.1 2.9.2 4.3.1s2.8-.4 4.2-.6c2.5-.4 4.7-.2 6.7-2 1.2-1.1 1.9-2 1.7-3.7 0-1.3-.5-2.7-1.9-2.6z" fill="#bc551e" opacity=".3"/><path d="m62.9 53.5c1-.6 1.9 0 1.8.7-.1 1-1.4.9-2.1.9-2.3-.2-4.8-1.1-7.1-.3-3.1 1-5.2-.1-8.4.4-1.6.2-3.2.8-4.7 1.2-.8.2-1.8.4-2-.5-.2-.7.8-1.4 1.5-.8-.4-.7-1.8-.9-2.5-.7-1.1.4-1.4 1.3-1.2 2.3.3 1.5 2.5 2.6 3.9 3.1 1.9.8 4.3 1.1 6.4 1.4 1.5.2 3 .2 4.5.2 1.6-.1 3.2-.2 4.8-.6 2-.5 3.9-1.2 5.6-2.3 1.3-.9 3.3-2 3.2-4.1-.2-1.9-2.6-2.7-3.7-.9z" fill="#c9beb7"/><g fill="#f0eae6"><path d="m22.6 34.2c-.1 1.8 3.7 3.4 5.1 3.6-.9.2-1.8.3-2.7.2-1-.1-2-.8-3-.8.3 2.2 3.6 2.6 5.2 3.4-.7.1-1.2.2-1.9.2-.5 0-1.3-.3-1.7-.1-1.3.5-.9 3.6-.7 4.7.2 1.8 1.4 3.9 2.8.8-.5 4.5 4.2 11.6 3.8 8.6-.4-3.4-.2-6.5.2-9.8.2-1.6.3-3.1.7-4.7.1-.4 1-4.5 1-4.5-.9 0-1.8-.1-2.7-.2-2.2-.1-4-1.2-6.1-1.4z"/><path d="m53.4 33.1c-13.6 1.9-23.9.1-23.9.1s13.8 3.7 26.5 2c12.7-1.8 10.9-5.7 10.9-5.7s0 1.6-13.5 3.6z"/><path d="m60 55.7c-1.9-.4-3.3-.4-5 .2-1.7.7-3 .9-4.9.1-2.3-1-7.6.8-6.9 1.7s3.2.4 3.2.4.1 1.2 1.1 1.5 2.9-1.1 2.9-1.1-.1 1.4 1.3 1.5 2.5-1.5 2.5-1.5.9 1.5 2.2 1.2c1.4-.2 1.2-1.5 1.2-1.5s1.7.8 2.7.5.4-1.7.4-1.7 1.2.6 2.7-.1c1.6-.9-1.5-.9-3.4-1.2z"/><path d="m28.6 25.9c3.9 3.5 9.4 2.9 14.1 2.2-3.1 2.2-13 1.8-17.5.5 3.4 1.8 7.8 3.4 18.1 3.9 7 .3 13.9-.8 20.3-3.7 2.5-1.1 5.2-2.9 7-5.2-2.6-.9-13.7-7.9-21.8-9.3-15.1-2.6-25.5 6.8-20.2 11.6z"/></g></g></svg>