<svg enable-background="new 0 0 96 96" viewBox="0 0 96 96" xmlns="http://www.w3.org/2000/svg" xmlns:xlink="http://www.w3.org/1999/xlink"><clipPath id="a"><circle cx="48" cy="48" r="48"/></clipPath><linearGradient id="b" gradientUnits="userSpaceOnUse" x1="48.3551" x2="48.3551" y1="77.3302" y2="82.4002"><stop offset="0" stop-color="#e88958"/><stop offset=".3384" stop-color="#f49d62"/><stop offset=".6924" stop-color="#fcab69"/><stop offset="1" stop-color="#ffb06b"/></linearGradient><path clip-path="url(#a)" d="m0 0h96v96h-96z" fill="#5f5d7f"/><g clip-path="url(#a)"><path d="m79 58.6c4.7-2.2 2.7-12.4-2.6-9.1 3.6-.1.1 5.7-1.9 1.3-1.3-2.8 1.7-4.1 3-6 1.7-2.3 2.1-4.7 1.9-7.7-.6-7.5-7.5-12.2-11.5-18-4.3-6.3-10.4-10.3-18.2-7.5-1.9.7-3.5 2.1-4.9 3.6-.4-1.2-1.3-2.6-2.4-3.4-.1 1.1-.2 2.3-.2 3.4-4.3-2.6-10.9-1.6-14.6.9-5 3.3-4.6 8.3-6.6 13.3-1.9 4.5-7.8 9.8-7.4 15 .2 3.3 2.6 5 2.4 8.3-.1 2.8-3.2 4.3-1.8 7.1 1.3 2.6 7.1 1.8 4.2 6.5-2.7 4.3-7.9-.8-4.6-1.5-3.6-1.8-5.1 2.9-4.6 5.7.7 3.9 6.2 4 9.1 3.2-7.6 14 14.1 17.5 24.8 8.2 4.6-4 8.3 6.5 13.9 7 7.5.7 11.5-4.8 10-9.6 1.3 4.1 5.8 4.3 9.1 2.8 1.7-.7 5.4-3.4 5-8.6-1.4 1.7-4.2 2.1-6.2 1.3-2.8-1.2-3.7-4.1-2-6.5 2.1-3 8-6.8 2.2-9.9 1.3.8 2.7.8 3.9.2z" fill="#912907"/><path d="m71.7 49.6c-1.4-4.1-7.7-3.8-11.2-3.8-4.9 0-9.8.1-14.6 1.1-2.2.5-4 1.1-5.8 2.4-1.3.9-3.2 2.8-4.9 2.6-.9-.1-.5-.6-1.1-.8-1.1-.5-2.5-1.7-3.7-1.9-2.8-.5-6.6 1.9-7.2 4.7-.7 2.8.8 5.5 1.9 8 2.3 5.2.8 10.6-3.2 14.4-2.1 2-2.7 3.5.3 5.5 4.8 3.2 11.7 3.3 19.3.8 3.6-1.2 15.4 5.3 19.5 3.2 3.2-1.7 4.2-3.4 5.5-9.3 1 1.3 2.4 3.4 4.4 3.4-1.8-3.4 0-7.3.5-10.9.5-3.8-.2-7.7 0-11.5-.1-2.5 1.1-5.5.3-7.9z" fill="#801a00"/><path d="m57 80.4-2.4 4.7c.7.4 1.4 3.8 1.8 5.6.3 1.6.7 3.5 1.3 5.3h5.6c-.8-1.6-1.3-3.7-1.8-6.4-.7-3.9-1.5-7.7-4.5-9.2z" fill="#9ab5de"/><path d="m36.3 89.6c-.5 2.7-1 4.8-1.8 6.4h5.6c.6-1.8 1-3.7 1.3-5.3.4-1.8 1.1-5.2 1.8-5.6l-2.4-4.7c-2.9 1.5-3.7 5.3-4.5 9.2z" fill="#9ab5de"/><path d="m55.7 79.7c-3.5-1.2-10-1.6-13.8.1-3.1 1.3-4.1 3.5-2 10 .7 2.2 1.3 4.3 1.6 6.2h14.8c.2-1.6.6-3.4 1.2-5.7 1.7-5.8 1.8-9.4-1.8-10.6z" fill="#9ab5de"/><path d="m52.9 73.6c.3-5.2-8.6-5.4-8.6.3 0 2.5.2 4.4-.3 5.2-3.6 5.6 12.2 6.3 8.9.3-.8-1.3-.1-3.5 0-5.8z" fill="url(#b)"/><path d="m52.5 86.5c-2.5.9-5.6.5-8.2-.1-1.5-.4-2.3 1.3-1.9 2.8.6 1.9 3.7 2.4 6.4 2.4 5.3-.1 7.3-2.1 6.4-4.4-.2-.7-1.3-1.2-2.7-.7z" fill="#b0c6e8"/><path d="m46.4 24.6c-11.9 1.5-21.4 11.2-19.8 27.8 1.6 16.5 12.7 26.6 24.8 26.5 9.2-.1 20.4-15.2 19.7-32.4-.6-16.5-12.7-23.5-24.7-21.9z" fill="#fab077"/><path d="m66.4 39.6c-1.8-.3-5.6.5-5 3.2.2.9.7.9 1.3.5.5-.3.6-1.3 1.1-1.7 2.2-2.1 5.8 0 6.9 2.2-.6-2.8-2.5-3.9-4.3-4.2z" fill="#591702"/><path d="m35.8 41c-1.9.6-3.8 2-4 4.8.8-2.3 4.5-4.9 7.4-3.2.6.4 1 1.3 1.6 1.5.8.3 1.3.2 1.3-.7.1-2.8-4.3-3-6.3-2.4z" fill="#591702"/><path d="m68.8 54.2c-.7-1.4-2.5-1.7-3.8-1.8-1.7-.1-4.1.4-2.8 3.1.7 1.4 7.4 2.8 6.9-.4-.1-.4-.2-.6-.3-.9z" fill="#f59a62"/><path d="m39.1 53.9c-1.3-.9-3.2-.4-4.5.1-1.7.7-3.7 2.3-1.2 4.1 1.3 1 8.4-.9 6.4-3.6-.2-.2-.4-.5-.7-.6z" fill="#f59a62"/><path d="m38.6 45.8c-3.1-1.1-4.9 4.4-2.3 6.4.9-.6 1.8-.7 2.8-.3 1.9-1.2 1.8-5.3-.5-6.1z" fill="#283b21"/><path d="m51.9 61.1c-2.2.2-4.5.2-6.7 0-1.5-.1-4.4-1-6-2.1.5 1.7 1.2 3.3 1.9 4.6.7 1.2 1.5 2.4 2.4 3.4 2.3 2.5 5.3 4.1 8.8 4.1 6.3-.1 7.1-4 7.3-7 .1-1.8 1.9-3 2.8-4.7.2-.4.4-.8.4-1.2-1.4.9-3.1 1.9-4.7 2.2-2.1.3-4.1.5-6.2.7z" fill="#960800" opacity=".3"/><path d="m41.3 61.3s2.8 7.3 10.2 6.9c6.7-.4 7.4-2.9 7.7-4.7.4-2.4 2.2-3.3 2.2-3.3-10.7 4.6-20.1 1.1-20.1 1.1z" fill="#8f2f2b"/><path d="m43.7 62s.1 2.4 2.4 3.2c3 1.1 6.2 1.1 9.6.2 2.2-.7 3.5-4.3 3.5-4.3s-6.4 2.3-15.5.9z" fill="#fff2de"/><path d="m53.1 65.4c-3.2.1-5.9-.2-7.4-.8-1.2-.5-1.3.2-1 .8 0 0 .4 2.4 6.2 2.7 5.1.2 7.2-2.9 6.7-3.5-.6-.6-1.3.7-4.5.8z" fill="#fff2de"/><path d="m43.7 61.9s.1 1.3.6 1.9c0 0 11.3-1.7 14-.8 0 0 .8-1.3.9-1.9 0-.1-8 2.3-15.5.8z" fill="#e8d3b5"/><path d="m46.4 64.7c5 2.2 10.5-.1 10.5-.1-6.2 1.4-10.5.1-10.5.1z" fill="#e8d3b5"/><path d="m52.5 55.5c-1.6.1-2.4-.5-3.5.1s.7 2.7 3.6 2.5 4.1-2.3 3.4-2.8c-.8-.7-1.6.1-3.5.2z" fill="#bf3c1b" opacity=".3"/><path d="m67.4 44.9c-3.2-2-5.6 4.5-2.5 5.8 1-.3 2.1-.1 2.9.4 1.5-1.2 1.3-5.1-.4-6.2z" fill="#283b21"/><path d="m38.1 47.1c-1.3 0-1.1 2.6.3 2.1 1-.3.8-2.1-.3-2.1z" fill="#82a375"/><path d="m66.2 46.3c-1.3 0-1.3 2.5.2 2.1 1-.2 1-2-.2-2.1z" fill="#82a375"/><path d="m21.4 45.5c-5.7 2-3.2 10.3 1.5 11.7 1.5.4 3.1.4 4.6.2 0 0 .1-.1.1-.2.7-1.2-.7-6.7-1.1-7.8-.8-2.9-2.3-4.9-5.1-3.9z" fill="#fab077"/><path d="m60.5 23.7c-6.5-.7-13.2-.4-19.5 1-4.4 1-9 2.8-11.5 6.7-1.8 2.8-4.8 5.9-5.2 9.3-.4 3.2 1.8 5.7 3.1 8.4 1.7 3.4.1 6 .3 9.5.1 2.2 1.2 2.7 3.3 2.7-3.4-3.3-.2-7.2.4-10.9.3-2-.5-3.7-.4-5.7 0-.5 0-.9.1-1.4.2-1.8.7-3.5 1.2-5.2-.7 6.1 8.1 2.8 10.6 1.8.8-.3 1.7-.7 2.6-.5-3 3.1 1.4 8.5 5 8.5 5.9 0 7.4-2.5 9.9-5.9 1.4-1.9 3.3-3.3 5.6-3.5 1.5-.2 4.7.9 5.3-1 1-2.7-.2-7.9-1.6-10.4-1.8-2.9-6.2-3.1-9.2-3.4z" fill="#a61900" opacity=".2"/><path d="m25 48.6c-1.5-.7-5.5.1-3.9 2.8 1.2-2.3 2.7-.6 2.3 1.1-.3 1.1-1.7 1-.4 2.6.7.9 2.3.7 3.1.3 2.7-1.2.7-5.9-1.1-6.8z" fill="#bf3c1b" opacity=".3"/><path d="m52.5 16c-2.4-.2-4.7-.9-7.2-.9-4.2.1-8.2 1.5-11.9 3.5-5.5 2.9-9 9.6-10.6 15.5-.9 3.4-1.4 7.3-.7 10.8.7 3.1 4.7 4.3 5 7.6.1 1.5-1.2 2.5-1.1 3.9 0 1.1.6 2.4 1.4 3.1.7.7 2.4.9 3.4 1-2.3-2.5-.1-3.9.1-6.4.1-1.7-.2-4.9-.8-6.5-1.6-4.2-.6-9 3-11.7.4 4.5 4.9 4.3 8.2 3.6 1.5-.3 5.7-2 6.5.2.5 1.4-1.7 2.6-2.3 1 0 2.4.1 4.3 2.9 4.9 4.2.9 7.7-.6 9.9-4.3.9-1.5 1.8-2.4 2.8-2.9 1.3-.7 2.8-.8 4.8-.9 3.7-.1 5-2.8 4.8-6.3-.5-9.5-9.7-14.5-18.2-15.2z" fill="#912907"/><path d="m52.5 56.7c2.4-.1 5.1-.8 2.9-3.7-3.8-5-11.1 4.1-2.9 3.7z" fill="#ffbe8a"/><path d="m36.4 45.8c-.9.7-2.9 2.5-6 2.1 0 0 3.3 2 6.5-.8 1.4-1.2 3-.3 3-.3s-1.1-2.7-3.5-1z" fill="#1f1a17"/><path d="m67.7 45.1c-2.3-1.7-3.7 1-3.7 1s1.6-1 3 .3c3.2 2.8 6.5.8 6.5.8-3.1.4-4.9-1.5-5.8-2.1z" fill="#1f1a17"/><path d="m51.3 50.1c-.7.1-1.2.6-1.1 1.1s.7.7 1.3.6c.7-.1 1.2-.6 1.1-1.1 0-.5-.6-.8-1.3-.6z" fill="#f7985c"/><path d="m49.4 52.1c-.5.3-.7.8-.6 1.1.2.3.7.3 1.1.1.5-.3.7-.8.6-1.1-.1-.4-.6-.4-1.1-.1z" fill="#f7985c"/><path d="m57.7 51.2c-.5-.2-1-.1-1.1.3-.1.3.2.8.7 1s1 .1 1.1-.3c.1-.3-.2-.8-.7-1z" fill="#f7985c"/><path d="m45 50c-.5.1-.9.5-.8.9s.6.5 1.2.4c.5-.1.9-.5.8-.9s-.6-.5-1.2-.4z" fill="#f7985c"/><g fill="#e6864a"><path d="m39.1 53.2c-.5 0-1 .3-1 .7s.4.7 1 .7c.5 0 1-.3 1-.7s-.4-.7-1-.7z"/><path d="m62.7 53.3c-.5 0-1 .3-1 .7s.4.7 1 .7c.5 0 1-.3 1-.7-.1-.4-.5-.7-1-.7z"/><path d="m34.7 53.1c-.7.2-1.1.8-1 1.2s.8.6 1.5.4 1.1-.8 1-1.2c-.1-.5-.8-.6-1.5-.4z"/><path d="m41 52c-.5.1-.9.4-.8.8s.6.6 1.1.5.9-.4.8-.8c-.1-.3-.6-.6-1.1-.5z"/><path d="m68.5 53.1c-.5-.3-1-.2-1.1.2-.1.3.1.8.6 1.1s1 .2 1.1-.1c.2-.5-.1-1-.6-1.2z"/></g><path d="m49 49.6c-.4.1-.6.3-.6.6s.4.4.7.4c.4-.1.6-.3.6-.6s-.3-.5-.7-.4z" fill="#f7985c"/><path d="m36.8 54.7c-.4.1-.6.3-.6.6s.4.4.7.4c.4-.1.6-.3.6-.6.1-.3-.3-.5-.7-.4z" fill="#e6864a"/><path d="m59 50.3c-.4-.1-.7 0-.8.2-.1.3.2.6.5.7.4.1.7 0 .8-.2.1-.3-.1-.6-.5-.7z" fill="#f7985c"/><path d="m66.1 53.9c-.4-.1-.7 0-.8.2-.1.3.2.6.5.7.4.1.7 0 .8-.2.1-.3-.1-.6-.5-.7z" fill="#e6864a"/><path d="m57 49.1c-.5-.1-.8.1-.9.5 0 .3.3.6.8.7s.8-.1.9-.5c0-.3-.4-.6-.8-.7z" fill="#f7985c"/><path d="m46.4 53.7c-.5.2-.9.6-.8.9.1.4.6.5 1.1.4.5-.2.9-.6.8-.9 0-.4-.5-.6-1.1-.4z" fill="#f7985c"/><path d="m54.1 49.2c-.6-.1-1.2.2-1.3.6s.4.9 1 1 1.2-.2 1.3-.6c.1-.5-.4-.9-1-1z" fill="#f7985c"/><path d="m61.2 51.4c-.6-.1-1.2.2-1.2.6-.1.4.4.9 1 1s1.2-.2 1.3-.6c0-.4-.4-.9-1.1-1z" fill="#e6864a"/><path d="m42 53.8c-.6 0-1.2.4-1.1.8 0 .4.6.8 1.2.8s1.2-.4 1.1-.8c0-.4-.5-.8-1.2-.8z" fill="#f7985c"/><path d="m64.6 51.5c-.6 0-1.2.4-1.1.8 0 .4.6.8 1.2.8s1.2-.4 1.1-.8c0-.4-.6-.8-1.2-.8z" fill="#e6864a"/><path d="m55.3 51.3c-.6-.3-1.2-.2-1.4.2-.1.4.2.9.9 1.2.6.3 1.2.2 1.4-.2.1-.4-.3-1-.9-1.2z" fill="#f7985c"/><path d="m44.4 52c-.7.1-1.3.6-1.2 1.1s.7.8 1.4.7 1.3-.6 1.2-1.1-.7-.9-1.4-.7z" fill="#f7985c"/><path d="m47.3 51c-.7.2-1.1.8-1 1.3s.8.7 1.5.4c.7-.2 1.1-.8 1-1.3s-.8-.6-1.5-.4z" fill="#f7985c"/><path d="m59.3 53c-.7-.1-1.4.2-1.4.7-.1.5.5 1 1.2 1.1s1.3-.2 1.4-.7-.4-1-1.2-1.1z" fill="#f7985c"/><path d="m49.6 15.2c-1.8.5-3.4 1.5-4.6 2.9 1.3 1.3 3.3 5.3 3.4 6 .3 2.5-.5 5-2.7 6.5s-14.6 3.7-6 6.6c2.6.9 5.3-.8 7.9-.2 2.1.5 3.4 3.5 1.3 4.9 1.9.9 4.7-.2 6.3-1.2 1.1-.7 2.1-1.6 3.4-2.1 3.1-1.3 5.5-3 7-5.1 2.6-3.4 2.6-7.8-1-13-3-4.3-10.1-6.6-15-5.3z" fill="#a8370a"/><path d="m36.2 17.4c-10.8.7-8.6 10.1-13.2 16.8-1.6 2.3-3.1 4.3-1.7 6.9 1.1 2.2 4.5 5.4 6.9 5.7-.8-1.6-1.2-4-.7-5.7 2-7 10-9.1 13.5-14.7 2.8-4.7.7-9.4-4.8-9z" fill="#a8370a"/></g></svg>