<svg enable-background="new 0 0 96 96" viewBox="0 0 96 96" xmlns="http://www.w3.org/2000/svg" xmlns:xlink="http://www.w3.org/1999/xlink"><clipPath id="a"><circle cx="48" cy="48" r="48"/></clipPath><linearGradient id="b" gradientUnits="userSpaceOnUse" x1="46.6106" x2="46.6106" y1="75.1317" y2="78.5178"><stop offset="0" stop-color="#ee996d"/><stop offset=".01630819" stop-color="#ee9a6e"/><stop offset=".3731" stop-color="#f8b181"/><stop offset=".7088" stop-color="#fdbf8d"/><stop offset="1" stop-color="#ffc491"/></linearGradient><path clip-path="url(#a)" d="m0 0h96v96h-96z" fill="#fff"/><g clip-path="url(#a)"><path d="m71.6 78.7c1.7-3.7 2-7.8 1.2-12.3-1.9-9.6 1.6-20.9 1.2-30.9-1-25.6-33.8-31.2-45.9-16.3-4.8 5.9-8.4 13-8.8 20.7-.3 5.4 2.8 11.4 1.8 16.5-1 5-3.1 9.5-2 14.7.9 4.4 5.5 10.5 5.6 14.7 2.2-1 3.4-4 3.7-5.7 0-.1 0-.1 0 0 3.8 17 30.1 19.1 35.7 2.5.5.9 1.6 2.5 1.8 4.2 2.7-2 4.5-5.4 5.7-8.1z" fill="#c93712"/><path d="m58 82.9c-3.1-3.9-12.2-4.9-17.1-2.9-3.7 1.5-3.8 8.4-3 16.1h19c.5-5.3 2.1-11.9 1.1-13.2z" fill="#313142"/><path d="m55.8 90.8c.9-3.3.2-9.5-1.9-10.3-3.9-1.5-9.8-1.6-13.7.1-3.1 1.3-4.1 3.2-2 9.7.7 2 1.2 4 1.5 5.8h15c.2-1.6.6-3.3 1.1-5.3z" fill="#ebebeb"/><path d="m51.1 74.1c.3-5.2-8.6-5.4-8.6.3 0 2.5.1 4.4-.3 5.2-1.1 2.3 10.1 2.7 8.9.3-.7-1.4-.1-3.5 0-5.8z" fill="url(#b)"/><path d="m50.8 85.6c-2.5.9-5.6.5-8.2-.1-1.5-.4-2.3 1.3-1.9 2.8.6 1.9 3.7 2.4 6.4 2.4 5.3-.1 7.3-2.1 6.4-4.4-.2-.7-1.4-1.1-2.7-.7z" fill="#fbfbfb" opacity=".7"/><path d="m45.3 23.4c-11 2-19 17.7-17.3 32.6 1.3 11.1 10.7 23 22 22.3 13.6-.9 20.5-17 19.1-30.1-1.5-15-8.3-27.6-23.8-24.8z" fill="#ffbc82"/><path d="m64.5 27.9c-5.9-2.5-11.7-4-18.3-4.2-4-.2-9.4-.5-13.2 1-5.7 2.3-8.1 6-9 11.7-.6 3.9 3.2 7.6 6.1 10.1 2.1-2 1.2-4.9 1.2-7.3 0 3.4 9.3 3.2 11.4 2.4 1.2-.4 2.5-.9 3.9-1.6 3.1-1.5 6.4-3.7 7.3-6.7 2.1 3.4 12.3 10.6 16.2 6.3 3.1-3.3-2.3-10.4-5.6-11.7z" fill="#b54319" opacity=".2"/><path d="m61.3 20.6c-6-5.3-13.9-5.4-21.4-4.2-4.9.8-9.2 4.3-12.1 8.2-3.3 4.3-4.1 8.4-4.6 13.8-.3 3.5.1 7.9.4 11.5.2 1.8.2 7.7 2.6 8.4 2.8.8 5.4-7.9 6.6-9.6 2.8-4 5.8-6.9 10.2-8.9 4.2-1.9 9.1-4.3 10.7-9 3.3 3.3 9.6 8.8 14.7 8.5 4.1-.2 2.1-5.2 1.1-7.7-1.5-4.3-5-8.2-8.2-11z" fill="#c93712"/><path d="m44.9 13.3c-7.6.4-15.3 5.7-18.6 12.7-1.2 2.5-3.4 7.7-3 10.6.3 1.7 1.3 2.8 3 3.2 1.1.2 5.1-.7 5.4-2.1-.3 1.7-1.8 3.1-2.4 4.8 6.3-1.3 13.2-3.9 18.3-8.1.9-.7 6.7-6.5 5.7-7.7 4.8 5.9 11.8 8.2 18.9 5.6-2.2-14.7-17.2-19.5-27.3-19z" fill="#e85216"/><path d="m67.3 53.6c-.9-1.3-2.7-1.5-4-1.5-1.7 0-4 .6-2.5 3.1.8 1.3 7.7 2.3 6.9-.7-.1-.4-.2-.7-.4-.9z" fill="#ff7752" opacity=".4"/><path d="m41.1 53.1c-1.2-1-3.1-.8-4.5-.5-1.8.4-3.9 1.7-1.7 3.8 1.2 1.1 8.4.3 6.8-2.6-.2-.3-.4-.5-.6-.7z" fill="#ff7752" opacity=".4"/><path d="m52.1 54.9c-1.4-.1-1.4-.9-2.4-.3s-.3 2.8 2.2 2.9 3.7-1.7 3.2-2.5-1.4.1-3-.1z" fill="#b54319" opacity=".3"/><path d="m51.8 48.5c-1.2 0-2.8 5.6-2.3 6.5 1.4 2.1 4.6 1.1 5.5-.3.5-.5-1.8-6.2-3.2-6.2z" fill="#ffd4ad"/><path d="m65.1 46c-3.9-1.7-7.5 3.2-4.7 5.7.6-.7 3.7-1.7 5.6-.2 1.6-1.2 1.2-4.7-.9-5.5z" fill="#261b18"/><path d="m64.2 46.5c-1.8.6-1 4.1.9 2.8 1.3-.8.7-3.3-.9-2.8z" fill="#947463"/><path d="m36 46.3c-2.1 1-2.3 4.4-.7 5.5 1.8-1.5 4.9-.6 5.5 0 2.8-2.6-.9-7.3-4.8-5.5z" fill="#261b18"/><path d="m39 46.8c-1.6-.5-2.2 2-.8 2.9 1.8 1.1 2.6-2.4.8-2.9z" fill="#947463"/><path d="m41.5 41.5c-1.9-.1-3.8-.1-5.7.3-1.2.3-2.7.8-3.6 1.6-.3.2-.7.7-.7 1.1.3 0 .6-.2.8-.2 1.5-.4 3-.5 4.5-.5 1.2 0 2.3.1 3.5 0 .8 0 1.9.1 2.3-.6.5-1.1-.1-1.6-1.1-1.7z" fill="#261b18"/><path d="m68.3 42.9c-.9-.7-2.4-1.1-3.5-1.4-1.9-.3-3.7-.3-5.6-.1-1 .1-1.6.7-1.1 1.6.4.7 1.5.5 2.2.5 1.1 0 2.3-.1 3.4-.1 1.5 0 3 0 4.4.3.3.1.5.2.8.2.1-.4-.3-.8-.6-1z" fill="#261b18"/><path d="m64.4 45.3c-3.6-.7-4.6 2.9-4.6 2.9s1.7-2.3 4.1-1.3c5.3 2.3 8.1-1.5 8.1-1.5-3.9 1.8-5.8.2-7.6-.1z" fill="#121b21"/><path d="m36.9 45.7c-1.8.4-3.8 2-7.6.2 0 0 2.8 3.8 8.1 1.4 2.3-1 4.1 1.2 4.1 1.2s-1-3.5-4.6-2.8z" fill="#121b21"/><path d="m50.9 60.5c-4.6.2-11.3 1.6-14.9-.3 6.2 9.1 9.9 10.7 14.6 10.9 5.9.3 7.9-3.5 8.7-6.4.4-1.2 3.3-4.3 4.4-5-3.7.9-7.3.6-12.8.8z" fill="#ff3b3b" opacity=".8"/><path d="m38.7 61.8s3.7 6.1 11 6.2c4.7 0 7.8-1.5 8.6-3.6.9-2.3 2.9-3.1 2.9-3.1-12.7 3-22.5.5-22.5.5z" fill="#8f2621"/><path d="m41.5 62.3s.2 1.9 2.9 2.5c3.4.9 7 .9 10.7.3 2.5-.4 3.7-3.3 3.7-3.3s-7.3 1.7-17.3.5z" fill="#fff9f0"/><path d="m51.6 65.4c-3.3.2-6.1 0-7.8-1-1.2-.7-1.3.1-1 .6 0 0 1.1 2.5 6.7 3.1 5.4.5 8.1-2.6 7.5-3.1-.7-.6-2.3.3-5.4.4z" fill="#fff9f0"/><path d="m41.5 62.3s.2.9.7 1.3c0 0 12.5-1.2 15.5-.2 0 0 .9-1 1-1.6 0 0-8.8 1.6-17.2.5z" fill="#e8dac5"/><path d="m44.8 64.8c4.5 2.5 9.9.3 9.9.3-5.7 1.2-9.9-.3-9.9-.3z" fill="#e8dac5"/><g fill="#313142"><path d="m40.9 79.9s-2.3.9-3.7 1.9c-2 1.2-4.5 4.3-3.7 14.2h6.7c-.5-6.5-.9-12.4.7-16.1z"/><path d="m57.4 82.4c-1.1-1.2-4.2-2.4-4.2-2.4 1.6 3.6 1.3 9.6.7 16h6.5c.7-8.7-1.1-12.1-3-13.6z"/></g></g></svg>