<svg enable-background="new 0 0 96 96" viewBox="0 0 96 96" xmlns="http://www.w3.org/2000/svg" xmlns:xlink="http://www.w3.org/1999/xlink"><clipPath id="a"><circle cx="48" cy="48" r="48"/></clipPath><linearGradient id="b" gradientUnits="userSpaceOnUse" x1="47.6041" x2="47.6041" y1="73.9931" y2="78.6347"><stop offset="0" stop-color="#ee996d"/><stop offset=".01630819" stop-color="#ee9a6e"/><stop offset=".3731" stop-color="#f8b181"/><stop offset=".7088" stop-color="#fdbf8d"/><stop offset="1" stop-color="#ffc491"/></linearGradient><path clip-path="url(#a)" d="m0 0h96v96h-96z" fill="#fff"/><g clip-path="url(#a)"><path d="m40.4 83.6-2.3-4.7c-3.2 1.6-4 5.3-4.9 9.3-.3 1.3-1.1 4.7-1.9 7.8h5.4c.7-2.8 1.3-5.7 1.6-6.7.5-2.5 1.1-5.2 2.1-5.7z" fill="#1e1e29"/><path d="m57.8 78.9-2.3 4.7c1 .5 1.6 3.2 2.2 5.8.2 1 .9 3.9 1.6 6.7h5.4c-.8-3.1-1.6-6.5-1.9-7.8-1-4-1.8-7.7-5-9.4z" fill="#1e1e29"/><path d="m57.5 87.5c1.2-4.3.8-8.8-2.6-11.5-4.6-3.6-11.1-2.9-15.8.7-2.5 1.9-3.7 4.7-1.4 10.2 1.6 4 2.2 6.6 2 9.1h16.2c.1-1.9.5-4.5 1.6-8.5z" fill="#1e1e29"/><path d="m52.9 75.4c-1.8-.9-10.1-1-11.2.2-3 3.1-2.6 12.8 6.5 15.1 7.5-1.9 8.1-13.7 4.7-15.3z" fill="#e8e8e8"/><path d="m47.8 92.5c-.5 0-.9.4-.9.9s.4.9.9.9.9-.4.9-.9c0-.6-.4-.9-.9-.9z" fill="#313142"/><path d="m52.7 75.2c-.9-.5-1.4-3.5-1.2-5.7.3-5.2-8.6-5.4-8.6.3 0 2.5 0 4.6-.6 5.3-1.3 1.3-.5 3.5 5.9 6.1 3.5-1.8 6.7-4.6 4.5-6z" fill="url(#b)"/><path d="m52.3 74.5c2.1 5 2.1 12.3-4 16.1 7.7-.9 11.7-5.7 11.7-5.7s-1.5-1.7-2.5-2.7c.8-.6 2.4-1.1 3.7-1.2-1-2.3-6-5.6-8.9-6.5z" fill="#313142"/><path d="m42.5 74.8c-2.7.9-6.8 3.5-7.7 6.1 1.2.1 2.8.6 3.7 1.1-.9 1-2.3 2.9-2.3 2.9s4.3 5 11.9 5.7c-6.3-3.8-6.9-11-5.6-15.8z" fill="#313142"/><path d="m74.1 41.8c3.6-1 7.6-8.8 1.5-8.3 1.6 2.5-2.2 3.6-3.5 1.7-.1-.2-.1-.3-.2-.5-.2-3.1-3.4-5.2-5.8-7.1-3.5-2.8-8.1-5-12.6-6.1-7.9-1.8-17.3-1.4-23.6 3.9-2.5 2.1-4.7 6.5-8.2 7.4-4.3 1-6.7 5.4-3.3 8.2-1.8 1.1-3.5-.2-3.8-1.9-3.7 2.6-5.1 7.6 0 9.9-6 3.1-4.5 9.4 1.9 12.2-3 2.8-1.5 7.6 1.6 9.4-.2-2 1.6-6.4 5-4.1 2.1 1.4 1 5.1-1.9 3.2-.8 3.4 4.9 5.4 6.6 2.7-.2 2.5 1.5 3.5 3.8 3.3 3.5-.2 4.7-2.6 7-3.3 2.9-.9 6.4-1 9.4-1 5.7-.1 10.7 5.6 16.4 3.1 2.2-.9 3.3-2.4 3-4.5-1.6 1.1-5.6-.5-2.3-3.1 1.7-1.3 4.1-.1 5.8-1.1 2-1.2 1.2-5.4 1.3-5.5 1.4-.9 3.8-1 3.9 1.5 2.9-5.8.1-7.5-3-7.9 7.3-1 8.6-10.7 1-12.1z" fill="#c93712"/><path d="m68.2 58.3c-1.1 0-2 .9-2 2s.9 2 2 1.9c1.1 0 2-.9 2-2s-.9-1.9-2-1.9z" fill="#fff9f0"/><path d="m45.9 20.9c-11.6 1.1-20.7 11-20 26.8.8 15.7 12.1 28.3 24.4 26.9 10.2-1.1 18.9-13.9 17-31.2-1.7-15.4-9.7-23.6-21.4-22.5z" fill="#ffc38f"/><path d="m22.9 45.2c-5.1 2.3-2.7 11.1 1.5 12.4 1.4.4 2.8.3 4.2 0 0-.1.1-.1.1-.2.6-1.2-.7-7.1-1.1-8.3-.9-3-2.2-5-4.7-3.9z" fill="#ffc38f"/><path d="m25.8 48.2c-1.4-.7-4.9.2-3.4 3.1 1-2.5 2.4-.7 2.1 1.1-.2 1.2-1.5 1.1-.3 2.8.6.9 2.1.7 2.8.2 2.4-1.3.5-6.3-1.2-7.2z" fill="#d14f2e" opacity=".4"/><path d="m41.6 27c-3.2.6-6.2 1.6-8.9 3-4.1 2.1-4.4 4.3-6.4 8.3-1 2-3.5 4-1.1 6.1-.7.3-1.3.8-1.6 1.5-.7 1.2-.8 2.8-.4 4.2.5 1.6 1.8 2.2 1.1 4.1-.4 1.2-.6 2.3-.1 3.5 1.4 3.5 9 4.4 9.2-.3 0-.4 0-1.3-.4-1.5-.4-.3-1.1.1-1.6.1-.8 0-1.7-.5-1.9-1.4-.2-1 .7-1.6 1.4-2.1.7-.6 1.4-1.4 1.4-2.3 0-1.5-1-1.7-1.9-2.4-1.5-1.3-1-1-.2-2.4 1-1.6 1.6-3.8-.4-5.1 1-.1 1.9-.5 2.1-1.6 1.7.9 3.7-.9 4.2-2.4-.2.5 1.9-.4 2-.5.7-.5 1.2-1.7 1.5-2.4.1 2.1 2.4 3.6 4.1 1.9 1.1 2.7 3.4 2.6 5.8 2 .9 3.1-1.7 1.8-2.6 3.3-1.4 2.5 3.8 3.7 5.2 3.1 1.6-.6 2.5-2.4 2.4-4.1.2 2 3 1.1 4.1.3.6 2.8 3.2 3.4 5.2 1.5.4 4.6 6.3 4.5 5.2-.8-2.9-12.5-16-15.7-27.4-13.6z" fill="#bf3c1b" opacity=".2"/><path d="m70.4 22c2.6-5.4-8-9.5-12-6.5-.6-6.6-8.9-7-12.9-2.3-1.5-2.4-4.8-3-5.2-3.1-2.3-.4-4.8.1-6.3 1.8 2.2 0 5.9 4.3-.7 3.6-2.8-.3-4.4-1.3-7.1.2-2.2 1.2-3.7 3.3-1.6 5.4 0 0-4.9-.3-5.7 4.2-.3 1.8.4 2.3-1.4 3.7-1.2.9-2.5 1.5-4.1 1 0 1.8 1.7 4.1 2.5 4.7 1.7 1.2 3.6 1 5.4.2-.2 1.1 3.2 10.7 4.6 9.7-2.4 1.7-3.5 5.1-1.1 6.6.4.2.8.4 1.4.6-2.9 2.7-1.9 5.8-.5 6.7 1.5 1.1 4.3 1.4 6 .5.9-.5 1.7-1.4 1.5-2.5-1.3.3-2.6.7-3.6-.4-3-3 3.2-5.5.2-7.9-.6-.5-1.8-.6-1.8-1.6-.1-.9 1.1-1.4 1.5-2 1.5-2.2-.8-4.7-2.8-5.5 1.2-.1 4.8.5 4.4-1.8 2 1.7 4.8-.7 4-3 .4 1 2.2.7 2.9.3 1.2-.8 1.1-2.3 1.6-3.5.2 1.3.5 2.5 1.7 3.2 1.2.6 2.5.4 3.1-.8.7 2.6 3.3 4.7 5.5 2.1.5 1 .8 2.4.1 3.3-1.1 1.4-2.5-.1-3.4.6-1.1.9.9 2.7 1.7 2.9 1.5.5 3.6-.3 4.5-1.5.7-1 .6-2.2.6-3.4 1.2 2 3.3 3.4 5.4 1.3 1.5 1.9 3 2.8 5.1.9 1 1.7.9 4 3.3 4.4 2.9.4 2.7-2.9 2.2-4.9-.7-2.4-1.5-7.2 1.3-9.3 1.7-1.3 4.3-.5 3.5 1.8 2.5-1.6 2.8-4 1.7-6.3-.7-1.6-2.9-3.1-5.5-3.4z" fill="#c93712"/><path d="m26.3 59c-1 0-1.8.9-1.8 1.9s.8 1.8 1.8 1.8 1.8-.9 1.8-1.9-.8-1.8-1.8-1.8z" fill="#fff9f0"/><path d="m69.3 35c-.1-1.3 0-2.1-.3-3.6-.4-1.9-1.5-2.4-3.2-2.3 2-3 5.8-3.5 8.3-1 .9-3.3-3.1-6.3-6.4-5.4.7-1.9 1.3-4.3-.6-5.8-2-1.6-5.3-1.8-7.5-.4-1.8 1.1-3.8 3.3-6.4 1.7 1.5.9 5.2-4.2.8-6.1-2.7-1.2-5 .4-6.8 2.1-.6.6-1.1 1.2-1.5 1.9-1.8-3.5-4.6-5.6-9.1-4.6 3.4.1 4.8 5.3 1.7 6.8-1.8.9-3.4-1-4.8-1.7-1.3-.6-3.4-.8-4.8-.4-1.3.4-3.1 1.7-3.6 2.9 2.4-.3 3.8 4.4 9 2.9-2.2 1.9-4.6 2-6.6 1.1-1.3-.6-3.1-1.2-4.6-.3-2.2 1.2-1.7 4.4-2.8 6.3-1 1.7-1.9 2-3.8 2.5 1.9 1.3 3 1.4 5.4 1.1-1.6.2-2.5 2.4-2.7 3.6-.2 1.6 1.2 2.9 1 4.4-.2 1.3-1.9 2.1-3.1 2 .8.9 2 .9 3.1.5 1.3-.5 1.6-2.2 2.8-2.5 1.5-.3 3.1 2.2 3.1 3.4 2.3-1.1-.4-4.7-1.8-5.7 1.5 0 5.6-.2 5.4-2.3.2 1.3 2.9 0 3.3-.7.5-1 .3-2.4-.7-3.1.8.1 2.4.9 3.1.1.6-.7-.1-2.3-.5-2.9 6.9 2.7 4.9-4.5.7-4.4 3.2-.3 4-.7 4.4-5.7 0-.1 0-.1 0 0 .2 2.9-.5 5.7 4.3 5.3-7 2.5-4.2 8.1 2.7 6.5-1.1.2-1.1 2.2.4 3.4 1 .7 3.1.3 3.4-.2 1.2 1.9 1.6 3.6.1 5.3 1.7.1 2.3-2.4 2.5-3.6 1.3.8 2.4 1.9 4 1.3 1.2-.5 1.8-1.8 2.6-2.7 0 2.1.8 3.7 2.1 3.9 1.5.3 2.7-.2 3.8-1.3-.1 1.8.7 3.3 1.6 4.2s2.9 2 4.7.8c-.8 0-1.4-.4-1.7-1 2.9-.3 5.2-1.8 5-4.9-1.8 1.2-5.9 1.7-6-1.4z" fill="#e85216"/><path d="m39.9 19.8c0-.1 0-.1 0 0z" fill="#e85216"/><g fill="#c93712"><path d="m56.6 30.9c1.3 4.7 5.3 5.9 7.7 2.1-2.5 2.3-6.6.4-7.7-2.1z"/><path d="m25.6 36.2c2.8 2.4 6.2.1 4.8-3.4-.3 2.3-3.1 4.1-4.8 3.4z"/><path d="m64.6 34.7c-1.7 3.2 1.5 5.8 4.6 3.6-2.4.3-4.9-1.8-4.6-3.6z"/><path d="m60.6 27.3c2.1 2.5 4.8 3 8 1.8l-.1-2.2c-1.9 1-4.9 1.5-7.9.4z"/><path d="m62.1 21c2.1 2.5 4.1 2.3 6.1 1.6l.4-2.4c-1.4 1.2-4.3 2-6.5.8z"/><path d="m18.7 32.9.7 2.1c3.4.1 5.7-1.3 6.8-4.4-2.3 2.1-5.3 2.6-7.5 2.3z"/></g><path d="m14.3 42-.1-1.4c-1.4 1.6-2.5 3.4-1.4 5.4.7 1.3 2.6 2.7 4.2 1.6.6-.4.8-1.6 1-2.3 0 0-.1-.1-.1-.1-2 .2-4.1-1.3-3.6-3.2z" fill="#e85216"/><path d="m16.3 49.6-1.2.7c-2.8.1-4.2 4.7-3 6.7.7 1.2 2.3 2.1 3.7 2.3-1-1.6-1.9-3.4-1.5-5.3.5-1.6 2-2.7 2-4.4z" fill="#e85216"/><path d="m76.2 44.1c-.7-.5-1.6-.9-2.5-1v.5c2.5 3.2 2 5.6.6 8.9 0 0 .1.1.1.1 3.5-1.5 5.1-6.2 1.8-8.5z" fill="#e85216"/><path d="m74.4 55.3-1.1-.3c-.5 2.7 2.9 2.1 3.3 4.1.6-1.6.3-3.9-2.2-3.8z" fill="#e85216"/><path d="m16.8 62.7c-1.4 1.4-1.2 4.4.3 5.8.1-.9.6-1.6.6-2.4s-.6-1.5-.5-2.4z" fill="#e85216"/><path d="m65.8 53.7c-.6-1.1-2.1-1.4-3.2-1.5-1.4-.1-3.4.3-2.3 2.5.6 1.2 6.1 2.4 5.8-.3-.1-.2-.2-.4-.3-.7z" fill="#ff7752"/><path d="m39.6 53.3c-.8-1.2-2.6-1.2-3.8-1-1.6.2-3.7 1.2-2.1 3.5.8 1.2 7.2 1.3 6.3-1.7-.1-.3-.2-.6-.4-.8z" fill="#ff7752"/><path d="m57.8 42.2c3.1.3 5.7-.6 10.4-.2-1.8-2.2-8.1-2.3-10.4.2z" fill="#c93712"/><path d="m50.9 54.7c-1.1 0-1.5-.4-2.2 0s.9 1.9 2.2 1.7c1.5-.1 2.7-1.3 2.3-1.8-.5-.4-1.2.1-2.3.1z" fill="#d14f2e" opacity=".4"/><path d="m30 41.5c5.8.1 7.8.4 11.8.3-2.1-2.8-9.2-2.6-11.8-.3z" fill="#c93712"/><path d="m36.9 44.5c-3.1-1.2-4.6 4.5-2.5 6.2.9-.3 2.1-.3 3 .1 1.9-1.2 1.8-5.5-.5-6.3z" fill="#1c5c57"/><path d="m37.4 46.4c-1.3.2-.8 2.8.5 2.1 1-.5.6-2.3-.5-2.1z" fill="#6cd9d2" opacity=".7"/><path d="m63.9 44.5c-3.1-2-5.8 5.3-2.4 6.3.8-.6 1.8-.6 2.7-.4 1.2-1.5 1.4-4.8-.3-5.9z" fill="#1c5c57"/><path d="m63.7 46.1c-1.2 0-1 2.7.3 2.2 1-.3.8-2.2-.3-2.2z" fill="#6cd9d2" opacity=".7"/><path d="m64 44.4c-2.8-1.1-3.8 2.3-3.8 2.3s1.4-1.7 3.3-.6c4.4 2.4 7.2-.5 7.2-.5-3.4 1.1-5.2-.6-6.7-1.2z" fill="#121b21"/><path d="m34.8 44.6c-1.1.6-3.8 2.3-7.2 1.3 0 0 3.3 2.9 7.5.3 1.8-1.2 3.4.3 3.4.3s-.7-3.4-3.7-1.9z" fill="#121b21"/><path d="m60.3 56.2c-.3 1 0 1.9.5 2.4-1.6 4.1-6 6.7-11.2 6.7-5 0-9-2.6-10.7-6.1.4-.5.6-1.4 0-2.5-.6 1.5-2.4 2.1-3.8 1.5.6 1.1 1.4 1.5 2.2 1.6 2 3.9 6.4 6.8 11.9 7h.5c5.9 0 10.9-3 12.8-7.7.8-.1 1.6-.7 1.9-1.8-1.2.8-3.1.4-4.1-1.1z" fill="#f04d4d"/></g></svg>