<svg enable-background="new 0 0 96 96" viewBox="0 0 96 96" xmlns="http://www.w3.org/2000/svg" xmlns:xlink="http://www.w3.org/1999/xlink"><clipPath id="a"><circle cx="48" cy="48" r="48"/></clipPath><path clip-path="url(#a)" d="m0 0h96v96h-96z" fill="#86b7e2"/><g clip-path="url(#a)"><g fill="#313142"><path d="m40.7 83-.6-7.8c-11 2.6-14.7 11.4-15.4 20.8h11.4c.2-3 1.2-11.4 4.6-13z"/><path d="m58.3 75.2-.6 7.8c3.3 1.6 4.3 10 4.6 13h11.4c-.7-9.4-4.4-18.3-15.4-20.8z"/><path d="m63.6 78.7c-3.2-7.3-23-8.1-28.9-.2-2.7 3.6-1.8 11.1-.4 17.5h28.8c1.5-6 2.4-13 .5-17.3z"/></g><path d="m52.6 83.4s-1.1-2.4-4.2-1.9c-2.8.5-3.2 2.9-3.2 2.9l2.3 2.3-1.8 9.3h7.4l-2.7-9.1z" fill="#379bdb"/><path d="m38.8 78.9c1.3 5.6 6.1 8.3 6.1 8.3l4.3-4.5 4.6 4.3c4.4-4.3 5.3-5.1 5.7-8.8.3-3.8-21.9-4.5-20.7.7z" fill="#1e1e29"/><path d="m38.9 75c-2.1 6 5.6 10.9 5.6 10.9l4.6-3.2 4.3 3s8.5-4.9 5.3-11.9c-2.8-6.3-17.3-5.8-19.8 1.2z" fill="#3c3c4d"/><path d="m45.7 67.8c-2.8.6-4.7 3.3-4.9 6.1-.2 2.2.2 3.4 1.4 4.6.9.9 2.3 1.7 3.8 2.2 1 .3 2.9 1.6 3.2 1.6.1 0 .7-.5 1.7-1 1.4-.7 3.5-1.7 4.3-3.3 1.2-2.3 2.2-6.8 0-8.6-2.3-1.9-6.8-2.2-9.5-1.6z" fill="#f7b07c"/><path d="m53.8 87.1c-.6.1-.7 6.8.2 7 .8.2 10.1.1 10.6-.1s.6-6.3 0-6.7c-.6-.6-10.8-.2-10.8-.2z" fill="#f06799"/><path d="m63.8 88.2c-.5-.2-9.4-.1-9.4-.1-.5 0-.6 2.6.2 2.7.7.1 8.7 0 9.2-.1.4 0 .5-2.3 0-2.5z" fill="#f5f5f5"/><path d="m70.7 32.5c1.4-12.6-8.8-21.8-26.6-20.2-31 2.7-25.5 46-16.6 44.1 6.5-1.4 13-3.4 19.4-5.1 6-1.6 12.7-.5 18.9-.1 4.8.3 4.7-1.8 4.9-5.7.5-7.3-.3-10 0-13z" fill="#4f2c1e"/><path d="m45.3 21.5c-11.4 2.4-19.3 19-17 34.4 1.6 11.6 10.6 24.2 24 23.1 13.7-1.1 20.3-18.2 18.4-32.4-2-15.5-9.4-28.3-25.4-25.1z" fill="#ffcb9e"/><path d="m24.2 49.5c-5.6 1.6-3.3 9.8 1.3 11.4 1.5.5 3 .6 4.5.5 0 0 .1-.1.1-.1.7-1.1-.6-6.5-.9-7.7-.9-2.9-2.3-4.9-5-4.1z" fill="#ffcb9e"/><path d="m46.2 21.8c-4.6 0-11.4-.2-15 3.1-2.9 2.7-3.1 7.7-3.2 11.5-.1 1.4.1 12.2.9 9.8 1.4-4.2 4.8-5.9 4.7-10.3 6.6 2.9 16.5 2.5 25.1 1.6 5.4-.6 9.7-2 10.9 2.5-.7-3.4-3.7-13.6-4.6-14.1-6-3.3-12-4.1-18.8-4.1z" fill="#bf3c1b" opacity=".3"/><path d="m26.2 52.5c-1.3-.6-4.4.5-2.9 3 .8-2.3 2.2-.8 2 .8-.1 1.1-1.3 1.1-.1 2.5.6.8 1.9.5 2.5 0 2-1.3 0-5.6-1.5-6.3z" fill="#bf3c1b" opacity=".3"/><path d="m76.1 15c-7.2 6-19.3-6.8-35.8-1.6-22.6 7.2-13.8 31.2-13.7 34.1.1 2.5 1.6 5.6 2.4 6.6.6.3 2 .3 3.1 0-2.1-1.9-2.9-7.1-1.4-12 .9-2.7 2.2-4.6 1.9-8.3 2 1.8 16.3 4.3 34.1.3 5.8-1.3 9.2-4.9 10.9-7.7-1.5.1-2.6.3-4.4.6 2.6-2.7 2.9-8.1 2.9-12z" fill="#4f2c1e"/><path d="m57.3 14.6c-8.2-2.2-20.6-2.2-26.9 4.5-6.3 6.8-.7 12.5 21 11.9 19.8-.5 23.8-14.7 23.8-14.7-5.9 3.1-9.8.5-17.9-1.7z" fill="#693a27"/><path d="m25.5 49.3c2 .1 2.3 3.9 3.7 4.9.6.2 1.9.2 2.9-.2-1.5-2.2-1.9-7.7-2-9.3-1.1 2.4-6.4 4.5-4.6 4.6z" fill="#4f2c1e"/><path d="m39.6 45.8c-3-1.2-4.8 4-2.7 5.7.9-.3 2-.2 2.9.2 1.9-1 2-4.9-.2-5.9z" fill="#121b21"/><path d="m53.1 54.3c-1.5.1-2.1-.5-3.1.1s.5 2.7 3.1 2.5 3.7-2.2 3.2-2.8c-.7-.6-1.5.2-3.2.2z" fill="#bf3c1b" opacity=".3"/><path d="m52.1 46c-1.3.1-1.5 3.6-1.9 5.2-.4 1.7-.7 3.2 0 3.7 1.7 1.2 5.1.4 6.1-.6.4-.4-.6-2-1.4-3.7-.7-1.5-1.4-4.7-2.8-4.6z" fill="#ffdfc2"/><path d="m66.2 45.4c-3-1.6-5.3 4.9-2 5.6.7-.6 1.7-.9 2.5-.8 1.1-1.3 1.1-4-.5-4.8z" fill="#121b21"/><path d="m38.8 46.6c-1.2.4-.3 2.7.9 1.9.8-.6.1-2.3-.9-1.9z" fill="#7d8ba8"/><path d="m65.4 46.2c-1.1.3-.4 2.5.7 1.8.8-.5.3-2-.7-1.8z" fill="#7d8ba8"/><path d="m64.2 40.1c-2.2-.2-3.8-.6-3.8-.5-.1 1.2.2 3.8 1.8 3.8 1 0 2-.2 3-.1 1.8.1 3 .7 3.6.9.7.3 1-.8.7-1.1-.9-1.2-2.2-2.7-5.3-3z" fill="#4f2c1e"/><path d="m39 40.5c-3.3.8-4.4 2.4-5.3 3.8-.2.4.3 1.4 1 1 .6-.3 1.9-1 3.7-1.4 1.1-.2 2.2-.2 3.3-.3 1.8-.2 1.7-2.8 1.3-4 0-.2-1.7.3-4 .9z" fill="#4f2c1e"/><path d="m68.1 53.9c-1.1-1.4-3-1.4-4.4-1.1-1.8.3-4 1.5-2.1 4.2 1 1.5 8.2 1.5 7-2.1-.1-.4-.3-.7-.5-1z" fill="#ffa073"/><path d="m41.7 54.4c-1.2-1.4-3.2-1.3-4.6-1-1.9.4-4.2 1.7-2.1 4.5 1.1 1.5 8.7 1.2 7.2-2.5-.1-.4-.3-.7-.5-1z" fill="#ffa073"/><path d="m61.4 61.9c-.4.4-9 8.8-21.3.2-.5-.3-1.2-.3-1.5.1-.4.4-.2 1 .2 1.4 3.1 2.1 5.9 3.3 8.5 3.8 3.6.8 6.6.3 8.9-.4 4.2-1.3 6.7-3.8 6.8-3.9.4-.4.3-1-.1-1.4-.4-.2-1.1-.2-1.5.2z" fill="#c20902" opacity=".5"/></g></svg>