<svg enable-background="new 0 0 96 96" viewBox="0 0 96 96" xmlns="http://www.w3.org/2000/svg" xmlns:xlink="http://www.w3.org/1999/xlink"><clipPath id="a"><circle cx="48" cy="48" r="48"/></clipPath><linearGradient id="b" gradientUnits="userSpaceOnUse" x1="47.6048" x2="47.6048" y1="77.5993" y2="83.3098"><stop offset="0" stop-color="#ee996d"/><stop offset=".01630819" stop-color="#ee9a6e"/><stop offset=".3731" stop-color="#f8b181"/><stop offset=".7088" stop-color="#fdbf8d"/><stop offset="1" stop-color="#ffc491"/></linearGradient><path clip-path="url(#a)" d="m0 0h96v96h-96z" fill="#7bc0db"/><g clip-path="url(#a)"><path d="m40.6 79.8c-2.9 1.3-3.7 4.3-4.5 7.4-.3 1.4-1.5 5.9-2.5 8.7h5c1.1-3.8 3.3-12.1 4.1-12.4z" fill="#e8e8e8"/><path d="m54.2 79.8-2.2 3.7c.8.4 3 8.7 4.1 12.4h5c-.9-2.8-2.1-7.3-2.5-8.7-.7-3.1-1.4-6-4.4-7.4z" fill="#e8e8e8"/><path d="m56.1 91c1.1-3 .3-9-1.4-10.9-4.1-4.4-11.1-3-13.9-.6-1.1.9-2.9 5.1-1.4 11.8.3 1.5.5 3 .4 4.7h15.6c-.1-1.5 0-3.1.7-5z" fill="#1e1e29"/><path d="m48 89.1c-.4 0-.7.3-.7.7s.3.7.7.7.7-.3.7-.7-.3-.7-.7-.7z" fill="#313142"/><path d="m48.1 92.8c-.4 0-.7.3-.7.7s.3.7.7.7.7-.3.7-.7-.3-.7-.7-.7z" fill="#313142"/><path d="m52.9 78.5c-2.6-1.4.2-7.8-1.9-9.4-1.6-1.2-4.2-1.3-6-.6-3.6 1.4 0 9.1-3.5 10.5-.7.3-.8 1.1.5 3.1 1.6 2.5 2.8 3.8 5.9 5.1 2.5-1.1 5.1-3.4 5.9-5.6.7-1.7-.2-2.7-.9-3.1z" fill="url(#b)"/><path d="m40.5 85.6.6 4.7s6.3-2.6 6.9-2.6c.7 0 7.1 2.8 7.1 2.8v-4.8s-6 1.7-7 1.7c-.9-.1-7.6-1.8-7.6-1.8z" fill="#121219" opacity=".5"/><path d="m53 78.5s1.4 2.4-.1 4.8c-1.3 1.9-4.8 4-4.8 4l6.6 1.9c-.1 0 1.5-8.8-1.7-10.7z" fill="#313142"/><path d="m43.3 83.8c-2.2-3-1.5-5-1.5-5-3.2 2.1-.4 10.3-.4 10.3l6.6-1.8s-3.1-1.3-4.7-3.5z" fill="#313142"/><path d="m68.3 23.3c-2.7-3.5-3.6-7.5.9-7.8-2.9-2.1-11.2-4.4-20.3-4 .3-.8.1-1.4.8-2-3.9.5-8.6.6-13.6 3.6-2.3 1.4-3.3 3.5-5.9 4.2-2.6.8-4 1.2-6.5 2.6-5.3 3-8.1 9.5-8.7 11.4 1-1 3.4-1.6 4.4-1.2-1.9 3.2-2.1 6-1 9.2 1.2 3.3-1.7 7.7-.6 13.9 1.7 9.8 9.2 9.1 9 15.4 0-.1 5.5-3.3 6.1-4.2 1.2-1.6 1.4-3.7 2.7-5.3 3.2-4 8.8-5.8 13.7-5.7 3.6.1 4.9 1.6 7 4 1.4 1.6 6.7 3.6 9.9 10.2 1.6-1.9 3.2-4.9 3.2-7.2.5 1 2.7 1 4.9 0-2.5-2-4.6-8.6-4.3-11.8.2-2.2 4.1-4 2.2-9.7-.5-1.5-.9-1.2-1-2.8 1.9-.3 3.2-1.5 4.8-2.6-5.2-.1-4.5-6-7.7-10.2z" fill="#452a1f"/><path d="m67.2 57.5c-.9.1-1.6 1-1.5 2.1s.9 1.9 1.8 1.8 1.6-1 1.5-2.1-.9-1.9-1.8-1.8z" fill="#fff"/><path d="m46 24c-11.8 1-20.9 11.4-20 27.9s11.5 27.1 23.4 27.1c10.5 0 20.2-14.8 18.8-31.3-1.5-16.3-10.3-24.8-22.2-23.7z" fill="#ffc596"/><path d="m21.9 47.6c-5.3 2.4-2.7 11.6 1.8 13 1.4.4 2.9.3 4.4.1 0-.1.1-.1.1-.2.6-1.3-.8-7.4-1.2-8.7-1.2-3.3-2.6-5.4-5.1-4.2z" fill="#ffc596"/><path d="m24.9 50.8c-1.4-.8-5.1.2-3.5 3.2 1-2.6 2.6-.8 2.2 1.1-.2 1.3-1.6 1.2-.3 2.9.7.9 2.2.7 2.9.3 2.5-1.3.5-6.6-1.3-7.5z" fill="#b54d26" opacity=".3"/><path d="m25.8 59.1c-.9 0-1.6.9-1.6 2s.8 2 1.7 2 1.6-.9 1.6-2c-.1-1.1-.8-2-1.7-2z" fill="#fff"/><path d="m60.4 25c-6.4-.5-13.2-.1-19.4 1.5-9.9 2.6-17.5 13.5-16.6 23.7.5 5.9 2.5 13.8 9.7 13.3-.6-.9-1.2-1.6-1.7-2.5-2.7-5.2-3.8-13.7-1.8-19.4.4.1 2.4.7 2.3 1.2.4-4.3 2.2-6.1 6.1-7.6 2.8-1.1 6.6-2.4 9.6-2.6 2.4-.1 4.5 2 6.6 3.1 2.3 1.1 4.8 1.9 7.4 1.5-.4-.8-.8-1.7-.7-2.5.1-.5 3.2 2.7 3.4 2.9 1.1 1.5 2 3.3 2.2 5.2-.2-4.5-3.7-17.5-7.1-17.8z" fill="#bf3c1b" opacity=".3"/><path d="m62.5 23c-11.5-5.2-23.1-2-33.9 3.2-2.3 1.1-4.3 3-5.6 5.2-2.3 4.2-.3 14.9 1.8 23.5 1.6 6.8 7.2 7.4 7.2 7.4-5.3-7-2.2-24 0-27.7-.9 1.4-.6 4.3.5 5.5 0-3.9 3.3-5.2 6.2-6.7 3.3-1.7 8-3.2 11.7-3.3 1.4 2.6 7.1 5.8 10.1 5.4-.9-.7-1.5-2-.9-3 1.6.7 2.9.7 4.3 1.8.4.3 3.4 3 3.4 3.2-.1-2.9 1.1-6.1.2-8.9-.9-2.5-2.5-4.5-5-5.6z" fill="#452a1f"/><path d="m68.2 25.9c-1.7-2-4.2-6.1-9.2-7.2 1.2-1.3 4-2.7 6.1-3.4-2.9-1-7.6-1.9-11.1-1.7-1.5.1-3 .9-4.5.4-.5-.2-2.5-1.6-1.5-3.4-2.7.6-6.1 1.6-8.6 2.9-2.4 1.2-4.3 3.1-6.7 4.3-3.1 1.6-6.1 1.2-10 3.7-2.4 1.6-3.9 5-4.8 6.1 1.6-.8 6.2-2.9 7.9-2.6-2.2 5.1-1.9 7.9-6.7 12.6 9.6 1.4 11.5-6 14.9-7.1-.2 1.6-.9 3.1-1 4.7 4.4-5.7 11.2-6.9 17.8-7.7 1 1.8 4.3 4 6.3 4.6-.1-1.5 0-2.9.4-4.3 2.8.3 13.9 8 16.3 6.1-3.2-.1-3.3-5.2-5.6-8z" fill="#693a27"/><path d="m52.1 57.2c-1.2.1-1.7-.3-2.4.2-.8.5 1.1 2 2.6 1.7 1.6-.3 2.8-1.7 2.3-2.2s-1.2.2-2.5.3z" fill="#b54d26" opacity=".3"/><path d="m62.9 55.2c-1.8.1-3.1 1.2-3 2.4s1.6 2.1 3.4 1.9c1.8-.1 3.1-1.2 3-2.5-.1-1.1-1.6-1.9-3.4-1.8z" fill="#ffa26f"/><path d="m38.4 55.3c-2-.2-3.6.8-3.8 2.1-.1 1.3 1.4 2.5 3.3 2.7 2 .2 3.6-.8 3.8-2.1.2-1.4-1.3-2.6-3.3-2.7z" fill="#ffa26f"/><path d="m60 63.1c-.3.3-8.5 8-19.7-.2-.4-.3-1.1-.3-1.4.1s-.3 1 .2 1.3c2.8 2 5.4 3.2 7.8 3.7 3.3.8 6.1.4 8.2-.2 3.9-1.1 6.3-3.4 6.4-3.5.4-.4.3-.9-.1-1.3-.4-.3-1.1-.3-1.4.1z" fill="#c20902" opacity=".5"/><path d="m39.9 52.1c-.9-.4-2.1-.4-3.1 0-2.2-1.7-.8-7.5 2.4-6.4 2.4.8 2.6 5.1.7 6.4z" fill="#1c5c57"/><path d="m39.1 47.7c1.2-.2 1.6 1.7.6 2.2-1.3.7-1.9-1.9-.6-2.2z" fill="#6cd9d2" opacity=".7"/><path d="m29.7 47.4s3.5 2.9 7.7.1c1.9-1.2 3.5.2 3.5.2s-.9-3.4-3.9-1.8c-1 .6-3.7 2.4-7.3 1.5z" fill="#121b21"/><path d="m61.6 52.1c.9-.4 2.1-.4 3.1 0 2.2-1.7.8-7.5-2.4-6.4-2.4.8-2.7 5.1-.7 6.4z" fill="#1c5c57"/><path d="m63.8 47.7c-1.2-.2-1.6 1.7-.6 2.2 1.4.7 1.9-1.9.6-2.2z" fill="#6cd9d2" opacity=".7"/><path d="m71.7 47.4s-3.5 2.9-7.7.1c-1.9-1.2-3.5.2-3.5.2s.9-3.4 3.9-1.8c1.1.6 3.7 2.4 7.3 1.5z" fill="#121b21"/><g fill="#2b221c"><path d="m41.8 40.5c-1.9 0-3.7.1-5.6.7-1.2.4-2.6 1.2-3.5 2.2-.3.3-.7.9-.6 1.4.3 0 .5-.2.8-.3 1.4-.6 2.9-.7 4.4-.9 1.1-.1 2.3 0 3.4-.2.8-.1 1.8.1 2.2-1 .5-1.2-.1-1.9-1.1-1.9z"/><path d="m60.8 40.5c1.6 0 3.1 0 4.7.7 1 .4 2.2 1.2 2.9 2.2.3.3.6.9.5 1.4-.3.1-.5-.2-.7-.3-1.2-.6-2.5-.7-3.7-.8-1-.1-1.9 0-2.9-.1-.6-.1-1.5.1-1.9-.9-.2-1.5.3-2.2 1.1-2.2z"/></g></g></svg>