<svg enable-background="new 0 0 96 96" viewBox="0 0 96 96" xmlns="http://www.w3.org/2000/svg" xmlns:xlink="http://www.w3.org/1999/xlink"><clipPath id="a"><circle cx="48" cy="48" r="48"/></clipPath><path clip-path="url(#a)" d="m0 0h96v96h-96z" fill="#7997a0"/><g clip-path="url(#a)"><path d="m21.5 96h10.4l-4.4-14.6c-4 2.5-6.1 4.1-6 14.6z" fill="#8d573e"/><path d="m65.8 81.4-4.4 14.6h10.4c.1-10.5-2.1-12.1-6-14.6z" fill="#8d573e"/><path d="m35.9 77.5c-4.3 3.6-5.5 7.9 1 14.2 1.9 1.8 3.6 3.2 5.1 4.2h8.6c4-4.3 10.6-12.5 8.8-16.8-3-7.4-19.2-5.2-23.5-1.6z" fill="#e8e8e8"/><path d="m37.3 81.3c1.5 4.8 5.5 7.3 5.5 7.3l4.5-4.3 4.8 4.1c4.6-4.1 5.5-6.6 5.9-8.1 1.2-4.6-22.7-5.4-20.7 1z" opacity=".1"/><path d="m58.1 76.4c.2.5.9 1.5.8 2-.5 5.6-4.3 12.8-7.3 17.6h12c1.1-5.5 3.3-13.5 2.6-14.2-1.1-1.2-6.2-4.5-8.1-5.4z" fill="#8d573e"/><path d="m35.8 78.3c.2-.5.5-1 .8-1.5-3.4 1.5-9.6 4.5-10.2 5.6-.5.9 2.5 7.1 4 13.6h13.3c-4.1-5.5-9.5-13.7-7.9-17.7z" fill="#8d573e"/><path d="m56.8 74.9c.8 7.9-3.2 16.1-6.1 21.1h4.5c3.2-3 6.2-5.9 6.1-6.1-.1-.8-2.7-4.7-2.7-4.7l4.7-2.9c-2.2-4.5-6.5-7.4-6.5-7.4z" fill="#a1664c"/><path d="m30.9 83.3 5.6 2.3s-2.4 5-2.5 5.9c0 .2 2.5 2.3 5.3 4.6h5.3c-3-4.5-7.2-11.9-7.2-20.2 0-.1-4.7 2.4-6.5 7.4z" fill="#a1664c"/><path d="m36.6 76.9c-2.2 5.7 5.9 10.4 5.9 10.4l4.8-3 4.5 2.9s8.9-4.7 5.6-11.4c-3-6.1-18.2-5.6-20.8 1.1z" fill="#f5f5f5"/><path d="m43.8 68.8c-2.9.6-4.8 3.4-5 6.2-.2 2.2.2 3.5 1.4 4.7.9.9 2.3 1.8 3.8 2.2 1.1.3 2.9 1.6 3.3 1.6.1 0 .7-.5 1.8-1.1 1.5-.8 3.5-1.8 4.4-3.4 1.2-2.3 2.2-6.9 0-8.8-2.4-1.7-6.9-2-9.7-1.4z" fill="#f2b88e"/><path d="m69.2 23.7c-.8-2.7-2.3-5.1-3.9-6.9-7.3-8.1-19.5-8.9-33.2-3 1.3.1 3.8.3 7.1-.3-7.2 3.3-15.7 7.7-17.6 16.3-4.6 21.1 12.8 11.4 18.6 13.1 6.7 1.9 23.3-.2 27.9-7.2 2.1-3.1 2.3-7.9 1.1-12z" fill="#b8b1ad"/><path d="m26.4 55.2c1.6 11.4 10.3 24 23.6 23.1 13.5-1 20.2-17.8 18.5-31.9-1.9-15.3-9.1-28.1-24.9-25-11.4 2.2-19.3 18.5-17.2 33.8z" fill="#ffcb9e"/><path d="m34.9 34.3c-1.6.8-5.8 2.9-8-.5-1-1.6-.3-4 .4-5.9.8-2.2 3.3-3.5 5.4-4.4 3.8-1.7 8.2-1.4 12.2-1.4 4.6.1 9.1.8 13.4 2.1 2.9.8 8.3 1.6 9.3 4.9 1.3 4.1-3.2 3.9-6.2 3.9-7.3 0-23-.5-26.5 1.3z" fill="#bf3c1b" opacity=".3"/><path d="m23.6 60.1c1.5.5 3 .6 4.5.5 0 0 .1-.1.1-.1.7-1.1-.3-7-.6-8.1-.9-2.8-2.5-4.3-5.2-3.5-5.5 1.5-3.3 9.6 1.2 11.2z" fill="#ffcb9e"/><path d="m25.8 58.1c2-1.3.1-5.6-1.4-6.3-1.2-.6-4.3.5-2.9 2.9.8-2.3 2.1-.8 1.9.8-.1 1.1-1.3 1.1-.1 2.5.6.8 1.8.5 2.5.1z" fill="#c94614" opacity=".3"/><path d="m61.2 17.1c-8.5-4.5-21.6-3.3-28.8 2-4.9 3.6-7.4 8-7.1 14.1.2 3.3 4.6 3.9 6.5 1.5 1.6-2 3.9-2.6 6.5-2.7 4.3-.2 21-1 25 .4 2.2.7 5 1.9 5.5-1.6.5-3.8-.5-7.7-3.1-10.4-1.3-1.4-2.8-2.5-4.5-3.3z" fill="#b8b1ad"/><path d="m67.1 29c.1-1.6 0-3.8-.5-5.2-.7-2.1-1.9-3.8-3.4-5.3-3.2-3.1-7.7-5.4-12.1-5.8-2.3-.2-6.8-.1-9 .8.7.4 2.6.8 3.2 1.3-3.1.7-6.2 1.6-9.1 3-.9.4-8.4 5.5-8.3 5.5 2.1 1.1 4.5.7 6.7.2 3.4-.8 6.8-1.1 10.2-.3 3.2.7 6.1 2.3 9.2 3.1.1-1.4-1.3-2.7-1.9-3.7 1.8 0 8.7 4.4 10.2 5.5-.3-1.2-2-3.8-2.2-5.1 1.8.3 5.8 3.9 7 6z" fill="#dfdddc" opacity=".7"/><path d="m30.8 35.5c-1.3 7.1-2.3 10.6-1.4 17 0 0-3.3-3.6-5.9-3.9-.2-.6-.6-4.9-.4-8.8.2-3.4 5.3-4.3 7.7-4.3z" fill="#bf9584"/><path d="m35.3 50.3c1.2-1.8-3.7-1.3-4.4-1 .4 1.1 2.4.3 3.1.4-.4.8-2.1 1-2.7 1.5-.6.6-.5.9.4.8.5-.1 3.3-1.3 3.6-1.7z" fill="#c94614" opacity=".3"/><path d="m65 50.1c-1.2-1.8 3.7-1.3 4.4-1-.4 1.1-2.4.3-3.1.4.4.8 2.1 1 2.7 1.5.6.6.5.9-.4.8-.6 0-3.3-1.2-3.6-1.7z" fill="#c94614" opacity=".3"/><path d="m66.3 53.1c.2.2.3.5.4.8.8 3.1-6.2 2.1-7.1.7-1.6-2.6.8-3.2 2.6-3.1 1.3 0 3.2.3 4.1 1.6z" fill="#ffa073"/><path d="m39.9 52.7c.2.2.4.5.6.8 1.6 3-5.8 3.7-7 2.5-2.2-2.2 0-3.4 1.8-3.9 1.4-.3 3.4-.5 4.6.6z" fill="#ffa073"/><path d="m37.3 51.1c-.9-.4-2-.5-2.9-.2-2-1.7-.2-6.9 2.8-5.6 2.2.8 2.1 4.8.1 5.8z" fill="#261b18"/><path d="m54.7 54.4c-.7-.9-1.7.1-3.6.1-1.7 0-2.4-.8-3.6 0-1.2.7.5 3 3.5 2.9 3-.2 4.3-2.2 3.7-3z" fill="#b54d26" opacity=".3"/><path d="m50.6 48.1c-3.2-.3-3.4 6.5-2.7 7.1 1.8 1.4 5.5.4 6.6-.7.4-.5-.9-6.1-3.9-6.4z" fill="#ffdfc2"/><path d="m65.2 45c1.6 1 1.6 4.2.4 5.6-.8-.4-2.3-.5-3.1 0-2.4-1.6-.3-7.4 2.7-5.6z" fill="#261b18"/><path d="m35.8 46.5c1-.4 1.7 1.3.9 1.9-1.2.8-2.1-1.5-.9-1.9z" fill="#e6d2c3" opacity=".7"/><path d="m63.7 46c1-.2 1.4 1.4.6 1.9-1.2.6-1.8-1.7-.6-1.9z" fill="#e6d2c3" opacity=".7"/><path d="m39.9 38.8c1.1.1 2.5 1.3 1.8 3.2-.5 1.5-2.9.8-6.1 1-3.5.2-4.5.6-4.8-.4-.2-1-.1-2.6 3-3.4 2.2-.6 4.1-.7 6.1-.4z" fill="#5e5a59"/><path d="m60.4 39c-1.1.2-2.4 1.4-1.6 3.3.6 1.5 2.9.6 6.1.6 3.5 0 4.6.4 4.7-.6.2-1-.1-2.6-3.2-3.2-2.1-.5-4-.5-6-.1z" fill="#5e5a59"/><path d="m59.7 57.3c1.1.8 4.1 3.9 6.5 1.6 1.2-1.1 3-5.6 2.4-11.5 2.1 2.4 1.3 6.9.7 10.1-.3 1.3-.4 3.7-.3 4.9.1 2 1.6 4 1.9 6 .4 2.4.3 5.8-2.4 6.5.3 3-.5 4.8-3.7 4.4 1 3.8-2.6 6.3-5.7 3.8.3 4.1-8.1 2.3-9.7.4-.4 1.9-3.4 2.1-5 1.8-2-.4-3.1-1.9-4-3.6-1.1 1.3-4 1.3-5.4.4-1.8-1.1-1.7-3.4-1.5-5.3-3.5 1-3.8-3-3.2-5.4-2.4-.5-2.6-4.8-2.6-6.8 0-2.4-2-14.9.5-15.7 2.2-.7 1.9 2.4 2.1 3.8 1.4 8.8 7.7 10.2 10.3 6.8 3.3-4.4 5.7-3 10.6-3.1 3.7-.3 5.4-1.3 8.5.9z" fill="#302f2d"/><path d="m59.9 64.2c-.3-1.2-3.1-1.8-4.1-2.7-.6 1.6-3.5.6-4.5-.1-1.1 1.2-4 1.5-5.1.4-.2.9-3.1 1.7-3.2 2.9 2.4 4.2 15.5 2.7 16.9-.5z" fill="#f5b37a"/><path d="m46.4 63.7c1.2-.6 7.7-1.2 9.3-.4-3.4 1.2-9.3.4-9.3.4z" fill="#bf795c"/><path d="m64 72.6c.3.9 1.1 2.7.5 3.6-1.1 1.7-4.5.6-5.8-.1.5.9 1.8 2.6.9 3.6-1.5 1.6-3.8-1.7-5.1-1.1-.8.3-.1 2.4-1.4 3-1.8.8-3.4-1.9-4.8-2.5-.9 1.2-2.3 1.9-3.8 1.7-2.2-.3-2-1.6-2.5-3.4-1.8 1.9-4.8 2.8-5.1-.7-2.3 3-2.6-3.4-1.5-5.1.8-1.2 1.8-2.4 2.9-3.3 1.7-1.5 2.6-.9 4.7-.4 3.4.8 7.8 1.6 11.3 1 4.1-.7 7.4-3.7 10.7.1.6.7 2 2.1 1.6 3.2-.1.6-2.3 1.3-2.6.4z" fill="#595655" opacity=".7"/><g fill="#b54d26"><path d="m63.6 37.6c-8.7-1.8-21-.8-26.3.3 8.9.2 15.8.1 26.3-.3z" opacity=".2"/><path d="m61.7 35.1c-7.6-1.6-18.5-.7-23.1.2 7.7.2 13.9.1 23.1-.2z" opacity=".2"/></g></g></svg>