<svg enable-background="new 0 0 96 96" viewBox="0 0 96 96" xmlns="http://www.w3.org/2000/svg" xmlns:xlink="http://www.w3.org/1999/xlink"><clipPath id="a"><circle cx="48" cy="48" r="48"/></clipPath><path clip-path="url(#a)" d="m0 0h96v96h-96z" fill="#c8dbe9"/><g clip-path="url(#a)"><path d="m32.4 76.9s-4.2 2.5-6.2 3.6c-3.2 1.7-4.7 2.5-4.7 6 0 3.4-.3 6.6-.6 9.5h11.3c.9-4.6 1.4-8.5 1.4-8.5z" fill="#1e1e29"/><path d="m68.2 80.5c-2-1.1-6.2-3.6-6.2-3.6l-1.2 10.6s.5 3.8 1.4 8.5h11.3c-.4-2.8-.6-6-.6-9.5 0-3.4-1.5-4.3-4.7-6z" fill="#1e1e29"/><path d="m66.4 79.9c-7-5-31.4-3.9-38.6.2-2.8 1.6.1 7 1.9 15.9h34.4c1.7-6.8 4.8-14.4 2.3-16.1z" fill="#1e1e29"/><path d="m57.1 76.5c-2.2-3.8-18.7-3.7-20.3.4-2 5.3 5.5 17.5 11.4 19.1h2.5c5.3-1.9 8.4-15.9 6.4-19.5z" fill="#379bdb"/><path d="m64.4 90.2c.1-.7-5.4-3.5-5.2-3.9s8.2-4.3 8.8-5.1c.8-1-7.3-7.6-10.5-6.7-.8.2 2.1 10.2-8.8 17.8-.3 1.3-.6 2.6-.7 3.7h7.3c4.6-3.9 9-5.5 9.1-5.8z" fill="#121219"/><path d="m64.1 88.3c.1-.8-5-2.1-4.8-2.5s7.9-6 8.6-6.8c.8-1-7.3-6.2-10.6-5.3-.8.2 2.1 10.6-9 18.2-.4 1.5-.6 2.8-.7 4.1h6.5c4.3-4.4 10-7.4 10-7.7z" fill="#3a3a4a"/><path d="m37.8 74.8c-3.8-.5-10.6 5.6-9.9 6.6.6.8 8.2 4.9 8.4 5.3s-4.7 3.1-4.5 3.8c.1.3 5.8 2.4 9.9 5.5h8.8c-.2-.9-.4-1.8-.6-2.7-13.3-6.5-11.3-18.4-12.1-18.5z" fill="#121219"/><path d="m38.3 73.9c-3.8-.5-10.5 4.2-9.8 5.2.6.8 7.6 6.3 7.8 6.7s-4.5 1.8-4.4 2.5c.1.3 6.8 3.6 10.7 7 .2.2.4.4.7.6h8.1c-.2-1-.4-2.1-.7-3.2-13.4-6.3-11.6-18.7-12.4-18.8z" fill="#3a3a4a"/><path d="m48.1 91.3s2.5 1.5 2.8 1.9c.1.2.4 1.5.6 2.7h.3c-.1-1.3-.3-2.7-.6-3-.6-.6-3.1-1.6-3.1-1.6z" opacity=".3"/><path d="m66.7 15.6c-2.1-1.4-4.6-2.2-7.2-2.3-2 0-6.3.8-7.6 2.5.7-.9 2.2-3 1.2-4.2-1.2-1.4-4.8.9-4.9 2.4-.6-1.1-2.1-4-3.8-2.7-1.3 1 .4 3.4.8 4.4-1.5-.6-2.9-.9-4.5-1.1-8.2-1.1-17.2.4-22.1 7.8-2.9 4.3-.9 9.1-.5 13.9.2 3.6-1.2 6.5-5.3 4.4-.3 1.8.7 3.3 1.9 4.4-.8.1-2.6.2-3.8.2 3.9 12.7 22.4 6.8 30.8 4.5 5.3-1.5 11.5-2.1 16.8-.4 1.9.6 3.7 1.9 5.7 2.3 1.8.4 2.8-.4 4.5-.8 2.9-.8 4.3-.8 4.3-4.5 0-3 1.8-5.8 2.6-8.7.8-3 .7-6.2 0-9.2-1.2-5-4.5-10-8.9-12.9z" fill="#db5f07"/><path d="m44.8 19.5c-13.1 1.1-25.6 15.6-21.2 31 2.3 8 2.2 9.9 5.6 17.9 3.4 8.1 11.6 13 22.8 12.3 10.2-.6 13.8-5.7 16.4-14.2 1.8-6 3.3-12.6 2.6-20.1-1.4-16-13.1-28.1-26.2-26.9z" fill="#fbb37b"/><path d="m34.1 49.3c.1.9 2.2.4 2.8.6-.5.6-2.2.6-2.8 1-.7.4-.6.7.2.7.5 0 3.3-.7 3.7-1.1 1.5-1.3-3.2-1.4-3.9-1.2z" fill="#d14f2e" opacity=".4"/><path d="m67.2 49c.5-.1 2.2.5 2.4-.4-.6-.3-4.5-.5-3.4.9.2.3 2.5 1.2 2.9 1.3.7.1.8-.2.3-.6-.5-.5-1.8-.6-2.2-1.2z" fill="#d14f2e" opacity=".4"/><path d="m58.9 41.2c.8 2.2 3.6 1.1 5.2.9 1.1-.1 3.7.4 4.9-.2.2-.1.3-.2.4-.3 3.2-3.7-12.1-4.8-10.5-.4z" fill="#ea750c"/><path d="m33.6 43.1c.1.1.3.2.5.3 1.4.4 4.2-.4 5.4-.3 1.8.1 5.1.9 5.6-1.5 1-4.7-15.6-2.1-11.5 1.5z" fill="#ea750c"/><path d="m65.2 50.8c-1.6-.2-3.9.2-2.9 2.9.6 1.4 7 3 6.7-.1 0-.3-.1-.6-.2-.9-.6-1.4-2.3-1.8-3.6-1.9z" fill="#f89e66"/><path d="m39.3 52.3c-1.3-.9-3.1-.5-4.4 0-1.7.6-3.6 2-1.3 3.9 1.2 1 8.1-.5 6.3-3.2-.1-.3-.3-.5-.6-.7z" fill="#f89e66"/><path d="m40.3 45.6c-2.8-1.5-5.1 3.5-3.3 5.4 1-.2 2 0 2.9.5 2-.9 2.5-4.8.4-5.9z" fill="#472117"/><path d="m62.3 56.3c-.5.1.4.3 1.6.7.2.1.4.2.5.4-6.5 1.8-17.7 3.3-25.8.4l.2-.2c1.2-.9 2.8-.9 2.3-1.2 0 0-2.7-.1-3.8.7-1 .7-1 3.2-.3 3.3.6.1.7-1.2 1.2-2.2.5 2.7 3 13.9 12.3 14.1 7 .2 9.2-3.5 9.6-7.8.2-2.4 2.7-5.4 4.3-6.8.1.7-.4 1.8.2 1.9.8.1 1.6-1.4 1.1-2.7-.4-1.4-3.4-.6-3.4-.6z" fill="#bc551e" opacity=".4"/><path d="m40 59.5s2.7 10.9 11 10.6c7.5-.2 8.5-3.9 8.9-6.5.5-3.5 2.6-4.8 2.6-4.8-12.2 6.4-22.5.7-22.5.7z" fill="#96342f"/><path d="m42.6 60.7s0 3.5 2.5 4.9c3.2 1.7 6.9 2 10.7.7 2.5-.9 4.2-6.2 4.2-6.2s-7.3 3.1-17.4.6z" fill="#fff5e6"/><path d="m52.9 66.2c-3.6 0-6.6-.6-8.2-1.5-1.4-.7-1.4.3-1.2 1.2 0 0 .3 3.6 6.8 4.3 5.6.6 8.2-4 7.6-4.9s-1.4.9-5 .9z" fill="#fff5e6"/><path d="m42.6 60.6s.1 2 .6 2.8c0 0 12.7-2 15.7-.6 0 0 .9-1.9 1.1-2.8 0 .1-9.1 3.2-17.4.6z" fill="#efdbbd"/><path d="m45.4 64.8c5.5 3.5 11.7.4 11.7.4-6.9 1.7-11.7-.4-11.7-.4z" fill="#efdbbd"/><path d="m63.8 50.1c.9-.4 1.9-.6 2.8-.3 1.4-1.2 1.8-4 .3-5.2-2.8-2.2-6.4 4.1-3.1 5.5z" fill="#472117"/><path d="m39.4 46.2c-1.2.3-.5 2.7.7 2 .9-.5.4-2.2-.7-2z" fill="#af968e"/><path d="m65.8 45c-1.2.1-.9 2.6.4 2 .9-.4.7-2.1-.4-2z" fill="#af968e"/><path d="m19.8 47.6c-6.5 1.8-3.9 9.9 1.3 11.4 1.7.5 3.5.5 5.2.3 0 0 .1-.1.1-.1.8-1.1-.6-6.5-1-7.6-.9-2.9-2.5-4.8-5.6-4z" fill="#fbb37b"/><path d="m61.2 27c-6.2-.9-12.8-.8-18.9.4-4.3.8-8.8 2.4-11.3 6.2-2.4 3.5-6.1 7.1-5.5 11.9.1 1 1.4 6 3.3 4.5.9-.7 0-4.3.7-7.8.6 2.3 1.9 3.4 3 4.2.3.2 5.8-7.9 7.2-8.6-.3 3.4 1.5 5.8 3.1 6.8.9-2.2 2.1-3.2 4.3-5.1.4.4 2.7 5.6 2.7 5.5 1-1 1.5-2.4 2.4-3.5 2.5-2.9 5.6-5.2 9.3-6.2 2.2-.6 5.7-1.2 6.8-3.6 1.8-3.9-4.9-4.4-7.1-4.7z" fill="#bc551e" opacity=".3"/><path d="m23.3 50.6c-1.7-.8-6.2-.1-4.4 2.6 1.4-2.2 3.1-.5 2.6 1.1-.3 1.1-2 .9-.5 2.5.8.9 2.6.7 3.5.4 2.9-1 .8-5.7-1.2-6.6z" fill="#d14f2e" opacity=".4"/><path d="m66.9 54.6c-3.3-2.7-8.5-.5-12.2.1-4 .7-8.1-.3-12-.5-3.8-.2-10.1 1.2-10.5 6.1-.5 6.5 5.1.7 6.5-1.5 0 1.1 2.3.7 3.8 0-1.6 1.9 2.7 1.4 3.5.5-.8 1.6 2.3 1.2 3.9.2-1.1 1.3 1.1 2.4 1.9.2-.5 1.5 2.1 1.7 2.2 0 2.1 1.6 3.5.5 2.5-.8 2.1 1.8 4 .5 3.4-.4 1.2.6 3.5 1.4 3.6-.7.9 1.8 2.2 4 3 4.3 1.4.5 5.7-3.2.4-7.5z" fill="#bc4411"/><path d="m71.1 46.7c-.4 2.2-.4 8.7-2.2 10.2-1.4 1.2-3.6-1-5.4-.2-1.1.5 4.2 17.2-3.7 17.4-2.9.1-3-2.9-8.2-2.1-2.6.4-5.5 4.5-8.9 2.9-6.6-3-6.2-12.6-4.6-16 1.2-2.7-5.2.2-7.3-2.5-1.3-1.7-1-4.5-2.2-6.2-1.5-2.1-3.5-1-3.6 1.3-.1 2.2.3 4.4-.3 6.5-1.5 5.7-.4 8 .7 5.9-.1.8-.7 5.8 1.2 3.7-.8 1.4-.2 6.4 1.8 4.9-.2 1.3.6 5.3 2 5.1.3 1.3 2.4 5.2 3.7 2.9-.2.4 1.6 2.6 1.9 3 .7.9 1.9 2.1 3.2 2 .7 0 .9-.6 1.6-.5.8.1 1.6 1.3 2.3 1.6.8.4 1.5.6 2.2-.1.9 1.7 3.4 2 4.6.5.7 1.6 3.7 1.4 4.3-.2 1.4 2.1 3.3-.6 4-1.8-.7 1.3 2.8 2.6 3.9-3.6.1 1.6 1.5 1.2 2.2.3.6-.8.8-2.1.9-3.1 2.1 1.6 2.7-2.8 2.6-4 2.1.5 1.6-4.1 1.3-5.1 2.6 1.2 1.4-3.9 1.1-4.8 1.1 2.9 2.6-1 .8-5.1 2.7 2.2 1.1-10.8.1-12.9z" fill="#bc4411"/><path d="m31.1 59.2c-.6-.8-2.6-3.6-2.5-4.6-.1 1.4-1.9.4-2.3-.3-.1.7-.2 1.7 0 2.4 0 .1 1.1 1.8 1.1 1.3-.1.9-1.6 7.5 1 5.9-.4 1.1.1 7.1 1.7 4.3 0 1.1-.1 5.5 1.8 5.1 2-.4 2.1-10.2 1.5-11.6-.5-.9-1.6-1.6-2.3-2.5z" fill="#d65b14"/><path d="m65.6 23.8c-3.7-2.2-8.1-4.1-12.3-4.6-2.4-.3-4.7-1.1-7.2-1.1-4.2 0-8.2 1.2-11.9 3-5.5 2.7-9.2 9-11 14.6-1 3.3-1.6 7-1 10.5.4 2.2 2.3 7 5.6 7.7.7.1 1.8-.3 1.5-2.9-.3-3.8-1.8-9.1 1.1-12.7-.7 1.9.4 4.2 1.7 5.5 1.6-3.2 4.9-6.9 8.5-7.7-.3 2.7 1.5 5.9 2 6.4.6-2 2-4.4 4.1-5.1.8 1.9 1.5 3.7 3 5.3 2.4-2.7 4.2-6 7.2-8.1 3.2-2.1 7.5-1.6 10.6-3.8 2.9-1.9.4-5.6-1.9-7z" fill="#db5f07"/><path d="m52 44.3c-3.6.2-4.7 9.3-2.7 10.4 2.4 1.4 6.6.7 8-.5.9-.8-1-10.2-5.3-9.9z" fill="#ffc08d"/><g fill="#d65b14"><path d="m55.8 74.1c-3.3-1.6-6.5.3-9.2 2.8-2.3 2.1-3 6.6 0 8.8.9.7 2.1.9 2-1.7 1.2 2.1 4.1 3.9 4.5 1 1.9 1.6 3.4.5 4.1-1.6 1.9 2.8 4.3-1.6 4.2-3.5 0-3.2-3.2-4.6-5.6-5.8z"/><path d="m61.3 54.1c-2.7.2-4 1.8-6.2 2.8-2.4 1.1-4.4.1-6.4-1-6.8-3.7-18.7.6-15.7 10 .4 1.2.7 2.6 2.1 3 1.7-3.9-.4-10 4.3-12.1-2 3.3 3.7.2 4.6-.2-2.5 3.8 2 2.1 3.8.9-.5.6-.7 1.2-.8 2 1.3.5 2.4-.6 3.3-1.5-.6 1.8 1.4 2.1 2.3 1 .5.9 1.1.8 1.4-.2.5.5 1 .3 1.6.6 0-.4.2-.7.1-1.2 1.2.7 3.9 1.2 2.9-1.1 1 1.7 4.7 1.7 3.9-.8 2.2 1.5 2.7 4.5 2.9 7 .1 1.6-.7 9 2.5 6.5 1.4-1.1 1.4-4 .8-5.5 3.1 2.3-.3-5.1-.8-5.8-1.6-3-3.4-4.7-6.6-4.4z"/><path d="m39.5 75.4c-1-.8-2.3-4.6-3.8-4.2s-.9 3.9-.9 5c0 .9 1.3 5.6 2.3 2.8-.3 1.3.4 3.6 1.6 4.3s2.7-.8 2.2-1.1c.9.6 1.7 1.9 2.7 2.2 3 1.1 3.3-5.7 3.4-7.7-.8.2-1.5.6-2.3.7-2.1.3-3.6-.7-5.2-2z"/><path d="m64 77.2c0-.1 0-.1 0 0z"/><path d="m65 71.9c-.9-.1-1 1.3-1.3 1.9-.7 1.1-1.6 1.9-2.9 2.2-.6.1-2.1-.3-2.6 0-1.1.7-.5 2.8.3 3.6 2.4 2.4 5.3 1.1 5.4-2.4 0 0 0 0 0-.1.9 1.6 1.9.1 2.2-1 .3-.7.1-4.1-1.1-4.2z"/></g><path d="m46.9 17.1c-5.4-2.2-11.6-2.1-17.1-.3-4.9 1.5-10.2 4.9-10.3 10.8-.1 2.8 0 5.1 1.1 7.6.7 1.4 3.6 4.9 2.7 6.4 2.1-.5 4-2.3 4.9-4.3-.2.9-.4 1.9-.6 2.8 1.2-1.9 3.2-3.1 4.6-4.8.6 2.5-2.2 4.2-.1 6.5-.3-.3 1.5-3.1 4.2-4.9 1.4-.9 3.6-2.7 5.3-2.6-.2 1.5.1 3.4.6 4.8 1.6-1.2 3-2.9 4.7-4 .5.8.7 1.8 1.1 2.7.4 1 1.2 2.2 1.4 3.2.4-.2.8-.5 1.1-.7 4.8-2.8 5.5-9.4 4.2-14.3-1.1-4-3.8-7.2-7.8-8.9z" fill="#ea771a"/><path d="m53.2 16.7c-.3.1-1.9 1.2-2.1 1 2.2 1.9 4.3 4.5 5.2 7.3.4 1.4.8 3 .7 4.4 0 .6-.5 2-.1 2.4.7.7 4.8-.4 5.6-.7 1.4-.4 2.7-.9 3.8-1.8.8-.7 1.3-1.6 2.4-1.5 3.8.5.8 8.4 3.8 10.1 0-1.3.2-2.3.6-3.5 1.8-5-.4-8.8-3.5-12.6-3.6-4.6-10.6-7.2-16.4-5.1z" fill="#ea771a"/></g></svg>