<svg enable-background="new 0 0 96 96" viewBox="0 0 96 96" xmlns="http://www.w3.org/2000/svg" xmlns:xlink="http://www.w3.org/1999/xlink"><clipPath id="a"><circle cx="48" cy="48" r="48"/></clipPath><linearGradient id="b" gradientUnits="userSpaceOnUse" x1="48.6578" x2="48.6578" y1="72.9954" y2="80.1736"><stop offset="0" stop-color="#ee996d"/><stop offset=".01630819" stop-color="#ee9a6e"/><stop offset=".3731" stop-color="#f8b181"/><stop offset=".7088" stop-color="#fdbf8d"/><stop offset="1" stop-color="#ffc491"/></linearGradient><path clip-path="url(#a)" d="m0 0h96v96h-96z" fill="#fff"/><g clip-path="url(#a)"><path d="m37.8 81.4-2.4-3.9c-4.4 2.8-7 8.1-6.7 13.9.1 1.6.4 3.1.9 4.6h4.9c-.7-1.5-1.1-3.1-1.2-4.8-.3-4.1 1.4-7.9 4.5-9.8z" fill="#ffc38f"/><path d="m61.5 77.5-2.4 3.9c3 1.9 4.8 5.7 4.6 9.8-.1 1.7-.5 3.3-1.2 4.8h4.9c.5-1.5.8-3 .9-4.6.2-5.8-2.4-11.1-6.8-13.9z" fill="#ffc38f"/><path d="m57.3 74.8c-5.7-3.2-14.1-2.1-17.9.5-5.6 3.8-3.9 10.3-2.4 20.7h22.2c1.7-9.5 3.6-18.1-1.9-21.2z" fill="#f0f0f0"/><path d="m49.3 85.5 2.3-2.3s-.6-2-3.2-2.1c-3-.2-3.7 2-3.7 2l2.4 2.4-2.9 7.2 2.5 3.3h3.1l2.9-3.4z" fill="#3a3a4a"/><path d="m40 74.2s-5.7 2.1-6.1 3.5c-.5 1.3 1.5 10.9 2.5 18.3h5.5c.2-6.2 0-15-1.9-21.8z" fill="#3a3a4a"/><path d="m62.3 77.7c-.5-1.4-6.2-3.4-6.2-3.4-1.8 6.4-2 15.3-1.7 21.7h5.7c.3-10 2.5-17.3 2.2-18.3z" fill="#3a3a4a"/><path d="m40.4 78.4c1.1 4.2 4.9 6.7 4.9 6.7l2.7-3.4 3.6 3.4c2.4-1.4 4.8-4.9 4.8-7.7.1-2.1-17.1-3.2-16 1z" opacity=".1"/><path d="m40.4 73.3c-3 4.7 4.6 10.6 4.6 10.6l3-2.7 3.4 2.8s7-4.4 4.5-10.2c-2.2-5.3-12.4-5.2-15.5-.5z" fill="#fbfbfb"/><path d="m46.2 67.8c-1.9.6-3.1 3-3.3 5.5-.2 3.2 3.2 7.4 5.5 7.5 1.8 0 9.2-5.8 4-11.5-1.4-1.8-4.4-2.1-6.2-1.5z" fill="url(#b)"/><path d="m75.4 42c3.6-1 7.7-8.8 1.6-8.4 1.6 2.5-2.3 3.6-3.5 1.8-.1-.2-.2-.3-.2-.5-.2-3.1-3.4-5.2-5.8-7.1-3.5-2.8-8.1-5.1-12.6-6.1-7.9-1.8-17.4-1.4-23.7 3.9-2.5 2.1-4.8 6.6-8.3 7.4-4.3 1-6.7 5.4-3.3 8.2-1.8 1.1-3.5-.2-3.8-1.9-3.7 2.6-5.1 7.6 0 9.9-6 3.1-4.5 9.5 1.9 12.3-3 2.8-1.5 7.6 1.6 9.5-.2-2 1.6-6.4 5-4.2 2.1 1.4 1 5.1-1.9 3.3-.8 3.4 4.9 5.5 6.6 2.7-.2 2.5 1.5 3.5 3.9 3.4 3.5-.2 4.7-2.6 7-3.3 2.9-.9 6.5-1 9.5-1 5.8-.1 10.7 5.6 16.5 3.1 2.2-1 3.3-2.4 3.1-4.5-1.6 1.1-5.7-.5-2.3-3.1 1.7-1.3 4.1-.1 5.8-1.1 2-1.2 1.2-5.4 1.3-5.5 1.4-.9 3.8-1 4 1.6 3-5.9.1-7.5-3-7.9 6.9-1.4 8.3-11.1.6-12.5z" fill="#c93712"/><path d="m69.5 58.6c-1.1 0-2 1-2 2.1s.9 2 2 1.9c1.1 0 2-1 2-2.1s-.9-1.9-2-1.9z" fill="#fff9f0"/><path d="m47 21c-11.7 1.1-20.8 11.1-20.1 26.9s12.2 28.5 24.6 27.1c10.3-1.1 19-14 17.1-31.4-1.8-15.5-9.9-23.7-21.6-22.6z" fill="#ffc38f"/><path d="m23.9 45.4c-5.1 2.3-2.7 11.1 1.5 12.4 1.4.4 2.8.3 4.2 0 0-.1.1-.1.1-.2.6-1.3-.7-7.1-1.1-8.3-.9-3-2.3-5-4.7-3.9z" fill="#ffc38f"/><path d="m26.8 48.5c-1.4-.7-4.9.2-3.4 3.1 1-2.5 2.5-.7 2.1 1.1-.2 1.2-1.5 1.2-.3 2.8.7.9 2.1.7 2.8.2 2.3-1.3.5-6.3-1.2-7.2z" fill="#d15426" opacity=".3"/><path d="m42.7 27.1c-3.2.6-6.3 1.6-8.9 3-4.2 2.1-4.4 4.3-6.5 8.3-1 2-3.5 4.1-1.1 6.2-.7.3-1.3.9-1.6 1.5-.7 1.2-.8 2.8-.4 4.2.5 1.6 1.8 2.2 1.1 4.1-.4 1.2-.6 2.3-.1 3.5 1.4 3.5 9.1 4.5 9.2-.3 0-.4 0-1.3-.4-1.5-.4-.3-1.2.1-1.6.1-.8 0-1.7-.5-1.9-1.4-.2-1 .7-1.6 1.4-2.1.7-.6 1.4-1.4 1.4-2.3 0-1.5-1-1.7-1.9-2.4-1.5-1.3-1-1-.2-2.4 1-1.7 1.6-3.8-.4-5.1 1-.1 2-.5 2.1-1.6 1.7.9 3.7-.9 4.3-2.4-.2.5 1.9-.4 2-.5.7-.5 1.3-1.7 1.5-2.5.1 2.2 2.4 3.6 4.1 1.9 1.1 2.7 3.4 2.6 5.9 2 .9 3.1-1.7 1.8-2.6 3.3-1.5 2.6 3.8 3.7 5.2 3.2 1.6-.6 2.6-2.4 2.5-4.1.2 2 3.1 1.1 4.1.3.6 2.8 3.2 3.4 5.2 1.5.4 4.6 6.4 4.6 5.2-.8-3-12.6-16.2-15.8-27.6-13.7z" fill="#bf3c1b" opacity=".2"/><path d="m71.6 22.1c2.6-5.4-8-9.5-12-6.6-.6-6.7-9-7-13-2.3-1.5-2.4-4.8-3-5.3-3.1-2.3-.4-4.8.1-6.3 1.8 2.2 0 6 4.3-.7 3.7-2.8-.3-4.4-1.3-7.2.2-2.2 1.2-3.8 3.4-1.6 5.4 0 0-5-.3-5.7 4.2-.3 1.8.4 2.3-1.4 3.7-1.2.9-2.5 1.5-4.1 1 0 1.8 1.7 4.1 2.5 4.7 1.7 1.2 3.6 1.1 5.5.2-.2 1.1 3.2 10.8 4.7 9.8-2.4 1.7-3.5 5.1-1.1 6.7.4.2.8.4 1.4.6-2.9 2.7-1.9 5.8-.5 6.8 1.5 1.1 4.3 1.4 6 .6.9-.5 1.7-1.4 1.5-2.5-1.3.3-2.6.7-3.7-.4-3-3 3.2-5.6.2-8-.7-.5-1.8-.6-1.8-1.6-.1-1 1.1-1.4 1.6-2 1.5-2.2-.8-4.7-2.8-5.5 1.3-.1 4.8.5 4.4-1.8 2 1.7 4.9-.7 4.1-3 .4 1.1 2.2.7 2.9.3 1.2-.8 1.1-2.3 1.7-3.5.2 1.3.5 2.5 1.7 3.2s2.5.4 3.2-.8c.7 2.6 3.3 4.7 5.5 2.1.5 1 .8 2.4.1 3.4-1.1 1.5-2.5-.1-3.4.6-1.1.9.9 2.7 1.7 2.9 1.3.1 3.4-.6 4.3-1.9.7-1 .6-2.2.6-3.4 1.3 2 3.3 3.4 5.4 1.3 1.5 1.9 3 2.8 5.2.9 1 1.7.9 4.1 3.3 4.4 2.9.4 2.7-2.9 2.2-4.9-.7-2.4-1.5-7.2 1.3-9.3 1.7-1.3 4.3-.5 3.5 1.8 2.5-1.6 2.8-4 1.7-6.3-.7-1.6-3-3.1-5.6-3.4z" fill="#c93712"/><path d="m27.3 59.3c-1 0-1.8.9-1.8 1.9s.8 1.8 1.9 1.8c1 0 1.8-.9 1.8-1.9-.1-1-.9-1.8-1.9-1.8z" fill="#fff9f0"/><path d="m40.9 19.8s0 .1 0 0c0-.1 0-.1 0 0z" fill="#e85216"/><path d="m70.5 35.2c-.1-1.4 0-2.2-.3-3.6-.4-1.9-1.5-2.4-3.2-2.3 2-3 5.9-3.5 8.3-1 .9-3.4-3.1-6.3-6.4-5.5.7-1.9 1.3-4.3-.7-5.9-2.1-1.6-5.3-1.8-7.5-.4-1.8 1.1-3.8 3.3-6.4 1.7 1.5.9 5.2-4.3.9-6.1-2.7-1.2-5 .4-6.9 2.2-.6.6-1.2 1.2-1.5 1.9-1.8-3.5-4.7-5.7-9.1-4.6 3.4.1 4.8 5.4 1.7 6.8-1.8.9-3.4-1-4.8-1.7-1.3-.6-3.4-.8-4.8-.5-1.4.4-3.1 1.7-3.7 2.9 2.4-.3 3.8 4.5 9.1 3-2.2 1.9-4.6 2-6.7 1.1-1.4-.6-3.1-1.2-4.6-.3-2.2 1.2-1.7 4.4-2.8 6.3-1 1.8-2 2-3.8 2.5 1.9 1.3 3 1.4 5.4 1.2-1.6.2-2.5 2.4-2.7 3.7-.2 1.6 1.2 2.9 1 4.4-.2 1.3-1.9 2.1-3.1 2.1.8.9 2 .9 3.1.5 1.4-.5 1.7-2.3 2.8-2.5 1.5-.3 3.1 2.2 3.1 3.4 2.3-1.1-.4-4.7-1.8-5.7 1.5 0 5.7-.2 5.4-2.3.2 1.3 2.9 0 3.3-.7.5-1 .3-2.5-.7-3.1.9.1 2.4.9 3.1.1.6-.7-.1-2.3-.5-2.9 6.9 2.7 4.9-4.5.7-4.4 3.2-.3 4.1-.7 4.4-5.7 0-.1 0-.1 0 0 .2 2.9-.5 5.8 4.3 5.3-7 2.5-4.2 8.2 2.8 6.5-1.1.2-1.1 2.3.4 3.4 1 .7 3.1.3 3.5-.2 1.2 1.9 1.6 3.6.1 5.3 1.7.1 2.3-2.4 2.6-3.6 1.3.8 2.4 1.9 4 1.3 1.2-.5 1.8-1.8 2.6-2.7 0 2.1.8 3.7 2.1 4 1.5.3 2.7-.2 3.8-1.4-.1 1.8.7 3.3 1.6 4.3.9.9 2.9 2 4.7.8-.8 0-1.4-.4-1.7-1 2.9-.3 5.2-1.9 5-4.9-1.9.9-6 1.4-6.1-1.7z" fill="#e85216"/><g fill="#c93712"><path d="m57.7 31.1c1.3 4.7 5.4 6 7.8 2.1-2.5 2.2-6.6.3-7.8-2.1z"/><path d="m26.6 36.3c2.8 2.4 6.2.1 4.8-3.4-.3 2.3-3.1 4.1-4.8 3.4z"/><path d="m65.7 34.9c-1.7 3.2 1.5 5.8 4.6 3.6-2.3.3-4.8-1.8-4.6-3.6z"/><path d="m61.8 27.4c2.1 2.5 4.9 3 8 1.8l-.1-2.2c-1.9 1-4.9 1.5-7.9.4z"/><path d="m63.3 21.1c2.1 2.5 4.1 2.3 6.1 1.6l.4-2.4c-1.4 1.1-4.3 2-6.5.8z"/><path d="m19.6 33.1.7 2.1c3.4.1 5.8-1.3 6.8-4.4-2.3 2-5.2 2.5-7.5 2.3z"/></g><path d="m15.1 42.2-.1-1.4c-1.5 1.6-2.5 3.4-1.4 5.4.7 1.3 2.6 2.7 4.2 1.6.6-.4.8-1.6 1-2.3 0 0-.1-.1-.1-.1-1.9.2-4-1.3-3.6-3.2z" fill="#e85216"/><path d="m17.2 49.8-1.2.7c-2.8.1-4.2 4.7-3 6.7.7 1.2 2.3 2.1 3.7 2.3-1-1.6-2-3.4-1.5-5.3.5-1.5 2-2.7 2-4.4z" fill="#e85216"/><path d="m77.4 44.3c-.7-.5-1.6-.9-2.5-1v.5c2.5 3.2 2 5.6.6 8.9 0 0 .1.1.1.1 3.5-1.5 5.2-6.1 1.8-8.5z" fill="#e85216"/><path d="m75.7 55.6-1.2-.3c-.5 2.7 2.9 2.1 3.3 4.1.6-1.6.3-3.9-2.1-3.8z" fill="#e85216"/><path d="m17.7 63.1c-1.4 1.4-1.2 4.4.3 5.8.1-.9.6-1.6.6-2.5 0-.8-.6-1.5-.5-2.4z" fill="#e85216"/><path d="m67 54c-.6-1.1-2.1-1.4-3.2-1.5-1.4-.1-3.4.3-2.4 2.5.6 1.2 6.2 2.4 5.8-.3 0-.2 0-.5-.2-.7z" fill="#ff7752"/><path d="m40.6 53.6c-.9-1.2-2.6-1.2-3.8-1-1.6.2-3.7 1.2-2.2 3.5.8 1.2 7.2 1.3 6.3-1.7 0-.3-.1-.6-.3-.8z" fill="#ff7752"/><path d="m58.9 42.4c3.1.3 5.7-.6 10.4-.2-1.7-2.2-8-2.3-10.4.2z" fill="#c93712"/><path d="m52 55c-1.1 0-1.5-.4-2.2 0s.9 1.9 2.2 1.8c1.5-.1 2.7-1.4 2.3-1.8-.5-.6-1.1 0-2.3 0z" fill="#d15426" opacity=".3"/><path d="m31 41.7c5.9.1 7.8.4 11.9.3-2.1-2.8-9.3-2.6-11.9-.3z" fill="#c93712"/><path d="m37.9 44.7c-3.1-1.2-4.7 4.6-2.5 6.2.9-.4 2.1-.3 3 .1 2-1.2 1.8-5.4-.5-6.3z" fill="#1c5c57"/><path d="m38.4 46.6c-1.3.2-.8 2.8.5 2.2 1-.5.6-2.4-.5-2.2z" fill="#6cd9d2" opacity=".7"/><path d="m65.1 44.8c-3.1-2-5.8 5.3-2.4 6.3.8-.6 1.8-.6 2.7-.4 1.2-1.6 1.4-4.9-.3-5.9z" fill="#1c5c57"/><path d="m64.9 46.3c-1.2 0-1 2.8.3 2.3 1-.4.8-2.3-.3-2.3z" fill="#6cd9d2" opacity=".7"/><path d="m65.2 44.6c-2.8-1.1-3.8 2.3-3.8 2.3s1.4-1.7 3.3-.6c4.4 2.5 7.2-.5 7.2-.5-3.4 1.1-5.2-.6-6.7-1.2z" fill="#121b21"/><path d="m35.8 44.9c-1.1.6-3.8 2.3-7.3 1.3 0 0 3.3 2.9 7.6.3 1.9-1.2 3.4.3 3.4.3s-.7-3.5-3.7-1.9z" fill="#121b21"/><path d="m36.2 58.5c1.6 3 5.4 1.5 3.8-1.5-.6 1.5-2.4 2.2-3.8 1.5z" fill="#f04d4d"/><path d="m61.5 56.5c-.8 3.2 3.3 4.3 4.1 1.2-1.2.7-3.1.2-4.1-1.2z" fill="#f04d4d"/><path d="m63.3 58.1c-.5-.2-1 .1-1.1.5-1.5 4.3-6.1 7.1-11.4 7-5.1 0-9.2-2.7-10.8-6.2-.2-.4-.7-.6-1.2-.5s-.7.6-.5 1c1.9 4 6.5 7.1 12.1 7.3h.5c6.1 0 11.2-3.2 13-8.1.1-.4-.1-.8-.6-1z" fill="#f04d4d"/></g></svg>