<svg enable-background="new 0 0 96 96" viewBox="0 0 96 96" xmlns="http://www.w3.org/2000/svg" xmlns:xlink="http://www.w3.org/1999/xlink"><clipPath id="a"><circle cx="48" cy="48" r="48"/></clipPath><path clip-path="url(#a)" d="m0 0h96v96h-96z" fill="#86b7e2"/><g clip-path="url(#a)"><path d="m33.8 96c-.6-6.1.9-11.5 3.9-13.3l-3.7-4.2c-4.5 2.3-6.1 8.9-6.1 17.5z" fill="#e8e8e8"/><path d="m61.5 96c.6-6.1-.9-11.5-3.9-13.3l3.7-4.2c4.5 2.3 6.1 8.9 6.1 17.5z" fill="#e8e8e8"/><path d="m57 76.2c-5.8-3.3-14.3-2.1-18.2.5-5.4 3.7-4.1 9.8-2.6 19.3h23.1c1.6-9 3-16.8-2.3-19.8z" fill="#e8e8e8"/><path d="m48.9 87.1 2.4-2.3s-.6-2-3.3-2.2c-3-.2-3.8 2-3.8 2l2.4 2.5-3 7.3 1.2 1.6h5.9l1.5-1.7z" fill="#1e1e29"/><path d="m39.5 75.6s-5.7 1.8-6.2 3c-.3.8.9 9 1.8 17.4h6.2c.3-5.3.3-13.9-1.8-20.4z" fill="#3a3a4a"/><path d="m55.8 75.6s5.7 1.8 6.2 3c.3.8-.9 9-1.8 17.4h-6.2c-.3-5.3-.3-13.9 1.8-20.4z" fill="#3a3a4a"/><path d="m15.7 44.5c-.8.1-2.5.2-3.7.2 3.8 12.4 22 6.7 30.2 4.4 5.2-1.4 11.3-2.1 16.5-.4 1.9.6 3.6 1.9 5.6 2.3 1.8.4 2.8-.3 4.4-.8 2.9-.8 4.2-.8 4.2-4.4 0-3 1.7-5.7 2.5-8.5.8-2.9.6-6.1 0-9-1.1-5-4.4-10-8.7-12.8-2.1-1.3-4.6-2.2-7-2.2-2 0-6.2.7-7.4 2.5.6-.9 2.1-2.9 1.1-4.1-1.2-1.4-4.7.8-4.8 2.4-.6-1.1-2.1-3.9-3.7-2.6-1.2 1 .4 3.3.8 4.3-1.5-.6-2.9-.9-4.4-1.1-8-1.1-16.8.4-21.7 7.6-2.8 4.2-.8 8.9-.5 13.6.2 3.5-1.1 6.4-5.2 4.4-.3 1.7.6 3.1 1.8 4.2z" fill="#381d18"/><path d="m23.9 50.5c2.3 8 2.2 9.9 5.6 17.9 3.4 8.1 11.6 13 22.8 12.4 10.2-.6 13.8-5.7 16.4-14.3 1.8-6 3.3-12.6 2.6-20.1-1.4-16-13.1-28-26.2-26.9-13.1 1.1-25.6 15.6-21.2 31z" fill="#fbb37b"/><path d="m66 56.8c-.5-1.3-3.4-.6-3.4-.6-.5.1.4.3 1.6.7.2.1.4.2.4.4-6.5 1.8-17.7 3.3-25.8.4.1-.1.1-.1.2-.2 1.2-.9 2.8-.9 2.3-1.2 0 0-2.7-.1-3.8.7-1 .7-1 3.2-.3 3.3.6.1.7-1.2 1.2-2.2.5 2.7 3 13.9 12.3 14.1 7 .2 9.2-3.5 9.6-7.8.2-2.4 2.7-5.4 4.3-6.8.1.7-.4 1.8.2 1.9.9.2 1.7-1.4 1.2-2.7z" fill="#bc551e" opacity=".4"/><path d="m40.2 59.5s10.3 5.7 22.5-.7c0 0-2.1 1.3-2.6 4.8-.4 2.6-1.4 6.3-8.9 6.5-8.3.3-11-10.6-11-10.6z" fill="#96342f"/><path d="m42.9 60.7s0 3.5 2.5 4.9c3.2 1.7 6.9 2 10.7.7 2.6-.9 4.2-6.2 4.2-6.2s-7.3 3.1-17.4.6z" fill="#fff5e6"/><path d="m43.8 65.9c-.2-.9-.2-1.9 1.2-1.1 1.6.9 4.7 1.5 8.2 1.5 3.6 0 4.4-1.8 5-.9s-2 5.5-7.6 4.9c-6.5-.8-6.8-4.4-6.8-4.4z" fill="#fff5e6"/><path d="m43.5 63.4s12.7-2 15.7-.6c0 0 .9-1.9 1.1-2.8 0 0-9.1 3.1-17.4.6 0 0 .1 2 .6 2.8z" fill="#efdbbd"/><path d="m45.7 64.8s4.8 2.1 11.7.3c.1 0-6.2 3.2-11.7-.3z" fill="#efdbbd"/><path d="m21.4 59c1.7.5 3.5.5 5.2.3 0 0 .1-.1.1-.1.8-1.1-.6-6.5-1-7.6-1-2.8-2.6-4.8-5.7-3.9-6.4 1.7-3.8 9.8 1.4 11.3z" fill="#fbb37b"/><path d="m29.8 42.1c-.6 3.5.2 7.1-.7 7.8-1.9 1.5-3.2-3.5-3.3-4.5-.7-4.7 3-8.3 5.5-11.9 2.6-3.7 7.1-5.3 11.3-6.2 6.1-1.2 12.7-1.2 18.9-.4 2.2.3 8.9.8 7.1 4.6-1.1 2.3-4.6 3-6.8 3.6-3.7 1-6.8 3.3-9.3 6.2-.9 1.1-1.5 2.5-2.4 3.5-.1.1-2.3-5.2-2.7-5.5-2.2 1.8-3.3 2.9-4.3 5.1-1.6-1-3.5-3.3-3.1-6.8-1.4.7-6.9 8.8-7.2 8.6-1.1-.6-2.4-1.8-3-4.1z" fill="#bc551e" opacity=".3"/><path d="m24.7 57.2c3-1 .9-5.7-1.2-6.6-1.7-.8-6.2-.1-4.4 2.6 1.4-2.2 3.1-.5 2.6 1.1-.3 1.1-2 .9-.5 2.5.8.9 2.6.8 3.5.4z" fill="#d14f2e" opacity=".4"/><path d="m54.2 59.7c-.1 1.7-2.7 1.5-2.2 0-.8 2.2-2.9 1.1-1.9-.2-1.5 1-4.7 1.4-3.9-.2-.8.9-5.1 1.3-3.5-.5-1.5.8-3.8 1.1-3.8 0-1.4 2.2-6.9 7.9-6.5 1.5.4-4.9 6.7-6.3 10.5-6.1 4 .2 8.1 1.2 12 .5 3.6-.6 8.8-2.8 12.2-.1 5.4 4.3 1 8-.4 7.5-.9-.3-2.2-2.5-3-4.3-.1 2.1-2.4 1.4-3.6.7.5 1-1.3 2.2-3.4.4 1 1.4-.5 2.4-2.5.8z" fill="#261b18"/><path d="m25 58.2c-1.5 5.7-.4 8 .7 5.9-.1.8-.7 5.8 1.2 3.7-.8 1.4-.2 6.4 1.8 5-.2 1.3.6 5.3 2 5.1.3 1.3 2.4 5.2 3.7 2.9-.2.4 1.6 2.6 1.9 3 .8.9 1.9 2.1 3.2 2 .7 0 .9-.6 1.6-.5.8.1 1.6 1.3 2.3 1.6.8.4 1.5.6 2.2-.1.9 1.7 3.4 2 4.6.5.7 1.6 3.7 1.4 4.3-.2 1.4 2.1 3.3-.6 4-1.8-.7 1.3 2.8 2.6 4-3.6.1 1.6 1.5 1.2 2.2.3.6-.8.8-2.1.9-3.1 2.1 1.6 2.7-2.8 2.6-4 2.1.5 1.6-4.1 1.3-5.1 2.6 1.2 1.4-3.9 1.1-4.8 1.1 2.9 2.6-1 .8-5.1 2.6 2.1 1.1-10.9 0-13-.4 2.2-.4 8.7-2.2 10.2-1.4 1.2-3.6-1-5.4-.2-1.1.4 4.2 17.1-3.7 17.3-2.9.1-3-2.9-8.2-2.1-2.7.4-5.5 4.5-8.9 2.9-6.6-3-6.2-12.6-4.6-16 1.2-2.7-5.2.2-7.3-2.5-1.3-1.7-1-4.5-2.2-6.2-1.5-2.1-3.5-1-3.6 1.3s.3 4.4-.3 6.6z" fill="#261b18"/><path d="m31.4 59.2c.7.9 1.8 1.5 2.2 2.5.6 1.4.5 11.2-1.5 11.6-1.9.3-1.7-4.1-1.8-5.1-1.6 2.8-2.1-3.1-1.7-4.3-2.5 1.7-1.1-4.9-1-5.9-.1.5-1.1-1.2-1.1-1.3-.2-.7-.1-1.7 0-2.4.4.7 2.2 1.7 2.3.3 0 1.1 1.9 3.8 2.6 4.6z" fill="#45362e"/><path d="m65.9 23.8c-3.7-2.2-8.1-4.1-12.4-4.6-2.4-.3-4.7-1.1-7.2-1.1-4.2 0-8.2 1.2-11.9 3-5.5 2.7-9.3 9-11 14.6-1 3.3-1.6 7-1 10.5.4 2.2 2.3 7 5.6 7.7.7.1 1.8-.3 1.5-2.9-.3-3.8-1.8-9.1 1.1-12.7-.7 1.9.4 4.2 1.7 5.5 1.6-3.2 4.9-6.9 8.5-7.7-.3 2.7 1.5 5.9 2 6.4.6-2 2-4.4 4.1-5.1.8 1.9 1.5 3.7 3 5.3 2.4-2.7 4.2-6 7.2-8.1 3.2-2.1 7.5-1.6 10.6-3.8 3-1.9.4-5.6-1.8-7z" fill="#381d18"/><g fill="#45362e"><path d="m56.1 74.1c-3.3-1.6-6.5.3-9.2 2.8-2.3 2.1-3 6.6 0 8.8.9.7 2.1.9 2-1.7 1.2 2.1 4.1 3.9 4.5 1 1.9 1.6 3.4.5 4.1-1.6 1.9 2.8 4.3-1.6 4.2-3.5 0-3.2-3.2-4.6-5.6-5.8z"/><path d="m49 55.9c-6.8-3.7-18.7.6-15.7 10 .4 1.2.7 2.6 2.1 3 1.7-3.9-.4-10 4.3-12.1-2 3.3 3.7.2 4.6-.2-2.5 3.8 2 2.1 3.8.9-.5.6-.7 1.2-.8 2 1.3.5 2.4-.6 3.2-1.5-.6 1.8 1.4 2.1 2.3 1 .5.9 1.1.8 1.4-.2.5.5 1 .3 1.6.6 0-.4.2-.7.1-1.2 1.2.7 3.9 1.2 2.9-1.1 1 1.7 4.7 1.7 3.9-.8 2.2 1.5 2.7 4.5 2.9 7 .1 1.6-.7 9 2.5 6.5 1.4-1.1 1.4-4 .8-5.5 3.1 2.3-.3-5.1-.8-5.8-1.6-2.7-3.4-4.4-6.6-4.1-2.7.2-4 1.8-6.2 2.8-2.4.8-4.4-.2-6.3-1.3z"/><path d="m39.8 75.4c1.5 1.3 3.1 2.3 5.2 2 .8-.1 1.6-.5 2.3-.7-.1 2-.3 8.9-3.4 7.7-1-.4-1.8-1.7-2.7-2.2.5.3-1.1 1.8-2.2 1.1-1.2-.7-1.9-3-1.6-4.3-1 2.8-2.3-1.9-2.3-2.8-.1-1.1-.6-4.6.9-5s2.8 3.3 3.8 4.2z"/><path d="m64 73.8c.4-.6.5-2.1 1.3-1.9 1.2.2 1.4 3.5 1.2 4.2-.3 1.1-1.3 2.6-2.2 1 0-.1 0 .1 0 .1-.1 3.5-3 4.8-5.4 2.4-.8-.8-1.5-2.9-.3-3.6.4-.3 1.9.2 2.6 0 1.2-.3 2.1-1.1 2.8-2.2z"/></g><path d="m32.5 42c-2.2-2.3.6-4 .1-6.5-1.5 1.7-3.4 2.8-4.6 4.8.1-.9.4-1.9.6-2.8-.9 2-2.8 3.8-4.9 4.3.9-1.5-2-5-2.7-6.4-1.1-2.5-1.2-4.9-1.1-7.6.1-5.9 5.4-9.3 10.3-10.8 5.5-1.7 11.7-1.9 17.1.3 4.1 1.6 6.7 4.8 7.9 9.1 1.3 4.9.6 11.5-4.2 14.3-.4.2-.8.5-1.1.7-.2-1-1-2.2-1.4-3.2-.3-.9-.6-1.9-1.1-2.7-1.7 1.1-3.1 2.8-4.7 4-.5-1.5-.8-3.3-.6-4.8-1.8-.2-3.9 1.7-5.3 2.6-2.8 1.6-4.6 4.3-4.3 4.7z" fill="#593a2f"/><path d="m51.3 17.7c2.2 1.9 4.3 4.5 5.2 7.3.4 1.4.8 3 .7 4.4 0 .6-.5 2-.1 2.4.7.7 4.8-.4 5.6-.7 1.4-.4 2.7-.9 3.8-1.8.8-.7 1.3-1.6 2.4-1.5 3.8.5.8 8.4 3.8 10.1 0-1.3.2-2.3.6-3.5 1.8-5-.4-8.8-3.5-12.6-3.8-4.8-10.8-7.4-16.6-5.3 0 .3-1.6 1.4-1.9 1.2z" fill="#593a2f"/><path d="m38.3 50.5c1.5-1.3-3.2-1.4-3.9-1.2.1.9 2.2.4 2.8.6-.5.6-2.2.6-2.8 1-.7.4-.6.7.2.7.5-.1 3.3-.8 3.7-1.1z" fill="#d14f2e" opacity=".4"/><path d="m66.5 49.5c-1-1.4 2.9-1.2 3.4-.9-.2.9-1.9.3-2.4.4.4.6 1.7.7 2.2 1.2s.4.7-.3.6c-.4-.1-2.7-.9-2.9-1.3z" fill="#d14f2e" opacity=".4"/><path d="m69.3 42c.2-.1.3-.2.4-.3 3.1-3.8-12.2-5-10.6-.5.8 2.2 3.6 1.1 5.2.9 1.2-.1 3.8.4 5-.1z" fill="#261b18"/><path d="m34.4 43.4c-.2-.1-.4-.1-.5-.3-4.1-3.6 12.5-6.3 11.5-1.5-.5 2.3-3.7 1.5-5.6 1.5-1.2-.1-4 .7-5.4.3z" fill="#261b18"/><path d="m69.1 52.7c.1.3.2.5.2.9.3 3.1-6.1 1.5-6.7.1-1.1-2.6 1.2-3 2.9-2.9 1.3.1 3 .5 3.6 1.9z" fill="#f89e66"/><path d="m39.6 52.3c.2.2.5.4.6.7 1.8 2.7-5.1 4.2-6.3 3.2-2.3-1.9-.3-3.3 1.3-3.9 1.3-.5 3.2-.9 4.4 0z" fill="#f89e66"/><path d="m40.2 51.5c-.8-.5-1.9-.7-2.9-.5-1.8-1.9.5-6.9 3.3-5.4 2.1 1.1 1.6 5-.4 5.9z" fill="#261b18"/><path d="m67.2 44.6c1.5 1.2 1.1 4-.3 5.2-.9-.2-1.9-.1-2.8.3-3.3-1.4.3-7.7 3.1-5.5z" fill="#261b18"/><path d="m39.7 46.2c1.1-.3 1.6 1.4.7 2-1.3.7-1.9-1.7-.7-2z" fill="#e6d2c3" opacity=".7"/><path d="m66.1 45c1.1-.1 1.3 1.6.4 2-1.3.5-1.6-1.9-.4-2z" fill="#e6d2c3" opacity=".7"/><path d="m57.4 54.3c1-.8-.8-10.3-5.1-10-3.6.2-4.8 9.5-2.9 10.6 2.5 1.5 6.7.5 8-.6z" fill="#ffc08d"/></g></svg>