<svg enable-background="new 0 0 96 96" viewBox="0 0 96 96" xmlns="http://www.w3.org/2000/svg" xmlns:xlink="http://www.w3.org/1999/xlink"><clipPath id="a"><circle cx="48" cy="48" r="48"/></clipPath><linearGradient id="b" gradientUnits="userSpaceOnUse" x1="48.3411" x2="48.3411" y1="77.3744" y2="82.0161"><stop offset="0" stop-color="#ee996d"/><stop offset=".01630819" stop-color="#ee9a6e"/><stop offset=".3731" stop-color="#f8b181"/><stop offset=".7088" stop-color="#fdbf8d"/><stop offset="1" stop-color="#ffc491"/></linearGradient><path clip-path="url(#a)" d="m0 0h96v96h-96z" fill="#fff"/><g clip-path="url(#a)"><path d="m42.5 87.1-2.1-4.1c-2.9 1.4-3.7 4.7-4.5 8.2-.2.8-.6 2.7-1.2 4.8h4.9c.4-1.7.8-3.2.9-3.8.5-2.2 1.1-4.6 2-5.1z" fill="#e8e8e8"/><path d="m56.3 83-2.2 4.1c.9.5 1.5 2.8 2 5.1.1.6.5 2.1.9 3.8h5c-.5-2-1-3.9-1.2-4.8-.8-3.5-1.6-6.7-4.5-8.2z" fill="#e8e8e8"/><path d="m56.7 83c-3.5-3.5-12.5-3.2-16.3-.3-3.3 2.6-1.1 8.3.1 13.3h15.6c1-5.8 3.9-9.6.6-13z" fill="#e8e8e8"/><path d="m57 92.5c-1.3-2.7-1-7.3-.3-9.5-3.5-3.5-12.9-3.2-16.9.1.5 2 .9 5.9-.3 8.9.4 1.5.7 2.8 1 4.1h15.7c.1-1.3.4-2.5.8-3.6z" fill="#313142"/><path d="m52.2 90.4c-2.7.9-6 .5-8.7-.1-1.6-.4-2.5 1.3-2 2.8.6 1.9 3.9 2.4 6.8 2.4 5.7-.1 7.8-2.1 6.9-4.5-.3-.6-1.6-1-3-.6z" fill="#fff" opacity=".07"/><path d="m52.7 80.1c-2.5-1.1-7-1-9.3.1-4.6 2.2.3 9.3.3 9.3l4.9-1.2 4.9 1.1c0-.1 3.7-7.4-.8-9.3z" fill="#f5f5f5"/><path d="m52.8 80.7c-.8-.6-.6-2.6-.5-4.9.3-5.2-8.6-5.4-8.6.3 0 2.5.1 4.1-.6 4.7-1.3 1.3-1.2 3.7 5.3 6.7 3.6-1.7 8.2-3.7 4.4-6.8z" fill="url(#b)"/><g fill="#fff9f0"><path d="m42.9 80.9c-.4 0-.7.4-.7.8s.4.7.8.7.7-.4.7-.8c-.1-.3-.4-.7-.8-.7z"/><path d="m44.6 82.1c-.4 0-.7.4-.7.8s.4.7.8.7.7-.4.7-.8-.4-.7-.8-.7z"/><path d="m46.8 82.9c-.4 0-.7.4-.7.8s.4.7.8.7.7-.4.7-.8-.3-.7-.8-.7z"/><path d="m49.1 83c-.4 0-.7.4-.7.8s.4.7.8.7.7-.4.7-.8c0-.3-.4-.7-.8-.7z"/><path d="m53.2 80.9c-.4 0-.7.4-.7.8s.4.7.8.7.7-.4.7-.8c-.1-.4-.4-.8-.8-.7z"/><path d="m51.4 82.2c-.4 0-.7.4-.7.8s.4.7.8.7.7-.4.7-.8c-.1-.4-.4-.7-.8-.7z"/></g><path d="m68.7 22.8c-2.7-3.5-3.6-7.5.9-7.8-2.9-2.1-11.2-4.4-20.3-4 .3-.8.1-1.4.8-2-3.9.5-8.6.6-13.6 3.6-2.3 1.4-3.3 3.5-5.9 4.2-2.6.8-4 1.2-6.5 2.6-5.3 3-8.1 9.5-8.7 11.4 1-1 3.4-1.6 4.4-1.2-1.9 3.2-2.1 6-1 9.2 1.2 3.3-1.7 7.7-.6 13.9 1.7 9.8 9.2 9.1 9 15.4 0-.1 5.5-3.3 6.1-4.2 1.2-1.6 1.4-3.7 2.7-5.3 3.2-4 8.8-5.8 13.8-5.7 3.6.1 4.9 1.6 7 4 1.4 1.6 6.7 3.6 9.9 10.2 1.6-1.9 3.2-4.9 3.2-7.2.5 1 2.7 1 4.9 0-2.5-2-4.6-8.6-4.3-11.8.2-2.2 4.1-4 2.2-9.7-.5-1.5-.9-1.2-1-2.8 1.9-.3 3.2-1.5 4.8-2.6-5.4-.1-4.7-6-7.8-10.2z" fill="#231e1a"/><path d="m67.5 57c-.9.1-1.6 1-1.5 2.1s.9 1.9 1.8 1.8 1.6-1 1.5-2.1-.9-1.9-1.8-1.8z" fill="#fff"/><path d="m46.4 23.5c-11.9 1.1-21 11.4-20.1 27.9s11.5 27.1 23.4 27.1c10.5 0 20.2-14.8 18.8-31.3-1.4-16.2-10.3-24.8-22.1-23.7z" fill="#ffc596"/><path d="m22.2 47.1c-5.3 2.4-2.7 11.6 1.8 13 1.4.4 2.9.3 4.4.1 0-.1.1-.1.1-.2.6-1.3-.8-7.4-1.2-8.7-1.1-3.2-2.6-5.4-5.1-4.2z" fill="#ffc596"/><path d="m25.2 50.3c-1.4-.8-5.1.2-3.5 3.2 1-2.6 2.6-.8 2.2 1.1-.2 1.3-1.6 1.2-.3 2.9.7.9 2.2.7 2.9.3 2.5-1.3.5-6.6-1.3-7.5z" fill="#b54d26" opacity=".3"/><path d="m26.1 58.6c-.9 0-1.6.9-1.6 2s.8 2 1.7 2 1.6-.9 1.6-2-.8-2-1.7-2z" fill="#fff"/><path d="m60.7 24.5c-6.4-.5-13.2-.1-19.5 1.5-9.8 2.5-17.4 13.4-16.6 23.7.5 5.9 2.5 13.8 9.7 13.3-.6-.9-1.2-1.6-1.7-2.5-2.7-5.2-3.8-13.7-1.8-19.4.4.1 2.4.7 2.3 1.2.4-4.3 2.2-6.1 6.1-7.6 2.8-1.1 6.6-2.4 9.6-2.6 2.4-.1 4.5 2 6.6 3.1 2.3 1.1 4.8 1.9 7.4 1.5-.4-.8-.8-1.7-.7-2.5.1-.5 3.2 2.7 3.4 2.9 1.1 1.5 2 3.3 2.2 5.2-.1-4.5-3.5-17.5-7-17.8z" fill="#bf3c1b" opacity=".3"/><path d="m62.8 22.5c-11.5-5.2-23.1-2-33.9 3.2-2.3 1.1-4.3 3-5.6 5.2-2.3 4.2-.3 14.9 1.8 23.5 1.6 6.8 7.2 7.4 7.2 7.4-5.3-7-2.2-24 0-27.7-.9 1.4-.6 4.3.5 5.5 0-3.9 3.3-5.2 6.2-6.7 3.3-1.7 8-3.2 11.7-3.3 1.4 2.6 7 5.8 10.1 5.4-.9-.7-1.5-2-.9-3 1.6.7 2.9.7 4.3 1.8.4.3 3.4 3 3.4 3.2-.1-2.9 1.1-6.1.2-8.9-.8-2.5-2.5-4.5-5-5.6z" fill="#231e1a"/><path d="m68.5 25.5c-1.7-2-4.2-6.1-9.2-7.2 1.2-1.3 4-2.7 6.1-3.4-2.9-1-7.6-1.9-11.1-1.7-1.5.1-3 .9-4.5.4-.5-.2-2.5-1.6-1.4-3.3-2.7.6-6.1 1.6-8.6 2.9-2.4 1.2-4.3 3.1-6.7 4.3-3.1 1.6-6.1 1.2-10 3.7-2.4 1.6-3.9 5-4.8 6.1 1.6-.8 6.2-2.9 7.9-2.6-2.2 5.1-1.9 7.9-6.7 12.6 9.6 1.4 11.5-6 14.9-7.1-.2 1.6-.9 3.1-1 4.7 4.4-5.7 11.2-6.9 17.8-7.7 1 1.8 4.3 4 6.3 4.6-.1-1.5 0-2.9.4-4.3 2.8.3 13.9 8 16.3 6.1-3.3-.3-3.4-5.4-5.7-8.1z" fill="#423833"/><path d="m40.9 46c-3.3-1.1-4.8 4.7-2.5 6.3 1-.4 2.2-.3 3.2 0 1.9-1.2 1.7-5.4-.7-6.3z" fill="#1a1614"/><path d="m64.5 45.8c-3.2-1.8-6 4.9-2.4 5.9.9-.5 1.9-.5 2.8-.4 1.2-1.5 1.3-4.5-.4-5.5z" fill="#1a1614"/><path d="m32.2 44.1c1.1-.7 4.1-1.6 7.5-1.7 2.7-.1 4.1.9 4.5-2.2-2.1.6-4 .6-6.2 1.1-1.9.3-4.5 1-5.8 2.8z" fill="#2b241e"/><path d="m64.1 40.4c-1.8-.3-3.4-.3-5.2-.8.2 3.1 1.4 2.1 3.8 2 2.9 0 5.4.8 6.4 1.4-1.2-1.6-3.4-2.3-5-2.6z" fill="#2b241e"/><path d="m52.5 56.7c-1.2.1-1.7-.3-2.4.2-.8.5 1.1 2 2.6 1.7 1.6-.3 2.8-1.7 2.3-2.2-.6-.5-1.2.2-2.5.3z" fill="#b54d26" opacity=".3"/><path d="m31.8 47.5s3.4 3.3 7.4.4l-.5-1.7c.1.1-3 3.4-6.9 1.3z" fill="#1a1614"/><path d="m64.6 45.9-.5 1.5c4 2.9 6.7.2 6.7.2-3.1 1.3-6.2-1.7-6.2-1.7z" fill="#1a1614"/><path d="m39.4 47c-1.3.5-.1 3 1.1 2 .9-.8 0-2.5-1.1-2z" fill="#a88686"/><path d="m62.9 46.5c-1.2.3-.6 2.7.7 2 .9-.6.4-2.3-.7-2z" fill="#a88686"/><path d="m63.7 54.1c-1.8.1-3.1 1.2-3 2.4s1.6 2.1 3.4 1.9c1.8-.1 3.1-1.2 3-2.5-.1-1-1.6-1.9-3.4-1.8z" fill="#ffa26f"/><path d="m38.7 54.8c-2-.2-3.6.8-3.8 2.1-.1 1.3 1.4 2.5 3.3 2.7 2 .2 3.6-.8 3.8-2.1s-1.3-2.5-3.3-2.7z" fill="#ffa26f"/><path d="m37.7 61.7c4.1 6.7 8.8 8.9 14 8.9 6 0 7.8-3.5 9-5.5.9-1.6 2.4-3.8 3.6-4.4-3.5 1.3-6.8 1-12.3 1.5-4.6.4-10.5 1.2-14.3-.5z" fill="#c84f36" opacity=".6"/><path d="m39.8 63s4 5.7 11.4 5.5c4.8-.1 7.9-1.7 8.7-3.7.9-2.2 2.9-3.1 2.9-3.1-13 3.5-23 1.3-23 1.3z" fill="#8f302b"/><path d="m42.5 63.4s.3 1.3 3 1.9c3.4.7 7.1.6 10.9-.1 2.5-.5 3.7-2.9 3.7-2.9s-7.2 1.9-17.6 1.1z" fill="#fff9f0"/><path d="m52.7 65.3c-3.4.3-5.9 0-7.9-.2-1.4-.1-1.3.7-1 1.2 0 0 1.2 2.1 6.9 2.4 5.5.3 8.1-2.8 7.5-3.2-.5-.6-2.3-.5-5.5-.2z" fill="#fff9f0"/><path d="m42.5 63.4s.2.8 1 1.1c0 0 12.3-1.6 15.4-.7 0 0 1-.9 1.1-1.5.1.1-8.8 1.9-17.5 1.1z" fill="#e8dac5"/><path d="m46.1 65.5c5.1 2.6 10.3-.3 10.3-.3-5.7 1.6-10.3.3-10.3.3z" fill="#e8dac5"/></g></svg>