<svg enable-background="new 0 0 96 96" viewBox="0 0 96 96" xmlns="http://www.w3.org/2000/svg" xmlns:xlink="http://www.w3.org/1999/xlink"><clipPath id="a"><circle cx="48" cy="48" r="48"/></clipPath><path clip-path="url(#a)" d="m0 0h96v96h-96z" fill="#fff"/><g clip-path="url(#a)"><path d="m20.9 96h9.8l-3.7-16.5c-5.3 2.5-6.4 6.5-6.1 16.5z" fill="#1e1e29"/><path d="m68.6 64.5c-3.1 4.9.7 5.8 4.5 7.7 1.9 1 4.2 2.7 5.3-.4.6-1.8.4-3.2.9-5 .4-1.5.8-3.6 1.6-4.9 2.1-3.7-2.6-12.7-12.3 2.6z" fill="#ffcb9e"/><path d="m65.2 42.9c-.6-.5-1.5-.3-2 .3l-7.4 9.5c-.5.7-.4 1.6.2 2.1l16.8 13.2c.6.5 1.5.3 2-.3l7.4-9.5c.5-.7.4-1.6-.2-2.1z" fill="#404048"/><path d="m64.6 42.5c-.6-.5-1.5-.3-2 .3l-7.2 9.3c-.5.6-.4 1.5.2 2l16 12.6c.6.5 1.5.3 2-.3l7.2-9.3c.5-.6.4-1.5-.2-2z" fill="#141418"/><path d="m64.6 42.5c-.6-.5-1.5-.3-2 .3l-7.2 9.3c-.5.6-.4 1.5.2 2l16 12.6c.6.5 1.5.3 2-.3l7.2-9.3c.5-.6.4-1.5-.2-2z" fill="#141418"/><path d="m65.1 45.4c-.5-.4-1.1-.3-1.5.2l-5.3 6.8c-.4.5-.3 1.1.2 1.5l12.4 9.7c.5.4 1.1.3 1.5-.2l5.3-6.8c.4-.5.3-1.1-.2-1.5z" fill="#fff"/><path d="m62.6 42.8-7.2 9.3c-.5.6-.4 1.5.2 2l11.5 9c1.1-4.9 4.4-14.1 4.9-14.9l-7.3-5.7c-.7-.5-1.6-.3-2.1.3z" fill="#fff" opacity=".5"/><path d="m68.4 62.8c-.7-.6-2.8-1.4-3.1-.1-.2.8 1.2 2.1 1.6 2.7.6 1 0 3.2 1.4 3.9 1.1.6 1.8-.4 2.1-1.4.6-1.7-.4-3.7-2-5.1z" fill="#ffcb9e"/><path d="m72.6 72.8s3.5 7.5 1.6 9.6c-1.6 1.7-2.3 1-7.2-2-1.3-.8-2.8 10.3-2.5 10.5 4.5 2.3 10.3 3.6 15.3-.7 8.9-7.8-.1-23.3-.1-23.3z" fill="#1e1e29"/><path d="m27.4 79.3c-2.9 1.6.2 7.3 2.1 16.7h34.3c1.5-7.1 4.9-15.1 2.4-16.9-7.1-5-31.6-3.9-38.8.2z" fill="#1e1e29"/><path d="m36.4 76c-2.2 5.7 6.8 19.6 12.8 19.5 6-.2 9.8-16 7.5-19.8-2.2-3.8-18.8-3.7-20.3.3z" fill="#5e4684"/><path d="m56.3 73.7c-.8.2 2 10.3-8.2 17.9-.4 1.6-.6 3.1-.7 4.4h6.2s.1-.1.1-.1c4.5-4.3 9.1-6 9.1-6.3.1-.8-5.1-3.5-4.9-4 .2-.4 7.7-4.3 8.2-5.1.8-1-6.8-7.7-9.8-6.8z" fill="#121219"/><path d="m56 72.9c-.8.2 2 10.7-8.2 18.3-.4 1.8-.6 3.4-.6 4.8h5.5c.2-.2.3-.4.5-.6 3.9-4.4 9.1-7.4 9.2-7.8.1-.8-4.6-2.1-4.4-2.5s7.3-6 7.9-6.8c.7-1-6.9-6.3-9.9-5.4z" fill="#3a3a4a"/><path d="m37.4 73.9c-3.8-.5-10.7 5.7-10 6.6.6.8 8.2 4.9 8.4 5.3s-4.7 3.1-4.6 3.9c.1.3 6.8 2.8 10.8 6.2h8.1c-.2-1.1-.5-2.2-.8-3.4-13.1-6.5-11.1-18.5-11.9-18.6z" fill="#121219"/><path d="m37.8 73.1c-3.8-.5-10.6 4.3-9.8 5.2.6.8 7.7 6.3 7.9 6.8.2.4-4.5 1.8-4.4 2.5.1.3 6.8 3.6 10.8 7.1.5.4 1 .9 1.4 1.3h7.5c-.2-1.2-.5-2.5-.8-3.9-13.6-6.4-11.8-18.9-12.6-19z" fill="#3a3a4a"/><path d="m47.7 90.6s2.5 1.5 2.8 1.9c.2.3.5 2 .7 3.5h.2c-.1-1.5-.3-3.3-.6-3.7-.6-.7-3.1-1.7-3.1-1.7z" opacity=".3"/><path d="m35.8 73.3c-.3 3.8 5.6 7.1 12.4 6.7s10.3-4.1 10-7c-.4-2.8-22.2-2.9-22.4.3z" opacity=".3"/><path d="m53.8 79.2c-.1 0-.3 0-.4.1-.8.3-1.5.9-2.3 1.2-2 .8-4.2 1-6.4.7-.6-.1-1.3-.1-1.9-.2-1-.1-1.8.5-.7 1.2.3.2.7.4 1.1.5.1.1.8.5.9.5-.4.1-2.2-.3-1.7.6 1.1 1.8 6.3.3 7.8-.2-1.3.6-2.7 1.1-4 1.7-1.7.8-.8 1.9.6 2.2 1.6.3 3-.9 4.2-1.9.7-.6 1.2-1.4 1.8-2.1.4-.6 3-4.2 1-4.3z" fill="#fff" opacity=".25"/><path d="m60.8 11.4c-12.2-2.6-32.5-.4-39.4 9.9-1.9 2.9-2.9 6.4-2.1 9.8.9 3.6 3.5 6 7.5 4.9 2.1-.6 3.4-.4 5.5.3 2.2.7 4.2 1.9 6.5 2.5 3.6.9 7.4.4 10.9 1.2 2.4.5 4.6 2.1 6.5 3.5 1.6 1.1 3.2 2.2 4.4 3.7.8 1.1 1.6 2.3 2.8 2.9.9.4 2.9 1.1 3.5.1.4-.6.2-2.4.3-3.1.1-1.2.1-2.4.1-3.6.1-3 .8-6 1.1-9 .9 1 .9 2.6.7 3.8 2.2-1.4 3.9-4.3 4.4-5.5 1.5-4.5 1-8.9-.9-12.5-2.3-4.5-6.5-7.7-11.8-8.9z" fill="#4f3023"/><path d="m40.3 20.7c-11.5 2.7-19 19.7-16.3 35.3 2 11.7 11.6 24.2 25.1 22.7 13.8-1.5 20-19.1 17.7-33.4-2.5-15.6-10.4-28.4-26.5-24.6z" fill="#ffcb9e"/><path d="m55.7 22.9c-4.5-1.1-9.2-1.7-13.9-1.6-4.1.1-8.7 0-12.5 1.9-2.1 1-4.6 2.4-5.4 4.7-.6 1.9-1.3 4.4-.1 6 2.3 3.4 6.6 1.1 8.2.2 3.5-2 19.7-1.4 27.2-1.7 3.1-.1 7.6-.8 6.2-5-1.1-3.2-6.7-3.7-9.7-4.5z" fill="#bf3c1b" opacity=".3"/><path d="m19.8 49.7c-5.6 1.8-3 10 1.7 11.5 1.5.5 3.1.5 4.6.3 0 0 .1-.1.1-.1.6-1.1-.5-7.1-.9-8.3-1-2.9-2.8-4.3-5.5-3.4z" fill="#ffcb9e"/><path d="m21.9 52.6c-1.3-.5-4.4.6-2.8 3.1.7-2.4 2.2-.9 2 .8-.1 1.1-1.3 1.2-.1 2.6.7.7 1.9.4 2.6 0 2-1.5-.1-5.8-1.7-6.5z" fill="#c94614" opacity=".3"/><path d="m61.4 16.9c-.8-.8-1.8-1.4-2.9-1.8-2.7-1.2-6-1.6-8.8-1.4-2.3.1-4.6-.3-7-.2-2.6.1-5.1.5-7.6 1-2.9.6-6.1 1.5-8.6 3-2.3 1.3-3.1 4.3-4 6.6-.4 1-.3 2.4-.3 3.5 0 1.9 0 4 .2 5.9.3 3.4 4.9 3.8 6.7 1.2 1.6-2.2 3.9-2.8 6.5-3 4.4-.3 21.5-1.8 25.6-.6 2.2.7 5.2 1.7 5.5-1.8.2-1.9-.7-4.4-1.4-6.2-1-2.3-2.1-4.6-3.9-6.2z" fill="#4f3023"/><path d="m64.3 15.1c-5.9-3.1-13.6-3-20-2.4-5.5.5-10.4 2.1-15.2 4.7-5 2.7-6.4 8.3-5.5 11 1.9-3 7.4-6.1 9.9-6.5-.2 1.3-2.6 4.1-3 5.4 2-1.3 11.9-6.2 14.6-6.3-.8 1-2.8 2.4-2.6 3.9 4.3-.9 8.9-3.6 13.4-3.4-1.3 1.4-3.5 1.8-4.6 3.5 4.3-.1 9.1-.9 13.6-1.2-1.5.9-2.8 1.3-4 2.5 3.6 0 7.9-.6 11.4.3-.7-4.8-3.4-9.1-8-11.5z" fill="#693a27"/><path d="m21 34.5c-1.5 2.6-.4 13.9 0 14.9 2.7.2 6.2 3.8 6.2 3.8-1.2-6.6-.3-10.2.7-17.6-2.5.1-4.4-.6-6.9-1.1z" fill="#bf795c"/><path d="m66.3 52.3c-.9-1.3-2.9-1.5-4.3-1.5-1.8 0-4.2.8-2.5 3.3.9 1.4 8.2 2.2 7.2-1 0-.2-.2-.5-.4-.8z" fill="#ffa073"/><path d="m36.4 53c-1.3-1.1-3.3-.8-4.7-.4-1.8.5-4.1 1.9-1.7 4 1.3 1.1 8.9.1 7.1-2.9-.2-.3-.4-.5-.7-.7z" fill="#ffa073"/><path d="m34.8 45.3c-3-1.2-4.7 4.2-2.6 5.9.9-.3 2.1-.3 3 .1 2-1.1 1.9-5.1-.4-6z" fill="#224245"/><path d="m49.4 54.3c-1.7.1-2.5-.7-3.7.1s.6 3 3.7 2.8 4.3-2.4 3.6-3.2-1.7.3-3.6.3z" fill="#b54d26" opacity=".3"/><path d="m48.7 47.8c-3.3-.2-3.3 6.8-2.5 7.4 1.9 1.4 5.7.2 6.8-1 .4-.5-1.2-6.3-4.3-6.4z" fill="#ffdfc2"/><path d="m63.5 44c-3.1-1.7-5.1 4.3-2.5 5.8.8-.6 2.4-.5 3.2-.1 1.1-1.4 1-4.8-.7-5.7z" fill="#224245"/><path d="m33.5 46.7c-1.2.5-.2 2.8 1 1.9.8-.7 0-2.3-1-1.9z" fill="#d4e6dd" opacity=".7"/><path d="m62 45.1c-1.2.3-.5 2.6.7 1.9.9-.5.4-2.2-.7-1.9z" fill="#d4e6dd" opacity=".7"/><path d="m41.9 38.9c-2.4-.4-4.6-.5-7-.3-3.6.4-6 1.6-5.7 2.3.3.8 2.9.4 7 .6 3.8.2 6.6.9 7.1-.2.6-1.3-.2-2.2-1.4-2.4z" fill="#2b221c"/><path d="m61.8 37.7c-2.1-.1-4.1.1-6.3.6-1.1.3-1.8 1.2-1.1 2.5.5 1 3 .2 6.3-.2 3.6-.4 6-.2 6.2-1 .3-.7-1.8-1.7-5.1-1.9z" fill="#2b221c"/><path d="m38.6 61.1c-3.9.6-3.3 1.3-1.8 3.2 2.4 3.3 8 7 16.1 5.2 4-.9 7-3.9 6-6.9l3.8-2.4c-5.9-.8-16.8-.2-24.1.9z" fill="#f7a286"/><path d="m39.5 61.7c-2.3 0-3.2.5-1.4 2.5 2.4 2.7 8.1 4.8 13.3 4.2 4.7-.6 7.3-3.8 6.6-6.6.5-.2 1.2-.7 1.8-1-5.3-.7-14.6.8-20.3.9z" fill="#8f2724"/><path d="m58 60.8c-5.2-.2-12.5.6-16.5 1.4-.8.1-2.5.8-1.5 1.3 1.8 1 16.2.4 16.9.1 1-.4 2.4-2.8 1.1-2.8z" fill="#fff9f0"/><path d="m58.3 60.6c-4.7-.3-11.8.4-19.4 1.1 0 0 0 1.1 1.1 1.8 0 0 9.3-3.1 18.3-1.4 0 .1 1.1-1.4 0-1.5z" fill="#e8dac5"/><path d="m64.4 39.8c-2.2.1-4.3.5-6.4 1.1-1.8.5-3.9.7-5.5 1.6-1.5.8-2.1 1.3-4 1.3-3.3-.1-6.1-2.1-9.3-2.4-3.4-.3-6.9-.7-10.2.3-.9.3-3.5 1.3-1.7 2.2s4.4.6 6.3.6c.9 0 1.8 0 2.6.1 3.1.2 7.9-.3 7.7 3.7-.1 2.7-1.8 5.5-4 6-2.1.5-4.3.7-6.4.8-1.6 0-3.2-.3-4.7-.9-.4-.2-1.7-1-2.1-.4-.7 1 1.9 2.5 2.5 2.8 1.5.7 3.1.9 4.8 1 4.1.4 8.2.1 10.5-3.7 1.3-2.2 1.9-4.8 3.1-7 2-3.7 3 1.3 3.7 3.4.4 1.2.9 2.4 1.7 3.4 1.3 1.8 3.9 2.7 6.1 2.8 1.3 0 2.7 0 3.9-.6.7-.3 1-1.2.1-1.5-.5-.2-1.4 0-2-.1-.8 0-1.7 0-2.5-.2-1.1-.2-2.1-.6-3-1.3-.6-.5-1.2-1-1.6-1.7-.8-1.4-.9-3.1-.4-4.6.7-2.1 3-2.3 4.8-2.5 2.3-.2 4.6-.2 6.8-.5 1-.1 2 0 3 0 1.3 0 4.1-.4 2.5-2.3-1.3-1.5-4.2-1.5-6.3-1.4z" fill="#b54d26" opacity=".3"/><path d="m25.5 41.5c-2.7.3-5-.3-5.6.3-.8.8.8 3.1.8 3.1s.9.5 2.2.6c.3 1.9.6 6.7 4.2 9.5 3 2.3 12.4 2.4 15.2.7 3.5-2.1 4.7-5.5 5.1-8.9.9-8.4-18.2-5.7-21.9-5.3zm16.7 11.8c-3.4 2.6-12.5 2.1-15-.6-2-2.1-2.6-6.8-1.6-7.5 3.2-2.3 16-2.4 19.1-.4 1.6 1 .1 6.6-2.5 8.5z" fill="#3a3a4a"/><path d="m69.9 39.7c-3.4-.1-20.8-1.1-19.3 7 .6 3.3 2 6.7 5.3 8.4 2.6 1.4 11 .6 13.6-2 3.1-3.1 2.9-7.9 3.1-9.8 1.1-.1 1.9-.7 1.9-.7s1.3-2.4.5-3.1c-.6-.5-2.7.3-5.1.2zm-.8 11.4c-2.1 3-10.3 4.1-13.5 1.9-2.4-1.7-4.2-7.2-2.9-8.3 2.6-2.3 14.2-3.2 17.2-1.2 1.1.6.9 5.3-.8 7.6z" fill="#3a3a4a"/><g fill="#fff"><path d="m55 43.9c-1.9.8 1.5 1.9 2.2 2 2.6.4 5.5.3 8.2-.1 1.4-.2 4.5-1.5 3.7-2.3-1.2-1.1-12-.4-14.1.4z" opacity=".3"/><path d="m63.5 43.7c-1 .1-1.7.4-1.4.9.5.9 6.6.5 7-.2s-3.4-1-5.6-.7z"/><path d="m57 50.8c-.6 0-1.1.1-1 .5.2.8 4 1.3 4.3.8.4-.5-1.9-1.2-3.3-1.3z" opacity=".7"/><path d="m29.2 51.9c-.7-.1-1.2.1-1.1.5.2.8 4.1 1.5 4.5 1s-1.9-1.4-3.4-1.5z" opacity=".7"/><path d="m43.3 44.4c-2.4-.7-14.4-.7-15.5.4-.8.8 2.8 1.8 4.4 1.9 3.1.3 6.3.2 9-.4.8 0 4.3-1.3 2.1-1.9z" opacity=".3"/><path d="m38.1 44.1c-1.1.1-1.8.4-1.5.9.5.9 6.9.7 7.4 0 .4-.7-3.6-1.1-5.9-.9z"/></g><path d="m53 41.8c-2.7.9-5.2 1.2-8.6.3-2.7-.7 1.4 1.6 1.8 3 .3 1.4 0 5.8.9 3.3s2.6-2.6 3.8-.4c1.2 2.3 1.2-3.7 1.7-4.3.4-.6 3-2.7.4-1.9z" fill="#3a3a4a"/><path d="m26.8 42.2c7.2-.2 13-.4 17.5 1-3-2.2-8-2.3-17.5-1z" fill="#c1c5c9"/><path d="m69.2 40.3c-8.8.1-13 .1-15.4 2.3 3.9-1.7 8.9-1.5 15.4-2.3z" fill="#c1c5c9"/></g></svg>