<svg enable-background="new 0 0 96 96" viewBox="0 0 96 96" xmlns="http://www.w3.org/2000/svg" xmlns:xlink="http://www.w3.org/1999/xlink"><clipPath id="a"><circle cx="48" cy="48" r="48"/></clipPath><path clip-path="url(#a)" d="m0 0h96v96h-96z" fill="#fff"/><g clip-path="url(#a)"><path d="m22.6 96h10.6l-5.9-14.2c-1.8 1.5-4.6 4.6-4.7 14.2z" fill="#8d573e"/><path d="m67.1 81.3-5.8 14.7h11.3c-.1-9.6-3.6-13.1-5.5-14.7z" fill="#8d573e"/><path d="m36.8 77.2c-4.3 3.6-5.5 8 1 14.3 2 2 3.8 3.4 5.4 4.5h8.2c4-4.3 10.9-12.7 9.1-17.1-3.1-7.5-19.4-5.3-23.7-1.7z" fill="#93b7f5"/><path d="m51.8 84.4s-1.1-2.5-4.3-1.9c-2.8.5-3.2 3-3.2 3l2.3 2.4-2.4 8.1h9.3l-3.2-8.6z" fill="#2f58a1"/><path d="m36.7 77.9c.2-.5.5-1 .8-1.5-3.4 1.5-9.7 4.5-10.3 5.6-.5.9 2.6 7.3 4.1 13.9h13.5c-4.2-5.4-9.7-13.8-8.1-18z" fill="#8d573e"/><path d="m59.1 76c.2.5.9 1.5.8 2-.5 5.8-4.5 13.1-7.5 18h12.1c1.1-5.5 3.3-13.8 2.7-14.5-1-1.2-6.2-4.5-8.1-5.5z" fill="#8d573e"/><path d="m57.8 75.4c.8 7.7-3.2 15.7-6.1 20.6h4.5c3.2-2.9 6.2-5.7 6.2-5.9-.1-.7-2.7-4.6-2.7-4.6l4.7-2.8c-2.3-4.5-6.6-7.3-6.6-7.3z" fill="#a1664c"/><path d="m31.7 83.6 5.6 2.2s-2.4 4.9-2.5 5.7c0 .2 2.5 2.2 5.4 4.5h5.3c-3.1-4.4-7.2-11.6-7.2-19.7 0 0-4.7 2.4-6.6 7.3z" fill="#a1664c"/><path d="m38.2 81c1.5 4.9 5.5 7.3 5.5 7.3l4.5-4.3 4.8 4.1c4.6-4.1 5.5-6.7 5.9-8.1 1.3-4.7-22.7-5.4-20.7 1z" opacity=".1"/><path d="m37.5 76.5c-2.3 5.8 5.9 10.5 5.9 10.5l4.9-3.1 4.5 2.9s9-4.7 5.6-11.4c-3.1-6.1-18.3-5.6-20.9 1.1z" fill="#93b7f5"/><path d="m44.7 68.5c-2.9.6-4.8 3.4-5 6.3-.2 2.2.2 3.5 1.4 4.7.9.9 2.3 1.8 3.8 2.2 1.1.3 2.9 1.6 3.3 1.6.1 0 .8-.5 1.8-1.1 1.5-.8 3.6-1.8 4.4-3.4 1.2-2.3 2.3-7 0-8.8-2.4-1.9-6.9-2.2-9.7-1.5z" fill="#ed9d6c"/><path d="m43.3 12.7c-30.7 2.3-25.8 45-17 43.2 6.5-1.3 12.8-3.1 19.2-4.7 6-1.5 12.6-.3 18.7.2 4.8.4 4.7-1.7 5-5.6.5-7.2-.3-9.9.1-12.8 1.4-12.5-8.5-21.6-26-20.3z" fill="#c9beb7"/><path d="m44.3 21.8c-11.3 2.1-19.3 18.4-17.3 33.6 1.5 11.4 10.2 24 23.4 23.2 13.5-.9 20.3-17.7 18.6-31.7-1.8-15.3-8.9-28.1-24.7-25.1z" fill="#ffb97f"/><path d="m23.1 49.1c-5.5 1.5-3.4 9.6 1.1 11.3 1.4.5 3 .6 4.5.5 0 0 .1-.1.1-.1.7-1-.5-6.5-.8-7.6-.9-2.9-2.3-4.9-4.9-4.1z" fill="#ffb97f"/><path d="m64 26.1c-6.1-2.5-12.1-3.9-18.8-4.1-4.5-.1-11.2-.4-14.8 2.9-2.9 2.6-3.1 7.6-3.3 11.2-.1 1.4-.1 12 .7 9.7 1.5-4.2 4.9-5.7 4.8-10.1 6.5 2.9 16.2 2.7 24.7 1.9 5.3-.5 9.6-1.8 10.7 2.6.6-3.7.2-12.3-4-14.1z" fill="#bf3c1b" opacity=".2"/><path d="m25 52.1c-1.2-.6-4.3.4-2.9 2.9.8-2.3 2.1-.8 1.9.8-.1 1.1-1.3 1.1-.2 2.5.6.8 1.9.5 2.5.1 2.1-1.3.2-5.6-1.3-6.3z" fill="#b54319" opacity=".35"/><path d="m74.7 15.8c-7.2 5.8-18.9-7-35.3-2.1-22.4 6.7-14.1 30.6-14 33.4.1 2.5 1.5 5.5 2.3 6.5.6.3 1.9.3 3 0-2-1.9-2.8-7-1.2-11.8.9-2.7 2.2-4.6 2-8.2 2 1.8 16 4.5 33.6.8 5.7-1.2 9.1-4.7 10.9-7.4-1.5 0-2.5.3-4.3.5 2.6-2.6 2.9-7.9 3-11.7z" fill="#c9beb7"/><path d="m56.2 15.2c-8-2.3-20.3-2.5-26.6 4.1s-.9 12.3 20.6 12.1c19.6-.2 23.6-14.1 23.6-14.1-5.9 2.7-9.6.1-17.6-2.1z" fill="#f0eae6" opacity=".7"/><path d="m24.3 48.9c1.9.1 2.2 3.9 3.6 4.9.6.3 1.8.2 2.8-.1-1.5-2.1-1.8-7.6-1.8-9.2-1 2.3-6.4 4.3-4.6 4.4z" fill="#9e8f88"/><path d="m23.2 27.7c-.8 1.8-1.3 3.6-1.6 5.6-.3 2.3-.5 5.6 1.2 7.4 2 2.2 5.2.9 6-1.5 2.4-7.2-5.6-11.5-5.6-11.5z" fill="#f0eae6" opacity=".7"/><path d="m37.5 77c2.3 8.6 20.9 10.8 24.8 1.3 3-7.1-26.5-7.9-24.8-1.3z" opacity=".1"/><path d="m68.8 45.2c1.1 23.2-6.1 14.5-6.1 14.5l-2.2.9c.8 5.7-5 8-6 4.2l-5.5.3c-1.5 5.6-7.3-.6-7.2-3.9.1-3.4-2.7-.8-2.7-.8-3.6 3.6-8.6-5.3-9.1-7.2l-2.8-.2s.1 31.4 27 28.9c23-2.2 15-37.7 15-37.7z" fill="#c9beb7"/><path d="m45 63.6c1.7 4.3 10.9 4.1 12.2.6-3.1 1.1-9.8 1.6-12.2-.6z" fill="#bf3c1b" opacity=".3"/><path d="m53.3 61.3c-2.2.2-5 0-6.9-.4-1.8-.4-3.1 1.4-1.7 2.9 1.9 2.1 5.4 2 7.8 1.9 1.8-.1 5.7-.5 6-3.5.2-2.5-4.1-1-5.2-.9z" fill="#ffcb9e"/><path d="m38.5 60.7c7.5 3.7 20.9 3.4 25.6-.8-5.9 1.2-19.8 2-25.6.8z" fill="#6e2210" opacity=".3"/><path d="m35.1 49.6c.1.9 2.1.5 2.8.6-.5.6-2.2.6-2.8 1-.7.4-.6.7.2.7.5 0 3.3-.7 3.7-1 1.4-1.3-3.2-1.4-3.9-1.3z" fill="#b54319" opacity=".5"/><path d="m67 50.4c-.5-.4-1.9-.4-2.3-1 .5-.1 2.2.3 2.4-.6-.6-.2-4.5-.1-3.3 1.2.3.3 2.6 1 3 1 .6.1.7-.2.2-.6z" fill="#b54319" opacity=".5"/><path d="m40.6 45.7c-2.9-1.3-4.7 3.9-2.8 5.6.9-.3 2-.2 2.9.3 2-1 2.1-4.9-.1-5.9z" fill="#121b21"/><path d="m52.5 55.2-2.2-.1c-2.6-.3-5.3.5-7.5 1.6-1.1.6-4.2 2.6-4.8 3.8 7 2.1 15.6 2.2 22.9.6 1.4-.3 2.7-.7 3.9-1.5-2.7-2.2-6.5-4.6-10.1-4.7-.8 0-1.5.1-2.2.3z" fill="#c9beb7"/><path d="m52.4 54.2c-1.5 0-2.1-.5-3.1 0s.5 2.3 3 2.2c2.6-.1 3.7-1.9 3.1-2.4s-1.4.2-3 .2z" fill="#a67663" opacity=".3"/><path d="m51.5 46c-1.3.1-1.5 3.5-1.9 5.1s-.7 3.2-.1 3.6c1.7 1.2 5.1.4 6-.5.4-.4-.5-2-1.3-3.7-.6-1.4-1.3-4.6-2.7-4.5z" fill="#ffd2ab"/><path d="m64 45.6c-3-1.6-5.3 4.7-2 5.5.7-.5 1.7-.8 2.5-.7 1.1-1.3 1-3.9-.5-4.8z" fill="#121b21"/><path d="m39.8 46.4c-1.2.4-.3 2.7.9 1.9.8-.6.1-2.2-.9-1.9z" fill="#7d8ba8"/><path d="m63.2 46.4c-1.1.3-.5 2.5.7 1.8.8-.5.3-2-.7-1.8z" fill="#7d8ba8"/><path d="m61.4 39.4c-2.6.1-4.6 0-4.6 0 0 1.2.6 3.7 2.5 3.5 1.2-.1 2.4-.5 3.6-.5 2.1-.1 3.6.2 4.4.4.9.2 1.1-.9.8-1.2-1.3-1.1-3-2.3-6.7-2.2z" fill="#4f2c1e"/><path d="m40.6 39.7c-4.2 0-5.9 1.4-7.2 2.5-.4.3 0 1.4 1 1.2.8-.2 2.5-.6 4.8-.6 1.3 0 2.7.3 4 .4 2.2.2 2.6-2.4 2.4-3.6.1-.1-2.1.1-5 .1z" fill="#4f2c1e"/><path d="m67.2 53.4c-1-1.3-2.9-1.3-4.3-1.1-1.8.2-4 1.3-2.1 3.9 1 1.4 8.1 1.4 6.9-1.9-.1-.4-.3-.7-.5-.9z" fill="#ffd2ab"/><path d="m41.3 53.6c-1.1-1.4-3.1-1.3-4.5-1-1.8.3-4.2 1.6-2.1 4.3 1.1 1.5 8.5 1.2 7.2-2.3-.2-.5-.4-.8-.6-1z" fill="#ffd2ab"/><path d="m55 56.6c-1.2.6-2.2 1-3.6 1-.9 0-3.1-1.2-4.5-1s-4.1 1.9-5.2 2.7c6.5 1.4 14.9 1.9 19.6-.6-1.5-1.3-4.6-2.9-6.3-2.1z" fill="#f0eae6" opacity=".7"/><path d="m62.7 67.8c-2-2.4-4-.3-3.9 2.2-2.9-4.1-8.2-1.3-8.4 1.4-1.6-4.5-6.2-4.2-5.9-1.1-.7-2.7-4.5-6.2-7.4-5.7-5 .9-.7 7.5 1 9.8 6.1 8.2 30.9 7.4 29.2-8.5-.6-4.1-5.2-3.1-4.6 1.9z" fill="#f0eae6" opacity=".7"/><path d="m61.5 45.6c1.2-.1 2.4-.1 3.6-.1.9 0 2.2.1 3-.2 1.3-.5 1-2.3.2-3.2s-2-.6-3.1-.5c-1.4.1-2.8.4-4.2.7-1.7.4-3.7.6-5.3 1.4-1.5.8-2.1 1.2-3.9 1.2-3.3-.1-6-2.2-9.3-2.5-3.4-.3-6.9-.7-10.2.2-.9.2-3.5 1.3-1.7 2.2 1.7.9 4.3.6 6.3.7.9 0 1.8 0 2.6.1 3.1.3 7.9-.2 7.7 3.7-.2 2.7-1.9 5.4-4 6-2.1.5-4.3.7-6.4.7-1.6 0-3.2-.3-4.6-1-.4-.2-1.7-1-2.1-.4-.7 1 1.9 2.5 2.5 2.8 1.5.7 3.1.9 4.8 1 4.1.4 8.2.2 10.5-3.6 1.3-2.2 2-4.7 3.2-7 2-3.7 2.8 1.3 3.4 3.5.3 1.2.8 2.4 1.5 3.5 1.2 1.8 3.7 2.9 5.7 3 1.3.1 5.3-.2 6.5-.7.7-.3 1.1-1.5.2-1.9-.5-.2-4.2.5-4.7.5-.8 0-1.6-.1-2.4-.2-1-.2-2-.7-2.8-1.3-.6-.5-1.1-1-1.5-1.7-.8-1.4-.8-3.1-.2-4.6.7-2.1 2.9-2.2 4.7-2.3z" fill="#a67663" opacity=".3"/><path d="m28.8 42.3c-2.7.3-5-.3-5.6.2-.8.8.8 3.1.8 3.1s.9.5 2.1.6c.3 1.9.5 6.7 4.1 9.5 3 2.4 12.4 2.5 15.2.8 3.5-2 4.8-5.5 5.2-8.9 1-8.1-18-5.6-21.8-5.3zm16.7 12c-3.4 2.5-12.5 2-15-.7-2-2.1-2.6-6.8-1.5-7.6 3.3-2.3 16-2.3 19.1-.3 1.5 1.1-.1 6.7-2.6 8.6z" fill="#3a3a4a"/><path d="m72.4 41.4c-3.3-.2-19.8-1.8-18.7 6.4.5 3.3 1.7 6.7 4.7 8.6 2.5 1.5 10.5 1 13-1.5 3-3 3.1-7.8 3.3-9.7 1.1-.1 1.8-.7 1.8-.7s1.3-2.4.6-3.1c-.4-.6-2.4.1-4.7 0zm-1.1 11.4c-2.1 2.9-9.9 3.8-12.9 1.4-2.3-1.8-3.7-7.3-2.5-8.4 2.6-2.2 13.6-2.8 16.5-.6 1 .6.6 5.3-1.1 7.6z" fill="#3a3a4a"/><g fill="#fff"><path d="m58.1 45.2c-1.8.7 1.4 1.9 2.1 2.1 2.4.5 5.2.5 7.8.1 1.4-.2 4.4-1.3 3.6-2.2-1.1-1.2-11.5-.8-13.5 0z" opacity=".3"/><path d="m66.2 45.2c-1 .1-1.6.4-1.4.8.5.9 6.3.8 6.7.1s-3.2-1.2-5.3-.9z"/><path d="m59.8 52.1c-.6 0-1.1.1-.9.5.2.8 3.8 1.4 4.1.9s-1.9-1.3-3.2-1.4z" opacity=".7"/><path d="m32.5 52.8c-.7-.1-1.2 0-1.1.5.2.8 4.1 1.5 4.5 1.1.4-.5-2-1.5-3.4-1.6z" opacity=".7"/><path d="m46.6 45.4c-2.4-.7-14.4-.8-15.5.3-.8.8 2.8 1.8 4.4 2 3.1.3 6.3.2 9-.3.8-.1 4.3-1.3 2.1-2z" opacity=".3"/><path d="m41.4 45.1c-1.1.1-1.8.4-1.5.9.5.9 6.9.8 7.4.1.4-.8-3.6-1.3-5.9-1z"/></g><path d="m56.3 43c-2.6.8-5.2 1-8.5.1-2.7-.7 1.4 1.6 1.7 3s-.1 5.8.8 3.3 2.6-2.6 3.7-.3 1.3-3.7 1.8-4.2c.4-.6 3-2.7.5-1.9z" fill="#3a3a4a"/><path d="m30.1 43c7.2-.1 13-.3 17.5 1.1-3-2.1-7.9-2.3-17.5-1.1z" fill="#c1c5c9"/><path d="m57 43.8c3.7-1.6 8.5-1.2 14.8-1.8-8.4-.2-12.4-.3-14.8 1.8z" fill="#c1c5c9"/></g></svg>