<svg enable-background="new 0 0 96 96" viewBox="0 0 96 96" xmlns="http://www.w3.org/2000/svg" xmlns:xlink="http://www.w3.org/1999/xlink"><clipPath id="a"><circle cx="48" cy="48" r="48"/></clipPath><path clip-path="url(#a)" d="m0 0h96v96h-96z" fill="#e9efef"/><g clip-path="url(#a)"><path d="m82.9 63.2c2.2-3.6-2.5-12.5-12.1 2.6-3.1 4.9.7 5.7 4.5 7.6 1.9.9 4.2 2.7 5.2-.4.6-1.8.4-3.1.9-4.9.3-1.5.7-3.6 1.5-4.9z" fill="#ffcb9e"/><path d="m67.4 44.4c-.6-.5-1.5-.3-2 .3l-7.3 9.4c-.5.7-.4 1.6.2 2l16.7 13.1c.6.5 1.5.3 2-.3l7.3-9.4c.5-.6.4-1.6-.2-2z" fill="#404048"/><path d="m66.8 44c-.6-.5-1.5-.3-2 .3l-7.2 9.2c-.5.6-.4 1.5.2 2l16 12.5c.6.5 1.5.3 2-.3l7.2-9.2c.5-.6.4-1.5-.2-2z" fill="#141418"/><path d="m66.8 44c-.6-.5-1.5-.3-2 .3l-7.2 9.2c-.5.6-.4 1.5.2 2l16 12.5c.6.5 1.5.3 2-.3l7.2-9.2c.5-.6.4-1.5-.2-2z" fill="#141418"/><path d="m67.3 46.9c-.5-.4-1.1-.3-1.5.2l-5.2 6.7c-.4.5-.3 1.1.2 1.5l12.3 9.7c.5.4 1.1.3 1.5-.2l5.2-6.7c.4-.5.3-1.1-.2-1.5z" fill="#fff"/><path d="m64.8 44.3-7.2 9.2c-.5.6-.4 1.5.2 2l11.4 9c1.1-4.8 4.4-14 4.8-14.8l-7.2-5.7c-.6-.5-1.5-.3-2 .3z" fill="#fff" opacity=".5"/><path d="m70.6 64.2c1.6 1.3 2.6 3.3 2 5.1-.3 1-1 1.9-2.1 1.3-1.3-.7-.8-2.8-1.4-3.9-.4-.6-1.8-1.9-1.6-2.7.3-1.1 2.4-.4 3.1.2z" fill="#ffcb9e"/><path d="m69.2 81.7c4.9 2.9 5.6 3.7 7.2 1.9 1.9-2.1-1.6-9.6-1.6-9.6l7-5.9s8.9 15.4.1 23.2c-5 4.4-10.8 3-15.2.7-.3 0 1.2-11.1 2.5-10.3z" fill="#1e1e29"/><path d="m21.7 96h10.2l-1-16.7c-7.2 3.3-9.4 4.1-9.2 16.7z" fill="#1e1e29"/><path d="m64.6 79.3-1 16.7h10.2c.3-12.6-1.9-13.4-9.2-16.7z" fill="#1e1e29"/><path d="m59.6 77.2c-7.4-4-18.1-2.6-23 .6-5.7 3.8-5.5 9.6-4.2 18.2h31.1c1.4-8.6 1.8-15.8-3.9-18.8z" fill="#e8e8e8"/><path d="m51.1 86.3s-1-2.3-3.9-1.7c-2.6.5-3 2.7-3 2.7l2.1 2.2-1.6 6.5h6.8l-1.7-7z" fill="#313142"/><path d="m58.2 76.5c-1.8 5.7-2.3 13-2.3 19.5h9.8c.5-8.4.9-14.5.5-15.4-.7-1.7-8-4.1-8-4.1z" fill="#1e1e29"/><path d="m29.5 80.6c-.4.9 0 7.1.5 15.4h9.8c0-6.5-.6-13.8-2.3-19.5-.1 0-7.4 2.4-8 4.1z" fill="#1e1e29"/><path d="m37.9 81.8c1.4 4.8 6.3 7.5 6.3 7.5l3.5-3.8 4.6 3.8c3.1-1.6 6.2-5.5 6.2-8.7.1-2.4-22-3.6-20.6 1.2z" opacity=".1"/><path d="m38 76.1c-3.9 5.3 6 12 6 12l3.8-3 4.4 3.2s9-4.9 5.8-11.6c-2.9-6-16.1-5.9-20-.6z" fill="#f5f5f5"/><path d="m54.9 70.3c-2.5-2-7.3-2.3-10.3-1.6-3.1.7-5.1 3.6-5.4 6.5-.3 3.8 5.3 8.8 9.1 8.9 2.9.1 15.2-7 6.6-13.8z" fill="#f2b486"/><path d="m58.1 76.1c-2.7 9.1-2.4 18.2-2.2 19.4.1.8 8.8-9.7 8.8-10-.1-.3-3.4-2.8-3.4-2.8l3.6-4.2c-3.6-2-6.8-2.4-6.8-2.4z" fill="#313142"/><path d="m30.6 78.5 3.6 4.2s-3.3 2.5-3.4 2.8 8.7 10.9 8.8 10.2c.2-1.2.4-10.5-2.3-19.6.1 0-3.1.4-6.7 2.4z" fill="#313142"/><path d="m59.9 17.3c-5.3-2.6-34-8.5-37.8 18-.7 4.6 33.8 5.7 36.8 7.8 1.6 1.2 3.3 2.3 4.6 3.9.8 1.1 1.7 2.4 3 3 .9.4 3 1.2 3.7.1 2.1-3.2 2.7-12.1 1.2-18.2-1.5-5.3-6.7-12.2-11.5-14.6z" fill="#b8b1ad"/><path d="m25.5 56.3c2.1 12.2 12 25.2 26.2 23.7 14.4-1.6 20.5-19.8 18.8-34.9-1.8-15.5-3.8-35.7-28.4-31.9-19.1 3-19.5 26.9-16.6 43.1z" fill="#ffcb9e"/><path d="m22.8 61.7c1.6.5 3.2.5 4.8.3 0-.1.1-.1.1-.2.7-1.2-.6-7.4-1-8.6-1-3-2.9-4.5-5.7-3.6-5.8 2-3.1 10.6 1.8 12.1z" fill="#ffcb9e"/><path d="m25 59.5c2.1-1.5-.1-6-1.8-6.7-1.4-.6-4.6.7-3 3.2.7-2.5 2.3-.9 2.1.8-.1 1.2-1.3 1.2-.1 2.7.8.8 2.1.4 2.8 0z" fill="#c94614" opacity=".3"/><path d="m30.5 35.5c-.4 1-.9 2-1.2 2.8-1.8 4.4-1.4 10.6-.6 15.1 0 0-3.6-3.7-6.5-3.9-2.3-1.8-2.3-6.1-2.2-9 0-4.4 1.8-15.5 7.5-15.5 3.7-.1 3.9 8.1 3 10.5z" fill="#b8b1ad"/><path d="m54 12.7c-9.3-.8-17.3 2.8-22.6 8.2 7.4-4.8 18.8-7 27.7-4.8-8.8.1-16.3.6-25 8.5 8.8-4.9 18.7-6.7 28-5.6 1.3.2 2.1 2.1 2.9 3.3 1.7-3.8-4.1-8.9-11-9.6z" fill="#b8b1ad"/><path d="m34.2 51.1c1.3-1.9-3.9-1.4-4.6-1.1.4 1.2 2.5.3 3.3.4-.4.8-2.2 1-2.8 1.6-.7.6-.5 1 .4.8.5 0 3.4-1.2 3.7-1.7z" fill="#c94614" opacity=".3"/><path d="m66.5 49.2c-1-1.7 3.2-1.5 3.9-1.2-.4 1.1-1.9.3-2.6.5.3.7 1.9.9 2.4 1.4.5.6.4.9-.4.8-.6-.1-3.1-1.1-3.3-1.5z" fill="#c94614" opacity=".3"/><path d="m69.5 52.5c.2.3.3.5.4.9 1 3.3-6.6 2.5-7.5 1-1.8-2.7.7-3.4 2.6-3.5 1.5 0 3.5.3 4.5 1.6z" fill="#ffa073"/><path d="m38.3 53.2c.3.2.5.5.7.8 1.9 3.1-6.1 4.2-7.4 3-2.5-2.2-.1-3.7 1.8-4.2 1.5-.4 3.6-.7 4.9.4z" fill="#ffa073"/><path d="m37.1 51.5c-1-.4-2.1-.5-3.1-.2-2.2-1.7-.4-7.3 2.7-6.1 2.4.9 2.4 5.1.4 6.3z" fill="#224245"/><path d="m55.7 54.3c-.8-.9-1.9.2-3.9.3-1.8.1-2.6-.7-3.8.1s.7 3.2 3.9 2.9c3.2-.2 4.5-2.5 3.8-3.3z" fill="#b54d26" opacity=".3"/><path d="m51.1 47.8c-3.4-.2-3.4 7.1-2.6 7.7 2 1.4 5.9.2 7-1.1.5-.5-1.1-6.5-4.4-6.6z" fill="#ffdfc2"/><path d="m66.6 43.8c1.7 1 1.9 4.5.6 5.9-.8-.3-2.5-.4-3.3.1-2.6-1.5-.5-7.8 2.7-6z" fill="#224245"/><path d="m35.3 46.6c1.1-.4 1.9 1.3 1 2-1.2.9-2.3-1.5-1-2z" fill="#d4e6dd" opacity=".7"/><path d="m65 44.9c1.1-.3 1.6 1.5.7 2-1.2.8-1.9-1.7-.7-2z" fill="#d4e6dd" opacity=".7"/><path d="m43.9 36.8c1.3.2 2.1 1.2 1.4 2.6-.6 1.1-3.5.4-7.4.2-4.3-.2-7 .1-7.3-.6-.3-.8 2.2-2 6-2.4 2.4-.3 4.8-.2 7.3.2z" fill="#5e5a59"/><path d="m57.8 36.2c-1.2.3-1.8 1.3-1.2 2.7.5 1.1 3.1.2 6.6-.2 3.8-.4 6.2-.2 6.5-1 .2-.8-2-1.9-5.4-2.1-2.2-.2-4.3 0-6.5.6z" fill="#5e5a59"/><path d="m34.7 33.4c10.4-2.7 25.6-2.5 32.1-1.7-10.8 1-19.3 1.3-32.1 1.7z" fill="#b54d26" opacity=".2"/><path d="m37 28.6c9.1-2.4 22.4-2.2 28.2-1.5-9.5.9-16.9 1.2-28.2 1.5z" fill="#b54d26" opacity=".2"/><path d="m59.6 60.8 2.7-.9c-5.5-.7-11.3-1.1-16.6.4-3.4 1-8.3 3.6-5 6.8 4.1 4.1 15 3.4 19.1.2 2.7-2.2 2.9-4.6-.2-6.5z" fill="#f7a286"/><path d="m41.4 65.8c1.5 3.6 13.5 3.2 16.7 1.1 2.8-1.8 3.4-4.1-.5-5.7.4-.2 1.1-.5 1.7-.8-9.9-1-19.5 1.3-17.9 5.4z" fill="#8f2724"/><path d="m43.1 62.3c-.7.4-.6.9.4 1.3 2.2.9 6-.2 8.2-.3 5.5-.3 6.1.5 6.4-.2.4-.7 1-2.6-.3-2.8-4.8-.4-11.2-.2-14.7 2z" fill="#fff9f0"/><path d="m43.5 63.5s6.8-4.5 15.1-1.8c0 0 .3-1.3-.6-1.4-2.1-.4-12-.7-15.3 2.2.1 0-.6.6.8 1z" fill="#e8dac5"/><path d="m58.4 53.2c-.7-.5-1.2-1.1-1.7-1.7-.9-1.4-.9-3.2-.4-4.8.7-2.2 3.1-2.4 5.1-2.6 2.4-.2 4.8-.2 7.1-.5 1-.1 2.1 0 3.1 0 1.4 0 4.3-.4 2.6-2.4-1.6-1.9-4.6-1.9-6.8-1.7-2.2.1-4.5.5-6.7 1.1-1.9.5-4 .8-5.7 1.7-1.6.9-2.2 1.4-4.1 1.3-3.4-.1-6.3-2.2-9.7-2.5-3.6-.3-7.2-.7-10.7.3-.9.3-3.6 1.4-1.8 2.3s4.5.6 6.5.6c.9 0 1.8 0 2.8.1 3.3.3 8.2-.3 8 3.8 0 2.9-1.8 5.8-4 6.4-2.2.5-4.5.8-6.7.8-1.7 0-3.3-.3-4.8-1-.4-.2-1.8-1-2.2-.4-.7 1 2 2.6 2.7 2.9 1.6.7 3.3.9 5 1 4.2.4 8.6.1 10.9-3.8 1.4-2.3 2-5 3.3-7.3 2-3.8 3.1 1.3 3.8 3.6.4 1.3.9 2.5 1.7 3.6 1.4 1.9 4.1 2.9 6.3 2.9 1.4 0 2.8 0 4.1-.6.8-.3 1.1-1.3.1-1.6-.6-.2-1.5 0-2.1-.1-.9 0-1.8 0-2.6-.2-1-.1-2.1-.6-3.1-1.2z" fill="#b54d26" opacity=".3"/><path d="m22 44.6s.9.6 2.2.6c.3 1.9.6 7 4.4 9.9 3.2 2.4 12.9 2.5 15.8.7 3.6-2.2 4.9-5.8 5.3-9.3 1-8.6-18.9-5.8-22.8-5.4-2.8.3-5.2-.3-5.8.3-.8.9.9 3.2.9 3.2zm5.1.4c3.4-2.4 16.7-2.6 19.9-.4 1.6 1 0 6.9-2.6 8.9-3.5 2.7-13 2.2-15.7-.6-2-2.2-2.7-7.1-1.6-7.9z" fill="#3a3a4a"/><path d="m78.5 39.1c-.6-.6-2.7.2-5.3.2-3.6-.1-21.7-1.2-20.1 7.3.6 3.5 2.1 6.9 5.5 8.8 2.7 1.5 11.5.6 14.2-2.1 3.2-3.2 3.1-8.3 3.2-10.2 1.2-.1 2-.8 2-.8s1.3-2.4.5-3.2zm-6.1 12.1c-2.2 3.1-10.7 4.3-14.1 1.9-2.5-1.8-4.3-7.5-3-8.7 2.8-2.4 14.8-3.4 18-1.2 1.1.7.8 5.6-.9 8z" fill="#3a3a4a"/><g fill="#fff"><path d="m57.7 43.7c2.2-.9 13.5-1.6 14.7-.4.9.9-2.3 2.1-3.8 2.4-2.9.5-5.9.6-8.5.1-.8-.1-4.4-1.2-2.4-2.1z" opacity=".3"/><path d="m66.5 43.4c2.3-.3 6.2.1 5.8.8s-6.7 1.1-7.3.2c-.2-.5.5-.8 1.5-1z"/><path d="m59.8 50.9c1.4 0 3.8.8 3.5 1.3s-4.3 0-4.5-.8c-.1-.4.4-.5 1-.5z" opacity=".7"/><path d="m30.9 52.1c1.5.1 4 1.1 3.6 1.6s-4.5-.2-4.7-1.1c-.2-.5.3-.6 1.1-.5z" opacity=".7"/><path d="m29.3 44.7c1.2-1.2 13.6-1.2 16.2-.5 2.3.6-1.4 1.9-2.2 2.1-2.8.6-6.2.7-9.4.4-1.6-.1-5.4-1.1-4.6-2z" opacity=".3"/><path d="m40.1 43.9c2.4-.3 6.6.2 6.1.9s-7.1 1-7.7 0c-.3-.5.5-.8 1.6-.9z"/></g><path d="m46.7 41.8c3.5.9 6.2.6 8.9-.3s0 1.4-.5 2-.5 6.8-1.8 4.5c-1.3-2.4-3-2.2-3.9.4s-.6-2-.9-3.4c-.3-1.5-4.6-3.9-1.8-3.2z" fill="#3a3a4a"/><path d="m46.5 42.9c-3.1-2.2-8.3-2.4-18.3-1 7.6-.2 13.7-.4 18.3 1z" fill="#c1c5c9"/><path d="m56.5 42.3c2.5-2.3 6.8-2.3 16-2.4-6.8.9-11.9.6-16 2.4z" fill="#c1c5c9"/></g></svg>