<svg enable-background="new 0 0 96 96" viewBox="0 0 96 96" xmlns="http://www.w3.org/2000/svg" xmlns:xlink="http://www.w3.org/1999/xlink"><clipPath id="a"><circle cx="48" cy="48" r="48"/></clipPath><linearGradient id="b" gradientUnits="userSpaceOnUse" x1="47.7186" x2="47.7186" y1="74.3386" y2="81.2078"><stop offset="0" stop-color="#e88958"/><stop offset=".3384" stop-color="#f49d62"/><stop offset=".6924" stop-color="#fcab69"/><stop offset="1" stop-color="#ffb06b"/></linearGradient><path clip-path="url(#a)" d="m0 0h96v96h-96z" fill="#e9efef"/><g clip-path="url(#a)"><path d="m40.3 82.5-2.2-4.3c-2.9 1.5-3.3 5.1-3.8 9.3-.4 3.4-.9 6.2-1.9 8.4h5.1c.9-2.7 1.2-5.5 1.5-7.8.2-1.8.6-5.1 1.3-5.6z" fill="#1e1e29"/><path d="m57.9 78.3-2.2 4.3c.6.5 1 3.7 1.3 5.7.3 2.3.6 5.1 1.5 7.8h5.1c-1-2.2-1.5-5-1.9-8.4-.5-4.3-.9-8-3.8-9.4z" fill="#1e1e29"/><path d="m56.5 79.3c-2.5-6.3-12.6-5.1-16.1-2-3.5 3-2.8 8.5 1.2 12.5 2.7 2.7 4.4 4.8 5.4 6.3h2.8c2.8-4.2 8.3-12.9 6.7-16.8z" fill="#f5f5f5"/><path d="m57.4 88.4c1.5-3.7 1.1-4.4.7-6.6-.9-4.5-2-2.1-2.4-.8-2.1 6.5-7.2 12.6-7.2 12.6s-7.1-7.1-8.8-12.6c-.4-1.3-.1-3.2-1.2-.8-1.9 4.3-.4 6 .5 9.5.5 1.9.6 3.9.4 6.3h16.7c-.2-2.2.1-4.6 1.3-7.6z" fill="#1e1e29"/><path d="m54.5 76.2c-.3-.1-.5-.1-.6-.1.8 1.1 1.3 1.9 1.1 3.3-1 4.9-3.6 10.1-6.5 14.2 0 0 7.5-5.9 11-9.2.7-.7-.6-1.4-1.3-1.9-.4-.3-1-.6-1.5-.8.2-.6 2.8-1.8 3.5-2.6.7-.9-3.9-2.4-5.7-2.9z" fill="#313142"/><path d="m41.4 76.5c-.3.1-7.1 1.5-6 2.8.7.8 3.2 2 3.5 2.6-.5.2-1.1.5-1.5.8-.7.5-2 1.3-1.3 1.9 3.5 3.3 12.4 9.1 12.4 9-2.5-3.1-4.7-6.5-6.4-10.1-1-2.2-2.5-4.9-.7-7z" fill="#313142"/><path d="m53.1 76.1c-2.7-1.5.2-8.3-1.9-10-1.6-1.3-4.3-1.4-6.2-.6-3.7 1.5 0 9.8-3.6 11.3-.7.3-.9 1.1.5 3.3 1.7 2.7 3.7 5.4 6.2 8 2-1.8 5.6-7.2 6.1-8.5.9-2.6.3-2.8-1.1-3.5z" fill="url(#b)"/><path d="m43.4 90s3.6-1 4.6-1c1.2 0 4.3.8 4.3.8s-3.2-1.4-4.4-1.4c-.8 0-4.5 1.6-4.5 1.6z" fill="#a09d98" opacity=".2"/><path d="m49.5 88.7 5.3 2.1s.7-6.7.2-12.3z" fill="#f5f5f5"/><path d="m41.1 90.9 5.3-2.1-5.8-10.3c-.5 5.6.5 12.4.5 12.4z" fill="#f5f5f5"/><path d="m72.6 25.2c1 .4 2 .6 3.1.7-.4-1-4.5-10.8-13.1-12.3 1.3-.9 3.5-1.1 5-1.3-2.7-1.5-9.1-4.3-15.4-1.9-.4-.1-3.9-2.7-7.1-2.8.4.6 2.3 2 2.4 2.7-4.2-1.5-8-.7-12.4.4-2 .5-5.4 2.2-6.5 3.9.9-.3 1.9 0 2.6.5-4 1.3-8.8 4.9-10.2 9 1-.1 2.1-.7 3.2-.8-.9.1-2.3 2.6-2.6 3.3-.7 1.3-1.1 2.7-1.4 4.1-.5 2.6-1.1 5.8-.6 8.5.6-.8 1.4-1.4 2.1-2.2-1.9 4.2-.4 8.1 1.3 11.9.8 1.9 1.9 3.5 2.9 5.2.8 1.3 1.2 2.8 2 4.1 2.6 3.9 5.4 2.3 9.2 1.4 2.9-.7 5.9-1.2 8.8-1.3 3.3-.2 6.8-.4 10.1.4 3.1.7 6.6 2.1 9.8.8 6-2.5 5.9-10.2 6.1-15.4.5.4 1.1.9 1.5 1.2.1-3.6.5-7.2.6-10.9.8.5 1.6 1.2 2.4 1.6-.1-1.7-1.8-10-3.8-10.8z" fill="#261b18"/><path d="m44.3 23.2c-11 2.1-19.1 17.7-16.8 32.2 1.6 9.8 13.5 22 23.1 22 11.2 0 19.8-17 18.1-30.4-1.9-14.6-8.9-26.7-24.4-23.8z" fill="#ffb06b"/><path d="m63.6 27.2c-6-2.4-11.9-3.7-18.5-3.8-4-.1-8.4-.3-12.2 1.4-5.6 2.5-8 6.2-8.7 12-.3 2.1-.1 5.7 2.8 5.9 4 .3 4.2-4.7 5.5-7.2 2.1 1.2 4.7 1.9 7 2.5-.8-1.3-.8-3.3-.6-4.8 2.1.8 17.1 3.5 17.1 3.5s-.6-1.9-.6-2.7c2.5 2.6 5.3 4.6 9.2 4.5 0-1 .1-2.4.5-3.4 0-.1.5-7.1-1.5-7.9z" fill="#bc551e" opacity=".3"/><path d="m23.7 49.3c-5.4 1.5-3.2 9.2 1.2 10.8 1.4.5 2.9.6 4.4.5 0 0 .1-.1.1-.1.6-1-.3-6.6-.6-7.7-.9-2.8-2.5-4.2-5.1-3.5z" fill="#ffb06b"/><path d="m25.6 52.2c-1.2-.5-4.3.4-2.8 2.8.8-2.2 2.1-.7 1.9.8-.1 1-1.3 1-.1 2.4.6.7 1.8.4 2.5.1 1.8-1.3 0-5.5-1.5-6.1z" fill="#bf3c1b" opacity=".3"/><path d="m66.2 26.8c-1.9-2.3-3.5-4.6-5.8-6.6-6.1-5.1-14.1-5-21.6-3.8-2.9.5-5.9 1.2-8.5 2.6-2.2 1.2-3.1 4.1-4.2 6.3-2.4 5.1-4.4 20.4-1.7 23.8.6 0 1.7-.1 2.6.7 1.1 1.1 1.1 2.2 1.5 2.8.2.3 1.4.7 2.5.6-.8-5.3-2.1-16.4 2.4-20.3.1 1.7 3.4 3.8 5 4.1-.7-1.8-.3-3.7-.7-5.5 4.7.7 12.2 2.3 16.8 3.4-.3-.7-.6-2.6-.9-3.6 3.4 2.3 5.5 4.5 9.7 5.6.3-1.4.5-2.8.5-4.3 0 .6 6.5 1.4 7.1 1.5-.1-1.4-.7-2.6-1.5-3.7-1-1.2-2.2-2.5-3.2-3.6z" fill="#261b18"/><path d="m62.1 18.6c1.4-.5 3.2-.8 4.7-.6-2-2.6-6.6-4.1-9.6-4.3.3-1 .5-2 1.2-2.6-1.1.9-3.8.8-5.1 1.7-.6-.8-1.8-1.3-2.9-1.4.3.6.6 1.4.8 2.1-2.8-1-5.9-1.1-8.8-1.3-.7 0-5 .3-5.4-.3.7 1.2 2.2 1.7 3.4 2.2-2.7-.1-5.1 1.3-7.8 1.7.9.7 2.1.5 3.1.6-4.2 1.7-8.6 3.9-10.8 8.2 1.8-.3 3.7-.9 5.6-1.2-.6 1.9-2.1 3.9-2.2 6.1 6.2-5.3 15.5-2.1 22.2.5-2.3-2.2-5.4-5.1-8.7-5.9-.1 0-.1 0 0 0 3.3 0 7 1.1 10.1 2.3 3.6 1.5 7.3 5.1 11.3 5.4-.4-2.3-2.3-4.7-3.6-6.4 3.7 1.3 6.8 3.5 10.6 4.3-.5-.1-1.9-3.2-2-3.8 1.4.4 2.7 1 4.2 1.1-2.3-4-6.9-5.9-10.3-8.4z" fill="#57443a"/><path d="m63.6 52.1c-1.7-.2-4.1 0-2.9 2.2.6 1.1 7.3 2.7 6.9.2 0-.3-.1-.5-.3-.7-.5-1.1-2.3-1.5-3.7-1.7z" fill="#f58a53"/><path d="m40.9 53c-1.3-.8-3.2-.6-4.5-.4-1.7.4-3.8 1.4-1.5 3 1.2.9 8.4.2 6.6-2.1-.1-.2-.3-.4-.6-.5z" fill="#f58a53"/><path d="m40.1 45.9c-2.8-1.2-4.6 3.7-2.7 5.4.9-.3 2-.2 2.8.2 1.9-1 2-4.7-.1-5.6z" fill="#202930"/><path d="m64.7 45.7c-2.9-1.7-5 4.1-2.6 5.7.8-.5 2.3-.3 3 0 1.1-1.3 1.1-4.8-.4-5.7z" fill="#202930"/><path d="m39.1 46.8c-1.2.4-.3 2.6.9 1.8.8-.6.1-2.1-.9-1.8z" fill="#c3cee6" opacity=".7"/><path d="m63.4 46.9c-1.1.2-.6 2.4.6 1.8.9-.4.4-2-.6-1.8z" fill="#c3cee6" opacity=".7"/><path d="m41.3 41.7c-1.4-.1-2.8-.5-4.2-.8-1.8-.3-4.1.7-4.7 1.9.4 0 .8 0 1.2-.1.6-.1 1.2-.2 1.8-.1 1.2 0 2.4.4 3.6.6.9.1 5.1 1.1 5.2.1 0-.3-.2-1.2-.6-1.5s-1.7-.1-2.3-.1z" fill="#2b221c"/><path d="m64.9 40.6c-1.3.3-2.5.8-3.8 1-.5.1-1.7-.1-2.2.3-.3.3-.5 1.2-.5 1.5.1 1 4-.2 4.8-.4 1.1-.2 2.2-.7 3.3-.8.6 0 1.1 0 1.7.1h1.2c-.7-1.2-2.8-2.2-4.5-1.7z" fill="#2b221c"/><path d="m52.1 54.7c-1.3.1-1.8-.4-2.7.1s1.2 2.1 2.7 2c1.8-.2 3.2-1.7 2.7-2.2-.5-.6-1.3.1-2.7.1z" fill="#bf3c1b" opacity=".3"/><path d="m37.5 44.9c-1.6.4-3.2 1.9-6.8.5 0 0 3 3.5 7.5 1.2 2-1 3.4 1 3.4 1s-1-3.4-4.1-2.7z" fill="#121b21"/><path d="m65.3 45.1c-3.2-.8-4.1 2.7-4.1 2.7s1.4-2 3.4-1c4.6 2.3 7.5-1.2 7.5-1.2-3.6 1.5-5.2-.1-6.8-.5z" fill="#121b21"/><path d="m51.3 58.9c-4.5.1-11.1 1.4-14.6-.7 5.8 9.9 9.4 11.8 13.9 12.1 5.8.4 7.8-3.6 8.7-6.6.4-1.3 3.3-4.5 4.5-5.3-3.5.9-7 .4-12.5.5z" fill="#ff3b3b" opacity=".8"/><path d="m39.5 59.9s9.5 3 22.1 0c0 0-2 .9-2.9 3.3-.9 2.2-3.9 3.7-8.5 3.6-7.3-.2-10.7-6.9-10.7-6.9z" fill="#a80a0a"/><path d="m42.1 60.6s.2 2 2.7 2.8c3.3 1 6.8 1.1 10.4.6 2.5-.4 3.7-3.5 3.7-3.5s-7 1.7-16.8.1z" fill="#fff9f0"/><path d="m43.3 63.5c-.2-.5-.1-1.4 1-.6 1.6 1.1 4.3 1.4 7.6 1.3 3-.1 4.6-1 5.2-.4s-2.2 3.8-7.4 3.1c-5.4-.7-6.4-3.4-6.4-3.4z" fill="#fff9f0"/><g fill="#e8dac5"><path d="m42.7 62s12.3-.9 15.2.3c0 0 .9-1.1 1-1.7 0 0-8.6 1.5-16.9.1.1-.1.3.8.7 1.3z"/><path d="m45.3 63.3s4.1 1.8 9.7.6c-.1 0-5.4 2.2-9.7-.6z"/></g></g></svg>