<svg enable-background="new 0 0 96 96" viewBox="0 0 96 96" xmlns="http://www.w3.org/2000/svg" xmlns:xlink="http://www.w3.org/1999/xlink"><clipPath id="a"><circle cx="48" cy="48" r="48"/></clipPath><path clip-path="url(#a)" d="m0 0h96v96h-96z" fill="#c8dbe9"/><g clip-path="url(#a)"><path d="m25.8 87c-.3 2.7.1 8.7.1 9h8s.4-10.7 3.7-12.5l-2.8-6.3c-6.3 2.2-8.7 6.1-9 9.8z" fill="#1e1e29"/><path d="m61.8 77.3-2.8 6.2c3.3 1.7 3.7 12.5 3.7 12.5h8c0-.4.4-6.4.1-9-.3-3.7-2.6-7.6-9-9.7z" fill="#1e1e29"/><path d="m59.7 76.2c-7.2-3.9-17.7-2.5-22.5.6-5.9 3.9-5.3 10-3.9 19.2h29.8c1.7-9.1 2.4-16.7-3.4-19.8z" fill="#9ab5de"/><path d="m59.4 75.6c-1.5 5-3.4 12.9-5 20.4h9.6c1.3-7.5 2.8-15.3 2.4-16.5-.6-1.6-7-3.9-7-3.9z" fill="#1e1e29"/><path d="m59.3 74.4s-1.1 7.2-1.3 8.1c-.2 1 9.4-1.9 9.5-2.9 0-.9-2.2-4.8-8.2-5.2z" fill="#313142"/><path d="m58.5 79.8c-.8 1.4-2.7 8.3-4.4 16.2h5.8c2.8-5.6 5.2-10.3 5.4-10.8.4-1.1-6.1-6.7-6.8-5.4z" fill="#313142"/><path d="m30.1 79.5c-.5 1.2 1.1 9 2.4 16.5h9.6c-1.6-7.6-3.5-15.4-5-20.4 0 0-6.4 2.3-7 3.9z" fill="#1e1e29"/><path d="m29.1 79.7c.1 1 9.7 3.9 9.5 2.9s-1.3-8.1-1.3-8.1c-6 .3-8.2 4.2-8.2 5.2z" fill="#313142"/><path d="m31.3 85.2c.2.5 2.6 5.2 5.4 10.8h5.8c-1.6-7.9-3.6-14.8-4.4-16.2-.8-1.3-7.2 4.3-6.8 5.4z" fill="#313142"/><path d="m47.1 66.7c-13.3 0-13.3 19.3 1.2 19.3 13.5 0 17.4-19.3-1.2-19.3z" opacity=".1"/><path d="m47 66c-14.2 0-14.2 18.3 1.2 18.3 14.5.1 18.6-18.3-1.2-18.3z" fill="#b0c6e8"/><path d="m68.4 17.1c-7.3-8.4-19.7-9.5-33.8-3.7 1.3.1 3.9.4 7.3-.2-7.4 3.3-16.2 7.6-18.3 16.3-2.4 9.9-.7 21.6 4.8 22.4 4.7.7 10.7-9.7 13.9-8.7 6.8 2.1 23.8.2 28.7-6.8 2.2-3.2 2.4-8 1.3-12.2-.8-2.9-2.3-5.3-3.9-7.1z" fill="#2b221c"/><path d="m46.1 21.3c-11.6 2-20 18.5-18.2 34.2 1.4 11.7 10.1 24.7 23.6 24 13.8-.7 21-17.8 19.5-32.2-1.6-15.6-8.8-28.8-24.9-26z" fill="#ffcb9e"/><path d="m61.2 24.5c-4.4-1.4-9-2.2-13.7-2.4-4.1-.1-8.6-.5-12.5 1.2-2.1.9-4.7 2.1-5.6 4.4-.7 1.9-1.5 4.3-.5 6 2.1 3.5 6.5 1.5 8.1.7 3.6-1.8 19.6-.2 27.1-.1 3.1.1 7.6-.4 6.4-4.7-.9-3.3-6.4-4.2-9.3-5.1z" fill="#bf3c1b" opacity=".3"/><path d="m24 48.9c-5.7 1.5-3.6 9.8 1 11.5 1.5.6 3 .7 4.6.6 0 0 .1-.1.1-.1.7-1.1-.1-7.1-.5-8.3-.8-2.8-2.5-4.4-5.2-3.7z" fill="#ffcb9e"/><path d="m25.9 52c-1.3-.6-4.5.4-3 2.9.8-2.3 2.2-.8 2 .9-.2 1.1-1.3 1.1-.2 2.5.6.8 1.9.5 2.6.1 2-1.2.2-5.6-1.4-6.4z" fill="#c94614" opacity=".3"/><path d="m64.2 17.2c-8.6-4.7-22-3.8-29.4 1.5-7.5 5.5-9.6 15.4-9.8 24.3-.1 3.1.7 5.2 3 7.3 2.6 2.4 2.5-4.7 2.8-7.3.7-6 3.2-10.8 9.7-10.9 4.4-.1 21.5-.6 25.5.9 2.2.8 5.1 2 5.6-1.5.6-3.8-.4-7.9-3-10.7-1.2-1.5-2.7-2.6-4.4-3.6z" fill="#2b221c"/><path d="m66.2 18.7c-3.2-3.2-7.8-5.7-12.2-6.2-2.3-.3-7-.3-9.2.7.7.4 2.6.9 3.3 1.4-3.2.7-6.3 1.6-9.4 2.9-1 .4-8.7 5.5-8.7 5.5 2.1 1.2 4.6.8 6.9.3 3.5-.7 7-1 10.4-.1 3.2.8 6.1 2.5 9.4 3.3.1-1.5-1.2-2.8-1.8-3.8 1.9 0 8.8 4.6 10.3 5.9-.3-1.3-2-3.9-2.2-5.3 1.8.3 5.8 4 7 6.2.2-1.7 0-3.8-.4-5.3-.6-2.2-1.8-3.9-3.4-5.5z" fill="#45362e"/><path d="m61.7 60.8c-2.5.2-5.3.2-8.8.4-3.3.1-7.5.6-11.1.3-1.7-.1-2.8 1.2-2 2.2 4.9 6 8.1 6.6 12.3 6.8 6.1.3 8.5-2.5 9.4-5.3.2-.5.9-1.5 1.8-2.4 1.1-1.2 0-2.1-1.6-2z" fill="#f7a286"/><path d="m40.3 62s3.8 6.1 11.4 6.2c4.9.1 8.1-1.4 9-3.5 1-2.3 3.1-3.1 3.1-3.1-13.3 3-23.5.4-23.5.4z" fill="#8f3935"/><path d="m43.1 62.5s.2 1.8 2.9 2.5c3.5.9 7.2.9 11.1.4 2.6-.4 3.9-3.3 3.9-3.3s-7.4 1.7-17.9.4z" fill="#fff9f0"/><path d="m53.6 65.7c-3.5.1-6.4-.1-8.1-1.1-1.2-.7-1.4.1-1.1.5 0 0 1.1 2.5 6.9 3.1 5.6.5 8.4-2.5 7.8-3s-2.2.4-5.5.5z" fill="#fff9f0"/><path d="m43.1 62.5s.2.9.7 1.3c0 0 13-1.1 16.1 0 0 0 .9-1 1.1-1.6 0 0-9.1 1.5-17.9.3z" fill="#e8dac5"/><path d="m46.5 65c4.7 2.5 10.3.3 10.3.3-5.9 1.3-10.3-.3-10.3-.3z" fill="#e8dac5"/><path d="m68.8 54.1c-.9-1.3-2.8-1.7-4.2-1.7-1.8-.1-4.2.5-2.7 3.1.8 1.4 8 2.6 7.2-.6-.1-.3-.2-.6-.3-.8z" fill="#ffa073"/><path d="m41.8 53.2c-1.2-1.1-3.3-.9-4.7-.6-1.9.4-4.2 1.6-1.9 3.9 1.2 1.2 8.8.6 7.2-2.5-.2-.3-.4-.6-.6-.8z" fill="#ffa073"/><path d="m39.2 45.5c-2.9-1.3-4.9 3.9-2.9 5.7.9-.3 2.1-.1 2.9.3 2-1 2.2-5 0-6z" fill="#261b18"/><path d="m53.1 55.3c-1.7 0-2.4-.8-3.6-.1s.5 3.1 3.5 3c3.1-.1 4.4-2.1 3.8-2.9-.7-1-1.8 0-3.7 0z" fill="#b54d26" opacity=".3"/><path d="m52.8 48.8c-3.3-.3-3.6 6.6-2.9 7.2 1.8 1.5 5.6.5 6.8-.6.4-.5-.8-6.3-3.9-6.6z" fill="#ffdfc2"/><path d="m67.8 45.9c-3-1.9-5.3 3.9-2.9 5.6.8-.5 2.4-.3 3.1.1 1.3-1.4 1.4-4.7-.2-5.7z" fill="#261b18"/><path d="m37.7 46.8c-1.2.4-.3 2.8.9 1.9.9-.6.2-2.2-.9-1.9z" fill="#e6d2c3" opacity=".7"/><path d="m66.2 46.8c-1.2.2-.7 2.6.6 1.9.9-.4.5-2.1-.6-1.9z" fill="#e6d2c3" opacity=".7"/><g fill="#2b221c"><path d="m42.3 40.3c-2.1-1-4.9-1.5-7-1.2-3.2.5-2.7 3.1-2.5 3.8s.6-.9 4.1-1c3.3-.1 6.3 2.3 6.8 1.2.8-1.3-.4-2.4-1.4-2.8z"/><path d="m68.6 39.7c-2.1-.4-4.9 0-7.1.9-1 .4-2.2 1.5-1.6 2.8.5 1.1 3.6-1.2 6.9-1 3.5.2 3.9 1.9 4.1 1.2s.8-3.2-2.3-3.9z"/></g></g></svg>