<svg enable-background="new 0 0 96 96" viewBox="0 0 96 96" xmlns="http://www.w3.org/2000/svg" xmlns:xlink="http://www.w3.org/1999/xlink"><clipPath id="a"><circle cx="48" cy="48" r="48"/></clipPath><linearGradient id="b" gradientUnits="userSpaceOnUse" x1="48.3018" x2="48.3018" y1="76.6384" y2="81.677"><stop offset="0" stop-color="#e88958"/><stop offset=".3384" stop-color="#f49d62"/><stop offset=".6924" stop-color="#fcab69"/><stop offset="1" stop-color="#ffb06b"/></linearGradient><path clip-path="url(#a)" d="m0 0h96v96h-96z" fill="#c8dbe9"/><g clip-path="url(#a)"><path d="m78.8 58c4.7-2.2 2.7-12.3-2.6-9 3.6-.1.1 5.6-1.9 1.3-1.3-2.8 1.7-4.1 3-5.9 1.7-2.3 2.1-4.7 1.9-7.6-.6-7.5-7.5-12.2-11.4-17.9-4.3-6.3-10.3-10.3-18.1-7.4-1.9.7-3.5 2.1-4.9 3.6-.4-1.2-1.3-2.5-2.4-3.4-.1 1.1-.2 2.2-.2 3.4-4.2-2.6-10.9-1.6-14.6.8-5 3.3-4.5 8.3-6.6 13.2-1.8 4.5-7.7 9.7-7.3 14.9.2 3.3 2.5 4.9 2.4 8.3-.1 2.8-3.2 4.3-1.8 7 1.3 2.6 7.1 1.8 4.2 6.5-2.7 4.3-7.8-.8-4.6-1.5-3.6-1.8-5.1 2.9-4.6 5.7.7 3.9 6.1 4 9.1 3.2-7.6 14 14 17.4 24.7 8.2 4.6-4 8.2 6.5 13.8 7 7.5.7 11.4-4.7 9.9-9.5 1.3 4 5.7 4.3 9.1 2.8 1.7-.7 5.3-3.4 5-8.5-1.4 1.7-4.2 2.1-6.1 1.2-2.8-1.2-3.6-4-1.9-6.5 2.1-3 7.9-6.7 2.2-9.9 1.1.6 2.4.6 3.7 0z" fill="#912907"/><path d="m71.5 49.1c-1.4-4.1-7.7-3.8-11.1-3.8-4.8 0-9.8.1-14.5 1.1-2.2.5-4 1.1-5.8 2.4-1.3.9-3.1 2.8-4.9 2.6-.8-.1-.5-.6-1.1-.8-1.1-.5-2.5-1.7-3.7-1.9-2.8-.5-6.5 1.9-7.2 4.7s.8 5.5 1.9 7.9c2.3 5.2.8 10.5-3.2 14.3-2.1 1.9-2.7 3.5.3 5.5 4.8 3.1 11.6 3.3 19.2.8 3.6-1.2 15.3 5.3 19.3 3.2 3.2-1.7 4.2-3.4 5.5-9.2 1 1.3 2.4 3.4 4.3 3.4-1.8-3.4 0-7.3.5-10.8.5-3.8-.2-7.6 0-11.5.1-2.5 1.3-5.5.5-7.9z" fill="#801a00"/><path d="m56.8 79.7-2.3 4.6c.7.4 1.4 3.8 1.8 5.6.4 1.9.8 4 1.6 6.1h5.7c-1-1.6-1.6-4-2.3-7.1-.8-4-1.5-7.7-4.5-9.2z" fill="#e8e8e8"/><path d="m43.2 84.3-2.3-4.6c-3 1.5-3.7 5.2-4.5 9.2-.6 3.2-1.2 5.6-2.3 7.1h5.7c.8-2.1 1.2-4.3 1.6-6.1s1.1-5.2 1.8-5.6z" fill="#e8e8e8"/><path d="m57.5 89.6c1.6-5.8 1.7-9.4-1.9-10.6-3.5-1.2-9.9-1.5-13.7.1-3 1.3-4 3.4-1.9 9.9.8 2.5 1.5 4.9 1.7 7h14.5c.1-1.7.6-3.8 1.3-6.4z" fill="#313142"/><path d="m52.8 73c.3-5.2-8.6-5.4-8.6.3 0 2.5.2 4.4-.3 5.2-3.6 5.6 12.2 6.2 8.8.3-.7-1.4 0-3.5.1-5.8z" fill="url(#b)"/><path d="m52.5 85.8c-2.5.9-5.6.5-8.2-.1-1.5-.4-2.3 1.3-1.9 2.8.6 1.9 3.7 2.4 6.4 2.4 5.3-.1 7.3-2.1 6.4-4.4-.3-.8-1.4-1.2-2.7-.7z" fill="#fff" opacity=".07"/><path d="m46.4 24.2c-11.8 1.5-21.2 11.1-19.7 27.6 1.6 16.5 12.6 26.5 24.6 26.4 9.2-.1 20.2-15.2 19.6-32.2-.6-16.4-12.7-23.3-24.5-21.8z" fill="#fab077"/><path d="m66.3 39.1c-1.8-.3-5.6.5-4.9 3.2.2.9.7.9 1.3.5.5-.3.6-1.3 1.1-1.7 2.2-2.1 5.8 0 6.9 2.2-.8-2.7-2.7-3.9-4.4-4.2z" fill="#591702"/><path d="m35.8 40.5c-1.9.5-3.8 2-4 4.8.8-2.3 4.5-4.9 7.4-3.2.6.4 1 1.3 1.5 1.5.8.4 1.3.3 1.3-.6.2-2.8-4.2-3-6.2-2.5z" fill="#591702"/><path d="m68.6 53.6c-.7-1.3-2.5-1.7-3.8-1.8-1.7-.1-4 .4-2.8 3 .7 1.4 7.3 2.8 6.9-.4-.1-.2-.2-.5-.3-.8z" fill="#f59a62"/><path d="m39.2 53.3c-1.3-.9-3.2-.4-4.5.1-1.7.7-3.6 2.2-1.2 4.1 1.3 1 8.3-.9 6.4-3.6-.3-.2-.5-.4-.7-.6z" fill="#f59a62"/><path d="m38.6 45.3c-3.1-1.1-4.8 4.4-2.3 6.4.9-.6 1.8-.7 2.7-.3 2-1.2 1.9-5.3-.4-6.1z" fill="#283b21"/><path d="m51.8 60.5c-2.2.2-4.4.2-6.6 0-1.5-.1-4.4-.9-6-2.1.5 1.7 1.2 3.3 1.9 4.5s1.5 2.4 2.4 3.3c2.3 2.5 5.3 4.1 8.7 4.1 6.2-.1 7.1-4 7.3-6.9.1-1.8 1.9-3 2.8-4.7.2-.4.4-.8.4-1.2-1.4.9-3 1.9-4.7 2.2-2.1.4-4.1.6-6.2.8z" fill="#c90b00" opacity=".3"/><path d="m41.3 60.7s2.8 7.2 10.2 6.8c6.6-.4 7.4-2.9 7.7-4.6.4-2.3 2.1-3.3 2.1-3.3-10.6 4.6-20 1.1-20 1.1z" fill="#8f2f2b"/><path d="m43.7 61.4s.1 2.4 2.4 3.2c2.9 1.1 6.2 1.1 9.5.2 2.2-.7 3.5-4.3 3.5-4.3s-6.3 2.3-15.4.9z" fill="#fff2de"/><path d="m53 64.8c-3.2.1-5.9-.2-7.4-.8-1.2-.5-1.2.2-1 .8 0 0 .4 2.4 6.2 2.7 5 .3 7.2-2.9 6.6-3.5-.5-.6-1.2.7-4.4.8z" fill="#fff2de"/><path d="m43.7 61.3s.1 1.3.6 1.9c0 0 11.3-1.7 13.9-.8 0 0 .8-1.3.9-1.9 0 0-8 2.3-15.4.8z" fill="#e8d3b5"/><path d="m46.3 64c5 2.2 10.5-.1 10.5-.1-6.2 1.4-10.5.1-10.5.1z" fill="#e8d3b5"/><path d="m52.5 54.9c-1.7.1-2.4-.5-3.5.1s.7 2.7 3.6 2.5 4-2.3 3.4-2.8c-.9-.7-1.7.1-3.5.2z" fill="#d14f2e" opacity=".4"/><path d="m67.2 44.4c-3.2-1.9-5.6 4.4-2.5 5.8 1-.3 2.1-.1 2.8.4 1.6-1.2 1.4-5.1-.3-6.2z" fill="#283b21"/><path d="m38.1 46.6c-1.3 0-1.1 2.6.3 2.1 1-.3.8-2.1-.3-2.1z" fill="#82a375"/><path d="m66.1 45.8c-1.3 0-1.2 2.5.2 2.1.9-.2.9-2-.2-2.1z" fill="#82a375"/><path d="m21.5 45c-5.7 2-3.2 10.3 1.5 11.6 1.5.4 3.1.4 4.6.2 0 0 .1-.1.1-.2.7-1.1-.7-6.7-1.1-7.8-.9-2.8-2.3-4.8-5.1-3.8z" fill="#fab077"/><path d="m60.3 23.4c-6.4-.7-13.1-.4-19.4 1-4.3 1-8.9 2.8-11.4 6.7-1.8 2.8-4.8 5.8-5.2 9.3-.4 3.2 1.8 5.7 3.1 8.4 1.7 3.4.1 6 .3 9.4.1 2.2 1.2 2.6 3.2 2.7-3.4-3.3-.2-7.2.4-10.8.3-1.9-.5-3.7-.4-5.7 0-.5 0-.9.1-1.4.2-1.8.7-3.5 1.2-5.2-.7 6.1 8.1 2.8 10.6 1.8.8-.3 1.7-.7 2.5-.5-3 3.1 1.4 8.4 5 8.4 5.9 0 7.4-2.4 9.8-5.8 1.4-1.9 3.3-3.2 5.5-3.5 1.5-.2 4.7.9 5.3-.9 1-2.8-7.6-13.6-10.6-13.9z" fill="#bf3c1b" opacity=".3"/><path d="m25.1 48.1c-1.5-.7-5.4.1-3.8 2.8 1.1-2.3 2.7-.6 2.3 1.1-.3 1.1-1.7 1-.4 2.6.7.9 2.3.7 3.1.3 2.6-1.2.6-5.9-1.2-6.8z" fill="#d14f2e" opacity=".4"/><path d="m52.5 15.7c-2.4-.2-4.7-.9-7.2-.9-4.1.1-8.1 1.5-11.8 3.5-5.4 2.9-8.9 9.5-10.5 15.4-.9 3.4-1.4 7.3-.7 10.8.7 3.1 4.7 4.3 4.9 7.5.1 1.4-1.2 2.5-1.1 3.9 0 1.1.6 2.4 1.4 3.1.7.7 2.4.9 3.4 1-2.2-2.5-.1-3.9.1-6.3.1-1.7-.2-4.9-.8-6.5-1.6-4.1-.6-8.9 3-11.6.4 4.4 4.9 4.3 8.1 3.6 1.5-.3 5.7-2 6.4.2.5 1.4-1.7 2.6-2.2 1 0 2.3.1 4.3 2.9 4.9 4.2.9 7.6-.6 9.9-4.3.9-1.5 1.8-2.4 2.8-2.9 1.3-.7 2.7-.8 4.7-.9 3.7-.1 5-2.8 4.8-6.3-.6-9.6-9.7-14.5-18.1-15.2z" fill="#912907"/><path d="m52.4 56.1c2.4-.1 5.1-.8 2.9-3.6-3.7-5-11.1 4.1-2.9 3.6z" fill="#ffbe8a"/><path d="m36.5 45.3c-.9.7-2.9 2.5-6 2.1 0 0 3.2 2 6.5-.8 1.4-1.2 3-.3 3-.3s-1.2-2.7-3.5-1z" fill="#1f1a17"/><path d="m67.6 44.6c-2.3-1.7-3.7 1-3.7 1s1.5-1 3 .3c3.2 2.8 6.5.8 6.5.8-3.2.4-4.9-1.5-5.8-2.1z" fill="#1f1a17"/><path d="m51.2 49.5c-.7.1-1.2.6-1.1 1.1s.7.7 1.3.6c.7-.1 1.2-.6 1.1-1.1 0-.4-.6-.7-1.3-.6z" fill="#f7985c"/><path d="m49.3 51.6c-.5.3-.7.8-.5 1.1s.7.3 1.1.1c.5-.3.7-.8.5-1.1-.1-.4-.6-.4-1.1-.1z" fill="#f7985c"/><path d="m57.6 50.7c-.5-.2-1-.1-1.1.3-.1.3.2.8.7 1s1 .1 1.1-.3c.1-.3-.2-.8-.7-1z" fill="#f7985c"/><path d="m45 49.5c-.5.1-.9.5-.8.9.1.3.6.5 1.1.4s.9-.5.8-.9-.6-.6-1.1-.4z" fill="#f7985c"/><g fill="#e6864a"><path d="m39.1 52.7c-.5 0-1 .3-1 .7s.4.7 1 .7c.5 0 1-.3 1-.7s-.4-.7-1-.7z"/><path d="m62.5 52.8c-.5 0-1 .3-1 .7s.4.7 1 .7c.5 0 1-.3 1-.7s-.5-.7-1-.7z"/><path d="m34.8 52.5c-.7.2-1.1.8-.9 1.2.1.4.8.6 1.5.4s1.1-.8.9-1.2-.9-.6-1.5-.4z"/><path d="m41 51.5c-.5.1-.9.4-.8.7.1.4.6.6 1.1.5s.9-.4.8-.8c-.1-.2-.6-.5-1.1-.4z"/><path d="m68.3 52.5c-.5-.3-1-.2-1.1.2-.1.3.1.8.6 1.1s1 .2 1.1-.1c.2-.4-.1-.9-.6-1.2z"/></g><path d="m49 49.1c-.4.1-.6.3-.6.6s.4.4.7.4c.4-.1.6-.3.6-.6 0-.4-.4-.5-.7-.4z" fill="#f7985c"/><path d="m36.9 54.1c-.4.1-.6.3-.6.6s.4.4.7.4c.4-.1.6-.3.6-.6s-.4-.4-.7-.4z" fill="#e6864a"/><path d="m58.9 49.8c-.4-.1-.7 0-.8.2-.1.3.2.6.5.7.4.1.7 0 .8-.2.1-.3-.1-.6-.5-.7z" fill="#f7985c"/><path d="m66 53.3c-.4-.1-.7 0-.8.2-.1.3.2.6.5.7.4.1.7 0 .8-.2.1-.3-.2-.6-.5-.7z" fill="#e6864a"/><path d="m56.9 48.6c-.5-.1-.9.1-.9.4s.3.6.8.7.8-.1.9-.5c-.1-.2-.4-.6-.8-.6z" fill="#f7985c"/><path d="m46.4 53.2c-.5.2-.9.6-.8.9.1.4.6.5 1.1.4.5-.2.9-.6.8-.9-.1-.4-.6-.6-1.1-.4z" fill="#f7985c"/><path d="m54 48.7c-.6-.1-1.2.2-1.3.6s.4.9 1 1 1.2-.2 1.3-.6c.1-.5-.4-.9-1-1z" fill="#f7985c"/><path d="m61.1 50.9c-.6-.1-1.2.2-1.3.6s.4.9 1 1 1.2-.2 1.3-.6c.1-.5-.4-.9-1-1z" fill="#e6864a"/><path d="m42 53.3c-.6 0-1.1.4-1.1.8s.6.8 1.2.8 1.1-.4 1.1-.8c0-.5-.5-.8-1.2-.8z" fill="#f7985c"/><path d="m64.4 51c-.6 0-1.1.4-1.1.8s.6.8 1.2.8 1.1-.4 1.1-.8-.5-.8-1.2-.8z" fill="#e6864a"/><path d="m55.2 50.8c-.6-.3-1.2-.2-1.4.2-.1.4.2.9.9 1.2.6.3 1.2.2 1.4-.2.1-.5-.3-1-.9-1.2z" fill="#f7985c"/><path d="m44.4 51.4c-.7.1-1.2.6-1.2 1.1.1.5.7.8 1.4.7s1.2-.6 1.2-1.1c-.1-.5-.7-.8-1.4-.7z" fill="#f7985c"/><path d="m47.2 50.5c-.7.2-1.1.8-1 1.3s.8.6 1.5.4 1.1-.8 1-1.3-.8-.7-1.5-.4z" fill="#f7985c"/><path d="m59.2 52.5c-.7-.1-1.3.2-1.4.7s.5 1 1.2 1.1 1.3-.2 1.4-.7-.5-1-1.2-1.1z" fill="#f7985c"/><path d="m49.6 14.9c-1.7.5-3.4 1.5-4.6 2.9 1.3 1.3 3.3 5.3 3.3 6 .3 2.5-.5 5-2.7 6.4-2.2 1.5-14.5 3.6-5.9 6.6 2.6.9 5.3-.8 7.9-.2 2 .5 3.4 3.5 1.3 4.9 1.8.9 4.7-.2 6.3-1.2 1.1-.7 2.1-1.6 3.4-2.1 3-1.3 5.5-3 7-5.1 2.5-3.4 2.6-7.7-1-12.9-3.1-4.3-10.2-6.6-15-5.3z" fill="#a8370a"/><path d="m36.2 17.1c-10.8.7-8.6 10-13.2 16.7-1.5 2.2-3 4.2-1.7 6.9 1.1 2.2 4.5 5.3 6.9 5.6-.8-1.6-1.2-4-.7-5.7 1.9-6.9 10-9 13.5-14.6 2.8-4.7.7-9.3-4.8-8.9z" fill="#a8370a"/></g></svg>