<svg enable-background="new 0 0 96 96" viewBox="0 0 96 96" xmlns="http://www.w3.org/2000/svg" xmlns:xlink="http://www.w3.org/1999/xlink"><clipPath id="a"><circle cx="48" cy="48" r="48"/></clipPath><linearGradient id="b" gradientUnits="userSpaceOnUse" x1="47.4773" x2="47.4773" y1="75.9645" y2="81.1125"><stop offset="0" stop-color="#eea17a"/><stop offset=".003136933" stop-color="#eea17a"/><stop offset=".3647" stop-color="#f7b88e"/><stop offset=".705" stop-color="#fdc69a"/><stop offset="1" stop-color="#ffcb9e"/></linearGradient><path clip-path="url(#a)" d="m0 0h96v96h-96z" fill="#fff"/><g clip-path="url(#a)"><path d="m16.9 72.3c-7.7 14.3 14.3 17.8 25.2 8.3 4.7-4 8.4 6.6 14.1 7.1 7.6.7 11.7-4.8 10.1-9.7 1.3 4.1 5.9 4.4 9.3 2.9 1.7-.7 5.4-3.4 5.1-8.7-1.4 1.7-4.3 2.2-6.3 1.3-2.8-1.3-3.7-4.1-2-6.6 2.1-3 8.1-6.9 2.3-10.1 1.3.7 2.6.7 3.9.1 4.8-2.2 2.8-12.5-2.7-9.2 3.7-.1.1 5.8-1.9 1.3-1.3-2.8 1.7-4.2 3.1-6 1.7-2.4 2.2-4.8 1.9-7.8-.7-7.6-7.6-12.4-11.6-18.3-4.4-6.4-10.6-10.5-18.6-7.6-2 .7-3.6 2.1-5 3.7-.4-1.2-1.3-2.6-2.5-3.5-.1 1.1-.2 2.3-.2 3.5-4.3-2.7-11.1-1.6-14.9.9-5.1 3.3-4.6 8.5-6.7 13.5-1.9 4.6-7.9 9.9-7.5 15.2.2 3.3 2.6 5 2.4 8.5-.1 2.9-3.2 4.4-1.8 7.2 1.3 2.7 7.2 1.9 4.3 6.6-2.7 4.4-8-.8-4.7-1.5-3.7-1.8-5.2 3-4.7 5.8.9 3.9 6.4 3.9 9.4 3.1z" fill="#fdd281"/><path d="m20.5 74.9c-2.1 2-2.8 3.6.3 5.6 4.9 3.2 11.8 3.4 19.6.8 3.7-1.2 15.7 5.4 19.8 3.3 3.3-1.7 4.3-3.5 5.6-9.4 1.1 1.3 2.5 3.5 4.4 3.5-1.5-2.8-1-6.6-.7-9.6.4-2.9 2.4-5.2 2.5-8.1 0-1-.6-3.2-.2-4.1s2.3-2.1 3.1-2.9c-1.4-.8-2.4-1.6-2.8-3.3-.7-3 1.6-5.2 1.7-8 .1-2.7-7.2-15.4-10.2-10.9-.7 1 3.3 7.2 2.4 8.1-1 1-2.5 1.7-3.8 2.1-5.6 1.7-11.5 2.4-17.2 3.2-3.6.5-7 1.4-10.6 2-2.3.4-4.8.8-7 .3-2.6-.6-2.7-3.2-4.9-4.3-4.2-2.1-7.6 2.3-7 6.3.3 1.8 1.6 3.9 2.8 5.2 1.9 2.2 4.2 3 5.5 5.8 2.3 5.1.8 10.5-3.3 14.4z" fill="#f4bb6e"/><path d="m64.1 96c-.2-1.2-1-8.3-1.3-9.6l-4.9 1.1c.3 1.2.8 7.2.9 8.6h5.3z" fill="#ffcb9e"/><path d="m54.7 89.3c-.6-2.9-1.5-3.9-1.7-3.9l.8-9.1c2.8.3 7.9 2 9.8 11.1z" fill="#1e1e29"/><path d="m31.1 96c.2-1.2 1-8.3 1.3-9.6l4.9 1.1c-.3 1.2-.8 7.2-.9 8.6h-5.3z" fill="#ffcb9e"/><path d="m40.5 89.3c.6-2.9 1.5-3.9 1.7-3.9l-.8-9.1c-2.8.3-7.9 2-9.8 11.1z" fill="#1e1e29"/><path d="m55.5 96c.2-1.8.6-4 1.4-6.8 1.6-6 1.8-9.6-1.9-10.8-3.6-1.2-10.1-1.6-14 .1-3.1 1.3-4.1 3.5-2 10.1.9 2.7 1.6 5.2 1.8 7.4z" fill="#e8e8e8"/><path d="m52 78.1c-.8-1.4-.1-3.5 0-5.9.3-5.3-8.8-5.5-8.7.3 0 2.5.2 4.5-.3 5.3-3.6 5.7 12.4 6.4 9 .3z" fill="url(#b)"/><path d="m41.5 87.2c.6 2 3.8 2.5 6.5 2.4 5.4-.1 7.4-2.1 6.5-4.5-.2-.6-1.4-1.1-2.8-.6-2.6.9-5.7.5-8.3-.1-1.5-.4-2.4 1.4-1.9 2.8z" fill="#f5f5f5"/><path d="m43.2 76.5s-6.5 1.5-7.3 2.5c-3.1 4.1 2.1 10.6 1.5 17h7.5c-.1-6.2-.8-14.7-1.7-19.5z" fill="#1e1e29"/><path d="m43.4 74.5c-3.6 1.5-8.4 3.2-8.5 3.8s9.2 4.3 9.2 3.6c-.1-.6-.7-7.4-.7-7.4z" fill="#535361"/><path d="m52 76.5s6.5 1.5 7.3 2.5c3.1 4.1-2.1 10.6-1.5 17h-7.5c.1-6.2.8-14.7 1.7-19.5z" fill="#1e1e29"/><path d="m51.8 74.5c3.6 1.5 8.4 3.2 8.5 3.8s-9.2 4.3-9.2 3.6c.1-.6.7-7.4.7-7.4z" fill="#535361"/><path d="m70.6 44.6c-.6-16.7-12.9-23.8-25-22.3-12.1 1.6-21.7 11.3-20.1 28.2s12.9 27 25.1 26.9c9.3 0 20.6-15.4 20-32.8z" fill="#ffcb9e"/><path d="m21.7 55.5c1.5.4 3.2.4 4.7.2 0 0 .1-.1.1-.2.7-1.2-.7-6.8-1.1-8-1-2.9-2.5-4.9-5.3-3.9-5.8 2.1-3.2 10.5 1.6 11.9z" fill="#ffcb9e"/><path d="m29.7 41.5c-.1.5-.1.9-.1 1.4 0 2 1.8 5.2 1.4 7.2-.6 3.7-3.3 6.2.1 9.6-3.4 1.9-7-.1-7.2-2.4-.6-5.6 2.4-6.5-.4-9.1-5.7-5.4-1-6-.6-9.3.4-3.5 3.5-6.6 5.3-9.5 2.6-4 7.2-5.8 11.7-6.9 6.4-1.5 13.3-1.7 19.8-1 3.1.3 7.5.5 9.2 3.6 1.4 2.5 2.6 7.8 1.6 10.5-.7 1.8-3.9.8-5.4 1-2.3.3-4.2 1.6-5.7 3.6-2.5 3.4-4 5.9-10 5.9-3.7 0-8.1-5.4-5.1-8.6-.9-.2-1.8.1-2.6.5-2.5 1-11.5 4.4-10.8-1.8-.4 1.8-1 3.5-1.2 5.3z" fill="#bf3c1b" opacity=".15"/><path d="m25 53.7c2.7-1.2.6-6-1.2-6.9-1.5-.7-5.6.1-3.9 2.8 1.2-2.4 2.8-.6 2.4 1.1-.3 1.1-1.7 1-.4 2.7.6.8 2.3.6 3.1.3z" fill="#bf3c1b" opacity=".2"/><path d="m60.4 36.6c1.3-.7 2.8-.8 4.8-.9 3.8-.1 5.1-2.8 4.9-6.4-.5-9.8-9.8-14.8-18.4-15.6-2.5-.2-4.8-1-7.4-.9-4.2.1-8.3 1.6-12.1 3.5-5.6 3-9.1 9.7-10.8 15.7-.9 3.5-1.4 7.4-.7 11 .7 3.2 4.8 4.4 5 7.7.1 1.5-1.2 2.6-1.2 4 0 1.2.6 2.4 1.4 3.2.7.7 2.4.9 3.5 1.1-2.3-2.5-.1-4 .1-6.5.1-1.7-.2-5-.8-6.6-1.6-4.2-.6-9.1 3-11.9.4 4.5 5 4.4 8.3 3.7 1.5-.3 5.8-2 6.6.2.5 1.4-1.8 2.6-2.3 1 0 2.4.1 4.4 2.9 5 4.3.9 7.8-.6 10.1-4.3 1.1-1.5 2-2.4 3.1-3z" fill="#fdd281"/><path d="m65 31.4c-1.6 2.1-4 3.8-7.1 5.2-1.3.6-2.3 1.4-3.4 2.2-1.6 1-4.5 2.2-6.4 1.3 2.2-1.4.8-4.5-1.3-5-2.6-.6-5.4 1.1-8.1.2-8.7-3 3.9-5.3 6.1-6.7 2.2-1.5 3-4 2.7-6.6-.1-.7-2.1-4.8-3.4-6.1 1.2-1.4 2.9-2.4 4.7-2.9 5-1.3 12.2 1.1 15.2 5.3 3.7 5.2 3.6 9.6 1 13.1z" fill="#ffe8bd"/><path d="m26.2 39.1c-.5 1.7-.1 4.2.8 5.8-2.5-.3-5.9-3.5-7.1-5.7-1.3-2.7.2-4.7 1.8-7 4.7-6.8 2.5-16.3 13.4-17.1 5.7-.4 7.8 4.4 4.8 9.1-3.6 5.7-11.7 7.8-13.7 14.9z" fill="#ffe8bd"/><path d="m66.9 54.7c.1.2.2.5.2.7.4 2.7-5.3 1.5-5.9.3-1.1-2.3.9-2.7 2.4-2.6 1.2.2 2.7.5 3.3 1.6z" fill="#ffb387"/><path d="m39 54.5c.2.2.3.5.4.8.9 3.1-5.6 3-6.4 1.7-1.6-2.4.6-3.3 2.2-3.6 1.2-.1 2.9-.1 3.8 1.1z" fill="#ffb387"/><path d="m69.3 42.7c-1.7-2.2-8.2-2.2-10.6.2 3.1.3 5.8-.6 10.6-.2z" fill="#a16b43"/><path d="m53.9 55.7c.4.5-.8 1.7-2.4 1.8-1.3.1-3-1.4-2.2-1.8s1.2 0 2.3 0c1.2 0 1.8-.5 2.3 0z" fill="#bf3c1b" opacity=".2"/><path d="m30.3 42.2c2.6-2.3 9.9-2.5 12.1.3-4.1.1-6.1-.1-12.1-.3z" fill="#a16b43"/><path d="m37.8 51.7c-.9-.4-2.1-.4-3-.1-2.2-1.7-.6-7.5 2.6-6.3 2.3.9 2.4 5.2.4 6.4z" fill="#305d80"/><path d="m37.8 47.2c1.2-.2 1.5 1.7.5 2.2-1.3.7-1.8-2-.5-2.2z" fill="#86bae3"/><path d="m64.9 45.3c1.7 1.1 1.6 4.4.4 6-.9-.1-1.9-.1-2.8.4-3.5-1-.7-8.4 2.4-6.4z" fill="#305d80"/><path d="m64.8 46.9c1.1 0 1.2 1.9.3 2.3-1.4.5-1.6-2.3-.3-2.3z" fill="#86bae3"/><path d="m71.9 46.3s-2.9 3-7.3.5c-2-1.1-3.4.6-3.4.6s.9-3.4 3.8-2.3c1.6.7 3.4 2.4 6.9 1.2z" fill="#121b21"/><path d="m27.8 46.7s3.4 3 7.7.3c1.9-1.2 3.5.3 3.5.3s-.8-3.4-3.8-1.9c-1.1.6-3.8 2.4-7.4 1.3z" fill="#121b21"/><path d="m64.2 59.8c-1.2.7-3.2.3-4.2-1.2-.3 1.1 0 1.9.5 2.4-1.7 4.1-6.2 6.9-11.4 6.8-5.1 0-9.2-2.7-10.9-6.2.5-.6.6-1.4 0-2.5-.7 1.5-2.5 2.2-3.8 1.5.6 1.1 1.4 1.6 2.2 1.7 2 4 6.5 7 12.2 7.2h.5c6 .1 11.2-3 13.1-7.8.7-.2 1.5-.8 1.8-1.9z" fill="#f04d4d" opacity=".8"/></g></svg>