<svg enable-background="new 0 0 96 96" viewBox="0 0 96 96" xmlns="http://www.w3.org/2000/svg" xmlns:xlink="http://www.w3.org/1999/xlink"><clipPath id="a"><circle cx="48" cy="48" r="48"/></clipPath><linearGradient id="b" gradientUnits="userSpaceOnUse" x1="48.0326" x2="48.0326" y1="76.2123" y2="80.9785"><stop offset="0" stop-color="#ee996d"/><stop offset=".01630819" stop-color="#ee9a6e"/><stop offset=".3731" stop-color="#f8b181"/><stop offset=".7088" stop-color="#fdbf8d"/><stop offset="1" stop-color="#ffc491"/></linearGradient><path clip-path="url(#a)" d="m0 0h96v96h-96z" fill="#7997a0"/><g clip-path="url(#a)"><path d="m28.6 18.9c-12.7 14.2-7.7 31-7.6 35.3.3 8.4-3.7 12.1-1.5 17.8 6.6 17 28.2 20.3 43 13.6 8-3.6 10.9-12.3 10.4-20.5-.3-5.2.1-9.7 1.2-14.8 1.1-4.8.8-10.1.6-15-.9-25.8-33.2-30.8-46.1-16.4z" fill="#261b18"/><path d="m56.4 82.3c-3.5-3.6-12.7-3.7-16.6-.6-3.5 2.8-1 9 .3 14.3h15.8c.9-6.2 4.1-10.1.5-13.7z" fill="#e8e8e8"/><path d="m56.9 91.7c-1.3-2.8-1-7.5-.3-9.8-3.6-3.5-13.3-3.2-17.4.1.6 2 .9 6-.4 9.1.4 1.8.9 3.3 1.2 4.9h16c.1-1.5.5-2.9.9-4.3z" fill="#313142"/><path d="m41.2 84.3 1.3 5.8s5.1-2.6 5.7-2.6c.7 0 5.8 2.4 5.8 2.4l.7-6s-5.4 3.3-6.5 3.3c-.8 0-7-2.9-7-2.9z" opacity=".3"/><path d="m52.5 79c-2.6-1.1-7.2-1-9.6.1-4.7 2.2.3 9.5.3 9.5l5-1.3 5 1.1c.1.1 3.9-7.5-.7-9.4z" fill="#f5f5f5"/><path d="m52.6 79.7c-.8-.7-.6-2.7-.5-5 .3-5.3-8.8-5.5-8.8.3 0 2.6.1 4.2-.6 4.9-1.3 1.4-1.2 3.8 5.5 6.9 3.6-1.9 8.3-4 4.4-7.1z" fill="url(#b)"/><g fill="#fff9f0"><path d="m42.4 79.9c-.4 0-.8.4-.7.8 0 .4.4.8.8.8s.8-.4.7-.8c0-.5-.3-.8-.8-.8z"/><path d="m44.2 81.1c-.4 0-.8.4-.7.8 0 .4.4.8.8.8s.8-.4.7-.8c0-.5-.4-.8-.8-.8z"/><path d="m46.5 81.9c-.4 0-.8.4-.7.8 0 .4.4.8.8.8s.8-.4.7-.8c0-.5-.4-.8-.8-.8z"/><path d="m48.8 82c-.4 0-.8.4-.7.8 0 .4.4.8.8.8s.8-.4.7-.8c0-.5-.4-.8-.8-.8z"/><path d="m53 79.8c-.4 0-.8.4-.7.8 0 .4.4.8.8.8s.8-.4.7-.8c0-.5-.4-.8-.8-.8z"/><path d="m51.1 81.2c-.4 0-.8.4-.7.8 0 .4.4.8.8.8s.8-.4.7-.8c0-.5-.3-.9-.8-.8z"/></g><path d="m52 89.4c-2.8 1-6.1.6-9-.1-1.6-.4-2.6 1.5-2.1 3.2.7 2.2 4.1 2.8 7 2.7 5.8-.1 8-2.4 7-5.1-.2-.7-1.4-1.2-2.9-.7z" fill="#fff" opacity=".07"/><path d="m45.9 23.1c-11.1 2-19.2 17.8-17.4 32.8 1.3 11.2 10.8 23.2 22.2 22.4 13.7-.9 20.6-17.1 19.2-30.4-1.6-14.9-8.4-27.5-24-24.8z" fill="#ffbc82"/><path d="m65.3 27.6c-6-2.5-11.8-4-18.4-4.3-4-.2-9.5-.5-13.3 1-8.1 3.4-7.5 10.5-7.8 17.6-.1 2.5-.8 5-1.1 7.5-.3 2.6-.9 10.4 3.5 8.5 2.3-1 2.9-5 3.5-7.3 2.2-8.2 6.6-9.1 10.9-10.6 5.1-1.8 10.9-3.6 12-7 2.2 3.5 11 10.6 14.9 6.3 3.1-3.2-1-10.3-4.2-11.7z" fill="#bf3c1b" opacity=".2"/><path d="m62.1 20.3c-6-5.3-14-5.4-21.5-4.2-5 .8-9.3 4.3-12.2 8.2-3.3 4.4-4.1 8.5-4.7 13.9-.3 3.5.1 8 .4 11.6.2 1.9.1 8.1 2.5 8.8 2.9.8 3.6-8.2 4.3-10.3 2-6.3 6-8.2 11.6-9.7 4.5-1.3 10.5-3.3 12.2-8 3.3 3.4 9.7 8.8 14.8 8.6 4.1-.2 2.1-5.2 1.1-7.7-1.8-4.4-5.4-8.4-8.5-11.2z" fill="#261b18"/><path d="m62.4 16.9c-5-2.9-11.1-4.2-16.8-3.9-7.7.4-15.4 5.8-18.8 12.8-1 2.1-3.8 8.9-3.3 14.1.9 0 5.9-.9 7.9-3.3-.3 1.7-2.2 3.8-2.7 5.5 3.9-1.4 8.4-3.2 17.9-6.8 5.1-1.9 6.8-5.1 7.5-8.9 3.4 4.2 9.2 9.3 14.8 9.2-.9-.9-1.6-2.1-2.5-3 1.8.7 4.2 1.4 6.8-.1-1.7-6.8-4.6-12-10.8-15.6z" fill="#57443a"/><path d="m68.1 53.6c-.9-1.3-2.7-1.5-4.1-1.5-1.7 0-4 .6-2.5 3.1.8 1.3 7.7 2.3 6.9-.7 0-.4-.1-.7-.3-.9z" fill="#ff7752" opacity=".4"/><path d="m41.7 53c-1.2-1-3.2-.8-4.5-.5-1.8.4-3.9 1.7-1.7 3.8 1.2 1.1 8.5.3 6.8-2.6-.2-.2-.4-.5-.6-.7z" fill="#ff7752" opacity=".4"/><path d="m51.9 55.4c-1.4.1-1.5-.6-2.4.1-1 .6.1 2.4 2.6 2.2s3.5-1.9 2.9-2.5c-.8-.7-1.5.1-3.1.2z" fill="#bf3c1b" opacity=".2"/><path d="m65.9 45.9c-3.9-1.7-7.5 3.2-4.7 5.7.6-.6 3.7-1.6 5.6-.2 1.6-1.1 1.2-4.6-.9-5.5z" fill="#425361"/><path d="m64.2 46.6c-1.8.6-1 4.1.9 2.9 1.3-.9.7-3.4-.9-2.9z" fill="#c3d5e3"/><path d="m36.6 46.2c-2.1 1-2.4 4.5-.7 5.6 1.9-1.5 5-.6 5.6 0 2.7-2.6-1.1-7.4-4.9-5.6z" fill="#425361"/><path d="m39 46.8c-1.6-.5-2.2 2-.8 2.9 1.9 1.1 2.7-2.4.8-2.9z" fill="#c3d5e3"/><path d="m42 41.4c-2-.1-3.8-.1-5.8.3-1.2.3-2.7.8-3.6 1.6-.3.2-.7.7-.7 1.1.3 0 .6-.2.9-.2 1.5-.4 3-.5 4.5-.5 1.2 0 2.4.1 3.5 0 .8 0 1.9.1 2.3-.6.6-1.1 0-1.7-1.1-1.7z" fill="#261b18"/><path d="m69 42.8c-.9-.7-2.4-1.2-3.6-1.4-1.9-.3-3.7-.3-5.6-.1-1 .1-1.6.7-1.1 1.6.4.7 1.5.5 2.2.5 1.2 0 2.3-.1 3.4-.1 1.5 0 3 0 4.4.3.3.1.5.2.8.2.2-.4-.1-.8-.5-1z" fill="#261b18"/><path d="m65.1 45.2c-3.6-.7-4.7 2.9-4.7 2.9s1.8-2.3 4.1-1.3c5.3 2.3 8.2-1.5 8.2-1.5-3.8 1.8-5.7.2-7.6-.1z" fill="#121b21"/><path d="m37.5 45.6c-1.9.4-3.8 2-7.6.2 0 0 2.9 3.8 8.2 1.4 2.3-1 4.1 1.2 4.1 1.2s-1.1-3.5-4.7-2.8z" fill="#121b21"/><path d="m36.5 60.3c6.2 9.1 10 10.8 14.7 11 5.9.3 7.9-3.6 8.8-6.4.4-1.2 3.3-4.3 4.5-5.1-3.7.9-7.3.5-12.9.7-4.7.2-11.5 1.6-15.1-.2z" fill="#ff3b3b"/><path d="m39.3 61.8s3.7 6.2 11.1 6.2c4.7 0 7.8-1.5 8.7-3.6.9-2.3 2.9-3.2 2.9-3.2-12.8 3.2-22.7.6-22.7.6z" fill="#a80a0a"/><path d="m42 62.3s.2 1.9 2.9 2.6c3.4.9 7 .9 10.8.3 2.5-.4 3.7-3.4 3.7-3.4s-7.2 1.8-17.4.5z" fill="#fff9f0"/><path d="m52.2 65.5c-3.4.2-6.2 0-7.9-1-1.2-.7-1.3.1-1 .6 0 0 1.1 2.6 6.7 3.1 5.4.5 8.1-2.6 7.5-3.1-.6-.6-2.1.2-5.3.4z" fill="#fff9f0"/><path d="m42 62.3s.2.9.7 1.3c0 0 12.6-1.2 15.7-.2 0 0 .9-1 1-1.7 0 .1-8.8 1.8-17.4.6z" fill="#e8dac5"/><path d="m45.4 64.8c4.6 2.5 10 .3 10 .3-5.8 1.3-10-.3-10-.3z" fill="#e8dac5"/><path d="m67.3 42.3c-2.2.1-4.3.4-6.4 1-1.8.5-3.9.7-5.6 1.5-1.5.8-2.2 1.3-4 1.2-3.3-.1-6.1-2.2-9.4-2.6-3.4-.4-6.9-.8-10.3.1-.9.2-3.5 1.2-1.7 2.2 1.7.9 4.4.6 6.3.7.9 0 1.8.1 2.7.1 3.1.3 8-.1 7.7 3.8-.2 2.7-1.9 5.5-4.1 6-2.1.5-4.3.7-6.5.6-1.6 0-3.2-.3-4.7-1-.4-.2-1.7-1-2.1-.4-.7 1 1.8 2.6 2.5 2.9 1.5.7 3.1.9 4.8 1.1 4.1.4 8.3.2 10.6-3.5 1.3-2.2 2-4.8 3.3-7 2-3.7 3 1.3 3.6 3.5.4 1.2.9 2.4 1.6 3.5 1.3 1.8 3.9 2.8 6.1 2.9 1.3.1 6.1-.6 7.1-1.6 1.3-1.3-2-.1-2.9-.5-.5-.2-1.4-.1-2-.1-.8 0-1.7 0-2.5-.2-1.1-.2-2.1-.6-3-1.3-.6-.5-1.2-1-1.6-1.7-.8-1.4-.9-3.1-.3-4.6.8-2.1 3-2.2 4.9-2.4 2.3-.2 4.6-.1 6.9-.3 1-.1 2 0 3 .1 1.3 0 4.1-.4 2.6-2.3-1.6-1.7-4.5-1.8-6.6-1.7z" fill="#b54d26" opacity=".3"/><path d="m28.4 42.2c-2.7.1-5-.7-5.6-.1-.8.7.6 3.1.6 3.1s.9.6 2.1.7c.2 1.9.1 6.7 3.5 9.8 2.9 2.6 12.2 3.3 15.2 1.9 3.6-1.8 5.2-5.2 5.8-8.5 1.5-8.2-17.8-7-21.6-6.9zm15.9 13.2c-3.6 2.3-12.7 1.2-15-1.7-1.8-2.3-2.1-7-1-7.7 3.4-2.1 16.3-1.2 19.2 1 1.4 1.1-.5 6.6-3.2 8.4z" fill="#23232d"/><path d="m72.6 41.5c-3.4 0-20.9-.7-19.3 7.5.7 3.3 2.2 6.7 5.5 8.4 2.7 1.4 11.1.4 13.6-2.3 3-3.2 2.8-8 2.9-9.9 1.1-.1 1.9-.8 1.9-.8s1.2-2.5.5-3.1c-.6-.6-2.7.2-5.1.2zm-.5 11.5c-2.1 3-10.2 4.4-13.5 2.2-2.5-1.7-4.3-7.2-3.1-8.3 2.6-2.4 14.2-3.6 17.3-1.6 1 .6.9 5.4-.7 7.7z" fill="#23232d"/><path d="m57.7 46.1c-1.9.8 1.6 1.8 2.3 2 2.6.4 5.5.2 8.2-.3 1.4-.3 4.5-1.6 3.6-2.4-1.1-1.1-12-.2-14.1.7z" fill="#fff" opacity=".3"/><path d="m66.2 45.7c-1 .2-1.7.5-1.4.9.6.9 6.6.4 7-.3.5-.7-3.4-1-5.6-.6z" fill="#fff"/><path d="m59.7 53.3c-.7 0-1.1.1-1 .5.2.8 4 1.3 4.3.8s-1.9-1.3-3.3-1.3z" fill="#fff" opacity=".7"/><path d="m31.4 53c-.7-.1-1.2 0-1.1.4.1.8 4 1.8 4.4 1.4.4-.5-1.9-1.6-3.3-1.8z" fill="#fff" opacity=".7"/><path d="m46 46.5c-2.4-.9-14.4-1.8-15.6-.7-.9.8 2.7 2 4.3 2.3 3.1.5 6.3.7 9 .3.9-.2 4.5-1.1 2.3-1.9z" fill="#fff" opacity=".3"/><path d="m40.8 45.8c-1.1 0-1.8.2-1.6.8.5 1 6.9 1.2 7.4.6.6-.7-3.4-1.5-5.8-1.4z" fill="#fff"/><path d="m55.6 44.1c-2.5 1.1-4.9 1.3-8.4.1-2.6-.9 1.4 1.7 1.7 3.1s-.2 5.6.8 3.1c.9-2.5 2.8-2.7 3.9-.4 1.2 2.3 1.1-3.8 1.6-4.4.4-.6 2.9-2.6.4-1.5z" fill="#23232d"/><path d="m29.6 43c7.3.4 13.1.6 17.5 2.3-2.8-2.4-7.8-2.9-17.5-2.3z" fill="#c1c5c9"/><path d="m72 42.2c-8.9.3-13 .4-15.4 2.6 3.8-1.8 8.8-1.7 15.4-2.6z" fill="#c1c5c9"/><path d="m39.2 82.2c-.3.2-2.8 1-4.2 4.7-.7 1.8-1.4 6-1.8 9h5c.2-1.9.5-4.1 1.1-5.9.5-1.6.2-7.9-.1-7.8z" fill="#e8e8e8"/><path d="m56.5 82.2c-.3-.1-.6 6.2 0 7.9.6 1.8.9 4 1.1 5.9h5c-.4-3-1.1-7.3-1.8-9-1.4-3.7-4-4.6-4.3-4.8z" fill="#e8e8e8"/></g></svg>