<svg enable-background="new 0 0 96 96" viewBox="0 0 96 96" xmlns="http://www.w3.org/2000/svg" xmlns:xlink="http://www.w3.org/1999/xlink"><clipPath id="a"><circle cx="48" cy="48" r="48"/></clipPath><linearGradient id="b" gradientUnits="userSpaceOnUse" x1="47.8653" x2="47.8653" y1="75.4751" y2="80.2635"><stop offset="0" stop-color="#e88958"/><stop offset=".3384" stop-color="#f49d62"/><stop offset=".6924" stop-color="#fcab69"/><stop offset="1" stop-color="#ffb06b"/></linearGradient><path clip-path="url(#a)" d="m0 0h96v96h-96z" fill="#fff"/><g clip-path="url(#a)"><path d="m37.4 96c.4-3.6 0-9.6 3.7-10.8 1.2-.4 3.1-3.8 2.4-4.9-.6-1.1-1.3-1.7-2.4-1.2-6.5 2.6-8 7.8-8.4 16.9z" fill="#ffbc82"/><path d="m59.3 96c-.4-3.6 0-9.6-3.7-10.8-1.2-.4-3.1-3.8-2.4-4.9.6-1.1 1.3-1.7 2.4-1.2 6.5 2.6 8 7.8 8.4 16.9z" fill="#ffbc82"/><path d="m55.2 78.6c-3.6-1.2-10.1-1.6-14 .1-3.1 1.3-4.1 3.5-2 10.1.9 2.9 1.5 5.2 1.6 7.2h14.9c.1-1.6.6-3.5 1.4-6.6 1.6-6 1.7-9.6-1.9-10.8z" fill="#3a3a4a"/><path d="m52.6 78.4c-1-1.2-.4-3.6-.3-5.9.3-5.3-8.8-5.5-8.7.3 0 2.5.3 4.6-.3 5.3-3.1 3.9 5.1 6.5 5.1 6.5s6.9-2.9 4.2-6.2z" fill="url(#b)"/><path d="m41.6 87.7c.6 2 3.8 2.5 6.5 2.4 5.4-.1 7.4-2.1 6.5-4.5-.2-.6-1.4-1.1-2.8-.6-2.6.9-5.7.5-8.3-.1-1.6-.4-2.4 1.3-1.9 2.8z" fill="#fff" opacity=".07"/><g fill="#fff9f0"><path d="m46.6 80.9c0 .7.6 1.3 1.3 1.3s1.3-.6 1.3-1.3-.6-1.3-1.3-1.3c-.8 0-1.3.5-1.3 1.3z"/><path d="m43.8 80c0 .6.5 1.1 1.1 1.1s1.1-.5 1.1-1.1-.5-1.1-1.1-1.1-1.1.5-1.1 1.1z"/><path d="m42.5 78.2c0 .5.4.9.9.9s.9-.4.9-.9-.4-.9-.9-.9c-.5-.1-.9.4-.9.9z"/><path d="m42.6 76.6c0 .4.3.7.7.7s.7-.3.7-.7-.3-.7-.7-.7c-.4.1-.7.4-.7.7z"/><path d="m51.9 80c0 .6-.5 1.1-1.1 1.1s-1.1-.5-1.1-1.1.5-1.1 1.1-1.1 1.1.5 1.1 1.1z"/><path d="m53.3 78.2c0 .5-.4.9-.9.9s-.9-.4-.9-.9.4-.9.9-.9c.4-.1.9.4.9.9z"/><path d="m53.1 76.6c0 .4-.3.7-.7.7s-.7-.3-.7-.7.3-.7.7-.7c.4.1.7.4.7.7z"/></g><path d="m27.8 59.1s-6.1.8-7-5.8c-.8-6.6 1.5-8.8 4.3-8.5 2.9.3 2.7 14.3 2.7 14.3z" fill="#d9af96" opacity=".5"/><path d="m49.2 58.8c6.6-.5 9 7.8 11.6 8.6 30.1 8.5 26.3-49-10.1-57.2-47.3 3.8-51.4 66.8-14.9 57.7 6.7-1.6 2.8-8.3 13.4-9.1z" fill="#4f2619"/><path d="m64.6 56.9c-2.3.2-4 2.5-3.8 5.2.3 2.7 2.4 4.7 4.7 4.5s4-2.5 3.8-5.2c-.2-2.6-2.3-4.6-4.7-4.5zm.8 8.1c-1.7.1-3.2-1.3-3.4-3.3s1-3.7 2.7-3.8 3.2 1.3 3.4 3.3-1 3.7-2.7 3.8z" fill="#fff9f0"/><path d="m69 47c-.9-15.6-6.9-25-22.3-24.5-16 .5-21.3 11.1-20.9 27s11.8 26.3 23.6 27c9.1.6 20.5-13.6 19.6-29.5z" fill="#ffbc82"/><path d="m50.6 35.9c-7.4 6.9-17.9 5.1-23.9 11-.9.9-.5-1.2-1.4-2.2-1.5-1.5 1-5.9 1.8-7.3 3.6-6.3 10.1-11 16.7-13.9 2.2-.9 4.5-1.7 6.8-2.2 3.6-.7 7.7-.9 11 1.2 4.9 3.1 8.4 8.2 8 14.3-.1 1.9 0 8.8-1.3 5.1-1.6-4.5-12.1-11.6-11.5-14.4-1.3 2.3-3.9 6.2-6.2 8.4z" fill="#b54d26" opacity=".3"/><path d="m36.2 51.4c-1-.4-2.2-.5-3.2-.1-2.3-1.8-.6-7.9 2.7-6.7 2.4.9 2.6 5.4.5 6.8z" fill="#2f2120"/><path d="m31.5 40.5c.8-2.1 2.3-3.1 3.7-3.3 2-.3 3.6.9 4.5 2.5-1.5-.6-4.1-2.6-8.2.8z" fill="#7d4732"/><path d="m36.3 47.3c1.2-.2 1.6 1.8.6 2.3-1.4.8-2-2.1-.6-2.3z" fill="#b08a72"/><path d="m40.9 14.6c3.7-.7 7.4-.3 10.9 1 4.8 1.7 9.6 3.8 13 7.7 3 3.6 4.7 8.2 5.4 12.8.4 2.5-1.3 6.9-1.4 9.4-.1-10.1-11.2-12.8-11.6-19.7-1.6 2.6-7.1 11.2-19 14.7-11.2 3.3-12.6 6.1-13.4 11.1-3.7-4.7-1.1-14.4-.6-17.2 1.6-9 7.4-18 16.7-19.8z" fill="#4f2619"/><path d="m66.5 54.4c.1.2.2.5.2.8.4 2.9-5.6 1.6-6.2.3-1.1-2.4 1-2.8 2.5-2.7 1.3.1 2.9.4 3.5 1.6z" fill="#ff7752"/><path d="m37.2 54.2c.2.2.3.5.4.8.9 3.2-5.9 3.1-6.8 1.8-1.6-2.5.6-3.5 2.3-3.7 1.3-.1 3.2-.1 4.1 1.1z" fill="#ff7752"/><path d="m49.6 59.5c-4.5.1-11.1 1.4-14.6-.7 5.8 9.9 9.4 11.8 13.9 12.1 5.8.4 7.8-3.6 8.7-6.6.4-1.3 3.4-4.5 4.5-5.3-3.6.9-7.1.4-12.5.5z" fill="#ff3b3b" opacity=".8"/><path d="m37.7 60.5s9.5 3 22.1 0c0 0-2 .9-2.9 3.3-.9 2.2-3.9 3.7-8.5 3.6-7.3-.2-10.7-6.9-10.7-6.9z" fill="#a80a0a"/><path d="m40.3 61.1s.2 2 2.7 2.8c3.3 1 6.8 1.1 10.4.6 2.5-.4 3.7-3.5 3.7-3.5s-6.9 1.7-16.8.1z" fill="#fff9f0"/><path d="m41.5 64c-.2-.5-.1-1.4 1-.6 1.6 1.1 4.3 1.4 7.6 1.3 3-.1 4.6-1 5.2-.4s-2.2 3.8-7.4 3.1c-5.4-.6-6.4-3.4-6.4-3.4z" fill="#fff9f0"/><path d="m41 62.5s12.3-.9 15.2.3c0 0 .9-1.1 1-1.7 0 0-8.6 1.5-16.9.1 0-.1.2.9.7 1.3z" fill="#e8dac5"/><path d="m43.5 63.9s4.1 1.8 9.7.6c-.1-.1-5.4 2.2-9.7-.6z" fill="#e8dac5"/><path d="m52.6 53.5c.4.4-.8 1.6-2.3 1.7-1.3.1-2.8-1.4-2.1-1.8s1.1.1 2.2.1 1.8-.5 2.2 0z" fill="#d14f2e" opacity=".3"/><path d="m64.7 44.7c1.8 1.1 1.6 4.7.4 6.3-.9-.1-2-.1-2.9.5-3.7-1.2-.8-9 2.5-6.8z" fill="#2f2120"/><path d="m64.5 47c1.2 0 1.3 2 .3 2.4-1.4.5-1.6-2.4-.3-2.4z" fill="#b08a72"/><path d="m72 45.7s-3 3.2-7.7.6c-2.1-1.2-3.5.7-3.5.7s1-3.6 4-2.4c1.6.5 3.5 2.4 7.2 1.1z" fill="#121b21"/><path d="m25.7 46.2s3.6 3.1 8.1.3c2-1.2 3.7.3 3.7.3s-.8-3.6-4-2c-1.3.6-4.1 2.4-7.8 1.4z" fill="#121b21"/><path d="m63.6 16.6c8.8 5.9 11.7 13.5 11.7 13.5s-8.6 7.4-15 .1c-1.3-1.5-2.2-3.3-2.3-6-5.5 7.8-13.6 13.3-19.5 13.2-2.9-.1-6.2-.9-8.9-1.9-2.4-.9-4.7-2.2-7.1-3.1-.5-.2-5.2-1.9-5.4-1.5 0 0 5.7-8.7 12.2-12.5 0 0 20.7 10.7 34.3-1.8z" fill="#784430"/><path d="m67.9 40.5c-.7-2.1-2.2-3.1-3.6-3.4-2-.4-3.7.9-4.5 2.4 1.4-.6 4.1-2.5 8.1 1z" fill="#784430"/><path d="m24.2 57.2c1.1.5 2.3.5 3.4.4 0 0 0-.1.1-.2.5-1.2-.4-7.1-.7-8.3-.7-3.1-1.7-5.2-3.8-4.3-4.2 1.9-2.5 10.8 1 12.4z" fill="#ffbc82"/><path d="m26.3 54.2c1.1-1.6-.7-5.9-1.7-6.4-.9-.5-2.7.9-1.5 3.4.2-2.5 1.3-1 1.3.7.1 1.1-.7 1.3.2 2.6.6.6 1.4.2 1.7-.3z" fill="#d14f2e" opacity=".4"/><path d="m26.2 57.8c-2.3 0-4.2 2.2-4.1 4.9s2 4.9 4.3 4.9 4.2-2.2 4.1-4.9c0-2.7-1.9-4.9-4.3-4.9zm.2 8.1c-1.7 0-3.1-1.6-3.2-3.5 0-2 1.3-3.6 3-3.6s3.1 1.6 3.2 3.5c.1 2-1.3 3.6-3 3.6z" fill="#fff9f0"/></g></svg>