<svg enable-background="new 0 0 96 96" viewBox="0 0 96 96" xmlns="http://www.w3.org/2000/svg" xmlns:xlink="http://www.w3.org/1999/xlink"><clipPath id="a"><circle cx="48" cy="48" r="48"/></clipPath><path clip-path="url(#a)" d="m0 0h96v96h-96z" fill="#fff"/><g clip-path="url(#a)"><path d="m36.1 76.8c-4.9 2.5-5.3 13.9-4.5 19.2h31.2c.9-5.5.6-17.6-4.2-19.6-7.3-3-17.8-2-22.5.4z" fill="#ebebeb"/><path d="m47 85.3c3.4.1 17.6-7.6 7.6-15.1-2.9-2.1-8.5-2.5-11.9-1.8-3.6.7-6 3.9-6.2 7.1-.3 4.1 6.1 9.7 10.5 9.8z" fill="#fbfbfb"/><path d="m47.1 82.4c2.7 0 14.3-6.2 6.2-12.3-2.3-1.8-6.9-2-9.7-1.5-2.9.6-4.9 3.2-5.1 5.8-.2 3.4 5 7.9 8.6 8z" fill="#ffb67d"/><path d="m71.3 96c0-.4.4-6.4.1-9-.4-3.6-2.8-7.6-9.4-9.7l-2.9 6.3c3.4 1.7 3.9 12.4 3.9 12.4z" fill="#1e1e29"/><path d="m57.7 75.8s6.6 1.9 7.2 3.1c.3.6-.2 12.1-.9 17.1h-8.9c.3-4.2 1.1-16.4 2.6-20.2z" fill="#1e1e29"/><path d="m56.4 80.5c.7-1 5.2 4.2 4.7 5.1-.1.3-4.4 9-4.9 10.3h-1.3c.2-3.5.8-14.3 1.5-15.4z" fill="#3a3a4a"/><path d="m57.7 74.6c3.5 1.6 5.2 6 5.1 6.9s-6.7 1.7-6.7.8c.1-1.3 1.6-7.7 1.6-7.7z" fill="#3a3a4a"/><path d="m36.6 75.8s-6.6 1.9-7.2 3.1c-.2.6.2 12.1.9 17.1h8.9c-.3-4.2-1.1-16.4-2.6-20.2z" fill="#1e1e29"/><path d="m23 96c0-.4-.4-6.4-.1-9 .4-3.6 2.8-7.6 9.4-9.7l2.9 6.3c-3.4 1.7-3.9 12.4-3.9 12.4z" fill="#1e1e29"/><path d="m37.8 80.5c-.7-1-5.2 4.2-4.7 5.1.1.3 4.4 9 4.9 10.3h1.4c-.3-3.5-.8-14.3-1.6-15.4z" fill="#3a3a4a"/><path d="m36.6 74.6c-3.5 1.6-5.2 6-5.1 6.9s6.7 1.7 6.7.8c-.2-1.3-1.6-7.7-1.6-7.7z" fill="#3a3a4a"/><path d="m67.4 10.2c-.6-1.6-1.4-3.1-2.6-4.2-2.1 4.3-8 6.6-12.5 5.9.6-.6 1.1-1.3 1.1-2.2-1.8.4-3.5 1.2-5.3 1.6-7.2 1.4-14.4 1.6-20.5 6.4-8.5 6.9-7.3 18.1-5.5 27.5.9 5.1 1.8 10.9 4.1 15.5 1.7 3.4 3.4 2 6 .6 3.3-1.7 8.1-2 11.7-2.2 3.7-.2 9.2-.5 12.6 1.1 2.3 1.1 3.5 1.9 5.8.2 1.7-1.3 2.9-3.4 3.8-5.3 1.4-3.1 1.5-6.2 1.7-9.5.3-4.3 1.5-7.8 1.1-12.2-.1-1.5-1.9-7.3 1.4-12.2-1.2.1-2.4.3-3.5.6 2.2-.6 1.7-6.1 1.5-7.6-.2-1.1-.4-2.6-.9-4z" fill="#4f2619"/><path d="m24.7 56c1.6 11.6 10.5 24.4 24 23.4 13.7-1 20.6-18.1 18.8-32.4-1.9-15.6-9.3-28.5-25.3-25.4-11.5 2.3-19.6 18.8-17.5 34.4z" fill="#ffcb9e"/><path d="m43.8 34.1c-3-.9-7.1-1.6-10-.5-4.1 1.5-4.7 7-6.5 10.5-1.1-1-2.1-2.7-2.4-4.1-.4-1.8-.5-3.8-.5-5.7-.1-2-.3-4.3.4-6.3.8-2.4 3.4-3.7 5.6-4.7 3.9-1.8 8.4-1.5 12.6-1.5 4.7.1 9.4.8 13.9 2.2 3 .9 8.6 1.7 9.6 5.2 1.3 4.4-5.1 6-8.2 6.7-5.6 1.4-8.8-.1-14-1.7-.1 0-.3 0-.5-.1z" fill="#bf3c1b" opacity=".15"/><path d="m21.9 61c1.5.5 3 .6 4.5.5 0 0 .1-.1.1-.1.7-1.1-.3-7.1-.6-8.2-.9-2.9-2.5-4.4-5.3-3.6-5.5 1.5-3.3 9.7 1.3 11.4z" fill="#ffcb9e"/><path d="m24.1 58.9c2.1-1.3.1-5.7-1.4-6.4-1.3-.6-4.4.5-2.9 3 .8-2.3 2.2-.8 2 .8-.1 1.1-1.3 1.1-.2 2.5.6.8 1.9.5 2.5.1z" fill="#bf3c1b" opacity=".3"/><path d="m58.8 18.4c-4.8-4.1-10.6-4.8-16.7-3.4-3.7.9-8 1.4-11 3.8-2.5 2-5.2 4.1-7 6.8-3 4.5-1.5 22.4.5 25.1.2.3 2.6 3.2 3.7 3.1-.6-3.9-.6-7.8-.3-11.7.4-5.2 1.6-10.8 7.5-11.8 3.4-.5 14 4.1 16.5 4.6 3.3.7 10.9-3 12-3.4 2.7-1.1 2.6-4.3 1.3-6.5-1.7-2.6-4.2-4.6-6.5-6.6z" fill="#4f2619"/><path d="m66.7 54.7c.1.3.1.7.1 1.2-.3 4.2-7.7 2.8-8.1.9-.7-3.5 2.1-4.3 4-4.3 1.6 0 3.6.4 4 2.2z" fill="#ffa073"/><path d="m37.4 53.8c.2.3.4.7.5 1.1 1 4.2-6.8 5-7.7 3.3-1.8-3.2.7-4.8 2.7-5.3 1.4-.4 3.5-.7 4.5.9z" fill="#ffa073"/><path d="m35.9 51.6c-.9-.4-2-.5-2.9-.3-2-1.7-.2-7 2.8-5.7 2.2 1 2.1 4.9.1 6z" fill="#305d80"/><path d="m53.9 55.5c-.7-.9-1.8.1-3.7.1-1.7 0-2.4-.8-3.6 0-1.2.7.5 3 3.6 2.9 3-.1 4.3-2.2 3.7-3z" fill="#b54d26" opacity=".3"/><path d="m49.6 47c-1.8.3-3.4 8.7-2.6 9.3 1.8 1.4 5.6.4 6.7-.7.4-.5-1-9-4.1-8.6z" fill="#ffdfc2"/><path d="m64.2 45.8c1.6 1 1.6 4.3.4 5.7-.8-.4-2.3-.5-3.1 0-2.5-1.7-.3-7.5 2.7-5.7z" fill="#305d80"/><path d="m34.7 46.5c1.1-.4 1.7 1.3.9 1.9-1.2.8-2.1-1.5-.9-1.9z" fill="#86bae3"/><path d="m63 46.5c1.1-.2 1.5 1.4.6 1.9-1.2.7-1.8-1.7-.6-1.9z" fill="#86bae3"/><path d="m62.7 60.2c-.8-.6-1.8-1-2.6-1.5.1.4 0 .6.4 1-3.5.2-7 .5-10.6.6-2.3.1-4.7.3-7 .3-1.7 0-4.9.4-6.3-.6.4-.2.9-.4 1.2-.7-1.2-.1-4.6 1.1-6.2 2.5 1.3-.5 3-1.3 4.2-.2 1.8 1.8 3.9 3.7 6.4 5.4 4.9 3.3 14.5 2.9 17.1-3.4.2-.5 1.4-2.4 2.2-2.6.4-.1 2.5.5 2.6.7-.3-.6-.8-1.1-1.4-1.5z" fill="#f7a286"/><path d="m36.9 61s10.7 2.3 24.7-.7c0 0-2.2.8-3.2 3-.9 2-4.3 3.4-9.4 3.4-8.1-.1-12.1-5.7-12.1-5.7z" fill="#8f3935"/><path d="m39.9 61.4s.3 1.7 3.1 2.4c3.7.8 7.6.8 11.7.2 2.7-.4 4-3.2 4-3.2s-7.8 1.7-18.8.6z" fill="#fff9f0"/><path d="m41.2 63.9c-.3-.4-.2-1.2 1.1-.5 1.8.9 4.9 1.1 8.6.9 3.4-.2 5.1-1 5.8-.5s-2.3 3.4-8.2 3c-6-.5-7.3-2.9-7.3-2.9z" fill="#fff9f0"/><path d="m40.6 62.6s13.7-1.2 17-.3c0 0 1-1 1.1-1.5 0 0-9.6 1.6-18.8.6 0 0 .2.8.7 1.2z" fill="#e8dac5"/><path d="m43.5 63.7s4.6 1.4 10.8.2c0 0-5.9 2.1-10.8-.2z" fill="#e8dac5"/><path d="m29.2 43.6c2.5-3.1 9.4-3.4 11.5.2-3.9.2-5.8-.1-11.5-.2z" fill="#4f2619"/><path d="m67.9 43.7c-2.2-3-8.1-3.4-9.9.3 3.4.2 5-.1 9.9-.3z" fill="#4f2619"/><path d="m41.8 14.2c2.5-.6 5-.8 7.7-.8 5 .1 11.7.5 15.1-4 3.4 3.9 3 11.3-.6 15 1.1-.4 2.5-.8 3.8-.8.7 3.1-6.1 5.5-9.9 8 .6-1.6 2.3-4.1 2.8-6.1-.7.5-8.1 5.9-8.6 6.7-.6-.6 8.8-11.8 9-12.8-.6.3-11.9 10.9-12.5 11.5-1.1-1.3 5.2-8.9 5.6-10.5-.5.2-11.9 7.2-11.9 7.3-.4-1.3 3.7-4.6 4.4-5.7-.3 0-9.4 3.8-9.3 4.3-.2-1-.1-2 .2-2.9-5.4.2-9.9 2.6-13.2 6.7.3-.4 0-3.4.2-4.2.3-1.3.9-2.7 1.6-3.9 1.4-2.3 3.5-3.4 5.9-4.5 3.3-1.4 6.5-2.6 9.7-3.3z" fill="#784430"/></g></svg>