<svg enable-background="new 0 0 96 96" viewBox="0 0 96 96" xmlns="http://www.w3.org/2000/svg" xmlns:xlink="http://www.w3.org/1999/xlink"><clipPath id="a"><circle cx="48" cy="48" r="48"/></clipPath><linearGradient id="b" gradientUnits="userSpaceOnUse" x1="47.7303" x2="47.7303" y1="75.4186" y2="80.5072"><stop offset="0" stop-color="#eea17a"/><stop offset=".003136933" stop-color="#eea17a"/><stop offset=".3647" stop-color="#f7b88e"/><stop offset=".705" stop-color="#fdc69a"/><stop offset="1" stop-color="#ffcb9e"/></linearGradient><path clip-path="url(#a)" d="m0 0h96v96h-96z" fill="#fff"/><g clip-path="url(#a)"><path d="m78.5 56.6c4.8-2.2 2.7-12.4-2.6-9.1 3.7-.1.1 5.7-1.9 1.3-1.3-2.8 1.7-4.1 3-6 1.7-2.3 2.1-4.7 1.9-7.7-.6-7.5-7.5-12.3-11.5-18.1-4.4-6.3-10.5-10.3-18.4-7.5-1.9.7-3.5 2.1-4.9 3.6-.4-1.2-1.3-2.6-2.5-3.5-.1 1.1-.2 2.3-.2 3.4-4.3-2.6-11-1.6-14.7.9-5.1 3.3-4.6 8.4-6.6 13.3-1.9 4.5-7.8 9.8-7.4 15 .2 3.3 2.6 5 2.4 8.4-.1 2.9-3.1 4.4-1.7 7.2 1.3 2.6 7.1 1.8 4.2 6.6-2.7 4.3-7.9-.8-4.6-1.5-3.6-1.8-5.1 2.9-4.6 5.8.7 3.9 6.2 4 9.1 3.2-7.7 14.1 14.1 17.6 24.9 8.2 4.6-4 8.3 6.6 13.9 7.1 7.5.7 11.5-4.8 10-9.6 1.3 4.1 5.8 4.3 9.2 2.8 1.7-.7 5.4-3.4 5.1-8.6-1.4 1.7-4.2 2.1-6.2 1.3-2.8-1.2-3.7-4.1-2-6.5 2.1-3 8-6.8 2.2-10 1.3.6 2.6.6 3.9 0z" fill="#fdd281"/><path d="m72 50.3c-.7-2.9 1.6-5.2 1.6-7.9.1-2.6-7.1-15.2-10.1-10.8-.7 1 3.3 7.1 2.4 8-1 1-2.5 1.6-3.8 2-5.5 1.7-11.4 2.3-17 3.2-3.5.5-7 1.4-10.4 2-2.3.4-4.7.8-7 .3-2.6-.6-2.6-3.2-4.8-4.3-4.2-2.1-7.5 2.2-6.9 6.2.3 1.8 1.6 3.8 2.8 5.2 1.9 2.2 4.2 2.9 5.5 5.8 2.3 5.2.8 10.6-3.2 14.4-2.1 2-2.7 3.6.3 5.5 4.9 3.2 11.7 3.4 19.4.8 3.6-1.2 15.5 5.3 19.5 3.2 3.2-1.7 4.2-3.4 5.5-9.3 1 1.3 2.5 3.5 4.4 3.4-1.5-2.8-1-6.5-.7-9.5.4-2.9 2.4-5.1 2.5-8.1 0-1-.6-3.1-.2-4s2.3-2.1 3.1-2.9c-1.5-.8-2.5-1.6-2.9-3.2z" fill="#f4bb6e"/><path d="m59.7 85.8-4.3.5c.1 1.1.2 2.1.3 3.1.2 2.2.4 4.3 1.1 6.6h4.6c-1.1-2.2-1.2-4.3-1.5-6.9.1-1.1 0-2.1-.2-3.3z" fill="#ffcb9e"/><path d="m56.4 78.5-2.4 4.7c.2.1.8.7 1.5 4.1l5.1-1.1c-.6-3.2-1.5-6.3-4.2-7.7z" fill="#313142"/><path d="m41.1 86.3-4.3-.5c-.1 1.2-.2 2.2-.3 3.3-.2 2.7-.4 4.7-1.5 6.9h4.6c.8-2.3.9-4.4 1.1-6.6.2-1 .3-2 .4-3.1z" fill="#ffcb9e"/><path d="m35.9 86.2 5.1 1.1c.7-3.4 1.3-4 1.5-4.1l-2.4-4.7c-2.7 1.4-3.6 4.5-4.2 7.7z" fill="#313142"/><path d="m57 88.5c1.6-5.9 1.7-9.5-1.9-10.7-3.5-1.2-10-1.6-13.9.1-3.1 1.3-4.1 3.5-2 10 1 3 1.7 5.8 1.8 8.1h14.5c.2-1.9.6-4.3 1.5-7.5z" fill="#313142"/><path d="m52.3 71.7c.3-5.2-8.7-5.4-8.6.3 0 2.5.2 4.4-.3 5.3-3.6 5.6 12.3 6.3 8.9.3-.8-1.4-.2-3.6 0-5.9z" fill="url(#b)"/><path d="m51.9 84.6c-2.5.9-5.6.5-8.2-.1-1.5-.4-2.3 1.3-1.9 2.8.6 1.9 3.7 2.4 6.4 2.4 5.3-.1 7.3-2.1 6.4-4.5-.2-.6-1.3-1-2.7-.6z" fill="#fff" opacity=".07"/><path d="m55.1 85c.9-2.9.9-7-1.8-9-.4-.3-1-.2-1.3.2s-.2 1 .2 1.3c1.8 1.3 1.9 4.4 1.1 6.9-.7 2.4-2.1 4.7-3.4 6.7-1.2 1.9-2.1 3.5-2.4 4.9h2c.3-1 1.1-2.4 2-3.9 1.3-2.1 2.8-4.5 3.6-7.1z" fill="#eb5088"/><path d="m42.7 84.1c-.8-2-1.2-4.9 1.3-7.3.4-.4.4-1 0-1.4s-1-.4-1.3 0c-2.6 2.4-3.2 5.8-1.8 9.4.9 2.4 2.5 4.8 3.9 6.8 1.1 1.6 2.2 3.3 2.5 4.3h2c-.3-1.4-1.5-3.2-2.9-5.4-1.4-1.9-2.9-4.2-3.7-6.4z" fill="#eb5088"/><path d="m45.8 22.4c-12 1.5-21.4 11.2-19.9 27.9 1.6 16.7 12.8 26.7 24.8 26.7 9.3-.1 20.4-15.3 19.8-32.5-.5-16.6-12.7-23.6-24.7-22.1z" fill="#ffcb9e"/><path d="m20.7 43.5c-5.7 2-3.2 10.4 1.5 11.7 1.5.4 3.1.4 4.7.2 0 0 .1-.1.1-.2.7-1.2-.7-6.7-1.1-7.9-1-2.8-2.5-4.8-5.2-3.8z" fill="#ffcb9e"/><path d="m59.9 21.6c-6.4-.7-13.2-.4-19.6 1-4.4 1-9 2.8-11.5 6.8-1.8 2.8-4.9 5.9-5.3 9.4-.4 3.3-5.1 3.9.6 9.2 2.8 2.6-.1 3.5.4 9 .2 2.2 3.8 4.2 7.1 2.3-3.4-3.3-.7-5.8-.1-9.5.3-2-1.5-5.1-1.4-7.1 0-.5 0-.9.1-1.4.2-1.8.7-3.5 1.2-5.2-.7 6.1 8.2 2.8 10.7 1.8.8-.3 1.7-.7 2.6-.5-3 3.1 1.4 8.5 5.1 8.5 5.9 0 7.4-2.5 9.9-5.9 1.4-1.9 3.3-3.3 5.6-3.6 1.5-.2 4.7.9 5.4-1 1-2.7-.2-7.9-1.6-10.4-1.8-2.9-6.2-3.1-9.2-3.4z" fill="#bf3c1b" opacity=".15"/><path d="m24.3 46.6c-1.5-.7-5.5.1-3.9 2.8 1.2-2.3 2.8-.6 2.4 1.1-.3 1.1-1.7 1-.4 2.6.7.9 2.3.7 3.1.3 2.6-1.2.6-5.9-1.2-6.8z" fill="#bf3c1b" opacity=".2"/><path d="m51.9 13.8c-2.5-.2-4.8-.9-7.3-.9-4.2.1-8.2 1.5-11.9 3.5-5.5 2.9-9 9.6-10.6 15.5-.9 3.5-1.4 7.3-.7 10.9.7 3.2 4.7 4.3 5 7.6.1 1.5-1.2 2.6-1.1 3.9 0 1.1.6 2.4 1.4 3.1.7.7 2.4.9 3.4 1-2.3-2.5-.1-4 .1-6.4.1-1.7-.2-4.9-.8-6.5-1.6-4.2-.6-9 3-11.7.4 4.5 4.9 4.3 8.2 3.7 1.5-.3 5.7-2 6.5.2.5 1.4-1.8 2.6-2.3 1 0 2.4.1 4.3 2.9 4.9 4.2.9 7.7-.6 10-4.3.9-1.5 1.8-2.4 2.9-3 1.3-.7 2.8-.8 4.8-.9 3.7-.1 5-2.8 4.8-6.4-.5-9.4-9.7-14.4-18.3-15.2z" fill="#fdd281"/><path d="m49 13c-1.8.5-3.4 1.5-4.7 2.9 1.3 1.3 3.3 5.4 3.4 6 .3 2.5-.5 5-2.7 6.5s-14.6 3.7-6 6.7c2.6.9 5.4-.8 8-.2 2.1.5 3.4 3.5 1.3 4.9 1.9.9 4.8-.2 6.3-1.3 1.2-.7 2.1-1.6 3.4-2.2 3.1-1.3 5.5-3.1 7.1-5.1 2.6-3.4 2.6-7.8-1-13-3.1-4.1-10.2-6.5-15.1-5.2z" fill="#ffe8bd"/><path d="m35.5 15.2c-10.9.8-8.7 10.2-13.3 16.9-1.6 2.3-3.1 4.3-1.8 7 1.1 2.2 4.5 5.4 7 5.7-.8-1.6-1.2-4.1-.7-5.8 2-7 10.1-9.1 13.6-14.8 2.9-4.6.8-9.3-4.8-9z" fill="#ffe8bd"/><path d="m66.9 54.4c-.6-1.1-2.1-1.4-3.2-1.5-1.4-.1-3.4.3-2.4 2.6.6 1.2 6.2 2.4 5.8-.3 0-.3-.1-.6-.2-.8z" fill="#ffb387"/><path d="m39.3 54.2c-.9-1.2-2.6-1.2-3.8-1-1.6.2-3.7 1.2-2.2 3.5.8 1.2 7.2 1.3 6.4-1.7-.1-.3-.2-.5-.4-.8z" fill="#ffb387"/><path d="m58.8 42.7c3.1.3 5.8-.6 10.5-.2-1.8-2.2-8.2-2.2-10.5.2z" fill="#a16b43"/><path d="m51.8 55.4c-1.1 0-1.5-.4-2.2 0s.9 1.9 2.2 1.8c1.5-.1 2.7-1.4 2.3-1.8-.5-.5-1.1 0-2.3 0z" fill="#bf3c1b" opacity=".2"/><path d="m30.8 42.1c5.9.1 7.9.4 12 .3-2.2-2.8-9.4-2.6-12-.3z" fill="#a16b43"/><path d="m51 59.2c-4.2.1-10.4 1.3-13.7-.7 5.4 9.3 8.8 11.1 13.1 11.4 5.4.4 7.3-3.4 8.2-6.2.4-1.2 3.1-4.3 4.2-4.9-3.4.8-6.7.3-11.8.4z" fill="#f04d4d" opacity=".5"/><path d="m39.8 60.1s3.2 6.3 10 6.5c4.3.1 7.2-1.3 8-3.4.9-2.3 2.8-3.1 2.8-3.1-11.9 2.9-20.8 0-20.8 0z" fill="#8f3935"/><path d="m42.3 60.7s.2 1.9 2.6 2.6c3.1 1 6.4 1.1 9.8.6 2.3-.3 3.5-3.3 3.5-3.3s-6.7 1.6-15.9.1z" fill="#fff9f0"/><path d="m51.5 64.2c-3.1.1-5.6-.2-7.2-1.2-1.1-.7-1.2 0-1 .5 0 0 1 2.6 6.1 3.3 4.9.6 7.5-2.4 6.9-2.9-.5-.7-1.9.2-4.8.3z" fill="#fff9f0"/><path d="m42.3 60.7s.2.9.6 1.3c0 0 11.5-.9 14.3.2 0 0 .8-1 1-1.6-.1.1-8.1 1.5-15.9.1z" fill="#e8dac5"/><path d="m45.3 63.3c4.1 2.6 9.1.5 9.1.5-5.3 1.2-9.1-.5-9.1-.5z" fill="#e8dac5"/><path d="m37.7 45.1c-3.1-1.2-4.7 4.6-2.5 6.3.9-.4 2.1-.3 3 .1 2-1.3 1.8-5.5-.5-6.4z" fill="#305d80"/><path d="m38.2 47c-1.3.2-.8 2.8.5 2.2 1-.5.6-2.4-.5-2.2z" fill="#86bae3"/><path d="m65 45.1c-3.1-2-5.8 5.3-2.4 6.4.8-.6 1.8-.6 2.7-.4 1.2-1.6 1.4-4.9-.3-6z" fill="#305d80"/><path d="m64.8 46.7c-1.2 0-1.1 2.8.3 2.3 1-.4.8-2.3-.3-2.3z" fill="#86bae3"/><g fill="#121b21"><path d="m65.1 45c-2.9-1.1-3.8 2.3-3.8 2.3s1.4-1.7 3.3-.6c4.4 2.5 7.2-.5 7.2-.5-3.4 1.1-5.2-.6-6.7-1.2z"/><path d="m35.6 45.2c-1.1.6-3.8 2.3-7.3 1.3 0 0 3.4 2.9 7.6.3 1.9-1.2 3.5.3 3.5.3s-.8-3.4-3.8-1.9z"/></g></g></svg>