<svg enable-background="new 0 0 96 96" viewBox="0 0 96 96" xmlns="http://www.w3.org/2000/svg" xmlns:xlink="http://www.w3.org/1999/xlink"><clipPath id="a"><circle cx="48" cy="48" r="48"/></clipPath><path clip-path="url(#a)" d="m0 0h96v96h-96z" fill="#fff"/><g clip-path="url(#a)"><path d="m33.1 79.8c-2.4 3.4-2 10-.8 16.2h29.9c1.1-5.7 1.6-12-.1-15.9-3.2-7.7-23.1-8.5-29-.3z" fill="#bcceeb"/><path d="m37.1 80.2c1.3 5.9 6.1 8.7 6.1 8.7l4.3-4.8 4.6 4.5c4.4-4.5 5.4-5.4 5.7-9.3.4-3.8-21.9-4.5-20.7.9z" opacity=".1"/><path d="m37.2 76.1c-2.1 6.3 5.7 11.5 5.7 11.5l4.7-3.3 4.3 3.1s8.6-5.1 5.3-12.5c-2.9-6.7-17.5-6.1-20 1.2z" fill="#cbdaf2"/><path d="m44.1 68.6c-2.9.7-4.8 3.5-5 6.5-.2 2.3.2 3.6 1.4 4.9.9.9 2.3 1.8 3.8 2.3 1.1.3 2.9 1.6 3.2 1.6.1 0 .7-.6 1.7-1.1 1.5-.8 3.5-1.8 4.3-3.5 1.2-2.4 2.2-7.2 0-9.1-2.2-2-6.7-2.3-9.4-1.6z" fill="#f7b07c"/><path d="m23.4 96h9.6s.5-10.6 3.9-12.3l-.5-6.8c-9.6 2.3-12.6 10.5-13 19.1z" fill="#bcceeb"/><path d="m58.8 76.9-.5 6.8c3.4 1.7 3.9 12.3 3.9 12.3h9.6c-.5-8.6-3.4-16.8-13-19.1z" fill="#bcceeb"/><path d="m48.1 87.9c-.5 0-.9.4-.9.9s.4.9.9.9.9-.4.9-.9-.4-.9-.9-.9z" fill="#f2f2f2"/><path d="m48.1 92.5c-.5 0-.9.4-.9.9s.4.9.9.9.9-.4.9-.9-.4-.9-.9-.9z" fill="#f2f2f2"/><path d="m34.5 54c3.6-.8 7.3-1.6 10.9-2.4 6-1.2 12.5.2 18.6.9 4.7.5 3.1-4 2.8-7.8-.5-5.8 1.3-7.4 1.5-10.3.9-14.1-6.1-21.8-23.6-21.1-7.5.3-15.5 3.8-19 10.7-1.4 2.7-1.9 6.1-2 9.1-.2 7.1-1.1 13.7 2.1 20.4 1.6 3.4 5.7 1.2 8.7.5z" fill="#3d2518"/><path d="m64.3 49.2c-.8-.9-2-.9-2.6-.9-.5-.7-1.6-7.6-.2-18.2 5.3.5 9.2.7 7.6 22.7-1.1 0-3.3-.3-3.4-.6-.4-.6-.3-1.8-1.4-3z" fill="#977053"/><path d="m26.8 55.2c1.1 11.4 9.3 24.3 22.5 23.9 13.4-.4 20.8-16.9 19.7-30.9-1.2-15.3-7.9-28.3-23.7-25.9-11.3 1.7-19.9 17.6-18.5 32.9z" fill="#ffbc82"/><path d="m46.2 35c-3.1-.8-6.2-2.2-9.3-1.9-2.2.2-3.7 1.3-4.6 3.4-1.1 2.4-2 5.9-5.5 5.5-2.9-.3-2.9-4.1-2.5-6.3 1-5.9 3.6-9.8 9.4-12.1 3.9-1.6 8.3-1.2 12.4-.9 6.7.4 12.6 2 18.6 4.8 1.7.8 3.3 3.8.8 5.2-1 .6-2.9.9-4.2 1.1-1.8.3-3.6 1.1-5.4 1.4-2.6.4-5.1.6-7.7.3-.7-.2-1.3-.4-2-.5z" fill="#bf541b" opacity=".3"/><path d="m23.9 59.9c1.4.6 2.9.7 4.4.7 0 0 .1-.1.1-.1.7-1 0-6.9-.3-8.1-.7-2.8-2.3-4.4-5-3.7-5.5 1.3-3.6 9.4.8 11.2z" fill="#ffbc82"/><path d="m26.1 58c2.1-1.2.3-5.5-1.1-6.3-1.2-.6-4.3.3-3 2.8.9-2.2 2.2-.7 1.9.9-.2 1.1-1.3 1-.2 2.5.5.7 1.8.5 2.4.1z" fill="#b54319" opacity=".5"/><path d="m62.9 32.4c-1.7.4-3.5.6-4.8 1-3.5.9-6.8 1.4-10.3.3-3.1-1-6.4-2.2-9.7-2.2-3.4 0-4.7 1.3-5.6 2.4-1.7 2-6.3-1-7.2-2.3-1.1-1.8.6-6 1.5-7.7 1.2-2.4 2.3-4.9 4.6-6.3 5.2-3.1 8.3-5.1 11.9-8-.1.3 0 .8.1 1.2 1.7-.1 3.6-1.2 4.8-2.4v2.1c0 .4 2.8-1 3-1.2 1.3-.8 2.6-1.7 4-2.4-.3 1.1-.5 2.4-.6 3.6 1.9-.2 4.1-1.2 5.7-2.3 0 1.1-.6 2.5-.9 3.5 1.7 0 3.2-1 4.7-1.5-.1 2.6-1.9 3.9-2.7 6.2 1.5.4 4.9-.2 6.3.6-.8 1-2.1 2-2.7 3.2 1.8.6 3.4 1.2 4.8 2.6-1.6.3-1.7 3.9-1.9 6.2-.4 2.3-2.9 2.9-5 3.4z" fill="#3d2518"/><path d="m26.6 49.4c-.8-.9-2-.9-2.6-.9-.5-.7-1.6-7.6-.2-18.2.4.6 3.6 2.8 8.7 3.5-1.5 2.1-2.8 12.2-2 19.3-1.1 0-2.3-.5-2.5-.8-.4-.5-.3-1.7-1.4-2.9z" fill="#977053"/><path d="m41.8 11.8c-.5 3 3.7-.8 4.6-1.5.2.7.4 1.6.6 2.3 2.2-1.1 4.2-2.1 5.9-3.8.2 1.1-.2 2.3-.1 3.5 2-.1 3.7-1.8 5.2-2.8 0 .9-.3 2.3-.6 3.2 1.6 0 3.3-.9 4.8-1.4-.4 2-2.3 4.6-3.2 6.5 2.1.2 4.2-1.4 6.3-1.1-.9 1.3-2 2.6-2.1 4.2 1.6.2 3.6.5 4.9 1.4-.7.7-1.7 1.3-2 2.3.4 0 .9 0 1.3-.1-.4 1-.7 2.4-1.2 3.4-.8 1.4-2.4 2.2-3.6 3.1.6-1.1 1.4-2.2 1.6-3.5-1.4.8-7.3 3.9-8.8 4.6 2.2-1.4 8.4-5.9 8.6-8.9-2.4.8-12.3 6.8-14.4 7.5 1.7-1.3 10.7-9.6 11.1-10.6-4 .8-12.3 8.4-16.4 9.2 1.9-1.1 11.3-9.4 11.2-12-1.5.1-18.5 10.2-18.5 10.2 1.4-2 10.9-7.1 10.6-9.8-.1-1-11 4.7-11.7 5-.1-.7 8.3-6.4 7.5-6.2-12.2 2.6-15.6 7.4-14.1 4.9 2.5-4.2 9.2-6.1 12.5-9.6z" fill="#82572e"/><path d="m39.9 51.6c-.8-.5-1.9-.6-2.9-.4-1.9-1.8.1-6.8 3-5.5 2.1 1.1 1.9 5-.1 5.9z" fill="#202930"/><path d="m55.3 55.9c-.7-.9-1.7 0-3.6 0-1.7 0-2.3-.8-3.5-.2-1.2.7.4 3 3.4 3 2.9 0 4.3-2 3.7-2.8z" fill="#b54319" opacity=".5"/><path d="m54.1 51.4c-.6-1.8-1.1-5.8-2.7-5.7-1.4.1-1.9 4.3-2.5 6.3s-1 3.9-.3 4.5c1.7 1.5 5.5.6 6.6-.4.4-.5-.5-2.6-1.1-4.7z" fill="#ffd4ad"/><path d="m65 46.6c1.5 1 1.4 4.3.2 5.5-.7-.4-2.3-.6-3.1-.1-2.4-1.7 0-7.3 2.9-5.4z" fill="#202930"/><path d="m39 46.6c1.1-.3 1.6 1.3.8 1.9-1.2.8-2-1.5-.8-1.9z" fill="#c3cee6" opacity=".7"/><path d="m63.8 47.2c1-.2 1.4 1.5.5 1.9-1.2.6-1.7-1.7-.5-1.9z" fill="#c3cee6" opacity=".7"/><path d="m34.6 43.2c-.4.1-.8.2-1.3.2.6-1.7 3-3.5 4.8-3.2 1.4.2 2.8.7 4.2.7.6 0 1.9-.4 2.4 0 .4.3.6 1.6.6 2 0 1.4-4.4.4-5.3.3-1.2-.1-2.4-.6-3.6-.5-.6.2-1.2.4-1.8.5z" fill="#2b221c"/><path d="m68.2 43.3c.4.1.8.2 1.3.3-.6-1.8-2.9-3.5-4.7-3.3-1.4.2-2.8.6-4.3.6-.6 0-1.9-.4-2.4 0-.4.3-.6 1.6-.6 2 0 1.4 4.4.5 5.3.5 1.2-.1 2.5-.5 3.7-.4.4-.1 1 .1 1.7.3z" fill="#2b221c"/><path d="m67.1 54.9c.2.2.3.5.5.8 1.1 3-6 2.7-6.9 1.4-1.8-2.4.5-3.2 2.2-3.4 1.3-.1 3.2 0 4.2 1.2z" fill="#ffd4ad"/><path d="m40.7 54.2c.2.2.3.5.5.9 1 3.2-6.3 2.6-7.3 1.2-1.8-2.5.6-3.4 2.4-3.4 1.4-.1 3.4.1 4.4 1.3z" fill="#ffd4ad"/><path d="m62 61.3c-.4-.2-1 .1-1.2.5-1.7 3.5-5.6 6.1-10.5 6-5.1 0-9.5-2.8-10.9-7.1-.1-.4-.6-.6-1.1-.5-.5.2-.7.6-.6 1 1.6 4.9 6.6 8.1 12.5 8.1h.5c5.5-.1 9.9-3.1 11.8-7.1.2-.3 0-.8-.5-.9z" fill="#b54319" opacity=".5"/></g></svg>