<svg enable-background="new 0 0 96 96" viewBox="0 0 96 96" xmlns="http://www.w3.org/2000/svg" xmlns:xlink="http://www.w3.org/1999/xlink"><clipPath id="a"><circle cx="48" cy="48" r="48"/></clipPath><path clip-path="url(#a)" d="m0 0h96v96h-96z" fill="#fff"/><g clip-path="url(#a)"><path d="m22.9 96h9.7l-1-16c-6.8 3.2-8.9 4-8.7 16z" fill="#1e1e29"/><path d="m63.8 80-1 16h9.7c.4-12-1.8-12.8-8.7-16z" fill="#1e1e29"/><path d="m59.1 78c-7-3.8-17.3-2.5-22 .6-5.5 3.6-5.3 9.1-4 17.4h29.6c1.4-8.2 1.7-15.1-3.6-18z" fill="#e8e8e8"/><path d="m50.9 86.7s-1-2.2-3.7-1.7c-2.5.5-2.8 2.6-2.8 2.6l2 2.1-1.6 6.3h6.5l-1.6-6.6z" fill="#313142"/><path d="m65.2 81.3c-.6-1.6-7.6-3.9-7.6-3.9-1.6 5.4-2.1 12.4-2.2 18.6h9.3c.5-8 .9-13.8.5-14.7z" fill="#1e1e29"/><path d="m37.9 77.4s-7 2.3-7.6 3.9c-.3.9 0 6.7.5 14.7h9.3c-.1-6.2-.6-13.2-2.2-18.6z" fill="#1e1e29"/><path d="m38.3 82.5c1.4 4.6 6.1 7.2 6.1 7.2l3.3-3.7 4.4 3.6c3-1.5 5.9-5.2 5.9-8.3.1-2.2-21-3.4-19.7 1.2z" opacity=".1"/><path d="m38.4 77c-3.7 5 5.7 11.4 5.7 11.4l3.7-2.9 4.2 3s8.5-4.7 5.5-11c-2.8-5.7-15.4-5.6-19.1-.5z" fill="#f5f5f5"/><path d="m54.5 71.5c-2.4-1.9-7-2.2-9.8-1.6-2.9.6-4.9 3.4-5.1 6.2-.3 3.6 5 8.4 8.7 8.5 2.7.1 14.4-6.6 6.2-13.1z" fill="#ed9d6c"/><path d="m57.6 77c-2.5 8.6-2.3 17.4-2.1 18.5.1.7 8.4-9.2 8.3-9.6-.1-.3-3.2-2.7-3.2-2.7l3.5-4c-3.5-1.8-6.5-2.2-6.5-2.2z" fill="#313142"/><path d="m31.4 79.3 3.5 4s-3.1 2.4-3.2 2.7 8.3 10.4 8.4 9.7c.2-1.1.4-10-2.2-18.7 0 0-3.1.4-6.5 2.3z" fill="#313142"/><path d="m70.9 25.7c-7.4-6.9-13.6-12.3-27-10.9.3-1 .5-1.9.8-2.9-2.4.2-6 3.3-6 3.3s-5.1-.7-6.9.9c1.2.4 2.6.7 3.8 1.4-3 .3-16.1 7.4-17.7 23.1.3-.4 2.4-2.9 2.8-3.2-.1 3.3-.1 6.4.7 9.5.7 2.4 2 5.4 5.1 5 5.2-.7 10.3-1.8 15.4-2.7 5-1 10.8-1.1 15.3.8 3.5 1.5 6.5 3.9 10.5.6 3-2.5 2.9-5.8 3.9-9.4.5.3 2.9 1.9 3.4 2.3.1-3-1.7-8.8-2.7-11.4 1.3-.4 2.9 0 4.2-.8-1.8-2.2-3.8-3.9-5.6-5.6z" fill="#2b221c"/><path d="m47.1 21.8c-12.2.2-24.9 12.7-21.8 27.3 1.6 7.5 1.4 9.3 3.9 16.9 2.6 7.7 9.9 12.9 20.3 13 17.7.3 20.3-15.6 20.1-30.5-.1-14.8-10.2-26.8-22.5-26.7z" fill="#ffb97f"/><path d="m21.9 46.1c-6.1 1.2-4.3 8.9.5 10.6 1.5.6 3.2.7 4.8.7 0 0 .1-.1.1-.1.8-1-.1-6.1-.4-7.1-.7-2.7-2.1-4.6-5-4.1z" fill="#ffb97f"/><path d="m63.2 29.9c-5.6-1.2-11.7-1.7-17.6-1-4.1.5-10.2-1.3-14 .3-2.5 1-3.5 4.7-4.8 7.5-.8 1.7-2.1 13.6.7 11.8 1-.6 4-11.9 4.7-14.4 13.3 4.8 28.2 3.3 28.2 3.3s-.7-1.4-1.2-2.3c.7 1.3 6.3 1.2 7.6.6 2-1-1.5-5.3-3.6-5.8z" fill="#bc551e" opacity=".3"/><path d="m67.7 27.3c-3.1-2.3-6.9-4.3-10.7-5.1-6.5-1.3-11.5-2.8-18.3.4-5.4 2.6-9.6 7.4-12.2 12.7-1.5 3-2.6 6.4-2.5 9.6 0 2.1 3.4 6.8 3.9 3.7.7-4.5.1-9 4.2-17 7.5 3.4 21.1 3.9 25.8 4.3-.6-.8-1.5-1.5-1.9-2.3.2.4 4.9.8 5.6.9 1.8.3 4.3.8 6.1-.1 3.5-1.6 2.3-5.4 0-7.1z" fill="#2b221c"/><path d="m24.9 49.1c-1.5-.8-5.7-.6-4.3 2.1 1.4-2 2.9-.2 2.3 1.2-.4 1-1.9.7-.7 2.3.7.8 2.3.9 3.2.6 3-.7 1.4-5.2-.5-6.2z" fill="#a82807" opacity=".4"/><path d="m53.3 16.3c-3.8-1.1-7.7-.7-11.6-.1.1-.6.1-1.2.2-1.9-.8.4-1.7 1-2.2 1.7 0 0-3.7-.1-4.7-.1 1 .2 2.2.8 3 1.9-4.6 1.7-9 4.5-12 7.7.7 0 2.3-.3 3-.4-2.2 1.8-3.7 3.9-5.3 6.2 3.4-1.2 5.3-2.1 9.9-5.2 5.7 2.7 14 4.9 18.6 5.6-.4-1.1-5.2-3.9-7.2-6.4 6.4 1.9 21.4 5.5 21.4 5.5s-11.7-8.8-11.6-8.7c2.1.6 12.7 5.2 15 4.7-2.8-3.4-13.1-9.5-16.5-10.5z" fill="#634f40"/><path d="m34.4 49.6c.1.9 2.2.5 2.8.7-.6.6-2.2.6-2.9 1s-.7.7.2.7c.5 0 3.4-.7 3.8-1 1.6-1.4-3.2-1.6-3.9-1.4z" fill="#b54319" opacity=".5"/><path d="m67.2 50.5c-.5-.4-1.9-.4-2.3-1 .6-.1 2.3.4 2.4-.6-.6-.2-4.6-.2-3.4 1.2.3.3 2.6 1.1 3.1 1.1.7 0 .8-.2.2-.7z" fill="#b54319" opacity=".5"/><path d="m40.1 45.6c-3-1.3-4.9 4-2.9 5.7 1-.3 2.1-.2 3 .3 2-1 2.1-5.1-.1-6z" fill="#1f1a17"/><path d="m52.2 54.4c-1.5 0-2.1-.5-3.1 0-1 .6.4 2.8 3.1 2.6 2.6-.1 3.9-2.2 3.3-2.8-.8-.6-1.6.2-3.3.2z" fill="#b54319" opacity=".5"/><path d="m51.3 45.9c-1.3.1-1.6 3.6-2 5.3-.5 1.7-.8 3.3-.1 3.8 1.7 1.2 5.2.5 6.2-.4.4-.4.2-2.1-.5-3.9-.7-1.6-2.1-4.9-3.6-4.8z" fill="#ffcb9e"/><path d="m64.1 45.6c-3-1.7-5.5 4.8-2.1 5.7.8-.5 1.7-.8 2.6-.7 1.2-1.5 1.2-4.1-.5-5z" fill="#1f1a17"/><path d="m39.3 46.3c-1.2.4-.3 2.8.9 1.9.8-.6.1-2.2-.9-1.9z" fill="#a87f7f"/><path d="m63.4 46.4c-1.2.3-.5 2.6.7 1.9.8-.5.3-2.1-.7-1.9z" fill="#a87f7f"/><path d="m61.9 59.1c-.5.1.4.3 1.7.6.2.1.4.2.5.3-6.1 1.8-19.3 2.5-27.3-.4.1-.1.1-.1.2-.2 1.2-.7 2.9-.7 2.5-.9 0 0-2.9-.2-4 .5-1 .6-1.1 2.6-.3 2.7.6.1.7-1 1.3-1.8.5 2.2 3.2 11 13.1 11.4 7.4.3 9.8-2 10.2-5.6.2-2 2.8-4.4 4.5-5.6.1.6-.4 1.5.2 1.6.8.1 1.7-1.1 1.1-2.2-.6-.9-3.7-.4-3.7-.4z" fill="#b54319" opacity=".5"/><path d="m38.3 61.3s2.9 9.1 11.7 9.1c7.9 0 8.9-3.1 9.3-5.2.6-2.9 2.7-3.9 2.7-3.9-13.5 3.2-23.7 0-23.7 0z" fill="#8f2724"/><path d="m41.2 62.3s0 2.9 2.7 4.1c3.4 1.5 7.3 1.8 11.3.8 2.7-.6 4.4-5 4.4-5s-7.6 1.3-18.4.1z" fill="#fff9f0"/><path d="m52 67.2c-3.8-.1-7-.7-8.7-1.4-1.4-.6-1.5.2-1.2.9 0 0 .4 3 7.2 3.8 6 .6 8.7-3.1 8-3.9-.6-.8-1.5.6-5.3.6z" fill="#fff9f0"/><path d="m67.4 53.7c-1.1-1.2-3-1.2-4.4-1.1-1.8.2-4.1 1.2-2.2 3.5 1 1.3 8.3 1.4 7.1-1.7-.1-.2-.3-.5-.5-.7z" fill="#f58c53"/><path d="m40.6 53.6c-1.2-1.2-3.2-1.2-4.7-1-1.9.4-4.2 1.4-2.1 3.9 1.1 1.3 8.8 1.2 7.4-2-.2-.4-.4-.6-.6-.9z" fill="#f58c53"/><path d="m41.1 62.3s.1.9.3 1.3c0 0 14.2-1 17.4.3 0 0 .6-.9.7-1.6 0-.1-10.1 1.1-18.4 0z" fill="#e8dac5"/><path d="m44.1 65.8c5.8 3.1 12.4.6 12.4.6-7.3 1.3-12.4-.6-12.4-.6z" fill="#e8dac5"/><g fill="#2b221c"><path d="m39.4 38.5c-1.2.4-5.5 3.2-6.6 3.9.4 1 1.2 1 2.1.7.6-.2 5.3-1.6 5.8-1.4 1 .3 4 .6 4.7-.7s-5.3-2.8-6-2.5z"/><path d="m57.4 41.8c.6 1.3 3.2.9 4.2.6.5-.2 4.6 1.1 5.2 1.3.8.3 1.5.2 1.9-.8-1-.7-4.8-3.5-5.8-3.8-.7-.2-6.1 1.3-5.5 2.7z"/></g></g></svg>