<svg enable-background="new 0 0 96 96" viewBox="0 0 96 96" xmlns="http://www.w3.org/2000/svg" xmlns:xlink="http://www.w3.org/1999/xlink"><clipPath id="a"><circle cx="48" cy="48" r="48"/></clipPath><path clip-path="url(#a)" d="m0 0h96v96h-96z" fill="#333f59"/><g clip-path="url(#a)"><path d="m36.3 77.3c-6.3 1.4-12.9 7.8-13.9 18.7h10.6c.3-5.6.9-11.6 2.2-13z" fill="#e8e8e8"/><path d="m58.4 77.3 1.1 5.6c1.3 1.4 1.8 7.4 2.2 13h10.6c-1-10.8-7.6-17.2-13.9-18.6z" fill="#e8e8e8"/><path d="m62.2 80.9c-3.2-7.3-23.1-8.7-29-.9-2.5 3.4-1.9 10-.7 16h29.5c1.2-5.3 1.9-11.3.2-15.1z" fill="#e8e8e8"/><path d="m50.5 84.7s-.9-2.1-3.6-1.6c-2.4.5-2.7 2.5-2.7 2.5l2 2-2.3 8.4h7.5l-2.1-8.8z" fill="#e62628"/><path d="m37.2 80.4c1.3 5.6 6 8.3 6 8.3l4.3-4.5 4.6 4.3c4.4-4.2 5.3-5.1 5.6-8.8.4-3.7-21.7-4.4-20.5.7z" opacity=".1"/><path d="m37.3 76.5c-2.1 6 5.6 10.8 5.6 10.8l4.6-3.2 4.3 3s8.5-4.9 5.3-11.8c-2.9-6.2-17.3-5.7-19.8 1.2z" fill="#f5f5f5"/><path d="m44.1 69.4c-2.8.6-4.7 3.3-4.9 6.1-.2 2.2.2 3.4 1.4 4.6.9.9 2.3 1.7 3.7 2.2 1 .3 2.9 1.5 3.2 1.6.1 0 .7-.5 1.7-1 1.4-.7 3.5-1.7 4.3-3.3 1.2-2.3 2.2-6.8 0-8.6-2.3-1.9-6.7-2.2-9.4-1.6z" fill="#f2a66e"/><path d="m75.2 25.9c-1 .6-2.3 1.1-3.1.9 1.9-1.2 2.7-2.7 2.6-5.4-5-4-16.8-12.1-30.1-12.7-8.2-.4-16.7 1.7-21.2 9.1-1.1 1.8-1.7 3.1-2.2 5.1-.7-1.5-1.4-2.4-1.3-4.1-1.7 1.9-1.4 5.1-.1 6.7-1.5-.1-3.2.8-4.2 1.8 1 0 2.6 0 3.4.5-1.1 1.5-1.3 3.8-1.3 5.6 0 3 .3 7.4 1.2 10.8s2.1 11.8 7.3 10.7c7.1-1.5 14.8-5.3 22.1-2.6 5.1 1.9 9.7 5.1 14.8 7 4.6 1.7 9.1 6.1 10.3-.2 1-4.9 1.2-10 .4-14.9-.6-4-1.3-8.9-3.5-12.4 1.4-.4 4.6-2.2 4.9-5.9z" fill="#1f1a17"/><path d="m46.1 20.7c-13.4.9-24.9 15.7-23.8 32.1s12.2 27.4 27.8 27.3c17.3-.2 23.9-14.5 22.8-30.9s-13.4-29.4-26.8-28.5z" fill="#ffc490"/><path d="m70.3 47.6c-.6-.3-4.7-.8-3.7.7.2.4 2.5 1.4 3 1.5.7.1.9-.1.3-.6-.5-.5-1.9-.7-2.2-1.4.6 0 2.3.7 2.6-.2z" fill="#d14f2e" opacity=".4"/><path d="m35.1 50.6c.4.9 2 0 2.6 0-.3.7-1.7 1-2.1 1.5-.5.6-.3.8.4.6.4-.1 2.6-1.4 2.8-1.7.8-1.6-3.2-.8-3.7-.4z" fill="#d14f2e" opacity=".4"/><path d="m41.1 45.7c-3-1.3-4.9 4-2.9 5.8 1-.3 2.1-.2 3 .3 2-1.1 2.1-5.1-.1-6.1z" fill="#1f1a17"/><path d="m53.8 53.2c-1.7.1-2.4-.6-3.5.1s.5 3.2 3.4 3c3-.2 4.3-2.7 3.7-3.4-.8-.8-1.7.2-3.6.3z" fill="#d14f2e" opacity=".4"/><path d="m52.3 44.1c-1.5.1-2.5 2.3-2.7 5.1-.2 2.9-.1 4.1.6 4.6 1.9 1.4 5.4 1.1 7-.6 2.1-2.1-1.2-9.3-4.9-9.1z" fill="#ffd1a7"/><path d="m66.2 43.9c-3.2-1.4-5.1 5.3-1.6 5.9.7-.6 1.7-1 2.5-1 1-1.5.8-4.1-.9-4.9z" fill="#1f1a17"/><path d="m39.5 46.8c-1.2.4-.3 2.8.9 1.9.9-.6.2-2.2-.9-1.9z" fill="#a88888"/><path d="m64.7 45.1c-1.1.4-.3 2.6.8 1.8.9-.5.3-2.1-.8-1.8z" fill="#a88888"/><path d="m19.9 49c-6.6 1.7-4.2 10 1.1 11.7 1.7.5 3.6.6 5.3.4 0-.1.1-.1.1-.1.8-1.1-.4-6.7-.8-7.8-.8-3-2.5-5-5.7-4.2z" fill="#ffc490"/><path d="m40.4 28.5c-5.2.5-11.8 2.8-13 8.6-.4 2.1-1 4.6-1.1 6.9v2.2c.1.9 1.9 9.3 2 8.4.8-13.1 3.9-17.5 4.6-19.4 15.6 2.3 23.7 1.6 29.4 1 2.2-.3 7.5-.8 4.9-4.2-1.9-2.3-19.5-4.2-26.8-3.5z" fill="#bc551e" opacity=".4"/><path d="m23.4 52.1c-1.7-.8-6.3-.3-4.6 2.5 1.4-2.2 3.2-.4 2.6 1.2-.4 1.1-2 .9-.6 2.6.8.9 2.6.8 3.6.5 3.2-.9 1.1-5.8-1-6.8z" fill="#d14f2e" opacity=".4"/><path d="m60.6 19.8c-7.4-3.5-18.9-4.5-26.9-.4-2.5 1.3-4.6 3-6.2 5.3-3.5 5.1-7.9 13.4-6.1 19.5.4 1.4.2 3.3.7 4.7 1.2 3.4 3 16.6 5.9 16.7 1.1 0 4.2.7 3.7-.2-4.7-8.8-3.5-24.1.4-31.4 24 2.9 37.6-.4 36.7-5.8-.6-3.7-5-6.9-8.2-8.4z" fill="#1f1a17"/><path d="m42.4 54c-1.6-1.3-4.1-.8-5.8-.2-2.2.7-4.9 2.6-1.9 5.2 1.6 1.4 10.8-.4 8.5-4-.2-.4-.5-.7-.8-1z" fill="#ff9563"/><path d="m66 51.2c-1 .3-1.9.8-2.5 1.5-.9 1.2-.9 2.7 1.1 3.7 1.9.9 6.1 1.1 7.1-1.4 1.5-3.5-3.4-4.4-5.7-3.8z" fill="#ff9563"/><path d="m52.3 72.2c-2 .6-2.6 2.1-2.7 3.8 0-.3 1-1.9 4-2.4 1.7-.3 4.4.4 5.3 1.5.1-2.7-4.2-3.6-6.6-2.9z" fill="#f5ae79"/><path d="m63.6 37c-1.9.2-4 1.7-5.9 1.2.3 2 1.5 3 3.3 3.3 1.5.2 2.6-.3 3.8-.8.5-.2 1-.4 1.5-.6.9-.3 1.7 0 2.6 0-.1-.3-.2-.6-.3-.9-1.1-2-3-2.4-5-2.2z" fill="#1f1a17"/><path d="m43.1 39.2c-1.2-.2-2.4-.8-3.5-.9-2.9-.3-5.8 3.6-4 6.1.4-.3.7-.8 1-1.1 1.8-1.9 4.4-.5 6.5-.1 2.9.5 4.3-1.3 4.1-4.1-1.2.4-2.7.3-4.1.1z" fill="#1f1a17"/><path d="m64 57c.3-.1 1.2.8 1.2 1.1 0 .6-.6 1-1.1 1.2-1.5.8-3.3.9-5 1.2-4.1.7-8.2 1-12.4.6-2.3-.2-4.7-.8-6.9-1.6.1-.1.1-.1.2-.2 1.1-.7 2.8-.8 2.4-1-2.4-1.1-5.3.2-7.4 1.7 2.4-.5 4.8-.3 6.2 2 3.4 5.8 6.8 9.7 12.5 9.6 7.4-.1 8.9-5 9.8-8.3.4-1.4.9-2 1.8-3 1-1.1 2-2 3.1-2.5.8-.3 1.6-.5 2.6-.5-1.7-1.7-5.2-1.1-7-.3z" fill="#bc551e" opacity=".3"/><path d="m41.6 60.8s3.7 8.5 12.4 7.9c5.9-.5 8.2-3.4 8.9-5.9.7-2.7 2.2-3.4 2.2-3.4-12.2 5.5-23.5 1.4-23.5 1.4z" fill="#8f322d"/><path d="m44.5 61.6s.3 2.7 3 3.7c3.5 1.2 7.4 1.3 11.3.1 2.6-.8 3.9-5 3.9-5s-7.4 2.8-18.2 1.2z" fill="#fff3e2"/><path d="m55.7 65.6c-3.7.2-7-.2-8.8-.8-1.5-.5-1.5.3-1.1 1 0 0 .7 2.8 7.5 3.1 6 .3 8.3-3.4 7.6-4.1-.7-.9-1.4.6-5.2.8z" fill="#fff3e2"/><path d="m44.5 61.6s.1 1.6 1.1 2.5c0 0 12.5-1.7 15.7-.7 0 0 1.2-1.8 1.4-2.9 0 0-9.3 2.8-18.2 1.1z" fill="#e8dac5"/><path d="m47.8 64.7c6 2.5 12.4-.2 12.4-.2-7.2 1.7-12.4.2-12.4.2z" fill="#e8dac5"/><path d="m66.7 53.2c-.4 0-1.2.2-1.6.5-.8.7.3.4.8.7 1.1.6.2 2-.8 2.1-1.7.1-3.3.2-5 .4-5 .4-10.1 1.1-15.1 1.1-1.1 0-3.3.4-4.2-.4-1.4-1.1 1.9-2.1.2-2.4-1.2-.2-2.8 1.3-3.2 2.3-.1.2-.1.3-.2.5-.4 2.1 1.4 3.3 3 4.2 1.4.8 3 .8 4.6.6 1.6-.1 3.2 0 4.8 0 1.6.1 3.2.2 4.8.1s3.1-.5 4.7-.7c2.8-.4 5.2-.2 7.4-2.3 1.4-1.2 2.1-2.2 1.9-4.1 0-1.1-.5-2.6-2.1-2.6z" fill="#bc551e" opacity=".3"/><path d="m64.7 54c1.1-.7 2.1 0 2 .8-.1 1.2-1.5 1-2.3 1-2.6-.3-5.2-1.2-7.9-.4-3.4 1.1-5.7-.1-9.2.4-1.8.3-3.5.9-5.2 1.3-.9.2-2 .4-2.2-.6-.2-.7.9-1.5 1.7-.9-.4-.8-2-1-2.7-.7-1.2.4-1.5 1.4-1.3 2.6.3 1.7 2.8 2.8 4.3 3.4 2.1.8 4.8 1.3 7.1 1.5 1.7.2 3.3.3 5 .2 1.8-.1 3.5-.3 5.3-.7 2.2-.5 4.3-1.3 6.2-2.5 1.5-1 3.7-2.3 3.5-4.5-.4-2-3-2.8-4.3-.9z" fill="#1f1a17"/><g fill="#332823"><path d="m20.2 32.8c-.1 2 4.1 3.7 5.6 4-1 .2-2 .3-3 .2-1.1-.1-2.2-.9-3.3-.8.3 2.4 4 2.9 5.8 3.7-.7.2-1.3.2-2 .2-.5 0-1.4-.3-1.9-.1-1.5.6-.9 4-.8 5.2.3 2 1.6 4.3 3.1.9-.5 5 4.6 12.8 4.2 9.5-.5-3.7-.2-7.1.2-10.8.2-1.8.4-3.4.8-5.2.1-.4 1.1-4.9 1.1-4.9-1 0-2-.1-2.9-.2-2.5-.3-4.5-1.6-6.9-1.7z"/><path d="m54.2 31.5c-15 2.1-26.3.1-26.3.1s15.2 4.1 29.2 2.2 12-6.3 12-6.3.1 1.9-14.9 4z"/><path d="m61.6 56.4c-2.1-.4-3.7-.5-5.5.2s-3.3 1-5.4.1c-2.6-1.1-8.4.9-7.6 1.8.8 1 3.5.5 3.5.5s.1 1.3 1.2 1.6 3.2-1.2 3.2-1.2-.1 1.5 1.4 1.6 2.8-1.7 2.8-1.7 1 1.6 2.5 1.4c1.5-.3 1.4-1.6 1.4-1.6s1.8.9 3 .6c1.1-.3.5-1.9.5-1.9s1.3.6 3-.2c1.5-.8-1.9-.8-4-1.2z"/><path d="m26.9 23.6c4.3 3.8 10.4 3.2 15.5 2.4-3.4 2.4-14.4 2-19.3.6 3.8 2 8.6 3.8 19.9 4.3 7.7.3 15.3-.9 22.3-4.1 2.8-1.3 5.7-3.2 7.7-5.7-2.8-1-15.1-8.7-24.1-10.3-16.3-2.9-27.8 7.6-22 12.8z"/></g></g></svg>