<svg enable-background="new 0 0 96 96" viewBox="0 0 96 96" xmlns="http://www.w3.org/2000/svg" xmlns:xlink="http://www.w3.org/1999/xlink"><clipPath id="a"><circle cx="48" cy="48" r="48"/></clipPath><path clip-path="url(#a)" d="m0 0h96v96h-96z" fill="#7bc0db"/><g clip-path="url(#a)"><path d="m61.5 78.5c-3.2-7.4-23.1-8.1-29-.2-2.8 3.7-1.8 11.3-.3 17.8h29.4c1.1-6.1 1.8-13.3-.1-17.6z" fill="#918fa0"/><path d="m49 86.1 1.4-2.9s-1.1-2.5-4.2-1.9c-2.8.5-3.2 2.9-3.2 2.9l2.3 2.3-2.4 8.5.6 1h8.1l.6-1.4z" fill="#1f1f26"/><path d="m33.6 85.1 1.1-9.1s-10.9 5.2-10.4 20h6.5c.3-6.7 2.8-10.9 2.8-10.9z" fill="#918fa0"/><path d="m59.1 76 1.1 9.1s2.5 4.2 2.7 10.9h6.5c.7-14.8-10.3-20-10.3-20z" fill="#918fa0"/><path d="m36.5 78.6c1.3 5.7 6.1 8.4 6.1 8.4l4.3-4.5 4.6 4.3c4.4-4.3 5.4-5.2 5.7-8.9.4-3.8-21.9-4.5-20.7.7z" opacity=".2"/><path d="m36.6 74.7c-2.1 6 5.7 11 5.7 11l4.7-3.2 4.3 3s8.6-4.9 5.3-12c-2.9-6.4-17.5-5.8-20 1.2z" fill="#a7a5b2"/><path d="m43.5 67.5c-2.9.6-4.8 3.4-5 6.2-.2 2.2.2 3.4 1.4 4.7.9.9 2.3 1.7 3.8 2.2 1.1.3 2.9 1.6 3.2 1.6.1 0 .7-.5 1.7-1 1.5-.8 3.5-1.8 4.3-3.3 1.2-2.3 2.2-6.9 0-8.7-2.2-2.1-6.7-2.4-9.4-1.7z" fill="#f7b07c"/><path d="m41.9 12.7c-30.7 2.3-25.8 45-17 43.2 6.5-1.3 12.8-3.1 19.2-4.7 6-1.5 12.6-.3 18.7.2 4.8.4 4.7-1.7 5-5.6.5-7.2-.3-9.9.1-12.8 1.4-12.5-8.5-21.6-26-20.3z" fill="#303030"/><path d="m42.9 21.8c-11.3 2.1-19.3 18.4-17.3 33.6 1.4 11.5 10.2 24.1 23.4 23.2 13.5-.9 20.3-17.7 18.6-31.7-1.8-15.3-8.9-28.1-24.7-25.1z" fill="#ffb97f"/><path d="m21.7 49c-5.5 1.5-3.4 9.6 1.1 11.3 1.4.5 3 .6 4.5.5 0 0 .1-.1.1-.1.7-1-.5-6.5-.8-7.6-.9-2.8-2.3-4.8-4.9-4.1z" fill="#ffb97f"/><path d="m62.5 26.1c-6.1-2.5-12.1-3.9-18.8-4.1-4.5-.1-11.2-.4-14.8 2.9-2.9 2.6-3.1 7.6-3.3 11.2-.1 1.4-.1 12 .7 9.7 1.5-4.2 4.9-5.7 4.8-10.1 6.5 2.9 16.2 2.7 24.7 1.9 5.3-.5 9.6-1.8 10.7 2.6.7-3.8.3-12.4-4-14.1z" fill="#bf3c1b" opacity=".2"/><path d="m23.6 52c-1.2-.6-4.3.4-2.9 2.9.8-2.3 2.1-.8 1.9.8-.1 1.1-1.3 1.1-.2 2.5.6.8 1.9.5 2.5.1 2.1-1.2.2-5.5-1.3-6.3z" fill="#b54319" opacity=".35"/><path d="m73.3 15.8c-7.2 5.8-18.9-7-35.3-2.1-22.4 6.7-14.1 30.6-14 33.4.1 2.5 1.5 5.5 2.3 6.5.6.3 1.9.3 3 0-2-1.9-2.8-7-1.2-11.8.9-2.7 2.2-4.6 2-8.2 2 1.8 16 4.5 33.6.8 5.7-1.2 9.1-4.7 10.9-7.4-1.5 0-2.5.3-4.3.5 2.6-2.6 2.9-7.9 3-11.7z" fill="#303030"/><path d="m54.8 15.2c-8-2.3-20.3-2.5-26.6 4.1s-.9 12.3 20.6 12.1c19.6-.2 23.6-14.1 23.6-14.1-5.9 2.7-9.6.1-17.6-2.1z" fill="#595655" opacity=".7"/><path d="m22.9 48.9c1.9.1 2.2 3.9 3.6 4.9.6.3 1.8.2 2.8-.1-1.5-2.1-1.8-7.6-1.8-9.2-1.1 2.3-6.4 4.3-4.6 4.4z" fill="#9e8f88"/><path d="m21.8 27.7c-.8 1.8-1.3 3.6-1.6 5.6-.3 2.3-.5 5.6 1.2 7.4 2 2.2 5.2.9 6-1.5 2.4-7.2-5.6-11.5-5.6-11.5z" fill="#595655" opacity=".7"/><path d="m67.4 45.2c1.1 23.2-6.1 14.5-6.1 14.5l-2.3.8c.8 5.7-5 8-6 4.2l-5.5.3c-1.5 5.6-7.3-.6-7.2-3.9.1-3.4-2.7-.8-2.7-.8-3.6 3.6-8.6-5.3-9.1-7.2l-2.8-.2s.1 31.4 27 28.9c23-2.2 15-37.7 15-37.7z" fill="#303030"/><path d="m43.6 63.6c1.7 4.3 10.9 4.1 12.2.6-3.1 1-9.8 1.5-12.2-.6z" opacity=".3"/><path d="m51.9 61.3c-2.2.2-5 0-6.9-.4-1.8-.4-3.1 1.4-1.7 2.9 1.9 2.1 5.4 2 7.8 1.9 1.8-.1 5.7-.5 6-3.5.2-2.5-4.1-1-5.2-.9z" fill="#ffcb9e"/><path d="m37.1 60.7c7.5 3.7 20.9 3.4 25.6-.8-6 1.1-19.8 2-25.6.8z" fill="#6e2210" opacity=".3"/><path d="m33.6 49.6c.1.9 2.1.5 2.8.6-.5.6-2.2.6-2.8 1-.7.4-.6.7.2.7.5 0 3.3-.7 3.7-1 1.5-1.3-3.1-1.5-3.9-1.3z" fill="#b54319" opacity=".5"/><path d="m65.5 50.4c-.5-.4-1.9-.4-2.3-1 .5-.1 2.2.3 2.4-.6-.6-.2-4.5-.1-3.3 1.2.3.3 2.6 1 3 1 .7.1.8-.2.2-.6z" fill="#b54319" opacity=".5"/><path d="m39.2 45.7c-2.9-1.3-4.7 3.9-2.8 5.6.9-.3 2-.2 2.9.3 2-1 2.1-4.9-.1-5.9z" fill="#121b21"/><path d="m51 55.2-2.2-.1c-2.6-.3-5.3.5-7.5 1.6-1.1.6-4.2 2.6-4.8 3.8 7 2.1 15.6 2.2 22.9.6 1.4-.3 2.7-.7 3.9-1.5-2.7-2.2-6.5-4.6-10.1-4.7-.7 0-1.4.1-2.2.3z" fill="#303030"/><path d="m50.1 46c-1.3.1-1.5 3.5-1.9 5.1s-.7 3.2-.1 3.6c1.7 1.2 5.1.4 6-.5.4-.4-.5-2-1.3-3.7-.6-1.4-1.3-4.6-2.7-4.5z" fill="#ffd2ab"/><path d="m62.5 45.6c-3-1.6-5.3 4.7-2 5.5.7-.5 1.7-.8 2.5-.7 1.1-1.3 1.1-3.9-.5-4.8z" fill="#121b21"/><path d="m38.4 46.4c-1.2.4-.3 2.7.9 1.9.8-.6.1-2.2-.9-1.9z" fill="#7d8ba8"/><path d="m61.8 46.4c-1.1.3-.5 2.5.7 1.8.8-.5.3-2-.7-1.8z" fill="#7d8ba8"/><path d="m60 40.3c-2.6.1-4.6 0-4.6 0 0 1.2.6 3.7 2.5 3.5 1.2-.1 2.4-.5 3.6-.5 2.1-.1 3.6.2 4.4.4.9.2 1.1-.9.8-1.2-1.3-1-3-2.3-6.7-2.2z" fill="#303030"/><path d="m39.2 40.7c-4.2 0-5.9 1.4-7.2 2.5-.4.3 0 1.4 1 1.2.8-.2 2.5-.6 4.8-.6 1.3 0 2.7.3 4 .4 2.2.2 2.6-2.4 2.4-3.6 0-.2-2.1 0-5 .1z" fill="#303030"/><path d="m65.8 53.4c-1-1.3-2.9-1.3-4.3-1.1-1.8.2-4 1.3-2.1 3.9 1 1.4 8.1 1.4 6.9-1.9-.2-.4-.3-.7-.5-.9z" fill="#ffd2ab"/><path d="m39.9 53.6c-1.1-1.4-3.1-1.3-4.5-1-1.8.3-4.2 1.6-2.1 4.3 1.1 1.5 8.5 1.3 7.2-2.3-.2-.5-.4-.8-.6-1z" fill="#ffd2ab"/><g fill="#595655"><path d="m53.6 56.6c-1.2.6-2.2 1-3.6 1-.9 0-3.1-1.2-4.5-1s-4.1 1.9-5.2 2.7c6.5 1.4 14.9 1.9 19.6-.6-1.5-1.3-4.6-2.9-6.3-2.1z" opacity=".7"/><path d="m61.2 67.8c-2-2.4-4-.3-3.9 2.2-2.9-4.1-8.2-1.3-8.4 1.4-1.6-4.5-6.2-4.2-5.9-1.1-.7-2.7-4.5-6.2-7.4-5.7-5 .9-.7 7.5 1 9.8 6.1 8.2 30.9 7.4 29.2-8.5-.5-4.1-5.1-3.1-4.6 1.9z" opacity=".7"/></g></g></svg>