<svg enable-background="new 0 0 96 96" viewBox="0 0 96 96" xmlns="http://www.w3.org/2000/svg" xmlns:xlink="http://www.w3.org/1999/xlink"><clipPath id="a"><circle cx="48" cy="48" r="48"/></clipPath><path clip-path="url(#a)" d="m0 0h96v96h-96z" fill="#fff"/><g clip-path="url(#a)"><path d="m21.1 96h16l-2.6-20.1c-9.3 3.6-13.4 7-13.4 20.1z" fill="#1e1e29"/><path d="m61.9 75.9-2.5 20.1h16c0-13.1-4.1-16.5-13.5-20.1z" fill="#1e1e29"/><path d="m60.9 77.1c-2.9-7.6-19.5-5.7-23.9-2.1s-5.7 8 .7 14.5c3.6 3.6 6.5 5.5 8.5 6.5h3.5c3.3-3.2 13.3-13.6 11.2-18.9z" fill="#e8e8e8"/><path d="m50.6 85.6 1.5-3s-1.1-2.6-4.3-2c-2.9.5-3.3 3-3.3 3l2.3 2.5-2.7 8.6.8 1.3h8l.8-1.6z" fill="#e62628"/><path d="m64 93.8c1.2-6 4.4-11.3-.1-16.4-1-1.1-2.2-1.9-3.6-2.7.2.5.2 1 .2 1.5-1.1 9.6-11.5 19.3-11.5 19.3s-14.7-13.3-12.1-19.8c.2-.5.5-1 .8-1.5-3.5 1.4-6.9 3.7-7.8 6.8-1 3.2.9 9.9 1.6 14.9h32.1c.1-.7.3-1.4.4-2.1z" fill="#1e1e29"/><path d="m63.6 88.5c-.1-.8-2.8-4.7-2.8-4.7l5.1-2.8c-2.3-4.6-6.9-7.5-6.9-7.5 1.1 11.9-9.4 21-9.8 21.9-.1.2-.2.4-.2.6h1.5c1.1-.9 3-2.4 5.1-3.5 3.7-2.1 8.1-3.6 8-4z" fill="#313142"/><path d="m49 95.3c-.4-.9-11.3-8.3-11-21.2 0 0-5.1 2.3-7.2 7.3l6 2.4s-2.7 4.9-2.8 5.7c-.1.5 4.5.4 10.1 3.4 1.8 1 3.2 2.3 4.1 3.1h1.1c-.1-.2-.1-.5-.3-.7z" fill="#313142"/><path d="m54 76.4c-3.4-1.8-17.1-2.5-15.6 2.4 1.5 5 5.4 7.5 5.4 7.5l4.7-4.3 4.8 4.2c4.7-4.1 6.1-8.1 6.1-8.1s-2 .2-5.4-1.7z" opacity=".1"/><path d="m37.7 74.3c-2.4 5.8 5.8 10.7 5.8 10.7l5-3 4.6 3s9.2-4.6 5.9-11.5c-3-6.1-18.5-5.9-21.3.8z" fill="#f5f5f5"/><path d="m45.2 66.3c-3 .6-5 3.4-5.2 6.3-.2 2.2.1 3.5 1.4 4.8.9.9 2.3 1.8 3.9 2.3 1.1.4 3 1.7 3.3 1.7.1 0 .8-.5 1.8-1 1.5-.7 3.7-1.7 4.5-3.3 1.2-2.4 2.4-7 .2-8.9-2.5-2.1-7.1-2.5-9.9-1.9z" fill="#f7b07c"/><path d="m71.6 30c-1.5-1.6-2.2 11.7-3.1 13-2 3.1-1.3 8.2 2.4 9.6.3.1 4 .5 3.6-.4-3-7.1 2.8-16.2-2.9-22.2z" fill="#2b2521"/><path d="m40.2 10.9c-31.3 7.5-24 43.6-14.9 41.6s39.6-10.4 42.4-11.2c2.8-.9 6-1.5 3.7-13.3-2.5-12.9-18.3-20.2-31.2-17.1z" fill="#2b2521"/><path d="m45.1 17.7c-13.6 1-23.5 15.3-22.3 31.9 1.3 16.6 13.3 29.2 26.8 28.2 13.6-1 23.5-15.3 22.3-31.9s-13.2-29.2-26.8-28.2z" fill="#ffcb9e"/><path d="m18.9 46.6c-6.7 1.7-4.2 10.2 1.3 11.8 1.7.5 3.6.5 5.4.4 0 0 .1-.1.1-.1.8-1.1-.5-6.8-.9-7.9-1-3-2.7-5-5.9-4.2z" fill="#ffcb9e"/><path d="m62 25.7c-6.4-1-13.2-1-19.6.1-5.1.9-10.3 2.9-12.8 7.8-1.2 2.5-1.8 5.2-2.1 7.9-.5 3.4.3 7.1 1.1 7.3.4-4.1 2.8-4 3.5-8 .6-3.5 4.3-6 4.5-6.2-.5 1-1.2 3.3-1 4.4 1.2-2 5.6-5.3 15.6-4.7 2.9.2 8.8.3 11.6-.4 2.1-.5 5.2-2.5 6.3-4.7 1.2-2.6-5.6-3.2-7.1-3.5z" fill="#bf3c1b" opacity=".3"/><path d="m58 19.6c-9.1-5-17-3.5-24-.3-9 4.2-14 19.2-12.9 28.1.6 5.1 7.6 5.1 7.5 2.2-.4-8.7.7-15 13.4-18.6 10.1-2.9 22.2-2.2 25.4-.2s-.3-6.2-9.4-11.2z" fill="#2b2521"/><path d="m22.5 49.7c-1.7-.8-6.4-.2-4.6 2.6 1.4-2.3 3.2-.5 2.7 1.2-.4 1.1-2 1-.6 2.6.8.9 2.7.8 3.6.5 3.1-1 1-5.9-1.1-6.9z" fill="#bf3c1b" opacity=".3"/><path d="m56.3 11.1c-8.1-1.8-16.9-1.5-23.9 3.1-5.1 3.3-5.7 9-3.6 14.7.7 1.9 2 4.6 4.4 4.9.9.1 5.5-1.6 5.8-2.3-.5 1.1-1 2.4-.9 3.8 9.5-6.3 26.7 1.5 35.6-5.8 4.2-3.5-3.1-15.3-17.4-18.4z" fill="#2b2521"/><path d="m26.9 44.4c-1.6-.9-4 0-5.8-.9.9.5.3 4 .3 4.8 0 4.8 2.9 7.8 7.4 8.1h.7c.1-2.9-.7-5.7-.8-8.8-.1-2.1-.3-2.4-1.8-3.2z" fill="#2b2521"/><path d="m37.7 11.6c-4.6 1.2-9.6 2.4-13.5.2 0 .8 0 3.1 2 4-1.1 1-3.6 1.2-6 .1 2.8 7.6 12.4 5.4 16.6 2.7 2-1.3 4.3-7.9.9-7z" fill="#2b2521"/><path d="m68 18c-5.6-4.7-13.8-6.2-21.1-6.1-5.9 0-15.8 1.9-18.2 8.2-1.7 4.3 2.7 6.9 6.3 7.9 2.6.7 5.3.8 8 .7-.7.9-1.2 1.8-1.9 2.6 8.8-1 18.8 1.5 27.4-1.2 7.5-2.4 3.2-9-.5-12.1z" fill="#423833"/><path d="m41 45.4c-3.1-1.3-5.1 4.2-2.9 6 1-.3 2.2-.2 3.1.3 2-1.1 2.1-5.3-.2-6.3z" fill="#211011"/><path d="m64.4 59c-.5-.3-1.2-.2-1.5.2s-8.2 9.6-21.2 2.1c-.5-.3-1.2-.2-1.5.3-.3.4-.2 1.1.4 1.3 3.2 1.9 6.2 2.8 8.8 3.1 3.6.4 6.6-.3 8.8-1.2 4.1-1.7 6.4-4.4 6.5-4.5.3-.4.2-1-.3-1.3z" fill="#c20902" opacity=".5"/><path d="m53 49.3c-1.5.1-2.2-.5-3.2.1s.5 2.8 3.2 2.6 3.9-2.3 3.3-2.9c-.7-.7-1.6.1-3.3.2z" fill="#bf3c1b" opacity=".3"/><path d="m52.7 46.1c-2.7.2-3.9 2.5-2.5 3.5 1.7 1.2 4.8.6 5.8-.3.8-.7-.1-3.4-3.3-3.2z" fill="#ffd8b5"/><path d="m40.4 47.4c-1.3.4-.3 2.9.9 2 1-.6.3-2.4-.9-2z" fill="#a89191"/><path d="m67.6 44.8c-3.1-1.3-5.1 4.2-2.9 6.1 1-.3 2.2-.2 3.1.3 2.1-1.2 2.2-5.4-.2-6.4z" fill="#211011"/><path d="m67.1 46.8c-1.3.4-.3 2.9.9 2 .9-.6.2-2.4-.9-2z" fill="#a89191"/><path d="m68.5 36.5c-1-.4-2.2-.3-3.2-.3-.6 0-3.1-.3-3.5.3-1.7 2 5.7 1.8 6.3 1.8 1.7-.2 2.2-1.1.4-1.8z" fill="#2b2521"/><path d="m38.5 37.5c-1 .1-2.2.2-3.2.6-1.7.8-1.1 1.7.6 1.7.7 0 8-.5 6.1-2.4-.4-.4-2.8.1-3.5.1z" fill="#2b2521"/><path d="m56.7 42.1c-1.7 2.1-.7 8.9.5 11.1s13.1 2.2 16 1c2.9-1.1 5-9.1 2.9-12.2s-16.9-3-19.4.1zm15.8 10.6c-2.2.8-12.8.8-13.9-.6-1-1.4-1.5-7.5-.3-8.9 1.8-2.1 14.3-2 16.1 0 1.9 1.9.3 8.7-1.9 9.5z" fill="#212126"/><path d="m27.8 43.4c-2.1 2.2.3 9.1 2.2 11.2s15.7.9 18.5-.4 2.6-8.9.2-11.9c-2.6-2.9-17.8-2.1-20.9 1.1zm19.4 9.5c-2.1.9-14 1.8-15.6.5s-3.5-7.4-2-8.8c2.2-2.1 15.4-2.9 17.5-1 2 1.7 2.2 8.4.1 9.3z" fill="#212126"/><path d="m50.2 46.3c-.3.2-1.5 1.9-.6 2.3.2.1 2.8-2.2 6.8-.7.5.2 1 .1.8-.6-.7-2.5-5.2-1.9-7-1z" fill="#212126"/><g fill="#fff"><path d="m65.8 42.1c-.8.2-6.3 1.4-5.2 4 .7 1.7 13.6 2.6 14.4-.3 1.6-5.8-7.6-4.1-9.2-3.7z" opacity=".3"/><path d="m46.1 42.6c-2.1-.6-6.5-.2-9.1.3-.9.2-5.1 1-3.6 3.7 1.5 2.8 12.2 3 14.1.6 1.8-2.4-.2-4.3-1.4-4.6z" opacity=".3"/><path d="m66.7 42.6c-1.4.1-2.3.4-2 1.1.6 1.4 8.7 1.5 9.3.6.7-.9-4.3-1.9-7.3-1.7z"/><path d="m60.6 50.2c-.9-.1-1.5.1-1.3.7.2 1.2 5.2 2.2 5.7 1.5s-2.5-2-4.4-2.2z" opacity=".7"/><path d="m40.2 42.9c-1.4.1-2.3.4-2 1.1.6 1.3 8.6 1.3 9.2.4.7-.9-4.3-1.7-7.2-1.5z"/><path d="m32.3 51.2c-.8-.1-1.4.1-1.3.6.3 1.1 5.1 1.9 5.6 1.3s-2.5-1.8-4.3-1.9z" opacity=".7"/></g></g></svg>