<svg enable-background="new 0 0 96 96" viewBox="0 0 96 96" xmlns="http://www.w3.org/2000/svg" xmlns:xlink="http://www.w3.org/1999/xlink"><clipPath id="a"><circle cx="48" cy="48" r="48"/></clipPath><path clip-path="url(#a)" d="m0 0h96v96h-96z" fill="#fff"/><g clip-path="url(#a)"><g fill="#ebebeb"><path d="m35 78.5s-4 1.9-5.9 3c-3 1.7-4.4 2.5-4.4 5.8 0 3.1-.2 6-.5 8.6h10.7c.8-4.2 1.2-7.6 1.2-7.6z"/><path d="m64.8 81.6c-1.9-1.1-5.9-3-5.9-3l-1.1 9.8s.5 3.4 1.2 7.6h10.7c-.3-2.6-.5-5.5-.5-8.6 0-3.4-1.5-4.2-4.4-5.8z"/><path d="m58.1 79c-2.7-6.7-17.3-4.7-21.1-1.5-3.9 3.2-4.9 7.1.9 12.8 3.3 3.3 6.1 4.9 7.9 5.7h2.7c2.5-2.7 11.5-12.3 9.6-17z"/></g><path d="m49.1 86.6 1.3-2.7s-1-2.2-3.8-1.7c-2.5.5-2.9 2.7-2.9 2.7l2.1 2.1-2.3 7.7.6 1.3h7.3l.6-1.6z" fill="#379bdb"/><path d="m65.1 81.5c-1-1-6.6-4.2-8.3-5 .2.4.8 1.3.8 1.8-.8 8.5-9.8 17.4-9.8 17.4s-13.3-11.7-11-17.5c.2-.5.4-.9.7-1.3-3.1 1.3-8.7 4-9.2 5-.4.9 2.9 7.6 4 14.1v.1h29.2c.7-4.8 4.3-13.9 3.6-14.6z" fill="#313142"/><path d="m52 78.5c-3-1.6-15.2-2-13.8 2.4s4.9 6.5 4.9 6.5l4.1-3.9 4.3 3.7c4.1-3.7 5.3-7.3 5.3-7.3s-1.8.2-4.8-1.4z" opacity=".1"/><path d="m37.5 76.9c-2 5.2 5.3 9.4 5.3 9.4l4.4-2.7 4.1 2.6s8.1-4.2 5-10.2c-2.8-5.6-16.5-5.1-18.8.9z" fill="#fbfbfb"/><path d="m44 69.7c-2.6.6-4.3 3.1-4.5 5.6-.1 2 .2 3.1 1.3 4.2.8.8 2.1 1.6 3.4 2 1 .3 2.6 1.4 2.9 1.4.1 0 .7-.5 1.6-1 1.3-.7 3.2-1.6 3.9-3 1.1-2.1 2-6.3 0-7.9s-6.1-1.9-8.6-1.3z" fill="#ed9d6c"/><path d="m68.4 32.9c1.4-12.6-8.8-21.8-26.6-20.2-31 2.7-25.5 46-16.6 44.1 6.5-1.4 13-3.4 19.4-5.1 6-1.6 12.7-.5 18.9-.1 4.8.3 4.7-1.8 4.9-5.7.5-7.3-.4-10 0-13z" fill="#4f2c1e"/><path d="m43 21.9c-11.4 2.3-19.3 18.9-17.1 34.4 1.7 11.6 10.7 24.2 24.1 23.1 13.6-1.1 20.3-18.2 18.4-32.4-2.1-15.5-9.5-28.3-25.4-25.1z" fill="#ffb97f"/><path d="m21.9 49.9c-5.6 1.6-3.3 9.8 1.3 11.4 1.5.5 3 .6 4.5.5 0 0 .1-.1.1-.1.7-1.1-.6-6.5-.9-7.7-.9-2.9-2.4-4.9-5-4.1z" fill="#ffb97f"/><path d="m62.5 26.3c-5.8-3.3-11.9-4.1-18.7-4.1-4.6 0-11.4-.2-15 3.1-2.9 2.7-3.1 7.7-3.2 11.5-.1 1.4.1 12.2.9 9.8 1.4-4.2 4.8-5.9 4.7-10.3 6.6 2.9 16.5 2.5 25.1 1.6 5.4-.6 9.7-2 10.9 2.5-.7-3.4-3.8-13.6-4.7-14.1z" fill="#bf3c1b" opacity=".3"/><path d="m23.9 52.9c-1.3-.6-4.4.5-2.9 3 .8-2.3 2.2-.8 2 .8-.1 1.1-1.3 1.1-.1 2.5.6.8 1.9.5 2.5 0 2-1.3 0-5.6-1.5-6.3z" fill="#b54319" opacity=".35"/><path d="m73.7 15.4c-7.2 6-19.3-6.8-35.8-1.6-22.6 7.1-13.8 31.2-13.7 34.1.1 2.5 1.6 5.6 2.4 6.6.6.3 2 .3 3.1 0-2.1-1.9-2.9-7.1-1.4-12 .9-2.7 2.2-4.7 1.9-8.3 2 1.8 16.3 4.3 34.1.3 5.8-1.3 9.2-4.9 10.9-7.7-1.5.1-2.6.3-4.4.6 2.7-2.7 2.9-8.1 2.9-12z" fill="#4f2c1e"/><path d="m54.9 15c-8.2-2.2-20.6-2.2-26.9 4.5-6.3 6.8-.7 12.5 21 11.9 19.9-.4 23.8-14.6 23.8-14.6-5.9 2.9-9.7.4-17.9-1.8z" fill="#693a27"/><path d="m23.1 49.7c2 .1 2.3 3.9 3.7 4.9.6.2 1.9.2 2.9-.2-1.5-2.2-1.9-7.7-2-9.3-1 2.4-6.4 4.5-4.6 4.6z" fill="#4f2c1e"/><path d="m34 50.3c.1.9 2.2.4 2.8.6-.5.6-2.2.6-2.8 1-.7.4-.6.7.2.7.5 0 3.4-.7 3.7-1 1.5-1.4-3.2-1.5-3.9-1.3z" fill="#b54319" opacity=".5"/><path d="m66.4 50.6c-.5-.4-1.9-.4-2.3-1 .5-.1 2.3.3 2.4-.6-.6-.2-4.5-.1-3.4 1.2.3.3 2.6 1 3 1 .7.1.8-.2.3-.6z" fill="#b54319" opacity=".5"/><path d="m39.6 46.2c-3-1.2-4.8 4-2.7 5.7.9-.3 2-.2 2.9.2 1.9-1 2-4.9-.2-5.9z" fill="#121b21"/><path d="m51.7 54.7c-1.5.1-2.1-.5-3.1.1s.5 2.7 3.1 2.5 3.7-2.2 3.2-2.8c-.8-.6-1.6.2-3.2.2z" fill="#b54319" opacity=".35"/><path d="m50.6 46.4c-1.3.1-1.5 3.6-1.9 5.2-.4 1.7-.7 3.2 0 3.7 1.7 1.2 5.1.4 6.1-.6.4-.4-.6-2-1.4-3.7-.6-1.5-1.3-4.7-2.8-4.6z" fill="#ffcb9e"/><path d="m63.3 45.8c-3-1.6-5.3 4.9-2 5.6.7-.6 1.7-.9 2.5-.8 1.1-1.3 1.1-4-.5-4.8z" fill="#121b21"/><path d="m38.8 47c-1.2.4-.3 2.7.9 1.9.8-.6.1-2.3-.9-1.9z" fill="#7d8ba8"/><path d="m62.5 46.6c-1.1.3-.4 2.5.7 1.8.8-.5.3-2-.7-1.8z" fill="#7d8ba8"/><path d="m61.3 40.5c-2.2-.2-3.8-.6-3.8-.5-.1 1.2.2 3.8 1.8 3.8 1 0 2-.2 3-.1 1.7.1 3 .7 3.6.9.7.3 1-.8.7-1.1-.9-1.2-2.2-2.7-5.3-3z" fill="#4f2c1e"/><path d="m39 40.9c-3.3.8-4.4 2.4-5.3 3.8-.2.4.3 1.4 1 1 .6-.3 1.9-1 3.7-1.4 1.1-.2 2.2-.2 3.3-.3 1.8-.2 1.7-2.8 1.3-4 0-.2-1.7.3-4 .9z" fill="#4f2c1e"/><path d="m66.6 54.3c-1.1-1.4-3-1.4-4.4-1.1-1.8.3-4 1.5-2.1 4.2 1 1.5 8.2 1.5 7-2.1-.1-.4-.2-.7-.5-1z" fill="#ffcb9e"/><path d="m40.2 54.8c-1.2-1.4-3.2-1.3-4.6-1-1.9.4-4.2 1.7-2.1 4.5 1.1 1.5 8.7 1.2 7.2-2.5-.1-.4-.3-.7-.5-1z" fill="#ffcb9e"/><path d="m61.5 62.2c-.5-.4-1.1-.3-1.5 0-.4.4-9 8.8-21.3.2-.5-.3-1.2-.3-1.5.1-.4.4-.2 1 .2 1.4 3.1 2.1 5.9 3.3 8.5 3.8 3.6.8 6.6.3 8.9-.4 4.2-1.3 6.7-3.8 6.8-3.9.4-.2.3-.8-.1-1.2z" fill="#c20902" opacity=".5"/></g></svg>