<svg enable-background="new 0 0 96 96" viewBox="0 0 96 96" xmlns="http://www.w3.org/2000/svg" xmlns:xlink="http://www.w3.org/1999/xlink"><clipPath id="a"><circle cx="48" cy="48" r="48"/></clipPath><path clip-path="url(#a)" d="m0 0h96v96h-96z" fill="#e9efef"/><g clip-path="url(#a)"><path d="m31.1 76.5c-4.2 2.3-7.3 9-8 19.5h10c.3-5.5.8-11.5 2.1-12.9z" fill="#1e1e29"/><path d="m64 76.5-4 6.7c1.2 1.4 1.8 7.4 2.1 12.9h10c-.8-10.7-3.9-17.3-8.1-19.6z" fill="#1e1e29"/><path d="m58.8 74.6c-7.1-3.6-17.4-2.4-22.1.5-6.4 4-5 10.6-3.3 20.9h28.3c1.9-9.7 3.4-18.2-2.9-21.4z" fill="#e8e8e8"/><path d="m47 67.9c-11.2 0-11.6 15.9.5 15.9 11.3 0 15-15.9-.5-15.9z" fill="#f5f5f5"/><path d="m51.1 66.5c-2.5-.6-6.5-.3-8.5 1.6-7.2 6.8-.2 13.4 5.4 13.4s7.8-4.8 7.6-8.6c-.2-2.9-1.9-5.8-4.5-6.4z" fill="#f5ab76"/><path d="m65.4 77.7c-.6-1.5-6.9-3.7-6.9-3.7-4.2 7-5.7 15.1-6.1 22h9.8c1.3-11 3.7-17 3.2-18.3z" fill="#1e1e29"/><path d="m29.7 77.7c.6-1.5 6.9-3.7 6.9-3.7 4.2 7 5.7 15.1 6.1 22h-9.8c-1.3-11-3.8-17-3.2-18.3z" fill="#1e1e29"/><path d="m58.7 73.6c2.5.9 4.8 5.4 4.6 6.2s-5.8 4.8-9.8 7.6c1.5-8.1 5.2-13.8 5.2-13.8z" fill="#3a3a4a"/><path d="m36.4 73.6c-2.5.9-4.8 5.4-4.6 6.2s5.8 4.8 9.8 7.6c-1.6-8.1-5.2-13.8-5.2-13.8z" fill="#3a3a4a"/><path d="m70.7 25.2c-2.5-2.1-5.3-3.6-7.3-3.8-.6-2.6-1.3-5.4-2.5-7.6-1.1 1.6-1.8 3.6-3.3 4.9-.6-2.1-4.1-5.6-6.2-6.3-.1 1.9-1.1 3.7-2.7 4.8-1.6-1.3-5.9-4-7.9-4.8 2.3 5.6-5.3 1.7-8 2.8.4 1 2.1 2.5 2.1 3.4-6.2-1.2-13 3.9-15.5 9.7 1.4-.8 3.1-1.1 4.7-1-3.3-.1-5.5 6.9-6.2 9.4-1.8 6-1.2 12.2-.1 18.3.9 5.1 1.1 7.5-1.8 11.8 1.9 0 3.8.1 5.6-.6.1 3.3-.2 6.2-1.8 8.9 3.2 0 4.5-.8 7.2-1.9.3 1.2.1 3.9.7 5 1.7-1 3.5-3 4.9-4.2.4.8 1 1.6 1.4 2.2 2.5-4.6 4.2-10.1 9.2-13 3.7-2.1 7.4-2 11.2 0 5.4 2.8 5.3 9.3 11.2 12 .4-1.6.6-3.4.5-5.2 1.6 1.7 3.6 3.3 5.7 4-.1-3.4 0-6-1.4-9.2-.1-.1-.1-.1 0 0 1.3.4 2.7 1 4.1 1.3-1.2-3.3-3.4-5.9-3.2-9.7.1-1.1 1.8-4.8 3-8.4 1.2-3.8 1.9-7.4-.7-7.7 1.1.1 2.3.5 3.1 1.3-.5-6.5-.9-12.1-6-16.4z" fill="#3d2216"/><path d="m70.3 64.8c-.1-.1-.1-.1 0 0z" fill="#3d2216"/><path d="m43.8 23.3c-10.7 2.1-18.2 17.5-16.2 32 1.5 10.8 9.8 22.7 22.3 21.8 12.8-.8 19.2-16.8 17.5-30.1-1.8-14.5-8.6-26.6-23.6-23.7z" fill="#ffbc82"/><path d="m57.6 25.6c-4.2-1.3-8.6-2-13-2-3.9-.1-8.1-.3-11.8 1.4-2 .9-4.5 2.2-5.2 4.4-.9 2.8-.5 6.2 0 9.1.5 3.1 1.2 6.3 2.9 9 .1-2.1 1.1-4.3 2.4-6 1.1-1.3 2.6-3.7 4.4-4-.5 2.9-2.4 5.7-4.3 8 1.7.2 3.8-1.2 5.4-1.8 1.3-.5 2.4-1.2 3.7-1.9 0 1-.8 1.9-1 2.9 4.6-.9 7.9-2.6 11.7-5 2.2-1.4 6.2-3.3 8.7-1.6 1.2.8 1.4 2.4 2.8 2.9.5-.8.7-1.8 1.3-2.5 1.1 1.1 2.2-1.5 2.4-2.2 2.1-7.2-5.5-9.2-10.4-10.7z" fill="#bf3c1b" opacity=".3"/><path d="m23.8 49.3c-5.2 1.5-3.1 9.1 1.1 10.7 1.4.5 2.8.6 4.2.5 0 0 .1-.1.1-.1.6-1-.2-6.6-.6-7.7-.7-2.7-2.2-4.1-4.8-3.4z" fill="#ffbc82"/><path d="m25.7 52.1c-1.2-.5-4.1.4-2.7 2.8.7-2.1 2-.7 1.8.8-.1 1-1.2 1-.1 2.4.6.7 1.8.4 2.4.1 1.8-1.3 0-5.4-1.4-6.1z" fill="#b54d26" opacity=".4"/><path d="m66.2 26.9c-2.3-1.6-3.5-4-6.2-5.4-2.3-1.1-5-2.1-7.5-2.6-3.6-.7-7.4-.8-11-.3-6 .7-13.4 3.6-15.3 10-1.2 4-.6 8.5-.3 12.6.1 1.6-.2 7.4 1.1 8.6.8.7 1 1.9 1.6 2.8.6 1 1.4 2 2.4 2.6-.1-1.2-.6-2.3-.7-3.5.5.4 1.1 1.1 1.8 1-1.2-3.7-1.9-6.8-1-10.8.6-2.6 2.5-4.7 4.5-6.3.7-.5 2.3-1.9 3.2-1.2s.1 2.7-.2 3.5c-1 2.5-2.7 5-5 6.4 2 .1 4.4-1.3 6.1-2.3 1.4-.8 3.7-2.5 4.5-3.8-.3 1.6-1.4 3.8-2.6 4.9 1 .1 2.7-.8 3.7-1.1 1.7-.6 3-1.5 4.4-2.5.9-.6 1.7-1.2 2.6-1.7 1.4-.9 3.1-1.3 4.7-1.9 1.5-.6 3.5-1.4 4.9-.3.4.3 2.5 3.7 1.9 3.9.9-.3 1.8-.8 2.6-1.3 1.7-1 3.3-2.1 3.6-4.1.3-1.5-.1-3-.8-4.2-.8-1.1-1.8-2.2-3-3z" fill="#3d2216"/><path d="m65.5 52.2c-1.1-1-2.9-.7-4.2-.4-1.6.4-3.6 1.6-1.6 3.5 1.1 1 7.8.2 6.3-2.4-.1-.3-.3-.5-.5-.7z" fill="#fa9769"/><path d="m41.3 53.4c-.9-1.3-2.8-1.5-4.1-1.5-1.8 0-4.1.7-2.5 3.2.8 1.3 7.9 2.3 7-.8-.1-.4-.2-.7-.4-.9z" fill="#fa9769"/><path d="m40 46.4c-3.1-.9-5 2.9-2.9 4.2 1-.2 2.2-.1 3.1.2 2-.8 2.1-3.7-.2-4.4z" fill="#4f4f4f"/><path d="m65.7 41.7c-1.5-.9-3.6-1.9-5.4-1.3-.8.3-1.4.7-2 1.1-.8.5-1.7.8-2.8.2.1 4.7 4.1 2.4 7 2.2 1.5-.1 3.7.7 5-.1 0-1-1-1.6-1.8-2.1z" fill="#3d2216"/><path d="m41.8 41.8c-.6-.4-1.3-.8-2-1.1-1.8-.6-3.8.4-5.3 1.4-.8.5-1.7 1.1-1.8 2.1 1.4.8 3.5 0 5 .1 2.9.1 7 2.4 7-2.3-1.2.6-2 .3-2.9-.2z" fill="#3d2216"/><path d="m51.3 55c-1.6 0-2.2-.7-3.4 0-1.1.7.5 2.8 3.3 2.7s4.1-2.1 3.5-2.8c-.7-.8-1.6.1-3.4.1z" fill="#b54d26" opacity=".4"/><path d="m50.9 49c-3-.3-3.3 6.2-2.6 6.7 1.7 1.3 5.2.4 6.3-.7.4-.4-.8-5.8-3.7-6z" fill="#ffd4ad"/><path d="m63.3 46.2c-3.2-1.4-5.6 3-3 4.2.9-.4 2.6-.3 3.4 0 1.3-1 1.3-3.5-.4-4.2z" fill="#4f4f4f"/><path d="m38.9 47.1c-1.3.3-.3 2 .9 1.4.9-.5.2-1.7-.9-1.4z" fill="#edf0ef" opacity=".7"/><path d="m62 46.7c-1.3.2-.7 1.9.6 1.4 1-.3.5-1.6-.6-1.4z" fill="#edf0ef" opacity=".7"/><path d="m60.9 57.4c-.5.1.4.3 1.6.5.2 0 .4.1.5.3-5.6 2.1-18 3.5-25.7 1.3.1-.1.1-.1.2-.2 1.1-.7 2.7-.8 2.3-1 0 0-2.7 0-3.8.7-.9.6-.8 2.5-.1 2.6.6.1.6-1 1.1-1.7.6 2.1 3.7 10.1 13 10 7-.1 9.1-2.5 9.2-5.9.1-1.9 2.4-4.3 3.8-5.5.1.6-.2 1.4.3 1.5.8.1 1.5-1.2.9-2.2-.4-1.1-3.3-.4-3.3-.4z" fill="#b5300f" opacity=".35"/><path d="m38.8 60.9s3.3 8.4 11.6 7.9c7.4-.5 8.2-3.4 8.5-5.5.3-2.7 2.3-3.9 2.3-3.9-12.6 3.9-22.4 1.5-22.4 1.5z" fill="#8f2a25"/><path d="m41.6 61.6s.2 2.8 2.8 3.7c3.3 1.2 7 1.3 10.7.1 2.5-.8 3.8-5 3.8-5s-7.1 1.7-17.3 1.2z" fill="#fff7ea"/><path d="m52.1 65.6c-3.5.2-6.6-.2-8.3-.8-1.4-.5-1.4.3-1.1 1 0 0 .6 2.8 7 3.1 5.7.2 8-3.4 7.3-4.2-.6-.7-1.4.7-4.9.9z" fill="#fff7ea"/><path d="m41.5 61.6s.1.8.3 1.2c0 0 13.3-1.8 16.3-.8 0 0 .5-.9.6-1.6.1.1-9.3 1.8-17.2 1.2z" fill="#ecdcc4"/><path d="m44.6 64.8c5.7 2.5 11.7-.2 11.7-.2-6.9 1.6-11.7.2-11.7.2z" fill="#ecdcc4"/><path d="m68.5 25.7c-.8-.6-7.4-3.9-7.7-2.2.2-1.5-.4-3-.6-4.4-1.1.2-2 2.4-2.9 3.1-.5-1.6-2.3-5.1-4-5.5-.3 1.5-1.9 3.9-3.1 4.9-1.2-.7-2-2.5-3.1-3.4-1-.8-2.3-1.6-3.6-2 .2.9.2 1.9.1 2.8-1.7-1.4-4.7-1.9-6.8-1.9.4.9.7 1.8.7 2.8 0 0-4.4.7-4.8.8-1.6.2-2.9.7-4.4 1.3-1.7.7-3.4 1.5-4.7 2.8 1.9-.2 3.2-.1 4.9.4-1.1 1.5-2.4 2.6-3.4 4.3-.8 1.5-1.3 3.1-1.9 4.7 1.9-1.4 4-2.6 6.1-3.8-.3 1.6-1.2 3.5-.8 5.1 1.8-.7 4.1-2 5.7-3.1.7-.5 1.1-1.2 1.2-2.1 0-.5-.4-2.8-1-2.9 4.4.4 9.3 6.1 7.4 10.7 1-1.4 2.3-2.6 2.9-4.2.7-1.9-.2-3.8-.8-5.6 1.6 1.8 3 3.3 3.7 5.7.7-.8 1.4-1.8 2-2.7.4-.7.5-1.5 1.3-1.9.5 1.7.4 3.8-.3 5.5-.4 1-1.2 1.8-1.8 2.7 2.2-.7 4.4-1.7 6.5-2.7 3.4-1.6 5.3-4.4 5.2-8.3.4 1.1 1.8 2.1 2.4 3.2 1.1 1.9 1.7 3.9 2.2 6 .8-1.3 1.1-2.8 1.4-4.3 1.9 1.5 4.7 2.7 6.9 3.9-.3-1.6-1.6-3-2.5-4.4 1-.1 1.8.4 2.8.4-1.7-1.9-3.2-4.2-5.2-5.7z" fill="#593424"/></g></svg>