<svg enable-background="new 0 0 96 96" viewBox="0 0 96 96" xmlns="http://www.w3.org/2000/svg" xmlns:xlink="http://www.w3.org/1999/xlink"><clipPath id="a"><circle cx="48" cy="48" r="48"/></clipPath><linearGradient id="b" gradientUnits="userSpaceOnUse" x1="48.6607" x2="48.6607" y1="71.2829" y2="77.5013"><stop offset="0" stop-color="#eea17a"/><stop offset="1" stop-color="#ffcca6"/></linearGradient><path clip-path="url(#a)" d="m0 0h96v96h-96z" fill="#86b7e2"/><g clip-path="url(#a)"><path d="m37.2 84.7c-.4 1.8-2.1 8.7-3 11.3h5.1c.7-2.3 2.3-8.8 2.6-10.3.5-2.3 1.1-4.6 2-5.1l-2.2-4.1c-3 1.5-3.7 4.7-4.5 8.2z" fill="#6f6e82"/><path d="m55.6 76.5-2.2 4.1c.9.5 1.5 2.8 2 5.1.3 1.4 1.9 7.9 2.6 10.3h5.1c-1-2.5-2.6-9.4-3-11.3-.8-3.5-1.5-6.7-4.5-8.2z" fill="#6f6e82"/><path d="m54.2 74.6c-.3 0-.6.3-.6.6s.3.6.6.6.6-.3.6-.6-.2-.6-.6-.6z" fill="#fff9f0"/><path d="m43.1 74.7c-.3 0-.6.3-.6.6s.3.6.6.6.6-.3.6-.6-.3-.6-.6-.6z" fill="#fff9f0"/><path d="m41.7 76.5c-1.1 1-1.9 2.4-2.2 3.8-1.5 3.9-.1 5.7.8 9 .5 2 .6 4.2.4 6.7h16.5c-.3-2.4-.1-4.9 1.2-8.1 1.5-3.7 1.6-4.6.7-6.7-3.9-9.2-14-7.8-17.4-4.7z" fill="#6f6e82"/><path d="m48.8 88.7c-.4 0-.7.3-.7.7s.3.7.7.7.7-.3.7-.7c.1-.4-.3-.7-.7-.7z" fill="#fff"/><path d="m48.9 93.2c-.4 0-.7.3-.7.7s.3.7.7.7.7-.3.7-.7c.1-.3-.3-.7-.7-.7z" fill="#fff"/><path d="m54.1 75.4c-2.7-1.5.2-8.5-1.9-10.2-1.6-1.3-4.3-1.4-6.1-.7-3.7 1.5 0 10-3.6 11.5-.7.3-.9 1.1.5 3.4 1.7 2.8 2.8 4.1 6.1 5.6 2.6-1.2 5.3-3.7 6-6.1.6-2-.3-3.1-1-3.5z" fill="url(#b)"/><path d="m49.1 84.9c-.8 0-7.7-1.9-7.7-1.9l.6 6.4s6.5-4.2 7.1-4.2c.7 0 7.3 4 7.3 4l-.1-6.6c0 .1-6.1 2.3-7.2 2.3z" fill="#3a3a4a" opacity=".5"/><path d="m54.4 75.2s1.2 2.8-.4 5.3c-1.3 2-5 4.4-5 4.4l6.8 2.9c.1.1 1.6-10.5-1.4-12.6z" fill="#f5f5f5"/><path d="m44.3 81.1c-2.2-3.2-1.6-5.4-1.6-5.4-3.3 2.3-.4 12.1-.4 12.1l6.8-2.9s-3.2-1.4-4.8-3.8z" fill="#f5f5f5"/><g fill="#fff9f0"><path d="m54.6 75.1c-.3 0-.6.3-.6.6s.3.6.6.6.6-.3.6-.6-.2-.6-.6-.6z"/><path d="m42.6 75.4c-.3 0-.6.3-.6.6s.3.6.6.6.6-.3.6-.6-.3-.6-.6-.6z"/><path d="m43.8 76.5c-.4 0-.7.4-.7.8s.4.7.8.7.7-.4.7-.8-.4-.7-.8-.7z"/><path d="m45.5 77.6c-.4 0-.7.4-.7.8s.4.7.8.7.7-.4.7-.8-.4-.7-.8-.7z"/><path d="m47.7 78.3c-.4 0-.7.4-.7.8s.4.7.8.7.7-.4.7-.8-.4-.7-.8-.7z"/><path d="m49.9 78.4c-.4 0-.7.4-.7.8s.4.7.8.7.7-.4.7-.8c-.1-.4-.4-.7-.8-.7z"/><path d="m53.7 76.2c-.4 0-.7.4-.7.8s.4.7.8.7.7-.4.7-.8-.4-.7-.8-.7z"/><path d="m52 77.6c-.4 0-.7.4-.7.8s.4.7.8.7.7-.4.7-.8c0-.5-.4-.8-.8-.7z"/></g><path d="m51 88.2c-.4 0-.4 4.1.1 4.2s6.1 0 6.4-.1.4-3.8 0-4.1c-.3-.2-6.5 0-6.5 0z" fill="#f06799"/><path d="m57 88.9c-.3-.1-5.6 0-5.6 0-.3 0-.3 1.6.1 1.6h5.5c.3-.1.3-1.5 0-1.6z" fill="#f5f5f5"/><path d="m27.5 45.6c-2.6-.3-4.8 1.7-4 7.8s6.4 5.4 6.4 5.4.2-12.9-2.4-13.2z" fill="#d9af96" opacity=".5"/><path d="m51 13.7c-43.6 3.5-47.3 61.5-13.7 53.1 6.2-1.5 2.5-7.7 12.3-8.4 6.1-.4 8.2 7.2 10.7 7.9 27.7 7.8 24.2-45-9.3-52.6z" fill="#4f2619"/><path d="m63.8 56.7c-2.1.2-3.7 2.3-3.5 4.8s2.2 4.3 4.3 4.2c2.1-.2 3.7-2.3 3.5-4.8s-2.1-4.4-4.3-4.2zm.7 7.4c-1.6.1-3-1.2-3.1-3-.2-1.8 1-3.4 2.5-3.5 1.6-.1 3 1.2 3.1 3 .2 1.8-.9 3.4-2.5 3.5z" fill="#fff9f0"/><path d="m47.3 25c-14.7.5-19.6 10.2-19.2 24.8s10.8 24.2 21.7 24.9c8.4.5 18.9-12.6 18-27.2-.8-14.3-6.3-22.9-20.5-22.5z" fill="#ffcb9e"/><path d="m61 25.1c-3-1.9-6.8-1.8-10.1-1.1-2.1.4-4.3 1.1-6.3 2-6 2.6-12 6.9-15.4 12.8-.7 1.3-3 5.3-1.6 6.7.9.9.5 2.8 1.3 2 5.5-5.3 15.2-3.7 22-10.1 2.2-2 4.5-5.6 5.8-7.7-.5 2.6 9.1 9.1 10.6 13.3 1.2 3.4 1.1-3 1.2-4.7.3-5.6-3-10.4-7.5-13.2z" fill="#bf3c1b" opacity=".2"/><path d="m37.2 45.4c-3-1.1-4.6 4.5-2.5 6.1.9-.3 2-.3 2.9.1 2-1.2 1.8-5.4-.4-6.2z" fill="#2f2120"/><path d="m36.8 38.6c-1.3.2-2.7 1.1-3.4 3 3.7-3.1 6.2-1.3 7.5-.8-.8-1.4-2.3-2.6-4.1-2.2z" fill="#7d4732"/><path d="m37.8 47.9c-1.3.2-.8 2.8.5 2.1.9-.5.6-2.3-.5-2.1z" fill="#b08a72"/><path d="m64 25.8c-3.1-3.6-7.6-5.5-12-7.1-3.2-1.2-6.6-1.6-10-.9-8.6 1.7-13.9 10-15.3 18.1-.4 2.6-2.8 11.6.6 15.9.8-4.6 2-7.2 12.3-10.2 11-3.2 16-11.1 17.5-13.5.3 6.4 10.6 8.8 10.6 18.1.1-2.3 1.6-6.3 1.2-8.7-.6-4.2-2.1-8.5-4.9-11.7z" fill="#4f2619"/><path d="m65.6 54.4c-.6-1.1-2.1-1.4-3.2-1.5-1.4-.1-3.3.3-2.3 2.5.5 1.2 6.1 2.3 5.7-.3 0-.3-.1-.5-.2-.7z" fill="#ffb696"/><path d="m38.5 54.2c-.8-1.1-2.5-1.2-3.7-1-1.6.2-3.6 1.1-2.1 3.4.8 1.2 7.1 1.3 6.2-1.7-.1-.2-.2-.5-.4-.7z" fill="#ffb696"/><path d="m50 59c-4.1.1-10.2 1.3-13.4-.7 5.3 9.1 8.6 10.8 12.8 11.2 5.3.4 7.2-3.3 8-6.1.4-1.2 3.1-4.2 4.1-4.8-3.3.8-6.6.3-11.5.4z" fill="#e65050" opacity=".7"/><path d="m39 60s3.2 6.1 9.8 6.4c4.2.1 7-1.2 7.8-3.3.9-2.2 2.7-3 2.7-3-11.5 2.7-20.3-.1-20.3-.1z" fill="#8f3935"/><path d="m41.5 60.6s.2 1.8 2.5 2.6c3 1 6.2 1.1 9.6.6 2.3-.3 3.4-3.2 3.4-3.2s-6.5 1.4-15.5 0z" fill="#fff9f0"/><path d="m50.5 63.9c-3 .1-5.5-.2-7-1.2-1.1-.7-1.2 0-1 .5 0 0 .9 2.5 5.9 3.2 4.8.6 7.3-2.4 6.8-2.9s-1.9.3-4.7.4z" fill="#fff9f0"/><path d="m41.5 60.6s.2.9.6 1.3c0 0 11.3-.8 14 .2 0 0 .8-1 .9-1.6 0 0-7.9 1.4-15.5.1z" fill="#e8dac5"/><path d="m44.4 63.1c4 2.6 8.9.5 8.9.5-5.2 1.2-8.9-.5-8.9-.5z" fill="#e8dac5"/><path d="m50.7 53.5c-.9 0-1.3-.4-2-.1s.8 1.7 1.9 1.6c1.3-.1 2.4-1.1 2.1-1.5-.4-.4-.9.1-2 0z" fill="#d14f2e" opacity=".3"/><path d="m63.9 45.4c-3-2-5.7 5.2-2.3 6.2.8-.6 1.8-.6 2.7-.4 1.1-1.5 1.2-4.7-.4-5.8z" fill="#2f2120"/><path d="m63.7 47.5c-1.2 0-1 2.7.3 2.2.9-.3.8-2.2-.3-2.2z" fill="#b08a72"/><path d="m64 45.3c-2.8-1.1-3.7 2.2-3.7 2.2s1.4-1.7 3.3-.6c4.3 2.4 7.1-.5 7.1-.5-3.5 1.1-5.2-.5-6.7-1.1z" fill="#121b21"/><path d="m35.1 45.5c-1.1.6-3.7 2.3-7.1 1.3 0 0 3.3 2.9 7.4.3 1.8-1.1 3.4.3 3.4.3s-.8-3.4-3.7-1.9z" fill="#121b21"/><path d="m62.8 19.6c-12.5 11.5-31.5 1.6-31.5 1.6-6 3.5-11.2 11.5-11.2 11.5.2-.4 4.6 1.2 5 1.3 2.2.9 4.3 2.1 6.5 2.9 2.4.9 5.5 1.6 8.2 1.7 5.4.1 12.9-4.9 17.8-12.1.2 2.5 1 4.1 2.2 5.5 5.9 6.7 13.8-.1 13.8-.1s-2.6-6.9-10.8-12.3z" fill="#784430"/><path d="m63.5 38.5c-1.8-.4-3.4.8-4.2 2.2 1.4-.5 3.9-2.3 7.5.9-.6-2-2-2.9-3.3-3.1z" fill="#784430"/><path d="m25.8 45.6c-3.9 1.8-2.3 9.9.9 11.4 1 .5 2.1.5 3.2.3 0 0 0-.1.1-.1.5-1.1-.4-6.5-.6-7.6-.8-2.9-1.8-4.9-3.6-4z" fill="#ffcb9e"/><path d="m27 48.3c-.8-.4-2.5.9-1.3 3.1.2-2.3 1.2-1 1.2.6.1 1.1-.6 1.2.2 2.4.5.7 1.2.3 1.5-.2 1-1.4-.6-5.4-1.6-5.9z" fill="#d14f2e" opacity=".3"/><path d="m28.5 57.5c-2.2 0-3.9 2.1-3.8 4.5 0 2.5 1.8 4.5 4 4.5s3.9-2 3.8-4.5-1.9-4.5-4-4.5zm.1 7.5c-1.6 0-2.9-1.4-2.9-3.2s1.2-3.3 2.8-3.3 2.9 1.4 2.9 3.2-1.2 3.3-2.8 3.3z" fill="#fff9f0"/></g></svg>