<svg enable-background="new 0 0 96 96" viewBox="0 0 96 96" xmlns="http://www.w3.org/2000/svg" xmlns:xlink="http://www.w3.org/1999/xlink"><clipPath id="a"><circle cx="48" cy="48" r="48"/></clipPath><linearGradient id="b" gradientUnits="userSpaceOnUse" x1="48.6663" x2="48.6663" y1="71.6722" y2="78.8516"><stop offset="0" stop-color="#c25421"/><stop offset="1" stop-color="#d47844"/></linearGradient><path clip-path="url(#a)" d="m0 0h96v96h-96z" fill="#8ca9b9"/><g clip-path="url(#a)"><path d="m40.7 82.1-2-4.1c-3.2 1.6-3.8 5-4.5 8.6-.6 3.1-1.2 6.5-3.5 9.4h5.4c1.5-2.9 2.1-5.9 2.6-8.5.5-3 .9-4.9 2-5.4z" fill="#d47844"/><path d="m57.5 78-2.1 4.1c1.1.6 1.5 2.4 2.1 5.4.5 2.6 1.1 5.6 2.6 8.5h5.4c-2.2-2.9-2.9-6.3-3.5-9.4-.7-3.6-1.4-7-4.5-8.6z" fill="#d47844"/><path d="m58.6 91.5c1.4-7.2 0-11.8-1.3-14.7-5.7-3.2-15.1-2-18.9.6-.9 3-1.4 8.2-.1 13.6.5 2.2.8 3.7.8 5h18.9c0-1.1.2-2.5.6-4.5z" fill="#ebebeb"/><path d="m49.3 87.5 2.3-2.3s-.6-2-3.2-2.1c-3-.2-3.7 2-3.7 2l2.4 2.4-3 5.6 2.2 2.9h3.7l2.5-3z" fill="#3a3a4a"/><path d="m40.4 80.4c1.1 4.2 4.9 6.7 4.9 6.7l2.7-3.4 3.6 3.4c2.4-1.4 4.8-4.9 4.8-7.7.1-2.1-17.1-3.2-16 1z" opacity=".1"/><path d="m40.5 75.3c-3 4.7 4.6 10.6 4.6 10.6l3-2.7 3.4 2.8s7-4.4 4.5-10.2c-2.3-5.3-12.5-5.2-15.5-.5z" fill="#fbfbfb"/><path d="m46.2 69.8c-1.9.6-3.1 3-3.3 5.5-.2 3.2 3.2 7.4 5.5 7.5 1.8 0 9.2-5.8 4-11.5-1.4-1.8-4.3-2.1-6.2-1.5z" fill="url(#b)"/><path d="m48.4 14.9c-7.9-9.4-25.1 1.6-31.7 7-8.4 7-19.5 22-8 21.7-2.5 3-3.6 9.1 1.1 10.2-1.9 3.2-.7 7 3.4 7.2-.5 3.8 2.5 6.2 6.2 5 1.2 3.7 5 4.3 7.6 2 2.4 9.4 15-5.3 23.5-5.5 7.7-.1 20.9 13.9 20.9 3.1 2.6 2 6.5 1.4 6.1-3.2 3.5 2.6 7.9-.8 6-4.3 4.2 1.2 4.5-3.5 2.9-6.7 4.4 1.1 4.5-4.6 1.2-6.5 7 0 2.9-7.1 1.1-11-5.1-10.6-28.3-32.9-40.3-19z" fill="#231e1a"/><path d="m67.5 53.8c-.9.1-1.5 1-1.4 2.1s.9 1.8 1.8 1.7 1.5-1 1.4-2.1-.9-1.8-1.8-1.7z" fill="#fff9f0"/><path d="m46.4 21.7c-11.4 1.2-20.1 11.5-18.9 27.4 1.2 16 11.6 25.7 23.2 25.8 8.9.1 19.3-14.8 17.6-30.7-1.7-15.7-10.4-23.8-21.9-22.5z" fill="#d47844"/><path d="m23.4 45c-5.1 2.4-2.4 11.3 1.9 12.5 1.4.4 2.8.3 4.2 0 0-.1 0-.1.1-.2.5-1.3-1-7.2-1.3-8.4-1-3-2.4-5.1-4.9-3.9z" fill="#d47844"/><path d="m26.5 48.1c-1.4-.7-5 .3-3.4 3.2.9-2.6 2.5-.8 2.2 1.1-.2 1.2-1.5 1.2-.2 2.8.7.9 2.1.6 2.9.2 2.2-1.4.2-6.5-1.5-7.3z" fill="#661004" opacity=".3"/><path d="m27.4 56.1c-.9 0-1.6.9-1.5 2 0 1.1.8 1.9 1.7 1.9s1.6-.9 1.5-2c0-1.1-.8-1.9-1.7-1.9z" fill="#fff9f0"/><path d="m60.4 22.4c-6.2-.4-12.8.2-18.8 1.8-9.5 2.6-16.7 13.3-15.6 23.2.3 3.3 1.7 12.5 5.4 7.9 2.2-2.7.9-9-.1-12 2.4 1.2 3.6-3.6 3.5-5.9 5.5 5 10.5-13.6 19.3-6.3 2.1 1.8 4.6 6.2 6.9 5.6s1.6-2.3 1.7-3.6c.7 1.9 3.1 3.7 4.4 3.1 2.4-1.2 1.3-7.2 1-9.2-.7-3.9-4.4-4.4-7.7-4.6z" fill="#661004" opacity=".2"/><path d="m62.4 20.4c-11.2-4.8-22.4-1.6-32.8 3.7-2.2 1.1-4.1 3-5.3 5.2-2.2 4.1 0 14.4 2.2 22.7 1.1 4.2 2.8 5.1 4.1 1.3.9-2.6-.4-8.5 0-13.3.2 1.4.7 3.1 2.2 2.6 1.4-.5 1.3-5.2 1.5-8.1 1.6 6.2 9.5-3.9 11.3-5.3 5-4 6.8-1.7 10.4 1.8 1.6 1.6 3.5 4.8 5.3 4 1.4-.6 1-3.2 1.1-4.6.7 2 2.2 3.7 4.1 4.8 1.7 1 3.4-2.9 1.4-8.2-1.1-2.8-2.8-5.4-5.5-6.6z" fill="#231e1a"/><path d="m51.8 20.7c-.1 0-.1 0 0 0-.1-.1-.1 0 0 0-.1 0 0 0 0 0z" fill="#423631"/><path d="m72 18.6c-3.4-2.4-7.7-4.7-11.9-5.2-2.1-.3-4.3 0-6 1.3-1.1.9-3.3 4.2-2.4 5.8 0 0 0 .1.1.1s0 0 0-.1c-10.2-16.7-30.2 0-38.8 9.3-2 2.1-7.3 6.8-4.5 8.8 2.7 2 13-9.5 17.3-12.6-2.1 1.8-10.2 9.9-8.4 13 2 3.5 7.7-4.1 9.6-6.1-1.3 2.1-2.5 7.1-.7 7.6s3.8-4.6 4.9-7.2c-.3 1.4-1.1 5.2.5 5.2s2-6.9 3.2-9.9c.3 7.7 7.3-1.6 9.2-3.1 4-3.1 5.5-3.3 9.7-.5 2.2 1.5 3.8 5.5 5.9 5.4s1.9-3.7 1.4-5.8c1.2 2.7 5.5 10.5 6.6 3.6 1.1 4.6 9.9 17.3 7.6 5.8.8 2.1 4.7 8.1 7.4 6.1 2.5-1.9-4.8-9.7-3.6-10.6 1 1.5 3.4 4.2 5.3 2.1 2-2.2-11.1-12.1-12.4-13z" fill="#423631"/><path d="m41.9 45.9c-3-1-4.4 4.4-2.2 5.9.9-.4 2-.4 2.9 0 1.9-1.2 1.6-5.1-.7-5.9z" fill="#1a1614"/><path d="m63.8 45.3c-3-1.6-5.5 4.7-2.1 5.5.8-.5 1.7-.5 2.6-.4 1-1.4 1.1-4.2-.5-5.1z" fill="#1a1614"/><path d="m63.6 41c-1.7-.1-5.3.4-7 .1.6 2.4 2 2.6 4.1 2.3 2.7-.3 6.8-.2 7.8.2-.8-1.9-3.4-2.5-4.9-2.6z" fill="#2b241e"/><path d="m39.2 41.7c-1.6.1-4.4.8-5.2 2.8 1-.4 5.6-.7 8.6-.5 2.4.2 3.9 0 4.4-2.5-2 .4-5.9 0-7.8.2z" fill="#2b241e"/><path d="m52.8 55.6c-1.1.1-1.6-.3-2.3.2s1.1 1.8 2.4 1.5c1.5-.3 2.6-1.6 2.1-2-.4-.4-1 .2-2.2.3z" fill="#661004" opacity=".3"/><path d="m33.6 47.5s3.2 3 6.9.3l-.5-1.6s-2.8 3.2-6.4 1.3z" fill="#1a1614"/><path d="m63.9 45.4-.4 1.4c3.8 2.6 6.2 0 6.2 0-2.9 1.3-5.8-1.4-5.8-1.4z" fill="#1a1614"/><path d="m40.6 46.8c-1.1.5 0 2.7 1 1.8.8-.6 0-2.2-1-1.8z" fill="#a88686"/><path d="m62.3 46c-1.1.3-.5 2.5.7 1.8.8-.5.3-2.1-.7-1.8z" fill="#a88686"/><path d="m63.2 53c-1.6.2-2.9 1.2-2.8 2.3s1.5 1.9 3.2 1.7c1.6-.2 2.9-1.2 2.8-2.3-.2-1.1-1.6-1.8-3.2-1.7z" fill="#d4502c"/><path d="m39.3 54.1c-1.8-.1-3.4.8-3.4 2-.1 1.2 1.3 2.3 3.1 2.4s3.4-.8 3.4-2c.1-1.2-1.3-2.3-3.1-2.4z" fill="#d4502c"/><path d="m38.5 60.2c1.5 2.7 4.8 1.2 3.3-1.5-.5 1.5-2.1 2.1-3.3 1.5z" fill="#66241b" opacity=".7"/><path d="m60.8 57.7c-.7 2.9 3 3.8 3.7.9-1.1.8-2.8.4-3.7-.9z" fill="#66241b" opacity=".7"/><path d="m62.4 59.1c-.4-.1-.9.1-1 .5-1.2 3.9-5.2 6.6-9.9 6.7-4.5.1-8.2-2.2-9.8-5.3-.2-.4-.7-.6-1.1-.4-.4.1-.6.6-.4.9 1.8 3.6 5.9 6.3 10.9 6.3h.4c5.4-.1 9.9-3.2 11.3-7.7.3-.4 0-.8-.4-1z" fill="#611f16"/><path d="m55.2 44.2c-1.5 1.6-.6 7 .4 8.7 1.1 1.7 11.7 1.7 14.2.8s4.5-7.2 2.6-9.6c-1.8-2.4-15-2.3-17.2.1zm14 8.4c-1.9.6-11.4.7-12.3-.5-.9-1.1-1.3-6-.3-7.1 1.6-1.6 12.7-1.6 14.4 0 1.6 1.6.1 7-1.8 7.6z" fill="#3a3a4a"/><path d="m29.4 45.2c-1.9 1.7.2 7.2 1.9 8.9s14 .7 16.4-.3c2.5-1 2.4-7 .2-9.4-2.2-2.3-15.7-1.7-18.5.8zm17.2 7.6c-1.8.7-12.5 1.4-13.9.4s-3.1-5.9-1.8-7c2-1.7 13.8-2.3 15.6-.8 1.8 1.4 2 6.7.1 7.4z" fill="#3a3a4a"/><path d="m49.3 47.6c-.3.1-1.3 1.5-.6 1.9.2.1 2.5-1.8 6.1-.6.5.2.9.1.7-.4-.6-2.1-4.6-1.7-6.2-.9z" fill="#3a3a4a"/><g fill="#fff"><path d="m63.2 44.3c-.7.2-5.6 1.1-4.7 3.2.6 1.3 12.1 2.1 12.8-.2 1.6-4.7-6.7-3.4-8.1-3z" opacity=".3"/><path d="m45.7 44.6c-1.9-.5-5.8-.1-8.1.3-.8.1-4.6.8-3.2 2.9 1.4 2.2 10.8 2.4 12.5.5 1.6-1.9-.1-3.4-1.2-3.7z" opacity=".3"/><path d="m64 44.6c-1.2.1-2.1.3-1.8.9.5 1.1 7.7 1.2 8.3.5.6-.8-3.8-1.5-6.5-1.4z"/><path d="m58.6 50.7c-.8-.1-1.3.1-1.2.5.2.9 4.6 1.7 5.1 1.2.4-.5-2.3-1.6-3.9-1.7z" opacity=".7"/><path d="m40.5 44.9c-1.2.1-2 .3-1.7.8.6 1 7.6 1 8.2.3.4-.7-3.9-1.3-6.5-1.1z"/><path d="m33.4 51.4c-.8-.1-1.3.1-1.2.5.2.8 4.6 1.5 5 1 .4-.4-2.2-1.4-3.8-1.5z" opacity=".7"/></g></g></svg>