<svg enable-background="new 0 0 96 96" viewBox="0 0 96 96" xmlns="http://www.w3.org/2000/svg" xmlns:xlink="http://www.w3.org/1999/xlink"><clipPath id="a"><circle cx="48" cy="48" r="48"/></clipPath><linearGradient id="b" gradientUnits="userSpaceOnUse" x1="48.2722" x2="48.2722" y1="75.3841" y2="80.5322"><stop offset="0" stop-color="#eea17a"/><stop offset=".003136933" stop-color="#eea17a"/><stop offset=".3647" stop-color="#f7b88e"/><stop offset=".705" stop-color="#fdc69a"/><stop offset="1" stop-color="#ffcb9e"/></linearGradient><path clip-path="url(#a)" d="m0 0h96v96h-96z" fill="#3e72a4"/><g clip-path="url(#a)"><path d="m17.7 71.8c-7.8 14.2 14.3 17.7 25.2 8.3 4.7-4 8.4 6.6 14.1 7.1 7.6.7 11.7-4.8 10.1-9.7 1.3 4.1 5.9 4.4 9.3 2.9 1.7-.7 5.4-3.4 5.1-8.7-1.4 1.7-4.3 2.2-6.3 1.3-2.8-1.3-3.7-4.1-2-6.6 2.1-3 8.1-6.9 2.3-10.1 1.3.7 2.6.7 3.9.1 4.8-2.2 2.8-12.5-2.7-9.2 3.7-.1.1 5.8-1.9 1.3-1.3-2.8 1.7-4.2 3.1-6 1.7-2.4 2.2-4.8 1.9-7.8-.7-7.6-7.6-12.4-11.6-18.3-4.4-6.5-10.6-10.6-18.6-7.7-2 .7-3.6 2.1-5 3.7-.4-1.2-1.3-2.6-2.5-3.5-.1 1.1-.2 2.3-.2 3.5-4.3-2.7-11.1-1.6-14.9.9-5.1 3.3-4.6 8.5-6.7 13.5-1.9 4.6-7.9 9.9-7.5 15.2.2 3.3 2.6 5 2.4 8.5-.1 2.9-3.2 4.4-1.8 7.2 1.3 2.7 7.2 1.8 4.3 6.6-2.7 4.4-8-.8-4.7-1.5-3.7-1.8-5.2 3-4.7 5.8.9 3.9 6.4 4 9.4 3.2z" fill="#381d18"/><path d="m63.1 96c-.2-1.1-.9-7.7-1.2-8.9l-4.5 1c.2 1.2.7 6.7.8 7.9z" fill="#ffc38f"/><path d="m55.2 89.8c-.6-2.6-1.4-3.6-1.6-3.6l.8-8.4c2.6.2 7.2 1.9 9 10.2z" fill="#ebebeb"/><path d="m34.4 96c.2-1.1.9-7.7 1.2-8.9l4.5 1c-.2 1.2-.7 6.7-.8 7.9z" fill="#ffc38f"/><path d="m42 89.8-8.2-1.8c1.8-8.3 6.4-10 9.1-10.2l.8 8.4c-.3 0-1.1.9-1.7 3.6z" fill="#ebebeb"/><path d="m56.2 96c.1-1.9.6-4.2 1.4-7.4 1.6-6 1.8-9.6-1.9-10.8-3.6-1.2-10.1-1.6-14 .1-3.1 1.3-4.1 3.5-2 10.1.9 2.9 1.7 5.7 1.8 8z" fill="#ebebeb"/><path d="m52.8 77.5c-.8-1.4-.1-3.5 0-5.9.3-5.3-8.8-5.5-8.7.3 0 2.6.2 4.5-.3 5.3-3.6 5.7 12.4 6.4 9 .3z" fill="url(#b)"/><path d="m41 87.4c.7 2 4.5 2.5 7.8 2.5 6.5-.1 8.9-2.1 7.8-4.5-.3-.6-1.7-1.1-3.4-.6-3.1.9-6.9.5-10-.2-1.8-.4-2.8 1.3-2.2 2.8z" fill="#fbfbfb" opacity=".7"/><path d="m71.4 44.1c-.6-16.7-12.9-23.8-25-22.3-12.2 1.5-21.8 11.3-20.2 28.2s12.9 27 25.1 26.9c9.4 0 20.7-15.4 20.1-32.8z" fill="#ffc38f"/><path d="m22.5 54.9c1.5.4 3.2.4 4.7.2 0 0 .1-.1.1-.2.7-1.2-.7-6.8-1.1-8-1-2.9-2.5-4.9-5.3-3.9-5.8 2.1-3.2 10.5 1.6 11.9z" fill="#ffc38f"/><path d="m30.5 41c-.1.5-.1.9-.1 1.4 0 2 1.8 5.2 1.4 7.2-.6 3.7-3.3 6.2.1 9.6-3.9 0-7-2.5-7.2-4.8-.6-5.6 2.4-4.1-.4-6.8-5.7-5.4-1-6-.6-9.3.4-3.5 3.5-6.6 5.3-9.5 2.6-4 7.2-5.8 11.7-6.9 6.4-1.5 13.3-1.7 19.8-1 3.1.3 6.4.3 8.1 3.4 1.4 2.5 2.9 7.2 1.9 9.9-.7 1.8-3 1.5-4.6 1.7-2.3.3-4.2 1.6-5.7 3.6-2.5 3.4-4 5.9-10 5.9-3.7 0-8.1-5.4-5.1-8.6-.9-.2-1.8.2-2.6.5-2.5 1-11.5 4.4-10.8-1.8-.4 1.9-1 3.6-1.2 5.5z" fill="#bc551e" opacity=".3"/><path d="m25.8 53.1c2.7-1.2.6-6-1.2-6.9-1.6-.7-5.6.1-4 2.8 1.2-2.4 2.8-.6 2.4 1.1-.3 1.1-1.7 1-.4 2.7.7.8 2.3.7 3.2.3z" fill="#d14f2e" opacity=".4"/><path d="m61.2 36c1.3-.7 2.8-.8 4.8-.9 3.8-.1 5.1-2.8 4.9-6.4-.5-9.8-9.8-14.8-18.4-15.6-2.5-.2-4.8-1-7.4-.9-4.2.1-8.3 1.6-12.1 3.5-5.6 3-9.1 9.7-10.8 15.7-.9 3.5-1.4 7.4-.7 11 .7 3.2 4.8 4.4 5 7.7.1 1.5-1.2 2.6-1.2 4 0 1.2.6 2.4 1.4 3.2.7.7 2.4.9 3.5 1.1-2.3-2.5-.1-4 .1-6.5.1-1.7-.2-5-.8-6.6-1.6-4.2-.6-9.1 3-11.9.4 4.5 5 4.4 8.3 3.7 1.5-.3 5.8-2 6.6.2.5 1.4-1.8 2.6-2.3 1 0 2.4.1 4.4 2.9 5 4.3.9 7.8-.6 10.1-4.3 1.1-1.5 2-2.4 3.1-3z" fill="#381d18"/><path d="m65.8 30.8c-1.6 2.1-4 3.8-7.1 5.2-1.3.6-2.3 1.4-3.4 2.2-1.6 1-4.5 2.2-6.4 1.3 2.2-1.4.8-4.5-1.3-5-2.6-.6-5.4 1.1-8.1.2-8.7-3 3.9-5.3 6.1-6.7 2.2-1.5 3-4 2.7-6.6-.1-.7-2.1-4.8-3.4-6.1 1.2-1.4 2.9-2.4 4.7-2.9 5-1.3 12.2 1.1 15.2 5.3 3.7 5.2 3.6 9.6 1 13.1z" fill="#593a2f"/><path d="m27 38.5c-.5 1.7-.1 4.2.8 5.8-2.5-.3-5.9-3.5-7.1-5.7-1.3-2.7.2-4.7 1.8-7 4.7-6.8 2.5-16.3 13.4-17.1 5.7-.4 7.8 4.4 4.8 9.1-3.6 5.7-11.8 7.9-13.7 14.9z" fill="#593a2f"/><path d="m67.7 54.2c.1.2.2.5.2.7.4 2.7-5.3 1.5-5.9.3-1.1-2.3.9-2.7 2.4-2.6 1.1.1 2.7.4 3.3 1.6z" fill="#ff7752"/><path d="m39.8 54c.2.2.3.5.4.8.9 3.1-5.6 3-6.4 1.7-1.5-2.4.6-3.3 2.2-3.6 1.2-.1 2.9-.1 3.8 1.1z" fill="#ff7752"/><path d="m70.1 42.1c-1.7-2.2-8.2-2.2-10.6.2 3.1.3 5.8-.6 10.6-.2z" fill="#261b18"/><path d="m54.7 55.1c.4.5-.8 1.7-2.4 1.8-1.3.1-3-1.4-2.2-1.8s1.2 0 2.3 0c1.2.1 1.8-.5 2.3 0z" fill="#d14f2e" opacity=".4"/><path d="m31.1 41.6c2.6-2.3 9.9-2.5 12.1.3-4.1.1-6.1-.1-12.1-.3z" fill="#261b18"/><path d="m51.6 58.9c-4.3.1-10.6 1.3-13.9-.6 5.5 9.4 8.9 11.2 13.3 11.5 5.5.4 7.4-3.4 8.3-6.3.4-1.2 3.2-4.3 4.3-5-3.5.8-6.9.3-12 .4z" fill="#f04d4d" opacity=".7"/><path d="m40.2 59.9s9.1 2.9 21 0c0 0-1.9.8-2.8 3.1-.8 2.1-3.7 3.6-8.1 3.4-6.8-.1-10.1-6.5-10.1-6.5z" fill="#8f3935"/><path d="m42.8 60.5s.2 1.9 2.6 2.7c3.1 1 6.4 1.1 9.9.6 2.3-.3 3.5-3.3 3.5-3.3s-6.7 1.5-16 0z" fill="#fff9f0"/><path d="m43.9 63.3c-.2-.5-.1-1.3 1-.5 1.5 1.1 4.1 1.3 7.3 1.2 2.9-.1 4.4-.9 4.9-.4.6.5-2.1 3.6-7 3-5.3-.7-6.2-3.3-6.2-3.3z" fill="#fff9f0"/><path d="m43.4 61.9s11.7-.9 14.4.2c0 0 .8-1 1-1.6 0 0-8.2 1.4-16 .1 0-.1.1.8.6 1.3z" fill="#e8dac5"/><path d="m45.8 63.1s3.9 1.7 9.2.5c0 .1-5.1 2.2-9.2-.5z" fill="#e8dac5"/><path d="m38.6 51.1c-.9-.4-2.1-.4-3-.1-2.2-1.7-.6-7.5 2.6-6.3 2.3.9 2.4 5.2.4 6.4z" fill="#261b18"/><path d="m38.6 46.6c1.2-.2 1.5 1.7.5 2.2-1.3.7-1.8-2-.5-2.2z" fill="#f0ded1" opacity=".7"/><path d="m65.7 44.8c1.7 1.1 1.6 4.4.4 6-.9-.1-1.9-.1-2.8.4-3.5-1.1-.7-8.5 2.4-6.4z" fill="#261b18"/><path d="m65.6 46.3c1.1 0 1.2 1.9.3 2.3-1.4.5-1.6-2.2-.3-2.3z" fill="#f0ded1" opacity=".7"/><g fill="#121b21"><path d="m72.7 45.7s-2.9 3-7.3.5c-2-1.1-3.4.6-3.4.6s.9-3.4 3.8-2.3c1.6.7 3.4 2.4 6.9 1.2z"/><path d="m28.6 46.2s3.4 3 7.7.3c1.9-1.2 3.5.3 3.5.3s-.8-3.5-3.8-2c-1.1.6-3.8 2.4-7.4 1.4z"/></g></g></svg>