<svg enable-background="new 0 0 96 96" viewBox="0 0 96 96" xmlns="http://www.w3.org/2000/svg" xmlns:xlink="http://www.w3.org/1999/xlink"><clipPath id="a"><circle cx="48" cy="48" r="48"/></clipPath><linearGradient id="b" gradientUnits="userSpaceOnUse" x1="47.8187" x2="47.8187" y1="75.3708" y2="80.1434"><stop offset="0" stop-color="#e88958"/><stop offset=".3384" stop-color="#f49d62"/><stop offset=".6924" stop-color="#fcab69"/><stop offset="1" stop-color="#ffb06b"/></linearGradient><path clip-path="url(#a)" d="m0 0h96v96h-96z" fill="#333f59"/><g clip-path="url(#a)"><g fill="#e8e8e8"><path d="m41.3 83.9-2.2-4.4c-3 1.5-3.8 5-4.6 8.8-.3 1.3-1.1 4.7-1.9 7.8h5.1c.7-2.7 1.4-5.8 1.6-6.7.5-2.5 1.1-5.1 2-5.5z"/><path d="m56.5 79.5-2.2 4.4c.9.5 1.5 3 2 5.4.2 1 .9 4 1.6 6.7h5.1c-.8-3-1.6-6.5-1.9-7.8-.9-3.7-1.6-7.2-4.6-8.7z"/><path d="m56.4 79.3c-3.6-3.6-12.9-3.3-16.8-.3-4.2 3.3.1 11.2.8 17h15.1c.1-7.9 4.9-12.6.9-16.7z"/></g><path d="m56.7 89c-1.3-2.8-1-7.5-.3-9.8-3.6-3.5-13.4-3.2-17.4.1.6 2 .9 6-.4 9.1.7 2.8 1.4 5.2 1.6 7.5h15.5c-.1-2.7.3-4.7 1-6.9z" fill="#313142"/><path d="m52.3 76.3c-2.6-1.1-7.2-1-9.6.1-4.7 2.2.3 9.6.3 9.6l5-1.3 5 1.1c.1 0 3.9-7.6-.7-9.5z" fill="#f5f5f5"/><path d="m52.4 77c-.8-.7-.6-2.7-.5-5 .3-5.3-8.8-5.5-8.8.3 0 2.6.1 4.2-.6 4.9-1.3 1.4-1.2 3.8 5.5 6.9 3.6-1.9 8.3-4 4.4-7.1z" fill="url(#b)"/><path d="m51.8 86.8c-2.8 1-6.1.6-9-.1-1.6-.4-2.6 1.5-2.1 3.2.7 2.2 4.1 2.8 7 2.8 5.8-.1 8-2.4 7-5.1-.2-.9-1.4-1.4-2.9-.8z" fill="#fff" opacity=".07"/><path d="m23.6 26.4c-3.9 10.1-4.2 18-6.9 34-.7 4.1-3.2 10.3-2.1 12.8 1.5 3.5 5.5 1.5 8.7 2.5 3.5 1.1 7.4 2.8 8.2-2.2.4.9.4 2 .4 3 2.7.1 12-2.9 18.3-2.6 5.6.2 17.1 5.3 19.5-1.1 1.8-4.8 3.5-26.1 2.7-33 0-.4 1.7-1 1.7-1.4.2-1.2.3-2.1.3-2.5 1.4-27.6-41.2-34.8-50.8-9.5z" fill="#fdd281"/><path d="m45.6 22.8c-10.8 1.9-18.7 17.4-17 32.1 1.3 10.9 11.1 21.7 21.6 21.9 11.2.1 20.2-16.8 18.8-29.7-1.6-14.7-8.2-27-23.4-24.3z" fill="#ffa763"/><path d="m64.5 27.2c-5.8-2.5-11.5-3.9-18-4.2-3.9-.2-9.2-.5-12.9 1-5.6 2.3-8 5.9-8.9 11.5-.6 3.8 3.2 7.5 6 9.9 2.1-2 1.2-4.8 1.2-7.2.5 2.7 2.7 2 5.1 2.1 2.1.1 5.7 1.1 7.6.1.9-.5 1-1.1 1.4-2 .3.4.7.7 1.2 1 1.4.7 3.3.5 4.8.6 2.3.1 4.7.4 7-.3 1-.3 1.6-.6 1.9-1.7.3 2.3 3.8 2 5.8 2 8.1-.1 2.3-10.9-2.2-12.8z" fill="#c4170e" opacity=".2"/><path d="m24.9 48.7c-5.3 1.4-3.3 9.2 1 10.8 1.4.5 2.9.6 4.3.5 0 0 .1-.1.1-.1.7-1-.1-6.7-.4-7.8-.9-2.7-2.4-4.1-5-3.4z" fill="#ffa763"/><path d="m26.7 51.5c-1.2-.6-4.2.4-2.8 2.7.8-2.2 2.1-.7 1.8.8-.2 1-1.3 1-.2 2.4.6.7 1.8.5 2.4.1 2-1.1.3-5.3-1.2-6z" fill="#b54319" opacity=".5"/><path d="m61.3 20c-5.9-5.2-13.7-5.3-21-4.1-2.8.4-6.8 1.1-9.4 2.5-2.2 1.2-3.1 4.1-4.2 6.2-1.9 3.9-2.5 8.6-3 12.9-.2 2.3.6 4.7.8 6.9s1.1 4.2 1.5 6.4c.6 3.4.3 6.8-.8 10-.5 1.4-1.6 2.5-.6 3.7.8 1 2.7 1.4 3.5.6.7-.7 2.1-6.7 2.5-8.2.8-3.8.8-8.2.7-12-.1-3.6.1-7.3 1.4-10.7-.1 1.5.4 3.4.5 4.9 3.7-.4 7.6 0 11.2-.1.6-1.2 1-2.4 1.3-3.7v-.1.1c.2.7.5 2.1.9 2.5.9.7 3.4.3 4.5.4 2 .2 5.4.9 7.3.1 1.2-.5 1.5-1.7 1.8-3 0-.1 0-.1 0 0 .4.7.5 1.8 1.2 2.2s2.8.7 3.6.7c1 .1 3.3.2 4.3 0 2.9-.5.9-5.6.2-7.5-1.6-4.1-5.1-7.9-8.2-10.7z" fill="#fdd281"/><path d="m45.6 35.2s.1.1 0 0c.1.1.1 0 0 0 .1 0 .1 0 0 0z" fill="#fdd281"/><path d="m60.2 35.4c0-.1 0-.1 0 0z" fill="#fdd281"/><path d="m43.9 13.2c-5.6.5-13.5 4.8-16.1 9.8-5.8 11.3-8.1 23.8-8.8 36.4-.2 3.2-2.1 8-1.9 10.9.1 2.7 1.4 2.8 3.6 1.3 2.8-1.9-.1-12.3.5-18.8.5-5.1 4.7-5.2 6.2-11.9 1.4 9-.2 20.8-3.7 30.6 12.1-19.7 3-30.2 9.4-43.5 2.6 3 7.3 4 11.3 2.4 3.6-1.4 8.5-1.6 12.2-.1 4.8 1.9 9.3 2.9 15.4.4-2.8-14.2-18-18.4-28.1-17.5z" fill="#ffebbd"/><path d="m63.6 51.4c-1.7-.3-4 0-2.9 2.6.6 1.4 7.1 3.4 6.8.3 0-.3-.1-.6-.2-.9-.7-1.3-2.4-1.8-3.7-2z" fill="#ffc48f"/><path d="m41.3 52.2c-1.2-1-3.1-.6-4.4-.2-1.7.5-3.7 1.9-1.5 3.8 1.2 1 8.3-.2 6.5-2.9-.1-.3-.3-.5-.6-.7z" fill="#ffc48f"/><path d="m52.4 53.8c-1.4 0-1.4-.8-2.4-.2s-.3 2.8 2.2 2.9 3.6-1.7 3.1-2.5c-.5-.9-1.4 0-2.9-.2z" fill="#b54319" opacity=".5"/><path d="m52 49.8c-1.1 0-2.8 3.9-2.3 4.5 1.4 1.4 4.5.8 5.5-.2.4-.5-1.9-4.3-3.2-4.3z" fill="#ffc48f"/><path d="m65.1 45.4c-3.8-1.6-7.4 3.1-4.6 5.6.6-.6 3.6-1.6 5.4-.2 1.6-1.1 1.2-4.5-.8-5.4z" fill="#305d80"/><path d="m65.5 48.1c-1.1.3-.6 2.4.5 1.6.8-.5.4-1.9-.5-1.6z" fill="#86bae3"/><path d="m61.9 46c-1.8.6-.9 4 .9 2.8 1.3-.9.7-3.3-.9-2.8z" fill="#86bae3"/><path d="m36.4 45.7c-2 .9-2.3 4.4-.7 5.4 1.8-1.5 4.9-.6 5.4 0 2.8-2.5-.9-7.1-4.7-5.4z" fill="#305d80"/><path d="m36.1 48.4c-.9-.3-1.3 1.2-.5 1.7 1.1.7 1.5-1.4.5-1.7z" fill="#86bae3"/><path d="m39.6 46.2c-1.6-.4-2.2 2-.8 2.8 1.9 1.2 2.6-2.3.8-2.8z" fill="#86bae3"/><path d="m41.6 40.2c-1.9.1-3.7.3-5.6.9-1.2.4-2.5 1.1-3.4 1.9-.3.3-.6.7-.6 1.1.3 0 .5-.2.8-.3 1.4-.5 2.9-.7 4.4-.9 1.1-.1 2.3-.2 3.4-.3.8-.1 1.8 0 2.2-.8.5-1.1-.1-1.7-1.2-1.6z" fill="#6e4c3c"/><path d="m64.8 40.7c-1.8-.6-3.6-.7-5.4-.7-1 0-1.6.5-1.2 1.4.3.8 1.4.7 2.1.8 1.1.1 2.2.1 3.4.3 1.4.1 2.9.3 4.3.8.3.1.5.3.8.3.1-.4-.3-.8-.6-1.1-1-.8-2.3-1.4-3.4-1.8z" fill="#6e4c3c"/><path d="m64.3 44.7c-3.5-.6-4.5 2.9-4.5 2.9s1.7-2.2 4-1.2c5.2 2.2 8-1.5 8-1.5-3.8 1.7-5.7.2-7.5-.2z" fill="#121b21"/><path d="m37.3 45.1c-1.8.4-3.7 1.9-7.5.2 0 0 2.8 3.7 8 1.4 2.3-1 4 1.2 4 1.2s-.9-3.4-4.5-2.8z" fill="#121b21"/><path d="m36.3 59c6 8.9 9.7 10.5 14.4 10.7 5.8.3 7.7-3.5 8.6-6.3.4-1.2 3.2-4.2 4.4-4.9-3.7.9-7.3.5-12.7.8-4.5.2-11.1 1.5-14.7-.3z" fill="#c4170e" opacity=".35"/><path d="m39.1 60.5s3.6 6 10.9 6.1c4.6 0 7.6-1.4 8.5-3.5.9-2.3 2.9-3.1 2.9-3.1-12.7 3-22.3.5-22.3.5z" fill="#8f2621"/><path d="m41.8 61s.2 1.8 2.8 2.5c3.3.9 6.8.9 10.5.3 2.5-.4 3.6-3.3 3.6-3.3s-7 1.7-16.9.5z" fill="#fff9f0"/><path d="m51.7 64.1c-3.3.2-6 0-7.7-1-1.2-.7-1.3.1-1 .5 0 0 1.1 2.5 6.6 3 5.3.5 8-2.5 7.3-3.1-.6-.4-2.1.5-5.2.6z" fill="#fff9f0"/><path d="m41.8 61s.2.8.7 1.3c0 0 12.3-1.2 15.3-.2 0 0 .9-1 1-1.6-.1 0-8.7 1.6-17 .5z" fill="#e8dac5"/><path d="m45 63.5c4.5 2.5 9.7.3 9.7.3-5.5 1.2-9.7-.3-9.7-.3z" fill="#e8dac5"/></g></svg>