<svg enable-background="new 0 0 96 96" viewBox="0 0 96 96" xmlns="http://www.w3.org/2000/svg" xmlns:xlink="http://www.w3.org/1999/xlink"><clipPath id="a"><circle cx="48" cy="48" r="48"/></clipPath><path clip-path="url(#a)" d="m0 0h96v96h-96z" fill="#c8dbe9"/><g clip-path="url(#a)"><path d="m61.1 79c-3.1-7.5-20.6-5.6-24.9-1.9-3.5 2.9-3.2 11.4-2.1 18.9h27.2c1-6 1.5-12.8-.2-17z" fill="#313142"/><path d="m51.5 84.7s-1.1-2.5-4.3-1.9c-2.8.5-3.3 3-3.3 3l2.3 2.4-2.2 7.8h8.2l-2.8-8.1z" fill="#379bdb"/><path d="m63.8 79.4c-2.1-1.4-4.2-2.4-4.2-2.4l.7 14s0 2.1.5 5h14.7c-3.7-9.6-8.3-14.4-11.7-16.6z" fill="#313142"/><path d="m36.4 77s-2.1 1-4.2 2.4c-3.4 2.2-8 7-11.7 16.6h14.7c.5-2.9.5-5 .5-5z" fill="#313142"/><path d="m53.4 78.5c-3.4-1.8-17-2.2-15.5 2.7s5.5 7.3 5.5 7.3l4.6-4.4 4.8 4.1c4.6-4.1 5.9-8.2 5.9-8.2s-2 .3-5.3-1.5z" opacity=".3"/><path d="m37.1 76.7c-2.3 5.8 6 10.5 6 10.5l4.9-3.1 4.6 2.9s9-4.7 5.6-11.5c-3.1-6-18.4-5.5-21.1 1.2z" fill="#3a3a4a"/><path d="m44.4 68.6c-2.9.6-4.9 3.4-5.1 6.3-.2 2.2.2 3.5 1.4 4.7.9.9 2.4 1.8 3.9 2.2 1.1.3 3 1.6 3.3 1.6.1 0 .8-.5 1.8-1.1 1.5-.8 3.6-1.8 4.4-3.4 1.2-2.4 2.3-7 0-8.8s-6.9-2.1-9.7-1.5z" fill="#f2b88e"/><path d="m63.5 13.8c-11.8-3-31.8-1.6-38.9 8.1-2 2.7-3.1 6.1-2.4 9.5.7 3.6 3.2 6 7.1 5 2.1-.5 3.4-.3 5.4.5 2.1.8 4.1 2 6.2 2.6 3.7 1.1 7.7.6 11.4 1.9 3.5 1.2 6.6 1.6 10.3.5 3.3-1 6.9-1.5 7.5-5.5.8 1 .8 2.5.5 3.7 2.2-1.3 4-4 4.5-5.3 1.6-4.3 1.3-8.6-.4-12.3-2.1-4-6-7.4-11.2-8.7z" fill="#4f3023"/><path d="m43.2 22.1c-11.3 2.2-19.3 18.6-17.3 34 1.6 11.5 10.4 24.1 23.7 23.2 13.6-1 20.3-17.9 18.6-32.1-1.9-15.4-9.2-28.2-25-25.1z" fill="#ffcb9e"/><path d="m58.1 24.9c-4.4-1.3-8.9-2-13.5-2.1-4.1-.1-8.5-.3-12.3 1.4-2.1.9-4.6 2.2-5.4 4.4-.6 1.8-1.4 4.3-.4 5.9 2.2 3.4 6.4 1.4 8 .5 3.5-1.8 19.3-.6 26.7-.6 3.1 0 7.5-.5 6.2-4.7-1-3.2-6.4-4-9.3-4.8z" fill="#bf3c1b" opacity=".3"/><path d="m21.9 49.7c-5.6 1.5-3.3 9.7 1.2 11.4 1.5.5 3 .6 4.5.5 0 0 .1-.1.1-.1.7-1.1-.3-7-.6-8.1-.8-3-2.5-4.5-5.2-3.7z" fill="#ffcb9e"/><path d="m23.9 52.7c-1.3-.6-4.4.5-2.9 2.9.8-2.3 2.2-.8 1.9.8-.1 1.1-1.3 1.1-.1 2.5.6.8 1.9.5 2.5.1 2-1.3.1-5.6-1.4-6.3z" fill="#c94614" opacity=".3"/><path d="m63.9 19.2c-.8-.8-1.7-1.4-2.8-1.9-2.6-1.3-5.8-1.8-8.6-1.7-2.3 0-4.5-.5-6.8-.5-2.5 0-5 .3-7.5.7-2.9.5-6 1.2-8.6 2.6-2.3 1.2-3.2 4.1-4.2 6.3-.5 1-.4 2.3-.5 3.4-.1 1.9-.2 3.9-.1 5.7.2 3.4 4.7 3.9 6.6 1.5 1.6-2.1 3.9-2.6 6.5-2.7 4.3-.2 21.2-1 25.1.4 2.2.7 5.1 1.9 5.5-1.6.2-1.9-.5-4.4-1.1-6.2-.8-2.1-1.8-4.4-3.5-6z" fill="#4f3023"/><path d="m66.8 17.6c-5.7-3.2-13.2-3.4-19.5-3.1-5.4.3-10.2 1.7-15.1 4.1-5 2.4-6.6 7.9-5.8 10.6 2-2.9 7.5-5.7 10-6-.3 1.3-2.7 3.9-3.1 5.1 2-1.2 11.9-5.6 14.5-5.6-.9 1-2.8 2.2-2.7 3.7 4.3-.7 8.9-3.2 13.3-2.8-1.4 1.3-3.5 1.6-4.6 3.2 4.3 0 9-.6 13.4-.6-1.5.8-2.8 1.2-4.1 2.3 3.5.1 7.8-.3 11.1.8-.5-4.9-3-9.3-7.4-11.7z" fill="#693a27"/><path d="m23.7 34.9c-1.6 2.5-.9 13.6-.6 14.6 2.7.3 5.9 3.9 5.9 3.9-.9-6.5.1-10 1.4-17.2-2.5 0-4.2-.8-6.7-1.3z" fill="#bf795c"/><path d="m66.5 53.6c-1-1.3-3.1-1.4-4.6-1.3-1.9.1-4.5 1-2.6 3.5 1 1.3 8.7 1.8 7.6-1.4-.1-.3-.2-.6-.4-.8z" fill="#ff8e69"/><path d="m38.7 53.7c-1.2-1.2-3.3-1-4.7-.7-1.8.4-4.1 1.6-1.9 4 1.2 1.2 8.8.6 7.2-2.5-.2-.3-.4-.5-.6-.8z" fill="#ff8e69"/><path d="m60.7 67.9c.4-1.7 2-2.6 3.3-2.1-1.7-2.9-5.1-.9-3.3 2.1z" fill="#b54d26" opacity=".3"/><path d="m35.6 69c1.2-.6 2.9.2 3.5 1.8 1.5-3.1-2-4.9-3.5-1.8z" fill="#b54d26" opacity=".3"/><path d="m52 59.4c-5.7-.1-12.4 2.4-14.6 8.3-.2.4.1.9.5 1.1.1 0 .2.1.3.1.3 0 .7-.2.8-.5 1.9-5 7.8-7.2 12.7-7.2h.3c4.3.1 7.7 1.8 8.5 4.4.1.4.6.7 1.1.5.4-.1.7-.6.5-1.1-1.1-3.3-5-5.5-10.1-5.6z" fill="#94110c" opacity=".5"/><path d="m30.7 49.4c.3.9 2.3.1 3 .2-.4.7-2.1.9-2.6 1.4-.6.5-.4.8.4.6.5-.1 3.2-1.2 3.5-1.6 1.2-1.6-3.6-.9-4.3-.6z" fill="#b54d26" opacity=".3"/><path d="m34.7 46.6c-2.4 1-2.3 3-.5 3.8 1.3-.2 2.7-.2 3.9.1 4.9-1.2 1.1-5.7-3.4-3.9z" fill="#224245"/><path d="m37.4 47c-1.2 0-1.7 1.2-.6 1.4 1.5.2 2-1.5.6-1.4z" fill="#d4e6dd" opacity=".7"/><path d="m37.7 38.8c-4-1.5-5.7-.4-6.8.3-.3.2.7.7 1.6.9 2.4.3 5 1.6 7.6 4 1.6 1.5 2.9-1.6 2.1-3.2 0-.1-1.7-1-4.5-2z" fill="#2b221c"/><path d="m65.1 48c.6-.1 2.3.5 2.5-.4-.6-.2-4.6-.4-3.5 1 .3.3 2.6 1.2 3 1.2.7.1.8-.2.3-.6-.5-.5-1.9-.6-2.3-1.2z" fill="#b54d26" opacity=".3"/><path d="m64.1 45.2c-3.8-1.3-6.6 3.4-2.4 4.1.9-.4 2.1-.6 3.2-.5 1.3-.9 1.2-2.9-.8-3.6z" fill="#224245"/><path d="m63.4 45.8c-1.2.1-.5 1.7.6 1.3.9-.3.4-1.4-.6-1.3z" fill="#d4e6dd" opacity=".7"/><path d="m60.6 38.7c-2.2 1.2-3.5 2.2-3.5 2.3-.5 1.6.7 4.6 1.9 2.9 1.9-2.6 3.9-4 5.8-4.5.7-.2 1.5-.8 1.2-1-.7-.5-2.2-1.5-5.4.3z" fill="#2b221c"/><path d="m44.8 65.5s3.6-2.1 9.5-2c-.3-2.2-7.4-1.5-9.5 2z" fill="#b54d26" opacity=".3"/><path d="m50.4 54.3c-1.7 0-2.4-.8-3.6 0-1.2.7.5 3 3.5 2.9s4.3-2.2 3.7-3c-.6-.9-1.7.1-3.6.1z" fill="#b54d26" opacity=".3"/><path d="m50 47.9c-3.2-.3-3.5 6.5-2.7 7.1 1.8 1.4 5.6.4 6.7-.7.4-.5-.9-6.2-4-6.4z" fill="#ffdfc2"/></g></svg>