<svg enable-background="new 0 0 96 96" viewBox="0 0 96 96" xmlns="http://www.w3.org/2000/svg" xmlns:xlink="http://www.w3.org/1999/xlink"><clipPath id="a"><circle cx="48" cy="48" r="48"/></clipPath><path clip-path="url(#a)" d="m0 0h96v96h-96z" fill="#8ca9b9"/><g clip-path="url(#a)"><path d="m62.7 79.6c-3.1-7.5-20.6-5.6-24.9-1.9-3.4 2.8-3.2 11-2.2 18.3h27.4c.9-5.9 1.3-12.4-.3-16.4z" fill="#e8e8e8"/><path d="m53.1 85.3s-1.1-2.5-4.3-1.9c-2.8.5-3.3 3-3.3 3l2.3 2.4-2 7.2h7.8l-2.6-7.5z" fill="#379bdb"/><path d="m38 77.6s-2.1 1-4.2 2.4c-3.5 2.3-6.9 7.8-11.5 13.9.7.7 2.3 1.5 4.3 2.1h10.3c.4-2.6.4-4.4.4-4.4z" fill="#e8e8e8"/><path d="m65.4 80c-2.1-1.4-4.2-2.4-4.2-2.4l.7 14s0 1.8.4 4.4h10.3c2-.6 3.7-1.4 4.3-2.1-4.6-6.2-8-11.6-11.5-13.9z" fill="#e8e8e8"/><path d="m54.9 79.1c-3.4-1.8-17-2.2-15.5 2.7s5.5 7.3 5.5 7.3l4.6-4.4 4.8 4.1c4.6-4.1 5.9-8.2 5.9-8.2s-1.9.3-5.3-1.5z" opacity=".1"/><path d="m38.7 77.3c-2.3 5.8 6 10.5 6 10.5l4.9-3.1 4.6 2.9s9-4.7 5.6-11.5c-3.1-6-18.5-5.5-21.1 1.2z" fill="#f5f5f5"/><path d="m46 69.2c-2.9.6-4.9 3.4-5.1 6.3-.2 2.2.2 3.5 1.4 4.7.9.9 2.4 1.8 3.9 2.2 1.1.3 3 1.6 3.3 1.6.1 0 .8-.5 1.8-1.1 1.5-.8 3.6-1.8 4.4-3.4 1.2-2.4 2.3-7 0-8.8-2.4-1.8-6.9-2.1-9.7-1.5z" fill="#f2b88e"/><path d="m43.9 12.7c-31 2.5-25.8 45.7-17 43.8 6.5-1.4 12.9-3.2 19.4-4.9 6-1.5 12.7-.3 18.9.1 4.8.3 4.8-1.7 5-5.7.4-7.3-.4-10 0-13 1.5-12.5-8.6-21.7-26.3-20.3z" fill="#2b2521"/><path d="m45 21.9c-11.4 2.2-19.4 18.7-17.3 34.1 1.6 11.6 10.4 24.2 23.8 23.3 13.6-1 20.4-18 18.7-32.2-2-15.5-9.3-28.3-25.2-25.2z" fill="#ffcb9e"/><path d="m40.6 45.9c-2.9-1.3-4.8 4-2.8 5.7.9-.3 2-.2 2.9.2 2-1 2.1-4.9-.1-5.9z" fill="#1b2c33"/><path d="m54 55.7c-1.5.1-2.1-.4-3.1.1-1 .4.4 1.9 3 1.8s3.9-1.6 3.3-2c-.7-.5-1.5.1-3.2.1z" fill="#d14f2e" opacity=".3"/><path d="m53.3 49.7c-1.3.1-1.6 2.6-2.1 3.8s-.8 2.3-.1 2.7c1.7.8 5.2.2 6.2-.4.4-.3-.5-1.5-1.2-2.7-.8-1.1-1.4-3.4-2.8-3.4z" fill="#ffd8b5"/><path d="m66 45.7c-3-1.8-5.2 4-2.7 5.6.8-.5 2.3-.4 3.1 0 1.2-1.3 1.2-4.6-.4-5.6z" fill="#1b2c33"/><path d="m39.6 46.8c-1.2.4-.3 2.7.9 1.9.8-.6.1-2.2-.9-1.9z" fill="#a5abb8"/><path d="m64.8 46.3c-1.2.2-.6 2.6.6 1.9.9-.4.4-2.1-.6-1.9z" fill="#a5abb8"/><path d="m23.7 49.6c-5.6 1.5-3.3 9.7 1.2 11.4 1.5.5 3 .6 4.5.5 0 0 .1-.1.1-.1.7-1.1-.5-6.5-.9-7.7-.8-2.9-2.2-4.9-4.9-4.1z" fill="#ffcb9e"/><path d="m64.9 26.2c-6.2-2.5-12.3-3.9-19.1-4-4.5-.1-11.3-.3-15 3-2.9 2.7-3.1 7.7-3.3 11.4-.1 1.4 0 12.2.8 9.8s2.6-4.1 3.8-6.3c.7-1.3.8-3.8 2.4-4.4 2.2-.9 4.4 2.6 6.6 3.1.4-1.3.5-2.3.6-3.5 1.3.1 2.6.6 3.8 1.2 1 .5 1.9 1 2.7 1.5 1.2.7 2.4 1.3 3.6 1.8.6.3 1.3.7 1.9 1 0-.5 1.9-5 1.6-5.1 1.2.4 2.5.5 3.6.9 1.4.5 2.8 1.3 4.1 1.9-.4-.2 1.2-2.6 2-2.6 1.1 0 1.8 1.3 2.3 2.1.3.5 1.6 1.8 1.5 2.5.8-3.9.4-12.6-3.9-14.3z" fill="#d14f2e" opacity=".2"/><path d="m25.6 52.6c-1.3-.6-4.4.5-2.9 2.9.8-2.3 2.2-.8 2 .8-.1 1.1-1.3 1.1-.1 2.5.6.8 1.9.5 2.5.1 2-1.3.1-5.6-1.5-6.3z" fill="#d14f2e" opacity=".3"/><g fill="#2b2521"><path d="m41.6 13.9c-5 1.4-7.8 3.5-11.7 6.9-4.5 4-5.5 8.6-5.6 14.4-.1 4.2 1.6 8.2 1.8 12.3.1 2.5 1.6 5.6 2.3 6.6.6.3 2 .3 3.1 0-2-1.9-2.9-7.1-1.2-11.9.7-2 1.3-3.9 1.7-6 .3-1.5.4-2.5 2.1-2.6 2.7-.2 5.3 2.6 7.7 3.6-.3-1.1-.3-2.3-.8-3.3 4.4 1.4 12.9 3.9 15.1 4.7.1-1.2-.3-3.1-.4-4.3 3.6 1.3 5.5 2.5 9.3 3.4.4-.6 1.4-3.7 1.5-4.1 2.3 1.6 6.5 2.8 9.1 3.1-2.8-16.4-15.6-28-34-22.8z"/><path d="m39 39.7c-2 .4-4.2 1.9-4.8 3.9-.1.5.3 1.3 1.1.8 1.3-.7 2.6-1.5 4-1.7 1.5-.3 3-.2 4.4.2.9.2 1.7-.6 1.2-1.6-1.1-1.6-4.3-1.9-5.9-1.6z"/><path d="m64.7 39.4c-1.5 0-4.6 1.1-5.2 2.7-.3.9.6 1.5 1.3 1.1 1.2-.6 2.6-1.2 3.9-1.2 1.4 0 2.5.7 3.8 1.1.8.3 1.1-.5.8-.9-.8-1.7-2.7-2.9-4.6-2.8z"/></g><path d="m68.5 54c-1.1-1.2-3-1.2-4.3-1-1.8.2-4 1.2-2.1 3.5 1 1.2 8.2 1.3 7-1.7-.3-.4-.4-.6-.6-.8z" fill="#ff9d73"/><path d="m41.7 54.5c-1.1-1.3-3.1-1.3-4.5-1.2-1.9.2-4.3 1.1-2.3 3.6 1 1.3 8.6 1.6 7.4-1.6-.2-.3-.4-.6-.6-.8z" fill="#ff9d73"/><path d="m57.9 9.8c-6.2 2.2-12.9 2.7-16 3.2-1.6.2-4.5.9-5.2 2.6 1.9.4 3.9.3 5.8.6 5 .7 11.1.8 16.1.3 1.7-.2 3.4-2.3 4.2-3.3-1.8-.1-4.4-.3-6.7-.4.7-.9 1.2-1.6 1.8-3z" fill="#2b2521"/><path d="m67.1 22.8c-3.6-4.5-9-7.8-14.7-8.3-5-.4-9.9-.5-14.6 1.1-2.4.8-4.9 2.3-6.7 4.2-1.9 2-3.7 5.4-1.2 7.8 1.3 1.2 7.6 6 9.4 6.9-.3-1.2-.1-2.5-.3-3.7 3.3.7 13 3.6 14.4 4.3.1-1.2.1-2.4.4-3.5 3.3.1 6.2 1.6 8.9 3.3.1-1.6.7-3 .8-4.5 2.8.1 6.6.9 9 2.6-.9-2.6-2.1-5.3-3.5-7.6-.7-1-1.3-1.8-1.9-2.6z" fill="#423833"/><path d="m63.1 59.5c-.4.3.4.1 1.5-.1.2 0 .3 0 .4.1-4.5 3.4-15.5 6.6-27.3.4.1 0 .2-.1.3-.1 1.1-.3 2.4.1 2.1-.2 0 0-2.2-.8-3.2-.5-.9.3-1.4 1.9-.8 2.1.4.2.7-.5 1.3-1 .8 2.5 4.6 12.4 13.3 13 6.4.5 8.9-2.8 11.2-6.8 1.3-2.3 2.4-4.3 3.2-6.8.4.4.3 1.4.8 1.2.6-.2.8-1.5.1-2.1-.8-.6-2.9.8-2.9.8z" fill="#b55623" opacity=".4"/><path d="m39.2 61.5s3.1 9.4 12.2 9.7c4.5.2 7.5-3.1 8.9-5.5 1.5-2.7 3.5-4.5 3.5-4.5-13.5 8.2-24.6.3-24.6.3z" fill="#8f3935"/><path d="m39.2 61.5s2.5 3.9 5.5 5.2c3.9 1.7 7.5 1.8 12 .8 3-.7 7-6.3 7-6.3s-10.6 6.9-24.5.3z" fill="#fff9f0"/><path d="m52.5 67.5c-4.2-.1-6.4-.9-8.3-1.8-1.6-.7-1.4 1-1.1 1.8 0 0 1.6 2.9 7.5 3.6 5.6.6 8.4-3.6 7.6-4.5-.7-.8-1.5 1-5.7.9z" fill="#fff9f0"/><path d="m39.2 61.5s1.2 2.1 2.4 2.9c0 0 11 .8 20-.6 0 0 2-1.9 2.2-2.6-.1 0-11 6.8-24.6.3z" fill="#e8dac5"/><path d="m43.1 65.8c8.8 5.3 14.5 1.2 14.5 1.2-8.1 1.8-14.5-1.2-14.5-1.2z" fill="#e8dac5"/></g></svg>