<svg enable-background="new 0 0 96 96" viewBox="0 0 96 96" xmlns="http://www.w3.org/2000/svg" xmlns:xlink="http://www.w3.org/1999/xlink"><clipPath id="a"><circle cx="48" cy="48" r="48"/></clipPath><linearGradient id="b" gradientUnits="userSpaceOnUse" x1="48.725" x2="48.725" y1="72.9477" y2="79.8167"><stop offset="0" stop-color="#ee996d"/><stop offset=".3384" stop-color="#f7ad7c"/><stop offset=".6924" stop-color="#fdbb86"/><stop offset="1" stop-color="#ffc08a"/></linearGradient><path clip-path="url(#a)" d="m0 0h96v96h-96z" fill="#86b7e2"/><g clip-path="url(#a)"><path d="m77.5 55.9c4.6-2.1 2.6-11.9-2.5-8.7 3.5-.1.1 5.5-1.8 1.3-1.2-2.7 1.6-3.9 2.9-5.7 1.6-2.2 2.1-4.5 1.8-7.4-.6-7.2-7.2-11.8-11-17.3-4.1-6.1-10-9.9-17.5-7.2-1.9.7-3.4 2-4.7 3.5-.4-1.1-1.2-2.5-2.4-3.3-.1 1.1-.2 2.2-.2 3.3-4.1-2.5-10.5-1.5-14.1.8-4.8 3.2-4.4 8-6.3 12.7-1.8 4.3-7.5 9.4-7.1 14.4.2 3.1 2.5 4.8 2.3 8-.1 2.7-3 4.2-1.7 6.8 1.3 2.5 6.8 1.8 4 6.3-2.6 4.2-7.6-.8-4.4-1.4-3.5-1.7-4.9 2.8-4.4 5.5.7 3.8 5.9 3.8 8.8 3.1-7.5 13.4 13.4 16.7 23.7 7.8 4.4-3.8 8 6.3 13.3 6.8 7.2.6 11-4.6 9.6-9.2 1.2 3.9 5.5 4.1 8.8 2.7 1.6-.7 5.2-3.3 4.9-8.2-1.3 1.7-4 2-5.9 1.2-2.7-1.2-3.5-3.9-1.9-6.2 2-2.9 7.7-6.5 2.1-9.5 1.2.5 2.5.5 3.7-.1z" fill="#381d18"/><path d="m41.3 82.5-2.2-4.3c-2.9 1.5-3.3 5.1-3.8 9.3-.4 3.4-.9 6.2-1.9 8.4h5.1c.9-2.7 1.2-5.5 1.5-7.8.2-1.8.6-5.1 1.3-5.6z" fill="#1e1e29"/><path d="m58.9 78.3-2.2 4.3c.6.5 1 3.7 1.3 5.7.3 2.3.6 5.1 1.5 7.8h5.1c-1-2.2-1.5-5-1.9-8.4-.5-4.3-.9-8-3.8-9.4z" fill="#1e1e29"/><path d="m57.5 79.3c-2.5-6.3-12.6-5.1-16.1-2-3.5 3-2.8 8.5 1.2 12.5 2.7 2.7 4.4 4.8 5.4 6.3h2.8c2.8-4.2 8.3-12.9 6.7-16.8z" fill="#f5f5f5"/><path d="m58.4 88.4c1.5-3.7 1.1-4.4.7-6.6-.9-4.5-2-2.1-2.4-.8-2.1 6.5-7.2 12.6-7.2 12.6s-7.1-7.1-8.8-12.6c-.4-1.3-.1-3.2-1.2-.8-1.9 4.3-.4 6 .5 9.5.5 1.9.6 3.9.4 6.3h16.7c-.2-2.2.1-4.6 1.3-7.6z" fill="#1e1e29"/><path d="m55.6 76.2c-.3-.1-.5-.1-.6-.1.8 1.1 1.3 1.9 1 3.3-1 4.9-3.6 10.1-6.5 14.2 0 0 7.5-5.9 11-9.2.7-.7-.6-1.4-1.3-1.9-.4-.3-1-.6-1.5-.8.2-.6 2.8-1.8 3.5-2.6.7-.9-3.9-2.4-5.6-2.9z" fill="#313142"/><path d="m42.4 76.5c-.3.1-7.1 1.5-6 2.8.7.8 3.2 2 3.5 2.6-.5.2-1.1.5-1.5.8-.7.5-2 1.3-1.3 1.9 3.5 3.3 12.4 9.1 12.4 9-2.5-3.1-4.7-6.5-6.4-10.1-1-2.2-2.5-4.9-.7-7z" fill="#313142"/><path d="m54.2 76.1c-2.7-1.5.2-8.3-1.9-10-1.6-1.3-4.3-1.4-6.2-.6-3.7 1.5 0 9.8-3.6 11.3-.7.3-.9 1.1.5 3.3 1.7 2.7 3.7 5.4 6.2 8 2-1.8 5.6-7.2 6.1-8.5.8-2.6.2-2.8-1.1-3.5z" fill="url(#b)"/><g fill="#fff9f0"><path d="m54.9 75.9c-.4 0-.7.3-.7.6s.3.6.7.6.7-.3.7-.6-.3-.6-.7-.6z"/><path d="m42.4 76.3c-.4 0-.7.3-.7.6 0 .4.3.6.7.7.4 0 .7-.3.7-.6-.1-.4-.3-.7-.7-.7z"/><path d="m43.6 77.7c-.4 0-.8.4-.7.8 0 .4.4.7.8.7s.8-.4.7-.8c0-.4-.4-.7-.8-.7z"/><path d="m45.4 78.8c-.4 0-.8.4-.7.8 0 .4.4.8.8.7.4 0 .8-.4.7-.8 0-.4-.4-.7-.8-.7z"/><path d="m47.7 79.6c-.4 0-.8.4-.7.8 0 .4.4.7.8.7s.8-.4.7-.8c0-.4-.3-.7-.8-.7z"/><path d="m50.1 79.7c-.4 0-.8.4-.7.8 0 .4.4.7.8.7s.8-.4.7-.8c0-.4-.4-.8-.8-.7z"/><path d="m54.3 77.4c-.4 0-.8.4-.7.8 0 .4.4.8.8.7.4 0 .8-.4.7-.8 0-.4-.4-.8-.8-.7z"/><path d="m52.4 78.8c-.4 0-.8.4-.7.8 0 .4.4.7.8.7s.8-.4.7-.8c0-.4-.3-.8-.8-.7z"/></g><path d="m44.4 90s3.6-1 4.6-1c1.2 0 4.3.8 4.3.8s-3.2-1.4-4.4-1.4c-.7 0-4.5 1.6-4.5 1.6z" fill="#a09d98" opacity=".2"/><path d="m50.5 88.7 5.3 2.1s.7-6.7.2-12.3z" fill="#f5f5f5"/><path d="m42.1 90.9 5.3-2.1-5.8-10.3c-.5 5.6.5 12.4.5 12.4z" fill="#f5f5f5"/><path d="m46.2 23.2c-11.5 1.5-20.5 10.7-19 26.7s12.2 25.6 23.8 25.5c8.9-.1 19.6-14.6 19-31.1-.7-15.8-12.4-22.6-23.8-21.1z" fill="#ffc38f"/><path d="m22.1 43.3c-5.5 1.9-3.1 9.9 1.5 11.2 1.5.4 3 .4 4.5.2 0 0 .1-.1.1-.1.6-1.1-.7-6.4-1-7.5-1-2.8-2.4-4.7-5.1-3.8z" fill="#ffc38f"/><path d="m59.7 22.4c-6.2-.7-12.7-.4-18.7 1-4.2 1-8.6 2.7-11 6.5-1.7 2.7-4.7 5.6-5 9-.4 3.1-4.9 3.7.6 8.8 2.7 2.5 0 3.7.9 6.8.6 2.1 1.5 4.4 6.3 4.1-3.2-3.2-.7-5.5-.1-9.1.3-1.9-1.4-4.9-1.4-6.8 0-.4 0-.9.1-1.3.2-1.7.7-3.4 1.2-5-.7 5.9 7.8 2.7 10.2 1.7.8-.3 1.6-.6 2.5-.5-2.9 3 1.3 8.1 4.8 8.1 5.7 0 7.1-2.4 9.5-5.6 1.4-1.9 3.2-3.1 5.4-3.4 1.5-.2 3 1.1 3.6-.6.7-2.7-6-13.4-8.9-13.7z" fill="#bc551e" opacity=".3"/><path d="m25.6 46.3c-1.4-.7-5.3.1-3.7 2.7 1.1-2.2 2.6-.6 2.3 1-.3 1.1-1.6 1-.4 2.5.7.8 2.2.7 3 .3 2.5-1.1.5-5.6-1.2-6.5z" fill="#d14f2e" opacity=".4"/><path d="m52 15c-2.4-.2-4.6-.9-7-.8-4 .1-7.9 1.5-11.4 3.4-5.3 2.8-8.6 9.2-10.2 14.9-.9 3.3-1.4 7-.7 10.4.6 3 4.5 4.2 4.8 7.3.1 1.4-1.1 2.4-1.1 3.8 0 1.1.5 2.3 1.3 3 .7.6 2.3.9 3.3 1-2.2-2.4-.1-3.8.1-6.1.1-1.6-.2-4.7-.8-6.2-1.5-4-.6-8.6 2.9-11.2.3 4.3 4.7 4.1 7.8 3.5 1.4-.3 5.5-1.9 6.2.2.4 1.3-1.7 2.5-2.2 1 0 2.3.1 4.1 2.8 4.7 4.1.9 7.4-.6 9.5-4.1.9-1.4 1.7-2.3 2.7-2.8 1.2-.6 2.7-.8 4.6-.8 3.6-.1 4.8-2.7 4.6-6.1-.2-9.6-9-14.4-17.2-15.1z" fill="#381d18"/><path d="m49.2 14.2c-1.7.5-3.3 1.5-4.5 2.8 1.3 1.3 3.2 5.1 3.2 5.8.3 2.4-.5 4.8-2.6 6.2s-14 3.5-5.8 6.4c2.5.9 5.1-.8 7.6-.2 2 .5 3.3 3.4 1.2 4.7 1.8.9 4.6-.2 6-1.2 1.1-.7 2.1-1.5 3.3-2.1 2.9-1.3 5.3-2.9 6.8-4.9 2.5-3.3 2.5-7.5-1-12.5-2.6-4-9.5-6.3-14.2-5z" fill="#593a2f"/><path d="m36.3 16.3c-10.4.7-8.3 9.7-12.7 16.2-1.5 2.2-3 4.1-1.7 6.7 1 2.1 4.3 5.2 6.7 5.4-.8-1.5-1.2-3.9-.7-5.5 1.9-6.7 9.6-8.7 13-14.1 2.8-4.5.8-9.1-4.6-8.7z" fill="#593a2f"/><path d="m66.4 53.8c-.6-1.1-2-1.4-3.1-1.5-1.4-.1-3.3.3-2.3 2.4.5 1.1 5.9 2.3 5.6-.3 0-.1-.1-.4-.2-.6z" fill="#ff7752"/><path d="m40 53.7c-.8-1.1-2.5-1.1-3.6-1-1.5.2-3.5 1.1-2.1 3.4.8 1.2 6.9 1.3 6.1-1.6-.2-.4-.3-.6-.4-.8z" fill="#ff7752"/><path d="m58.6 42.6c3 .3 5.5-.6 10-.2-1.6-2.1-7.7-2.1-10 .2z" fill="#261b18"/><path d="m51.9 54.8c-1 0-1.4-.4-2.1 0s.8 1.8 2.1 1.7c1.4-.1 2.6-1.3 2.2-1.7-.4-.6-1 0-2.2 0z" fill="#d14f2e" opacity=".4"/><path d="m31.8 42c5.6.1 7.5.4 11.5.3-2.1-2.7-9-2.5-11.5-.3z" fill="#261b18"/><path d="m51.1 58.4c-4 .1-10 1.2-13.1-.6 5.2 8.9 8.4 10.6 12.6 10.9 5.2.4 7-3.2 7.8-5.9.3-1.1 3-4.1 4-4.7-3.2.6-6.4.2-11.3.3z" fill="#f04d4d" opacity=".7"/><path d="m40.4 59.3s3.1 6 9.6 6.2c4.1.1 6.9-1.2 7.7-3.2.9-2.2 2.6-3 2.6-3-11.3 2.7-19.9 0-19.9 0z" fill="#8f3935"/><path d="m42.8 59.9s.2 1.8 2.5 2.5c2.9.9 6.1 1 9.4.6 2.2-.3 3.3-3.1 3.3-3.1s-6.3 1.4-15.2 0z" fill="#fff9f0"/><path d="m51.7 63.1c-3 .1-5.4-.2-6.9-1.2-1-.7-1.1 0-.9.5 0 0 .9 2.5 5.8 3.1 4.7.6 7.2-2.3 6.6-2.8-.5-.4-1.9.4-4.6.4z" fill="#fff9f0"/><path d="m42.8 59.9s.2.8.6 1.3c0 0 11.1-.8 13.7.2 0 0 .8-1 .9-1.6 0 0-7.8 1.4-15.2.1z" fill="#e8dac5"/><path d="m45.7 62.4c3.9 2.5 8.7.5 8.7.5-5 1.1-8.7-.5-8.7-.5z" fill="#e8dac5"/><path d="m38.4 44.9c-3-1.1-4.5 4.4-2.4 6 .9-.3 2-.3 2.9.1 1.9-1.2 1.7-5.3-.5-6.1z" fill="#261b18"/><path d="m38.9 46.7c-1.2.2-.8 2.7.5 2.1.9-.5.6-2.3-.5-2.1z" fill="#f0ded1" opacity=".7"/><path d="m64.6 44.9c-3-1.9-5.6 5.1-2.3 6.1.8-.6 1.8-.6 2.6-.4 1.1-1.5 1.3-4.6-.3-5.7z" fill="#261b18"/><path d="m64.4 46.4c-1.2 0-1 2.7.3 2.2.9-.3.7-2.2-.3-2.2z" fill="#f0ded1" opacity=".7"/><path d="m64.6 44.8c-2.7-1.1-3.6 2.2-3.6 2.2s1.3-1.6 3.2-.6c4.2 2.4 6.9-.5 6.9-.5-3.3 1.1-5-.5-6.5-1.1z" fill="#121b21"/><path d="m36.4 45c-1.1.6-3.6 2.2-7 1.2 0 0 3.2 2.8 7.3.3 1.8-1.1 3.3.3 3.3.3s-.7-3.2-3.6-1.8z" fill="#121b21"/></g></svg>