<svg enable-background="new 0 0 96 96" viewBox="0 0 96 96" xmlns="http://www.w3.org/2000/svg" xmlns:xlink="http://www.w3.org/1999/xlink"><clipPath id="a"><circle cx="48" cy="48" r="48"/></clipPath><path clip-path="url(#a)" d="m0 0h96v96h-96z" fill="#fff"/><g clip-path="url(#a)"><path d="m36.9 75.8c-6 3.9-5.1 10.3-3.5 20.1h28.2c1.7-9.4 2.8-17.5-3.1-20.7-6.9-3.7-17-2.4-21.6.6z" fill="#e34f7e"/><path d="m48.2 82.4c-2.9-.2-3.6 2.2-3.6 2.2l2.3 2.8-2.9 8.5h8.3l-3.2-8.4 2.3-2.6s-.6-2.3-3.2-2.5z" fill="#3a3a4a"/><path d="m23.7 95.9c0-.4.4-7.2.8-9.8.6-4.3 2.2-7.3 8-9.5l2.9 6.9c-3.3 1.7-3.7 12.5-3.7 12.5h-8z" fill="#1e1e29"/><path d="m36.9 74.6s-6.1 2.3-6.7 3.8c-.4 1.2-.1 10.1 1.1 17.5h8.4c-.1-6.6-.8-14.8-2.8-21.3z" fill="#1e1e29"/><path d="m37.1 73.5c-3.4 1.7-5 6.4-4.9 7.3s6.4 1.5 6.2.6c-.3-1-1.3-7.9-1.3-7.9z" fill="#3a3a4a"/><path d="m38.1 80.4c-.7-1.3-3.4 5.3-3 6.4.2.7 1.9 5.1 3.2 9.1l1.5.1c0-6.5-.6-13.8-1.7-15.6z" fill="#3a3a4a"/><path d="m72.7 95.9c0-.4-.4-7.2-.8-9.8-.6-4.3-2.2-7.3-8-9.5l-2.9 6.8c3.3 1.7 3.7 12.5 3.7 12.5z" fill="#1e1e29"/><path d="m59.5 74.6s6.1 2.3 6.7 3.8c.4 1.2.1 10.1-1.1 17.5h-8.4c.1-6.6.8-14.8 2.8-21.3z" fill="#1e1e29"/><path d="m59.3 73.5c3.4 1.7 5 6.4 4.9 7.3s-6.4 1.5-6.2.6c.3-1 1.3-7.9 1.3-7.9z" fill="#3a3a4a"/><path d="m58.3 80.4c.7-1.3 3.4 5.3 3 6.4-.2.7-1.9 5.1-3.2 9.1l-1.6.1c.1-6.5.7-13.8 1.8-15.6z" fill="#3a3a4a"/><path d="m58.7 78c-.1 3.2-3 6.5-5.9 8.5l-4.7-4-4.4 4.3s-5.2-2.7-6.7-7.5c-1.5-4.9 21.8-3.7 21.7-1.3z" opacity=".1"/><path d="m48.1 82.4 4.5 2.8s10.1-5.1 6.7-11.7c-3-5.9-18.1-5.3-22.2 0s6.3 11.9 6.3 11.9z" fill="#f06799"/><path d="m47.9 81.8c2.7.1 14.3-6.6 6.2-13-2.3-1.8-6.9-2.1-9.7-1.5-2.9.6-4.8 3.3-5 6.1-.3 3.5 4.9 8.3 8.5 8.4z" fill="#ffb67d"/><path d="m68.8 45.8c.9-1.3 2.3-14.3 3.7-12.7 5.3 6.1-.8 14.8 1.8 21.9.3.9-3.3.4-3.6.3-3.6-1.5-4.1-6.6-1.9-9.5z" fill="#2b2521"/><path d="m68.2 44c2.8-.7 6-1.2 4.3-12.9-1.9-12.8-17.1-20.8-30-18.3-31.2 5.9-25.7 41.8-16.6 40.3s39.5-8.3 42.3-9.1z" fill="#2b2521"/><path d="m23.6 50.1c.5 16.4 11.7 29.4 25.1 29s23.9-14 23.5-30.4c-.5-16.4-11.7-29.4-25.1-29-13.5.4-24 14-23.5 30.4z" fill="#ffcb9e"/><path d="m20.5 58.6c1.7.6 3.5.7 5.3.7 0 0 .1-.1.1-.1.9-1.1-.2-6.7-.5-7.8-.8-2.9-2.4-5-5.6-4.4-6.7 1.3-4.6 9.8.7 11.6z" fill="#ffcb9e"/><path d="m28.6 42.4c.5-2.7 1.1-5.3 2.5-7.7 2.7-4.7 7.9-6.4 12.9-7.1 6.3-.9 13-.5 19.3.8 1.4.3 8.1 1.3 6.7 3.9-1.2 2.1-4.3 4-6.4 4.3-2.9.5-8.6.2-11.5-.1-9.8-1.1-14.3 2-15.5 3.9-.2-1.1.6-3.3 1.2-4.3-.2.2-6.8 2.9-8.5 13.6-.8-.3-1.3-4-.7-7.3z" fill="#bf3c1b" opacity=".3"/><path d="m36 20.8c-9.1 3.7-14.7 18.3-14 27.1.4 5 7.3 5.3 7.3 2.5 0-8.6 1.4-14.7 14.1-17.7 10.1-2.4 22-1.1 25 1s0-6.1-8.7-11.5c-8.8-5.3-16.7-4.3-23.7-1.4z" fill="#2b2521"/><path d="m24 57c3.1-.9 1.2-5.8-.8-6.8-1.7-.9-6.3-.5-4.7 2.4 1.5-2.2 3.2-.3 2.6 1.3-.4 1.1-2.1.8-.7 2.5.8.9 2.6.9 3.6.6z" fill="#bf3c1b" opacity=".3"/><path d="m74.6 32.6c-9.1 6.8-25.6-1.8-35.3 4 0-1.3.5-2.6 1.1-3.7-.4.7-4.9 2.1-5.8 2-2.3-.4-3.5-3.1-4.1-5-1.8-5.8-.9-11.3 4.3-14.3 7.1-4.1 15.7-4.1 23.7-1.9 13.7 3.8 20.4 15.7 16.1 18.9z" fill="#2b2521"/><path d="m29.1 57c.2 0 .4.1.7.1.2-2.9-.4-5.7-.4-8.7 0-2.1-.2-2.4-1.6-3.3-1.6-1-4-.2-5.7-1.2.8.5.1 4 .1 4.7-.2 4.8 2.5 7.8 6.9 8.4z" fill="#2b2521"/><path d="m22.5 16.8c2.4 7.6 12 5.9 16.3 3.5 2-1.2 4.5-7.6 1.2-6.9-4.6.9-9.6 1.9-13.3-.4 0 .8-.2 3 1.8 4.1-1.2.8-3.7.9-6-.3z" fill="#2b2521"/><path d="m68.8 31.8c7.6-2.4 3.3-9-.4-12.1-5.6-4.7-13.8-6.2-21.1-6.1-5.9 0-15.8 1.9-18.2 8.2-1.7 4.3 2.7 6.9 6.3 7.9 2.6.7 5.3.8 8 .7-.7.9-1.2 1.8-1.9 2.6 8.7-.9 18.7 1.5 27.3-1.2z" fill="#423833"/><path d="m40.1 51.9c-.9-.5-2.2-.7-3.2-.4-2.1-2 .2-7.7 3.4-6.1 2.3 1.1 2 5.5-.2 6.5z" fill="#211011"/><path d="m56.3 53.3c.6.7-.8 2.9-3.6 2.9-2.9 0-4.4-2.4-3.3-3s1.8.1 3.4.1c1.8 0 2.8-.8 3.5 0z" fill="#bf3c1b" opacity=".3"/><path d="m56.1 53.5c.8-.7 0-3.6-3.4-3.6-2.9.1-4.3 2.5-2.9 3.6 1.8 1.4 5.1.9 6.3 0z" fill="#ffd8b5"/><path d="m66 44.5c1.8.9 2 3.8.8 5.3-.9-.1-2 .3-2.8.9-3.7-.7-1.4-7.9 2-6.2z" fill="#211011"/><path d="m39.3 46.2c1.2-.3 1.8 1.5.9 2.1-1.4.9-2.3-1.8-.9-2.1z" fill="#a89191"/><path d="m65.2 45.4c1.1-.3 1.7 1.4.8 2-1.2.8-2.1-1.6-.8-2z" fill="#a89191"/><path d="m67.4 40c1.8-.1 2.4-1 .6-1.8-1-.5-2.3-.5-3.4-.5-.7 0-3.3-.5-3.8.1-2 2.1 5.9 2.3 6.6 2.2z" fill="#2b2521"/><path d="m36 41c-1.8.1-2.5-.7-.8-1.7 1-.6 2.3-.7 3.4-.9.7-.1 3.2-.8 3.8-.3 2.1 1.9-5.7 2.9-6.4 2.9z" fill="#2b2521"/><path d="m65.4 57.4c-1.7-1.2-3.6 1.1-13 1.7-8.1.5-11.1-.9-13.1-.9 1.2 7.9 5.5 13.2 11.3 13.8 3.6.3 8.3-.5 10.6-4 .9-1.4 1.1-2.8 1.5-4.4.7-2.6 1.5-4 3.3-5.5-.2-.4-.4-.6-.6-.7z" fill="#f7a286"/><path d="m40.5 59.1s10.4 3.6 24.8-1.4c0 0-2.3 1.5-3.1 5.2-.6 2.8-1.8 6.8-10.1 7.3-9.2.5-11.6-11.1-11.6-11.1z" fill="#8f2722"/><path d="m42.9 59.8s0 2.6 2.8 3.4c3.6 1 7.6 1 11.7.2 2.8-.6 4.3-4.3 4.3-4.3s-8.2 1.8-18.8.7z" fill="#fff7eb"/><path d="m45.2 67.5c-.2-.6-.1-1.2 1.1-.7 1.4.6 4.1 1.1 7.3 1.1s4-1.1 4.5-.5-1.9 3.5-6.9 3c-5.8-.6-6-2.9-6-2.9z" fill="#fff7eb"/><path d="m43.3 61.3s14.2-1.4 17.4-.6c0 0 .8-1.2 1-1.7 0 0-7.5 1.8-18.8.8 0 0 0 .8.4 1.5z" fill="#e8dac5"/><path d="m46.8 67.3s4.2 1.5 10.5.4c-.1 0-5.7 1.9-10.5-.4z" fill="#e8dac5"/><path d="m58.8 53.3c-.6-.5-1.1-1-1.4-1.7-.8-1.4-.8-3.1-.2-4.6.7-2 2.9-2.2 4.7-2.3 1.2-.1 2.4-.1 3.6-.1.9 0 2.1.1 3-.2 1.2-.5 1-2.3.2-3.1-.8-.9-2-.6-3-.5-1.4.1-2.8.4-4.1.7-1.7.4-3.7.6-5.2 1.4-1.4.8-2 1.2-3.9 1.2-3.2-.1-6-2.1-9.2-2.4-3.4-.3-6.8-.7-10.1.2-.9.2-3.5 1.3-1.7 2.2 1.7.9 4.3.6 6.2.7.9 0 1.7 0 2.6.1 3.1.3 7.8-.2 7.6 3.7-.2 2.7-1.8 5.4-4 5.9-2.1.5-4.3.7-6.3.7-1.6 0-3.1-.3-4.6-1-.4-.2-1.6-1-2-.4-.7 1 1.8 2.5 2.5 2.8 1.5.7 3.1.9 4.7 1 4 .4 8.1.2 10.4-3.6 1.3-2.2 1.9-4.7 3.1-6.9 2-3.6 2.8 1.3 3.4 3.5.3 1.2.8 2.4 1.5 3.4 1.2 1.8 3.6 2.8 5.7 3 1.3.1 5.2-.2 6.4-.7.7-.3 1.1-1.5.2-1.8-.5-.2-4.1.5-4.7.5-.8 0-1.6-.1-2.4-.2-1.2-.3-2.2-.8-3-1.5z" fill="#a67663" opacity=".3"/><path d="m23.9 41.8c.6-.6 2.9 0 5.5-.2 3.7-.4 22.6-2.8 21.6 5.3-.4 3.3-1.7 6.7-5.1 8.8-2.8 1.6-12 1.5-15-.8-3.6-2.8-3.8-7.6-4.1-9.4-1.2 0-2.1-.6-2.1-.6s-1.5-2.3-.8-3.1zm7.2 10.9c2.5 2.7 11.5 3.2 14.9.7 2.5-1.9 4-7.5 2.5-8.4-3.1-2-15.7-2-18.9.2-1.1.8-.4 5.4 1.5 7.5z" fill="#3a3a4a"/><path d="m76.8 43.7s-.7.6-1.8.7c-.2 1.8-.2 6.6-3.2 9.6-2.5 2.5-10.5 3-12.9 1.5-3-1.9-4.2-5.2-4.7-8.5-1.1-8.1 15.2-6.5 18.4-6.3 2.3.1 4.3-.6 4.8 0 .7.7-.6 3-.6 3zm-4.2.7c-2.8-2.1-13.7-1.5-16.3.6-1.2 1.1.2 6.5 2.4 8.3 3 2.3 10.7 1.4 12.8-1.4 1.6-2.2 2-6.8 1.1-7.5z" fill="#3a3a4a"/><g fill="#fff"><path d="m58.4 44.4c2-.8 12.2-1.1 13.3 0 .8.8-2.2 2-3.5 2.2-2.6.4-5.3.4-7.7-.1-.7-.2-3.9-1.4-2.1-2.1z" opacity=".3"/><path d="m66.4 44.4c2.1-.2 5.6.3 5.2.9-.4.7-6.1.9-6.6-.1-.2-.4.5-.7 1.4-.8z"/><path d="m60.1 51.3c1.3.1 3.4.9 3.1 1.4s-3.9-.1-4-.9c-.1-.4.3-.6.9-.5z" opacity=".7"/><path d="m33.1 51.9c1.4.1 3.7 1.1 3.4 1.5-.4.5-4.2-.2-4.4-1.1-.1-.3.3-.4 1-.4z" opacity=".7"/><path d="m31.7 45c1.1-1.1 12.9-1 15.3-.3 2.2.6-1.3 1.8-2.1 2-2.7.5-5.9.6-8.9.3-1.5-.2-5.1-1.2-4.3-2z" opacity=".3"/><path d="m41.9 44.3c2.3-.2 6.2.3 5.8.9-.5.7-6.8.9-7.3-.1-.3-.4.5-.7 1.5-.8z"/></g><path d="m48.2 42.4c3.3.9 5.9.6 8.4-.1s-.1 1.3-.5 1.8c-.5.5-.7 6.5-1.7 4.2-1.1-2.3-2.7-2.2-3.6.3s-.5-1.9-.8-3.3c-.4-1.3-4.4-3.6-1.8-2.9z" fill="#3a3a4a"/><path d="m48.1 43.4c-3-2.1-7.8-2.3-17.3-1.1 7.1-.1 12.8-.3 17.3 1.1z" fill="#c1c5c9"/><path d="m57.4 43c2.4-2.1 6.2-1.9 14.6-1.8-6.2.6-10.9.2-14.6 1.8z" fill="#c1c5c9"/></g></svg>