<svg enable-background="new 0 0 96 96" viewBox="0 0 96 96" xmlns="http://www.w3.org/2000/svg" xmlns:xlink="http://www.w3.org/1999/xlink"><clipPath id="a"><circle cx="48" cy="48" r="48"/></clipPath><path clip-path="url(#a)" d="m0 0h96v96h-96z" fill="#bfdefd"/><g clip-path="url(#a)"><path d="m23.9 96h7.1v-.1c-.2-4.4 1.6-8.3 4.8-10.3l-3.8-6.1c-5.3 3.4-8.4 9.7-8.1 16.5z" fill="#313142"/><path d="m64.1 79.5-3.8 6.1c3.2 2 5 6 4.8 10.3v.1h7.1c.3-6.8-2.8-13.1-8.1-16.5z" fill="#313142"/><path d="m59.4 77.4c-7-3.8-17.3-2.5-22 .6-5.6 3.7-5.2 9.4-3.9 18.1h29.4c1.5-8.6 2-15.8-3.5-18.7z" fill="#e8e8e8"/><path d="m30.6 80.6c-.4 1.1 1 8.3 2.2 15.4h7.7c0-6.2-.6-13.5-2.4-19.4 0 0-6.9 2.4-7.5 4z" fill="#313142"/><path d="m57.9 76.6c-1.8 5.9-2.4 13.1-2.4 19.4h7.7c1.2-7.1 2.6-14.3 2.2-15.4-.5-1.6-7.5-4-7.5-4z" fill="#313142"/><path d="m38.6 81.4c1.4 4.8 6.1 7.6 6.1 7.6l3.3-3.9 4.4 3.9c3-1.6 5.9-5.5 5.9-8.8.1-2.4-21-3.7-19.7 1.2z" opacity=".1"/><path d="m38.7 75.6c-3.7 5.4 5.7 12.1 5.7 12.1l3.7-3.1 4.2 3.2s8.5-5 5.5-11.7c-2.8-6-15.3-5.9-19.1-.5z" fill="#f5f5f5"/><path d="m54.8 70.8c-2.4-1.9-7-2.2-9.8-1.6-2.9.6-4.9 3.4-5.1 6.2-.3 3.6 5 8.4 8.7 8.5 2.7.1 14.4-6.6 6.2-13.1z" fill="#854422"/><path d="m48.2 88.2c-.5 0-.9.4-.9.9s.4.9.9.9.9-.4.9-.9c.1-.5-.4-.9-.9-.9z" fill="#f5f5f5"/><path d="m48.3 92.4c-.5 0-.9.4-.9.9s.4.9.9.9.9-.4.9-.9-.4-.9-.9-.9z" fill="#f5f5f5"/><path d="m70.1 50.1c-2.2-.9-3.6.6-4.3 3.6-.3 1.2-1 7.6-.5 8.7 0 .1.1.1.1.2 1.2.2 2.5.2 3.8-.3 3.7-1.6 5.5-10.3.9-12.2z" fill="#854422"/><path d="m24.8 30.9c-1.5 7-1.8 16.3 1.6 23.1 1.8 3.5 5.9 1.2 8.9.4 3.6-.9 7.3-1.7 11-2.5 6-1.3 12.6 0 18.7.6 4.8.5 5.1 2.7 5.1-1.2 0-4.8 1.2-12.8 0-18.2-6-25.9-41.8-19.1-45.3-2.2z" fill="#70442d"/><path d="m45.6 22.3c-17.1 2.3-19.7 18-18.1 33.4 1.2 11.5 9.7 24.3 23 23.7 13.5-.6 20.7-17.3 19.4-31.4-1.5-15.4-4.8-28.4-24.3-25.7z" fill="#9c552c"/><path d="m23.8 49.1c-5.6 1.1-2.7 10.2 1.5 12.3 1.7.8 3.6.5 4.3-1.3.9-1.2.3-4.7-.7-7.7-.8-2.5-2.5-3.8-5.1-3.3z" fill="#9c552c"/><path d="m25.6 52.2c-1.2-.6-4.4.3-3 2.8.8-2.2 2.2-.7 1.9.9-.2 1.1-1.3 1.1-.2 2.5.6.8 1.9.5 2.5.1 2.1-1.2.3-5.6-1.2-6.3z" fill="#66241b" opacity=".7"/><path d="m47.3 19.3c-13.8-.2-23.7 9.8-22.8 29.7.6 0 1.8 0 2.6.8 1.1 1.1 1.1 2.4 1.4 3 .1.3.3.8 1.4.8-2.1-6.7-.9-16.1 1.4-19.1 5.7-7.5 18.3 2.7 22.5 2.5 3.1-.1 10.7-9.6 13.7-2.5 2 4.9 2-15.1-20.2-15.2z" fill="#70442d"/><path d="m38.8 44.8c-3.3-1.1-4.8 4.8-2.5 6.4 1-.4 2.2-.4 3.2 0 2-1.3 1.7-5.6-.7-6.4z" fill="#261b18"/><path d="m52.5 55.6c-2.1 0-2.9-.9-4.4-.2s.5 3.1 4.2 3.1 5.5-2.1 4.7-2.9c-.8-.9-2.1.1-4.5 0z" fill="#66241b" opacity=".7"/><path d="m51.8 47.7c-2 .1-5 7.8-4 8.4 2.5 1.5 8 .9 9.5-.3.6-.5-3.3-8.3-5.5-8.1z" fill="#bf6c3c"/><path d="m66.9 44.8c-3.2-2-5.7 4.3-3 6.1.9-.6 2.6-.4 3.4 0 1.3-1.4 1.3-5-.4-6.1z" fill="#261b18"/><path d="m37.7 45.9c-1.2.6 0 3 1.1 2 .9-.8.1-2.5-1.1-2z" fill="#e6d2c3" opacity=".7"/><path d="m65.6 45.5c-1.3.2-.7 2.8.6 2.1 1-.5.5-2.3-.6-2.1z" fill="#e6d2c3" opacity=".7"/><path d="m58.1 42.2c.5 1.3 3.1.5 3.9.1 1.5-.8 2.6-.9 4.2-.4.4.1 3.9.9 4.3.1-1.4-1.4-4.3-3.5-6.2-3.4-1.2 0-7.3 1-6.2 3.6z" fill="#261b18"/><path d="m36.9 39.2c-2-.1-5.1 2.1-6.6 3.5.3.7 4.1.1 4.5 0 1.7-.4 3.7-.9 5.3 0 .8.4 2.8 1.5 3.4.2 1.1-2.7-5.4-3.7-6.6-3.7z" fill="#261b18"/><path d="m68.6 53.9c-.9-1.3-2.8-1.5-4.2-1.5-1.8 0-4.1.7-2.5 3.2.9 1.3 7.9 2.2 7.1-.9-.1-.2-.2-.5-.4-.8z" fill="#bf6c3c"/><path d="m41.3 53.3c-1.2-1.1-3.2-.9-4.6-.6-1.8.4-4.1 1.6-1.8 3.8 1.2 1.2 8.6.5 7-2.5-.2-.2-.4-.5-.6-.7z" fill="#bf6c3c"/><path d="m37.8 58.9s2.6 15.2 13.4 15c6-.1 8-3.5 10.1-8.6 1-2.4 1.3-5 2.8-6.9-3.1 2.7-17.2 5.5-26.3.5z" fill="#d47b48"/><path d="m61.9 58.7c-.3.2.4.1 1.4-.1s.6 1.5 1.3 1.3c.6-.2.8-1.4 0-2-.7-.6-2.7.8-2.7.8z" fill="#66241b" opacity=".7"/><path d="m37.5 58.4c-.9.2-1.3 1.7-.8 2 .6.3.8-1.1 1.8-1.3 1-.3 2.2.1 2-.2 0-.1-2-.8-3-.5z" fill="#66241b" opacity=".7"/><path d="m39.7 60.6s3.3 8.8 11.7 9.1c4.2.2 6.8-3 7.9-5.3 1.3-2.6 3-4.3 3-4.3-11.9 8-22.6.5-22.6.5z" fill="#78231f"/><path d="m39.7 60.6s2.4 3.7 5.3 4.9c3.7 1.5 7 1.7 11.1.7 2.8-.7 6.2-6 6.2-6s-9.4 6.6-22.6.4z" fill="#fff7ea"/><path d="m52.3 66.3c-3.8 0-5.9-.8-7.7-1.6-1.5-.6-1.3.9-1 1.7 0 0 1.6 2.8 7.1 3.4 5.2.6 7.5-3.5 6.8-4.3-.7-.9-1.4.8-5.2.8z" fill="#fff7ea"/><path d="m39.7 60.6s1.2 2 2.3 2.8c0 0 9.6 2.1 18.4-.6 0 0 1.7-1.8 1.9-2.5 0-.1-9.7 6.4-22.6.3z" fill="#ecdcc4"/><path d="m43.5 64.6c8.3 5 13.4 1.1 13.4 1.1-7.3 1.7-13.4-1.1-13.4-1.1z" fill="#ecdcc4"/><path d="m65.3 55.9c-.5-.2-1.3 0-1.8-.1-.8 0-1.6 0-2.3-.2-1-.2-2-.6-2.8-1.3-.6-.5-1.1-1-1.5-1.7-.8-1.4-.8-3-.3-4.5.7-2 2.8-2.2 4.5-2.4 2.2-.2 4.4-.1 6.6-.6.3-.1-.1-1.9-.2-2.1-.3-.6-.7-1.1-1.3-1.3-1.7-.6-3.9.2-5.6.7s-3.6.7-5.1 1.6c-1.4.8-2 1.3-3.7 1.2-3-.1-6-2.1-9.2-2.4-3.4-.3-6.8-.7-10.1.2-.9.2-3.5 1.2-1.7 2.2 1.7.9 4.3.6 6.2.7.9 0 1.7 0 2.6.1 3.1.3 7.8-.2 7.6 3.7-.2 2.6-1.8 5.4-4 5.9-2 .5-4.2.7-6.3.7-1.6 0-3.1-.3-4.6-1-.4-.2-1.6-1-2-.4-.7 1 1.8 2.5 2.5 2.8 1.5.7 3.1.9 4.7 1 4 .4 8.1.2 10.4-3.5 1.3-2.2 1.9-4.7 3.1-6.9 2-3.6 2.8 1.3 3.5 3.4.3 1.2.8 2.4 1.5 3.4 1.2 1.8 3.6 2.7 5.6 2.8 1.2.1 5.4.9 6.6-1.6.2-.7-2.1-.1-2.9-.4z" opacity=".2"/><path d="m28.9 42.8c-2.6.2-4.9-.4-5.5.2-.8.8.8 3 .8 3s.9.5 2.1.6c.3 1.8.5 6.6 4 9.4 3 2.3 12.2 2.5 14.9.8 3.4-2 4.7-5.4 5.1-8.7 1.2-8.1-17.6-5.7-21.4-5.3zm16.1 11.2c-3.1 2.3-11.6 1.9-14-.7-1.8-2-2.4-6.3-1.4-7 3-2.1 14.9-2.1 17.8-.2 1.4.9 0 6.1-2.4 7.9z" fill="#d9c9b2"/><path d="m71.6 41.4c-3.2-.1-19.3-1.3-18 6.7.5 3.3 1.8 6.6 4.8 8.4 2.4 1.4 10.3.7 12.7-1.8 2.9-3 2.8-7.8 2.9-9.6 1.1-.1 1.8-.7 1.8-.7s1.2-2.4.5-3.1c-.5-.6-2.5.2-4.7.1zm-1.1 10.6c-1.9 2.7-9 3.7-11.8 1.6-2.1-1.6-3.6-6.7-2.5-7.7 2.3-2.1 12.4-2.9 15.1-1 .9.7.6 5-.8 7.1z" fill="#d9c9b2"/><g fill="#fff"><path d="m57.7 45.5c-1.8.8 1.4 1.8 2.1 2 2.4.5 5.1.4 7.6 0 1.3-.2 4.2-1.4 3.4-2.2-1-1.3-11.1-.7-13.1.2z" opacity=".3"/><path d="m65.6 45.3c-1 .1-1.6.4-1.3.9.5.9 6.1.6 6.5-.1s-3.1-1.1-5.2-.8z"/><path d="m59.6 52.3c-.6 0-1 .1-.9.5.2.8 3.7 1.3 4 .8s-1.9-1.3-3.1-1.3z" opacity=".7"/><path d="m33.2 52.9c-.7-.1-1.1 0-1.1.5.2.8 4 1.5 4.4 1s-1.9-1.4-3.3-1.5z" opacity=".7"/><path d="m46.5 45.8c-2.4-.7-14.2-.8-15.3.3-.8.8 2.7 1.8 4.3 1.9 3 .3 6.2.2 8.9-.3.8-.1 4.3-1.2 2.1-1.9z" opacity=".3"/><path d="m41.4 45.5c-1.1.1-1.8.4-1.5.8.5.9 6.8.7 7.3.1.4-.7-3.5-1.1-5.8-.9z"/></g><path d="m55.9 43.3c-2.5.8-4.9 1.1-8.3.2-2.6-.7 1.4 1.6 1.7 2.9s-.1 5.7.8 3.2 2.5-2.6 3.6-.3c1.1 2.2 1.2-3.7 1.6-4.2.6-.4 3-2.6.6-1.8z" fill="#d9c9b2"/><path d="m30.2 43.5c7.1-.1 12.8-.3 17.3 1.1-3-2.1-7.8-2.3-17.3-1.1z" fill="#fff"/><path d="m71 42c-8.2 0-12 0-14.3 2.1 3.6-1.7 8.2-1.4 14.3-2.1z" fill="#fff"/></g></svg>