<svg enable-background="new 0 0 96 96" viewBox="0 0 96 96" xmlns="http://www.w3.org/2000/svg" xmlns:xlink="http://www.w3.org/1999/xlink"><clipPath id="a"><circle cx="48" cy="48" r="48"/></clipPath><linearGradient id="b" gradientUnits="userSpaceOnUse" x1="48.8267" x2="48.8267" y1="73.516" y2="78.2884"><stop offset="0" stop-color="#ee996d"/><stop offset=".01630819" stop-color="#ee9a6e"/><stop offset=".3731" stop-color="#f8b181"/><stop offset=".7088" stop-color="#fdbf8d"/><stop offset="1" stop-color="#ffc491"/></linearGradient><path clip-path="url(#a)" d="m0 0h96v96h-96z" fill="#fff"/><g clip-path="url(#a)"><path d="m42.4 83.9-2.2-4.4c-3 1.5-3.8 5-4.6 8.8-.3 1.3-1.1 4.7-1.9 7.8h5.1c.7-2.7 1.4-5.8 1.6-6.7.5-2.5 1-5.1 2-5.5z" fill="#e8e8e8"/><path d="m57.5 79.5-2.2 4.4c.9.5 1.5 3 2 5.4.2 1 .9 4 1.6 6.7h5.1c-.8-3-1.6-6.5-1.9-7.8-.9-3.7-1.6-7.2-4.6-8.7z" fill="#e8e8e8"/><path d="m57.4 79.3c-3.6-3.6-12.9-3.3-16.8-.3-4.2 3.3.1 11.2.8 17h15.1c.1-7.9 4.9-12.6.9-16.7z" fill="#e8e8e8"/><path d="m57.7 89c-1.3-2.8-1-7.5-.3-9.8-3.6-3.5-13.4-3.2-17.4.1.6 2 .9 6-.4 9.1.7 2.8 1.4 5.2 1.6 7.5h15.5c-.1-2.7.4-4.7 1-6.9z" fill="#313142"/><path d="m53.3 76.3c-2.6-1.1-7.2-1-9.6.1-4.7 2.2.3 9.6.3 9.6l5-1.3 5 1.1c.1 0 3.9-7.6-.7-9.5z" fill="#f5f5f5"/><path d="m53.4 77c-.8-.7-.6-2.7-.5-5 .3-5.3-8.8-5.5-8.8.3 0 2.6.1 4.2-.6 4.9-1.3 1.4-1.2 3.8 5.5 6.9 3.6-1.9 8.3-4 4.4-7.1z" fill="url(#b)"/><g fill="#fff9f0"><path d="m43.2 77.2c-.4 0-.8.4-.7.8 0 .4.4.8.8.8s.8-.4.7-.8c0-.5-.4-.8-.8-.8z"/><path d="m45 78.4c-.4 0-.8.4-.7.8 0 .4.4.8.8.8s.8-.4.7-.8c0-.5-.4-.8-.8-.8z"/><path d="m47.3 79.2c-.4 0-.8.4-.7.8 0 .4.4.8.8.8s.8-.4.7-.8c0-.5-.4-.8-.8-.8z"/><path d="m49.6 79.3c-.4 0-.8.4-.7.8 0 .4.4.8.8.8s.8-.4.7-.8c0-.4-.4-.8-.8-.8z"/><path d="m53.8 77.1c-.4 0-.8.4-.7.8 0 .4.4.8.8.8s.8-.4.7-.8c0-.5-.4-.8-.8-.8z"/><path d="m51.9 78.5c-.4 0-.8.4-.7.8 0 .4.4.8.8.8s.8-.4.7-.8c0-.5-.4-.8-.8-.8z"/></g><path d="m52.8 86.8c-2.8 1-6.1.6-9-.1-1.6-.4-2.6 1.5-2.1 3.2.7 2.2 4.1 2.8 7 2.7 5.8-.1 8-2.4 7-5.1-.2-.8-1.4-1.3-2.9-.7z" fill="#fff" opacity=".07"/><path d="m54.4 13.5c-1-2.6-1.2-3.6-.7-5.3-2 .8-3.9 3-4.2 4.7-1.7-2.7-5.6-4.9-8.9-4.7 1.5 1.5 2.8 3.6 3.3 5.3-2.2.3-3.7.4-5.9.6-11.2 1.5-17.8 8.3-20.8 18.5-1.4 4.8-.8 11.5-.1 16.5.4 2.5 2.9 8.9.1 10.8-1.6 1.1-3.9-.1-3.6-2.1-2.7 1.6-3 5.4-.8 7.4 2.3 2.1 6.5 2.3 9.3 1.3-.7 3.5.6 8.7 2.9 11.2.4-1.5 1.2-3.1 2.4-4-.7.6 2.4 2.1 2.7 2.2 1.2.3 2.6-.3 3.7-.7 3.2-1.1 5.7-2.9 9.1-3.6 2.8-.6 27.2 4 26.5-.9.2 1.3.3 2.6.5 3.8 2.6-2 4.8-5.3 4.5-8.7 3.8-.5 6.4-1.7 5.2-6-.6 1.7-2.7 1.6-4.1 1-4.7-2.2-1.4-10.3.7-15.8.6-1.5 1.1-2.9 1.2-3.8.1.1 2.7 4.3 2.7 4.5 1.4-7.2 1.8-30.9-25.7-32.2z" fill="#261b18"/><path d="m69.5 57.8c-1.1 0-2 .9-1.9 2 0 1.1.9 2 2 2s2-.9 1.9-2c0-1.1-.9-2-2-2z" fill="#fff9f0"/><path d="m44.7 20c-11.1 2.3-18.7 18.5-16.5 33.6 1.7 11.3 10.5 23.6 23.6 22.5 13.3-1.1 19.7-17.9 17.8-31.7-2-15.2-9.3-27.7-24.9-24.4z" fill="#ffc38f"/><path d="m66.7 25c-2.3-1.4-5-2.1-7.6-2.8-4.4-1.3-9-1.9-13.5-1.9-4.1 0-8.5-.2-12.3 1.6-2.1 1-4.6 2.3-5.4 4.6-.9 2.9-.4 6.5.1 9.5.6 3.2 1.4 6.5 3.1 9.3.1-2.2 1.1-4.5 2.4-6.2 1.1-1.4 2.6-3.9 4.5-4.3 0 0-1.3 3.7-1.5 4-.7 1.3-1.9 1.9-3.1 2.6 1.2 1 4.6.8 6 .5 1-.2 2.1-.5 2.9-1.1-.1.3-.1.8-.2 1.1 1.8-.3 3.7-.2 5.6-.6 1.4-.3 2.7-.8 4-1.3-.2.3-.3.6-.4.9.4-.1.8-.3 1.1-.4-.2.4-.3.9-.3 1.3 3.6-.1 7.3-.2 10.9-.5 5.8-.6 7.6-11.6 6.3-13.7-.5-1.2-1.5-2-2.6-2.6z" fill="#bc551e" opacity=".4"/><path d="m24.2 47.3c-5.5 1.6-3.2 9.6 1.3 11.1 1.4.5 3 .6 4.4.4 0 0 .1-.1.1-.1.6-1-.4-6.9-.7-8-.8-2.7-2.4-4.1-5.1-3.4z" fill="#ffc38f"/><path d="m26.2 50.3c-1.2-.6-4.3.5-2.8 2.9.7-2.2 2.1-.8 1.9.8-.1 1.1-1.3 1.1-.1 2.5.6.7 1.9.4 2.5 0 1.9-1.3 0-5.6-1.5-6.2z" fill="#d14f2e" opacity=".4"/><path d="m68.1 23.4c-2.4-1.6-3.7-4.2-6.5-5.5-2.4-1.2-5.3-2.1-7.9-2.6-3.7-.7-7.7-.7-11.5-.2-6.3.8-13.9 4-15.8 10.7-1.2 4.1-.5 8.9-.1 13.1.4 4.8-.3 10.6 4.3 13.8.3-1.2.2-2.5.4-3.6.2-1.6.7-3.2.6-4.8s-.3-2.9.1-4.5c.6-2.7 2.5-5 4.6-6.6 1.8-1.4 2.9-.7 2.3 1.4-.5 1.9-2.3 3.6-3.7 4.8.2-.1 4.7.3 5.7 0 1.9-.6 3.7-1.8 4.8-3.6-.9 1.6-.6 2.6-2.1 4.1 4.4 1.3 6.8-.2 10.4-2.9-.3.8-.7 1.6-1.1 2.2.6-.3 1.5-.9 2-1.1-.3.8-.6 1.5-.9 2.2 2.9-.5 5.8.6 8.7-.1 3.6-.9 9.2-5.3 9.8-9.1.2-1.6-.2-3.1-.9-4.4-.9-1.4-2-2.5-3.2-3.3z" fill="#261b18"/><path d="m63.8 19.4c-8.2.7-14.1 9.5-22.8 7.6-3.7-.8-7.1-1.9-10.9-1.8-3.7.1-8.6 1.5-10.3 5.2-.4.8-2.8 9.7-.9 9.9 2.3.3 4.4-.8 6.4-1.5s2.7.6 4.1 1.6c-1.1-.7 3.5-6.2 4.3-6.8 1.4-1.1 3.4-2 5.1-1.3.2.1.4.2.5.3 1.8 1.2-.1 3.8-.4 5.3 3.1-1.3 6-3.1 8.6-5.2-.3 1.9-.7 3.6-1.1 5.3 2.3-.1 4.2-1.5 5.8-3 .9-.8 1.6-2.1 2.7-2.7.6-.3.9-.6 1.1.1 0 .2-.8 2.6-.9 2.7.8-.6 2.8-3.4 3.9-3 1.2.3-2.6 6.5-3.1 6.3 3.2.8 6.8-.2 9.6-2 1.3-.8 2.6-2 3.6-3.2 1.2-1.5.2-2.8.7-4.5.5.9 1.2 1.4 1.5 2.5.9 2.7.2 5.2-.4 8 3.8 1.5 4.6-1.4 5.2-4.7.8 1 1.2 2.3 2 3.3 1.6-8.2-5.3-19.3-14.3-18.4z" fill="#45362e"/><path d="m27.3 59.7c-1.1 0-2 .9-1.9 2 0 1.1.9 2 2 2s2-.9 1.9-2-1-2-2-2z" fill="#fff9f0"/><path d="m68.1 54.1c-.6-1.1-2.1-1.4-3.2-1.4-1.4-.1-3.4.4-2.3 2.6.6 1.2 6.2 2.2 5.8-.4 0-.4-.1-.6-.3-.8z" fill="#ff7752"/><path d="m40.5 54.1c-.9-1.1-2.6-1.1-3.8-.9-1.6.2-3.6 1.2-2.1 3.5.8 1.2 7.2 1.2 6.3-1.8-.1-.3-.2-.6-.4-.8z" fill="#ff7752"/><path d="m59.8 42.4c3.2.5 6.9.7 10.9.8-1.6-2.7-8.4-3.1-10.9-.8z" fill="#261b18"/><path d="m52.9 55.2c-1.1 0-1.5-.4-2.2 0s.9 1.8 2.2 1.7c1.5-.2 2.7-1.4 2.3-1.9-.5-.5-1.1.1-2.3.2z" fill="#d14f2e" opacity=".4"/><path d="m32.1 43.4c5.8-.5 7.8-.4 11.9-.9-2.5-2.6-9.6-1.6-11.9.9z" fill="#261b18"/><path d="m38.9 45.5c-3.1-1.1-4.6 4.6-2.4 6.3.9-.4 2.1-.4 3 0 1.9-1.3 1.7-5.5-.6-6.3z" fill="#1c5c57"/><path d="m38.4 47.6c-1.3.2-.7 2.8.6 2.1.9-.5.5-2.3-.6-2.1z" fill="#6cd9d2" opacity=".7"/><path d="m66.5 45.2c-3.1-2-5.8 5.3-2.4 6.3.8-.6 1.8-.6 2.7-.4 1.2-1.5 1.3-4.8-.3-5.9z" fill="#1c5c57"/><path d="m65.2 47c-1.2 0-1 2.8.3 2.3.9-.4.8-2.3-.3-2.3z" fill="#6cd9d2" opacity=".7"/><path d="m66.5 45.1c-2.8-1.1-3.8 2.3-3.8 2.3s1.4-1.7 3.3-.6c4.4 2.5 7.2-.5 7.2-.5-3.4 1.1-5.1-.6-6.7-1.2z" fill="#121b21"/><path d="m36.8 45.7c-1.1.6-3.7 2.4-7.2 1.5 0 0 3.4 2.8 7.6.1 1.8-1.2 3.4.2 3.4.2s-.8-3.4-3.8-1.8z" fill="#121b21"/><path d="m37.1 58.9c1.6 3 5.4 1.5 3.8-1.5-.7 1.5-2.4 2.1-3.8 1.5z" fill="#ff3b3b"/><path d="m62.4 56.9c-.8 3.2 3.3 4.3 4.1 1.2-1.2.7-3.1.2-4.1-1.2z" fill="#ff3b3b"/><path d="m64.2 58.5c-.5-.2-1 .1-1.1.5-1.5 4.3-6.1 7.1-11.4 7-5.1 0-9.2-2.7-10.8-6.2-.2-.4-.7-.6-1.2-.5-.5.2-.7.6-.5 1 1.9 4 6.5 7.1 12.1 7.3h.5c6.1 0 11.3-3.1 13-8.1.1-.4-.2-.8-.6-1z" fill="#ff3b3b"/></g></svg>