<svg enable-background="new 0 0 96 96" viewBox="0 0 96 96" xmlns="http://www.w3.org/2000/svg" xmlns:xlink="http://www.w3.org/1999/xlink"><clipPath id="a"><circle cx="48" cy="48" r="48"/></clipPath><linearGradient id="b" gradientUnits="userSpaceOnUse" x1="47.9503" x2="47.8163" y1="75.0704" y2="80.6495"><stop offset="0" stop-color="#e88958"/><stop offset=".3384" stop-color="#f49d62"/><stop offset=".6924" stop-color="#fcab69"/><stop offset="1" stop-color="#ffb06b"/></linearGradient><path clip-path="url(#a)" d="m0 0h96v96h-96z" fill="#b2c9d7"/><g clip-path="url(#a)"><path d="m40.3 78.2c-6.6 2.7-8.1 8.3-8.6 17.8h4.8c.4-3.8 0-10.1 3.7-11.4 1.2-.4 3.1-4 2.5-5.2-.5-1.2-1.2-1.7-2.4-1.2z" fill="#ffb06b"/><path d="m55.2 78.2c-1.2-.5-1.8.1-2.5 1.3-.6 1.2 1.3 4.8 2.5 5.2 3.7 1.3 3.3 7.6 3.7 11.4h4.8c-.4-9.7-1.9-15.2-8.5-17.9z" fill="#ffb06b"/><path d="m52.6 76.9c-3.1-1.4-1-5.1-5.1-5.1-4 0-2.2 4.2-5.1 5.3-6.7 2.6-6.7 6.5-2.7 10.5s11 4.6 16.5-.4c5.5-4.9-.5-8.9-3.6-10.3z" fill="url(#b)"/><path d="m52.6 76.7c.6 2.5 1.4 8.6-4.8 8.6-6.3 0-5.7-5-5.2-8.4-.4 0-1 .3-1.4.6-1.8 5.4-4.7 6.9-2 13.4.5 1.1.9 3.1 1 5h14.6c.2-1.9.7-3.9 1.3-5.2 2.8-6.4-.1-9.8-1.6-13.2-.3-.1-1.6-.7-1.9-.8z" fill="#e8e8e8"/><path d="m41.9 91.9c.6 1.1 2.6 1.1 4.1 1.3-.3 0-.5.1-.8.2 1.8.5 4.3.1 6.1-.4.6-.2 2.1-1.1 2.4-1.2-2.1.2-4.1.4-6.3.4-1.8-.1-3.7-.3-5.5-.3z" opacity=".1"/><path d="m51.8 85.4c-3.1 1.1-6.8.6-9.9-.1-1.8-.4-2.8 1.5-2.3 3.2.7 2.2 4.5 2.8 7.8 2.7 6.4-.1 8.9-2.4 7.8-5.2-.3-.7-1.7-1.2-3.4-.6z" fill="#f5f5f5"/><path d="m70.7 25.2c1 .4 2 .6 3.1.7-.4-1-4.5-10.8-13.1-12.3 1.3-.9 3.5-1.1 5-1.3-2.7-1.6-9.1-4.3-15.4-1.9-.4-.1-3.9-2.7-7.1-2.8.4.6 2.3 2 2.4 2.7-4.2-1.5-8-.7-12.4.4-2 .5-5.4 2.2-6.5 3.9.9-.3 1.9 0 2.6.5-4 1.3-8.8 4.9-10.2 9 1-.1 2.1-.7 3.2-.8-.9.1-2.3 2.6-2.6 3.3-.7 1.3-1.1 2.7-1.4 4.1-.5 2.6-1.1 5.8-.6 8.5.6-.8 1.4-1.4 2.1-2.2-1.9 4.2-.4 8.1 1.3 11.9.8 1.9 1.9 3.5 2.9 5.2.8 1.3 1.2 2.8 2 4.1 2.6 3.9 5.4 2.3 9.2 1.4 2.9-.7 5.9-1.2 8.8-1.3 3.3-.2 6.8-.4 10.1.4 3.1.7 6.6 2.1 9.8.8 6-2.5 5.9-10.2 6.1-15.4.5.4 1.1.9 1.5 1.2.1-3.6.5-7.2.6-10.9.8.5 1.6 1.2 2.4 1.6-.1-1.7-1.8-10-3.8-10.8z" fill="#3d2518"/><path d="m42.4 23.2c-11 2.1-19.1 17.7-16.8 32.2 1.6 9.8 13.5 22 23.1 22 11.2 0 19.8-17 18.1-30.4-1.9-14.6-8.9-26.7-24.4-23.8z" fill="#ffb06b"/><path d="m61.7 27.2c-6-2.4-11.9-3.7-18.5-3.8-4-.1-8.4-.3-12.2 1.4-5.6 2.5-8 6.2-8.7 12-.3 2.1-.1 5.7 2.8 5.9 4 .3 4.2-4.7 5.5-7.2 2.1 1.2 4.7 1.9 7 2.5-.8-1.3-.8-3.3-.6-4.8 2.1.8 17.1 3.5 17.1 3.5s-.6-1.9-.6-2.7c2.5 2.6 5.3 4.6 9.2 4.5 0-1.1.1-2.4.5-3.4 0-.1.5-7.1-1.5-7.9z" fill="#bc551e" opacity=".3"/><path d="m21.8 49.3c-5.4 1.5-3.2 9.2 1.2 10.8 1.4.5 2.9.6 4.4.5 0 0 .1-.1.1-.1.7-1-.3-6.6-.6-7.7-.9-2.8-2.5-4.2-5.1-3.5z" fill="#ffb06b"/><path d="m23.7 52.2c-1.2-.5-4.3.4-2.8 2.8.8-2.2 2.1-.7 1.9.8-.1 1-1.3 1-.1 2.4.6.7 1.8.4 2.5.1 1.8-1.3 0-5.5-1.5-6.1z" fill="#bf3c1b" opacity=".3"/><path d="m64.3 26.8c-1.9-2.3-3.5-4.6-5.8-6.6-6.1-5.1-14.1-5-21.6-3.8-2.9.5-5.9 1.2-8.5 2.6-2.2 1.2-3.1 4.1-4.2 6.3-2.4 5.1-4.4 20.4-1.7 23.8.6 0 1.7-.1 2.6.7 1.1 1.1 1.1 2.2 1.5 2.8.2.3 1.4.7 2.5.6-.8-5.3-2.1-16.4 2.4-20.3.1 1.7 3.4 3.8 5 4.1-.7-1.8-.3-3.7-.7-5.5 4.7.7 12.2 2.3 16.8 3.4-.3-.7-.6-2.6-.9-3.6 3.4 2.3 5.5 4.5 9.7 5.6.3-1.4.5-2.8.5-4.3 0 .6 6.5 1.4 7.1 1.5-.1-1.4-.7-2.6-1.5-3.7-1-1.2-2.2-2.5-3.2-3.6z" fill="#3d2518"/><path d="m60.2 18.6c1.4-.5 3.2-.8 4.7-.6-2-2.6-6.6-4.1-9.6-4.3.3-1 .5-2 1.2-2.6-1.1.9-3.8.8-5.1 1.7-.6-.8-1.8-1.3-2.9-1.4.3.6.6 1.4.8 2.1-2.8-1-5.9-1.1-8.8-1.3-.7 0-5 .3-5.4-.3.7 1.2 2.2 1.7 3.4 2.2-2.7-.1-5.1 1.3-7.8 1.7.9.7 2.1.5 3.1.6-4.2 1.7-8.6 3.9-10.8 8.2 1.8-.3 3.7-.9 5.6-1.2-.6 1.9-2.1 3.9-2.2 6.1 6.2-5.3 15.5-2.1 22.2.5-2.3-2.2-5.4-5.1-8.7-5.9-.1 0-.1 0 0 0 3.3 0 7 1.1 10.1 2.3 3.6 1.5 7.3 5.1 11.3 5.4-.4-2.3-2.3-4.7-3.6-6.4 3.7 1.3 6.8 3.5 10.6 4.3-.5-.1-1.9-3.2-2-3.8 1.4.4 2.7 1 4.2 1.1-2.3-4-6.9-5.9-10.3-8.4z" fill="#82572e"/><path d="m61.7 52.1c-1.7-.2-4.1 0-2.9 2.2.6 1.1 7.3 2.7 6.9.2 0-.3-.1-.5-.3-.7-.6-1.1-2.4-1.5-3.7-1.7z" fill="#f58a53"/><path d="m39 53c-1.3-.8-3.2-.6-4.5-.4-1.7.4-3.8 1.4-1.5 3 1.2.9 8.4.2 6.6-2.1-.1-.2-.3-.4-.6-.5z" fill="#f58a53"/><path d="m38.2 45.9c-2.8-1.2-4.6 3.7-2.7 5.4.9-.3 2-.2 2.8.2 1.9-1 2-4.7-.1-5.6z" fill="#202930"/><path d="m62.8 45.7c-2.9-1.7-5 4.1-2.6 5.7.8-.5 2.3-.3 3 0 1.1-1.3 1.1-4.8-.4-5.7z" fill="#202930"/><path d="m37.2 46.8c-1.2.4-.3 2.6.9 1.8.8-.6.1-2.1-.9-1.8z" fill="#c3cee6" opacity=".7"/><path d="m61.5 46.9c-1.1.2-.6 2.4.6 1.8.8-.4.4-2-.6-1.8z" fill="#c3cee6" opacity=".7"/><path d="m34.7 57.2s3.6 12 13.1 12.6c6.8.4 9.1-3.7 11.5-7.1 1.4-2 2.4-4.2 4-5.9-3.9 2.7-16 5.2-28.6.4z" fill="#de6049"/><path d="m36.8 58.8s2.4 7.7 11.6 8c4.6.2 8.4-2.4 9.8-4.5 1.6-2.3 3.5-3.8 3.5-3.8-13.6 7-24.9.3-24.9.3z" fill="#8f2a25"/><path d="m36.8 58.8s2.5 3.3 5.6 4.4c4 1.4 7.6 1.5 12.2.7 3.1-.6 7.1-5.3 7.1-5.3s-10.8 5.7-24.9.2z" fill="#fff7ea"/><path d="m50.3 63.8c-4.2-.1-6.4-.8-8.4-1.5-1.6-.6-1.5.8-1.2 1.4 0 0 1.6 2.8 7.6 3 5.7.2 8.5-3 7.7-3.7-.6-.6-1.5.9-5.7.8z" fill="#fff7ea"/><path d="m36.8 58.8s1.2 1.8 2.4 2.5c0 0 10.4 1.9 20.3-.5 0 0 2-1.6 2.2-2.2-.1-.1-11.2 5.6-24.9.2z" fill="#ecdcc4"/><path d="m40.7 62.4c8.9 4.4 14.7 1 14.7 1-8.1 1.5-14.7-1-14.7-1z" fill="#ecdcc4"/><path d="m39.4 41.7c-1.4-.1-2.8-.5-4.2-.8-1.8-.3-4.1.7-4.7 1.9.4 0 .8 0 1.2-.1.6-.1 1.2-.2 1.8-.1 1.2 0 2.4.4 3.6.6.9.1 5.1 1.1 5.2.1 0-.3-.2-1.2-.6-1.5s-1.7-.1-2.3-.1z" fill="#2b221c"/><path d="m63 40.6c-1.3.3-2.5.8-3.8 1-.5.1-1.7-.1-2.2.3-.3.3-.5 1.2-.5 1.5.1 1 4-.2 4.8-.4 1.1-.2 2.2-.7 3.3-.8.6 0 1.1 0 1.7.1h1.2c-.7-1.2-2.9-2.2-4.5-1.7z" fill="#2b221c"/><path d="m50.2 54.7c-1.3.1-1.8-.4-2.7.1s1.2 2.1 2.7 2c1.8-.2 3.2-1.7 2.7-2.2-.6-.6-1.3.1-2.7.1z" fill="#bf3c1b" opacity=".3"/><g fill="#121b21"><path d="m35.6 44.9c-1.6.4-3.2 1.9-6.8.5 0 0 3 3.5 7.5 1.2 2-1 3.4 1 3.4 1s-1-3.4-4.1-2.7z"/><path d="m63.4 45.1c-3.2-.8-4.1 2.7-4.1 2.7s1.4-2 3.4-1c4.6 2.3 7.5-1.2 7.5-1.2-3.6 1.5-5.2-.1-6.8-.5z"/></g></g></svg>