<svg enable-background="new 0 0 96 96" viewBox="0 0 96 96" xmlns="http://www.w3.org/2000/svg" xmlns:xlink="http://www.w3.org/1999/xlink"><clipPath id="a"><circle cx="48" cy="48" r="48"/></clipPath><path clip-path="url(#a)" d="m0 0h96v96h-96z" fill="#c8dbe9"/><g clip-path="url(#a)"><path d="m22.5 96h11.2l1.5-18.6c-9.9 2.9-11.9 4-12.7 18.6z" fill="#1e1e29"/><path d="m61.3 77.4 1.5 18.6h11.2c-.9-14.6-2.9-15.7-12.7-18.6z" fill="#1e1e29"/><path d="m60.5 78.8c-3.1-7.6-19.6-5.4-23.9-1.7-4.4 3.7-5.6 8.1 1 14.5 2 1.9 3.7 3.3 5.3 4.4h8.6c4-4.4 10.8-12.7 9-17.2z" fill="#e8e8e8"/><path d="m51.7 84.4s-1.1-2.5-4.3-1.9c-2.9.5-3.3 3-3.3 3l2.4 2.4-2.4 8.1h9.3l-3.2-8.6z" fill="#e62628"/><path d="m36.4 77.8c.2-.5.5-1 .8-1.5-3.5 1.5-6.8 3.8-7.7 7-.8 2.8.6 8.1 1.5 12.7h16.4c-3.7-3.5-13-12.9-11-18.2z" fill="#1e1e29"/><path d="m63.4 79.1c-1-1-2.2-1.9-3.7-2.6.2.5.3 1 .2 1.5-.6 7.4-6.9 15-9.7 18h13.5c0-.2.1-.4.1-.6 1.2-6 4.3-11.4-.4-16.3z" fill="#1e1e29"/><path d="m63.4 90.1c-.2-.8-2.9-4.6-2.9-4.6l5-2.9c-2.4-4.6-7.1-7.4-7.1-7.4 1.1 9.7-5.6 17.7-8.3 20.7h2.6c.8-.6 1.7-1.2 2.7-1.8 3.7-2 8-3.6 8-4z" fill="#313142"/><path d="m37.5 76.2s-5.1 2.4-7.1 7.4l6 2.3s-2.6 5-2.7 5.8c-.1.5 4.5.3 10.2 3.3.7.3 1.3.7 1.8 1.1h1.9c-2.9-2.7-10.1-9.5-10.1-19.9z" fill="#313142"/><path d="m53.6 78.2c-3.4-1.8-17.1-2.2-15.6 2.7 1.6 4.9 5.6 7.4 5.6 7.4l4.6-4.4 4.9 4.2c4.7-4.2 6-8.3 6-8.3s-2.1.2-5.5-1.6z" opacity=".1"/><path d="m37.2 76.4c-2.3 5.8 6 10.6 6 10.6l4.9-3.1 4.6 2.9s9.1-4.8 5.7-11.6c-3-6.1-18.5-5.6-21.2 1.2z" fill="#f5f5f5"/><path d="m44.6 68.2c-2.9.6-4.9 3.5-5.1 6.4-.2 2.2.2 3.5 1.4 4.8.9.9 2.4 1.8 3.9 2.3 1.1.3 3 1.6 3.3 1.6.1 0 .8-.5 1.8-1.1 1.5-.8 3.6-1.8 4.4-3.4 1.2-2.4 2.3-7.1 0-8.9-2.3-2-6.9-2.3-9.7-1.7z" fill="#ed5a39"/><path d="m69 43.3c0-7.4-.9-10.1-.7-13.1.8-12.8-9.9-21.5-27.7-19.1-31.2 4.4-23.5 47.7-14.7 45.3 6.5-1.8 12.9-4 19.3-6 6-1.9 12.8-1.1 19.1-1 4.9 0 4.7-2.1 4.7-6.1z" fill="#4f3023"/><path d="m26.6 55.8c2.2 11.6 11.9 23.9 25.3 22.2 13.7-1.8 19.6-19.3 17-33.6-2.8-15.5-10.9-28.1-26.8-24-11.3 2.9-18.5 20-15.5 35.4z" fill="#ff875d"/><path d="m24.1 61c1.5.4 3.1.4 4.6.2 0 0 .1-.1.1-.1.6-1.1-.9-6.6-1.3-7.7-1-2.8-2.6-4.8-5.2-3.9-5.6 2-2.9 10.1 1.8 11.5z" fill="#ff875d"/><path d="m67.4 37.8c-1.3-4.5-5.6-2.9-11-2-8.7 1.4-18.6 2.2-25.4-.3.4 4.5-3 6.3-4.2 10.6-.7 2.4-1.3-8.5-1.3-9.9 0-3.7-.1-8.8 2.7-11.7 3.5-3.6 10.3-3.7 14.9-3.9 6.9-.3 10.1 1.2 16.5 3.3 4.4 1.5 8.3 9.9 7.8 13.9z" fill="#cf2400" opacity=".4"/><path d="m26.2 58.8c2-1.4-.2-5.7-1.8-6.3-1.3-.5-4.4.7-2.8 3.1.7-2.4 2.1-.9 2 .7-.1 1.1-1.3 1.2 0 2.5.7.8 1.9.5 2.6 0z" fill="#cf2400" opacity=".4"/><path d="m64.2 32.1c-17.7 4.9-32.3 3-34.4 1.3.5 3.7-.7 5.7-1.5 8.5-1.4 5-.2 10.2 1.9 12-1.1.4-2.4.4-3.1.2-.9-1-2.5-4-2.7-6.5-.3-2.9-10.3-26.7 12.2-35 16.4-6.1 29.1 6.3 36.1-.1.2 4 .2 9.4-2.3 12.3 1.8-.3 2.9-.6 4.4-.8-1.6 2.7-4.8 6.5-10.6 8.1z" fill="#4f3023"/><path d="m71.9 13.8s-3.3 14.4-23.2 15.9c-21.9 1.6-27.8-3.9-21.7-11 6-7.1 18.6-7.7 26.9-5.9 8.3 1.9 12.2 4.2 18 1z" fill="#693a27"/><path d="m38 49.9c1.6-1.3-3.2-1.5-3.9-1.3.1.9 2.2.5 2.8.6-.6.6-2.2.6-2.9 1s-.6.7.2.7c.6-.1 3.4-.7 3.8-1z" fill="#cf2400" opacity=".4"/><path d="m63.8 48c-1.2-1.3 2.7-1.6 3.3-1.4-.1.9-1.8.6-2.4.7.4.6 1.8.5 2.4.9s.5.7-.2.7c-.5 0-2.8-.6-3.1-.9z" fill="#cf2400" opacity=".4"/><path d="m41.1 50.7c-1.2-.4-2.6-.5-3.8-.4-2.7-1.3-.7-4.6 3.2-3.5 2.8.8 3 3.4.6 3.9z" fill="#121b21"/><path d="m56 52.6c.7.5-.6 2.7-3.6 3-3.1.3-4.9-1.7-3.8-2.4 1.1-.6 1.9-.1 3.7-.3 1.9-.1 2.8-.9 3.7-.3z" fill="#cf2400" opacity=".4"/><path d="m56 52.8c.5-.4-.3-1.4-.6-1.8-.7-.9-1.5-.8-2.7-1.2.4.1 2-1.1 2.1-1.4.1-.7-2.2-.6-2.8-.5.4-.2.4-.6 0-.9-.5-.3-1.5-.1-2 .1-1.4.4-1.2 1-.1 1.5-.5.1-2 0-2.2.6-.2.7 1.3.9 1.8 1.2-.4.6-1.1.7-1.3 1.4-.2.6-.1 1.5.5 1.9 2.2 1.1 6.2.1 7.3-.9z" fill="#ffa180"/><path d="m63.3 44.7c2.1.5 2.4 2.4 1.1 3.6-1.1 0-2.2.3-3.1.8-4.1-.2-1.9-5.3 2-4.4z" fill="#121b21"/><path d="m40.4 47.5c1-.2 1.7.9.9 1.3-1 .5-2-1.1-.9-1.3z" fill="#7d8ba8"/><path d="m63.2 45.3c1-.2 1.6.8.8 1.2-1.1.5-1.9-1-.8-1.2z" fill="#7d8ba8"/><path d="m64.1 57.3c-.5-.6-2-.9-2.5-1-3.9-1-10.3-.7-15.8.7-8.1 2.1-10.5 10.2-5.7 14.5 4.9 4.3 17.7 6.8 21.2-1.3 1.6-3.7.9-11.9.7-11.8.5-.1 2.2-.9 2.1-1.1z" fill="#cf2400" opacity=".4"/><path d="m64.8 41.3c.7-.3 1.4-1 1.1-1.1-1-.5-2.6-1.3-5.5.9-2.1 1.5-3.2 2.6-3.3 2.7-.3 1.6 1.2 4.5 2.3 2.7 1.7-2.7 3.5-4.5 5.4-5.2z" fill="#4f3023"/><path d="m36.2 45.4c-1.4-1.1-2.4-2.5-2.6-4.2 2 .8 2 2.2 5.7 3.2 2.6.7 5.2 0 5.2.2.1 1.2-1.2 2.9-2.9 2.8-2.1-.2-3.8-.7-5.4-2z" fill="#4f3023"/><path d="m40.5 60.8c5.3-3.4 16.8-4.7 21.8-3.3-.4.3-.7.3-1.2.3.6 3.2.5 5.3.4 8-.2 5.3-2.8 7.9-7.4 8.5-4.9.6-10.9-.2-14.3-4.5-1.9-2.2-1.4-7.6.7-9z" fill="#8f1c18"/><path d="m40.5 60.8s.9 2.8 3.8 2.3c3.1-.5 7.4-1.4 12.7-1.4 2.8 0 2-4.7 2-4.7s-11.1-1-18.5 3.8z" fill="#fff9f0"/><path d="m42.9 72.3c-.3-.6.2-1.4 1.6-1 1.8.5 5 .6 8.6.2 3.7-.4 4.7-1.5 5.4-.9s-1.8 3.8-7.7 3.9c-6.5.2-7.9-2.2-7.9-2.2z" fill="#fff9f0"/><path d="m67.4 51.2c.2.2.4.5.5.8 1.4 3-5.8 3.3-6.9 2.1-2.1-2.2.2-3.3 1.9-3.7 1.4-.2 3.3-.4 4.5.8z" fill="#cf2400" opacity=".4"/><path d="m40.8 52.8c.2.2.4.5.6.8 1.6 3.1-6 3.7-7.2 2.5-2.2-2.3.1-3.5 1.9-3.9 1.4-.4 3.4-.5 4.7.6z" fill="#cf2400" opacity=".4"/><g fill="#e8dac5"><path d="m41.3 62.2s11.9-6.8 17.7-3.3c0 0 .1-1-.1-1.8 0 0-11.3-1.1-18.5 3.8.1-.1.3.9.9 1.3z"/><path d="m44.6 71.6s6.2 1.3 13-.8c0 0-6.3 4.2-13 .8z"/></g></g></svg>