<svg enable-background="new 0 0 96 96" viewBox="0 0 96 96" xmlns="http://www.w3.org/2000/svg" xmlns:xlink="http://www.w3.org/1999/xlink"><clipPath id="a"><circle cx="48" cy="48" r="48"/></clipPath><linearGradient id="b" gradientUnits="userSpaceOnUse" x1="48.6401" x2="48.6401" y1="74.603" y2="79.2731"><stop offset="0" stop-color="#ee996d"/><stop offset=".01630819" stop-color="#ee9a6e"/><stop offset=".3731" stop-color="#f8b181"/><stop offset=".7088" stop-color="#fdbf8d"/><stop offset="1" stop-color="#ffc491"/></linearGradient><path clip-path="url(#a)" d="m0 0h96v96h-96z" fill="#b2c9d7"/><g clip-path="url(#a)"><path d="m36.2 88.1c-.3 1.3-1.2 4.9-2 7.9h5c.7-2.7 1.5-5.9 1.7-6.9.5-2.3 1.1-4.6 2-5.1l-2.2-4.1c-2.9 1.4-3.7 4.7-4.5 8.2z" fill="#e0e0e0"/><path d="m69.3 73.4c-3.5 4.2 0 5.4 3.3 7.6 1.7 1.1 3.6 3 4.9.2.8-1.6.8-2.9 1.4-4.5.5-1.4 1.1-3.3 2-4.4 2.5-3.1-.9-12-11.6 1.1z" fill="#ffc38f"/><path d="m68.3 53.7c-.5-.5-1.4-.5-1.9.1l-7.9 8c-.5.5-.6 1.4-.1 1.9l14.1 14.1c.5.5 1.4.5 1.9-.1l7.9-8c.5-.5.6-1.4.1-1.9z" fill="#23232d"/><path d="m67.7 53.2c-.5-.5-1.3-.5-1.9.1l-7.7 7.8c-.5.5-.6 1.4-.1 1.9l13.5 13.5c.5.5 1.3.5 1.9-.1l7.7-7.8c.5-.5.6-1.4.1-1.9z" fill="#141418"/><path d="m67.7 53.2c-.5-.5-1.3-.5-1.9.1l-7.7 7.8c-.5.5-.6 1.4-.1 1.9l13.5 13.5c.5.5 1.3.5 1.9-.1l7.7-7.8c.5-.5.6-1.4.1-1.9z" fill="#3a3a4a"/><path d="m67.9 56c-.4-.4-1-.4-1.4 0l-5.6 5.7c-.4.4-.4 1 0 1.4l10.4 10.4c.4.4 1 .4 1.4 0l5.6-5.7c.4-.4.4-1 0-1.4z" fill="#fff"/><path d="m65.9 53.3-7.7 7.8c-.5.5-.3 2 .2 2.5l7.5 7.3 4.3-15.3-2.4-2.4c-.6-.5-1.4-.4-1.9.1z" fill="#fff" opacity=".5"/><path d="m66.5 71.9c-.2.7.9 1.9 1.2 2.5.4 1-.3 2.8.9 3.6.9.6 1.7-.1 2.1-.9.7-1.5 0-3.4-1.3-4.7-.7-.7-2.6-1.6-2.9-.5z" fill="#ffc38f"/><path d="m56.9 80.2c-.7-.5-1.3 3.7-.7 5.5 1.9 6.7 18.5 10.8 21.7-3.5l-6.2-1.5c-2.4 13-12.7 1-14.8-.5z" fill="#e0e0e0"/><path d="m40.6 80c-3.9 3.1-.2 10.5.7 16h14.9c.3-7.3 4.7-11.8.9-15.8-3.6-3.5-12.7-3.2-16.5-.2z" fill="#e0e0e0"/><path d="m57 80.2c-3.5-3.5-13-3.2-17 .1.5 2 .9 5.9-.4 8.9.6 2.5 1.3 4.7 1.5 6.8h15.2c0-2.4.4-4.3 1-6.2-1.3-2.8-1-7.4-.3-9.6z" fill="#3a3a4a"/><path d="m42 82.5 1.3 5.7s5-2.6 5.6-2.6c.7 0 5.7 2.3 5.7 2.3l.7-5.9s-5.3 3.3-6.3 3.3c-1 .1-7-2.8-7-2.8z" opacity=".3"/><path d="m53 77.3c-2.5-1.1-7-1-9.4.1-4.6 2.2.3 9.3.3 9.3l4.9-1.2 4.9 1.1c.1 0 3.8-7.4-.7-9.3z" fill="#f2f2f2"/><path d="m53.1 78c-.8-.6-.6-2.6-.5-4.9.3-5.2-8.6-5.4-8.6.3 0 2.5.1 4.1-.6 4.8-1.3 1.3-1.2 3.7 5.3 6.7 3.6-1.8 8.2-3.8 4.4-6.9z" fill="url(#b)"/><path d="m43.1 78.2c-.4 0-.7.4-.7.8s.4.8.8.7c.4 0 .7-.4.7-.8s-.3-.7-.8-.7z" fill="#fff9f0"/><path d="m44.9 79.4c-.4 0-.7.4-.7.8s.4.8.8.7c.4 0 .7-.4.7-.8s-.4-.7-.8-.7z" fill="#fff9f0"/><path d="m47.1 80.2c-.4 0-.7.4-.7.8s.4.8.8.7c.4 0 .7-.4.7-.8s-.3-.7-.8-.7z" fill="#fff9f0"/><path d="m49.4 80.3c-.4 0-.7.4-.7.8s.4.8.8.7c.4 0 .7-.4.7-.8s-.4-.7-.8-.7z" fill="#fff9f0"/><path d="m53.5 78.1c-.4 0-.7.4-.7.8s.4.8.8.7c.4 0 .7-.4.7-.8-.1-.4-.4-.7-.8-.7z" fill="#fff9f0"/><path d="m51.7 79.5c-.4 0-.7.4-.7.8s.4.8.8.7c.4 0 .7-.4.7-.8-.1-.4-.4-.8-.8-.7z" fill="#fff9f0"/><path d="m52.5 87.6c-2.7 1-6 .6-8.8-.1-1.6-.4-2.5 1.5-2 3.1.7 2.2 4 2.7 6.9 2.7 5.7-.1 7.8-2.4 6.9-5-.3-.8-1.5-1.3-3-.7z" fill="#fff" opacity=".07"/><path d="m25.4 34.4c-14.4 2.4-15.7 20.3-7.9 28.4 6.1 6.4 5.6 10.8.8 11.3 2.9 3 22 9.6 25.2-14.3s-11.1-26.5-18.1-25.4z" fill="#fad882"/><path d="m23.1 38.1c-3.7-.3-9.8 4.3-9.4 13.5.2 4.3 2.8 9 2.8 9s-3.5-13.5 9.6-15.2c14.4-1.8-3-7.3-3-7.3z" fill="#ffe9b1"/><path d="m34.8 48.5c-2.8 2.2-10.4-.1-5.6 14 3.4 10-.5 13.7-8.3 12.7 0 0 12 5.6 21.4-6.6 10.2-13.3 5.2-29.8-7.5-20.1z" fill="#ebc271"/><path d="m26.6 45.9c-2.8-.2-5.1 1.9-4.1 8.4s7 5.5 7 5.5-.1-13.7-2.9-13.9z" fill="#ebc271"/><path d="m44.9 13.7c-32.9 1.3-26.4 45.8-12.2 44 7.3-.9 5.3-9.4 12.4-11.2 3.5-.9 7.1-.9 10.7-.8 3.5.2 9.7 9.8 11.4 7.6 3.8-5.3 6.4-40.8-22.3-39.6z" fill="#fad882"/><path d="m46.5 23.4c-15.2.9-19.9 11.4-19.2 27 .8 15.6 11.8 25.6 23 26 8.7.4 19.2-13.8 18-29.4-1.3-15.4-7.2-24.4-21.8-23.6z" fill="#ffc59a"/><path d="m46.8 29.9c-1.3.4.4 2.7.4 2.7.2-1.6 1.1-1.4 2.1-.6 0 0-1.2-2.5-2.5-2.1z" fill="#d14f2e" opacity=".3"/><path d="m51 28.7c-2.6 0-1.7 3.3-1.7 3.3.5-1.8 2.7-2.1 4.7-.5 0 0-.4-2.8-3-2.8z" fill="#d14f2e" opacity=".3"/><path d="m34.3 26.5c-11.5 4.8-4.6 27.2-4.6 27.2-4.6-31.6 15-22.4 17.5-21.2-2.2-3.4-4.8-9.4-12.9-6z" fill="#d14f2e" opacity=".3"/><path d="m57.8 23.3c-3 .3-3.9 6-3.8 8.2 2.8-4 9.3-3.2 12.4 5 0-3.3-4.5-13.6-8.6-13.2z" fill="#d14f2e" opacity=".3"/><path d="m24.7 45.9c-4.1 2-2.2 10.6 1.2 12.1 1.1.5 2.3.5 3.4.3 0-.1 0-.1.1-.2.5-1.2-.6-7-.9-8.1-.7-3-1.8-5-3.8-4.1z" fill="#ffc59a"/><path d="m26.2 48.8c-.9-.4-2.6 1-1.3 3.3.1-2.4 1.2-1.1 1.3.6.1 1.1-.6 1.3.3 2.6.5.7 1.2.3 1.6-.2 1-1.6-.9-5.8-1.9-6.3z" fill="#d14f2e" opacity=".3"/><path d="m41.4 15.8c-15.1 3.4-22.2 26.4-9.8 44.6-2.2-6-4.5-22.7-.8-28s12-3.1 16.5.1c0-.7.1-1.4.3-2 .2.2 1.5 1.1 1.8 1.5.5-2.7 3.2-2.2 4.7-.5 1.4-5.9 10.1-6.6 13.3 8.5.4 1.7.1-6.6-.2-8.3-1.7-7.9-11.7-19-25.8-15.9z" fill="#fad882"/><path d="m60.1 18.4c-13 12.6-30.1 1.4-30.1 1.4-6.3 3.9-7.7 13.1-7.7 13.1s3.3 1.7 6.1-2.3 7.4-4.5 12.7-3.5c5.3.9 10-.9 16.1-1.7 6.1-.9 10.2 6 10.2 6-1-7.8-7.3-13-7.3-13z" fill="#ffe9b1"/><path d="m27.4 58.1c-.9 0-1.7.7-1.7 1.6s.7 1.7 1.6 1.7 1.7-.7 1.7-1.6-.7-1.7-1.6-1.7z" fill="#fff9f0"/><path d="m66.8 54c-.6-1.2-2.2-1.5-3.4-1.5-1.5 0-3.6.6-2.5 3 .6 1.3 6.6 2.3 6.2-.7-.1-.3-.2-.6-.3-.8z" fill="#ffb085"/><path d="m39.5 54.3c-.9-1.3-2.7-1.2-4-1-1.7.3-3.9 1.4-2.2 3.9.9 1.3 7.6 1.2 6.7-2.1-.1-.3-.3-.6-.5-.8z" fill="#ffb085"/><path d="m50.2 53.9c-1.2 0-1.7-.5-2.5 0s1 2.1 2.5 2c1.7-.1 3-1.5 2.6-2-.6-.6-1.3 0-2.6 0z" fill="#d14f2e" opacity=".3"/><path d="m56 39.7s2.7-.3 5.5-.2 6 .7 6 .7-2.8-2.8-6.3-2.9c-3.4-.1-5.2 2.4-5.2 2.4z" fill="#6e4c3c"/><path d="m36.6 39.9c-3.8.3-6.6 3.1-6.6 3.1s3.4-.9 6.5-1.1c3.1-.3 6.1-.1 6.1-.1s-2.2-2.2-6-1.9z" fill="#6e4c3c"/><path d="m59.9 46.2c-.2 2.4.4 4.2 2.5 4.3 2.9.2 3.8-2.3 4-3.9-1.3-.5-4.3-.8-6.5-.4z" fill="#1e4c76"/><path d="m62 46.1c-1.2.2-.6 2.3.6 1.7.8-.4.4-1.8-.6-1.7z" fill="#9cd0ff"/><path d="m58.4 46.6s2.6-.5 5.2-.1c5.2.7 6.8.1 6.8.1-2.8-.5-5.5-1.8-7.2-2-3.1-.5-4.8 2-4.8 2z" fill="#121b21"/><path d="m32.9 47.5c.2 1.6 1.2 4.1 4.2 3.7 2.1-.3 2.5-2.1 2.3-4.5-2.3-.3-5.2.1-6.5.8z" fill="#1e4c76"/><path d="m35.8 46.9c-1-.1-1.4 1.4-.5 1.7 1.3.5 1.7-1.6.5-1.7z" fill="#9cd0ff"/><path d="m35.9 45.2c-1.7.3-4.3 1.7-7.1 2.4 0 0 1.7.5 6.8-.4 2.5-.5 5.2-.1 5.2-.1s-1.8-2.4-4.9-1.9z" fill="#121b21"/><path d="m44.8 60.2c-3.3.9-8.1 3.2-4.8 6.1 3.8 3.4 12.1 3.4 15.7 1.7 3.1-1.5 5.5-5.3 2.4-7l2.9-1.1c-5.4-.7-11.1-1.1-16.2.3z" fill="#ff3b3b" opacity=".8"/><path d="m56.4 61.1c.4-.2 1-.5 1.6-.7-9.7-1-20.2 1.8-17.4 4.8 2.2 2.3 10.1 2.6 13.6 1.6 3.4-.9 6-4.3 2.2-5.7z" fill="#8f2722"/><path d="m56.7 60.2c-4.8-.3-11-.1-14.4 1.6-.7.3-.5.7.4 1 2.2.7 5.8-.2 8-.3 5.4-.3 5.9.4 6.2-.2.4-.5.9-2-.2-2.1z" fill="#fff9f0"/><path d="m56.8 60.2c-2-.3-11.7-.5-14.9 1.8 0 0-.7.5.8.8 0 0 6.5-3.5 14.7-1.5 0 0 .3-1-.6-1.1z" fill="#e8dac5"/><path d="m65 41.9c-2.1.1-4.1.5-6.1 1-1.7.5-3.7.7-5.3 1.5-1.4.8-2.1 1.3-3.8 1.2-3.1-.1-5.8-2.1-8.9-2.4-3.3-.3-6.6-.7-9.8.2-.8.2-3.4 1.2-1.6 2.1 1.7.9 4.2.6 6 .6.8 0 1.7 0 2.5.1 3 .3 7.6-.2 7.3 3.5-.1 2.6-1.8 5.2-3.8 5.7s-4.1.7-6.1.7c-1.5 0-3-.3-4.4-.9-.4-.2-1.6-.9-2-.4-.7.9 1.8 2.4 2.4 2.7 1.5.6 3 .8 4.6 1 3.9.4 7.9.2 10.1-3.4 1.3-2.1 1.9-4.5 3-6.7 1.9-3.5 2.8 1.2 3.5 3.3.4 1.2.9 2.3 1.6 3.3 1.3 1.7 3.7 2.7 5.8 2.7 1.3.1 2.6 0 3.8-.5.7-.3 1-1.1.1-1.5-.5-.2-1.4 0-1.9-.1-.8 0-1.6 0-2.4-.2-1-.2-2-.6-2.9-1.2-.6-.4-1.1-1-1.5-1.6-.8-1.3-.8-3-.3-4.4.7-2 2.9-2.2 4.7-2.3 2.2-.2 4.4-.2 6.5-.4 1-.1 1.9 0 2.9.1 1.2 0 3.9-.4 2.4-2.2-1.6-1.6-4.4-1.6-6.4-1.5z" fill="#b54d26" opacity=".3"/><path d="m28 42.1c-2.6.1-4.8-.6-5.4-.1-.8.7.6 3 .6 3s.8.6 2 .7c.2 1.8.1 6.4 3.4 9.3 2.7 2.4 11.7 3 14.4 1.6 3.4-1.8 4.9-5 5.4-8.2 1.6-7.8-16.8-6.4-20.4-6.3zm15.3 12.4c-3.4 2.2-12 1.3-14.3-1.5-1.8-2.1-2.1-6.7-1-7.3 3.2-2 15.4-1.3 18.3.8 1.3 1-.4 6.3-3 8z" fill="#3a3a4a"/><path d="m70 41.1c-3.3 0-19.9-.4-18.2 7.3.7 3.1 2.1 6.3 5.3 7.9 2.6 1.3 10.6.2 12.9-2.3 2.8-3 2.6-7.7 2.6-9.5 1.1-.1 1.8-.8 1.8-.8s1.1-2.4.4-3c-.5-.5-2.4.4-4.8.4zm-.3 10.9c-1.9 2.9-9.7 4.3-12.8 2.2-2.4-1.6-4.2-6.8-3-7.9 2.5-2.3 13.4-3.5 16.4-1.7 1 .6.9 5.1-.6 7.4z" fill="#3a3a4a"/><g fill="#fff"><path d="m56 45.6c-1.8.8 1.5 1.7 2.2 1.8 2.5.3 5.2.1 7.8-.4 1.4-.3 4.3-1.6 3.5-2.3-1.2-1-11.5 0-13.5.9z" opacity=".3"/><path d="m64 45.1c-1 .2-1.6.5-1.3.9.5.9 6.3.3 6.7-.4s-3.3-.9-5.4-.5z"/><path d="m57.9 52.3c-.6 0-1 .1-.9.5.2.8 3.8 1.2 4.1.8.3-.5-1.9-1.2-3.2-1.3z" opacity=".7"/><path d="m31 52.3c-.6-.1-1.1 0-1 .4.1.8 3.8 1.7 4.2 1.3.3-.4-1.9-1.5-3.2-1.7z" opacity=".7"/><path d="m44.9 46.1c-2.3-.8-13.7-1.6-14.8-.5-.8.7 2.5 1.9 4.1 2.1 2.9.4 6 .6 8.6.2.7-.2 4.1-1.1 2.1-1.8z" opacity=".3"/><path d="m39.9 45.4c-1 0-1.8.3-1.5.7.5.9 6.6 1.1 7 .5.5-.6-3.3-1.3-5.5-1.2z"/></g><path d="m53.9 43.7c-2.4 1.1-4.7 1.3-8 .2-2.5-.9 1.3 1.6 1.6 2.9s-.1 5.3.8 2.9c.8-2.4 2.6-2.5 3.7-.4 1.1 2.2 1-3.7 1.4-4.2.5-.5 2.9-2.5.5-1.4z" fill="#3a3a4a"/><path d="m29.2 42.9c6.9.3 12.5.4 16.6 2-2.7-2.2-7.4-2.7-16.6-2z" fill="#c1c5c9"/><path d="m69.5 41.7c-8.4.4-12.4.5-14.6 2.6 3.6-1.7 8.3-1.7 14.6-2.6z" fill="#c1c5c9"/></g></svg>