<svg enable-background="new 0 0 96 96" viewBox="0 0 96 96" xmlns="http://www.w3.org/2000/svg" xmlns:xlink="http://www.w3.org/1999/xlink"><clipPath id="a"><circle cx="48" cy="48" r="48"/></clipPath><linearGradient id="b" gradientUnits="userSpaceOnUse" x1="48.0732" x2="48.0732" y1="72.8318" y2="80.1212"><stop offset="0" stop-color="#ee996d"/><stop offset=".01630819" stop-color="#ee9a6e"/><stop offset=".3731" stop-color="#f8b181"/><stop offset=".7088" stop-color="#fdbf8d"/><stop offset="1" stop-color="#ffc491"/></linearGradient><path clip-path="url(#a)" d="m0 0h96v96h-96z" fill="#fff"/><g clip-path="url(#a)"><path d="m37.2 81.6-3.1-4.6c-4.5 2.6-6.1 9.7-6.1 19h5.3c-.7-6.7.9-12.5 3.9-14.4z" fill="#1e1e29"/><path d="m60.8 77.1-3.1 4.6c3 1.9 4.6 7.7 3.9 14.4h5.4c0-9.4-1.6-16.5-6.2-19z" fill="#1e1e29"/><path d="m56.8 74.7c-5.8-3.3-14.3-2.1-18.2.5-5.6 3.8-3.9 10.4-2.4 20.8h22.6c1.7-9.6 3.6-18.2-2-21.3z" fill="#f0f0f0"/><path d="m41.2 96h-5.2z" fill="#1e1e29"/><path d="m39.5 75s-6.1 1.7-6.5 3.1c-.4 1.2 1.5 10.5 2.6 17.9h.4 5.3c.1-6.1 0-14.7-1.8-21z" fill="#1e1e29"/><path d="m41.2 96h-.8z" fill="#535361"/><path d="m40.7 78.3c-.3-.9-5.7 1.2-5.6 2 .1.6 3.4 10 5 15.7h.2.8c.5-8 .2-16.3-.4-17.7z" fill="#535361"/><path d="m35 76.7c-.1.6 5.9 3.8 5.9 3.1 0-.6-.2-7.4-.2-7.4-2.6 1.6-5.6 3.7-5.7 4.3z" fill="#535361"/><path d="m53.8 96h6z" fill="#1e1e29"/><path d="m61.9 77.8c-1-1.3-6.2-3.6-6.2-3.6-1.8 6.5-2.1 15.3-1.9 21.8h6c.3-10.1 2.7-17.4 2.1-18.2z" fill="#1e1e29"/><path d="m53.7 96h.5z" fill="#535361"/><path d="m59.8 80.2c.1-.7-5.2-2.8-5.6-2-.5 1.4-.9 9.7-.5 17.7h.5.5c1.6-5.6 5-15.1 5.1-15.7z" fill="#535361"/><path d="m54.2 72.4s-.1 6.7-.2 7.4c0 .6 6-2.5 5.9-3.1 0-.6-3-2.7-5.7-4.3z" fill="#535361"/><path d="m39.7 78.3c1.1 4.3 5 6.8 5 6.8l2.8-3.5 3.6 3.4c2.5-1.5 4.9-4.9 4.9-7.8 0-2.1-17.4-3.2-16.3 1.1z" opacity=".1"/><path d="m39.7 73.2c-3.1 4.8 4.7 10.7 4.7 10.7l3-2.7 3.4 2.9s7.1-4.4 4.6-10.4c-2.2-5.4-12.6-5.3-15.7-.5z" fill="#fbfbfb"/><path d="m45.6 67.5c-1.9.6-3.2 3-3.3 5.6-.2 3.2 3.3 7.5 5.6 7.6 1.8 0 9.4-5.9 4-11.7-1.5-1.7-4.5-2-6.3-1.5z" fill="url(#b)"/><path d="m47.4 86.2c-.4 0-.8.4-.8.8s.4.8.8.8.8-.4.8-.8c0-.5-.3-.8-.8-.8z" fill="#fbfbfb"/><path d="m47.4 90.6c-.4 0-.8.4-.8.8s.4.8.8.8.8-.4.8-.8-.3-.8-.8-.8z" fill="#fbfbfb"/><path d="m20.2 16.1c-5.6 4.5-5.8 12.4-1.8 17.5s11.8 5.6 17.4 1.1 7-12.2 3-17.3c-3.9-5.1-12.9-5.8-18.6-1.3z" fill="#261b18"/><path d="m21.3 17c-2.7 2.2-4.5 6.2-2.8 9.2 1.5 2.5 2.6-.2 3-1.9 1.3 2.5 2.5-.6 2.6-2.2 1.1 1.2 3-1 3.1-2.1 2.3-.4 4-2.8 6.1-3.7-2.2-3.4-9.2-1.5-12 .7z" fill="#573d2f"/><path d="m63.1 18.2c-15.8-11.8-37.6-2.9-41 11.5-2.4 9.9.5 18.7 6 25.1 2.7 3.2 4.6 7.1 7.3 10.3 2.6 3.1 5.7-2 8-3.2 3-1.6 6.6-2.4 10-1.8 3 .5 5 3.7 8 3.9 4 .2 5.3-6.5 6.3-9.3.9-2.6 1.7-5.3 2.3-8 3-12 1.3-22.4-6.9-28.5z" fill="#261b18"/><path d="m45.3 21.1c-11 1.8-19.2 17.4-17.6 32.3 1.2 11.2 11.3 22.8 21.3 23.1 10.6.4 21.1-16.7 19.8-30.5-1.4-14.9-8-27.5-23.5-24.9z" fill="#ffc38f"/><path d="m59.4 23.8c-4.3-1.4-8.7-2.3-13.2-2.5-4-.2-8.3-.5-12.1 1-2.1.9-4.6 2.1-5.5 4.3-1 2.8-.7 6.4-.3 9.3.4 3.2 1.1 6.5 2.7 9.3.2-2 1.1-3.8 1.6-5.7 1.6-6.1 5.6-8.2 10.4-8.9 4-.5 8.5-.1 12.5-.1 2.2 0 14.6 2.5 12.1-2.6-1.2-2.2-6-3.3-8.2-4.1z" fill="#bf3c1b" opacity=".3"/><path d="m24.1 47.1c-5.4 1.3-3.2 9.9 1.2 11.6 1.4.5 2.7.7 4 0 0 0 .1-.1.1-.1.7-1-.1-6.8-.4-7.9-.8-2.7-2.3-4.2-4.9-3.6z" fill="#ffc38f"/><path d="m25.9 50.1c-1.2-.6-4.2.3-2.9 2.7.8-2.2 2.1-.7 1.9.9-.2 1-1.3 1-.2 2.4.6.7 1.8.5 2.4.1 2-1.1.2-5.4-1.2-6.1z" fill="#b54d26" opacity=".3"/><path d="m54.4 16.9c-3.6-.8-7.6-1-11.3-.7-6.2.6-13.8 3.3-16 9.9-1.3 4-.8 8.7-.6 12.9.1 2.5-1 7.3 1.1 9.3 2.4 2.3 3.5-1 3.8-3.4.3-2.7.2-5.6 1.1-8.2 2.1-6.3 5.4-7.4 14.6-7.9 4.7-.2 16.4-.8 18.5 3.5.8 1.6 7.8-2.8 1.8-9.9-2.7-3.1-9.2-4.7-13-5.5z" fill="#261b18"/><path d="m38.4 15.5c-2.9.7-5.7 2.2-8 4.2-1.6 1.4-3 3-4 4.8-1.1 2-1.7 4.1-1.6 6.4.1 1.5 1.3 4.7 3.6 4 0-1.5-.2-3-.4-4.5.5.3 2.6 1.9 3.3 1.5s.3-2.5.4-3.1c2.5 2.9 4-1.3 3.9-3.5 1.1.7 1.8 1.9 3 2.5 1.6.8 3.4 0 5.3-.3 2.4-.4 4.9-.7 7.3-.7 2.5 0 3 .3 4.1-2 0 .7.4 1.4.9 1.8.9-.5 1.5-1.3 1.5-2.3 0 2.6 5.7 4.3 7.6 3.7 3.1-.9-.2-5.6-2-7.5-6.2-6.6-16.5-7-24.9-5z" fill="#573d2f"/><path d="m67 53.9c-.9-1.2-2.7-1.3-4-1.2-1.7.1-3.9.9-2.3 3.3.9 1.3 7.6 1.7 6.7-1.3-.1-.3-.3-.5-.4-.8z" fill="#ff7752"/><path d="m40.9 53.7c-1-1.1-2.8-1.1-4.1-1-1.7.2-4.6 1.7-2.2 3.5 1.7 1.3 8 1.1 6.8-1.7-.2-.4-.3-.6-.5-.8z" fill="#ff7752"/><path d="m40.1 45.8c-3.9-1.2-6.5 3.1-3.9 4.7 1.3-.2 2.7-.1 3.9.3 2.7-.8 2.9-4.1 0-5z" fill="#1c5c57"/><path d="m51.4 53.3c-1 .1-1.9-.5-2.8.1-.9.5.2 2.1 2.8 1.9s3.2-1.6 2.7-2.1c-.5-.7-1.6 0-2.7.1z" fill="#b54d26" opacity=".3"/><path d="m39.7 48.1c-1.2.3-.4 2.3.8 1.6.9-.5.3-1.9-.8-1.6z" fill="#6cd9d2" opacity=".7"/><path d="m65.1 45.5c-4-.7-6 4-3.2 5.1 1.2-.4 2.7-.4 3.9-.2 2.5-1.1 2.3-4.4-.7-4.9z" fill="#1c5c57"/><path d="m64.9 48c-1.1.5 0 2.3 1 1.5.8-.7 0-2-1-1.5z" fill="#6cd9d2" opacity=".7"/><path d="m62.9 59.6c-6.8-1.4-17.4-.1-23.6-.2-.5 0-.9.1-.7.7.9 2.3 4.2 10.9 12.7 11.1 7.1.2 7.9-4.8 8.4-7.4.2-1.3 2.2-2.8 3.7-3.7.5-.3.2-.4-.5-.5z" fill="#e64e4e" opacity=".6"/><path d="m39.6 60.3s2.5 7.1 10.8 7c7.5-.1 8.5-2.5 9-4.1.6-2.2 2.7-3.1 2.7-3.1-13 2.6-22.5.2-22.5.2z" fill="#8f3935"/><path d="m42.2 61s-.1 2.3 2.4 3.2c3.2 1.2 6.9 1.4 10.7.6 2.6-.5 4.3-4 4.3-4s-7.1 1.1-17.4.2z" fill="#fff7ea"/><path d="m52.4 64.8c-3.5 0-6.6-.5-8.2-1.1-1.4-.5-1.4.2-1.2.7 0 0 .3 2.4 6.7 2.9 5.6.5 8.3-2.5 7.7-3.1-.5-.6-1.4.6-5 .6z" fill="#fff7ea"/><path d="m42.2 61s0 .7.2 1c0 0 13.5-.9 16.4.1 0 0 .6-.7.7-1.3.1 0-9.5 1-17.3.2z" fill="#ecdcc4"/><path d="m44.9 63.7c5.4 2.4 11.7.4 11.7.4-6.9 1.1-11.7-.4-11.7-.4z" fill="#ecdcc4"/><path d="m38.1 44.5c-2.1.4-4.9 2.6-8.2 0 0 0 1.1 4.1 8 1.8 2.8-.9 4.3 2.1 4.3 2.1s.1-4.7-4.1-3.9z" fill="#161110"/><path d="m64.9 44.8c-3.8-1.1-4.2 3.5-4.2 3.5s1.6-2.7 4.4-1.6c6.1 2.5 7.6-1.3 7.6-1.3-3.5 2.2-5.8 0-7.8-.6z" fill="#161110"/><path d="m64 38.5c-2.7.1-5.4 1.7-5.1 3 .3 1.5 2.6-.1 5.2-.7 3.3-.7 5.1.1 5.1-.2-.3-1-2.8-2.2-5.2-2.1z" fill="#261b18"/><path d="m39.1 38.4c-3-.4-6.3.5-6.5 1.5-.1.7 2.4-.2 6.5.8 3.2.8 5.6 2.5 6.1 1.1.4-1.3-2.8-3-6.1-3.4z" fill="#261b18"/><path d="m67.2 41.9c-2.2 0-4.4.3-6.5.8-1.8.4-3.9.6-5.6 1.4-1.6.7-2.2 1.2-4.1 1.1-3.3-.3-6-2.4-9.3-2.9-2.6-.4-5.2-.8-7.8-.6-1.5.1-4.5.8-2.3 2.7 1.1 1 2.7.6 4.1.7.9.1 1.8.1 2.7.2 3.1.4 8 .1 7.6 4.1-.3 2.7-2.1 5.4-4.3 5.9-2.1.4-4.4.5-6.5.4-1.6-.1-3.2-.4-4.7-1.2-.4-.2-1.6-1.1-2.1-.5-.7.9 1.8 2.7 2.4 3 1.5.7 3.1 1 4.8 1.3 4.1.6 8.3.5 10.8-3.2 1.4-2.2 2.2-4.7 3.5-6.9 2.2-3.6 3 1.4 3.5 3.6.3 1.2.8 2.5 1.5 3.5 1.3 1.9 3.8 3 6 3.2 1.3.1 2.7.1 4-.4.8-.3 1.1-1.2.2-1.5-.5-.2-1.4-.1-2-.2-.8-.1-1.7-.1-2.5-.3-1.1-.2-2.1-.7-3-1.4-.6-.5-1.1-1.1-1.5-1.8-.8-1.4-.8-3.2-.2-4.7.8-2.1 3.1-2.2 5-2.2 2.3-.1 4.6 0 6.9-.1 1.4-.1 1.9-.4 2.2-1.9.7-2.1-1.1-2.1-2.8-2.1z" fill="#b54d26" opacity=".3"/><path d="m28.1 40.5c-2.7 0-5-.8-5.7-.3-.9.7.5 3.2.5 3.2s.8.6 2.1.8c.1 1.9-.2 6.8 3.2 10 2.8 2.7 12.2 3.7 15.2 2.4 3.7-1.7 5.4-5.1 6.1-8.4 1.9-8.3-17.6-7.7-21.4-7.7zm15.6 13.8c-3.7 2.2-12.8.8-15.1-2.3-1.8-2.3-1.9-7.1-.8-7.8 3.5-2 16.4-.7 19.3 1.7 1.5 1.2-.6 6.7-3.4 8.4z" fill="#f06799"/><path d="m72.6 41.3c-3.5-.1-21-1.3-19.6 6.9.6 3.4 2 6.8 5.2 8.6 2.6 1.5 11.2.7 13.8-1.9 3.1-3.1 3.1-8 3.2-9.9 1.1-.1 1.9-.7 1.9-.7s1.3-2.4.6-3.1c-.6-.6-2.7.1-5.1.1zm-.9 11.5c-2.2 3-10.4 4.1-13.7 1.8-2.5-1.8-4.1-7.3-2.8-8.4 2.7-2.3 14.4-3.1 17.5-1 1 .5.7 5.3-1 7.6z" fill="#f06799"/><g fill="#fff"><path d="m57.5 45.4c-1.9.8 1.5 1.9 2.2 2 2.6.5 5.5.4 8.3 0 1.5-.2 4.6-1.4 3.7-2.3-1.1-1.1-12.1-.5-14.2.3z" opacity=".3"/><path d="m66 45.2c-1 .1-1.7.4-1.5.9.5.9 6.6.6 7.1-.1s-3.3-1.1-5.6-.8z"/><path d="m59.2 52.6c-.7-.1-1.1.1-1 .5.2.8 4 1.5 4.3 1 .4-.5-1.9-1.4-3.3-1.5z" opacity=".7"/><path d="m30.8 51.4c-.7-.1-1.2-.1-1.1.4.1.8 4 2 4.4 1.5.4-.4-1.9-1.6-3.3-1.9z" opacity=".7"/><path d="m45.7 45.4c-2.4-.9-14.4-2.3-15.6-1.2-.9.7 2.6 2.1 4.2 2.4 3.1.6 6.3.9 9.1.6.8-.1 4.5-.9 2.3-1.8z" opacity=".3"/><path d="m40.5 44.5c-1.1 0-1.9.2-1.6.7.4 1 6.9 1.5 7.4.8.5-.6-3.4-1.5-5.8-1.5z"/></g><path d="m55.4 43.3c-2.6 1.1-5 1.2-8.5-.2-2.6-1 1.3 1.8 1.6 3.2s-.3 5.6.7 3.1 2.8-2.6 4-.2c1.1 2.3 1.2-3.8 1.7-4.4s3.1-2.6.5-1.5z" fill="#f06799"/><path d="m29.4 41.3c7.3.6 13.1 1 17.5 2.9-2.9-2.4-7.8-3.1-17.5-2.9z" fill="#ffd1e2"/><path d="m71.9 41.9c-8.9 0-13.1-.1-15.6 2.1 4-1.7 9-1.4 15.6-2.1z" fill="#ffd1e2"/></g></svg>