<svg enable-background="new 0 0 96 96" viewBox="0 0 96 96" xmlns="http://www.w3.org/2000/svg" xmlns:xlink="http://www.w3.org/1999/xlink"><clipPath id="a"><circle cx="48" cy="48" r="48"/></clipPath><linearGradient id="b" gradientUnits="userSpaceOnUse" x1="48.1219" x2="48.1219" y1="75.4503" y2="80.8947"><stop offset="0" stop-color="#e88958"/><stop offset=".3384" stop-color="#f49d62"/><stop offset=".6924" stop-color="#fcab69"/><stop offset="1" stop-color="#ffb06b"/></linearGradient><path clip-path="url(#a)" d="m0 0h96v96h-96z" fill="#fff"/><g clip-path="url(#a)"><path d="m43.9 82.6-1.9-3.7c-2.6 1.3-3.2 4.1-3.9 7.2-.4 1.6-1.8 7.7-2.7 9.9h4.5c.6-2.1 2-7.7 2.3-9 .4-2 .9-4 1.7-4.4z" fill="#bcceeb"/><path d="m54.2 78.9-1.9 3.6c.8.4 1.3 2.5 1.7 4.5.3 1.3 1.6 6.9 2.3 9h4.5c-.8-2.2-2.3-8.3-2.7-9.9-.6-3-1.3-5.9-3.9-7.2z" fill="#bcceeb"/><path d="m56.6 88.9c1.3-3.3 1.4-4 .6-5.9-3.3-8-12.2-6.8-15.2-4.1-1 .9-1.7 2.1-1.9 3.3-1.3 3.4-.1 5 .7 7.9.4 1.7.6 3.7.3 5.9h14.5c-.3-2.1-.1-4.3 1-7.1z" fill="#3a3a4a"/><path d="m48.3 89.6c-.4 0-.6.3-.6.6 0 .4.3.6.6.6.4 0 .6-.3.6-.6s-.3-.6-.6-.6z" fill="#fff"/><path d="m48.4 93.6c-.4 0-.6.3-.6.6 0 .4.3.6.6.6.4 0 .6-.3.6-.6s-.3-.6-.6-.6z" fill="#fff"/><path d="m52.9 77.9c-2.3-1.3.2-7.4-1.7-8.9-1.4-1.1-3.7-1.2-5.4-.6-3.2 1.3 0 8.7-3.1 10.1-.6.3-.7 1 .4 2.9 1.5 2.4 2.5 3.6 5.3 4.9 2.3-1 4.6-3.3 5.3-5.3.6-1.8-.2-2.7-.8-3.1z" fill="url(#b)"/><path d="m48.5 86.3c-.7 0-6.7-1.6-6.7-1.6l.5 5.6s5.7-3.7 6.2-3.7c.6 0 6.4 3.5 6.4 3.5v-5.7c-.1 0-5.4 1.9-6.4 1.9z" opacity=".3"/><path d="m52.9 77.9s1.4 2.3-.1 4.6c-1.1 1.8-4.4 3.8-4.4 3.8l6 2.6c.1 0 1.6-9.5-1.5-11z" fill="#4e4e5e"/><path d="m44.3 83c-2-2.8-1.4-4.7-1.4-4.7-2.9 2-.3 10.6-.3 10.6l5.9-2.5c0-.1-2.8-1.3-4.2-3.4z" fill="#4e4e5e"/><path d="m50.2 89.2c-.3 0-.3 3.6.1 3.7s5.3 0 5.6-.1.3-3.3 0-3.6c-.3-.2-5.7 0-5.7 0z" fill="#f06799"/><path d="m55.5 89.8c-.3-.1-4.9 0-4.9 0-.3 0-.3 1.4.1 1.4h4.8c.2-.1.2-1.3 0-1.4z" fill="#f5f5f5"/><path d="m23.3 26.8c-3.8 10.4-4 18.3-6.4 34.7-.6 4.1-3.1 10.5-1.9 13 1.6 3.5 5.6 1.4 8.9 2.4 3.6 1.1 7.5 2.7 8.3-2.3.4 1 .5 2 .4 3 2.8 0 12.1-3.1 18.5-3 5.7.1 17.5 5.1 19.8-1.5 1.7-4.9 3.1-26.5 2.2-33.6-.1-.4 1.7-1.1 1.7-1.4.2-1.3.2-2.2.3-2.5 1-28-42.5-34.6-51.8-8.8z" fill="#261b18"/><path d="m45.6 22.7c-11 2.1-18.7 18-16.7 32.9 1.5 11 11.7 21.9 22.3 21.9 11.3 0 20.2-17.3 18.6-30.4-1.8-14.9-8.8-27.4-24.2-24.4z" fill="#ffb06b"/><path d="m64.9 26.9c-6-2.4-11.8-3.8-18.3-4-4-.1-9.4-.4-13.1 1.3-5.6 2.4-8 6.1-8.8 11.8-.5 3.9 3.3 7.6 6.3 10 2.1-2.1 1.1-4.9 1.1-7.3.5 2.8 2.8 2 5.2 2.1 2.1.1 5.8 1 7.7 0 .9-.5 1-1.1 1.4-2 .3.4.7.7 1.2 1 1.4.7 3.3.5 4.9.5 2.3.1 4.8.3 7.1-.4 1-.3 1.6-.6 1.9-1.8.4 2.4 3.9 2 5.9 1.9 3.1-.2.7-11.8-2.5-13.1z" fill="#bf3c1b" opacity=".3"/><path d="m25 49.4c-5.4 1.5-3.2 9.4 1.2 11 1.4.5 2.9.6 4.4.5 0 0 .1-.1.1-.1.6-1-.2-6.8-.6-7.9-.9-2.8-2.5-4.2-5.1-3.5z" fill="#ffb06b"/><path d="m26.9 52.3c-1.2-.6-4.2.4-2.8 2.8.8-2.2 2.1-.8 1.9.8-.1 1.1-1.3 1.1-.1 2.4.6.7 1.8.5 2.4.1 1.9-1.2.1-5.4-1.4-6.1z" fill="#b54319" opacity=".5"/><path d="m61.5 19.7c-6.1-5.2-14-5.2-21.4-3.9-2.9.5-6.9 1.2-9.5 2.6-2.2 1.2-3.1 4.2-4.1 6.4-1.8 4-2.4 8.8-2.8 13.1-.2 2.3.7 4.7.9 7s1.2 4.2 1.7 6.5c.6 3.4.4 6.9-.7 10.2-.5 1.4-1.6 2.5-.5 3.8.8 1 2.7 1.4 3.6.5.7-.7 2.1-6.9 2.4-8.4.7-3.8.6-8.3.5-12.2-.1-3.7 0-7.4 1.2-10.9-.1 1.5.5 3.4.6 5 3.7-.4 7.7-.1 11.4-.3.6-1.2 1-2.5 1.2-3.8v-.1.1c.2.7.5 2.2 1 2.5.9.7 3.5.3 4.6.4 2 .1 5.5.9 7.4 0 1.3-.5 1.5-1.7 1.8-3 0-.1 0-.1 0 0 .4.7.6 1.9 1.2 2.2.7.4 2.8.6 3.7.7 1 0 3.4.1 4.4-.1 2.9-.5.8-5.7.1-7.6-1.9-4.1-5.5-8-8.7-10.7z" fill="#261b18"/><path d="m60.7 35.3c-.1 0-.1 0 0 0z" fill="#261b18"/><path d="m43.8 13.1c-5.7.6-13.7 5.1-16.2 10.3-5.7 11.6-7.9 24.4-8.3 37.1-.1 3.2-2 8.2-1.8 11.1.2 2.7 1.5 2.8 3.6 1.2 2.8-2-.3-12.5.2-19.1.4-5.2 4.6-5.4 6.1-12.2 1.6 9.1.2 21.1-3.3 31.1 12-20.2 2.6-30.8 8.8-44.3 2.7 3.1 7.5 4 11.6 2.3 3.6-1.5 8.6-1.8 12.4-.3 4.9 1.9 9.5 2.8 15.6.2-3-14.5-18.5-18.5-28.7-17.4z" fill="#57443a"/><path d="m64.8 51.7c-1.7-.3-4.1 0-2.9 2.7.6 1.4 7.2 3.4 6.9.3 0-.3-.1-.6-.2-.9-.7-1.3-2.5-1.8-3.8-2.1z" fill="#ffc48f"/><path d="m42.1 52.6c-1.3-1-3.2-.6-4.5-.2-1.7.5-3.8 1.9-1.5 3.9 1.2 1.1 8.4-.2 6.6-3-.1-.3-.3-.5-.6-.7z" fill="#ffc48f"/><path d="m53.4 54.3c-1.4-.1-1.4-.9-2.4-.3s-.3 2.8 2.2 2.9 3.7-1.7 3.2-2.5c-.6-.9-1.5 0-3-.1z" fill="#b54319" opacity=".5"/><path d="m53 50.1c-1.2 0-2.9 3.9-2.3 4.5 1.4 1.5 4.6.8 5.5-.2.4-.3-1.9-4.3-3.2-4.3z" fill="#ffc48f"/><path d="m66.3 45.7c-3.9-1.7-7.5 3.2-4.7 5.7.6-.6 3.6-1.6 5.5-.2 1.6-1.2 1.3-4.6-.8-5.5z" fill="#261b18"/><path d="m64.7 46.3c-1.8.6-1 4.1.9 2.8 1.3-.9.7-3.3-.9-2.8z" fill="#a87f7f"/><path d="m37.2 46c-2.1 1-2.3 4.4-.7 5.5 1.8-1.5 4.9-.6 5.5 0 2.7-2.5-1-7.3-4.8-5.5z" fill="#261b18"/><path d="m39.5 46.5c-1.6-.5-2.2 2-.8 2.9 1.9 1.1 2.6-2.4.8-2.9z" fill="#a87f7f"/><path d="m42.5 40.4c-1.9.1-3.8.3-5.7.9-1.2.4-2.6 1.1-3.4 1.9-.3.3-.6.7-.6 1.1.3 0 .5-.2.8-.3 1.4-.5 3-.7 4.4-.9 1.2-.1 2.3-.2 3.5-.3.8-.1 1.9-.1 2.2-.9.4-1-.2-1.6-1.2-1.5z" fill="#261b18"/><path d="m66 40.9c-1.8-.6-3.6-.7-5.5-.8-1 0-1.7.5-1.2 1.4.3.8 1.4.7 2.1.8 1.1.1 2.3.2 3.4.3 1.5.1 3 .3 4.3.8.3.1.5.3.8.3.1-.4-.3-.8-.6-1.1-.8-.7-2.2-1.3-3.3-1.7z" fill="#2b221c"/><path d="m65.5 45c-3.6-.7-4.6 2.9-4.6 2.9s1.7-2.3 4.1-1.3c5.3 2.3 8.1-1.5 8.1-1.5-3.8 1.8-5.8.2-7.6-.1z" fill="#121b21"/><path d="m38.1 45.4c-1.8.4-3.8 2-7.6.2 0 0 2.8 3.8 8.1 1.4 2.3-1 4.1 1.2 4.1 1.2s-1-3.5-4.6-2.8z" fill="#121b21"/><path d="m37.1 59.5c6.1 9.1 9.9 10.7 14.6 10.9 5.9.3 7.9-3.5 8.7-6.4.4-1.2 3.3-4.3 4.4-5-3.7.9-7.3.5-12.8.7-4.6.3-11.3 1.6-14.9-.2z" fill="#c4170e" opacity=".35"/><path d="m39.9 61.1s3.7 6.1 11 6.2c4.7 0 7.8-1.5 8.6-3.6.9-2.3 2.9-3.2 2.9-3.2-12.7 3.1-22.5.6-22.5.6z" fill="#8f2621"/><path d="m42.6 61.6s.2 1.9 2.9 2.5c3.4.9 7 .9 10.7.3 2.5-.4 3.7-3.3 3.7-3.3s-7.2 1.7-17.3.5z" fill="#fff9f0"/><path d="m52.7 64.7c-3.4.2-6.1 0-7.8-1-1.2-.7-1.3.1-1 .6 0 0 1.1 2.5 6.7 3.1 5.4.5 8.1-2.6 7.5-3.1-.7-.6-2.3.2-5.4.4z" fill="#fff9f0"/><g fill="#e8dac5"><path d="m42.6 61.6s.2.9.7 1.3c0 0 12.5-1.2 15.5-.2 0 0 .9-1 1-1.6 0 0-8.7 1.6-17.2.5z"/><path d="m45.9 64c4.5 2.5 9.9.3 9.9.3-5.7 1.3-9.9-.3-9.9-.3z"/></g></g></svg>