<svg enable-background="new 0 0 96 96" viewBox="0 0 96 96" xmlns="http://www.w3.org/2000/svg" xmlns:xlink="http://www.w3.org/1999/xlink"><clipPath id="a"><circle cx="48" cy="48" r="48"/></clipPath><path clip-path="url(#a)" d="m0 0h96v96h-96z" fill="#fff"/><g clip-path="url(#a)"><path d="m22.4 96h9.7l-1-16c-6.8 3.2-8.9 4-8.7 16z" fill="#1e1e29"/><path d="m63.4 80-1 16h9.7c.3-12-1.8-12.8-8.7-16z" fill="#1e1e29"/><path d="m58.6 78c-7-3.8-17.3-2.5-22 .6-5.5 3.6-5.3 9.1-4 17.4h29.6c1.4-8.2 1.7-15.1-3.6-18z" fill="#e8e8e8"/><path d="m50.5 86.7s-.9-2.2-3.7-1.7c-2.5.5-2.8 2.6-2.8 2.6l2 2.1-1.7 6.3h6.5l-1.6-6.7z" fill="#313142"/><path d="m64.8 81.3c-.6-1.6-7.6-3.9-7.6-3.9-1.7 5.4-2.2 12.4-2.2 18.6h9.3c.4-8 .8-13.8.5-14.7z" fill="#1e1e29"/><path d="m37.4 77.4s-7 2.3-7.6 3.9c-.3.9 0 6.7.5 14.7h9.3c0-6.2-.6-13.2-2.2-18.6z" fill="#1e1e29"/><path d="m37.9 82.5c1.4 4.6 6.1 7.2 6.1 7.2l3.3-3.7 4.4 3.6c3-1.5 5.9-5.2 5.9-8.3 0-2.2-21.1-3.4-19.7 1.2z" opacity=".1"/><path d="m37.9 77c-3.7 5 5.7 11.4 5.7 11.4l3.7-2.9 4.2 3s8.5-4.7 5.5-11c-2.8-5.7-15.3-5.6-19.1-.5z" fill="#f5f5f5"/><path d="m54 71.5c-2.4-1.9-7-2.2-9.8-1.6-2.9.6-4.9 3.4-5.1 6.2-.3 3.6 5 8.4 8.7 8.5 2.7.1 14.5-6.6 6.2-13.1z" fill="#ed9d6c"/><path d="m57.1 77c-2.5 8.6-2.3 17.4-2.1 18.5.1.7 8.4-9.2 8.3-9.6-.1-.3-3.2-2.7-3.2-2.7l3.5-4c-3.5-1.8-6.5-2.2-6.5-2.2z" fill="#313142"/><path d="m30.9 79.3 3.5 4s-3.1 2.4-3.2 2.7 8.3 10.4 8.4 9.7c.2-1.1.4-10-2.2-18.7 0 0-3.1.4-6.5 2.3z" fill="#313142"/><path d="m71.3 44.5c.2-4.2-.7-9.2-1.7-13.1-3.3-12.2-16.1-19-28-16.2-27.9 6.5-21.9 39.5-13.8 37.8 5-1 9.9-2.3 14.8-3.6 4.8-1.2 10.4-1.7 15.2-.1 1.4.5 2.6 1.4 4.1 1.8 4.8 1.3 8.9-.6 9.4-5.8 0-.2 0-.5 0-.8z" fill="#303030"/><path d="m70.7 36.4c-3 .3-1.7 4.4-1.6 6.3.1.8-.3 3.4 1.1 3.2 1.3-.2 1.2-2.7 1.2-3.5 0-1.7-.7-6-.7-6z" fill="#999492"/><path d="m25.7 50.3c1.9 7.6 1.8 9.4 4.7 17 2.9 7.7 10.4 12.5 20.7 12.1 9.4-.3 12.9-5.1 15.5-13.1 1.8-5.6 3.3-11.9 2.9-18.9-1-15.1-11.5-26.7-23.6-25.9s-23.9 14.2-20.2 28.8z" fill="#ffb67d"/><path d="m23.2 58.2c1.5.5 3.2.5 4.8.4 0 0 .1-.1.1-.1.7-1-.4-6.2-.7-7.2-.8-2.7-2.3-4.6-5.2-3.8-6 1.5-3.8 9.2 1 10.7z" fill="#ffb67d"/><path d="m30.5 49.8c-.4 2.3-2.9-3.4-3-4.3-.5-4.5 3-7.8 5.3-11.1 2.4-3.5 6.6-4.9 10.6-5.6 5.7-1 12.5-2.5 18.1-1.5 5.4.9 7.8 5.5 1.8 9.5s-11.6 5.7-18.7 6.2c-2.7.2-9.8-.8-12.4-1.4-.5 0-1.1 4.8-1.7 8.2z" fill="#bf3c1b" opacity=".3"/><path d="m69.1 26.3c.1-2.3-.7-4.7-3-6.7-4.5-4-10.8-5.7-16.6-6.2-14-1.2-25.4 6.2-28.1 21.2-1 5.6 1 11.1 3.4 13 1.8 1.5 2.7 6.1 5.7 4.6 1-.5.8-1.4.5-2.3-1-3.2-1.4-6.9.5-9.9 9.2 2.3 22.1-.4 30.6-4.5 3.9-1.8 6.8-5.4 7-9.2z" fill="#303030"/><path d="m21.1 38.3c1 .9 1.6 2.3 3.1 2.5 1.4.2 2.3-1.3 3.9-.6 2 .9 1.5 4 1.7 5.8.1 1.3.5 2.7.8 4.3-1.4 1.3-1.7-1.7-4.7-3.4-2.4-1.3-3.3-.5-4.5-2.9-.6-1.3-.6-3.8-.3-5.7z" fill="#999492"/><path d="m26.3 56.7c2.8-.9.9-5.4-.9-6.3-1.5-.8-5.7-.3-4.1 2.3 1.3-2.1 2.9-.4 2.4 1.1-.3 1-1.8.8-.5 2.4.6.8 2.2.8 3.1.5z" fill="#b54319" opacity=".5"/><path d="m65.6 22c1.6 2.9 1.3 6.6-2.2 10-4.8 4.6-11.4 6.8-17.7 7.6-2.3.3-4.8.4-7.1.3 2.2 0 4.9-.4 6.8-1.6-5.7 1-12.8.9-18.2-1.1-1.1-.4-2.3-.9-3.3-1.3.9 0 9.3 1.1 11.2.6-9.8-1.8-9.5-6.1-9.4-6.8.4-1.7 1.3-3.5 2.2-5 3.7-6.5 11.6-9.5 18.4-9.8 5.6-.3 16.1 1.4 19.3 7.1z" fill="#595655" opacity=".7"/><path d="m67.7 30.2s-1.9 7.9-20.1 12c0 0 11.1-3.5 16.5-10.3z" fill="#303030"/><path d="m38.9 50.6c1.4-1.2-2.9-1.4-3.5-1.2.1.9 2 .5 2.6.6-.5.5-2 .5-2.6.9-.7.4-.6.7.2.6.4 0 3-.6 3.3-.9z" fill="#b54319" opacity=".3"/><path d="m64.9 50.3c-.9-1.3 2.7-1 3.2-.8-.2.8-1.7.2-2.2.3.3.6 1.6.7 2 1.2.5.4.4.7-.3.6-.4-.1-2.4-1-2.7-1.3z" fill="#b54319" opacity=".3"/><path d="m67.8 43.7c.1-.1.2-.1.3-.3 2.6-3.5-9.2-5.2-8.2-.9.5 2.1 2.7 1.2 4 1.1.9 0 3 .6 3.9.1z" fill="#303030"/><path d="m36.2 43.8c-.1-.1-.3-.2-.4-.3-2.8-3.5 10.1-5.4 9-1-.6 2.2-3 1.3-4.4 1.1-.9.1-3.1.7-4.2.2z" fill="#303030"/><path d="m67.8 53.7c.1.2.2.5.2.8.2 3-5.7 1.3-6.2-.1-.9-2.5 1.2-2.8 2.7-2.6 1.2.2 2.8.6 3.3 1.9z" fill="#f59d66"/><path d="m40.1 52.4.6.6c1.6 2.6-4.8 3.9-5.9 2.9-2.1-1.8-.2-3.1 1.3-3.7 1.2-.4 2.9-.7 4 .2z" fill="#f59d66"/><path d="m40.7 51.6c-.8-.5-1.8-.7-2.6-.5-1.7-1.8.6-6.5 3.1-5 1.9 1 1.4 4.7-.5 5.5z" fill="#1f1a17"/><path d="m64.3 57.2c-.4-1.2-3.1-.6-3.1-.6-.5.1.4.3 1.5.7.2.1.3.2.4.4-4.6 2.7-16.1 4.6-23.8-.2l.2-.2c1.1-.8 2.6-.8 2.2-1.1 0 0-2.5-.2-3.5.6-.9.7-1 3-.3 3.1.6.1.7-1.1 1.2-2 .4 2.5 2.5 13.1 11 13.6 6.4.3 8.6-3.1 9.1-7.2.3-2.3 2.6-5 4.1-6.3.1.7-.4 1.7.1 1.8.6 0 1.4-1.4.9-2.6z" fill="#b54319" opacity=".5"/><path d="m40.5 59.2s9.4 5.6 20.7-.2c0 0-1.9 1.2-2.5 4.5-.4 2.4-1.4 5.9-8.3 6-7.6 0-9.9-10.3-9.9-10.3z" fill="#8f322d"/><path d="m43 60.3s-.1 3.3 2.2 4.6c2.9 1.7 6.3 2 9.8.9 2.4-.8 4-5.7 4-5.7s-6.8 2.8-16 .2z" fill="#fff3e2"/><path d="m43.6 65.3c-.2-.8-.1-1.8 1.1-1.1 1.5.9 4.3 1.5 7.5 1.6 3.3 0 4.1-1.7 4.7-.7.5.9-2 5.2-7.1 4.5-5.9-.9-6.2-4.3-6.2-4.3z" fill="#fff3e2"/><path d="m43.4 62.9s11.8-1.6 14.5-.2c0 0 .9-1.8 1.1-2.6 0 0-8.4 2.8-16 .2 0 0 0 1.8.4 2.6z" fill="#e8d5b8"/><path d="m45.4 64.2s4.4 2.1 10.8.6c0 0-5.8 2.9-10.8-.6z" fill="#e8d5b8"/><path d="m56.1 53.8c.6.6-.7 2.7-3.6 2.6-2.9 0-4.4-2.4-3.3-2.9s1.8.1 3.4.2c1.8.1 2.8-.7 3.5.1z" fill="#b54319" opacity=".5"/><path d="m55.9 54c.8-.6 0-8.2-3.3-8.3-2.9-.1-4.4 7.4-3 8.5 1.7 1.4 5.1.7 6.3-.2z" fill="#ffcb96"/><path d="m65.7 45.6c1.4 1.1.9 3.8-.4 4.9-.8-.3-1.8-.1-2.6.3-3-1.5.5-7.3 3-5.2z" fill="#1f1a17"/><path d="m39.8 46.9c1-.2 1.4 1.4.6 1.9-1.1.6-1.7-1.7-.6-1.9z" fill="#a88888"/><path d="m63.8 46.5c1-.1 1.2 1.6.3 1.9-1.3.4-1.5-1.9-.3-1.9z" fill="#a88888"/><path d="m53.3 77.2c-2.3.2.1-1 .1-1.9 0-.8-.8-2.2-1.6-2.1 1.3-.2 2.2-.2 2.9 1.4.5 1.2 0 2.5-1.4 2.6z" fill="#b54319" opacity=".3"/></g></svg>