<svg enable-background="new 0 0 96 96" viewBox="0 0 96 96" xmlns="http://www.w3.org/2000/svg" xmlns:xlink="http://www.w3.org/1999/xlink"><clipPath id="a"><circle cx="48" cy="48" r="48"/></clipPath><path clip-path="url(#a)" d="m0 0h96v96h-96z" fill="#7bc0db"/><g clip-path="url(#a)"><path d="m25.2 96h11.2l1.5-19.4c-9.8 3.1-11.9 4.3-12.7 19.4z" fill="#e8e8e8"/><path d="m66.3 63.7c-3.1 4.3.3 5.3 3.6 7.2 1.6 1 3.6 2.7 4.8 0 .7-1.6.6-2.8 1.1-4.4.4-1.4.9-3.2 1.7-4.3 2.2-3.2-1.5-11.7-11.2 1.5z" fill="#ffb97f"/><path d="m64.6 44c-.5-.5-1.4-.4-1.9.2l-7.2 8.1c-.5.6-.5 1.4 0 1.9l14.3 13c.5.5 1.4.4 1.9-.2l7.3-8.1c.5-.6.5-1.4 0-1.9z" fill="#404048"/><path d="m64.1 43.6c-.5-.5-1.3-.4-1.8.2l-7.1 7.9c-.5.5-.5 1.4 0 1.8l13.7 12.4c.5.4 1.3.4 1.8-.2l7.1-7.9c.5-.5.5-1.4 0-1.8z" fill="#141418"/><path d="m64.1 43.6c-.5-.5-1.3-.4-1.8.2l-7.1 7.9c-.5.5-.5 1.4 0 1.8l13.7 12.4c.5.4 1.3.4 1.8-.2l7.1-7.9c.5-.5.5-1.4 0-1.8z" fill="#1c1c26"/><path d="m64.3 46.3c-.4-.4-1-.3-1.4.1l-5.2 5.8c-.4.4-.3 1 .1 1.4l10.5 9.6c.4.4 1 .3 1.4-.1l5.2-5.8c.4-.4.3-1-.1-1.4z" fill="#fff"/><path d="m63.4 61.9c-.2.7 1 1.9 1.3 2.5.5 1-.2 2.9 1 3.6 1 .6 1.7-.2 2-1.1.6-1.6-.1-3.5-1.5-4.8-.6-.5-2.4-1.3-2.8-.2z" fill="#ffb97f"/><path d="m68.3 71.2s6 5.1 4.4 8.7c-1.6 3.5-9.6-.9-13-2.9-1.2-.7-2.1 8.5-1.8 8.7 5.8 4.1 16 6.7 21.3.4 6.5-7.7-3.1-19.4-3.1-19.4z" fill="#e8e8e8"/><path d="m75.8 68.2c-.5 0-1 .4-1 1 0 .5.4 1 1 1 .5 0 1-.4 1-1s-.5-1-1-1z" fill="#fff"/><path d="m59.1 76.6c-5.4-2.8-17.5-2.8-23.9 0-5.2 2.3-4.4 11.6-2.6 19.4h28.9c1.5-7.8 2.2-17.1-2.4-19.4z" fill="#e8e8e8"/><path d="m49.7 87.2 1.4-2.9s-1.1-2.5-4.2-1.9c-2.8.5-3.2 2.9-3.2 2.9l2.3 2.3-2.4 8.4h9.1l.2-.3z" fill="#313142"/><path d="m37.2 79.7c1.3 5.6 6.1 8.3 6.1 8.3l4.3-4.5 4.6 4.3c4.4-4.3 5.4-5.2 5.7-8.9.4-3.7-21.9-4.4-20.7.8z" opacity=".1"/><path d="m37.3 75.7c-2.1 6 5.7 10.9 5.7 10.9l4.6-3.2 4.3 3s8.6-4.9 5.3-11.9c-2.8-6.3-17.4-5.8-19.9 1.2z" fill="#f2f2f2"/><path d="m44.2 68.5c-2.9.6-4.8 3.4-4.9 6.2-.2 2.2.2 3.4 1.4 4.6.9.9 2.3 1.7 3.8 2.2 1.1.3 2.9 1.6 3.2 1.6.1 0 .7-.5 1.7-1 1.5-.7 3.5-1.7 4.3-3.3 1.2-2.3 2.2-6.9 0-8.6-2.3-2-6.8-2.3-9.5-1.7z" fill="#f2a66e"/><path d="m64.3 16.4c-7.4-8.2-19.7-9-33.6-3 1.3.1 3.9.3 7.2-.3-7.2 3.4-15.9 7.9-17.8 16.5-4.6 21.4 12.9 11.5 18.9 13.2 6.8 1.9 23.6-.2 28.3-7.3 2.1-3.2 2.2-7.9 1-12.1-.8-2.8-2.3-5.2-4-7z" fill="#2b221c"/><path d="m42.3 21.1c-11.4 2.2-19.5 18.7-17.4 34.2 1.6 11.6 10.5 24.3 23.9 23.3 13.7-1 20.5-18 18.7-32.3-1.9-15.4-9.2-28.3-25.2-25.2z" fill="#ffcb9e"/><path d="m57.3 23.9c-4.4-1.3-9-2-13.6-2.1-4.1-.1-8.5-.3-12.3 1.4-2.1.9-4.7 2.2-5.5 4.5-.6 1.9-1.4 4.3-.4 5.9 2.2 3.4 6.4 1.4 8.1.5 3.5-1.8 19.4-.6 26.8-.6 3.1 0 7.5-.5 6.3-4.7-1-3.3-6.5-4-9.4-4.9z" fill="#bf3c1b" opacity=".3"/><path d="m20.9 48.8c-5.6 1.6-3.4 9.8 1.2 11.4 1.5.5 3 .6 4.5.5 0 0 .1-.1.1-.1.7-1.1-.3-7.1-.6-8.2-.8-2.8-2.5-4.3-5.2-3.6z" fill="#ffcb9e"/><path d="m22.9 51.9c-1.3-.6-4.4.5-2.9 2.9.8-2.3 2.2-.8 2 .8-.1 1.1-1.3 1.1-.2 2.5.6.8 1.9.5 2.5.1 2.1-1.3.1-5.6-1.4-6.3z" fill="#c94614" opacity=".3"/><path d="m60.2 16.7c-8.6-4.5-21.9-3.4-29.1 2-4.9 3.7-7.5 8.1-7.2 14.3.2 3.4 4.7 3.9 6.6 1.5 1.6-2.1 3.9-2.6 6.5-2.7 4.3-.2 21.3-1 25.3.4 2.2.8 5.1 1.9 5.5-1.6.5-3.8-.5-7.8-3.1-10.6-1.3-1.3-2.8-2.4-4.5-3.3z" fill="#2b221c"/><path d="m62.2 18.1c-3.3-3.1-7.8-5.5-12.2-5.9-2.3-.2-6.9-.1-9.1.8.7.4 2.6.8 3.3 1.3-3.2.7-6.2 1.7-9.2 3-1 .5-8.6 5.7-8.6 5.7 2.1 1.1 4.6.7 6.8.2 3.5-.8 6.9-1.1 10.3-.3 3.2.7 6.1 2.4 9.3 3.1.1-1.5-1.3-2.7-1.9-3.7 1.8 0 8.9 4.4 10.3 5.6-.3-1.2-2.1-3.8-2.2-5.2 1.8.3 5.8 3.9 7.1 6 .1-1.7 0-3.8-.5-5.3-.6-2.1-1.8-3.7-3.4-5.3z" fill="#45362e"/><path d="m21.7 39.8c-.2 3.9.2 8.3.4 8.9 2.7.3 6 3.9 6 3.9-.9-6.5.1-10 1.4-17.3-2.6 0-7.6 1-7.8 4.5z" fill="#2b221c"/><path d="m65.4 53.1c-.9-1.3-2.8-1.6-4.2-1.6-1.8 0-4.2.6-2.6 3.2.8 1.4 8 2.5 7.2-.7-.1-.3-.3-.6-.4-.9z" fill="#ffa073"/><path d="m38.6 52.8c-1.2-1.1-3.3-.9-4.7-.5-1.8.4-4.1 1.7-1.8 3.9 1.2 1.2 8.7.4 7.1-2.6-.1-.4-.3-.6-.6-.8z" fill="#ffa073"/><path d="m35.9 45.2c-2.9-1.3-4.8 4-2.8 5.7.9-.3 2-.2 2.9.3 2-1.1 2.1-5.1-.1-6z" fill="#261b18"/><path d="m49.9 54.6c-1.7 0-2.4-.8-3.6-.1s.5 3 3.6 2.9c3-.1 4.3-2.2 3.7-3-.8-.8-1.8.2-3.7.2z" fill="#b54d26" opacity=".3"/><path d="m49.4 48.1c-3.2-.3-3.5 6.6-2.7 7.2 1.8 1.4 5.6.4 6.7-.7.4-.5-.9-6.2-4-6.5z" fill="#ffdfc2"/><path d="m64.2 45c-3-1.8-5.2 4-2.7 5.6.8-.5 2.4-.4 3.1 0 1.2-1.3 1.2-4.7-.4-5.6z" fill="#261b18"/><path d="m34.5 46.5c-1.2.4-.3 2.7.9 1.9.8-.7.2-2.3-.9-1.9z" fill="#e6d2c3" opacity=".7"/><path d="m62.7 46c-1.2.2-.6 2.6.6 1.9.9-.5.4-2.1-.6-1.9z" fill="#e6d2c3" opacity=".7"/><path d="m38.7 38.7c-2-.3-4-.2-6 .4-3.1.9-3.3 2.4-3 3.5.2 1 1.3.5 4.8.4 3.2-.2 5.6.5 6.1-1 .6-2-.8-3.2-1.9-3.3z" fill="#2b221c"/><path d="m65.4 38.9c-2.1-.5-4-.4-6.1 0-1.1.2-2.4 1.4-1.7 3.3.6 1.5 2.9.6 6.2.6 3.5 0 4.6.4 4.8-.6.2-1.1 0-2.6-3.2-3.3z" fill="#2b221c"/><path d="m68.7 62.5c-.1-1.3.8-2.7 1.1-4.1.6-3.2.8-9.1-2.2-11.1.6 6-1.2 10.6-2.4 11.7-2.4 2.3-5.4-.8-6.5-1.6-3.1-2.2-4.9-1.2-8.6-.8-4.9.1-7.4-1.3-10.7 3.1-2.6 3.4-9.1 2-10.5-6.9-.2-1.4.1-4.6-2.1-3.9-2.5.8-.5 13.4-.5 15.9 0 2 .2 6.4 2.6 6.9-.7 2.4-.3 6.4 3.2 5.4-.2 2-.3 4.2 1.5 5.4 1.4.9 4.3.9 5.4-.4.9 1.7 2.1 3.2 4.1 3.7 1.6.3 4.6.1 5-1.8 1.6 1.9 10.4 3.7 10.2-.4 3.2 2.5 7.1 0 6-3.9 3.4.3 4.3-1.4 3.9-4.5 2.9-.7 2.9-4.1 2.5-6.5-.2-2.1-1.8-4.2-2-6.2z" fill="#2b221c"/><path d="m54.7 61.7c-.6 1.6-3.5.6-4.6-.1-1.1 1.2-4.1 1.5-5.2.4-.2.9-3.1 1.7-3.3 2.9 2.5 4.3 15.8 2.7 17.2-.5-.2-1.2-3.1-1.8-4.1-2.7z" fill="#f5b37a"/><path d="m45.2 63.9s5.9.8 9.4-.4c-1.5-.8-8.1-.3-9.4.4z" fill="#bf795c"/><path d="m53.4 69.1c-3.5.6-8-.2-11.5-1-2.1-.5-3-1.1-4.7.4-1.1.9-2.2 2.1-2.9 3.3-1.1 1.7-.8 8.2 1.5 5.2.3 3.5 3.3 2.7 5.1.7.5 1.8.3 3.1 2.6 3.4 1.5.2 3-.5 3.9-1.7 1.4.6 3 3.3 4.8 2.5 1.3-.6.6-2.7 1.4-3 1.3-.6 3.6 2.8 5.1 1.1 1-1-.4-2.7-.9-3.6 1.3.7 4.8 1.8 5.9.1.6-.9-.3-2.7-.6-3.6.3.9 2.5.2 2.7-.5.4-1-1.1-2.5-1.6-3.2-3.3-3.9-6.6-.8-10.8-.1z" fill="#45362e" opacity=".5"/><path d="m63.6 56c-.5-.2-1.4-.1-2-.1-.8-.1-1.7-.1-2.5-.3-1-.2-2.1-.7-2.9-1.3-.6-.5-1.1-1-1.5-1.7-.7-1.4-.7-3.1-.2-4.6.8-2 3-2.1 4.9-2.2 2.3-.1 4.7 0 7-.3.3 0 0-1.9-.1-2.1-.3-.7-.7-1.2-1.3-1.4-1.8-.6-4.2.1-5.9.5-1.8.4-3.8.6-5.5 1.4-1.5.7-2.2 1.2-4 1.1-3.2-.2-5.9-2.3-9.1-2.7-3.3-.4-6.8-.9-10.1-.1-.9.2-3.5 1.1-1.8 2.1 1.7.9 4.3.7 6.1.8.9.1 1.7.1 2.6.2 3.1.4 7.8.1 7.5 3.9-.2 2.6-2 5.3-4.1 5.8-2.1.4-4.3.6-6.3.5-1.6 0-3.1-.4-4.5-1.1-.4-.2-1.6-1-2-.5-.7.9 1.8 2.6 2.4 2.9 1.5.7 3.1 1 4.7 1.2 4 .5 8.1.4 10.5-3.2 1.4-2.1 2.1-4.6 3.3-6.8 2.1-3.6 2.9 1.4 3.5 3.5.3 1.2.8 2.4 1.5 3.4 1.2 1.8 3.8 2.9 5.9 3 1.3.1 5.7 1.1 7-1.4.3-.7-2.2-.1-3.1-.5z" opacity=".1"/><path d="m26.9 41.8c-2.6.2-4.9-.5-5.5.1-.8.7.7 3 .7 3s.9.6 2.1.6c.2 1.8.3 6.6 3.8 9.5 2.9 2.4 12.1 2.8 14.9 1.3 3.5-1.9 4.9-5.3 5.4-8.6 1.2-8-17.7-6.2-21.4-5.9zm16.1 12.3c-3.4 2.4-12.4 1.6-14.8-1.2-1.9-2.2-2.3-6.8-1.3-7.5 3.3-2.1 15.9-1.8 18.9.3 1.4 1.1-.2 6.6-2.8 8.4z" fill="#3a3a4a"/><path d="m70.7 41.7c-3.4-.2-20.4-1.9-19.3 6.2.5 3.3 1.7 6.6 4.9 8.5 2.5 1.5 10.9 1 13.5-1.4 3.1-2.9 3.2-7.7 3.4-9.5 1.1-.1 1.9-.6 1.9-.6s1.4-2.3.6-3.1c-.5-.6-2.6.1-5-.1zm-1.2 11.2c-2.2 2.8-10.3 3.7-13.4 1.3-2.3-1.8-3.8-7.3-2.5-8.3 2.7-2.2 14.1-2.6 17-.5 1.1.7.6 5.3-1.1 7.5z" fill="#3a3a4a"/><g fill="#fff"><path d="m55.9 45.4c-1.9.7 1.4 1.9 2.1 2 2.5.5 5.4.5 8.1.2 1.4-.2 4.5-1.3 3.7-2.1-1.1-1.2-11.8-.9-13.9-.1z" opacity=".3"/><path d="m64.3 45.4c-1 .1-1.7.4-1.4.8.5.9 6.5.8 6.9.1.3-.6-3.4-1.1-5.5-.9z"/><path d="m57.6 52.2c-.6 0-1.1.1-1 .5.2.8 3.9 1.4 4.2.9.4-.5-1.8-1.3-3.2-1.4z" opacity=".7"/><path d="m30.2 52.2c-.7-.1-1.1 0-1.1.4.2.8 4 1.6 4.4 1.2s-1.9-1.4-3.3-1.6z" opacity=".7"/><path d="m44.4 45.4c-2.4-.8-14.1-1.2-15.3-.2-.8.8 2.7 1.9 4.3 2.1 3 .4 6.2.4 8.9 0 .7-.2 4.2-1.2 2.1-1.9z" opacity=".3"/><path d="m39.2 44.9c-1.1.1-1.8.3-1.6.8.5.9 6.8 1 7.3.3s-3.4-1.3-5.7-1.1z"/></g><path d="m54 43.2c-2.7.8-5.2 1-8.5 0-2.6-.8 1.3 1.6 1.6 3 .3 1.3-.2 5.7.7 3.3s2.6-2.5 3.7-.2 1.3-3.6 1.8-4.2c.6-.6 3.3-2.6.7-1.9z" fill="#3a3a4a"/><path d="m28.2 42.5c7.1.1 12.8.1 17.2 1.6-2.9-2.2-7.8-2.5-17.2-1.6z" fill="#c1c5c9"/><path d="m54.8 44c3.9-1.6 8.7-1.1 15.2-1.7-8.6-.2-12.7-.4-15.2 1.7z" fill="#c1c5c9"/></g></svg>