<svg enable-background="new 0 0 96 96" viewBox="0 0 96 96" xmlns="http://www.w3.org/2000/svg" xmlns:xlink="http://www.w3.org/1999/xlink"><clipPath id="a"><circle cx="48" cy="48" r="48"/></clipPath><path clip-path="url(#a)" d="m0 0h96v96h-96z" fill="#86b7e2"/><g clip-path="url(#a)"><path d="m22.3 96h10.7l-5.9-14.2c-1.9 1.5-4.7 4.6-4.8 14.2z" fill="#8d573e"/><path d="m66.8 81.3-5.8 14.7h11.3c-.1-9.6-3.6-13.1-5.5-14.7z" fill="#8d573e"/><path d="m36.5 77.2c-4.3 3.6-5.5 8 1 14.3 2 2 3.8 3.4 5.4 4.5h8.1c4-4.3 10.9-12.7 9.1-17.1-3.1-7.5-19.3-5.3-23.6-1.7z" fill="#ebebeb"/><path d="m51.5 84.4s-1.1-2.5-4.3-1.9c-2.8.5-3.2 3-3.2 3l2.3 2.4-2.4 8.1h9.3l-3.2-8.6z" fill="#3a3a4a"/><path d="m36.3 77.9c.2-.5.5-1 .8-1.5-3.4 1.5-9.7 4.5-10.3 5.6-.5.9 2.6 7.3 4.1 13.9h13.5c-4.1-5.4-9.6-13.8-8.1-18z" fill="#8d573e"/><path d="m58.8 76c.2.5.9 1.5.8 2-.5 5.8-4.5 13.1-7.5 18h12.1c1.1-5.5 3.3-13.8 2.7-14.5-1-1.2-6.2-4.5-8.1-5.5z" fill="#8d573e"/><path d="m57.5 75.4c.8 7.7-3.2 15.7-6.1 20.6h4.5c3.2-2.9 6.2-5.7 6.2-5.9-.1-.7-2.7-4.6-2.7-4.6l4.7-2.8c-2.3-4.5-6.6-7.3-6.6-7.3z" fill="#a1664c"/><path d="m31.4 83.6 5.6 2.2s-2.4 4.9-2.5 5.7c0 .2 2.5 2.2 5.4 4.5h5.3c-3.1-4.4-7.2-11.6-7.2-19.7 0 0-4.7 2.4-6.6 7.3z" fill="#a1664c"/><path d="m37.9 81c1.5 4.9 5.5 7.3 5.5 7.3l4.5-4.3 4.8 4.1c4.6-4.1 5.5-6.7 5.9-8.1 1.3-4.7-22.7-5.4-20.7 1z" opacity=".1"/><path d="m37.1 76.5c-2.2 5.8 6 10.5 6 10.5l4.9-3.1 4.5 2.9s9-4.7 5.6-11.4c-3.1-6.1-18.3-5.6-21 1.1z" fill="#fbfbfb"/><path d="m44.4 68.5c-2.9.6-4.8 3.4-5 6.3-.2 2.2.2 3.5 1.4 4.7.9.9 2.3 1.8 3.8 2.2 1.1.3 2.9 1.6 3.3 1.6.1 0 .8-.5 1.8-1.1 1.5-.8 3.6-1.8 4.4-3.4 1.2-2.3 2.3-7 0-8.8-2.4-1.9-6.9-2.2-9.7-1.5z" fill="#ed9d6c"/><path d="m68.1 22.3c2.2-.6 1.7-6 1.5-7.5-.2-1.4-.4-2.8-.9-4.2-.6-1.6-1.4-3-2.6-4.1-2.1 4.2-7.8 6.5-12.3 5.8.6-.6 1.1-1.3 1.1-2.2-1.8.4-3.4 1.2-5.2 1.6-7.2 1.3-14.3 1.5-20.3 6.3-8.4 6.8-7.1 17.9-5.4 27.2.9 5 1.7 10.7 4.1 15.3 1.7 3.3 3.4 1.9 5.9.6 3.2-1.7 8-2 11.5-2.2 3.7-.2 9-.5 12.5 1.1 2.2 1.1 3.4 1.9 5.7.2 1.7-1.3 2.9-3.3 3.8-5.2 1.4-3 1.4-6.1 1.7-9.4.3-4.2 1.4-7.7 1.1-12-.1-1.5-1.9-7.2 1.4-12-1.3.2-2.5.4-3.6.7z" fill="#ba9552"/><path d="m43.8 21.9c-11.3 2.2-19.2 18.5-17.2 33.8 1.6 11.5 10.4 24 23.6 23.1 13.5-1 20.3-17.8 18.5-31.9-1.9-15.3-9.1-28.1-24.9-25z" fill="#ffcb9e"/><path d="m58.3 24.3c-4.4-1.3-9-2.1-13.7-2.2-4.1-.1-8.6-.3-12.4 1.4-2.1 1-4.7 2.3-5.5 4.6-.6 1.9-.5 4.2-.4 6.2.1 1.8.1 3.8.5 5.6.3 1.4 1.3 3 2.4 4 1.7-3.4 2.4-8.9 6.4-10.3 2.8-1 6.9-.3 9.8.5.2.1.4.1.6.2 5.1 1.6 8.2 3 13.7 1.7 3.1-.8 9.3-2.3 8.1-6.6-1-3.4-6.5-4.2-9.5-5.1z" fill="#bf3c1b" opacity=".15"/><path d="m22.7 49.3c-5.5 1.5-3.3 9.7 1.2 11.3 1.5.5 3 .6 4.5.5 0 0 .1-.1.1-.1.7-1.1-.3-7-.6-8.1-.9-2.8-2.6-4.3-5.2-3.6z" fill="#ffcb9e"/><path d="m24.6 52.3c-1.2-.6-4.4.5-2.9 2.9.8-2.3 2.1-.8 1.9.8-.1 1.1-1.3 1.1-.1 2.5.6.8 1.9.5 2.5.1 2-1.3.1-5.6-1.4-6.3z" fill="#bf3c1b" opacity=".3"/><path d="m60.2 18.7c-4.8-4.1-10.4-4.7-16.4-3.3-3.7.9-7.8 1.4-10.9 3.7-2.5 1.9-5.1 4-6.9 6.7-2.9 4.5-1.5 22.1.5 24.7.2.3 2.5 3.2 3.6 3.1-.6-3.8-.6-7.7-.3-11.5.4-5.1 1.5-10.7 7.4-11.6 3.3-.5 13.8 4 16.2 4.5 3.2.7 10.8-2.9 11.9-3.4 2.7-1.1 2.5-4.2 1.3-6.4-1.7-2.6-4.1-4.5-6.4-6.5z" fill="#ba9552"/><path d="m64.1 52c-1.9 0-4.7.8-4 4.2.4 1.8 7.6 3.2 8-.9 0-.4 0-.8-.1-1.1-.5-1.8-2.4-2.2-3.9-2.2z" fill="#ffa073"/><path d="m39.1 53.6c-1-1.5-3.1-1.3-4.5-.9-1.9.5-4.4 2.1-2.6 5.2 1 1.7 8.7.9 7.6-3.2-.2-.5-.3-.8-.5-1.1z" fill="#ffa073"/><path d="m37.5 45.7c-2.9-1.3-4.7 3.9-2.8 5.6.9-.3 2-.2 2.9.2 2-.9 2.1-4.9-.1-5.8z" fill="#305d80"/><path d="m51.7 55.4c-1.7 0-2.4-.8-3.6 0-1.2.7.5 3 3.5 2.9s4.3-2.2 3.7-2.9c-.7-1-1.7 0-3.6 0z" fill="#b54d26" opacity=".3"/><path d="m51.1 46.9c-1.8.3-3.3 8.6-2.6 9.2 1.8 1.4 5.5.4 6.6-.7.5-.5-.9-8.9-4-8.5z" fill="#ffdfc2"/><path d="m65.5 45.5c-3-1.8-5.1 4-2.7 5.6.8-.5 2.3-.4 3.1 0 1.2-1.3 1.2-4.6-.4-5.6z" fill="#305d80"/><path d="m36.5 46.6c-1.2.4-.3 2.7.9 1.9.8-.6.1-2.3-.9-1.9z" fill="#86bae3"/><path d="m64.3 46.1c-1.2.2-.6 2.5.6 1.9.9-.5.5-2.1-.6-1.9z" fill="#86bae3"/><path d="m64 59.9c-.8-.6-1.8-1-2.6-1.5.1.4 0 .6.4 1-3.5.2-6.9.5-10.4.6-2.3.1-4.6.3-6.9.3-1.7 0-4.9.4-6.2-.6.4-.2.9-.4 1.2-.7-1.2-.1-4.5 1.1-6.1 2.5 1.3-.5 3-1.3 4.1-.2 1.8 1.7 3.8 3.7 6.3 5.3 4.9 3.2 14.3 2.8 16.9-3.3.2-.5 1.3-2.3 2.1-2.5.4-.1 2.5.5 2.6.7-.3-.7-.8-1.2-1.4-1.6z" fill="#f7a286"/><path d="m38.6 60.6s4 5.6 11.9 5.6c5.1 0 8.4-1.4 9.3-3.4 1-2.1 3.1-2.9 3.1-2.9-13.7 3-24.3.7-24.3.7z" fill="#8f3935"/><path d="m41.5 61.1s.3 1.7 3.1 2.3c3.6.8 7.5.8 11.5.2 2.7-.4 4-3.1 4-3.1s-7.7 1.6-18.6.6z" fill="#fff9f0"/><path d="m52.5 63.9c-3.6.2-6.6 0-8.4-.9-1.3-.6-1.4.1-1.1.5 0 0 1.2 2.3 7.2 2.8 5.8.4 8.7-2.5 8-2.9-.7-.5-2.4.3-5.7.5z" fill="#fff9f0"/><path d="m41.5 61.1s.2.8.7 1.2c0 0 13.5-1.2 16.7-.3 0 0 .9-1 1.1-1.5.1 0-9.3 1.5-18.5.6z" fill="#e8dac5"/><path d="m45.1 63.3c4.9 2.3 10.6.2 10.6.2-6 1.2-10.6-.2-10.6-.2z" fill="#e8dac5"/><path d="m31.1 42.2c5.6.1 7.4.4 11.3.2-2.1-3.6-8.9-3.2-11.3-.2z" fill="#a16b43"/><path d="m59.4 42.6c3.3.2 4.9-.1 9.7-.3-2.1-3-8-3.3-9.7.3z" fill="#a16b43"/><path d="m65.2 24.6c0 .1 0 .1 0 0z" fill="#f0d197"/><path d="m65.3 24.6c-.1 0-.1 0 0 0-.1.1-.1.1 0 0-.1 0-.1 0 0 0 3.6-3.7 3.9-10.9.6-14.8-3.3 4.4-10 4-14.8 3.9-2.6 0-5.1.2-7.5.8-3.2.7-6.3 1.9-9.5 3.3-2.3 1.1-4.5 2.2-5.8 4.4-.7 1.2-1.3 2.6-1.6 3.9-.2.8.1 3.7-.2 4.1 3.2-4.1 7.7-6.4 13-6.6-.3.9-.3 1.9-.2 2.9-.1-.5 8.8-4.2 9.1-4.3-.7 1.1-4.7 4.4-4.3 5.6 0-.1 11.2-7 11.7-7.2-.5 1.6-6.6 9-5.6 10.3.6-.7 11.7-11.1 12.3-11.4-.1 1-9.4 12-8.8 12.6.5-.8 7.7-6.1 8.4-6.6-.5 2-2.1 4.4-2.8 6 3.8-2.4 10.4-4.8 9.8-7.8-1.4.2-2.7.5-3.8.9z" fill="#f0d197"/><path d="m66.3 52.6c-2.4-.1-4.7.2-7.1-.3-3.1-.6-3.6-5.7-.6-6.7 3-.9 6.2 1.1 9.2 0 1.1-.4 1.2-.9 1-1.3-.6-1-3.3-1.9-4.1-2-2.7-.3-5.5.1-8.2.1-8.6 0-17.4-.9-26.2.9-3.3.7-.3 3.6 1.6 3.8 2.1.2 4.2-.6 6.3-.6 2.3-.1 8.1-1 7.8 2.7-.2 2.3-1.5 3.5-3.7 3.9-2.1.4-4.3.4-6.3.4-.9 0-6.9-1.2-6.2 1 .4 1.1 3.4 1.3 4.4 1.5 2.1.3 4.2-.1 6.3-.2 2.7-.2 4.9-.4 6.5-2.8 1.3-1.9 2-4.1 3.2-6 2-3.1 3.8 1.3 4.5 3.2.6 1.6 1.5 3.2 2.9 4.2 1.3 1 2.7.9 4.3 1.1 1.9.2 4.9.9 6.4-.7 1.9-2-.1-2.2-2-2.2z" opacity=".1"/><path d="m75.2 42.9c-1.2-1.5-47.8-1.5-49.3.1 0 0-.1.1-.1.1 0 .3.2 2.2.2 2.2s.4.5 1.5.4c.3 1.7 1.1 5.6 3.2 7.4 2.7 2.3 11.9 1.5 14.6.3 3.3-1.4 2.7-8.3 6.4-8.4 2.7 0 2.7 6 5.2 7.5 2.6 1.5 12.7 2.2 14.9 0 1.5-1.6 1.4-5 1.7-7.3.5 0 1.4-.2 1.8-.7.1-.3.1-1.5.1-1.8-.1.3-.2.2-.2.2zm-30.1 9.1c-2.4 1.6-11.9 1.6-13.7.4s-2.6-6.1-1.6-6.6c1.1-.6 15.5-1.6 17.1-.8 1.5.7-.2 5.9-1.8 7zm25.1.1c-1.7 1.1-10.8 1-13.1-.6-1.5-1-3.1-5.9-1.7-6.6 1.5-.7 15.3.4 16.3 1 1.1.6.2 5.1-1.5 6.2z" fill="#3a3a4a"/><path d="m56.9 45c-2.1.6 1.4 2.1 2.1 2.3 2.6.7 5.6.9 8.5.8 1.5-.1 4.9-1 4.1-1.9-1.1-1.4-12.4-1.9-14.7-1.2z" fill="#fff" opacity=".3"/><path d="m31.6 43.1 39.1.1c-17.9-1.9-39.1-.1-39.1-.1z" fill="#c1c5c9"/><g fill="#fff"><path d="m65.7 45.6c-1.1 0-1.8.2-1.6.8.5 1 6.8 1.3 7.3.6.5-.6-3.3-1.4-5.7-1.4z"/><path d="m58.2 50.4c-.7 0-1.1.1-1 .5.2.8 4.1 1.4 4.5.9.3-.5-2.1-1.3-3.5-1.4z" opacity=".7"/><path d="m32.6 51.1c-.7 0-1.1.1-1 .5.2.8 4.1 1.4 4.5.9.3-.4-2-1.3-3.5-1.4z" opacity=".7"/><path d="m45.9 45.3c-2.4-.7-14.3-.5-15.4.7-.8.9 2.8 1.8 4.4 1.9 3 .2 6.2.1 8.9-.5.8-.2 4.3-1.5 2.1-2.1z" opacity=".3"/><path d="m40.8 45c-1.1.1-1.8.4-1.5.9.6 1 6.9.6 7.3-.1.4-.6-3.6-1.1-5.8-.8z"/></g></g></svg>