<svg enable-background="new 0 0 150 150" viewBox="0 0 150 150" xmlns="http://www.w3.org/2000/svg" xmlns:xlink="http://www.w3.org/1999/xlink"><clipPath id="a"><circle cx="75" cy="75" r="75"/></clipPath><g clip-path="url(#a)"><path d="m150 75c0 41.4-33.6 75-75 75s-75-33.6-75-75 33.6-75 75-75 75 33.6 75 75" fill="#ff7a7d"/><path d="m91.7 24.3-17 68.2-38.8 46.5c11.4 7 24.8 11 39.1 11 39 0 71-29.8 74.7-67.8z" fill="#ff525a"/></g><g clip-path="url(#a)"><path d="m100.2 94.7c0 .2-.1.4-.1.5-.4 1.8-.9 3.4-1.4 5-.9 2.6-1.8 4.8-3 6.4-.5.8-1.2 1.4-1.8 1.9-1.3 1-2.9 1.5-5 1.5h-30.6c-2.1 0-3.8-.6-5.1-1.6-.6-.5-1.2-1.1-1.7-1.8-1.2-1.6-2.1-3.8-3-6.4-.5-1.5-1-3.2-1.4-5 0-.2-.1-.3-.1-.5-4.8-21-3.4-58.4 7.5-69.6 4.4-4.6 9.9-8.7 19.1-8.7 7.2 0 12.2 2.6 16.2 5.9 1 .9 2 1.8 2.9 2.8.4.4.7.8 1.1 1.2 9.8 12.6 11 48.1 6.4 68.4z" fill="#4f3c30"/><path d="m87.6 93.7-4.2-1.8v-10.6h-16.6v10.6l-4.2 1.8 4.2 25.4h16.6z" fill="#f6ccb8"/><path d="m66.8 81.4v5.5l16.6 5v-10.5z" fill="#e3b9a5"/><path d="m58.2 111.6h33.6v41.1h-33.6z" fill="#f4b350"/><path d="m66.8 151.7v-59.8c-.1 0-.2 0-.3.1v-.1c-6.1.1-14.8 1.2-20.7 6.9-6.9 6.7-8.9 16-9.8 23.8-.3 2.3-.4 21.4-.6 29h31.4z" fill="#42404d"/><path d="m83.4 151.7h31c-.1-7.7-.3-26.8-.6-29-.9-7.9-2.9-17.2-9.8-23.8-5.9-5.7-14.6-6.8-20.7-6.9s0 0-.1 0v12.2h.1v47.5z" fill="#42404d"/><path d="m94.2 52.2v-8.7c0-9.2-10.7-20.8-19.1-20.8s-19.1 11.6-19.1 20.8v8.7c-2.3 0-4.2 1.9-4.2 4.2v4.3c0 2.3 1.9 4.2 4.2 4.2 0 9.2 10.7 21.1 19.1 21.1s19.1-12 19.1-21.2c2.3 0 4.2-1.9 4.2-4.2v-4.3c0-2.2-1.9-4.1-4.2-4.1z" fill="#f6ccb8"/><path d="m75.1 70.6v15.4c8.4 0 19.1-12 19.1-21.2 2.3 0 4.2-1.9 4.2-4.2v-4.3c0-2.3-1.9-4.2-4.2-4.2v-8.7c0-9.2-10.7-20.8-19.1-20.8v33.8c-3.1 6.5-4.2 13.3-4.2 13.3z" fill="#f6ccb8" opacity=".8"/><g fill="#4f3c30"><path d="m97 50.3h-3c-1.7-1.1-4.7-1.1-7.5-1.1-4.7 0-7.8.9-9.3 2.7-.5-.3-1.3-.4-2.1-.4-.9 0-1.6.1-2.1.4-1.5-1.8-4.6-2.7-9.3-2.7-2.8 0-5.8 0-7.5 1.1h-2.9v3.2l1.3.7c0 4.9 2.4 10.7 9.2 10.7 5.5 0 9-3 10.2-8.9.1-.4.1-.8.1-1.2.1-.3.5-.7 1.1-.7s1 .3 1.1.7c0 .4 0 .8.1 1.2 1.2 5.9 4.7 8.9 10.2 8.9 6.7 0 9.1-5.7 9.2-10.7l1.3-.7v-3.2zm-24.6 5.3c-1.1 5.2-3.9 7.7-8.7 7.7-7.3 0-7.7-7.7-7.7-9.2 0-2.4 5.3-2.6 7.7-2.6 5.2 0 9.1 1.9 8.7 4.1zm14.1 7.8c-4.8 0-7.7-2.5-8.7-7.7-.5-2.2 3.5-4.1 8.7-4.1 2.4 0 7.7.2 7.7 2.6 0 1.4-.4 9.2-7.7 9.2z"/><path d="m55.2 83.5c-6-20.1-10.2-32.6-6.9-46.1 6.4-26.4 38.5-27.9 41.8-11.4.7 3.5 8.1 7 4.5 24.3-.3-.1-8.9-9.9-11-14.9-28.4-.1-18.9 41.9-28.4 48.1z"/></g></g></svg>