<svg enable-background="new 0 0 150 150" viewBox="0 0 150 150" xmlns="http://www.w3.org/2000/svg" xmlns:xlink="http://www.w3.org/1999/xlink"><clipPath id="a"><circle cx="75" cy="75" r="75"/></clipPath><g clip-path="url(#a)"><path d="m150 75c0 41.4-33.6 75-75 75s-75-33.6-75-75 33.6-75 75-75 75 33.6 75 75" fill="#ff7a7d"/><path d="m93.2 25.6-18.5 66.9-35.3 48.5c10.6 5.7 22.7 9 35.6 9 38.9 0 70.9-29.6 74.6-67.6z" fill="#ff525a"/></g><g clip-path="url(#a)"><path d="m87.4 93.8-4.2-1.7v-10.7h-16.6v10.7l-4.2 1.7 4.2 25.4h16.6z" fill="#f6ccb8"/><path d="m66.6 81.5v5.5l16.6 5.1v-10.6z" fill="#e3b9a5"/><path d="m58 111.7h33.6v40.4h-33.6z" fill="#7cccec"/><path d="m66.6 100.3v-8.2c-.3.1-.7.2-1 .2-6 .1-13.9.4-19.7 5.9-6.9 6.7-8 16.4-8.9 24.3v.4c-.3 2.4-.5 20.7-.7 28.4h30.4v-46.9z" fill="#32303a"/><path d="m112.7 122.8v-.4c-.9-7.9-2-17.7-8.9-24.3-5.7-5.4-13.5-5.8-19.4-5.9-.3-.1-.7-.2-1-.2v.2 58.9h30.2c-.4-7.6-.7-25.8-.9-28.3z" fill="#32303a"/><path d="m94.2 52.8v-8.7c0-9.2-10.7-20.8-19.1-20.8s-19.1 11.7-19.1 20.9v8.7c-2.3 0-4.2 1.9-4.2 4.2v4.3c0 2.3 1.9 4.2 4.2 4.2 0 9.2 10.7 21.2 19.1 21.2s19.1-12 19.1-21.2c2.3 0 4.2-1.9 4.2-4.2v-4.4c0-2.3-1.9-4.2-4.2-4.2z" fill="#f6ccb8"/><path d="m75.1 71.2v15.4c8.4 0 19.1-12 19.1-21.2 2.3 0 4.2-1.9 4.2-4.2v-4.2c0-2.3-1.9-4.2-4.2-4.2v-8.7c0-9.2-10.7-20.8-19.1-20.8v33.7c-3.1 6.5-4.2 13.3-4.2 13.3z" fill="#f6ccb8" opacity=".8"/><circle cx="61.2" cy="22.5" fill="#3c2415" r="11.7"/><path d="m99.9 56.2c4.8-37.7-21.9-40.2-33.4-36.5-12.5 4-22.3 19.2-13.6 37.8 1.1-.4 10.8-14.3 13.7-21 7 12.1 25.2 18.3 33.3 19.7z" fill="#4f3c30"/></g></svg>