<svg enable-background="new 0 0 150 150" viewBox="0 0 150 150" xmlns="http://www.w3.org/2000/svg" xmlns:xlink="http://www.w3.org/1999/xlink"><clipPath id="a"><circle cx="75" cy="75" r="75"/></clipPath><g clip-path="url(#a)"><path d="m150 75c0 41.4-33.6 75-75 75s-75-33.6-75-75 33.6-75 75-75 75 33.6 75 75" fill="#94a5da"/><path d="m92.2 17.9-17.5 74.6-48.7 39.2c13.1 11.4 30.3 18.3 49 18.3 41.2 0 74.6-33.2 75-74.3z" fill="#6e80c8"/></g><g clip-path="url(#a)"><path d="m62.5 87.4h24.4v10.4h-24.4z" fill="#231f20"/><path d="m87.8 90.5-3.1-1.5v-9.9h-20v9.9l-3.1 1.4.8 28.1h2.3v4.3h20v-4.3h2.3z" fill="#bf8858"/><path d="m64.7 79.1v7.2l20 2.1v-9.3z" fill="#e3b9a5"/><path d="m100.6 137.8c.5-15.1-.1-42.9-11.9-47.3l-.4 1.5c-1 3.3-4.4 11-13.2 11-7.8 0-11.1-6-12.4-9.7l-.7-2.8c-11.9 4.5-13 32.2-12.7 47.3z" fill="#fff"/><path d="m69.9 101.7 1.9 3.7h5.9l1.8-3.7-4.8-4z" fill="#0c6a93"/><path d="m74.7 97.7 6.2 6.5 10.5-12.5s-6.6-3.3-6.6-3.3l-2.5 2.3z" fill="#e6e7e8"/><path d="m64.6 88.4 10.1 9.3-6.1 6.5-10.5-12.5z" fill="#e6e7e8"/><path d="m78.8 137.8-1.1-35.7h-5.9l-1.1 35.7z" fill="#0c6a93"/><path d="m126.5 137.8c-1.5-11.3-3.4-22-5-31.8-.3-2-1.2-3.5-2.4-4.8-4.8-5.4-17-6.3-30.4-11.3 0 0-14 41.7-14 41.8 0 0-14-41.8-14-41.8-16.2 6.1-30.7 6.1-32.3 15.4-.2 1.1-.3 2.2-.3 3.3-1.6 9.1-3.2 18.9-4.6 29.2l51.2 20z" fill="#231f20"/><path d="m95.4 91.7-.4 9.6-4.7 3.9 3.7 5.1-19.3 21.3 12.2-44.2z" fill="#4f4c4d"/><path d="m54.1 91.7.3 9.6 4.8 3.9-3.7 5.1 19.2 21.3-12.2-44.2z" fill="#4f4c4d"/><path d="m96.5 52.1.7-8.8c0-11.5-11-20.8-22.5-20.8s-22.5 9.3-22.5 20.8l.7 8.8c-.6.2-1.2.5-1.7.9-.9.8-1.5 1.9-1.5 3.2v4.3c0 2.3 1.8 4.1 4.1 4.2 0 10.9 13.1 21.2 20.9 21.2s20.9-10.3 20.9-21.2c2.3 0 4.1-1.9 4.1-4.2v-4.3c0-2-1.3-3.7-3.2-4.1z" fill="#bf8858"/><path d="m96.5 52.1.7-8.8c0-11.5-11-20.8-22.5-20.8v29.6c-3 6.5-5 15.8-5 15.8h5v17.9c7.8 0 20.9-10.3 20.9-21.2 2.3 0 4.1-1.9 4.1-4.2v-4.3c0-1.9-1.3-3.6-3.2-4z" fill="#f6ccb8" opacity=".8"/><path d="m100.1 30.2c0-2.3-1.7-4.3-4-4.6-.3-1.5-1.2-2.8-2.5-3.5 0-.2 0-.3 0-.5 0-3-2.5-5.5-5.5-5.5-.5 0-1 .1-1.5.2-1.1-1.5-2.8-2.5-4.8-2.5-1.1 0-2.1.3-2.9.8-.9-.7-2.1-1.2-3.4-1.2-1.4 0-2.6.5-3.6 1.3-.8-.5-1.8-.9-2.8-.9-1.9 0-3.6 1.1-4.5 2.7-.6-.3-1.2-.5-1.9-.5-2.2 0-3.9 1.7-4.1 3.8-.1.1-.1.2-.2.3-2 .3-3.7 1.9-4.2 3.8-.1 0-.2 0-.4 0-2.6 0-4.6 2.1-4.6 4.6 0 1.2.5 2.3 1.2 3.1-1 6.6-.3 18.2.9 23.4.2.9 1.6.8 1.6-.2.2-6.2 1.7-18.2 8-17.3 6 .9 10.5 1.2 13.8 1.1 3.3 0 7.8-.3 13.8-1.1 6.3-.9 7.7 11 8 17.3 0 1 1.4 1.1 1.6.2 1.1-4.9 1.8-15.3 1.1-22 .6-.7.9-1.7.9-2.8z" fill="#3c2417"/></g></svg>