<svg enable-background="new 0 0 150 150" viewBox="0 0 150 150" xmlns="http://www.w3.org/2000/svg" xmlns:xlink="http://www.w3.org/1999/xlink"><clipPath id="a"><circle cx="75" cy="75" r="75"/></clipPath><g clip-path="url(#a)"><path d="m150 75c0 41.4-33.6 75-75 75s-75-33.6-75-75 33.6-75 75-75 75 33.6 75 75" fill="#84d1c9"/><path d="m92.3 16.9-17.6 75.6-48.7 39.2c13.1 11.4 30.3 18.3 49 18.3 41.4 0 75-33.6 75-75 0-.1 0-.3 0-.4z" fill="#5db9b1"/></g><g clip-path="url(#a)"><path d="m62.8 87.3h24.4v10.4h-24.4z" fill="#231f20"/><path d="m88.1 90.4-3.1-1.4v-9.9h-20v9.9l-3.1 1.3.8 28.1h2.3v4.3h20v-4.3h2.3z" fill="#f7cdb9"/><path d="m65 79.1v7.1l20 2.1v-9.2z" fill="#e3b9a5"/><path d="m100.8 137.7c.5-15.1-.1-42.9-11.9-47.3l-.3 1.6c-1 3.3-4.4 11-13.2 11-7.8 0-11.1-6-12.4-9.7l-.7-2.8c-11.7 4.4-12.8 32.2-12.5 47.3h51z" fill="#fff"/><path d="m70.2 101.6 1.9 3.7h5.8l1.9-3.7-4.8-3.9z" fill="#0c6a93"/><path d="m75 97.7 6.2 6.5 10.5-12.5s-6.6-3.3-6.6-3.3l-2.5 2.3z" fill="#e6e7e8"/><path d="m64.9 88.3 10.1 9.4-6.2 6.4-10.5-12.5z" fill="#e6e7e8"/><path d="m79 137.7-1.1-35.7h-5.8l-1.1 35.7z" fill="#0c6a93"/><path d="m126.8 137.7c-1.5-11.3-3.4-22-5-31.8-.3-2-1.2-3.5-2.4-4.8-4.8-5.4-17-6.3-30.4-11.3 0 0-14 41.7-14 41.8 0 0-14-41.8-14-41.8-16.3 6.1-30.8 6.1-32.4 15.5-.2 1.1-.3 2.2-.3 3.3-1.6 9.1-3.2 18.9-4.6 29.2l51.2 21z" fill="#231f20"/><path d="m95.6 91.6-.3 9.6-4.8 3.9 3.8 5.1-19.3 21.3 12.2-44.2z" fill="#4f4c4d"/><path d="m54.4 91.6.3 9.6 4.8 3.9-3.7 5.1 19.2 21.3-12.2-44.2z" fill="#4f4c4d"/><path d="m96.6 48.9.7-8.8c0-11.5-11-20.8-22.5-20.8s-22.5 9.3-22.5 20.8l.7 8.8c-.6.2-1.2.5-1.7.9-.9.8-1.5 1.9-1.5 3.2v4.3c0 2.3 1.8 4.1 4.1 4.2 0 10.9 13.1 21.2 20.9 21.2s20.9-10.3 20.9-21.2c2.3 0 4.1-1.9 4.1-4.2v-4.3c0-2-1.4-3.6-3.2-4.1z" fill="#f6ccb8"/><path d="m96.6 48.9.7-8.8c0-11.5-11-20.8-22.5-20.8v29.6c-3 6.5-5 15.8-5 15.8h5v17.9c7.8 0 20.9-10.3 20.9-21.2 2.3 0 4.1-1.9 4.1-4.2v-4.2c0-2-1.4-3.6-3.2-4.1z" fill="#f6ccb8" opacity=".8"/><path d="m98.2 24.8c-3.9-7.2-11-14.3-23.2-14.3s-19.4 7.1-23.2 14.3c-5.2 9.8-4.4 22.9-2.1 30.3.4 1.4.9 2.5 1.4 3.4.7 1.3 1.5 2.1 2.2 2.3v.4s-3.2 24 21.7 24 21.6-24 21.6-24 0-.1 0-.4c.7-.1 1.5-.9 2.3-2.3.5-.9 1-2.1 1.4-3.4 2.3-7.5 3.1-20.6-2.1-30.3zm-2.1 6.1v.1c-.1 0-.1-.1 0-.1zm-7.6 36.9h-27c-3.7 0-6.7-6.4-6.7-10.1v-5.2-2.1c.4-.5.7-1.1 1.1-1.7 2.3-4.1 3.9-9.7 5.1-13.2.1-.2.1-.4.2-.5 0 .1.1.2.1.3 1.8 4.6 5 8 9.7 8.8-.7-1.1-1.1-3.1-1-4.3.9 1.6 2.7 3 5 4.2 4.3 2.1 9.8 3.3 12.2 3-.2-.5-.8-1.3-.8-2.9 2.1 2.5 3.4 3.7 6.4 4.5-.5-1.3-.7-3-.3-5.1 0 0 .7 2.6 1.7 5.2.3.7.6 1.5.9 2.1v1.7 5.2c.1 3.7-2.9 10.1-6.6 10.1z" fill="#4f3c30"/><path d="m69.3 70.5h10.9c.3 0 .5.4.3.7-.8.7-2.5 1.7-5.7 1.7s-4.9-1-5.7-1.7c-.3-.2-.1-.7.2-.7z" fill="#f6ccb8"/></g></svg>