<svg enable-background="new 0 0 150 150" viewBox="0 0 150 150" xmlns="http://www.w3.org/2000/svg" xmlns:xlink="http://www.w3.org/1999/xlink"><clipPath id="a"><circle cx="75" cy="75" r="75"/></clipPath><g clip-path="url(#a)"><path d="m150 75c0 41.4-33.6 75-75 75s-75-33.6-75-75 33.6-75 75-75 75 33.6 75 75" fill="#a3d167"/><path d="m93.2 21-18.5 71.5-35.2 48.6c10.6 5.7 22.7 8.9 35.5 8.9 40.5 0 73.5-32.1 74.9-72.2z" fill="#7fb945"/></g><g clip-path="url(#a)"><path d="m88.1 91.7-3.2-1.4v-9.9h-20v9.9l-3.1 1.3.9 28.1h2.2v4.3h20v-4.3h2.3z" fill="#f2ae75"/><path d="m64.9 85.6 20.2 4-.2-9.2h-20z" fill="#e3b9a5"/><path d="m125.3 138.2c-1-11-3.8-21.4-5.4-31-1.6-9.3-15.3-9.3-31.5-15.5l-.7 2.8c-1.3 3.7-4.6 9.7-12.4 9.7-8.8 0-12.2-7.7-13.2-11l-.4-1.5c-16.3 6.1-29.9 6.1-31.5 15.5-1.6 9.6-4.4 20-5.4 31l50.4 22z" fill="#7cccec"/><path d="m78.8 153.2-1-45.7h-5.8l-.9 45.7z" fill="#43414d"/><path d="m79.8 102.9-2 3.7h-5.8l-1.9-3.7 4.8-3.9z" fill="#43414d"/><path d="m64.8 89.6s-6.5 3.3-6.6 3.3l10.5 12.5 6.2-6.5-7.6-7.1z" fill="#67bee1"/><path d="m85.1 89.6-10.2 9.4 6.2 6.4 10.5-12.5z" fill="#67bee1"/><path d="m96.8 51.9.7-8.8c0-11.5-11-20.8-22.5-20.8s-22.5 9.3-22.5 20.8l.7 8.8c-.6.2-1.2.5-1.7.9-.9.8-1.5 1.9-1.5 3.2v4.3c0 2.3 1.8 4.1 4.1 4.2 0 10.9 13.1 21.2 20.9 21.2s20.9-10.3 20.9-21.2c2.3 0 4.1-1.9 4.1-4.2v-4.3c-.1-2-1.4-3.6-3.2-4.1z" fill="#f2ae75"/><path d="m96.8 51.9.7-8.8c0-11.5-11-20.8-22.5-20.8v29.6c-3 6.5-5 15.8-5 15.8h5v17.9c7.8 0 20.9-10.3 20.9-21.2 2.3 0 4.1-1.9 4.1-4.2v-4.2c-.1-2-1.4-3.6-3.2-4.1z" fill="#f7cdb9" opacity=".8"/><path d="m74.9 14.7c-36.9.6-21.7 43-21.7 43s-1.9-23.2 7.9-21.8c6 .9 10.5 1.2 13.8 1.1 3.3 0 7.8-.3 13.8-1.1 9.8-1.4 7.9 21.8 7.9 21.8s15.2-42.4-21.7-43z" fill="#3c2415"/><path d="m98.3 46.4h-4.5c-1.4-.7-3.4-1.2-6.2-1.2-4.6 0-7.8.9-9.4 2.6-.8-.4-1.9-.9-3.2-.9s-2.4.5-3.2.9c-1.6-1.7-4.8-2.6-9.4-2.6-2.8 0-4.8.5-6.2 1.2h-4.5v3.2l1.5.5c-.2.6-.2 1.2-.2 1.8 0 4 1 9.4 9.5 9.4 7.6 0 9.6-4.7 10.5-9.2.1-.7.2-1.4.1-2 .4-.2 1-.4 2-.4s1.6.2 2 .4c-.1.6-.1 1.3.1 2 .9 4.6 2.9 9.2 10.5 9.2 8.3.1 9.3-5.3 9.3-9.3 0-.6-.1-1.2-.2-1.8l1.5-.5zm-27 5.4c-1 4.7-2.9 7.9-8.9 7.9-6.9 0-7.8-3.7-7.8-7.7 0-1.3 0-4.3 7.8-4.3 5.4 0 7.2.8 8.1 1.8.5.7 1 1.2.8 2.3zm16.2 7.9c-6 0-7.9-3.2-8.9-7.9-.2-1.1.2-1.6.8-2.3.8-1 2.7-1.8 8.1-1.8 7.8 0 7.8 3 7.8 4.3 0 4-.9 7.7-7.8 7.7z" fill="#43414d"/></g></svg>