<svg enable-background="new 0 0 150 150" viewBox="0 0 150 150" xmlns="http://www.w3.org/2000/svg" xmlns:xlink="http://www.w3.org/1999/xlink"><clipPath id="a"><circle cx="75" cy="75" r="75"/></clipPath><g clip-path="url(#a)"><path d="m150 75c0 41.4-33.6 75-75 75s-75-33.6-75-75 33.6-75 75-75 75 33.6 75 75" fill="#c0b2da"/><path d="m91.3 18.8-16.6 73.7-38.8 46.5c11.4 7 24.8 11 39.1 11 40.6 0 73.7-32.3 75-72.5z" fill="#a390c8"/></g><g clip-path="url(#a)"><path d="m102.1 92.8c0 .2-.1.4-.1.5-.4 1.8-.9 3.5-1.4 5.1-.9 2.7-1.8 4.9-3 6.5-.6.8-1.2 1.4-1.9 2-1.3 1-3 1.5-5.1 1.5h-31.1c-2.2 0-3.9-.6-5.2-1.7-.6-.5-1.2-1.1-1.7-1.8-1.2-1.6-2.2-3.8-3-6.5-.5-1.5-1-3.2-1.4-5.1 0-.2-.1-.3-.1-.5-4.9-21.5-3.4-59.5 7.6-70.9 4.5-4.7 10.1-8.8 19.5-8.8 7.4 0 12.4 2.6 16.5 6 1.1.9 2 1.8 3 2.8.4.4.7.8 1.1 1.3 9.8 12.7 11 48.9 6.3 69.6z" fill="#4f3c30"/><path d="m83.4 90.1v-10.6h-16.6v10.6l-4.2.3 4.2 26.9h16.6l4.2-26.9z" fill="#f2ae75"/><path d="m66.8 79.5v5.4l16.6 5.2v-10.6z" fill="#e3b9a5"/><g fill="#32303a"><path d="m92.2 136.9-30.7-7-1.9 7z"/><path d="m90.6 136.9-1.9-7-30.7 7z"/><path d="m113.4 152.9-.6-35.8c-.9-7.1-2.6-15.2-8.5-20.9-6-5.7-13.2-5.5-19.5-6v.3l-9.7 26.5-9.7-26.6c0-.2 0-.2 0-.2-6.3.5-13.5.3-19.4 6-6 5.7-7.6 13.8-8.5 20.9l-.6 35.8z"/></g><path d="m55.8 97 9.2 3.4-3.6 5 13.7 11.6-9.7-26.8z" fill="#ff7a7d"/><path d="m94.4 97-9.6-6.8-9.7 26.8 13.7-11.6-3.6-5z" fill="#ff7a7d"/><path d="m94.2 51.3v-8.7c0-9.2-10.7-20.8-19.1-20.8s-19.1 11.6-19.1 20.8v8.7c-2.3 0-4.2 1.9-4.2 4.2v4.3c0 2.3 1.9 4.2 4.2 4.2 0 9.2 10.7 21.2 19.1 21.2s19.1-12 19.1-21.2c2.3 0 4.2-1.9 4.2-4.2v-4.3c0-2.4-1.9-4.2-4.2-4.2z" fill="#f2ae75"/><path d="m75.1 69.7v15.4c8.4 0 19.1-12 19.1-21.2 2.3 0 4.2-1.9 4.2-4.2v-4.3c0-2.3-1.9-4.2-4.2-4.2v-8.7c0-9.2-10.7-20.8-19.1-20.8v33.7c-3.1 6.6-4.2 13.5-4.2 13.5z" fill="#f6ccb8" opacity=".8"/><path d="m98.6 52.4-14.9-3.3-.6-4.2-1.7 4.2h-12.9l-1.2-9.2-1.7 9.2-14.3 2.5c-1.1-16.1-.8-36.7 23.3-36.7 24 0 25.9 21.4 24 37.5z" fill="#4f3c30"/></g></svg>