<svg enable-background="new 0 0 150 150" viewBox="0 0 150 150" xmlns="http://www.w3.org/2000/svg" xmlns:xlink="http://www.w3.org/1999/xlink"><clipPath id="a"><circle cx="75" cy="75" r="75"/></clipPath><g clip-path="url(#a)"><path d="m150 75c0 41.4-33.6 75-75 75s-75-33.6-75-75 33.6-75 75-75 75 33.6 75 75" fill="#f68cb2"/><path d="m91.2 19.7-16.5 72.8-35.3 48.5c10.6 5.7 22.7 9 35.6 9 40.2 0 73.1-31.7 74.9-71.5z" fill="#f06494"/></g><g clip-path="url(#a)"><path d="m102 93.9c0 .2-.1.4-.1.5-.4 1.8-.9 3.5-1.4 5.1-.9 2.7-1.8 4.9-3 6.5-.6.8-1.2 1.4-1.9 1.9-1.3 1-3 1.5-5.1 1.5h-31.2c-2.2 0-3.9-.6-5.2-1.7-.6-.5-1.2-1.1-1.7-1.8-1.2-1.7-2.2-3.9-3-6.5-.5-1.5-1-3.2-1.4-5.1 0-.2-.1-.3-.1-.5-4.9-21.5-3.4-59.5 7.6-71 4.5-4.7 10.1-8.8 19.5-8.8 7.4 0 12.4 2.6 16.5 6 1.1.9 2 1.8 3 2.8.4.4.7.8 1.1 1.3 9.9 12.9 11.1 49.1 6.4 69.8z" fill="#3c2417"/><path d="m87.4 93.8-4.2-1.7v-10.7h-16.6v10.7l-4.2 1.7 4.2 25.4h16.6z" fill="#f6ccb8"/><path d="m66.6 81.5v5.5l16.6 5.1v-10.6z" fill="#e3b9a5"/><path d="m58 111.7h33.6v40.4h-33.6z" fill="#f080b1"/><path d="m66.6 100.3v-8.2c-.3.1-.7.2-1 .2-6 .1-13.9.4-19.7 5.9-6.9 6.7-8 16.4-8.9 24.3v.4c-.3 2.4-.5 20.7-.7 28.4h30.4v-46.9z" fill="#32303a"/><path d="m112.7 122.8v-.4c-.9-7.9-2-17.7-8.9-24.3-5.7-5.4-13.5-5.8-19.4-5.9-.3-.1-.7-.2-1-.2v.2 58.9h30.2c-.4-7.6-.7-25.8-.9-28.3z" fill="#32303a"/><path d="m94.1 52.8v-8.7c0-9.2-10.7-20.8-19.1-20.8s-19.1 11.6-19.1 20.8v8.7c-2.3 0-4.2 1.9-4.2 4.2v4.3c0 2.3 1.9 4.2 4.2 4.2 0 9.2 10.7 21.2 19.1 21.2s19.1-12 19.1-21.2c2.3 0 4.2-1.9 4.2-4.2v-4.3c0-2.3-1.9-4.2-4.2-4.2z" fill="#f6ccb8"/><path d="m75 71.3v15.4c8.4 0 19.1-12 19.1-21.2 2.3 0 4.2-1.9 4.2-4.2v-4.3c0-2.3-1.9-4.2-4.2-4.2v-8.7c0-9.2-10.7-20.8-19.1-20.8v33.8c-3.1 6.5-4.2 13.3-4.2 13.3z" fill="#f6ccb8" opacity=".8"/><path d="m86.1 45.2c.6 2 1.7 4.7 3.6 6.3-5.7-1.5-10.5-4.8-14-8.8.3 2 1.6 4.3 3.7 6.3-1.5-.7-3-1.5-4.4-2.5-3.2-2.2-6-5.1-8.1-8-3.3 6.7-8.6 16-12.8 16.2-5.7-11.4-6.2-36.3 20.8-36.3s23 28.3 20.9 36.3c-4.8-3.7-8.4-7.5-9.7-9.5z" fill="#3c2417"/></g></svg>