<svg enable-background="new 0 0 150 150" viewBox="0 0 150 150" xmlns="http://www.w3.org/2000/svg" xmlns:xlink="http://www.w3.org/1999/xlink"><clipPath id="a"><circle cx="75" cy="75" r="75"/></clipPath><g clip-path="url(#a)"><path d="m150 75c0 41.4-33.6 75-75 75s-75-33.6-75-75 33.6-75 75-75 75 33.6 75 75" fill="#7cccec"/><path d="m93.5 16.3-18.8 76.2-35.6 48.4c10.7 5.8 22.9 9.1 35.9 9.1 41.4 0 75-33.6 75-75 0-.8 0-1.5 0-2.3z" fill="#55b2e2"/></g><g clip-path="url(#a)"><path d="m88.1 91.3-3.1-1.4v-9.9h-20v9.9l-3.1 1.4.8 28.1h2.3v4.3h20v-4.3h2.3z" fill="#f6ccb8"/><path d="m85 81v8.1l-20-3.5v-4.6z" fill="#e3b9a5"/><path d="m125.5 137.8c-1.8-12.7-3.6-21.7-8-31.4-3.7-8-14-10-28.7-15-.5-.2-1.1-.4-1.6-.6v.1c-1 5.5-3.7 12.6-12.3 13.4-8.5-.8-11.3-7.9-12.3-13.4v-.1c-.5.2-1.1.4-1.6.6-14.8 5.1-25 7.1-28.7 15-4.4 9.6-6.2 18.7-8 31.4l50.5 20z" fill="#e6e7e8"/><path d="m79.8 102.5-1.9 3.7h-5.9l-1.8-3.7 4.8-3.9z" fill="#f05d44"/><path d="m75 98.6-6.2 6.5-12-12.3s8-3.5 8-3.5l2.5 2.3z" fill="#fff"/><path d="m75 98.6 6.2 6.5 12-12.3s-8-3.5-8-3.5l-2.5 2.3z" fill="#fff"/><path d="m78.8 157.8-.9-50.7h-5.9l-.9 50.7z" fill="#f05d44"/><path d="m96.8 51.8.7-8.8c0-11.5-11-20.8-22.5-20.8s-22.5 9.3-22.5 20.8l.7 8.8c-.6.2-1.2.5-1.7.9-.9.8-1.5 1.9-1.5 3.2v4.3c0 2.3 1.8 4.1 4.1 4.2 0 10.9 13.1 21.2 20.9 21.2s20.9-10.3 20.9-21.2c2.3 0 4.1-1.9 4.1-4.2v-4.3c0-2-1.4-3.7-3.2-4.1z" fill="#f6ccb8"/><path d="m96.8 51.8.7-8.8c0-11.5-11-20.8-22.5-20.8v29.6c-3 6.5-5 15.8-5 15.8h5v17.9c7.8 0 20.9-10.3 20.9-21.2 2.3 0 4.1-1.9 4.1-4.2v-4.3c0-1.9-1.4-3.6-3.2-4z" fill="#f6ccb8" opacity=".8"/><path d="m97.2 29.4c.2-2.8-.7-6.7-2.9-12.4-.5-1.3-2.3-1.6-3.2-.4-2.5 3.2-5.9 2.5-11.4.3-9.2-3.8-16-1.5-19.9 2.6-16.7 8.5-6.5 38.5-6.5 38.5s.4-15.6 6.1-22.8c3.1.7 12 1.9 15.6 1.9 3.5 0 13.7-1.2 16.9-1.9 6.2 3.8 4.8 22.8 4.8 22.8s6.6-16.6.5-28.6z" fill="#4f3c30"/><path d="m98.3 47.5h-4.5c-1.4-.7-3.4-1.2-6.2-1.2-4.6 0-7.8.9-9.4 2.6-.8-.4-1.9-.9-3.2-.9s-2.4.5-3.2.9c-1.6-1.7-4.8-2.6-9.4-2.6-2.8 0-4.8.5-6.2 1.2h-4.5v3.2l1.5.5c-.2.6-.2 1.2-.2 1.8 0 4 1 9.4 9.5 9.4 7.6 0 9.6-4.7 10.5-9.2.1-.7.2-1.4.1-2 .4-.2 1-.4 2-.4s1.7.2 2 .5c-.1.6-.1 1.3.1 2 .9 4.6 2.9 9.2 10.5 9.2 8.5 0 9.5-5.4 9.5-9.4 0-.6-.1-1.2-.2-1.8l1.5-.5v-3.3zm-27 5.4c-1 4.7-2.9 7.9-8.9 7.9-6.9 0-7.8-3.7-7.8-7.7 0-1.3 0-5.2 7.8-5.2 5.4 0 7.5 1.2 8.3 2.2.7.8.8 1.7.6 2.8zm16.3 7.9c-6 0-7.9-3.2-8.9-7.9-.2-1.1 0-2 .5-2.7.8-1 3-2.2 8.3-2.2 7.8 0 7.8 3.9 7.8 5.2.1 3.9-.8 7.6-7.7 7.6z" fill="#fff"/></g></svg>