<svg enable-background="new 0 0 150 150" viewBox="0 0 150 150" xmlns="http://www.w3.org/2000/svg" xmlns:xlink="http://www.w3.org/1999/xlink"><clipPath id="a"><circle cx="75" cy="75" r="75"/></clipPath><g clip-path="url(#a)"><path d="m150 75c0 41.4-33.6 75-75 75s-75-33.6-75-75 33.6-75 75-75 75 33.6 75 75" fill="#a3d167"/><path d="m91 20.3-16.3 72.2-35.2 48.6c10.6 5.7 22.7 8.9 35.5 8.9 40 0 72.7-31.3 74.9-70.8z" fill="#7fb945"/></g><g clip-path="url(#a)"><path d="m101.5 92.9c0 .2-.1.4-.1.5-.4 1.8-.9 3.4-1.4 5-.9 2.6-1.8 4.8-3 6.4-.5.8-1.2 1.4-1.8 1.9-1.3 1-2.9 1.5-5 1.5h-30.6c-2.1 0-3.8-.6-5.1-1.6-.6-.5-1.2-1.1-1.7-1.8-1.2-1.6-2.1-3.8-3-6.4-.5-1.5-1-3.2-1.4-5 0-.2-.1-.3-.1-.5-4.8-21-3.4-58.4 7.5-69.6 4.4-4.6 9.9-8.7 19.1-8.7 7.2 0 12.2 2.6 16.2 5.9 1 .9 2 1.8 2.9 2.8.4.4.7.8 1.1 1.2 9.8 12.6 11 48.1 6.4 68.4z" fill="#3c2417"/><path d="m87.5 92.8-4.2-1.7v-10.7h-16.6v10.7l-4.2 1.7 4.2 25.4h16.6z" fill="#f6ccb8"/><path d="m66.7 80.5v5.5l16.6 5.1v-10.6z" fill="#e3b9a5"/><path d="m58.1 110.7h33.6v42.4h-33.6z" fill="#f15d44"/><path d="m66.7 99.3v-8.2c-.3.1-.7.2-1 .2-6 .1-13.9.4-19.7 5.9-6.9 6.7-8 16.4-8.9 24.3v.4c-.3 2.4-.5 22.7-.7 30.4h30.4v-48.9z" fill="#32303a"/><path d="m112.8 121.8v-.4c-.9-7.9-2-17.7-8.9-24.3-5.7-5.4-13.5-5.8-19.4-5.9-.3-.1-.7-.2-1-.2v.2h-.1l-.1 12h.2v48.9h30.2c-.4-7.6-.6-27.8-.9-30.3z" fill="#32303a"/><path d="m94 51.7v-8.7c0-9.2-10.7-20.8-19.1-20.8s-19.1 11.6-19.1 20.8v8.7c-2.3 0-4.2 1.9-4.2 4.2v4.3c0 2.3 1.9 4.2 4.2 4.2 0 9.2 10.7 21.2 19.1 21.2s19.1-12 19.1-21.2c2.3 0 4.2-1.9 4.2-4.2v-4.3c0-2.4-1.9-4.2-4.2-4.2z" fill="#f6ccb8"/><path d="m74.9 70.1v15.4c8.4 0 19.1-12 19.1-21.2 2.3 0 4.2-1.9 4.2-4.2v-4.3c0-2.3-1.9-4.2-4.2-4.2v-8.6c0-9.2-10.7-20.8-19.1-20.8v33.8c-3.1 6.5-4.2 13.3-4.2 13.3z" fill="#f6ccb8" opacity=".8"/><path d="m100 36.8c-3.7-15.5-14.7-22.4-25.2-22.1-10.4-.3-21.4 6.7-25.2 22.1-3.3 13.6-.7 26 5.3 46.1 9.5-6.2-11.4-55.1 19.9-44.9 31.3-10.3 10.4 38.6 19.9 44.9 6.1-20.1 8.6-32.5 5.3-46.1z" fill="#3c2417"/><path d="m95.7 50.8h-2.8c-1.6-1.1-4.5-1.1-7.1-1.1-4.4 0-7.4.9-8.9 2.6-.5-.3-1.2-.4-2-.4s-1.5.1-2 .4c-1.4-1.7-4.4-2.6-8.9-2.6-2.6 0-5.6 0-7.1 1.1h-2.9v3l1.2.7c0 4.7 2.3 10.2 8.7 10.2 5.3 0 8.5-2.9 9.7-8.5.1-.4.1-.8.1-1.2.1-.3.5-.6 1.1-.6s1 .3 1.1.6c0 .4 0 .8.1 1.2 1.2 5.6 4.4 8.5 9.7 8.5 6.4 0 8.7-5.4 8.7-10.2l1.2-.7v-3zm-23.4 5.1c-1 5-3.7 7.4-8.3 7.4-7 0-7.3-7.3-7.3-8.8 0-2.3 5-2.5 7.3-2.5 5 0 8.8 1.8 8.3 3.9zm13.5 7.3c-4.6 0-7.3-2.4-8.3-7.4-.5-2 3.3-3.8 8.3-3.8 2.3 0 7.3.2 7.3 2.5 0 1.4-.4 8.7-7.3 8.7z" fill="#fff"/></g></svg>