<svg enable-background="new 0 0 150 150" viewBox="0 0 150 150" xmlns="http://www.w3.org/2000/svg" xmlns:xlink="http://www.w3.org/1999/xlink"><clipPath id="a"><circle cx="75" cy="75" r="75"/></clipPath><g clip-path="url(#a)"><path d="m150 75c0 41.4-33.6 75-75 75s-75-33.6-75-75 33.6-75 75-75 75 33.6 75 75" fill="#f68cb2"/><path d="m95 18.5-20.3 74-35.6 48.4c10.7 5.8 22.9 9.1 35.9 9.1 41.4 0 75-33.6 75-75 0-.5 0-1 0-1.5z" fill="#f06494"/></g><g clip-path="url(#a)"><path d="m106.3 50.3c-.1-.2-.2-.5-.3-.7-2.6-5.6-1.9-11.1-3.5-16.9-3.7-12.7-10.2-20.4-17.2-16.9-10.1-10.7-24.5-.7-27.1 1.2-2.8 2-4.5 3.3-6.9 7.7-3 5.5-4.1 11.8-5.3 18-1.3 6.7-7.1 12-7.8 18.9-.7 7.2 3.6 10.3-.6 17.6-1.7 2.8-4.5 5.5-5.3 8.7-.9 3.5.5 7.2-.4 10.8-1.2 5.1-6.9 7.6-7.5 12.6-.7 5 3.8 8.8 7.8 10.9 6.3 3.4 14 3 21.1 2.5 20.4-1.4 41 1.4 61.4-.6 11.5-1.1 11.9-7.6 11.6-10.2-.5-3.6-4.6-6.2-6.4-9.3-2.3-4.2.2-10.3-.7-15-.9-4.8-5.1-6.7-6.3-11.4-1-4 1.1-8.3.6-12.5-.5-5.9-4.8-10.5-7.2-15.4z" fill="#4f3c30"/><path d="m83.4 91.2v-10.7h-16.7v10.7l-4.2.3 4.2 26.9h16.7l4.1-26.9z" fill="#f6ccb8"/><path d="m66.7 80.6v4.9l16.7 5.7v-10.6z" fill="#e3b9a5"/><path d="m113 154-.6-35.8c-.9-7.1-2.6-15.2-8.5-20.9-6-5.7-12.9-5.5-19.2-6v.3l-9.7 26.5-9.7-26.5c0-.2 0-.3 0-.3-6.3.5-13.2.3-19.2 6s-7.6 13.8-8.5 20.9l-.6 35.8z" fill="#231f20"/><path d="m55.8 98.1 9.1 3.4-3.6 5 13.7 11.6-9.7-26.8z" fill="#f080b1"/><path d="m94.3 98.1-9.6-6.7-9.7 26.7 13.7-11.6-3.5-5z" fill="#f080b1"/><path d="m94.1 51.8v-8.7c0-9.2-10.7-20.8-19.1-20.8s-19.1 11.6-19.1 20.8v8.7c-2.3 0-4.2 1.9-4.2 4.2v4.3c0 2.3 1.9 4.2 4.2 4.2 0 9.2 10.7 21.2 19.1 21.2s19.1-12 19.1-21.2c2.3 0 4.2-1.9 4.2-4.2v-4.3c.1-2.3-1.8-4.2-4.2-4.2z" fill="#f6ccb8"/><path d="m75 70.2v15.4c8.4 0 19.1-12 19.1-21.2 2.3 0 4.2-1.9 4.2-4.2v-4.2c0-2.3-1.9-4.2-4.2-4.2v-8.7c0-9.2-10.7-20.8-19.1-20.8v33.7c-3.1 6.5-4.2 13.3-4.2 13.3z" fill="#f6ccb8" opacity=".8"/><path d="m96.9 49.9h-2.9c-1.7-1.1-4.7-1.1-7.5-1.1-4.7 0-7.8.9-9.3 2.7-.5-.3-1.3-.4-2.1-.4-.9 0-1.6.1-2.1.4-1.5-1.8-4.6-2.7-9.3-2.7-2.8 0-5.8 0-7.5 1.1h-2.9v3.2l1.3.7c0 4.9 2.4 10.7 9.2 10.7 5.5 0 9-3 10.2-8.9.1-.4.1-.8.1-1.2.1-.3.5-.7 1.1-.7s1 .3 1.1.7c0 .4 0 .8.1 1.2 1.2 5.9 4.7 8.9 10.2 8.9 6.7 0 9.1-5.7 9.2-10.7l1.3-.7v-3.2zm-24.6 5.3c-1.1 5.2-3.9 7.7-8.7 7.7-7.3 0-7.7-7.7-7.7-9.2 0-2.4 5.3-2.6 7.7-2.6 5.2 0 9.2 1.9 8.7 4.1zm14.1 7.7c-4.8 0-7.7-2.5-8.7-7.7-.5-2.2 3.5-4.1 8.7-4.1 2.4 0 7.7.2 7.7 2.6 0 1.5-.3 9.2-7.7 9.2z" fill="#635044"/><path d="m100.5 36.5c-3.7-15.5-14.7-22.4-25.1-22.1-10.5-.3-21.5 6.6-25.2 22.1-3.3 13.6-.7 26 5.3 46.1 9.5-6.2-11.4-55.1 19.9-44.9 31.3-10.3 10.4 38.6 19.9 44.9 6-20.1 8.5-32.6 5.2-46.1z" fill="#4f3c30"/></g></svg>