<svg enable-background="new 0 0 150 150" viewBox="0 0 150 150" xmlns="http://www.w3.org/2000/svg" xmlns:xlink="http://www.w3.org/1999/xlink"><clipPath id="a"><circle cx="75" cy="75" r="75"/></clipPath><g clip-path="url(#a)"><path d="m150 75c0 41.4-33.6 75-75 75s-75-33.6-75-75 33.6-75 75-75 75 33.6 75 75" fill="#84d1c9"/><path d="m100.5 20.6-25.8 71.9-38.8 46.5c11.4 7 24.8 11 39.1 11 41.4 0 75-33.6 75-75 0-1.7-.1-3.4-.2-5z" fill="#5db9b1"/></g><g clip-path="url(#a)"><path d="m62.8 88.5h24.4v10.4h-24.4z" fill="#231f20"/><path d="m88.1 91.6-3.1-1.4v-9.9h-20v9.9l-3.1 1.3.8 28.1h2.3v4.3h20v-4.3h2.3z" fill="#f2ae75"/><path d="m65 80.3v7.1l20 2.1v-9.2z" fill="#e3b9a5"/><path d="m100.8 138.9c.5-15.1-.1-42.9-11.9-47.3l-.4 1.5c-1 3.3-4.4 11-13.2 11-7.8 0-11.1-6-12.4-9.7l-.7-2.8c-11.7 4.4-12.8 32.2-12.5 47.3z" fill="#fff"/><path d="m70.2 102.8 1.9 3.7h5.8l1.9-3.7-4.8-3.9z" fill="#0c6a93"/><path d="m75 98.9 6.2 6.5 10.5-12.5s-6.6-3.3-6.6-3.3l-2.5 2.3z" fill="#e6e7e8"/><path d="m64.9 89.5 10.1 9.4-6.2 6.4-10.5-12.5z" fill="#e6e7e8"/><path d="m79 138.9-1.1-35.7h-5.8l-1.1 35.7z" fill="#0c6a93"/><path d="m126.8 138.9c-1.5-11.3-3.4-22-5-31.8-.3-2-1.2-3.5-2.4-4.8-4.8-5.4-17-6.3-30.4-11.3 0 0-14 41.7-14 41.8 0 0-14-41.8-14-41.8-16.3 6.1-30.8 6.1-32.4 15.5-.2 1.1-.3 2.2-.3 3.3-1.6 9.1-3.2 18.9-4.6 29.2l51.2 18z" fill="#231f20"/><path d="m95.6 92.8-.3 9.6-4.8 3.9 3.8 5.1-19.3 21.3 12.2-44.2z" fill="#4f4c4d"/><path d="m54.4 92.8.3 9.6 4.8 3.9-3.7 5.1 19.2 21.3-12.2-44.2z" fill="#4f4c4d"/><path d="m96.8 49.6.7-8.8c0-11.5-11-20.8-22.5-20.8s-22.5 9.3-22.5 20.8l.7 8.8c-.6.2-1.2.5-1.7.9-.9.8-1.5 1.9-1.5 3.2v4.3c0 2.3 1.8 4.1 4.1 4.2 0 10.8 13.1 21.1 20.9 21.1s20.9-10.3 20.9-21.2c2.3 0 4.1-1.9 4.1-4.2v-4.3c0-1.9-1.4-3.6-3.2-4z" fill="#f2ae75"/><path d="m96.8 49.6.7-8.8c0-11.5-11-20.8-22.5-20.8v29.6c-3 6.5-5 15.8-5 15.8h5v17.9c7.8 0 20.9-10.3 20.9-21.2 2.3 0 4.1-1.9 4.1-4.2v-4.3c0-1.9-1.4-3.6-3.2-4z" fill="#f6ccb8" opacity=".8"/><path d="m75.2 15.8c-33.6-4.5-26.7 33.7-24.5 40.9.4 1.3 2.2 3.3 2.2 3.3.7 1.3-1.8 25.8 22.3 25.8s21.6-24.5 22.3-25.8c0 0 1.8-2 2.2-3.3 2.2-7.2 7.1-36.7-24.5-40.9zm19.6 43.5c0 2.7-1.7 6.8-4.1 8.6-1 .8-2.4.9-3.6.4-2-.8-6.4-1.6-11.9-1.6s-9.9.8-11.9 1.6c-1.2.5-2.5.4-3.6-.4-2.4-1.8-4.1-5.8-4.1-8.6 0 0-3.3-12-.8-20.8 1.2-4.4 6.6-6.8 11-5.7 3.2.8 6.5 1.1 9.4 1.1s6.2-.3 9.4-1.1c4.4-1.1 9.7 1.4 11 5.7 2.5 8.8-.8 20.8-.8 20.8z" fill="#2d1b10"/><path d="m85.4 14.4c7.7 5.2 9.6 8.2 12.9 5.8 1-.7 2.5-.3 2.7 1 2.3 18-19.8 25.2-40.8 10.3-9.8-7.1 5.5-30.6 25.2-17.1z" fill="#3c2417"/><path d="m69.6 71.2h10.9c.3 0 .5.4.3.7-.8.7-2.5 1.7-5.7 1.7s-4.9-1-5.7-1.7c-.4-.3-.2-.7.2-.7z" fill="#f2ae75"/><path d="m98 46.1h-4.5c-1.4-.7-3.4-1.2-6.2-1.2-4.6 0-7.8.9-9.4 2.6-.8-.4-1.9-.9-3.2-.9s-2.4.5-3.2.9c-1.6-1.7-4.8-2.6-9.4-2.6-2.8 0-4.8.5-6.2 1.2h-4.5v3.2l1.5.5c-.2.6-.2 1.2-.2 1.8 0 4 1 9.4 9.5 9.4 7.6 0 9.6-4.7 10.5-9.2.1-.7.2-1.4.1-2 .4-.2 1-.4 2-.4s1.7.2 2 .5c-.1.6-.1 1.3.1 2 .9 4.6 2.9 9.2 10.5 9.2 8.5 0 9.5-5.4 9.5-9.4 0-.6-.1-1.2-.2-1.8l1.5-.5v-3.3zm-27 5.5c-1 4.7-2.9 7.9-8.9 7.9-6.9 0-7.8-3.7-7.8-7.7 0-1.3 0-5.2 7.8-5.2 5.4 0 7.5 1.2 8.3 2.2.7.7.9 1.7.6 2.8zm16.3 7.9c-6 0-7.9-3.2-8.9-7.9-.2-1.1 0-2 .5-2.7.8-1 3-2.2 8.3-2.2 7.8 0 7.8 3.9 7.8 5.2.1 3.8-.8 7.6-7.7 7.6z" fill="#231f20"/></g></svg>