<svg enable-background="new 0 0 150 150" viewBox="0 0 150 150" xmlns="http://www.w3.org/2000/svg" xmlns:xlink="http://www.w3.org/1999/xlink"><clipPath id="a"><circle cx="75" cy="75" r="75"/></clipPath><g clip-path="url(#a)"><path d="m150 75c0 41.4-33.6 75-75 75s-75-33.6-75-75 33.6-75 75-75 75 33.6 75 75" fill="#7cccec"/><path d="m91.3 18.8-16.6 73.7-38.8 46.5c11.4 7 24.8 11 39.1 11 40.6 0 73.7-32.3 75-72.5z" fill="#55b2e2"/></g><g clip-path="url(#a)"><path d="m83.4 90.1v-10.6h-16.6v10.6l-4.2.3 4.2 26.9h16.6l4.2-26.9z" fill="#f2ae75"/><path d="m66.8 79.5v5.4l16.6 5.2v-10.6z" fill="#e3b9a5"/><g fill="#32303a"><path d="m92.2 136.9-30.7-7-1.9 7z"/><path d="m90.6 136.9-1.9-7-30.7 7z"/><path d="m113.4 152.9-.6-35.8c-.9-7.1-2.6-15.2-8.5-20.9-6-5.7-13.2-5.5-19.5-6v.3l-9.7 26.5-9.7-26.6c0-.2 0-.2 0-.2-6.3.5-13.5.3-19.4 6-6 5.7-7.6 13.8-8.5 20.9l-.6 35.8z"/></g><path d="m55.8 97 9.2 3.4-3.6 5 13.7 11.6-9.7-26.8z" fill="#798ed1"/><path d="m94.4 97-9.6-6.8-9.7 26.8 13.7-11.6-3.6-5z" fill="#798ed1"/><path d="m64.4 82.2c3.4 0 11.7.7 18.9 0 5-.5 10.1-2.3 13-6.1 18.7-24.2-7.3-59.4-34-58.6-19.9.6-24.9 65 2.1 64.7z" fill="#4f3c30"/><path d="m94.2 51.3v-8.7c0-9.2-10.7-20.8-19.1-20.8s-19.1 11.6-19.1 20.8v8.7c-2.3 0-4.2 1.9-4.2 4.2v4.3c0 2.3 1.9 4.2 4.2 4.2 0 9.2 10.7 21.2 19.1 21.2s19.1-12 19.1-21.2c2.3 0 4.2-1.9 4.2-4.2v-4.3c0-2.4-1.9-4.2-4.2-4.2z" fill="#f2ae75"/><path d="m75.1 69.7v15.4c8.4 0 19.1-12 19.1-21.2 2.3 0 4.2-1.9 4.2-4.2v-4.3c0-2.3-1.9-4.2-4.2-4.2v-8.7c0-9.2-10.7-20.8-19.1-20.8v33.8c-3.1 6.5-4.2 13.3-4.2 13.3z" fill="#f6ccb8" opacity=".8"/><path d="m96.9 49.6h-2.9c-1.7-1.1-4.7-1.1-7.5-1.1-4.7 0-7.8.9-9.3 2.7-.5-.3-1.3-.4-2.1-.4-.9 0-1.6.1-2.1.4-1.5-1.8-4.6-2.7-9.3-2.7-2.8 0-5.8 0-7.5 1.1h-2.9v3.2l1.3.7c0 4.9 2.4 10.7 9.2 10.7 5.5 0 9-3 10.2-8.9.1-.4.1-.8.1-1.2.1-.3.5-.7 1.1-.7s1 .3 1.1.7c0 .4 0 .8.1 1.2 1.2 5.9 4.7 8.9 10.2 8.9 6.7 0 9.1-5.7 9.2-10.7l1.3-.7v-3.2zm-24.6 5.3c-1.1 5.2-3.9 7.7-8.7 7.7-7.3 0-7.7-7.7-7.7-9.2 0-2.4 5.3-2.6 7.7-2.6 5.2 0 9.2 1.9 8.7 4.1zm14.1 7.8c-4.8 0-7.7-2.5-8.7-7.7-.5-2.2 3.5-4.1 8.7-4.1 2.4 0 7.7.2 7.7 2.6 0 1.5-.3 9.2-7.7 9.2z" fill="#635044"/><path d="m85.2 42.9c.6 2 1.7 4.7 3.6 6.3-5.7-1.4-10.5-4.8-14-8.8.3 2 1.6 4.3 3.7 6.3-1.5-.7-3-1.6-4.4-2.6-3.2-2.2-6-5.1-8-8-3.3 6.7-6.7 15.6-12.8 16.2-5.8-11.4-4.1-35.5 20.7-36.3 30.8-.9 29.7 31.9 27.6 40-6.5-2.1-15.1-11.2-16.4-13.1z" fill="#4f3c30"/></g></svg>