<svg enable-background="new 0 0 150 150" viewBox="0 0 150 150" xmlns="http://www.w3.org/2000/svg" xmlns:xlink="http://www.w3.org/1999/xlink"><clipPath id="a"><circle cx="75" cy="75" r="75"/></clipPath><g clip-path="url(#a)"><path d="m150 75c0 41.4-33.6 75-75 75s-75-33.6-75-75 33.6-75 75-75 75 33.6 75 75" fill="#94a5da"/><path d="m93.1 19-18.4 73.5-35.6 48.4c10.7 5.8 22.9 9.1 35.9 9.1 41.1 0 74.5-33.1 75-74.1z" fill="#6e80c8"/></g><g clip-path="url(#a)"><path d="m62.8 87.4h24.4v10.4h-24.4z" fill="#231f20"/><path d="m88.1 90.5-3.1-1.4v-10h-20v10l-3.1 1.3.8 28.1h2.3v4.3h20v-4.3h2.3z" fill="#f2ae75"/><path d="m65 79.1v5.7l20 3.6v-9.3z" fill="#e3b9a5"/><path d="m100.8 137.8c.5-15.1-.1-42.9-11.9-47.3l-.4 1.5c-1 3.3-4.4 11-13.2 11-7.8 0-11.1-6-12.4-9.7l-.7-2.8c-11.7 4.4-12.8 32.2-12.5 47.3z" fill="#fff"/><path d="m70.2 101.7 1.9 3.7h5.8l1.9-3.7-4.8-4z" fill="#96281b"/><path d="m75 97.7 6.2 6.5 10.5-12.5s-6.6-3.3-6.6-3.3l-2.5 2.3z" fill="#e6e7e8"/><path d="m64.9 88.4 10.1 9.3-6.2 6.5-10.5-12.5z" fill="#e6e7e8"/><path d="m79 137.8-1.1-35.7h-5.8l-1.1 35.7z" fill="#96281b"/><path d="m126.8 137.8c-1.5-11.3-3.4-22-5-31.8-.3-2-1.2-3.5-2.4-4.8-4.8-5.4-17-6.3-30.4-11.3 0 0-14 41.7-14 41.8 0 0-14-41.8-14-41.8-16.2 6.1-30.8 6.1-32.4 15.4-.2 1.1-.3 2.2-.3 3.3-1.6 9.1-3.2 18.9-4.6 29.2l51.2 23z" fill="#231f20"/><path d="m95.6 91.7-.3 9.6-4.8 3.9 3.8 5.1-19.3 21.3 12.2-44.2z" fill="#4f4c4d"/><path d="m54.4 91.7.3 9.6 4.8 3.9-3.7 5.1 19.2 21.3-12.2-44.2z" fill="#4f4c4d"/><path d="m97.1 50.1.7-8.8c0-11.5-11-20.8-22.5-20.8s-22.5 9.3-22.5 20.8l.7 8.8c-.6.2-1.2.5-1.7.9-.9.8-1.5 1.9-1.5 3.2v4.3c0 2.3 1.8 4.1 4.1 4.2 0 10.9 13.1 21.2 20.9 21.2s20.9-10.3 20.9-21.2c2.3 0 4.1-1.9 4.1-4.2v-4.3c0-2-1.4-3.6-3.2-4.1z" fill="#f2ae75"/><path d="m97.1 50.1.7-8.8c0-11.5-11-20.8-22.5-20.8v29.6c-3 6.5-5 15.8-5 15.8h5v17.9c7.8 0 20.9-10.3 20.9-21.2 2.3 0 4.1-1.9 4.1-4.2v-4.3c0-1.9-1.4-3.5-3.2-4z" fill="#f6ccb8" opacity=".8"/><path d="m98.7 46.7h-4.5c-1.4-.7-3.4-1.2-6.2-1.2-4.6 0-7.8.9-9.4 2.6-.8-.4-1.9-.9-3.2-.9s-2.4.5-3.2.9c-1.6-1.7-4.8-2.6-9.4-2.6-2.8 0-4.8.5-6.2 1.2h-4.5v3.2l1.5.5c-.2.6-.2 1.2-.2 1.8 0 4 1 9.4 9.5 9.4 7.6 0 9.6-4.7 10.5-9.2.1-.7.2-1.4.1-2 .4-.2 1-.4 2-.4s1.7.2 2 .5c-.1.6-.1 1.3.1 2 .9 4.6 2.9 9.2 10.5 9.2 8.5 0 9.5-5.4 9.5-9.4 0-.6-.1-1.2-.2-1.8l1.5-.5v-3.3zm-27 5.4c-1 4.7-2.9 7.9-8.9 7.9-6.8 0-7.8-3.7-7.8-7.7 0-1.3 0-5.2 7.8-5.2 5.4 0 7.5 1.2 8.3 2.2.7.8.8 1.7.6 2.8zm16.3 7.9c-6 0-7.9-3.2-8.9-7.9-.2-1.1 0-2 .5-2.7.8-1 3-2.2 8.3-2.2 7.8 0 7.8 3.9 7.8 5.2.1 3.9-.8 7.6-7.7 7.6z" fill="#43414d"/><path d="m85.3 71.1c-3-3.1-9.2-3.5-9.9-3.5h-.1c-.7 0-6.9.4-9.9 3.5-.3.3-.5.7-.5 1.2 0 4.3.8 8.4.8 8.6.1.3.3.5.5.7.1.1 4.3 2.8 9.1 2.8s8.9-2.6 9.1-2.8.4-.4.5-.7c.1-.2.8-4.3.8-8.6.1-.5 0-.9-.4-1.2zm-3.3 8c-.6.4-2.8 1.2-4.6 1.5v-2.2c0-1.2-.9-2.1-2.1-2.1s-2.1.9-2.1 2.1v2.2c-1.8-.4-3.9-1.2-4.6-1.5-.3-1-.3-3.5-.4-6.2 1.9-1.5 5.6-2 7.1-2 1.4.1 5.1.6 7.1 2-.1 2.7 0 5.2-.4 6.2z" fill="#3c2415"/><path d="m75.4 13.3c-36.9.6-21.7 43-21.7 43s-1.9-23.3 7.9-21.8c6 .9 10.5 1.2 13.8 1.1 3.3 0 7.8-.3 13.8-1.1 9.8-1.4 7.9 21.8 7.9 21.8s15.2-42.4-21.7-43z" fill="#3c2417"/></g></svg>