<svg enable-background="new 0 0 150 150" viewBox="0 0 150 150" xmlns="http://www.w3.org/2000/svg" xmlns:xlink="http://www.w3.org/1999/xlink"><clipPath id="a"><circle cx="75" cy="75" r="75"/></clipPath><g clip-path="url(#a)"><path d="m150 75c0 41.4-33.6 75-75 75s-75-33.6-75-75 33.6-75 75-75 75 33.6 75 75" fill="#7cccec"/><path d="m85.2 9.4-10.5 83.1-32 50.2c9.8 4.7 20.7 7.3 32.3 7.3 41.4 0 75-33.6 75-75 0-.3 0-.5 0-.8z" fill="#55b2e2"/></g><g clip-path="url(#a)"><path d="m65.1 95.4h19.9l-.2 7.5h-19.5z" fill="#32303a"/><path d="m87.6 97.6-4.2-.8v-10.7h-16.7v10.7l-4.1.8 4.1 26.3h16.7z" fill="#bf8858"/><path d="m66.7 86.2v4.7l16.7 5.9v-10.6z" fill="#e3b9a5"/><path d="m58.3 116.4h33.6v35.1h-33.6z" fill="#fff"/><path d="m58.2 116.4h33.6v35.1h-33.6z" fill="#f4b350"/><path d="m114.4 151.5c-.1-7.7-.3-21.7-.6-24-.9-7.9-2.9-17.2-9.8-23.8-6-5.7-13.2-6.8-19.3-6.9h-.1l-5.5 25.3v29.4z" fill="#42404d"/><path d="m65.4 96.8c-6.1.1-13.3 1.2-19.3 6.9-6.9 6.7-8.9 16-9.8 23.8-.3 2.3-.4 16.3-.6 24h35.1v-29.4z" fill="#42404d"/><path d="m55.4 102.1 9.3 3.4-3.7 5 9.9 11.6-5.8-26.7z" fill="#32303a"/><path d="m94.8 102.1-9.8-6.7-5.8 26.7 9.9-11.6-3.7-5z" fill="#32303a"/><path d="m94.2 57.4v-8.7c0-9.2-10.7-20.8-19.1-20.8s-19.1 11.6-19.1 20.8v8.7c-2.3 0-4.2 1.9-4.2 4.2v4.3c0 2.3 1.9 4.2 4.2 4.2 0 9.2 10.7 21.2 19.1 21.2s19.1-12 19.1-21.2c2.3 0 4.2-1.9 4.2-4.2v-4.3c0-2.4-1.9-4.2-4.2-4.2z" fill="#bf8858"/><path d="m75.1 75.8v15.4c8.4 0 19.1-12 19.1-21.2 2.3 0 4.2-1.9 4.2-4.2v-4.3c0-2.3-1.9-4.2-4.2-4.2v-8.7c0-9.2-10.7-20.8-19.1-20.8v33.8c-3.1 6.5-4.2 13.4-4.2 13.4z" fill="#f6ccb8" opacity=".8"/><path d="m90.8 21.3c0-.4 0-.9-.1-1.3.1-.4.1-.8.1-1.2 0-2.5-1.6-4.6-3.8-5.3-.1-3.1-2.6-5.6-5.8-5.7-.9-2.3-3.2-4-5.9-4-2.5 0-4.6 1.4-5.6 3.5-.4-.1-.9-.2-1.3-.2-3 0-5.4 2.4-5.4 5.4v.3c-2.5.8-4.3 3.2-4.3 5.9 0 1.5.5 2.8 1.4 3.9-.7.9-1 2-1 3.2 0 2.9 2.4 5.3 5.3 5.3.8 0 1.5-.2 2.1-.5.1 2.5 2.1 4.5 4.6 4.5.5 0 1-.1 1.4-.2 1.2 1.5 3 2.5 5 2.5 3.2 0 5.9-2.4 6.3-5.5 2.1-.9 3.6-2.8 3.8-5.2 1.9-1.1 3.2-3.1 3.2-5.4z" fill="#2d1b10"/><path d="m75.1 19.6c-19.5 0-26.4 19.1-20.6 37.8.3.9 1.6.7 1.6-.2.8-10.6 5.2-19.6 19-15 13.8-4.5 18.2 4.4 19 15 .1.9 1.4 1.1 1.6.2 5.8-18.7-1.1-37.8-20.6-37.8z" fill="#3c2417"/></g></svg>