<svg enable-background="new 0 0 150 150" viewBox="0 0 150 150" xmlns="http://www.w3.org/2000/svg" xmlns:xlink="http://www.w3.org/1999/xlink"><clipPath id="a"><circle cx="75" cy="75" r="75"/></clipPath><g clip-path="url(#a)"><path d="m150 75c0 41.4-33.6 75-75 75s-75-33.6-75-75 33.6-75 75-75 75 33.6 75 75" fill="#84d1c9"/><path d="m92.9 20.5-18.2 72-35.6 48.4c10.7 5.8 22.9 9.1 35.9 9.1 40.6 0 73.6-32.2 75-72.5z" fill="#5db9b1"/></g><g clip-path="url(#a)"><path d="m102 92.7c0 .2-.1.4-.1.5-.4 1.8-.9 3.5-1.4 5.1-.9 2.7-1.8 4.9-3.1 6.5-.6.8-1.2 1.4-1.9 1.9-1.3 1-3 1.5-5.1 1.5h-31.1c-2.2 0-3.9-.6-5.2-1.7-.6-.5-1.2-1.1-1.7-1.8-1.2-1.7-2.2-3.8-3-6.5-.5-1.5-1-3.2-1.4-5.1 0-.2-.1-.3-.1-.5-4.9-21.5-3.4-59.5 7.6-71 4.5-4.5 10.1-8.6 19.4-8.6 7.4 0 12.4 2.6 16.5 6 1.1.9 2 1.8 3 2.8.4.4.7.8 1.1 1.3 10 12.7 11.2 48.9 6.5 69.6z" fill="#3c2417"/><path d="m83.3 91.1v-10.7h-16.6v10.7l-4.2.3 4.2 26.9h16.6l4.2-26.9z" fill="#f2ae75"/><path d="m66.7 80.5v3.9l16.6 6.7v-10.6z" fill="#e3b9a5"/><g fill="#32303a"><path d="m92.1 137.9-30.7-7.1-1.9 7.1z"/><path d="m90.5 137.9-1.9-7.1-30.7 7.1z"/><path d="m113.3 154.9-.6-36.8c-.9-7.1-2.6-15.2-8.5-20.9-6-5.7-13.2-5.5-19.5-6v.3l-9.7 26.5-9.7-26.6c0-.2 0-.2 0-.2-6.3.5-13.5.3-19.4 6-6 5.7-7.6 13.8-8.5 20.9l-.6 36.8z"/></g><path d="m55.7 98 9.2 3.4-3.6 5 13.7 11.6-9.7-26.8z" fill="#84d1c9"/><path d="m94.3 98-9.6-6.8-9.7 26.8 13.7-11.6-3.6-5z" fill="#84d1c9"/><path d="m94.1 51.7v-8.7c0-9.2-10.7-20.8-19.1-20.8s-19.1 11.6-19.1 20.8v8.7c-2.3 0-4.2 1.9-4.2 4.2v4.3c0 2.3 1.9 4.2 4.2 4.2 0 9.2 10.7 21.2 19.1 21.2s19.1-12 19.1-21.2c2.3 0 4.2-1.9 4.2-4.2v-4.3c0-2.3-1.9-4.2-4.2-4.2z" fill="#f2ae75"/><path d="m75 70.1v15.4c8.4 0 19.1-12 19.1-21.2 2.3 0 4.2-1.9 4.2-4.2v-4.3c0-2.3-1.9-4.2-4.2-4.2v-8.6c0-9.2-10.7-20.8-19.1-20.8v33.8c-3.1 6.5-4.2 13.3-4.2 13.3z" fill="#f6ccb8" opacity=".8"/><path d="m63.9 44.7c-.6 2-1.7 4.7-3.6 6.3 5.7-1.5 10.5-4.8 14-8.8-.3 2-1.6 4.3-3.7 6.3 1.5-.7 3-1.6 4.4-2.5 3.2-2.2 6-5.1 8.1-8 3.3 6.7 9.4 15 13.6 15.2 6.4-11.9 1.7-36.9-21.6-36.9s-28.2 24.1-22.4 37.5c4.7-1 9.9-7.1 11.2-9.1z" fill="#3c2417"/></g></svg>