<svg enable-background="new 0 0 150 150" viewBox="0 0 150 150" xmlns="http://www.w3.org/2000/svg" xmlns:xlink="http://www.w3.org/1999/xlink"><clipPath id="a"><circle cx="75" cy="75" r="75"/></clipPath><g clip-path="url(#a)"><path d="m150 75c0 41.4-33.6 75-75 75s-75-33.6-75-75 33.6-75 75-75 75 33.6 75 75" fill="#a3d167"/><path d="m96.8 15.5-22.1 77-38.8 46.5c11.4 7 24.8 11 39.1 11 41.4 0 75-33.6 75-75 0-2.2-.1-4.4-.3-6.5z" fill="#7fb945"/></g><g clip-path="url(#a)"><path d="m63.1 88.3h24.4v10.4h-24.4z" fill="#231f20"/><path d="m88.5 91.4-3.1-1.4v-9.9h-20v9.9l-3.2 1.3.9 28.1h2.3v4.3h20v-4.3h2.3z" fill="#f7cdb9"/><path d="m65.4 80.1v5.6l20 3.6v-9.2z" fill="#e3b9a5"/><path d="m101.2 138.8c.5-15.1-.1-42.9-11.9-47.3l-.4 1.5c-1 3.3-4.4 11-13.2 11-7.8 0-11.1-6-12.4-9.7l-.7-2.8c-11.7 4.4-12.8 32.2-12.5 47.3z" fill="#fff"/><path d="m70.5 102.6 2 3.7h5.8l1.9-3.7-4.8-3.9z" fill="#f15d44"/><path d="m75.4 98.7 6.2 6.5 10.4-12.6s-6.6-3.3-6.6-3.3l-2.4 2.3z" fill="#e6e7e8"/><path d="m65.3 89.4 10.1 9.3-6.2 6.5-10.5-12.6z" fill="#e6e7e8"/><path d="m79.4 138.8-1.1-35.8h-5.8l-1.1 35.8z" fill="#f15d44"/><path d="m127.2 138.8c-1.5-11.3-3.4-22-5-31.8-.3-2-1.2-3.5-2.4-4.8-4.8-5.4-17-6.3-30.4-11.3 0 0-14 41.7-14 41.8 0 0-14-41.8-14-41.8-16.3 6.1-30.8 6.1-32.4 15.5-.2 1.1-.3 2.2-.3 3.3-1.6 9.1-3.2 18.9-4.6 29.2l50.9 17z" fill="#231f20"/><path d="m96 92.7-.3 9.5-4.8 3.9 3.7 5.1-19.2 21.3 12.2-44.2z" fill="#4f4c4d"/><path d="m54.7 92.7.4 9.5 4.7 3.9-3.7 5.1 19.3 21.3-12.3-44.2z" fill="#4f4c4d"/><path d="m96.8 51.1.7-8.8c0-11.5-11-20.8-22.5-20.8s-22.5 9.3-22.5 20.8l.7 8.8c-.6.2-1.2.5-1.7.9-.9.8-1.5 1.9-1.5 3.2v4.3c0 2.3 1.8 4.1 4.1 4.2 0 10.9 13.1 21.2 20.9 21.2s20.9-10.3 20.9-21.2c2.3 0 4.1-1.9 4.1-4.2v-4.3c0-2-1.4-3.6-3.2-4.1z" fill="#f7cdb9"/><path d="m96.8 51.1.7-8.8c0-11.5-11-20.8-22.5-20.8v29.6c-3 6.5-5 15.8-5 15.8h5v17.9c7.8 0 20.9-10.3 20.9-21.2 2.3 0 4.1-1.9 4.1-4.2v-4.3c0-1.9-1.4-3.5-3.2-4z" fill="#f7cdb9" opacity=".8"/><path d="m84.9 71.6c-3-3.1-9.2-3.5-9.9-3.5h-.1c-.7 0-6.9.4-9.9 3.5-.3.3-.5.7-.5 1.2 0 4.3.8 8.4.8 8.6.1.3.3.5.5.7.1.1 4.3 2.8 9.1 2.8s8.9-2.6 9.1-2.8.4-.4.5-.7c.1-.2.8-4.3.8-8.6.1-.4 0-.9-.4-1.2zm-3.3 8.1c-.6.4-2.8 1.2-4.6 1.5v-2.2c0-1.2-.9-2.1-2.1-2.1s-2.1.9-2.1 2.1v2.2c-1.8-.4-3.9-1.2-4.5-1.5-.3-1-.3-3.5-.4-6.2 1.9-1.5 5.6-2 7.1-2 1.4.1 5.1.6 7.1 2-.2 2.7-.1 5.2-.5 6.2z" fill="#3c2415"/><path d="m100 30.7c.9-2.8.2-7.2-2.5-14.1-.5-1.3-2.3-1.6-3.2-.4-2.5 3.2-6.2 3.2-11.4.3-7.7-4.2-13.8-3-17.9.3-27.8 4.2-11.7 40-11.7 40s-1.9-21.6 7.9-20.1c6 .9 10.5 1.2 13.8 1.1 3.3 0 7.8-.3 13.8-1.1 9.8-1.4 7.9 20.1 7.9 20.1s7.5-14.4 3.3-26.1z" fill="#3c2415"/><path d="m98.3 47.7h-4.5c-1.4-.7-3.4-1.2-6.2-1.2-4.6 0-7.8.9-9.4 2.6-.8-.4-1.9-.9-3.2-.9s-2.4.5-3.2.9c-1.6-1.7-4.8-2.6-9.4-2.6-2.8 0-4.8.5-6.2 1.2h-4.5v3.3l1.5.5c-.2.6-.2 1.2-.2 1.8 0 4 1 9.4 9.5 9.4 7.6 0 9.6-4.7 10.5-9.2.1-.7.2-1.4.1-2 .4-.2 1-.4 2-.4s1.7.2 2 .5c-.1.6-.1 1.3.1 2 .8 4.4 2.8 9.1 10.4 9.1 8.5 0 9.5-5.4 9.5-9.4 0-.6-.1-1.2-.2-1.8l1.5-.5v-3.3zm-27 5.4c-1 4.7-2.9 7.9-8.9 7.9-6.9 0-7.8-3.7-7.8-7.7 0-1.3 0-5.2 7.8-5.2 5.4 0 7.5 1.2 8.3 2.2.7.8.8 1.7.6 2.8zm16.3 7.9c-6 0-7.9-3.2-8.9-7.9-.2-1.1 0-2 .5-2.7.8-1 3-2.2 8.3-2.2 7.8 0 7.8 3.9 7.8 5.2.1 3.9-.8 7.6-7.7 7.6z" fill="#231f20"/></g></svg>