<svg enable-background="new 0 0 150 150" viewBox="0 0 150 150" xmlns="http://www.w3.org/2000/svg" xmlns:xlink="http://www.w3.org/1999/xlink"><clipPath id="a"><circle cx="75" cy="75" r="75"/></clipPath><g clip-path="url(#a)"><path d="m150 75c0 41.4-33.6 75-75 75s-75-33.6-75-75 33.6-75 75-75 75 33.6 75 75" fill="#c0b2da"/><path d="m90.7 22.5-16 70-38.8 46.5c11.4 7 24.8 11 39.1 11 39.2 0 71.4-30.1 74.7-68.5z" fill="#a390c8"/></g><g clip-path="url(#a)"><path d="m108.6 96.6c-2.9-.9-5.8-3.5-8.5-4.8.3.6.7 2.8 1.1 3.3-3-1.2-5.4-3.5-7.2-6.2-4.7-6.7-6.3-15.2-5.7-23.3.1-1.8.4-3.7 1.1-5.4.6-1.3 1.4-2.4 2.4-3.3.7-.6 1.4-1.1 2.3-1.3 1.1-.2 2.3.1 3.3.6 2.4 1.3 3.9 3.8 4.8 6.4 3 7.8 2.2 16.4 3.3 24.7.4 3.3 1.1 6.7 3.1 9.3z" fill="#4f3c30"/><path d="m83.4 91.8v-10.6h-16.6v10.6l-4.2.3 4.2 26.9h16.6l4.2-26.9z" fill="#f2ae75"/><path d="m66.8 81.3v5.8l16.6 4.7v-10.5z" fill="#e3b9a5"/><path d="m113.1 151.6-.6-32.8c-.9-7.1-2.6-15.2-8.5-20.9-6-5.7-12.9-5.5-19.2-6v.3l-9.7 26.5-9.7-26.5c0-.2 0-.3 0-.3-6.3.5-13.2.3-19.2 6s-7.6 13.8-8.5 20.9l-.6 32.8z" fill="#231f20"/><path d="m55.8 98.7 9.2 3.5-3.6 5 13.7 11.5-9.7-26.8z" fill="#f05d44"/><path d="m94.4 98.7-9.6-6.7-9.7 26.7 13.7-11.5-3.6-5z" fill="#f05d44"/><path d="m94.1 53v-8.7c0-9.2-10.7-20.8-19.1-20.8s-19.1 11.6-19.1 20.8v8.7c-2.3 0-4.2 1.9-4.2 4.2v4.3c0 2.3 1.9 4.2 4.2 4.2 0 9.2 10.7 21.2 19.1 21.2s19.1-12 19.1-21.2c2.3 0 4.2-1.9 4.2-4.2v-4.3c0-2.4-1.9-4.2-4.2-4.2z" fill="#f2ae75"/><path d="m75 71.4v15.4c8.4 0 19.1-12 19.1-21.2 2.3 0 4.2-1.9 4.2-4.2v-4.3c0-2.3-1.9-4.2-4.2-4.2v-8.7c0-9.2-10.7-20.8-19.1-20.8v33.8c-3.1 6.5-4.2 13.3-4.2 13.3z" fill="#f6ccb8" opacity=".8"/><path d="m86.1 46c.6 2 1.7 4.7 3.6 6.3-5.7-1.5-10.5-4.8-14-8.8.3 2 1.6 4.3 3.7 6.3-1.5-.7-3-1.6-4.4-2.5-3.2-2.2-6-5.1-8.1-8-3.3 6.7-9.4 15-13.6 15.2-6.4-11.9-1.7-36.9 21.6-36.9s28.2 24.3 22.4 37.6c-4.7-1.1-9.9-7.3-11.2-9.2z" fill="#4f3c30"/></g></svg>