<svg enable-background="new 0 0 150 150" viewBox="0 0 150 150" xmlns="http://www.w3.org/2000/svg" xmlns:xlink="http://www.w3.org/1999/xlink"><clipPath id="a"><circle cx="75" cy="75" r="75"/></clipPath><g clip-path="url(#a)"><path d="m150 75c0 41.4-33.6 75-75 75s-75-33.6-75-75 33.6-75 75-75 75 33.6 75 75" fill="#f4b350"/><path d="m93.6 15.7-18.9 76.8-38.8 46.5c11.4 7 24.8 11 39.1 11 41.4 0 75-33.6 75-75 0-1 0-2-.1-3z" fill="#ed9132"/></g><g clip-path="url(#a)"><path d="m62.8 88.1h24.4v10.4h-24.4z" fill="#231f20"/><path d="m88.1 91.2-3.1-1.4v-9.9h-20v9.9l-3.1 1.4.8 28h2.3v4.4h20v-4.4h2.3z" fill="#f6ccb8"/><path d="m65 79.9v6.1l20 3.1v-9.2z" fill="#e3b9a5"/><path d="m100.8 138.6c.5-15.1-.1-42.9-11.9-47.3l-.4 1.5c-1 3.3-4.4 11-13.2 11-7.8 0-11.1-6-12.4-9.7l-.7-2.8c-11.7 4.4-12.8 32.2-12.5 47.3z" fill="#fff"/><path d="m70.2 102.4 1.9 3.7h5.8l1.9-3.7-4.8-3.9z" fill="#96281b"/><path d="m75 98.5 6.2 6.5 10.5-12.5s-6.6-3.3-6.6-3.3l-2.5 2.3z" fill="#e6e7e8"/><path d="m64.9 89.2 10.1 9.3-6.2 6.5-10.5-12.6z" fill="#e6e7e8"/><path d="m79 138.6-1.1-35.8h-5.8l-1.1 35.8z" fill="#96281b"/><path d="m126.8 138.6c-1.5-11.3-3.4-22-5-31.8-.3-2-1.2-3.5-2.4-4.8-4.8-5.4-17-6.3-30.4-11.3 0 0-14 41.7-14 41.8 0 0-14-41.8-14-41.8-16.3 6.1-30.8 6.1-32.4 15.5-.2 1.1-.3 2.2-.3 3.3-1.6 9.1-3.2 18.9-4.6 29.2l51.3 18z" fill="#231f20"/><path d="m95.6 92.5-.3 9.5-4.8 3.9 3.7 5.1-19.2 21.3 12.2-44.2z" fill="#4f4c4d"/><path d="m54.4 92.5.3 9.5 4.7 3.9-3.7 5.1 19.3 21.3-12.2-44.2z" fill="#4f4c4d"/><path d="m96.8 51.8.7-8.8c0-11.5-11-20.8-22.5-20.8s-22.5 9.3-22.5 20.8l.7 8.8c-.6.2-1.2.5-1.7.9-.9.8-1.5 1.9-1.5 3.2v4.3c0 2.3 1.8 4.1 4.1 4.2 0 10.9 13.1 21.2 20.9 21.2s20.9-10.3 20.9-21.2c2.3 0 4.1-1.9 4.1-4.2v-4.3c0-2-1.4-3.6-3.2-4.1z" fill="#f6ccb8"/><path d="m96.8 51.8.7-8.8c0-11.5-11-20.8-22.5-20.8v29.6c-3 6.5-5 15.8-5 15.8h5v17.9c7.8 0 20.9-10.3 20.9-21.2 2.3 0 4.1-1.9 4.1-4.2v-4.3c0-1.9-1.4-3.5-3.2-4z" fill="#f6ccb8" opacity=".8"/><path d="m97.1 29c.2-2.8-.7-6.7-2.9-12.4-.5-1.3-2.3-1.6-3.2-.4-2.5 3.2-5.9 2.5-11.4.3-9.2-3.8-16-1.5-19.9 2.6-19.6 8.3-6.5 38.5-6.5 38.5s-.1-16.8 6.9-22.8c.3.1 14.3.4 14.7.4 1 0 13.7.2 16.9-.6 6.2 3.7 4.8 22.9 4.8 22.9s6.7-16.6.6-28.5z" fill="#3c2417"/></g></svg>