<svg enable-background="new 0 0 150 150" viewBox="0 0 150 150" xmlns="http://www.w3.org/2000/svg" xmlns:xlink="http://www.w3.org/1999/xlink"><clipPath id="a"><circle cx="75" cy="75" r="75"/></clipPath><g clip-path="url(#a)"><path d="m150 75c0 41.4-33.6 75-75 75s-75-33.6-75-75 33.6-75 75-75 75 33.6 75 75" fill="#f4b350"/><path d="m93.9 21.6-19.2 70.9-36.2 48.1c10.8 6 23.2 9.4 36.4 9.4 40.5 0 73.6-32.2 75-72.3z" fill="#ed9132"/></g><g clip-path="url(#a)"><path d="m87.7 92.7-4.2-1.7v-10.6h-16.6v10.6l-4.2 1.7 4.2 25.5h16.6z" fill="#f6ccb8"/><path d="m66.9 80.4v5.6l16.6 5v-10.6z" fill="#e3b9a5"/><path d="m58.3 110.7h33.6v45.1h-33.6z" fill="#f15d44"/><path d="m66.9 151.8v-60.8c-.1 0-.2 0-.3.1v-.1c-6.1.1-14.8 1.2-20.7 6.9-6.9 6.7-8.9 16-9.8 23.8-.3 2.3-.4 22.4-.6 30h31.4z" fill="#42404d"/><path d="m83.5 151.8h31c-.1-7.7-.3-27.8-.6-30-.9-7.9-2.9-17.2-9.8-23.8-5.9-5.7-14.6-6.8-20.7-6.9s0 0-.1 0v12.2h.1v48.5z" fill="#42404d"/><path d="m84.6 82.7c-5.7 0-10.4-7.2-10.4-16 0-8.9-12.3-49.9 12.5-48.7 19.9.9 24.9 64.9-2.1 64.7z" fill="#4f3c30"/><path d="m94.1 51.8v-8.7c0-9.2-10.7-20.8-19.1-20.8s-19.1 11.6-19.1 20.8v8.7c-2.3 0-4.2 1.9-4.2 4.2v4.3c0 2.3 1.9 4.2 4.2 4.2 0 9.2 10.7 21.2 19.1 21.2s19.1-12 19.1-21.2c2.3 0 4.2-1.9 4.2-4.2v-4.3c0-2.3-1.9-4.2-4.2-4.2z" fill="#f6ccb8"/><path d="m75 70.2v15.4c8.4 0 19.1-12 19.1-21.2 2.3 0 4.2-1.9 4.2-4.2v-4.2c0-2.3-1.9-4.2-4.2-4.2v-8.7c0-9.2-10.7-20.8-19.1-20.8v33.7c-3.1 6.5-4.2 13.3-4.2 13.3z" fill="#f6ccb8" opacity=".8"/><path d="m94 50.7c-1.7-1.1-4.7-1.1-7.5-1.1-4.7 0-7.8.9-9.3 2.7-.5-.3-1.3-.4-2.1-.4-.9 0-1.6.1-2.1.4-1.5-1.8-4.6-2.7-9.3-2.7-2.8 0-5.8 0-7.5 1.1h-2.9v3.2l1.3.7c0 4.9 2.4 10.7 9.2 10.7 5.5 0 9-3 10.2-8.9.1-.4.1-.8.1-1.2.1-.3.5-.7 1.1-.7s1 .3 1.1.7c0 .4 0 .8.1 1.2 1.2 5.9 4.7 8.9 10.2 8.9 6.7 0 9.1-5.7 9.2-10.7l1.3-.7v-3.2zm-21.7 5.3c-1.1 5.2-3.9 7.7-8.7 7.7-7.3 0-7.7-7.7-7.7-9.2 0-1.1.2-1.9.8-2.4 1-1 4.5-1.1 6.9-1.1 5.3 0 7.4 1.2 8.2 2.2.5.8.7 1.7.5 2.8zm14.1 7.8c-4.8 0-7.7-2.5-8.7-7.7-.2-1.1 0-2 .5-2.7.8-1 2.9-2.2 8.2-2.2 2.7 0 5.8 0 6.9 1.1.5.5.8 1.3.8 2.4 0 1.4-.3 9.1-7.7 9.1z" fill="#f05d44"/><path d="m55 82.9c-6-20.1-10.2-32.6-6.9-46.1 6.4-26.3 38.5-27.9 41.8-11.4.7 3.5 9.1 23.1 4.2 25.3 0 0-6.9-8.2-10.8-15.9-28.3-.1-18.8 41.8-28.3 48.1z" fill="#4f3c30"/></g></svg>