<svg enable-background="new 0 0 150 150" viewBox="0 0 150 150" xmlns="http://www.w3.org/2000/svg" xmlns:xlink="http://www.w3.org/1999/xlink"><clipPath id="a"><circle cx="75" cy="75" r="75"/></clipPath><g clip-path="url(#a)"><path d="m150 75c0 41.4-33.6 75-75 75s-75-33.6-75-75 33.6-75 75-75 75 33.6 75 75" fill="#f4b350"/><path d="m100.2 23.3-25.5 69.2-48.7 39.2c13.1 11.4 30.3 18.3 49 18.3 41.4 0 75-33.6 75-75 0-.6 0-1.2 0-1.9z" fill="#ed9132"/></g><g clip-path="url(#a)"><path d="m88.1 92.7-3.2-1.5v-9.9h-20v9.9l-3.1 1.4.9 28.1h2.2v4.3h20v-4.3h2.3z" fill="#f6ccb8"/><path d="m64.9 86.6 20.2 4-.2-9.3h-20z" fill="#e3b9a5"/><path d="m125.3 139.2c-1-11-3.8-21.4-5.4-31-1.6-9.3-15.3-9.3-31.5-15.5l-.7 2.8c-1.3 3.7-4.6 9.7-12.4 9.7-8.8 0-12.2-7.7-13.2-11l-.4-1.5c-16.3 6.1-29.9 6.1-31.5 15.5-1.6 9.6-4.4 20-5.4 31l50.4 17z" fill="#6b87c3"/><path d="m78.8 151.2-1-42.8h-5.8l-.9 42.8z" fill="#43414d"/><path d="m79.8 103.9-2 3.6h-5.8l-1.9-3.6 4.8-4z" fill="#43414d"/><path d="m64.8 90.6s-6.5 3.3-6.6 3.3l10.5 12.5 6.2-6.5-7.6-7.1z" fill="#4b567b"/><path d="m85.1 90.6-10.2 9.3 6.2 6.5 10.5-12.5z" fill="#4b567b"/><path d="m96.8 52.8.7-8.8c0-11.5-11-20.8-22.5-20.8s-22.5 9.3-22.5 20.8l.7 8.8c-.6.2-1.2.5-1.7.9-.9.8-1.5 1.9-1.5 3.2v4.3c0 2.3 1.8 4.1 4.1 4.2 0 10.9 13.1 21.2 20.9 21.2s20.9-10.3 20.9-21.2c2.3 0 4.1-1.9 4.1-4.2v-4.3c0-2-1.4-3.7-3.2-4.1z" fill="#f6ccb8"/><path d="m96.8 52.8.7-8.8c0-11.5-11-20.8-22.5-20.8v29.6c-3 6.5-5 15.8-5 15.8h5v17.9c7.8 0 20.9-10.3 20.9-21.2 2.3 0 4.1-1.9 4.1-4.2v-4.3c0-1.9-1.4-3.6-3.2-4z" fill="#f6ccb8" opacity=".8"/><path d="m100.8 24.3c-.2-1.2-1.4-1.1-2.7-1-3.9.2-4.9-1.1-12.9-5.8s-16.1-2.8-21.6 1.2c-25 5.8-10.4 39.7-10.4 39.7s-.1-17.9 7.6-23.3c13 8.8 26.2 9.3 33.7 4.1 2.9 6.8 2 19.2 2 19.2s5-12.6 2.3-23.8c1.8-2.7 2.5-6.2 2-10.3z" fill="#3c2417"/><path d="m98.3 47.3h-4.5c-1.4-.7-3.4-1.2-6.2-1.2-4.6 0-7.8.9-9.4 2.6-.8-.4-1.9-.9-3.2-.9s-2.4.5-3.2.9c-1.6-1.7-4.8-2.6-9.4-2.6-2.8 0-4.8.5-6.2 1.2h-4.5v3.2l1.5.5c-.2.6-.2 1.2-.2 1.8 0 4 1 9.4 9.5 9.4 7.6 0 9.6-4.7 10.5-9.2.1-.7.2-1.4.1-2 .4-.2 1-.4 2-.4s1.6.2 2 .4c-.1.6-.1 1.3.1 2 .9 4.6 2.9 9.2 10.5 9.2 8.5 0 9.5-5.4 9.5-9.4 0-.6-.1-1.2-.2-1.8l1.5-.5v-3.2zm-27 5.5c-1 4.7-2.9 7.9-8.9 7.9-6.9 0-7.8-3.7-7.8-7.7 0-1.3 0-4.3 7.8-4.3 5.4 0 7.2.8 8.1 1.8.5.7 1 1.2.8 2.3zm16.2 7.9c-6 0-7.9-3.2-8.9-7.9-.2-1.1.2-1.6.8-2.3.8-1 2.7-1.8 8.1-1.8 7.8 0 7.8 3 7.8 4.3 0 4-.9 7.7-7.8 7.7z" fill="#3c2415"/></g></svg>