<svg enable-background="new 0 0 150 150" viewBox="0 0 150 150" xmlns="http://www.w3.org/2000/svg" xmlns:xlink="http://www.w3.org/1999/xlink"><clipPath id="a"><circle cx="75" cy="75" r="75"/></clipPath><g clip-path="url(#a)"><path d="m150 75c0 41.4-33.6 75-75 75s-75-33.6-75-75 33.6-75 75-75 75 33.6 75 75" fill="#7cccec"/><path d="m99.5 20.3-24.8 72.2-48.7 39.2c13.1 11.4 30.3 18.3 49 18.3 41.4 0 75-33.6 75-75 0-1.4 0-2.9-.1-4.3z" fill="#55b2e2"/></g><g clip-path="url(#a)"><path d="m88 92.3-3.1-1.4v-9.9h-20v9.9l-3.1 1.3.8 28.1h2.3v4.4h20v-4.4h2.3z" fill="#f2ae75"/><path d="m84.9 82v8.1l-20-3.2v-4.9z" fill="#e3b9a5"/><path d="m125.4 138.8c-1.8-12.7-3.6-21.7-8-31.4-3.7-8-14-10-28.7-15-.5-.2-1.1-.4-1.6-.6v.1c-1 5.5-3.7 12.6-12.3 13.4-8.5-.8-11.3-7.9-12.3-13.4v-.1c-.5.2-1.1.4-1.6.6-14.8 5.1-25 7-28.7 15-4.4 9.6-6.2 18.7-8 31.4l50.7 17z" fill="#e6e7e8"/><path d="m79.7 103.5-1.9 3.7h-5.9l-1.8-3.7 4.8-3.9z" fill="#0c6a93"/><path d="m74.9 99.6-6.2 6.5-12-12.3s8-3.5 8-3.5l2.5 2.3z" fill="#fff"/><path d="m74.9 99.6 6.2 6.5 12-12.3s-8-3.5-8-3.5l-2.5 2.3z" fill="#fff"/><path d="m78.7 154.8-.9-46.7h-5.9l-.9 46.7z" fill="#0c6a93"/><path d="m96.6 52.8.7-8.8c0-11.5-11-20.8-22.5-20.8s-22.5 9.3-22.5 20.8l.7 8.8c-.6.2-1.2.5-1.7.9-.9.8-1.5 1.9-1.5 3.2v4.3c0 2.3 1.8 4.1 4.1 4.2 0 10.9 13.1 21.2 20.9 21.2s20.9-10.3 20.9-21.2c2.3 0 4.1-1.9 4.1-4.2v-4.3c0-2-1.4-3.7-3.2-4.1z" fill="#f2ae75"/><path d="m96.6 52.8.7-8.8c0-11.5-11-20.8-22.5-20.8v29.6c-3 6.5-5 15.8-5 15.8h5v17.9c7.8 0 20.9-10.3 20.9-21.2 2.3 0 4.1-1.9 4.1-4.2v-4.3c0-1.9-1.4-3.6-3.2-4z" fill="#f6ccb8" opacity=".8"/><path d="m98.5 52.8c-.7 2.9-1.6 4.1-2.7 7 0 0-.1-8.1-.1-8.1l-4.7-14.1s-7.4 1.6-16.1 2c-8.7-.4-16.1-2-16.1-2l-4.7 14.1v8.1c-.5-1.4-2.3-5.5-2.7-7-2.1-9.1-2.1-18.1.9-25.1 0 0 5.1-13.4 22.6-13.4h1.1c4.7 0 8.1.9 11.3 2.5 0 0 5.2 2.5 9.6.5.1-.1.3 0 .3.2-.1.6-.3 1.8-1.2 2.9 1.1 0 2.4 0 3.9-.4h.1c.1 2.9-.9 5.5-2.3 7.7 2.9 7.1 3 16 .8 25.1z" fill="#4f3c30"/></g></svg>