<svg enable-background="new 0 0 150 150" viewBox="0 0 150 150" xmlns="http://www.w3.org/2000/svg" xmlns:xlink="http://www.w3.org/1999/xlink"><clipPath id="a"><circle cx="75" cy="75" r="75"/></clipPath><g clip-path="url(#a)"><path d="m150 75c0 41.4-33.6 75-75 75s-75-33.6-75-75 33.6-75 75-75 75 33.6 75 75" fill="#a3d167"/><path d="m97.4 17.8-22.7 74.7-38.8 46.5c11.4 7 24.8 11 39.1 11 41.4 0 75-33.6 75-75 0-1.6 0-3.2-.1-4.8z" fill="#7fb945"/></g><g clip-path="url(#a)"><path d="m65.4 90.9h19.9l-.3 7.4h-19.4z" fill="#32303a"/><path d="m109.9 57.4c.3-.3.5-.7.7-1.1.6-.9 1-2.1 1-3.3 0-2.1-1.1-3.9-2.8-5 0-.2.1-.5.1-.8 0-1.2-.4-2.3-1-3.3.7-1 1-2.1 1-3.4 0-2.5-1.5-4.6-3.7-5.5.1-.4.1-.7.1-1.1 0-1.9-1-3.6-2.4-4.6.2-.5.3-1.1.3-1.6 0-2.7-2.2-4.8-4.8-4.8-.4 0-.7 0-1.1.1-.6-2-2.5-3.5-4.8-3.5-.6 0-1.2.1-1.7.3-.8-1.4-2.3-2.4-4-2.4-.7-2.9-3.2-5-6.3-5-.4 0-.9 0-1.3.1-1.2-1.8-3.2-3-5.5-3-3.2 0-5.9 2.3-6.5 5.3-1.2.2-2.3.9-3.1 1.8-.9-.8-2.2-1.3-3.5-1.3-2.1 0-3.9 1.2-4.8 3-3.5 0-6.3 2.9-6.3 6.4 0 .5.1.9.2 1.4-1.8.6-3.1 2.3-3.1 4.3v.5c-2.1.6-3.6 2.5-3.6 4.7 0 1 .3 2 .9 2.8-1.1.9-1.8 2.3-1.8 3.8v.1c-2.2 1.1-3.7 3.3-3.7 5.9 0 1.9.8 3.6 2.1 4.8-.3.7-.4 1.4-.4 2.2 0 1.3.5 2.5 1.2 3.4-.6.8-.9 1.7-.9 2.7 0 1.4.6 2.6 1.6 3.4-.3.7-.4 1.4-.4 2.2 0 2.3 1.4 4.3 3.5 5.1-.1.5-.2 1-.2 1.5 0 2 1.2 3.7 2.9 4.4v.6c0 2.7 2.2 4.9 4.9 4.9h.2c.3 3 2.8 5.4 5.9 5.4.4 0 .7 0 1.1-.1 0 2.5 2.1 4.5 4.6 4.5.3 0 .6 0 .9-.1.9 1.6 2.6 2.6 4.6 2.6.9 0 1.8-.2 2.6-.7 1.1 1 2.6 1.6 4.2 1.6 3.2 0 5.8-2.4 6.2-5.5 1.1-.1 2-.6 2.8-1.3.8.6 1.8 1 3 1 2 0 3.7-1.2 4.5-2.9.3.1.7.1 1 .1 3.3 0 5.9-2.7 5.9-5.9 0-.2 0-.4 0-.6 1.6-.8 2.7-2.4 2.9-4.3 2-.9 3.5-3 3.5-5.4 0-.3 0-.6-.1-.9 1.2-1.1 2-2.6 2-4.3 0-.2 0-.4 0-.5 2-.8 3.4-2.7 3.4-5-.4-1.4-1-2.7-2-3.7z" fill="#3c2417"/><path d="m87.8 93.1-4.1-.9v-10.6h-16.7v10.6l-4.2.9 4.2 26.3h16.7z" fill="#bf8858"/><path d="m67 81.7v4.6l16.7 5.9v-10.5z" fill="#e3b9a5"/><path d="m58.5 111.9h33.6v27.1h-33.6z" fill="#fff"/><path d="m58.5 111.9h33.6v42.1h-33.6z" fill="#ff7a7d"/><path d="m114.7 151c-.1-7.7-.3-25.7-.6-28-.9-7.9-2.9-17.2-9.8-23.8-6-5.7-13.2-6.8-19.3-6.9h-.1l-5.5 25.3v33.4z" fill="#42404d"/><path d="m65.7 92.3c-6.1.1-13.3 1.2-19.3 6.9-6.9 6.7-8.9 16-9.8 23.8-.3 2.3-.4 20.3-.6 28h35.1v-33.4z" fill="#42404d"/><path d="m55.6 97.5 9.4 3.5-3.7 5 9.9 11.6-5.8-26.7z" fill="#32303a"/><path d="m95 97.5-9.7-6.6-5.8 26.7 9.9-11.6-3.7-5z" fill="#32303a"/><path d="m94.5 52.7v-8.7c0-9.2-10.7-20.8-19.1-20.8s-19.1 11.6-19.1 20.8v8.7c-2.3 0-4.2 1.9-4.2 4.2v4.3c0 2.3 1.9 4.2 4.2 4.2 0 9.2 10.7 21.2 19.1 21.2s19.1-12 19.1-21.2c2.3 0 4.2-1.9 4.2-4.2v-4.3c.1-2.3-1.8-4.2-4.2-4.2z" fill="#bf8858"/><path d="m75.4 71.1v15.4c8.4 0 19.1-12 19.1-21.2 2.3 0 4.2-1.9 4.2-4.2v-4.3c0-2.3-1.9-4.2-4.2-4.2v-8.6c0-9.2-10.7-20.8-19.1-20.8v33.8c-3.1 6.5-4.2 13.3-4.2 13.3z" fill="#f6ccb8" opacity=".8"/><path d="m102.9 36.9c.6-.8 1-1.8 1-2.9 0-1-.3-1.9-.8-2.6.7-.8 1.1-1.9 1.1-3.1 0-2.4-1.7-4.3-3.9-4.8-.4-.3-.8-.4-1.3-.6.1-.4.2-.9.2-1.4 0-2.7-2.2-4.9-4.9-4.9-1.2 0-2.3.4-3.2 1.2-.7-2.3-2.9-4-5.5-4-3.2 0-5.7 2.6-5.7 5.7 0 .9.2 1.8.6 2.5-.6.1-1.2.4-1.6.8 0-.1 0-.1 0-.2 0-1.7-.8-3.2-2.1-4.1 0-.3.1-.5.1-.8 0-3-2.5-5.5-5.5-5.5-.1 0-.2 0-.3 0-.5-.1-.9-.1-1.4-.1-1.7 0-3.2.6-4.4 1.7-2.7.3-4.8 2.5-4.8 5.3-1.6.2-3 1.2-3.6 2.6-1.5.9-2.6 2.6-2.6 4.6-1.9.7-3.3 2.5-3.3 4.6 0 .4.1.8.1 1.2-1.2 1.1-1.9 2.7-1.9 4.4 0 2.1 1.1 4 2.7 5.1 0 .3-.1.6-.1.9 0 3.5 2.8 6.3 6.3 6.3 1.7 0 3.2-.7 4.3-1.7 1.8-.4 3.2-1.7 3.6-3.5h.1c2.6 0 4.8-2.1 4.8-4.8v-.1c1.5-.4 2.8-1.6 3.3-3 .2-.1.5-.1.7-.2.9 2.4 3.2 4 5.9 4 .2 2.4 2.3 4.3 4.8 4.3h.4v.6c0 2.7 2.2 4.9 4.9 4.9 1.8 0 3.4-1 4.3-2.5 1.1 1.2 2.7 1.9 4.5 1.9 3.5 0 6.3-2.8 6.3-6.3-.1-2.4-1.3-4.4-3.1-5.5z" fill="#3c2417"/></g></svg>