<svg enable-background="new 0 0 150 150" viewBox="0 0 150 150" xmlns="http://www.w3.org/2000/svg" xmlns:xlink="http://www.w3.org/1999/xlink"><clipPath id="a"><circle cx="75" cy="75" r="75"/></clipPath><g clip-path="url(#a)"><path d="m150 75c0 41.4-33.6 75-75 75s-75-33.6-75-75 33.6-75 75-75 75 33.6 75 75" fill="#c0b2da"/><path d="m96.8 15.5-22.1 77-38.8 46.5c11.4 7 24.8 11 39.1 11 41.4 0 75-33.6 75-75 0-2.2-.1-4.4-.3-6.5z" fill="#a390c8"/></g><g clip-path="url(#a)"><path d="m83.4 92.1v-10.6h-16.6v10.6l-4.2.3 4.2 26.9h16.6l4.2-26.9z" fill="#f2ae75"/><path d="m66.8 81.5v5.4l16.6 5.2v-10.6z" fill="#e3b9a5"/><g fill="#32303a"><path d="m92.2 138.9-30.7-7-1.9 7z"/><path d="m90.6 138.9-1.9-7-30.7 7z"/><path d="m113.4 151.9-.6-32.8c-.9-7.1-2.6-15.2-8.5-20.9-6-5.7-13.2-5.5-19.5-6v.3l-9.7 26.5-9.7-26.6c0-.2 0-.2 0-.2-6.3.5-13.5.3-19.4 6-6 5.7-7.6 13.8-8.5 20.9l-.6 32.8z"/></g><path d="m55.8 99 9.2 3.4-3.6 5 13.7 11.6-9.7-26.8z" fill="#fff"/><path d="m94.4 99-9.6-6.8-9.7 26.8 13.7-11.6-3.6-5z" fill="#fff"/><path d="m94.1 53.2v-8.7c0-9.2-10.7-20.8-19.1-20.8s-19.1 11.6-19.1 20.8v8.7c-2.3 0-4.2 1.9-4.2 4.2v4.3c0 2.3 1.9 4.2 4.2 4.2 0 9.2 10.7 21.1 19.1 21.1s19.1-12 19.1-21.2c2.3 0 4.2-1.9 4.2-4.2v-4.3c0-2.3-1.9-4.1-4.2-4.1z" fill="#f2ae75"/><path d="m75 71.6v15.4c8.4 0 19.1-12 19.1-21.2 2.3 0 4.2-1.9 4.2-4.2v-4.3c0-2.3-1.9-4.2-4.2-4.2v-8.7c0-9.2-10.7-20.8-19.1-20.8v33.8c-3.1 6.5-4.2 13.3-4.2 13.3z" fill="#f6ccb8" opacity=".8"/><circle cx="88.9" cy="23.6" fill="#2d1b10" r="11.7"/><path d="m94 52.1c-1.7-1.1-4.8-1.1-7.6-1.1-4.7 0-7.8.9-9.3 2.7-.5-.3-1.3-.4-2.1-.4-.9 0-1.6.1-2.1.4-1.5-1.8-4.6-2.7-9.3-2.7-2.8 0-5.8 0-7.5 1.1h-2.9v3.2l1.3.7c0 4.9 2.4 10.7 9.2 10.7 5.5 0 9-3 10.2-8.9.1-.4.1-.8.1-1.2.1-.3.5-.7 1.1-.7s1 .3 1.1.7c0 .4 0 .8.1 1.2 1.2 5.9 4.7 8.9 10.2 8.9 6.7 0 9.1-5.7 9.2-10.7l1.3-.7v-3.2zm-21.7 5.3c-1.1 5.2-3.9 7.7-8.7 7.7-7.3 0-7.7-7.7-7.7-9.2 0-1.1.2-1.9.8-2.4 1-1 4.5-1.1 6.9-1.1 5.3 0 7.4 1.2 8.2 2.2.5.8.7 1.7.5 2.8zm14.1 7.8c-4.8 0-7.7-2.5-8.7-7.7-.2-1.1 0-2 .5-2.7.8-1 2.9-2.2 8.2-2.2 2.7 0 5.8 0 6.9 1.1.5.5.8 1.3.8 2.4 0 1.3-.3 9.1-7.7 9.1z" fill="#fff"/><path d="m66.5 44.9c-.6 2-1.7 4.7-3.6 6.3 5.7-1.4 10.5-4.8 14-8.8-.3 2-1.6 4.3-3.7 6.3 1.5-.7 3-1.6 4.4-2.6 3.2-2.2 5.1-5.1 7.2-8 2 7.4 5.3 14.5 13.2 18.4 5.7-11.4 4.5-37.8-20.4-38.6-30.7-.8-29.6 32-27.5 40.1 6.4-2.1 15.1-11.2 16.4-13.1z" fill="#3c2417"/></g></svg>