<svg enable-background="new 0 0 204 44.8" height="44.8" viewBox="0 0 204 44.8" width="204" xmlns="http://www.w3.org/2000/svg" xmlns:xlink="http://www.w3.org/1999/xlink"><linearGradient id="a"><stop offset="0" stop-color="#4a4949"/><stop offset="1" stop-color="#666565"/></linearGradient><linearGradient id="b" gradientTransform="matrix(1 0 0 -1 0 46.4301)" gradientUnits="userSpaceOnUse" x1="8.3378" x2="8.3378" xlink:href="#a" y1="9.8181" y2="41.7575"/><linearGradient id="c" gradientTransform="matrix(1 0 0 -1 0 46.4301)" gradientUnits="userSpaceOnUse" x1="27.6467" x2="27.6467" xlink:href="#a" y1="9.8181" y2="42.4108"/><linearGradient id="d"><stop offset="0" stop-color="#0d48a1"/><stop offset="1" stop-color="#20ade2"/></linearGradient><linearGradient id="e" gradientTransform="matrix(1 0 0 -1 0 46.4301)" gradientUnits="userSpaceOnUse" x1="81.5125" x2="81.5125" xlink:href="#d" y1="10.5934" y2="42.8232"/><linearGradient id="f" gradientTransform="matrix(1 0 0 -1 0 46.4301)" gradientUnits="userSpaceOnUse" x1="54.2473" x2="54.2473" xlink:href="#d" y1="9.8176" y2="36.0956"/><linearGradient id="g" gradientTransform="matrix(1 0 0 -1 0 46.4301)" gradientUnits="userSpaceOnUse" x1="105.8982" x2="105.8982" xlink:href="#d" y1="9.8501" y2="34.3045"/><linearGradient id="h" gradientTransform="matrix(1 0 0 -1 0 46.4301)" gradientUnits="userSpaceOnUse" x1="126.1754" x2="126.1754" xlink:href="#d" y1="10.5905" y2="34.2845"/><linearGradient id="i" gradientTransform="matrix(1 0 0 -1 0 46.4301)" gradientUnits="userSpaceOnUse" x1="140.5482" x2="140.5482" xlink:href="#d" y1="10.5934" y2="42.4341"/><linearGradient id="j" gradientTransform="matrix(1 0 0 -1 0 46.4301)" gradientUnits="userSpaceOnUse" x1="151.4351" x2="151.4351" xlink:href="#d" y1="10.5934" y2="34.2344"/><linearGradient id="k" gradientTransform="matrix(1 0 0 -1 0 46.4301)" gradientUnits="userSpaceOnUse" x1="167.4542" x2="167.4542" xlink:href="#d" y1="10.5934" y2="34.26"/><linearGradient id="l" gradientTransform="matrix(1 0 0 -1 0 46.4301)" gradientUnits="userSpaceOnUse" x1="192.0607" x2="192.0607" xlink:href="#d" y1="1.5601" y2="34.3563"/><path d="m10.6 28.8s.2 2.1-1.9 2.1c-2.4 0-4.3-2.8-4.3-2.8l-4.4 4s3.7 4.5 8.8 4.5c5.4 0 7.9-3.5 7.9-5.8v-26.1h-6.1z" fill="url(#b)"/><path d="m25.5 13.5c-1.5-1.6 2.1-6.8 7.3-.5l4.2-4s-3.8-5-9.1-5c-6.2 0-10.9 7-7.7 11.3 4.1 5.4 11.3 9.4 11.3 12.2 0 1.6-.9 3.2-3.1 3.2-4.6 0-5.6-4-5.6-4l-5 3s3.4 6.8 9.6 6.8 10-2.9 10-9.6c0-4.7-9.3-10.6-11.9-13.4z" fill="url(#c)"/><path d="m53.1 0c-5.1-.2-11.3 4.7-11.3 4.7l11.8 11.6z" fill="#1faae0"/><path d="m56.3 2.3-.6 16.2 6.8-14.5s-2.1-1.4-6.2-1.7z" fill="#0e4da4"/><path d="m64.4 6-2.7 4.8s3.9 2.5 3.9 2.9 3.9-3.9 3.9-3.9-3.5-3.5-5.1-3.8z" fill="#1d9fd9"/><path d="m83.2 12.2c-3.2 0-6 2.5-6.4 2.8v-11.4h-5.6v32.2h6s0-13.7 0-14.3c.1-2.1 2.1-4.1 4.7-4.1 2.5 0 3.9 2.5 4 4.3v14h5.9v-16s-.2-7.6-8.6-7.5z" fill="url(#e)"/><path d="m52.2 30.5c-11.7-4.5-5.5-16.8-5.5-16.8l-4.3-3.5c-7.5 10.3-1.4 23.4 7.6 25.6 13.4 3.4 19.5-5.4 19.5-5.4l-3.9-3.8c-4.5 3.8-9.1 5.6-13.4 3.9z" fill="url(#f)"/><path d="m111.9 15c0-.6-2.6-2.8-7.8-2.9-3.8-.1-10.1 4.2-10.1 10.8 0 10.7 7 13.6 11.2 13.6s6.7-3.1 6.7-3.1v2.3h6v-23.1h-6zm-6 16.2c-2.8 0-6.8-2-6.5-7.7.2-4.2 3.5-6.2 6.5-6.2 3.6 0 6.6 2.5 6.6 7.1 0 5.7-4.9 6.8-6.6 6.8z" fill="url(#g)"/><path d="m124.9 15.2v-2.5h-4.9v23.1h5.8v-12.3c.1-5.9 2.7-7.2 5-5.9l1.6-5c0 .1-3.7-2.2-7.5 2.6z" fill="url(#h)"/><path d="m143.1 4h-5.9v8.8h-2.8v4.7h2.8v18.3h6v-18.3h3.5v-4.7h-3.5z" fill="url(#i)"/><path d="m148.5 12.2h5.8v23.6h-5.8z" fill="url(#j)"/><path d="m162.9 14.9v-2.4h-5.6v23.2h5.7v-12.7c-.1-7.5 9.5-7.8 9.2-1l-.2 13.7h5.6s0-12.4 0-16.5c.1-6-7.2-10-14.7-4.3z" fill="url(#k)"/><path d="m198.3 12.7v2.7s-2.5-3.3-7.4-3.3c-5.4 0-11.2 4.3-10.7 13.4.4 7.5 11.1 14.6 17.9 7.3 0 0 1.9 7-6.1 7-4.9 0-5.7-2.1-5.7-2.1h-6.2c2 8.1 14.9 8.9 20 5 4.1-3.1 3.6-6.8 3.8-10v-19.9zm-5.9 17.9c-2.5 0-6.5-1.4-6.5-6.6 0-4.9 3.7-6.5 6.2-6.5 3.3 0 6.6 1.7 6.6 6.8-.1 4.6-3.8 6.3-6.3 6.3z" fill="url(#l)"/></svg>