<svg enable-background="new 0 0 496 496" viewBox="0 0 496 496" xmlns="http://www.w3.org/2000/svg"><g fill="#464747"><path d="m296 223.1c-13 0-23.5-4.2-31.2-12.4-10.2-11-12.4-26.2-12.8-34.4-1.7-.7-3.3-1.1-4-1.2-.7 0-2.3.5-4 1.2-.4 8.2-2.6 23.5-12.8 34.4-7.7 8.2-18.2 12.4-31.2 12.4-12.9 0-23.7-4.2-31.9-12.5-16.1-16.2-16.1-42.4-16.1-43.5 0-2.8 1.5-5.3 3.8-6.8.6-.4 15.2-9.2 40.5-9.2 18.7 0 33.4 6.9 40.2 10.9 3.3-1.4 7.7-2.9 11.5-2.9s8.2 1.5 11.5 2.9c6.8-4 21.5-10.9 40.2-10.9 25.3 0 39.9 8.8 40.5 9.2 2.3 1.4 3.8 4 3.8 6.8 0 1.1 0 27.3-16.1 43.6-8.3 8.2-19 12.4-31.9 12.4zm-28-47.5c.3 5.9 1.7 17 8.6 24.3 4.6 4.9 11 7.3 19.4 7.3 8.6 0 15.3-2.5 20.5-7.7 8-8 10.5-20.5 11.2-27.4-5.1-2-14.7-4.9-28-4.9-14.6-.1-26.3 5.3-31.7 8.4zm-99.7-3.6c.7 6.8 3.2 19.3 11.2 27.4 5.2 5.2 11.9 7.7 20.5 7.7 8.5 0 14.9-2.4 19.5-7.3 6.8-7.2 8.2-18.4 8.5-24.2-5.4-3-17.1-8.4-31.7-8.4-13.3-.1-22.9 2.8-28 4.8z"/><path d="m336 175.1c-3.3 0-6.5-2.1-7.6-5.5-1.4-4.2.9-8.7 5.1-10.1l24-8c4.2-1.4 8.7.9 10.1 5.1s-.9 8.7-5.1 10.1l-24 8c-.8.3-1.7.4-2.5.4z"/><path d="m160 175.1c-.8 0-1.7-.1-2.5-.4l-24-8c-4.2-1.4-6.5-5.9-5.1-10.1s5.9-6.5 10.1-5.1l24 8c4.2 1.4 6.5 5.9 5.1 10.1-1.1 3.4-4.3 5.5-7.6 5.5z"/><path d="m153.5 230.2c-.2 0-.5 0-.7 0-11.4-1-32.8-11.9-32.8-46.2 0-22 10.3-29.8 11.5-30.6l9.1 13.2s.1-.1.3-.2c0 0-4.9 4.3-4.9 17.6 0 12.4 3.3 21.2 9.7 26.4 4.2 3.4 8.5 3.9 8.5 3.9 4.4.4 7.7 4.3 7.3 8.7-.4 4.1-3.9 7.2-8 7.2z"/><path d="m342.4 230.8c-.5 0-1 0-1.5-.1-4.3-.8-7.1-4.9-6.4-9.2.3-3.9 3.3-6.9 7.2-7.2 2.2-.3 18.3-3.3 18.3-30.3 0-13.3-4.8-17.6-4.9-17.6.2.2.3.2.3.2l9.1-13.2c1.2.8 11.5 8.5 11.5 30.6 0 31.2-17.8 43.1-29.5 45.7-1.2.7-2.6 1.1-4.1 1.1z"/><path d="m360 168c-1.3 0-2.7-.3-3.9-1-23-13-28.2-37.5-32-55.3-1.2-5.4-2.9-13.5-4.5-15.6-6 .2-16.8 3.4-27.4 6.6-14.6 4.4-31.1 9.4-44.2 9.4-.4 0-36.2-.4-58.6-11-3.5 11.4-10.1 24.5-16.3 34.7-9.1 14.7-22.9 32.3-37 32.3-4.4 0-8-3.6-8-8s3.6-8 8-8c3.1 0 12.3-6.7 23.4-24.7 10.2-16.6 16.1-32.6 16.6-39.8.2-3.1 2.2-5.8 5.1-6.9s6.2-.5 8.4 1.7c10.1 9.4 43.6 13.6 58.4 13.6 10.7 0 26-4.6 39.6-8.7 13-3.9 24.2-7.3 32.4-7.3 13.7 0 16.7 14.4 19.7 28.3 3.3 15.7 7.5 35.2 24.2 44.7 3.8 2.2 5.2 7.1 3 10.9-1.4 2.6-4.1 4.1-6.9 4.1z"/><path d="m488 496c-4.4 0-8-3.6-8-8v-.5c0-43.9 0-78.7-62.6-93.8-51.7-12.5-113.4-36-113.4-77v-4.2c0-4.4 3.6-8 8-8s8 3.6 8 8v4.2c0 23.5 36.9 45.9 101.2 61.5 33.4 8.1 54.8 22.7 65.5 44.9 9.4 19.5 9.4 42.3 9.4 64.4v.5c-.1 4.4-3.7 8-8.1 8z"/><path d="m8 496c-4.4 0-8-3.6-8-8v-.5c0-22.1 0-44.9 9.4-64.4 10.6-22.1 32.1-36.8 65.4-44.9 64.3-15.6 101.2-38 101.2-61.5v-4.2c0-4.4 3.6-8 8-8s8 3.6 8 8v4.2c0 41-61.7 64.5-113.4 77.1-62.6 15.1-62.6 49.8-62.6 93.7v.5c0 4.4-3.6 8-8 8z"/><path d="m362.2 170.3c-.9 0-1.8-.1-2.7-.5-4.2-1.5-6.3-6-4.9-10.2 3.2-9 5.3-18.9 5.3-22.6 0-15.9-5.4-32.4-14.4-44.2-1.4-1.9-2-4.3-1.5-6.6s2-4.3 4.1-5.4c10.5-5.5 15.6-17.2 17.9-25.3-22.8-1.9-35.6-10.5-48-18.8-15.1-10.1-30.9-20.7-70-20.7-59.3 0-67.5 31.7-72.4 50.6-.6 2.5-2.4 4.5-4.8 5.4-16.9 6.8-34.8 33.5-34.8 52 0 19.2.2 27.3 4.5 34 2.4 3.7 1.3 8.7-2.4 11.1s-8.7 1.3-11.1-2.4c-7-11-7-22.2-7-42.6 0-23.7 19.5-54 41.1-65.1 5.7-21.4 19.3-59 86.9-59 43.9 0 62.6 12.5 79.1 23.5 13.2 8.9 24.6 16.5 48.9 16.5 2.3 0 4.4 1 5.9 2.6 1.5 1.7 2.2 3.9 2 6.2-.1 1.2-3 26.7-20.8 41.4 8.2 13.6 12.9 30.5 12.9 46.9 0 6.8-3.1 19.2-6.2 28-1.2 3.2-4.3 5.2-7.6 5.2z"/><path d="m214.7 56c-1.7 0-3.3-.5-4.8-1.6-3.5-2.6-4.3-7.6-1.7-11.2 16.4-22.1 41.4-36.9 68.6-40.7 4.4-.6 8.4 2.5 9 6.8.6 4.4-2.5 8.4-6.8 9-23 3.2-44.1 15.7-58 34.3-1.5 2.3-3.9 3.4-6.3 3.4z"/><path d="m263.7 64.3c-1.8 0-3.5-.6-5-1.8-3.4-2.8-4-7.8-1.2-11.2 14.1-17.6 34.2-29.6 56.4-33.8 4.3-.8 8.5 2 9.3 6.4.8 4.3-2 8.5-6.4 9.3-18.5 3.5-35.1 13.4-46.8 28.1-1.7 2-4 3-6.3 3z"/><path d="m248 352c-5.7 0-24.9-.3-34.5-3.8-13.9-5.1-56.8-49.6-61.6-66.3-2.2-7.8-5.8-50.5-6.5-59-.2-2.6.9-5.2 3-6.9s4.8-2.2 7.4-1.4c7.3 2.3 12 11.4 21.2 30.1 7.4 15.1 21.2 43.3 30.9 43.3 10.7 0 15.4-1.9 20.5-3.9 4.8-1.9 10.3-4.1 19.5-4.1s14.7 2.2 19.5 4.1c5 2 9.8 3.9 20.5 3.9 9.7 0 23.5-28.2 30.9-43.3 9.2-18.8 13.9-27.9 21.2-30.1 2.5-.8 5.3-.3 7.4 1.4s3.2 4.2 3 6.9c-.7 8.5-4.2 51.2-6.5 59-4.8 16.7-47.7 61.2-61.6 66.3-9.4 3.5-28.6 3.8-34.3 3.8zm-83.5-96.5c1.1 11.2 2.2 19.8 2.8 22 1.2 4.1 9.7 16.1 23.6 30.8 14.4 15.3 25.1 23.7 28.2 24.9 3.7 1.4 14.3 2.8 28.9 2.8s25.2-1.5 28.9-2.8c3-1.1 13.8-9.6 28.2-24.9 13.9-14.8 22.4-26.7 23.6-30.8.6-2.2 1.7-10.8 2.8-22-11.6 23.5-24.8 48.5-43.5 48.5-13.7 0-20.7-2.8-26.4-5-4.3-1.7-7.5-3-13.6-3-6.2 0-9.3 1.2-13.6 3-5.6 2.2-12.6 5-26.4 5-18.7 0-31.9-25-43.5-48.5z"/><path d="m296 456c-1.8 0-3.6-.6-5.1-1.9l-42.9-35.7-42.9 35.7c-3.4 2.8-8.4 2.4-11.3-1-2.8-3.4-2.4-8.4 1-11.3l48-40c3-2.5 7.3-2.5 10.2 0l48 40c3.4 2.8 3.9 7.9 1 11.3-1.4 1.9-3.7 2.9-6 2.9z"/><path d="m248 416c-.9 0-1.8-.1-2.6-.4-34.5-11.9-63.3-35.9-81.3-67.6-2.2-3.8-.8-8.7 3-10.9s8.7-.8 10.9 3c15.6 27.5 40.3 48.5 69.9 59.4 29.6-10.9 54.4-31.9 69.9-59.4 2.2-3.8 7.1-5.2 10.9-3s5.2 7.1 3 10.9c-17.9 31.7-46.8 55.7-81.3 67.6-.6.3-1.5.4-2.4.4z"/><path d="m296 456c-2.1 0-4.2-.8-5.8-2.5-3-3.2-2.9-8.3.3-11.3 24.2-22.9 38.9-53.8 41.5-87 .3-4.4 4.2-7.7 8.6-7.4s7.7 4.2 7.4 8.6c-2.9 37.2-19.4 71.7-46.5 97.4-1.5 1.5-3.5 2.2-5.5 2.2z"/><path d="m200 456c-2 0-4-.7-5.5-2.2-27.1-25.6-43.6-60.2-46.5-97.4-.3-4.4 2.9-8.3 7.4-8.6 4.4-.3 8.3 2.9 8.6 7.4 2.6 33.2 17.3 64.1 41.5 87 3.2 3 3.3 8.1.3 11.3-1.6 1.7-3.7 2.5-5.8 2.5z"/><circle cx="248" cy="448" r="8"/><circle cx="248" cy="480" r="8"/><path d="m392 496c-4.4 0-8-3.6-8-8v-109.6c0-4.4 3.6-8 8-8s8 3.6 8 8v109.6c0 4.4-3.6 8-8 8z"/><path d="m104 496c-4.4 0-8-3.6-8-8v-109.6c0-4.4 3.6-8 8-8s8 3.6 8 8v109.6c0 4.4-3.6 8-8 8z"/><path d="m424 496c-4.4 0-8-3.6-8-8v-100.8c0-4.4 3.6-8 8-8s8 3.6 8 8v100.8c0 4.4-3.6 8-8 8z"/><path d="m72 496c-4.4 0-8-3.6-8-8v-100.8c0-4.4 3.6-8 8-8s8 3.6 8 8v100.8c0 4.4-3.6 8-8 8z"/><path d="m424 464h-32c-4.4 0-8-3.6-8-8s3.6-8 8-8h32c4.4 0 8 3.6 8 8s-3.6 8-8 8z"/><path d="m104 464h-32c-4.4 0-8-3.6-8-8s3.6-8 8-8h32c4.4 0 8 3.6 8 8s-3.6 8-8 8z"/><path d="m241.1 250.4c4.4 1.7 9.3 1.7 13.7 0 4.2-1.6 9.3-3.4 12.1-3.4 21.8 0 20.5 14.8 38.8 10.5 0 0-9.5 15.7-30 15.7-7.2 0-13-3-17.4-6.6-6-5-14.7-5-20.8 0-4.4 3.6-10.1 6.6-17.4 6.6-20.5 0-30-15.7-30-15.7 18.2 4.2 17-10.5 38.8-10.5 3 0 8.1 1.7 12.2 3.4z"/></g></svg>