<svg enable-background="new 0 0 496 496" viewBox="0 0 496 496" xmlns="http://www.w3.org/2000/svg"><g fill="#464747"><path d="m472 496c-4.4 0-8-3.6-8-8 0-19.2-8.4-56-64.6-87-10.3-5.7-23.4-10.7-37.2-15.9-34.8-13.2-74.2-28.2-74.2-60.4v-32.2c0-4.4 3.6-8 8-8s8 3.6 8 8v32.2c0 21.2 32.5 33.5 63.9 45.4 14.4 5.5 28 10.6 39.3 16.9 63.4 35 72.8 78.3 72.8 101 0 4.4-3.6 8-8 8z"/><path d="m24 496c-4.4 0-8-3.6-8-8 0-22.7 9.5-66 72.9-101 11.3-6.2 24.9-11.4 39.3-16.9 31.4-11.9 63.9-24.2 63.9-45.4v-32.2c0-4.4 3.6-8 8-8s8 3.6 8 8v32.2c0 32.2-39.4 47.2-74.2 60.4-13.9 5.3-27 10.2-37.2 15.9-56.3 31-64.7 67.8-64.7 87 0 4.4-3.6 8-8 8z"/><path d="m248.7 464.3c-2.5 0-4.9-1.1-6.5-3.3-2.6-3.6-1.9-8.6 1.7-11.2 32.4-23.8 58.9-55.4 76.7-91.5 2-4 6.8-5.6 10.7-3.6 4 2 5.6 6.8 3.6 10.7-18.9 38.3-47.1 71.9-81.5 97.3-1.4 1.1-3.1 1.6-4.7 1.6z"/><path d="m247.3 464.3c-1.6 0-3.3-.5-4.7-1.6-34.4-25.3-62.6-58.9-81.5-97.3-2-4-.3-8.8 3.6-10.7 4-2 8.8-.3 10.7 3.6 17.8 36 44.3 67.7 76.7 91.5 3.6 2.6 4.3 7.6 1.7 11.2-1.6 2.2-4 3.3-6.5 3.3z"/><path d="m312 282.8c-4.4 0-8-3.6-8-8v-60.4c-10.3-2.2-32.6-6.4-56-6.4s-45.7 4.1-56 6.4v60.4c0 4.4-3.6 8-8 8s-8-3.6-8-8v-66.8c0-3.6 2.5-6.8 6-7.7 1.3-.3 32-8.3 66-8.3s64.7 7.9 66 8.3c3.5.9 6 4.1 6 7.7v66.8c0 4.4-3.6 8-8 8z"/><path d="m312 216c-1.6 0-3.3-.5-4.7-1.5-3.6-2.6-4.4-7.6-1.8-11.2l34.7-48.1c2.6-3.6 7.6-4.4 11.2-1.8s4.4 7.6 1.8 11.2l-34.7 48.1c-1.6 2.1-4 3.3-6.5 3.3z"/><path d="m184 216c-2.5 0-4.9-1.2-6.5-3.3l-34.7-48.1c-2.6-3.6-1.8-8.6 1.8-11.2s8.6-1.8 11.2 1.8l34.7 48.1c2.6 3.6 1.8 8.6-1.8 11.2-1.4 1-3.1 1.5-4.7 1.5z"/><path d="m312 238h-24c-3.3 0-6-2.7-6-6s2.7-6 6-6h24c3.3 0 6 2.7 6 6s-2.7 6-6 6z"/><path d="m208 238h-24c-3.3 0-6-2.7-6-6s2.7-6 6-6h24c3.3 0 6 2.7 6 6s-2.7 6-6 6z"/><path d="m288 274c-2.3 0-4.5-1.4-5.5-3.6-1.3-3 .1-6.6 3.1-7.9l24-10.3c3-1.3 6.6.1 7.9 3.1s-.1 6.6-3.1 7.9l-24 10.3c-.8.3-1.6.5-2.4.5z"/><path d="m208 274c-.8 0-1.6-.2-2.4-.5l-24-10.3c-3-1.3-4.4-4.8-3.1-7.9 1.3-3 4.8-4.4 7.9-3.1l24 10.3c3 1.3 4.4 4.8 3.1 7.9-1 2.2-3.2 3.6-5.5 3.6z"/><path d="m248 320c-20.7 0-42.1-9.8-60.1-27.5-17.1-16.8-29.4-39.3-34.9-63.7-10.9-3.9-25-16.3-25-44.8 0-7.8 1.2-14.6 3.5-20.3 2.6-6.3 8.2-10.8 15-12 10.2-1.8 16.8-13.9 24.5-27.9 9.6-17.4 20.4-37.2 42.8-43.6 3.7-1.1 7.7.7 9.4 4.2 10.9 22.3 66.3 64.9 123.9 67.4 7.9.3 14.9 5.4 17.8 12.8 2.1 5.5 3.2 12 3.2 19.3 0 28.5-14.1 40.9-25 44.8-5.6 24.4-17.9 46.9-34.9 63.7-18.1 17.8-39.5 27.6-60.2 27.6zm-87.4-105.7c3.6.2 6.4 2.9 7.1 6.5 9.7 51.4 49.3 83.3 80.4 83.3s70.7-31.8 80.4-83.3c.7-3.6 3.4-6.2 7.1-6.5 2-.3 16.6-3.4 16.6-30.3 0-5.4-.7-10-2.1-13.6-.6-1.5-2-2.5-3.6-2.6-28.5-1.3-59.6-11.5-87.6-28.9-20.2-12.5-37.2-27.7-46.1-41.1-12.4 6.3-20.1 20.2-27.5 33.7-8.8 16.1-18 32.8-35.8 35.9-1.3.2-2.5 1.2-3 2.4-1.1 2.5-2.3 7-2.3 14.1-.2 27 14.3 30.1 16.4 30.4z"/><path d="m336 320c-4.4 0-8-3.6-8-8s3.6-8 8-8c22.9 0 39.9-3.7 48-5.9-1.1-222.5-65.7-282.1-104-282.1-32.8 0-50.8 14.1-51 14.2-2.1 1.7-4.8 2.2-7.4 1.4-.1 0-13.7-4.1-27.5-1.3-19.6 4-38.9 27.4-53.2 64.4-18.5 47.9-28.4 118.2-28.9 203.4 8.1 2.2 25.1 5.9 48 5.9 4.4 0 8 3.6 8 8s-3.6 8-8 8c-35.5 0-57.9-8.2-58.8-8.5-3.1-1.2-5.2-4.2-5.2-7.5 0-199.2 49-280 94.9-289.3 13-2.6 25.4-.7 31.5.7 7.6-4.9 27.5-15.4 57.6-15.4 14.2 0 50.4 6.4 79.8 65.6 26.7 53.5 40.2 133.7 40.2 238.4 0 3.3-2.1 6.3-5.2 7.5-.9.3-23.3 8.5-58.8 8.5z"/></g></svg>