<svg enable-background="new 0 0 496 496" viewBox="0 0 496 496" xmlns="http://www.w3.org/2000/svg"><g fill="#464747"><path d="m24 496c-4.4 0-8-3.6-8-8v-16c0-32.4 18.3-63.5 51.4-87.5 3.6-2.6 8.6-1.8 11.2 1.8s1.8 8.6-1.8 11.2c-37 26.8-44.8 55.3-44.8 74.5v16c0 4.4-3.6 8-8 8z"/><path d="m181.9 140.1c-2.6 0-5.1-1.2-6.6-3.5-2.5-3.6-1.6-8.6 2.1-11.1 20.6-14.1 45-21.5 70.6-21.5s50 7.4 70.5 21.5c3.6 2.5 4.6 7.5 2.1 11.1s-7.5 4.6-11.1 2.1c-17.9-12.2-39.1-18.7-61.5-18.7s-43.7 6.5-61.6 18.7c-1.3 1-2.9 1.4-4.5 1.4z"/><path d="m248 288c-24.3 0-48-13.1-65-36-20.3-27.1-31-67.2-31-116v-24c0-4.4 3.6-8 8-8s8 3.6 8 8v24c0 45.3 9.6 82.1 27.8 106.5 14 18.8 33.1 29.5 52.2 29.5s38.2-10.8 52.2-29.5c18.2-24.4 27.8-61.2 27.8-106.5 0-7-4.4-21.1-7.3-28.7-13.8-26-31.5-43.3-72.7-43.3-27.2 0-53.9 14.7-64.9 35.7-2.1 3.9-6.9 5.4-10.8 3.4-3.9-2.1-5.4-6.9-3.4-10.8 14-26.5 45.7-44.3 79.1-44.3 52.5 0 73.5 26.4 87.1 52.3.1.3.3.6.4.8.9 2.3 8.5 22.5 8.5 34.9 0 48.8-10.7 88.9-31 116-17 22.9-40.7 36-65 36z"/><path d="m208 400c-.6 0-1.2-.1-1.8-.2-93.1-22-94.2-108.1-94.2-111.8 0-21.8 2.1-36.2 4.1-50.2 2-13.6 3.9-26.4 3.9-45.8 0-57.9 9.5-103.6 28.2-135.8 21.7-37.3 55.3-56.2 99.8-56.2 35.8 0 63.9 10.1 83.7 30.1 37.3 37.6 36.8 100.9 36.4 142.8 0 3.9-.1 7.6-.1 11.1 0 32.5 4.8 48.4 9 62.5 3.6 12 7 23.3 7 41.5 0 4.4-3.6 8-8 8s-8-3.6-8-8c0-15.9-2.9-25.7-6.3-36.9-4.5-15.1-9.7-32.2-9.7-67.1 0-3.5 0-7.3.1-11.2.4-39.2.9-98.5-31.7-131.4-16.7-16.9-41.1-25.4-72.4-25.4-39 0-67.1 15.8-86 48.3-17.2 29.7-26 72.7-26 127.7 0 20.5-2 34.6-4 48.1-2 14-4 27.2-4 47.9 0 3.1.9 77.1 81.8 96.2 4.3 1 7 5.3 5.9 9.6-.8 3.7-4.1 6.2-7.7 6.2z"/><path d="m424 368c-3.9 0-7.4-2.9-7.9-6.9-1.9-14.3-20.2-41.1-48.1-41.1-17.3 0-34.6 10.7-52.9 22-20.8 12.8-42.3 26-67.1 26-35.6 0-64.9-16.4-84.7-47.4-14.7-22.9-19-45.7-19.1-46.6-.8-4.3 2.1-8.5 6.4-9.3s8.5 2.1 9.3 6.4c0 .3 4 21 17.1 41.3 17 26.3 40.9 39.6 71 39.6 20.3 0 39.8-12 58.7-23.7 19.4-12 39.5-24.3 61.3-24.3 36.4 0 60.9 32.5 63.9 54.9.6 4.4-2.5 8.4-6.9 9-.3.1-.7.1-1 .1z"/><path d="m472 496c-4.4 0-8-3.6-8-8v-16c0-19-8.4-55.6-64.6-87-42.5-23.7-68.6-4.6-101.6 19.6-27.8 20.3-59.3 43.4-105.8 43.4-33.4 0-60.9-8.5-79.3-24.5-15.5-13.4-24.3-32.1-24.3-51.2s7.6-45.4 8-46.5c1.2-4.2 5.7-6.7 9.9-5.4 4.2 1.2 6.7 5.7 5.4 9.9-.1.3-7.3 25.2-7.3 42 0 29.7 27.1 59.7 87.6 59.7 41.3 0 69.2-20.5 96.3-40.3 17.4-12.7 33.8-24.7 52.6-30.4 21.4-6.4 43.1-3.2 66.3 9.7 63.4 35.4 72.8 78.5 72.8 101v16c0 4.4-3.6 8-8 8z"/><path d="m256 496c-4.4 0-8-3.6-8-8v-40c0-4.4 3.6-8 8-8s8 3.6 8 8v40c0 4.4-3.6 8-8 8z"/><path d="m368 496c-4.4 0-8-3.6-8-8v-96c0-4.4 3.6-8 8-8s8 3.6 8 8v96c0 4.4-3.6 8-8 8z"/></g></svg>