<svg enable-background="new 0 0 496 496" viewBox="0 0 496 496" xmlns="http://www.w3.org/2000/svg"><g fill="#464747"><path d="m472 496c-4.4 0-8-3.6-8-8 0-17.8-6.3-62.8-64.6-95-10.3-5.7-23.3-10.6-37.2-15.9-34.9-13.2-71-26.9-74-56.6-.4-4.4 2.8-8.3 7.2-8.8 4.4-.4 8.3 2.8 8.8 7.2 2 19.8 33.4 31.8 63.7 43.3 14.4 5.5 28 10.6 39.2 16.8 65.8 36.3 72.9 88.3 72.9 109 0 4.4-3.6 8-8 8z"/><path d="m24 496c-4.4 0-8-3.6-8-8 0-20.7 7.1-72.7 72.9-109 11.3-6.2 24.8-11.4 39.2-16.8 30.4-11.5 61.7-23.4 63.7-43.3.4-4.4 4.4-7.6 8.8-7.2s7.6 4.4 7.2 8.8c-3 29.7-39.1 43.4-74 56.6-13.8 5.3-26.9 10.2-37.2 15.9-58.3 32.2-64.6 77.2-64.6 95 0 4.4-3.6 8-8 8z"/><path d="m248 344c-23.9 0-31.7-4.6-40.9-11.5-1.6-1.2-3.1-2.4-4.9-3.5h-.1c-10.8-3.4-38.9-12.1-49.5-76.3-10.8-3.7-24.7-14.3-24.7-36.7 0-9.3 1.7-17 4.9-23.1 2.3-4.4 6.2-7.7 10.8-9.4 9-3.3 39-16 48.8-42.3.9-2.4 2.8-4.2 5.2-4.9s5-.2 7 1.3c.6.4 60.9 44.4 141.7 46.4 7.8.2 14.8 4.9 17.9 12.1 2.4 5.6 3.6 12.3 3.6 20 0 22.4-13.9 32.9-24.7 36.7-10.6 64.2-38.7 72.9-49.5 76.3h-.1c-1.8 1.2-3.3 2.3-4.9 3.5-8.9 6.8-16.7 11.4-40.6 11.4zm-44.7-188.1c-14.7 26.5-44.5 39.1-54.1 42.6-.9.3-1.7 1-2.2 1.9-1.4 2.6-3 7.4-3 15.6 0 19.1 15.2 22 16.9 22.3 3.5.5 6.3 3.2 6.8 6.8 8.4 59 30 65.7 39.2 68.6.4.1.8.3 1.2.4.6.2 1.2.5 1.8.8 2.7 1.7 4.9 3.4 6.8 4.8 6.6 5 10.9 8.3 31.2 8.3s24.6-3.3 31.2-8.3c1.9-1.5 4.1-3.1 6.8-4.8.6-.4 1.2-.6 1.8-.8.4-.1.8-.2 1.2-.4 9.2-2.9 30.8-9.6 39.2-68.6.5-3.5 3.3-6.3 6.8-6.8 1.7-.3 16.9-3.2 16.9-22.3 0-5.4-.8-10.1-2.3-13.6-.6-1.4-2-2.4-3.6-2.4-69.1-1.7-122.9-31.5-142.6-44.1z"/><path d="m357 207.2c-2.8 0-5.5-1.5-7-4.1-2-3.6-1-8.1 2.4-10.5.8-.8 7.6-8.9 7.6-40.6 0-34.8-50.2-88-112-88s-112 53.2-112 88c0 31.7 6.8 39.8 7.6 40.6 3.3 2.3 4.4 6.9 2.4 10.5-2.2 3.8-7.1 5.2-10.9 3-3.5-2-15-11.8-15-54.2 0-45.8 60.3-104 128-104s128 58.2 128 104c0 42.4-11.5 52.2-15 54.2-1.4.8-2.7 1.1-4.1 1.1z"/><path d="m318.4 86.4c-.3 0-.5 0-.8 0-4.4-.4-7.6-4.3-7.2-8.7 1.6-16.9-2.4-31-12.1-41.6-13.4-14.7-34.8-20-50.3-20s-36.9 5.3-50.3 20c-9.7 10.7-13.8 24.7-12.1 41.6.4 4.4-2.8 8.3-7.2 8.7s-8.3-2.8-8.7-7.2c-2.1-21.3 3.5-40 16.2-53.9 14.3-15.9 37.5-25.3 62.1-25.3s47.8 9.4 62.2 25.2c12.7 14 18.3 32.6 16.2 53.9-.4 4.2-3.9 7.3-8 7.3z"/><path d="m247.7 432c-44.4 0-81.8-33.1-87.2-77.2-.5-4.4 2.6-8.4 7-8.9s8.4 2.6 8.9 7c4.4 36 35 63.1 71.3 63.1h.3c36-.1 66.3-27.5 70.5-63.7.5-4.4 4.4-7.5 8.9-7 4.4.5 7.5 4.5 7 8.9-5 44.2-42.1 77.7-86.3 77.9-.2-.1-.3-.1-.4-.1z"/><path d="m248 488c-2.1 0-4.2-.8-5.7-2.3-1.4-1.5-2.3-3.6-2.3-5.7s.9-4.2 2.3-5.7c3-3 8.4-2.9 11.4 0 1.4 1.5 2.3 3.6 2.3 5.7 0 2.2-.9 4.3-2.3 5.7-1.5 1.5-3.5 2.3-5.7 2.3z"/><path d="m265 478.6c-1.4-4.2.8-8.7 5-10.2 4.2-1.5 8.7.7 10.2 4.9 1.4 4.2-.7 8.7-4.9 10.2v.1c-.9.2-1.8.4-2.6.4-3.5 0-6.5-2.1-7.7-5.4zm23.2-9.2c-2.4-3.7-1.4-8.6 2.4-11 3.7-2.4 8.6-1.4 11 2.3 2.4 3.8 1.4 8.7-2.3 11.1-1.4.9-2.9 1.3-4.4 1.3-2.6 0-5.1-1.3-6.7-3.7zm20.4-14.5c-3.2-3-3.5-8.1-.5-11.3 3-3.3 8-3.5 11.3-.6 3.3 3 3.5 8.1.6 11.4-1.6 1.7-3.8 2.6-5.9 2.6-2 0-3.9-.7-5.5-2.1zm16-19.2c-3.8-2.2-5.2-7-3-10.9 2.2-3.8 7-5.2 11-3 3.8 2.2 5.2 7 3 10.9-1.5 2.6-4.2 4.1-7 4.1-1.4-.1-2.8-.4-4-1.1zm11.5-22.3c-4.2-1.4-6.4-5.9-5-10.2 1.4-4.2 5.9-6.4 10.2-5 4.2 1.4 6.4 6 5 10.2-1.2 3.4-4.2 5.4-7.6 5.4-.9.1-1.8 0-2.6-.4zm7.4-23.8c-4.3-.9-7.1-5-6.3-9.4.9-4.3 5.1-7.2 9.4-6.3 4.3.9 7.1 5 6.3 9.4-.8 3.8-4.2 6.4-7.8 6.4-.5.1-1 .1-1.6-.1z"/><path d="m222.2 483.5c-4.2-1.4-6.4-6-4.9-10.2 1.4-4.2 6-6.4 10.2-5v.1c4.2 1.4 6.4 6 4.9 10.2-1.1 3.3-4.2 5.4-7.5 5.4-1 0-1.9-.2-2.7-.5zm-24.2-11.7c-3.7-2.4-4.7-7.4-2.3-11.1 2.4-3.7 7.4-4.7 11-2.3 3.7 2.4 4.8 7.4 2.3 11-1.5 2.4-4.1 3.7-6.7 3.7-1.4 0-2.9-.5-4.3-1.3zm-20.6-17.4c-3-3.3-2.7-8.3.6-11.4 3.2-3 8.3-2.7 11.3.6 3 3.2 2.7 8.3-.6 11.3-1.5 1.4-3.4 2.1-5.4 2.1-2.1 0-4.3-.9-5.9-2.6zm-15.6-21.8c-2.2-3.8-.8-8.7 3-10.9 3.8-2.2 8.7-.8 11 3 2.2 3.8.7 8.7-3.1 10.9-1.2.7-2.6 1-3.9 1-2.8.1-5.5-1.3-7-4zm-10.7-24.1c-1.4-4.2.8-8.7 5-10.2 4.2-1.4 8.7.8 10.2 5 1.4 4.2-.8 8.7-5 10.2-.8.3-1.7.5-2.6.5-3.3-.1-6.5-2.2-7.6-5.5zm-6.7-25.1c-.8-4.4 2-8.6 6.3-9.4 4.3-.9 8.6 1.9 9.4 6.3.8 4.3-2 8.6-6.3 9.4-.6.1-1 .2-1.6.2-3.7-.1-7-2.8-7.8-6.5z"/><path d="m348 371c-2.1 0-4.2-.9-5.6-2.3-1.5-1.5-2.4-3.5-2.4-5.7 0-2.1.9-4.2 2.4-5.7s3.5-2.3 5.6-2.3 4.2.9 5.7 2.3c1.5 1.5 2.3 3.6 2.3 5.7s-.8 4.2-2.3 5.7c-1.6 1.5-3.6 2.3-5.7 2.3z"/></g></svg>