<svg enable-background="new 0 0 496 496" viewBox="0 0 496 496" xmlns="http://www.w3.org/2000/svg"><g fill="#464747"><path d="m472 496c-4.4 0-8-3.6-8-8 0-19.2-8.4-56-64.6-87-10-5.6-23.5-10.7-35.3-15.2-4.1-1.6-6.2-6.2-4.6-10.3s6.2-6.2 10.3-4.6c12.3 4.7 26.3 10.1 37.4 16.2 63.4 35 72.8 78.3 72.8 101 0 4.3-3.6 7.9-8 7.9z"/><path d="m334.9 373.4c-1.1 0-2.3-.2-3.3-.7-20.3-9.3-43.5-23.2-43.5-47.9v-32.2c0-4.4 3.6-8 8-8s8 3.6 8 8v32.2c0 12.2 10.6 22.5 34.2 33.4 4 1.8 5.8 6.6 3.9 10.6-1.4 2.8-4.3 4.6-7.3 4.6z"/><path d="m24 496c-4.4 0-8-3.6-8-8 0-22.7 9.5-66 72.9-101 10.9-6.1 24.3-11.2 37.3-16.1 4.1-1.6 8.8.5 10.3 4.6 1.6 4.1-.5 8.8-4.6 10.3-12.5 4.8-25.3 9.7-35.3 15.2-56.2 31-64.6 67.8-64.6 87 0 4.4-3.6 8-8 8z"/><path d="m161.1 373.4c-3 0-5.9-1.7-7.3-4.7-1.8-4-.1-8.8 3.9-10.6 23.7-10.9 34.2-21.2 34.2-33.4v-32.2c0-4.4 3.6-8 8-8s8 3.6 8 8v32.2c0 24.7-23.3 38.6-43.6 47.9-.9.5-2.1.8-3.2.8z"/><path d="m304 496c-1 0-1.9-.2-2.9-.5-4.1-1.6-6.2-6.2-4.6-10.3 15.4-39.8 25.4-80.6 31.4-128.3.3-2.5 1.7-4.6 3.9-5.9 2.1-1.3 4.7-1.4 7-.5l29.7 11.9c2.6 1 4.4 3.3 4.9 6.1l10.5 62.2c.5 3-.7 5.9-3.1 7.7l-32 24c-3.5 2.6-8.5 1.9-11.2-1.6s-1.9-8.5 1.6-11.2l28.1-21.1-8.9-53-15.9-6.4c-6.3 44.7-16.2 83.6-31 121.8-1.3 3.2-4.3 5.1-7.5 5.1z"/><path d="m192 496c-3.2 0-6.2-1.9-7.5-5.1-14.8-38.2-24.7-77.1-31-121.8l-16 6.4-8.9 53 28.1 21.1c3.5 2.7 4.3 7.7 1.6 11.2s-7.7 4.2-11.2 1.6l-32-24c-2.4-1.8-3.6-4.8-3.1-7.7l10.5-62.2c.5-2.7 2.3-5.1 4.9-6.1l29.7-11.9c2.3-.9 4.9-.7 7 .5 2.1 1.3 3.6 3.4 3.9 5.9 6 47.7 16 88.4 31.4 128.3 1.6 4.1-.5 8.8-4.6 10.3-.9.3-1.8.5-2.8.5z"/><path d="m360 496c-1.5 0-3.1-.4-4.4-1.3-3.7-2.5-4.7-7.4-2.2-11.1l12.4-18.6-13.6-13.7c-3.1-3.1-3.1-8.2.1-11.3 3.1-3.1 8.2-3.1 11.3.1l18.2 18.4c2.7 2.7 3.1 6.9 1 10.1l-16 24c-1.7 2.1-4.2 3.4-6.8 3.4z"/><path d="m136 496c-2.6 0-5.1-1.3-6.7-3.6l-16-24c-2.1-3.2-1.7-7.4 1-10.1l18.2-18.4c3.1-3.1 8.2-3.2 11.3-.1s3.2 8.2.1 11.3l-13.6 13.9 12.4 18.6c2.5 3.7 1.5 8.6-2.2 11.1-1.4.9-3 1.3-4.5 1.3z"/><path d="m248 424c-28.6 0-56.9-5.6-84.2-16.6-4.1-1.7-6.1-6.3-4.4-10.4s6.3-6.1 10.4-4.4c25.3 10.2 51.6 15.4 78.2 15.4 26.5 0 52.8-5.2 78.2-15.4 4.1-1.7 8.8.3 10.4 4.4 1.7 4.1-.3 8.8-4.4 10.4-27.3 11-55.6 16.6-84.2 16.6z"/><path d="m320 320c-2 0-4-.8-5.6-2.2-2-1.9-2.8-4.6-2.3-7.3 1.8-9.2 3.3-18.4 4.5-27.4-18.6 22.9-43.7 36.9-68.6 36.9-20.7 0-42.1-9.8-60.1-27.5-17.1-16.8-29.4-39.3-35-63.7-10.9-3.9-25-16.3-25-44.8 0-8.2 1.3-15.3 3.9-21 2.4-5.5 7.2-9.6 13-11.2 6.4-1.7 11.1-12.8 16.1-24.5 9.4-22.1 22.1-52.2 60.8-47.7 5-3.2 15.3-7.6 34.2-7.6 23.3 0 44.1 17.1 58.7 48.1 13.8 29.3 21.4 69.9 21.4 114.4 0 6.1-.1 10.9-.4 15.3v.1c0 .3 0 .6-.1.9-.7 16-2.5 32.8-5.4 49.9 38.9-13.1 57.6-40.1 61.8-46.9-.3-35.8-8.8-95.9-26.9-146.1-15-41.8-42-91.7-85-91.7-32.3 0-41 11.8-41 11.9-1.2 2.1-3.3 3.6-5.7 4s-4.8-.3-6.6-1.9c-.2-.2-7.1-6-18.7-6-15.6 0-28.8 5.9-40.4 18.1-50 52.4-48.5 198.1-47.8 225.2 7.2 3.9 24.1 12.1 40.5 12.7 4.4.2 7.8 3.9 7.7 8.3-.2 4.4-3.9 7.8-8.3 7.7-25.8-1-50.9-16.6-51.9-17.2-2.2-1.4-3.6-3.8-3.7-6.4-.3-7.3-7.7-178.8 52-241.3 14.6-15.3 32.1-23 52-23 9.9 0 17.7 2.9 22.7 5.6 6.9-6 21.4-13.7 49.2-13.7 41.4 0 76 35.4 100.1 102.3 19.3 53.3 27.9 115.6 27.9 153.7 0 1.3-.3 2.6-.9 3.7-1 1.9-24.9 45.9-85.2 60-.7.2-1.3.3-1.9.3zm-159.4-105.7c3.6.2 6.4 2.9 7 6.5 9.7 51.4 49.3 83.2 80.4 83.2 27.3 0 56.6-22.9 71.7-55.9.2-3.9.3-8.2.3-13.6 0-83.5-27.5-146.5-64-146.5-18.3 0-25.3 4.8-26.3 5.6-1.8 2.2-4.2 2.7-7 2.3-27-4.4-36.2 12-47 37.7-6.5 15.4-12.7 30-26.6 33.7-1.1.3-2.1 1.1-2.6 2.2-1.2 2.6-2.5 7.2-2.5 14.5 0 26.9 14.5 30 16.6 30.3z"/></g></svg>