<svg enable-background="new 0 0 496 496" viewBox="0 0 496 496" xmlns="http://www.w3.org/2000/svg"><g fill="#464747"><path d="m248 336c-25.9 0-51.2-8.7-71.3-24.5-20.5-16.2-35.1-39-42.3-66.3-12.9-3.5-30.3-15.7-30.3-45.1 0-22.4 11.6-30 12.9-30.8l8.3 13.7s.1-.1.3-.2c-.2.2-5.5 4.2-5.5 17.3 0 27.4 19.4 30 21.6 30.2 3.5.3 6.3 2.8 7.1 6.2 11.5 50.8 50.5 83.6 99.3 83.6s87.8-32.8 99.3-83.6c.8-3.4 3.7-5.9 7.2-6.2 2.1-.2 21.5-2.9 21.5-30.2 0-13.1-5.3-17.2-5.5-17.3.2.1.3.2.3.2l8.3-13.7c1.3.8 12.9 8.5 12.9 30.8 0 29.5-17.5 41.7-30.3 45.1-7.3 27.4-21.9 50.3-42.5 66.4-20.2 15.7-45.5 24.4-71.3 24.4z"/><path d="m379.7 189.5c-.8 0-1.6-.1-2.4-.4-4.2-1.3-6.6-5.8-5.3-10 0-.1 4-13.9 4-51.1 0-18.4-6.8-38.3-19.2-56-2.5-3.6-1.7-8.6 1.9-11.1s8.6-1.7 11.1 1.9c14.5 20.6 22.2 43.2 22.2 65.2 0 40.2-4.5 55.2-4.7 55.8-1 3.5-4.2 5.7-7.6 5.7z"/><path d="m374.9 184c-7.2 0-10.3-7.3-11.5-10.1-1.5-3.6-3.1-8.5-4.9-14.2-7.9-24.9-21.2-66.6-56.6-76-6.7-1.8-16.4-.2-26.6 1.4-8.3 1.4-17.7 2.9-27.3 2.9s-19-1.5-27.3-2.9c-10.2-1.6-19.9-3.2-26.6-1.4-35.4 9.4-48.6 51.1-56.6 76-1.8 5.7-3.4 10.6-4.9 14.2-1.2 2.7-4.3 10.1-11.5 10.1-4.4 0-8-3.6-8-8 0-3 1.7-5.7 4.2-7 1.3-2.6 3.3-8.9 5-14.1 8.4-26.2 23.9-75 67.7-86.6 10-2.6 21.3-.8 33.2 1.1 8.1 1.3 16.5 2.6 24.8 2.6s16.7-1.3 24.8-2.6c12-1.9 23.3-3.7 33.2-1.1 43.8 11.6 59.4 60.4 67.7 86.6 1.7 5.2 3.7 11.5 5 14.1 2.5 1.4 4.2 4 4.2 7 0 4.4-3.6 8-8 8z"/><path d="m116.3 189.5c-3.4 0-6.6-2.2-7.7-5.7-.2-.6-4.7-15.5-4.7-55.8 0-30.8 15.1-62.7 41.5-87.4 28-26.2 64.4-40.6 102.6-40.6 31.4 0 61.4 9.6 87 27.8 0 0 .1 0 .1.1 4.7 3.3 10.8 3.8 16 1.3s8.6-7.6 9-13.3c.3-4.4 4.1-7.7 8.5-7.5 4.4.3 7.7 4.1 7.5 8.5-.8 11.5-7.7 21.7-18 26.7-10.3 4.9-22.5 4-31.9-2.5-.1-.1-.2-.1-.3-.2-22.9-16.3-49.8-24.9-77.9-24.9-73.3 0-128 59.1-128 112 0 37.2 3.9 51 4 51.1 1.3 4.2-1.1 8.7-5.3 10-.8.3-1.6.4-2.4.4z"/><path d="m440 496c-4.4 0-8-3.6-8-8 0-57.8-38.2-80.9-75.2-103.2-31-18.8-60.3-36.5-60.3-72.7 0-4.4 3.6-8 8-8s8 3.6 8 8c0 27.2 23.2 41.3 52.6 59 36.9 22.3 82.9 50.1 82.9 116.9 0 4.4-3.6 8-8 8z"/><path d="m56 496c-4.4 0-8-3.6-8-8 0-66.8 46-94.6 82.9-116.9 29.4-17.8 52.6-31.8 52.6-59 0-4.4 3.6-8 8-8s8 3.6 8 8c0 36.3-29.3 54-60.3 72.7-37 22.3-75.2 45.4-75.2 103.2 0 4.4-3.6 8-8 8z"/><path d="m247.7 416c-38.1 0-75.1-15.7-101.5-43-3.1-3.2-3-8.2.2-11.3s8.2-3 11.3.2c23.4 24.3 56.3 38.2 90.3 38.1 34.1-.1 65.9-13.8 89.6-38.5 3.1-3.2 8.1-3.3 11.3-.3 3.2 3.1 3.3 8.1.3 11.3-26.7 28-62.6 43.4-101.1 43.5-.2 0-.3 0-.4 0z"/></g></svg>