<svg enable-background="new 0 0 496 496" viewBox="0 0 496 496" xmlns="http://www.w3.org/2000/svg"><g fill="#464747"><path d="m248 320c-25.3 0-33.5-4.5-43.2-11.4-1.7-1.2-3.4-2.4-5.3-3.6l-.2-.1c-11.5-3.3-41.4-12-52.8-76.2-11.5-3.9-26.5-16.2-26.5-44.8 0-22.1 10.3-29.8 11.5-30.6l9.1 13.2s.1-.1.3-.2c0 0-4.8 4.3-4.8 17.6 0 12.4 3.3 21.2 9.7 26.3 4.2 3.4 8.4 3.9 8.5 3.9 3.7.3 6.7 3.1 7.2 6.8 9 59 32.4 65.7 42.3 68.6.4.1.9.2 1.2.4.6.2 1.2.4 1.8.8 2.9 1.7 5.2 3.3 7.3 4.8 6.9 4.9 11.9 8.4 34 8.4s27.1-3.5 34-8.4c2.1-1.5 4.4-3.1 7.3-4.8.6-.3 1.1-.6 1.8-.8.4-.1.8-.2 1.3-.4 10-2.9 33.3-9.7 42.3-68.6.6-3.7 3.4-6.5 7.2-6.8 1.9-.1 18-3.1 18-30.1 0-13.3-4.8-17.6-4.8-17.6.2.2.3.2.3.2l9.1-13.2c1.2.8 11.5 8.5 11.5 30.6 0 28.6-14.9 40.9-26.5 44.8-11.3 64.1-41.3 72.8-52.8 76.2-.1 0-.1 0-.2.1-2 1.2-3.7 2.4-5.4 3.6-9.7 6.8-17.9 11.3-43.2 11.3z"/><path d="m360 168c-1.4 0-2.9-.4-4.2-1.2-25.4-15.7-26.3-39.1-27.1-59.8-.7-17.8-1.3-34.6-15.6-48.8-12-11.9-33-26.1-65.1-26.2-32.1.1-53.1 14.3-65.1 26.2-14.3 14.2-14.9 31-15.6 48.8-.8 20.7-1.7 44.1-27.1 59.8-3.8 2.3-8.7 1.2-11-2.6s-1.2-8.7 2.6-11c18.2-11.2 18.8-26.9 19.5-46.8.7-19.2 1.6-40.9 20.3-59.6 14.1-14 38.8-30.7 76.3-30.9 37.6.1 62.3 16.8 76.4 30.9 18.7 18.6 19.6 40.4 20.3 59.6.8 19.9 1.4 35.5 19.5 46.8 3.8 2.3 4.9 7.2 2.6 11-1.4 2.5-4 3.8-6.7 3.8z"/><path d="m362.2 170.3c-.9 0-1.9-.2-2.8-.5-4.1-1.6-6.2-6.2-4.7-10.3 5.3-13.9 5.3-31 5.3-46 0-68.7-38.4-74.5-74.3-74.5-4.4 0-8-3.6-8-8s3.6-8 8-8c19.7 0 42.3 1.7 60.4 14.7 20.1 14.4 29.9 39.2 29.9 75.8 0 15.6 0 35-6.3 51.6-1.2 3.2-4.2 5.2-7.5 5.2z"/><path d="m133.8 170.3c-3.2 0-6.3-2-7.5-5.2-6.3-16.6-6.3-36-6.3-51.6 0-36.6 9.8-61.4 29.9-75.8 18.1-13 40.7-14.7 60.4-14.7 4.4 0 8 3.6 8 8s-3.6 8-8 8c-35.9 0-74.3 5.8-74.3 74.5 0 15 0 32.1 5.2 46 1.6 4.1-.5 8.7-4.7 10.3-.9.4-1.8.5-2.7.5z"/><path d="m488 496c-4.4 0-8-3.6-8-8 0-43.4-7.3-103-70.6-118.2-15-3.6-43.6-11.5-66.8-23.7-25.6-13.4-38.6-28.6-38.6-45.4v-11.7c0-4.4 3.6-8 8-8s8 3.6 8 8v11.8c0 18.8 36.6 39.8 93.2 53.5 32.9 7.9 56.4 27.2 69.7 57.3 11.7 26.8 13.1 56.4 13.1 76.4 0 4.4-3.6 8-8 8z"/><path d="m8 496c-4.4 0-8-3.6-8-8 0-20 1.4-49.6 13.2-76.4 13.3-30.1 36.7-49.4 69.7-57.3 56.6-13.7 93.2-34.7 93.2-53.5v-11.8c0-4.4 3.6-8 8-8s8 3.6 8 8v11.8c0 37.9-66 59.5-105.4 69.1-63.4 15.1-70.7 74.7-70.7 118.1 0 4.4-3.6 8-8 8z"/><path d="m247.3 400c-42.2 0-79.2-27.9-90.2-68.2-1.2-4.3 1.4-8.7 5.6-9.8 4.3-1.2 8.7 1.4 9.8 5.6 9 33.3 39.7 56.3 74.7 56.3h.7c34.9-.3 65.1-24 73.6-57.6 1.1-4.3 5.4-6.9 9.7-5.8s6.9 5.4 5.8 9.7c-5.1 20.1-16.3 37.4-32.6 50.1-16.2 12.6-35.7 19.4-56.5 19.6-.1.1-.4.1-.6.1z"/><path d="m248 432c-28.3 0-54.4-7.4-75.3-21.5-22.3-14.9-37.7-36.8-44.4-63.1-1.1-4.3 1.5-8.6 5.8-9.7s8.6 1.5 9.7 5.8c11.4 44.7 51.4 72.5 104.2 72.5s92.8-27.8 104.3-72.5c1.1-4.3 5.5-6.9 9.7-5.8 4.3 1.1 6.9 5.5 5.8 9.7-6.8 26.3-22.1 48.2-44.4 63.1-21 14.1-47.1 21.5-75.4 21.5z"/><path d="m292.7 216c-12.7 0-22.5-4-29.3-11.8-7.4-8.6-8.9-19.7-9-26.7-2.9-.9-5.4-1.5-6.4-1.6-1 0-3.5.6-6.4 1.6-.1 7-1.6 18.1-9 26.7-6.8 7.8-16.6 11.8-29.3 11.8-15 0-26.4-4.1-33.9-12.3-7.7-8.4-10.8-20.3-9.4-36.4.1-.9.3-1.8.7-2.6 1.2-2.7 9-16.2 40-16.2 18.4 0 29.6 8.3 35.2 14.1 3.8-1.3 8.7-2.6 12.1-2.6s8.2 1.3 12.1 2.6c5.6-5.7 16.8-14.1 35.2-14.1 31.1 0 38.8 13.5 40 16.2.4.8.6 1.7.7 2.6 1.4 16.1-1.7 27.9-9.4 36.4-7.5 8.2-18.9 12.3-33.9 12.3zm-22.3-41.1c-.2 3.8-.1 12.9 5.1 18.9 3.6 4.2 9.2 6.2 17.1 6.2 10.3 0 17.8-2.4 22.1-7.1 4.2-4.6 6-11.8 5.4-22-2-1.9-8.4-6.4-24.9-6.4-14.7 0-22.3 7.4-24.8 10.4zm-94.6-4c-.6 10.1 1.2 17.3 5.4 22 4.3 4.7 11.8 7.1 22.1 7.1 7.9 0 13.5-2 17.1-6.2 5.2-6 5.3-15.1 5.1-18.9-2.4-3-10-10.4-24.8-10.4-16.5 0-22.9 4.5-24.9 6.4z"/><path d="m328 176c-3.6 0-6.8-2.4-7.8-6.1-1.1-4.3 1.5-8.6 5.8-9.7l32-8c4.3-1.1 8.6 1.5 9.7 5.8s-1.5 8.6-5.8 9.7l-32 8c-.6.2-1.3.3-1.9.3z"/><path d="m168 176c-.6 0-1.3-.1-1.9-.2l-32-8c-4.3-1.1-6.9-5.4-5.8-9.7s5.4-6.9 9.7-5.8l32 8c4.3 1.1 6.9 5.4 5.8 9.7-.9 3.6-4.2 6-7.8 6z"/></g></svg>