<svg enable-background="new 0 0 496 496" viewBox="0 0 496 496" xmlns="http://www.w3.org/2000/svg"><g fill="#464747"><path d="m248 320c-27 0-36.4-6.5-45.5-12.8-2.2-1.5-4.2-2.9-6.5-4.3-24.3-14.1-41.3-39.6-49.3-74-11.6-3.8-26.7-16.1-26.7-44.9 0-22.1 10.3-29.8 11.5-30.6l9.1 13.2s.1-.1.3-.2c0 0-4.8 4.3-4.8 17.6 0 12.4 3.3 21.2 9.7 26.3 4.2 3.4 8.4 3.9 8.5 3.9 3.5.3 6.5 2.9 7.2 6.4 4.5 22.6 15.6 52.8 42.7 68.4 2.9 1.7 5.3 3.4 7.7 5 8 5.6 14.3 9.9 36.3 9.9s28.4-4.4 36.3-9.9c2.3-1.6 4.8-3.3 7.7-5 27.1-15.6 38.2-45.8 42.7-68.4.7-3.6 3.5-6.2 7.1-6.4 1.9-.2 18-3.2 18-30.2 0-13.3-4.8-17.6-4.8-17.6.2.2.3.2.3.2l9.1-13.2c1.2.8 11.5 8.5 11.5 30.6 0 28.8-15.2 41.1-26.7 44.9-8 34.4-24.9 60-49.3 74-2.3 1.3-4.4 2.8-6.5 4.3-9.2 6.3-18.5 12.8-45.6 12.8z"/><path d="m136 168c-3 0-5.9-1.7-7.3-4.7-1.8-4-.1-8.8 3.9-10.6 20.4-9.4 36.5-30.3 52-67.8 1-2.4 3.1-4.2 5.7-4.8s5.3.2 7.2 2c23 21.8 55.9 16.8 77.7 13.5 6.5-1 11.6-1.8 15.8-1.8 32.2 0 44.6 23.1 53.5 40 6 11.2 9.9 18.1 15.5 18.1 4.4 0 8 3.6 8 8s-3.6 8-8 8c-15.5 0-22.7-13.5-29.6-26.5-8.6-16.2-16.8-31.5-39.4-31.5-3 0-7.8.7-13.4 1.6-21 3.2-54.9 8.4-82.4-10.7-16 35.4-33.4 56.1-55.8 66.4-1.1.6-2.3.8-3.4.8z"/><path d="m488 496c-4.4 0-8-3.6-8-8v-.4c0-44 0-78.7-62.6-93.8-51.7-12.6-113.4-36.1-113.4-77.1v-32.9c0-4.4 3.6-8 8-8s8 3.6 8 8v32.9c0 23.5 36.9 45.9 101.2 61.5 33.4 8.1 54.8 22.8 65.5 44.9 9.4 19.5 9.4 42.3 9.4 64.4v.4c-.1 4.5-3.7 8.1-8.1 8.1z"/><path d="m8 496c-4.4 0-8-3.6-8-8v-.4c0-22.1 0-44.9 9.4-64.4 10.6-22.2 32.1-36.9 65.4-45 64.3-15.6 101.2-38 101.2-61.5v-32.9c0-4.4 3.6-8 8-8s8 3.6 8 8v32.9c0 41-61.7 64.5-113.4 77.1-62.6 15.1-62.6 49.8-62.6 93.8v.4c0 4.4-3.6 8-8 8z"/><path d="m248 432c-45.5 0-89.3-20.6-120.3-56.5-2.9-3.3-2.5-8.4.8-11.3s8.4-2.5 11.3.8c27.9 32.4 67.4 51 108.2 51s80.2-18.6 108.2-50.9c2.9-3.3 7.9-3.7 11.3-.8 3.3 2.9 3.7 7.9.8 11.3-31 35.8-74.9 56.4-120.3 56.4z"/><path d="m362.2 170.3c-.9 0-1.9-.2-2.8-.5-4.1-1.6-6.2-6.2-4.7-10.3 5.2-13.9 5.2-31 5.2-46 0-16.3-4.5-39.7-14.4-52.6-2.3-3-2.2-7.1.2-10 5.1-6 6.4-13.2 6.7-18.4-10.5.3-29.5-.1-50.3-5.8-.6-.1-1.3-.3-1.8-.5-15.3-6.7-33.4-10.2-52.3-10.2-47.6 0-63.4 13.7-73.4 28.5-.9 1.3-2.2 2.4-3.7 2.9-17.4 7-35 28.6-35 56.6 0 38.4 0 41.6 5.3 55.5 1.6 4.1-.5 8.7-4.7 10.3-4.1 1.6-8.7-.5-10.3-4.7-6.3-16.6-6.3-21.7-6.3-61.1 0-33.9 21.1-60.6 42.7-70.4 7.8-10.9 16.8-18.4 28.4-23.8 14.5-6.6 33.1-9.8 57-9.8 21.1 0 40.5 3.7 57.9 11.1 27.8 7.7 52.9 5 53.2 4.9 4.1-.5 7.9 2.3 8.7 6.3.2.8 3.6 18.1-6.1 33.8 10.4 17 14.2 40.9 14.2 57.4 0 15.6 0 35-6.3 51.6-1.1 3.2-4.1 5.2-7.4 5.2z"/></g></svg>