<svg enable-background="new 0 0 496 496" viewBox="0 0 496 496" xmlns="http://www.w3.org/2000/svg"><g fill="#464747"><path d="m367.8 377.8c-1 0-2-.2-3-.6-40.4-16.4-60.8-36.8-60.8-60.5v-32.9c0-4.4 3.6-8 8-8s8 3.6 8 8v32.9c0 20.7 27.7 36.3 50.9 45.7 4.1 1.7 6.1 6.3 4.4 10.4-1.3 3.2-4.3 5-7.5 5z"/><path d="m128.2 377.8c-3.2 0-6.1-1.9-7.4-5-1.7-4.1.3-8.8 4.4-10.4 23.2-9.4 50.9-25 50.9-45.7v-32.9c0-4.4 3.6-8 8-8s8 3.6 8 8v32.9c0 23.7-20.5 44.1-60.8 60.5-1.1.5-2.1.6-3.1.6z"/><path d="m488 496c-4.4 0-8-3.6-8-8 0-34.6 0-62-63.5-94.4-.3-.1-.6-.1-.9-.2-.5-.1-.9-.2-1.4-.3-4.3-.9-7.1-5.2-6.1-9.5.9-4.3 5.2-7.1 9.5-6.1.6.1 1.3.3 1.9.4.5.1 1 .2 1.5.3.7.1 1.3.4 1.9.7 73.1 37 73.1 72 73.1 109.1 0 4.4-3.6 8-8 8z"/><path d="m8 496c-4.4 0-8-3.6-8-8 0-37.1 0-72.1 73.1-109.1.6-.3 1.3-.5 1.9-.7l1.5-.3c.6-.2 1.3-.3 1.9-.4 4.3-.9 8.6 1.8 9.5 6.1s-1.8 8.6-6.1 9.5c-.5.1-.9.2-1.4.3-.3.1-.6.2-.9.2-63.5 32.4-63.5 59.8-63.5 94.4 0 4.4-3.6 8-8 8z"/><path d="m248 320c-27.1 0-36.4-6.5-45.5-12.8-2.2-1.5-4.2-2.9-6.5-4.3-24.3-14.1-41.3-39.6-49.3-74-11.6-3.8-26.7-16.1-26.7-44.9 0-2.2.1-4.3.3-6.3.5-5.6 3.4-10.7 7.9-14.1 4.5-3.3 10.3-4.7 15.8-3.6h.2c2.2 0 2.5-.4 3.2-2.2 1.3-3.4 1.6-9.4 1.9-15.7.5-9.9 1.1-22.2 5.9-33.2 10.6-24.5 41.8-36.9 92.8-36.9s82.2 12.4 92.8 36.8c4.8 11.1 5.4 23.3 5.9 33.2.3 6.3.6 12.3 1.9 15.7.7 1.8 1 2.2 3.2 2.2h.2c5.5-1.1 11.3.3 15.8 3.6 4.5 3.4 7.4 8.5 7.9 14.1.2 2 .3 4.1.3 6.3 0 28.8-15.2 41.1-26.7 44.9-8 34.4-24.9 60-49.3 74-2.3 1.3-4.4 2.8-6.5 4.3-9.1 6.4-18.4 12.9-45.5 12.9zm-107.8-144.4c-.9 0-1.7.3-2.4.8-.9.7-1.5 1.7-1.6 2.8-.1 1.5-.2 3.1-.2 4.8 0 12.4 3.3 21.2 9.7 26.3 4.2 3.4 8.4 3.9 8.5 3.9 3.5.3 6.5 2.9 7.2 6.4 4.5 22.6 15.6 52.8 42.7 68.4 2.9 1.7 5.3 3.4 7.7 5 8 5.6 14.3 9.9 36.3 9.9s28.3-4.4 36.3-9.9c2.3-1.6 4.8-3.3 7.7-5 27.1-15.6 38.1-45.8 42.7-68.4.7-3.6 3.5-6.2 7.1-6.4 2-.2 18.1-3.2 18.1-30.2 0-1.7-.1-3.3-.2-4.8-.1-1.1-.7-2.2-1.6-2.8-.9-.7-2.1-.9-3.2-.7-1.5.3-2.6.3-3 .3-8.8 0-15.3-4.5-18.4-12.6-2.2-5.8-2.5-13-2.9-20.5-.4-9-.9-19.2-4.6-27.6-7.7-17.9-34.7-27.3-78.1-27.3s-70.4 9.4-78.2 27.2c-3.7 8.4-4.2 18.6-4.6 27.6-.4 7.6-.7 14.8-2.9 20.5-3 8.2-9.6 12.6-18.4 12.6-.4 0-1.6 0-3-.3-.2 0-.4 0-.7 0z"/><path d="m260 21.7c-2.4 0-4.7-1.1-6.3-3.1-1.8-2.3-4.3-2.6-5.7-2.6s-3.9.3-5.7 2.6c-2.7 3.5-7.7 4.1-11.2 1.4s-4.1-7.7-1.4-11.2c4.3-5.6 11-8.8 18.3-8.8s14 3.2 18.3 8.7c2.7 3.5 2.1 8.5-1.4 11.2-1.4 1.2-3.2 1.8-4.9 1.8z"/><path d="m286.3 26.7c-3.2 0-6.3-2-7.5-5.2-.9-2.5-3.1-4.4-5.8-4.8-2.6-.5-5.4.4-7.1 2.4-3 3.3-8 3.5-11.3.6-3.3-3-3.5-8-.6-11.3 5.5-6.1 13.9-8.9 22-7.4s14.9 7.3 17.8 15c1.6 4.1-.5 8.7-4.7 10.3-.9.2-1.8.4-2.8.4z"/><path d="m209.7 26.7c-.9 0-1.9-.2-2.8-.5-4.1-1.5-6.2-6.2-4.7-10.3 2.9-7.7 9.7-13.4 17.8-15 8.1-1.5 16.5 1.3 22 7.4 3 3.3 2.7 8.3-.6 11.3s-8.3 2.7-11.3-.6c-1.8-2-4.5-2.9-7.1-2.4s-4.8 2.4-5.8 4.8c-1.2 3.3-4.3 5.3-7.5 5.3z"/><path d="m312.3 37.7c-4.1 0-7.5-3.1-8-7.2-.3-2.9-2.2-5.5-4.9-6.6s-5.9-.7-8.2 1.1c-3.5 2.8-8.5 2.2-11.2-1.3-2.8-3.5-2.2-8.5 1.3-11.2 6.9-5.5 16.2-6.8 24.4-3.3 8.1 3.4 13.7 11 14.6 19.8.4 4.4-2.8 8.3-7.2 8.7-.3 0-.5 0-.8 0z"/><path d="m183.7 37.7c-.3 0-.5 0-.8 0-4.4-.4-7.6-4.3-7.2-8.7.9-8.8 6.4-16.4 14.6-19.8 8.1-3.4 17.5-2.2 24.4 3.3 3.5 2.8 4 7.8 1.3 11.2-2.8 3.5-7.8 4-11.2 1.3-2.3-1.8-5.4-2.3-8.2-1.1-2.7 1.2-4.6 3.7-4.9 6.6-.5 4.1-4 7.2-8 7.2z"/><path d="m339 56c-.1 0-.2 0-.4 0-4.4-.2-7.8-3.9-7.6-8.3.2-3.8-1.6-7.4-4.8-9.6s-7.2-2.6-10.7-1c-4 1.8-8.8-.1-10.5-4.1-1.8-4.1.1-8.8 4.1-10.5 8.6-3.8 18.4-2.8 26.1 2.5 7.8 5.2 12.2 14 11.8 23.4-.2 4.2-3.7 7.6-8 7.6z"/><path d="m157 56c-4.3 0-7.8-3.4-8-7.6-.4-9.4 4-18.2 11.7-23.5s17.5-6.3 26.1-2.5c4.1 1.8 5.9 6.5 4.1 10.5-1.8 4.1-6.5 5.9-10.5 4.1-3.5-1.5-7.5-1.1-10.7 1-3.2 2.2-5 5.8-4.8 9.6.2 4.4-3.2 8.1-7.6 8.3-.1.1-.2.1-.3.1z"/><path d="m360.6 81c-1.1 0-2.3-.2-3.4-.8-4-1.9-5.7-6.6-3.9-10.6 1.7-3.6 1.1-7.9-1.5-10.9s-6.8-4.2-10.6-3.1c-4.2 1.3-8.7-1.1-10-5.4-1.3-4.2 1.1-8.7 5.4-10 9.8-3 20.5.2 27.3 7.9 6.7 7.8 8.3 18.8 3.9 28.1-1.3 3.1-4.1 4.8-7.2 4.8z"/><path d="m135.4 81c-3 0-5.9-1.7-7.3-4.6-4.3-9.3-2.8-20.4 3.9-28.1 6.7-7.8 17.4-10.9 27.3-7.9 4.2 1.3 6.6 5.7 5.4 10-1.3 4.2-5.7 6.6-10 5.4-3.8-1.1-8 .1-10.6 3.1s-3.2 7.3-1.5 10.9c1.9 4 .1 8.8-3.9 10.6-1.1.4-2.2.6-3.3.6z"/><path d="m368 107c-2.3 0-4.5-1-6.1-2.9-2.8-3.4-2.4-8.4 1-11.3 2-1.7 2.9-4.5 2.2-7-.7-2.6-2.9-4.5-5.5-4.9-4.4-.7-7.4-4.7-6.7-9.1s4.7-7.4 9.1-6.7c8.9 1.3 16.2 7.7 18.6 16.4 2.4 8.6-.4 17.9-7.3 23.7-1.7 1.2-3.5 1.8-5.3 1.8z"/><path d="m128 107c-1.8 0-3.6-.6-5.1-1.9-6.9-5.8-9.7-15.1-7.3-23.7s9.7-15 18.6-16.3c4.4-.7 8.4 2.4 9.1 6.7.7 4.4-2.4 8.4-6.7 9.1-2.6.4-4.8 2.3-5.5 4.9s.1 5.3 2.2 7.1c3.4 2.8 3.8 7.9 1 11.3-1.8 1.8-4 2.8-6.3 2.8z"/><path d="m370.7 136c-2.9 0-5.7-1.6-7.1-4.3-2-3.9-.5-8.8 3.4-10.8 2.8-1.5 4.4-4.4 4.1-7.5-.3-3.2-2.4-5.8-5.4-6.7-4.2-1.3-6.6-5.7-5.3-10 1.3-4.2 5.7-6.6 10-5.3 9.3 2.8 15.9 10.9 16.7 20.5.9 9.6-4.1 18.8-12.7 23.2-1.2.6-2.5.9-3.7.9z"/><path d="m125.3 136c-1.2 0-2.5-.3-3.7-.9-8.6-4.5-13.6-13.6-12.7-23.2s7.4-17.7 16.7-20.5c4.2-1.3 8.7 1.1 10 5.3s-1.1 8.7-5.3 10c-3 .9-5.2 3.5-5.4 6.7-.3 3.2 1.3 6.1 4.1 7.6 3.9 2 5.5 6.9 3.4 10.8-1.4 2.6-4.2 4.2-7.1 4.2z"/><path d="m360 176.4c-3.7 0-7.1-2.6-7.8-6.5-.9-4.3 2-8.5 6.3-9.4 2.8-.6 8.2-6.3 10-11.6 1.2-3.7-.8-12.4-3.7-15.6-3-3.3-2.7-8.3.6-11.3s8.3-2.7 11.3.6c6.8 7.5 10 22.2 7 31.4-2.7 8-11.3 20.1-22 22.2-.7.2-1.2.2-1.7.2z"/><path d="m136 176.4c-.5 0-1 0-1.6-.2-10.8-2.1-19.4-14.3-22-22.2-3.1-9.2.2-23.9 7-31.4 3-3.3 8-3.6 11.3-.6s3.5 8 .6 11.3c-2.9 3.2-4.9 11.9-3.7 15.6 1.8 5.3 7.1 11.1 10 11.6 4.3.9 7.2 5.1 6.3 9.4-.8 3.9-4.1 6.5-7.9 6.5z"/><path d="m248 408c-18.7 0-36.8-5.6-52.3-16.2s-27.3-25.4-34.2-42.8c-1.6-4.1.4-8.8 4.5-10.4s8.8.4 10.4 4.5c11.6 29.2 40.3 48.9 71.6 48.9s60-19.7 71.6-48.9c1.6-4.1 6.3-6.1 10.4-4.5s6.1 6.3 4.5 10.4c-6.9 17.4-18.7 32.2-34.2 42.8s-33.6 16.2-52.3 16.2z"/><path d="m304 496c-4.4 0-8-3.6-8-8 0-37.3 35.4-53.4 66.7-67.6 23.3-10.6 45.3-20.6 45.3-36.4 0-39.2-54.6-56-72-56-4.4 0-8-3.6-8-8s3.6-8 8-8c11.9 0 33.3 5.1 52 16.2 23.6 14.1 36 33.3 36 55.8 0 26.1-27.8 38.7-54.7 51-28.2 12.8-57.3 26-57.3 53 0 4.4-3.6 8-8 8z"/><path d="m192 496c-4.4 0-8-3.6-8-8 0-27-29.1-40.2-57.3-53-26.9-12.3-54.7-24.9-54.7-51 0-50.6 63-72 88-72 4.4 0 8 3.6 8 8s-3.6 8-8 8c-9.9 0-28.6 4.9-43.8 14-12.9 7.7-28.2 21.2-28.2 42 0 15.8 22 25.8 45.3 36.4 31.2 14.2 66.7 30.3 66.7 67.6 0 4.4-3.6 8-8 8z"/><path d="m307.1 479.8c-.5 0-1.1-.1-1.6-.2-4.3-.9-7.1-5.1-6.3-9.4 9-44.6 32-67.6 47.2-82.9 7.2-7.2 13.4-13.4 13.4-17.5 0-4.4 3.6-8 8-8s8 3.6 8 8c0 10.7-8 18.7-18 28.8-14.7 14.7-34.8 34.9-42.8 74.8-.8 3.8-4.1 6.4-7.9 6.4z"/><path d="m188.9 479.8c-3.7 0-7.1-2.6-7.8-6.4-8-39.8-28.1-60-42.8-74.8-10.1-10.1-18-18.1-18-28.8 0-4.4 3.6-8 8-8s8 3.6 8 8c0 4.1 6.2 10.3 13.4 17.5 15.2 15.3 38.2 38.3 47.2 82.9.9 4.3-1.9 8.5-6.3 9.4-.7.2-1.2.2-1.7.2z"/><path d="m376 496c-4.4 0-8-3.6-8-8v-80c0-4.4 3.6-8 8-8s8 3.6 8 8v80c0 4.4-3.6 8-8 8z"/><path d="m120 496c-4.4 0-8-3.6-8-8v-80c0-4.4 3.6-8 8-8s8 3.6 8 8v80c0 4.4-3.6 8-8 8z"/></g></svg>