<svg enable-background="new 0 0 496 496" viewBox="0 0 496 496" xmlns="http://www.w3.org/2000/svg"><g fill="#464747"><path d="m472 496c-4.4 0-8-3.6-8-8 0-19.2-8.4-56-64.6-87-10.3-5.7-23.4-10.7-37.2-15.9-34.8-13.2-74.2-28.2-74.2-60.4v-32.2c0-4.4 3.6-8 8-8s8 3.6 8 8v32.2c0 21.2 32.5 33.5 63.9 45.4 14.4 5.5 28 10.6 39.3 16.9 63.4 35 72.8 78.3 72.8 101 0 4.4-3.6 8-8 8z"/><path d="m24 496c-4.4 0-8-3.6-8-8 0-22.7 9.5-66 72.9-101 11.3-6.2 24.9-11.4 39.3-16.9 31.4-11.9 63.9-24.2 63.9-45.4v-32.2c0-4.4 3.6-8 8-8s8 3.6 8 8v32.2c0 32.2-39.4 47.2-74.2 60.4-13.9 5.3-27 10.2-37.2 15.9-56.3 31-64.7 67.8-64.7 87 0 4.4-3.6 8-8 8z"/><path d="m248 496c-3.4 0-6.5-2.2-7.6-5.5l-30.8-92.5c-9.1-3.9-33.3-15-47.5-30.6-3-3.3-2.8-8.3.5-11.3s8.3-2.8 11.3.5c14.8 16.2 44.6 27.7 44.9 27.9 2.2.9 4 2.7 4.7 4.9l24.4 73.2 24.4-73.2c.8-2.3 2.5-4.1 4.7-4.9.3-.1 30.2-11.7 44.9-27.9 3-3.3 8-3.5 11.3-.5s3.5 8 .5 11.3c-14.2 15.5-38.3 26.7-47.5 30.6l-30.8 92.5c-.9 3.3-4 5.5-7.4 5.5z"/><path d="m248 320c-20.7 0-42.1-9.8-60.1-27.5-17.1-16.8-29.4-39.3-34.9-63.7-10.9-3.9-25-16.3-25-44.8 0-7.6 1.1-14.3 3.4-19.8 2.6-6.5 8.6-11.3 15.6-12.3 3-.5 3.7-1.1 5.1-7.7.9-4.3 2.1-9.8 6.8-13.3 8.1-6.1 13.8-5.7 18.5-4.8.3.1.7.1 1 .2.1 0 .1-.1.2-.1-.1-.8-.3-1.8-.4-2.6-.7-3.8-1.6-9 .1-14.2 2.1-6.5 7.4-10.9 15.8-13.1 4.3-1.1 8.6 1.5 9.7 5.7 1.1 4.3-1.5 8.6-5.7 9.7-5.5 1.4-5.4 2.1-4.1 9 .8 4.5 1.9 10.6-2.5 15.3-6.6 7-12.1 6.7-16.8 5.8-2-.4-2.8-.5-5.7 1.6-.4.8-.8 2.8-1.1 4.1-1.4 6.3-3.9 17.9-18.4 20.1-1.4.2-2.6 1.2-3.1 2.5-1.4 3.6-2.2 8.4-2.2 13.9 0 26.9 14.5 30 16.6 30.3 3.6.2 6.4 2.9 7.1 6.5 9.7 51.4 49.2 83.3 80.3 83.3s70.7-31.8 80.3-83.3c.7-3.6 3.4-6.2 7.1-6.5 2.1-.3 16.6-3.4 16.6-30.3 0-3-.2-5.8-.7-8.4-.2-1.2-.9-2.2-2-2.8s-2.3-.7-3.4-.2c-11.7 4.7-18.8 1.5-22.8-1.9-5.4-4.7-7.3-9.2-8.5-12.2-.8-2-.8-2-1.5-2.4-.8-.4-3.8-.2-5.7 0-5.5.4-13.1.9-19.2-4.6-6.6-5.9-5.9-13.6-5.4-18.7.2-2.4.5-4.7-.1-6-1-.4-3.7-.3-5.3-.2-4.4.1-10 .2-14.5-3.3-5.6-4.3-5.8-10.8-6-15.6-.1-1.4-.1-3.7-.4-4.7-8.2-3.7-15.8-.1-16.2 0-3.2 1.6-6.9 1-9.4-1.7-1.8-1.8-5.3-4.4-7.5-4.4-.3 0-.5 0-1.1.5-2.1 2.1-1.9 4.3 1 12 1.9 5 3.9 10.2 2.4 15.6-2.2 8.4-7.3 12.4-10.6 15.1-.9.7-2.1 1.7-2.4 2.2-1.3 3.5-1 4.3-.2 6.7 1 3.1 2.6 7.7.6 15.3-1.9 7-6.6 9.9-9.5 11.5-2.6 1.5-3.5 2.1-3.6 8.1-.1 4.4-3.6 7.8-8 7.8-.1 0-.1 0-.2 0-4.4-.1-7.9-3.7-7.8-8.2.3-13.8 6.1-18.4 11.5-21.6 2-1.2 2-1.2 2.2-1.9.8-2.9.5-3.8-.3-6.1-1.5-4.5-2.6-9.2.4-17.4 1.6-4.4 4.8-6.9 7.3-9s4.2-3.4 5.1-6.6c0-1.1-1.1-4-1.9-6-2.7-7.1-7.2-19.1 2.7-29 3.4-3.4 7.7-5.2 12.4-5.2h.3c6 .1 11.3 3.1 14.8 5.8 5.6-1.6 15-2.8 25 1.8 8.9 4.1 9.2 13.1 9.4 18.5 0 1 .1 2.4.2 3.4 1.1.1 2.7.1 3.9 0 5.5-.1 15.8-.4 20.4 9.8 2.3 5.1 1.8 10 1.4 14-.3 2.7-.4 4.7.1 5.2 1.1 1 4.5.7 7.5.5 4.4-.3 9.3-.6 13.9 1.7 6 3 7.9 7.6 9.2 10.6.9 2.3 1.6 3.9 4.2 6.2.7.6 2.9.5 6.3-.9 5.6-2.2 11.9-1.9 17.1 1.1 5.3 2.9 8.9 8 10 14 .6 3.4.9 7.2.9 11.2 0 28.5-14.1 40.9-25 44.8-5.6 24.4-17.9 46.9-34.9 63.7-18.2 18.1-39.6 27.9-60.3 27.9z"/><path d="m156.7 317.5c-2.7 0-5.7-.4-9-1.6-9.1-3.2-12.9-9.5-15.1-13.3-.3-.5-.7-1.1-1-1.6-1.7-.7-3.6-.4-6.8 0-3.4.5-7.7 1-12.1-.5-8.8-3.2-11-11.1-12.3-15.9-.2-.8-.5-1.8-.7-2.5-.5-.1-1.3-.1-3.4.2-3.9.5-9.8 1.2-16.6-2.6-9.4-5.2-10.1-13.5-10.4-18-.1-.8-.2-1.9-.3-2.6-.8-.5-2.5-1.2-3.6-1.7-6.1-2.7-17.4-7.6-17.4-20.9 0-11.6 3.7-16.1 8.3-20.5 1.5-1.4 2.7-2.6 3.8-4.5.8-1.4.7-2.7.1-6.2-.8-4.6-2-11.5 2.7-19.1 4.1-6.5 7.4-8.4 10.7-9.9 1.1-.5 1.3-.6 2.4-2.2 1.2-1.7 1.2-5.5 1.2-9.1 0-5.7 0-12.2 4.4-17.5 3.6-4.3 7-6.4 9.7-8 1.7-1 3.1-1.9 4.6-3.3.4-1.2.4-4.5.4-6.8 0-5.7 0-12.7 3.5-19.1 4.2-7.6 10.7-9.9 15.9-11.8 3.2-1.2 5.7-2.1 7.8-4 .2-.8.3-2.8.4-4.2.2-5 .5-12.6 5.9-19.7 4.2-5.6 10-7 14.6-8 2.8-.7 5.2-1.2 7.4-2.6 2.6-1.7 3.6-3.9 5.3-7.9 1.2-2.8 2.5-5.9 4.8-8.9 4.8-6.3 13-7.7 19.6-8.8 1.9-.3 4.8-.8 5.6-1.2.5-.3 1.5-1.7 2.6-3.3 2.2-3.3 5.3-7.8 11.5-13.1 8.8-7.5 20.3-6.4 27.8-4.4 3.3-6.2 9.6-12.4 19-12.4 8.7 0 14.7 3.9 19.1 6.8 2.2 1.4 4.2 2.7 5.6 2.9 2.1.3 5.1-.4 8.3-1.2 5-1.2 10.7-2.5 16.7-1.1 6.8 1.5 10.3 6.2 12.6 9.3 2.1 2.8 2.7 3.5 4.2 3.7 1.1.2 4.2-.5 6.4-1 5.9-1.3 14-3.2 21.2 1.2 6.1 3.7 9.1 9.5 11.5 14.2.9 1.8 2.3 4.5 3 5.1 1.1.7 3.6.7 6.1.7 4.6-.1 11-.2 15.9 4.8 4.5 4.5 5.4 10.8 6.1 15.7.2 1.3.4 3 .7 4.1.8.3 2.1.7 3.2 1 5.1 1.5 12.8 3.8 18 11.3 4.9 7 5.3 14.6 5.7 20.1.1 1.3.2 3 .3 3.9.6.5 2.1 1.2 3.2 1.6 3.8 1.8 9.6 4.4 13 10.8s2.5 12.6 1.7 17.2c-.4 2.6-.8 4.9-.2 6.5.5 1.6.7 1.7 2.4 2.9 2.1 1.5 5.2 3.8 7.9 8.7 4.3 7.9 3.2 15 2.4 20.2-.5 3.5-.8 5.6-.1 7.3.8 1.9 2.1 2.8 4.7 4.4 3.1 1.9 7.9 4.9 9.7 11.1 1.6 5.7-.1 11.6-1.8 17.3-.7 2.6-2 6.9-1.7 8.3.7 3.5 1.7 6.5 2.7 9.4 1.9 5.4 3.8 11.1 2.3 18.1-2.9 13.5-12.6 15.6-18.4 16.8-3.2.7-5 1.1-6.3 2.4-2.5 2.5-3.2 3.8-4.1 5.3-1.7 3.2-3.5 5.9-9.3 10-5.9 4.2-10.3 4.4-13.5 4.5-2.4.1-3.8.2-7.4 2.8-3.7 2.6-5.2 4.5-6.7 6.4-3 3.7-5.8 6.7-13.2 8.6-7.1 1.9-13 0-17.4-1.4-1.1-.4-2.6-.8-3.4-1-1.4 1-3.5 3.1-5.3 4.9-5.4 5.4-10.6 10.4-16.9 10.4-3.3 0-6.2-1.1-8.8-2.1-2.7-1-4.4-1.6-5.4-1.2-4 1.9-8.8.1-10.6-3.9-1.9-4-.1-8.8 3.9-10.6 7.1-3.3 13.5-.9 17.7.7.8.3 1.8.7 2.5.9 1.6-1.1 4.5-3.9 6.3-5.7 2.9-2.9 5.7-5.6 8.6-7.4 5.8-3.6 11.8-1.8 16.2-.4 3.2 1 5.9 1.9 8.5 1.2 2.8-.7 3-1 4.7-3.2 1.9-2.3 4.4-5.5 9.9-9.4 6.9-4.9 11.5-5.5 16-5.7 2.2-.1 2.9-.1 5-1.6 3.2-2.2 3.6-3 4.5-4.6 1.1-2 2.6-4.8 6.8-9 4.7-4.6 10.2-5.9 14.2-6.7 5-1.1 5.4-1.2 6.1-4.6.5-2.5-.2-4.8-1.8-9.5-1.1-3.1-2.4-6.9-3.3-11.6-1-5.2.6-10.6 2.1-15.8.8-2.7 2.1-7.1 1.8-8.5-.3-.4-1.7-1.2-2.7-1.8-3.3-2-8.3-5.1-11.1-11.9-2.4-5.9-1.6-11.4-.9-15.8.7-4.6 1-7.1-.6-10.2-.9-1.7-1.7-2.2-3.2-3.3-2.4-1.8-6.1-4.4-8.3-10.9-1.8-5.3-1-10.1-.4-14 .5-3.5.8-5.5-.1-7.2-.8-1.5-2.6-2.4-5.5-3.8-3.6-1.6-8.5-3.9-11-9.2-1.4-3.1-1.6-6.4-1.8-9.9-.2-4.2-.5-8.6-2.8-11.9-2-2.9-5.6-3.9-9.4-5.1-3.4-1-6.8-2-9.6-4.5-4.2-3.6-4.9-9-5.5-13.8-.3-1.9-.7-5.5-1.4-6.5-.8-.2-2.9-.2-4.4-.2-4.3.1-10.1.2-15.4-3.4-4.1-2.8-6.3-7.2-8.3-11-1.7-3.3-3.3-6.5-5.5-7.8-1.7-1-5.8-.1-9.5.7-4.2 1-8.5 1.9-12.9 1.1-7.8-1.4-11.6-6.5-14.1-9.9-1.7-2.3-2.4-3.1-3.2-3.2-2.5-.6-6 .3-9.7 1.1-4.2 1-9 2.1-14 1.4s-8.8-3.2-12.2-5.4c-4-2.6-6.6-4.2-10.4-4.2-4.1 0-6.9 7.2-7.3 8.6-.6 2.3-2.2 4.2-4.4 5.1-2.1 1-4.6 1-6.7 0-3.2-1.5-13.5-4.8-18.4-.6-4.5 3.8-6.7 7-8.6 9.9-2.1 3.1-4.3 6.3-8.3 8.5-3 1.6-6.7 2.2-10.5 2.8-2.7.4-8.3 1.3-9.3 2.6-1.1 1.5-1.9 3.4-2.8 5.6-2 4.7-4.5 10.5-11.1 15-4.6 3-9.1 4.1-12.7 4.9-3.3.8-4.7 1.2-5.4 2.1-2.3 3.1-2.5 6.7-2.7 10.8-.2 4.6-.4 10.3-4.7 14.6-4.6 4.6-9.8 6.5-13.9 8-4.5 1.6-6.2 2.4-7.4 4.6-1.5 2.7-1.5 7.1-1.5 11.3 0 6.1 0 13-4.8 17.8-2.9 2.9-5.6 4.6-7.8 5.9s-3.8 2.3-5.7 4.6c-.7.9-.7 4.9-.7 7.2 0 5.4 0 12.1-3.9 17.9-3.3 5-6.3 6.6-9.1 7.9-1.1.5-1.8.8-3.7 3.9-1.4 2.2-1.2 3.9-.5 7.8.8 4.4 1.9 10.5-2 17.1-2.3 3.8-4.7 6.2-6.5 7.9-2.5 2.4-3.4 3.3-3.4 9 0 2.3 1.5 3.5 7.8 6.2 3.9 1.7 7.8 3.4 10.3 7s2.9 7.7 3.1 10.6c.3 3.9.5 4.4 2.3 5.4 2.2 1.2 3.7 1.1 7 .7 3.9-.5 9.7-1.2 15.6 3.3 3.8 2.9 4.9 7.2 5.9 10.7.9 3.2 1.4 4.8 2.3 5.1.7.2 2.9 0 4.5-.3 4.5-.6 10.6-1.4 17.1 2.1 3.3 1.8 5.1 4.8 6.5 7.1 1.7 2.8 3 5.1 6.7 6.4 3.6 1.3 6.1.5 9.5-.5 3-.9 6.6-1.9 10.8-1.2 4.4.7 7.3 4.8 6.6 9.2s-4.9 7.3-9.2 6.6c-.6-.1-2.4.4-3.7.8-2.8.8-6.3 1.8-10.5 1.8z"/></g></svg>