<svg enable-background="new 0 0 496 496" viewBox="0 0 496 496" xmlns="http://www.w3.org/2000/svg"><g fill="#464747"><path d="m472 496c-4.4 0-8-3.6-8-8 0-19.2-8.4-56-64.6-87-10.3-5.7-23.4-10.6-37.2-15.9-34.8-13.2-74.2-28.2-74.2-60.4v-32.2c0-4.4 3.6-8 8-8s8 3.6 8 8v32.2c0 21.2 32.5 33.5 63.9 45.4 14.4 5.5 28 10.6 39.3 16.9 63.4 35 72.8 78.3 72.8 101 0 4.4-3.6 8-8 8z"/><path d="m24 496c-4.4 0-8-3.6-8-8 0-22.7 9.5-66 72.9-101 11.3-6.2 24.9-11.4 39.3-16.9 31.4-11.9 63.9-24.2 63.9-45.4v-32.2c0-4.4 3.6-8 8-8s8 3.6 8 8v32.2c0 32.2-39.4 47.2-74.2 60.4-13.9 5.3-27 10.2-37.2 15.9-56.3 31-64.7 67.8-64.7 87 0 4.4-3.6 8-8 8z"/><path d="m248 448c-48.2 0-91.9-28.3-111.4-72.1-1.8-4 0-8.8 4.1-10.6 4-1.8 8.8 0 10.6 4.1 16.9 38 54.9 62.6 96.8 62.6 41.9 0 79.9-24.6 96.8-62.6 1.8-4 6.5-5.9 10.6-4.1 4 1.8 5.9 6.5 4.1 10.6-19.7 43.8-63.4 72.1-111.6 72.1z"/><path d="m248 320c-20.7 0-42.1-9.8-60.1-27.5-17.1-16.8-29.4-39.3-34.9-63.7-10.9-3.9-25-16.3-25-44.8 0-7.5 1.1-14.2 3.3-19.7 2.8-7 9.2-11.8 16.7-12.5 21.5-2.1 28.2-19.5 35.4-43.9 2.5-8.5 4.9-16.6 8.5-22.9 4.9-8.7 11.7-13 20.2-13 9.9 0 17.9 3.1 23 5.9 4.4-3 11.5-5.9 23-5.9 18.3 0 31.4 18.6 45.3 38.2 13.6 19.2 27.6 39.1 45.5 41.6 7.1 1 13.1 5.7 15.8 12.3 2.3 5.6 3.4 12.3 3.4 20 0 28.5-14.1 40.9-25 44.8-5.6 24.4-17.9 46.9-34.9 63.7-18.1 17.6-39.5 27.4-60.2 27.4zm-87.4-105.7c3.6.2 6.4 2.9 7.1 6.5 9.7 51.4 49.2 83.3 80.3 83.3s70.7-31.8 80.3-83.3c.7-3.6 3.4-6.2 7.1-6.5 2.1-.3 16.6-3.4 16.6-30.3 0-7-1.2-11.4-2.2-13.9-.5-1.3-1.8-2.3-3.2-2.5-24.8-3.4-41.6-27.2-56.4-48.2-10.9-15.4-22.2-31.4-32.2-31.4-10.3 0-14.1 3-14.9 3.9-.9 2.4-2.6 3.7-5.1 4.4-2.6.7-5.1-.4-7.1-2.1 0 0-7.6-6.1-18.8-6.1-5.7 0-8.8 9.2-13.3 24.4-6.4 21.9-15.3 52-49.2 55.3-1.5.1-2.8 1.1-3.3 2.5-1.4 3.6-2.2 8.3-2.2 13.8-.1 26.8 14.4 29.9 16.5 30.2z"/><path d="m376.5 320c-28.6 0-39.9-5.2-41.1-5.8l7.2-14.3-.1-.1c.1 0 9.5 4.2 34 4.2 23.2 0 31.5-16.5 31.5-32 0-23.7-11.7-49.3-17.3-61.7-4.6-10.2-3.9-22.8-3.1-36.2.7-11.9 1.4-24.3-1.4-36.4-3.8-16.4-14-27.6-23.9-38.5-4.5-4.9-8.7-9.6-12.3-14.6-3.4-4.7-6.3-10.9-9.6-18-10.5-22.5-23.7-50.6-60.4-50.6-30.5 0-41.3 12.5-41.8 13l.1-.1-12.6-9.8c.6-.8 15.3-19.1 54.3-19.1 46.9 0 63.8 36 74.9 59.9 3 6.4 5.6 11.9 8.1 15.4 3.1 4.3 7 8.6 11.2 13.2 10.7 11.8 22.9 25.3 27.6 45.7 3.3 14.3 2.5 28.4 1.8 40.9-.7 11.8-1.3 22 1.7 28.6 6.1 13.4 18.7 41.2 18.7 68.3 0 12.6-4 24.2-11.4 32.7-6 7-17.1 15.3-36.1 15.3z"/><path d="m119.5 320c-19 0-30.1-8.3-36.1-15.3-7.4-8.5-11.4-20.1-11.4-32.7 0-27.1 12.6-54.9 18.7-68.3 3-6.6 2.4-16.8 1.7-28.6-.7-12.5-1.5-26.6 1.8-40.9 4.7-20.4 16.9-33.8 27.6-45.7 4.1-4.6 8.1-8.9 11.2-13.2 2.6-3.7 5.2-9.2 7.9-15.1 9.6-20.8 24.1-52.2 67.1-52.2 13.5 0 26.8 8.3 28.3 9.3 3.7 2.4 4.8 7.3 2.4 11.1-2.4 3.7-7.3 4.8-11 2.4-3-1.9-12.3-6.7-19.7-6.7-32.7 0-43.3 22.8-52.5 42.9-3.1 6.6-5.9 12.9-9.5 17.8-3.6 5.1-7.8 9.7-12.3 14.6-9.9 10.9-20.1 22.2-23.9 38.5-2.8 12.1-2.1 24.4-1.4 36.4.8 13.3 1.5 25.9-3.1 36.2-5.6 12.2-17.3 37.8-17.3 61.5 0 15.5 8.3 32 31.5 32 24.5 0 34-4.2 34-4.2l-.1.1 7.2 14.3c-1.2.6-12.5 5.8-41.1 5.8z"/></g></svg>