<svg enable-background="new 0 0 496 496" viewBox="0 0 496 496" xmlns="http://www.w3.org/2000/svg"><g fill="#464747"><path d="m248 320c-27.3 0-36.6-6.6-45.7-12.9-1.9-1.3-3.7-2.6-5.6-3.8-14.2-4.9-41-26-50.2-74.5-11.5-3.8-26.5-16.2-26.5-44.8 0-22.1 10.3-29.8 11.5-30.6l9.1 13.2s.1-.1.3-.2c0 0-4.8 4.3-4.8 17.6 0 12.4 3.3 21.2 9.7 26.3 4.2 3.4 8.4 3.9 8.5 3.9 3.7.3 6.6 3.1 7.2 6.7 7.4 47.4 32 64.7 40.9 67.4.6.2 1.2.4 1.8.8 2.8 1.6 5.1 3.3 7.4 4.9 8 5.6 14.3 10 36.5 10s28.5-4.4 36.5-10c2.3-1.6 4.6-3.2 7.4-4.9.6-.3 1.1-.6 1.8-.8 8.9-2.7 33.5-19.9 40.9-67.4.6-3.7 3.4-6.5 7.2-6.7 2-.2 18.1-3.2 18.1-30.2 0-13.3-4.8-17.6-4.8-17.6.2.2.3.2.3.2l9.1-13.2c1.2.8 11.5 8.5 11.5 30.6 0 28.6-15 41-26.5 44.8-9.2 48.5-36 69.6-50.2 74.5-2 1.2-3.7 2.4-5.6 3.8-9.2 6.3-18.5 12.9-45.8 12.9z"/><path d="m360 168c-1.4 0-2.9-.4-4.2-1.2-25.3-15.7-25.9-38.1-26.4-57.9-.4-17-.9-33-15-47.2-9.1-9.1-31.4-13.7-66.4-13.7s-57.3 4.6-66.3 13.7c-14.2 14.2-14.6 30.2-15 47.2-.5 19.8-1.1 42.2-26.4 57.9-3.8 2.3-8.7 1.2-11-2.6s-1.2-8.7 2.6-11c18-11.2 18.4-26 18.9-44.8.5-18.5 1-39.4 19.7-58.1 12.4-12.5 37-18.3 77.5-18.3s65.1 5.8 77.7 18.3c18.7 18.7 19.2 39.6 19.7 58.1.5 18.8.9 33.6 18.9 44.8 3.8 2.3 4.9 7.3 2.6 11-1.6 2.5-4.2 3.8-6.9 3.8z"/><path d="m312.9 332.1c-3.6 0-6.9-2.5-7.8-6.2-.7-3.1-1.1-6.1-1.1-9.2v-30.8c0-4.4 3.6-8 8-8s8 3.6 8 8v30.8c0 1.8.2 3.6.7 5.5 1 4.3-1.7 8.6-6 9.6-.6.2-1.2.3-1.8.3z"/><path d="m184.5 332.1c-.6 0-1.2-.1-1.8-.2-4.3-1-7-5.3-6-9.6.5-2 .7-3.7.7-5.5v-29.6c0-4.4 3.6-8 8-8s8 3.6 8 8v29.6c0 3-.4 6-1.1 9.2-.9 3.6-4.2 6.1-7.8 6.1z"/><path d="m488 496c-4.4 0-8-3.6-8-8 0-39.4-23.8-59.9-70.6-86-19-10.6-46.7-25.4-48.8-26.5-.9-.4-1.7-1-2.3-1.7-1.4-1.4-2.2-3.4-2.2-5.6 0-4.4 3.6-8 8-8 1.7 0 3.2.5 4.5 1.4.2.1.4.2.6.3.8.5 2.1 1.1 3.6 1.9 3.1 1.6 7.4 3.9 12.3 6.6 8.9 4.8 21.6 11.7 32.1 17.5 51.1 28.5 78.8 52.9 78.8 100 0 4.5-3.6 8.1-8 8.1z"/><path d="m8 496c-4.4 0-8-3.6-8-8 0-47.1 27.7-71.5 78.8-100 10.5-5.8 23.2-12.8 32.1-17.5 4.9-2.7 9.2-5 12.3-6.6 1.5-.8 2.8-1.5 3.6-1.9.2-.1.4-.2.6-.3 1.3-.9 2.9-1.4 4.5-1.4 4.4 0 8 3.6 8 8 0 2.2-.9 4.1-2.2 5.6-.7.7-1.5 1.3-2.3 1.7-2 1.1-29.8 15.8-48.8 26.5-46.8 26-70.6 46.5-70.6 85.9 0 4.4-3.6 8-8 8z"/><path d="m362.2 170.3c-.9 0-1.9-.2-2.8-.5-4.1-1.6-6.2-6.2-4.7-10.3 5.2-13.9 5.2-31 5.2-46 0-34.1-9.5-58.6-29-74.6-18.2-15.2-46.2-22.9-82.9-22.9s-64.7 7.7-83 22.9c-19.5 16.1-29 40.5-29 74.6 0 15 0 32.1 5.2 46 1.6 4.1-.5 8.7-4.7 10.3-4.1 1.6-8.7-.5-10.3-4.7-6.3-16.6-6.3-36-6.3-51.6 0-38.7 11.7-67.9 34.8-87 21.4-17.6 52.8-26.5 93.3-26.5s71.9 8.9 93.2 26.5c23.1 19 34.8 48.3 34.8 87 0 15.6 0 35-6.3 51.6-1.2 3.2-4.2 5.2-7.5 5.2z"/><path d="m248 432c-2.9 0-5.6-1.6-7-4.1-8.6-15.4-21.6-30.1-34.3-44.3-20.8-23.5-38.8-43.7-31-62.6 1.7-4.1 6.4-6 10.4-4.3 4.1 1.7 6 6.4 4.3 10.4-4 9.6 12.4 28 28.2 45.8 9.8 11 20.5 23.1 29.3 35.9 8.8-12.8 19.5-24.9 29.3-35.9 15.8-17.8 32.2-36.2 28.2-45.8-1.7-4.1.3-8.8 4.3-10.4 4.1-1.7 8.8.3 10.4 4.3 7.8 18.8-10.2 39.1-31 62.6-12.6 14.2-25.7 28.9-34.3 44.3-1.2 2.5-3.9 4.1-6.8 4.1z"/><path d="m335.7 416c-.2 0-.5 0-.7 0-2.4-.2-4.6-1.5-5.9-3.5-11.2-16.7-23.5-27.1-32.9-27.9-4.7-.4-9.1 1.7-13.4 6.3-3 3.2-8.1 3.4-11.3.4s-3.4-8.1-.4-11.3c9.6-10.3 19.6-11.8 26.3-11.3 15.4 1.2 29.1 13.9 39.1 26.8 9-9.9 16.5-19.8 19-24.9-10.1-11-31.8-32.7-45.9-39.2-4-1.8-5.8-6.6-4-10.6s6.6-5.8 10.6-4c21.9 10 52.8 44.8 54.1 46.2 1.3 1.5 2 3.3 2 5.3 0 4.4-1.8 11.6-16.1 28.8-7.3 8.8-14.4 16.1-14.7 16.4-1.6 1.6-3.7 2.5-5.8 2.5z"/><path d="m160.3 416c-2.1 0-4.2-.9-5.7-2.4-.3-.3-7.5-7.6-14.7-16.4-14.3-17.2-16.1-24.5-16.1-28.8 0-1.9.7-3.8 2-5.3s32.2-36.3 54.1-46.2c4-1.8 8.8-.1 10.6 4 1.8 4 .1 8.8-4 10.6-14.1 6.4-35.8 28.1-45.9 39.2 2.5 5.1 10 15 19 24.9 10-12.9 23.6-25.6 39.1-26.8 6.7-.5 16.7 1 26.3 11.3 3 3.2 2.8 8.3-.4 11.3s-8.3 2.8-11.3-.4c-4.3-4.6-8.7-6.7-13.4-6.3-9.4.7-21.6 11.2-32.9 27.9-1.3 2-3.5 3.3-5.9 3.5-.3-.1-.5-.1-.8-.1z"/><path d="m248 496c-1.8 0-3.6-.6-5.1-1.8-32.4-26.9-58.9-59.3-78.8-96.3-2.1-3.9-.6-8.7 3.3-10.8s8.7-.6 10.8 3.3c17.9 33.3 41.3 62.6 69.8 87.2 28.5-24.7 51.9-54 69.8-87.2 2.1-3.9 6.9-5.4 10.8-3.3s5.4 6.9 3.3 10.8c-19.9 37-46.4 69.4-78.8 96.3-1.5 1.2-3.3 1.8-5.1 1.8z"/></g></svg>