<svg enable-background="new 0 0 496 496" viewBox="0 0 496 496" xmlns="http://www.w3.org/2000/svg"><g fill="#464747"><path d="m248 320c-27.1 0-36.4-6.5-45.5-12.8-2.2-1.5-4.2-2.9-6.5-4.3-24.3-14.1-41.3-39.6-49.3-74-11.6-3.8-26.7-16.1-26.7-44.9 0-22.1 10.3-29.8 11.5-30.6l9.1 13.2s.1-.1.3-.2c0 0-4.8 4.3-4.8 17.6 0 12.4 3.3 21.2 9.7 26.3 4.2 3.4 8.4 3.9 8.5 3.9 3.5.3 6.5 2.9 7.2 6.4 4.5 22.6 15.6 52.8 42.7 68.4 2.9 1.7 5.3 3.4 7.7 5 8 5.6 14.3 9.9 36.3 9.9s28.3-4.4 36.3-9.9c2.3-1.6 4.8-3.3 7.7-5 27.1-15.6 38.1-45.8 42.7-68.4.7-3.6 3.5-6.2 7.1-6.4 1.9-.2 18-3.2 18-30.2 0-13.3-4.8-17.6-4.8-17.6.2.2.3.2.3.2l9.1-13.2c1.2.8 11.5 8.5 11.5 30.6 0 28.8-15.2 41.1-26.7 44.9-8 34.4-24.9 60-49.3 74-2.3 1.3-4.4 2.8-6.5 4.3-9.2 6.3-18.5 12.8-45.6 12.8z"/><path d="m360 168c-24 0-30.5-21.6-35.7-39-6.1-20.4-10.8-33-28.3-33-12.3 0-20.1 2.2-27.6 4.4-6.5 1.9-12.6 3.6-20.4 3.6s-13.9-1.8-20.4-3.6c-7.5-2.2-15.3-4.4-27.6-4.4-17.5 0-22.1 12.5-28.3 33-5.2 17.4-11.7 39-35.7 39-4.4 0-8-3.6-8-8s3.6-8 8-8c11 0 14.6-8.4 20.4-27.6 5.6-18.8 13.3-44.4 43.6-44.4 14.5 0 24.2 2.8 32 5 5.8 1.7 10.5 3 16 3s10.2-1.3 16-3c7.8-2.2 17.5-5 32-5 30.3 0 38 25.6 43.6 44.4 5.8 19.2 9.4 27.6 20.4 27.6 4.4 0 8 3.6 8 8s-3.6 8-8 8z"/><path d="m488 496c-4.4 0-8-3.6-8-8v-.4c0-44 0-78.7-62.6-93.8-51.7-12.6-113.4-36.1-113.4-77.1v-32.9c0-4.4 3.6-8 8-8s8 3.6 8 8v32.9c0 23.5 36.9 45.9 101.2 61.5 33.4 8.1 54.8 22.8 65.5 44.9 9.4 19.5 9.4 42.3 9.4 64.4v.4c-.1 4.5-3.7 8.1-8.1 8.1z"/><path d="m8 496c-4.4 0-8-3.6-8-8v-.4c0-22.1 0-44.9 9.4-64.4 10.6-22.2 32.1-36.9 65.4-45 64.3-15.6 101.2-38 101.2-61.5v-32.9c0-4.4 3.6-8 8-8s8 3.6 8 8v32.9c0 41-61.7 64.5-113.4 77.1-62.6 15.1-62.6 49.8-62.6 93.8v.4c0 4.4-3.6 8-8 8z"/><path d="m362.2 170.3c-.9 0-1.9-.2-2.8-.5-4.1-1.6-6.2-6.2-4.7-10.3 5.2-13.9 5.2-31 5.2-46 0-34.1-9.5-58.6-29-74.6-18.2-15.2-46.2-22.9-82.9-22.9-40.9 0-56.4 15.2-65.4 28.5-.9 1.3-2.2 2.4-3.7 2.9-19.8 7.9-43 31.7-43 72.6 0 16.5 0 25.6 5.2 39.5 1.6 4.1-.5 8.7-4.7 10.3-4.1 1.6-8.7-.5-10.3-4.7-6.3-16.6-6.3-28-6.3-45.1 0-47.4 26.8-75.9 50.8-86.5 16.5-22.8 41.2-33.5 77.4-33.5 40.5 0 71.9 8.9 93.2 26.5 23.1 19 34.8 48.3 34.8 87 0 15.6 0 35-6.3 51.6-1.2 3.2-4.2 5.2-7.5 5.2z"/><path d="m288 440c-2.3 0-4.6-1-6.1-2.9l-40-48c-1.9-2.2-2.4-5.3-1.3-8 1-2.7 3.5-4.6 6.4-5 26.9-3.8 51.3-18.9 67.1-41.5 2.5-3.6 7.5-4.5 11.1-2s4.5 7.5 2 11.1c-15.6 22.4-38.6 38.4-64.4 45.4l31.4 37.7c2.8 3.4 2.4 8.4-1 11.3-1.6 1.3-3.4 1.9-5.2 1.9z"/><path d="m208 440c-1.8 0-3.6-.6-5.1-1.9-3.4-2.8-3.9-7.9-1-11.3l31.4-37.7c-25.8-7-48.8-23-64.4-45.4-2.5-3.6-1.6-8.6 2-11.1s8.6-1.6 11.1 2c15.8 22.6 40.2 37.7 67.1 41.5 2.9.4 5.3 2.3 6.4 5 1 2.7.5 5.8-1.3 8l-40 48c-1.6 1.9-3.9 2.9-6.2 2.9z"/><path d="m288 440c-2.7 0-5.3-1.3-6.8-3.8-2.3-3.7-1.2-8.7 2.6-11 26.3-16.4 49.2-38.8 66.3-64.6 2.4-3.7 7.4-4.7 11.1-2.3s4.7 7.4 2.3 11.1c-18.3 27.8-42.9 51.8-71.1 69.4-1.5.8-2.9 1.2-4.4 1.2z"/><path d="m208 440c-1.4 0-2.9-.4-4.2-1.2-28.2-17.6-52.8-41.6-71.1-69.4-2.4-3.7-1.4-8.7 2.3-11.1s8.7-1.4 11.1 2.3c17 25.9 40 48.2 66.3 64.6 3.7 2.3 4.9 7.3 2.6 11-1.7 2.5-4.3 3.8-7 3.8z"/><path d="m272 496c-3.7 0-7.1-2.6-7.8-6.4l-8-40c-.3-1.5-.2-3 .4-4.4l11.8-30.7c1.6-4.1 6.2-6.2 10.3-4.6s6.2 6.2 4.6 10.3l-10.9 28.5 7.5 37.7c.9 4.3-1.9 8.5-6.3 9.4-.6.2-1.1.2-1.6.2z"/><path d="m224 496c-.5 0-1-.1-1.6-.2-4.3-.9-7.1-5.1-6.3-9.4l7.5-37.7-10.9-28.5c-1.6-4.1.5-8.8 4.6-10.3 4.1-1.6 8.8.5 10.3 4.6l11.8 30.7c.5 1.4.7 2.9.4 4.4l-8 40c-.7 3.8-4.1 6.4-7.8 6.4z"/><path d="m264 456h-32c-4.4 0-8-3.6-8-8s3.6-8 8-8h32c4.4 0 8 3.6 8 8s-3.6 8-8 8z"/></g></svg>