<svg enable-background="new 0 0 496 496" viewBox="0 0 496 496" xmlns="http://www.w3.org/2000/svg"><g fill="#464747"><path d="m248 320c-20.7 0-42.1-9.8-60.1-27.5-17.1-16.8-29.4-39.3-34.9-63.7-10.9-3.9-25-16.3-25-44.8 0-21.5 8.9-29.1 10.7-30.4 1.4-1 3-1.6 4.7-1.6 4.7 0 6.3-1.9 7.3-3.7 1.1-2.1 1.2-4.4 1.2-4.4.1-5.5 1.3-54.9 27.9-70.7 2.4-1.4 5.4-1.5 7.9-.2s4.1 3.8 4.2 6.6c.6 11.5 4.2 43.1 13.2 57.8 10.4 3.5 53.8 16.8 109.1 16.8 10.2 0 20.4-.5 30.3-1.4.6-.1 1.2-.1 1.8-.1 8.6 0 16.2 5.5 19 13.6 1.7 5.1 2.6 11.1 2.6 17.7 0 28.5-14.1 40.9-25 44.8-5.6 24.4-17.9 46.9-34.9 63.7-17.9 17.7-39.3 27.5-60 27.5zm-87.4-105.7c3.6.2 6.4 2.9 7.1 6.5 9.7 51.4 49.3 83.3 80.4 83.3s70.7-31.8 80.4-83.3c.7-3.6 3.4-6.2 7.1-6.5 2-.3 16.6-3.4 16.6-30.3 0-4.9-.6-9.1-1.7-12.6-.6-1.7-2.3-2.9-4.2-2.7-10.4.9-21.1 1.4-31.8 1.4-66.3 0-115-17.9-117.1-18.6-1.5-.5-2.7-1.5-3.7-2.8-9.1-12.5-13.6-34.2-15.7-50-7.6 14.5-9.7 36-9.8 45.3-.1 8.9-5.8 21.7-20.6 23.7-1.3 2.3-3.4 7.2-3.4 16.2-.2 27 14.3 30.1 16.4 30.4z"/><path d="m472 496c-4.4 0-8-3.6-8-8 0-19.1-7.7-47.6-44.6-74.4-3.6-2.6-4.4-7.6-1.8-11.2s7.6-4.4 11.2-1.8c33 24 51.2 55 51.2 87.3 0 4.5-3.6 8.1-8 8.1z"/><path d="m24 496c-4.4 0-8-3.6-8-8 0-22.7 9.5-66 72.9-101 11.3-6.2 24.9-11.4 39.3-16.9 31.4-11.9 63.9-24.2 63.9-45.4v-32.2c0-4.4 3.6-8 8-8s8 3.6 8 8v32.2c0 32.2-39.4 47.2-74.2 60.4-13.9 5.3-27 10.2-37.2 15.9-56.3 31-64.7 67.8-64.7 87 0 4.4-3.6 8-8 8z"/><path d="m472 496c-4.4 0-8-3.6-8-8 0-1.3 0-2.6-.1-4.1 0-.2 0-.5 0-.7v-.2c0-.4-.1-.7-.1-1.1v-.1c-.1-.7-.1-1.4-.2-1.9 0-.2-.1-.5-.1-.7-.1-.7-.2-1.5-.3-2.1 0-.2-.1-.3-.1-.5l-.1-.4c-.1-.8-.2-1.5-.4-2.3 0-.1 0-.1 0-.2l-.1-.4c-.1-.6-.2-1.1-.3-1.6 0-.2-.1-.3-.1-.5-.1-.6-.3-1.3-.5-2.1-.1-.5-.2-.8-.3-1.2-.2-.5-.3-1-.5-1.6-.4-1.4-1-3-1.8-5 0 0 0-.1-.1-.1l-.1-.3c-.3-.8-.6-1.6-.9-2.2-.1-.2-.2-.5-.3-.7-.6-1.5-1.3-3-2.1-4.5-.1-.2-.3-.5-.4-.7-.1-.3-.5-.9-.8-1.4l-.5-.9c0-.1-.1-.1-.1-.2-.3-.7-.7-1.4-1.2-2.1-.1-.2-.2-.3-.3-.5-.5-.9-.9-1.6-1.4-2.1-.2-.2-.3-.5-.5-.7-.4-.7-.9-1.4-1.5-2.1-.1-.1-.2-.3-.3-.4-.5-.7-1.1-1.6-1.8-2.6-4.7-6.2-10.2-12-16.3-17.3-.1-.1-.2-.1-.2-.2-1-.9-2-1.8-3-2.6-.1-.1-.2-.1-.3-.2-1-.9-2.2-1.8-3.5-2.8-.4-.3-.8-.6-1.2-.9-.9-.7-1.8-1.4-2.6-1.9-.1-.1-.2-.1-.3-.2-5.7-4.2-12.4-8.4-19.9-12.7 0 0-.1 0-.1-.1-1-.6-1.7-1-2.4-1.3-4-1.8-5.8-6.6-3.9-10.6 1.8-4 6.6-5.8 10.6-3.9 1.1.5 2.3 1.1 3.7 1.9 8.1 4.5 15.3 9.1 21.5 13.6 1.2.8 2.4 1.7 3.4 2.5.3.3.7.5 1 .8 1.4 1.1 2.8 2.2 4.2 3.3 1.3 1 2.6 2.1 3.8 3.2 6.9 6 13.1 12.5 18.4 19.5.9 1.2 1.7 2.4 2.3 3.2.8 1.1 1.5 2.1 2.2 3.2.7.9 1.4 2 2 3.2.7 1.1 1.4 2.2 2 3.3l.4.7c.4.7.8 1.5 1.2 2.3 1.1 1.9 2 3.9 2.8 5.9.6 1.3 1.1 2.5 1.4 3.4l.1.2c1 2.5 1.7 4.6 2.3 6.4 0 .1.1.2.1.3.1.4.2.7.3 1.1.2.6.3 1.1.5 1.7.2.9.5 1.8.7 2.9.2.9.4 1.7.5 2.4l.1.3c.3 1.2.4 2.2.6 3.1v.2c.3 1.3.5 2.5.6 3.8.1 1 .2 2 .3 2.7v.4.7.2c0 .4.1.7.1 1.1.2 2.1.2 3.8.2 5.2-.3 4.6-3.9 8.2-8.3 8.2z"/><path d="m296 488c-1.8 0-3.6-.6-5-1.8-1.9-1.5-3-3.8-3-6.2v-152c0-4.4 3.6-8 8-8s8 3.6 8 8v141.9c37.9-10.2 67.4-31.8 88-64.2 0-1.4 0-3.1.1-5.2.4-24.5 1.7-99.3-6-176.5-9.6-95.2-29.8-160.9-58.4-190.1-11.9-12-24.9-17.9-39.7-17.9-29 0-41.6 12.9-42.2 13.5-1.4 1.6-3.3 2.6-5.5 2.6-2.1.1-4.1-.6-5.6-2.1-.7-.6-7.8-6-21.3-6-5.9 0-21.7 2.1-39.9 21.3-28.1 29.7-73.4 113.6-61 342.5.2 4.4-3.1 8.2-7.6 8.4-4.4.2-8.2-3.1-8.4-7.6-5.3-97.1-.7-178.3 13.4-241.1 11.5-50.9 28.9-89 51.9-113.2 21.8-22.9 41.7-26.3 51.7-26.3 12 0 20.7 3.3 25.9 6.1 7.6-5.5 23.4-14.1 48.6-14.1 19.1 0 36.3 7.6 51 22.7 31.7 32.3 52.9 99.5 63 199.7 7.8 78.2 6.5 153.6 6.1 178.3-.1 3.4-.1 5.9-.1 7.3 0 1.5-.4 2.9-1.2 4.2-24.7 40.1-61.4 65.5-109.1 75.6-.6.1-1.1.2-1.7.2z"/><path d="m247.9 408c-34.4 0-67.9-12.6-94.2-35.6-3.3-2.9-3.7-8-.8-11.3s8-3.7 11.3-.8c23.4 20.4 53.1 31.6 83.7 31.6h.1c4.5 0 9.1-.3 13.6-.8 4.4-.5 8.3 2.7 8.8 7.1s-2.7 8.3-7.1 8.8c-5.1.6-10.3.9-15.4.9.1.1 0 .1 0 .1z"/></g></svg>