<svg enable-background="new 0 0 496 496" viewBox="0 0 496 496" xmlns="http://www.w3.org/2000/svg"><g fill="#464747"><path d="m248 336c-25.9 0-51.2-8.7-71.3-24.5-20.5-16.2-35.1-39-42.3-66.3-12.9-3.5-30.3-15.7-30.3-45.2 0-22.3 11.6-30 12.9-30.8s2.7-1.2 4.2-1.2c13 0 59.9-36 79.6-83.1 1-2.4 3.2-4.2 5.8-4.8 2.6-.5 5.3.3 7.2 2.1.3.3 34.8 33.9 78.4 58.8 3.8 2.2 5.2 7.1 3 10.9s-7.1 5.2-10.9 3c-33-18.8-60.3-41.8-73.4-53.6-12.8 25.5-30.9 44.7-41.3 54.4-17 16-33.4 26.2-45 27.9-1.6 1.9-4.4 6.7-4.4 16.3 0 27.4 19.4 30.1 21.6 30.3 3.5.3 6.3 2.8 7.1 6.2 11.5 50.7 50.5 83.5 99.3 83.5 37.1 0 85.3-21.9 99.3-83.5.8-3.4 3.7-5.9 7.2-6.2 2.1-.2 21.5-2.9 21.5-30.3 0-9.2-2.6-14-4.2-16-16.8-.5-35.1-4.8-54.6-12.8-4.1-1.7-6-6.4-4.4-10.4 1.7-4.1 6.4-6 10.4-4.4 18.6 7.8 36 11.7 51.6 11.7 1.5 0 2.9.4 4.2 1.2s12.9 8.5 12.9 30.8c0 29.5-17.5 41.7-30.3 45.2-7.3 27.4-21.9 50.3-42.5 66.4-20.3 15.7-45.5 24.4-71.3 24.4z"/><path d="m440 496c-4.4 0-8-3.6-8-8 0-57.8-38.2-80.9-75.2-103.2-31-18.8-60.3-36.5-60.3-72.7 0-4.4 3.6-8 8-8s8 3.6 8 8c0 27.2 23.2 41.3 52.6 59 36.9 22.3 82.9 50.1 82.9 116.9 0 4.4-3.6 8-8 8z"/><path d="m56 496c-4.4 0-8-3.6-8-8 0-66.8 46-94.6 82.9-116.9 29.4-17.8 52.6-31.8 52.6-59 0-4.4 3.6-8 8-8s8 3.6 8 8c0 36.3-29.3 54-60.3 72.7-37 22.3-75.2 45.4-75.2 103.2 0 4.4-3.6 8-8 8z"/><path d="m247.7 416c-38.2 0-75.1-15.7-101.5-43-3.1-3.2-3-8.2.2-11.3s8.2-3 11.3.2c23.4 24.2 56.2 38.1 90 38.1h.3c34.1-.1 65.9-13.8 89.6-38.5 3.1-3.2 8.1-3.3 11.3-.3 3.2 3.1 3.3 8.1.3 11.3-26.7 28-62.6 43.4-101.1 43.5-.2 0-.3 0-.4 0z"/><path d="m352 344c-4.4 0-8-3.6-8-8s3.6-8 8-8c30.9 0 51.6-3.4 61.9-5.7-10.2-36.1-13.9-83.3-13.9-114.3v-1.1c0-15.8.1-63.8-17.4-108.2-21.5-54.9-61.4-82.7-118.6-82.7-32.2 0-41.2 12.3-41.3 12.4.1-.1.1-.2.1-.2l-13.6-8.5c1.3-2 13.6-19.7 54.8-19.7 35 0 64.7 9.6 88.3 28.4 19.3 15.4 34.5 37.1 45.2 64.4 18.5 47.2 18.5 97.5 18.5 114.1v1.1c0 32.2 4.1 82.4 15.6 117.5 1.4 4.2-.9 8.7-5.1 10.1-1 .3-25.8 8.4-74.5 8.4z"/><path d="m144 344c-48.7 0-73.5-8.1-74.5-8.4-4.2-1.4-6.4-5.9-5.1-10.1 11.5-35.1 15.6-85.3 15.6-117.5 0-42.3 11.1-89.9 29.7-127.4 22.1-44.7 52.3-69.3 85-69.3 11.4 0 23.8 5 24.4 5.3 4.1 1.7 6.1 6.3 4.4 10.4s-6.3 6-10.4 4.4c-.1 0-10.1-4.1-18.3-4.1-35.5 0-59.5 37.8-70.7 60.4-17.3 34.9-28 80.9-28 120.3 0 31-3.7 78.2-13.9 114.3 10.3 2.2 31 5.7 61.9 5.7 4.4 0 8 3.6 8 8s-3.7 8-8.1 8z"/><path d="m304 464c-40.1 0-62.4-50.7-63.3-52.8-1.7-4.1.1-8.8 4.2-10.5 4.1-1.8 8.8.1 10.5 4.2.3.7 19.2 43.2 48.7 43.2 45.7 0 68.7-60.2 68.9-60.8 1.5-4.1 6.1-6.2 10.3-4.7 4.1 1.5 6.3 6.1 4.7 10.3-1.2 2.8-27.1 71.1-84 71.1z"/><path d="m191.3 464c-56.9 0-82.8-68.3-83.9-71.2-1.5-4.1.6-8.7 4.7-10.3 4.1-1.5 8.7.6 10.3 4.7.2.6 23.2 60.8 68.9 60.8 29.6 0 48.5-42.7 48.7-43.2 1.8-4 6.5-5.9 10.5-4.2 4.1 1.8 5.9 6.4 4.2 10.5-1 2.2-23.2 52.9-63.4 52.9z"/><path d="m308 176c-15.4 0-28-12.6-28-28 0-7 2.6-13.6 7.3-18.8.2-.2.3-.4.5-.6l35.2-36.6c.1-.2.3-.3.4-.5 2.3-2.3 5.4-3.5 8.5-3.5 6.3 0 11.5 4.9 12 11 0 .3.1.7.1 1 0 .4 0 .7-.1 1.1-.1.6-.2 1.1-.3 1.7l-7.6 45.2c0 15.4-12.6 28-28 28zm-8.2-36.8c-.1.2-.3.3-.4.5-2.2 2.3-3.4 5.2-3.4 8.3 0 6.6 5.4 12 12 12 4.8 0 9-2.9 10.9-7l1.2-7.1c0-.1 0-.2 0-.2l5.7-33.5z"/></g></svg>