<svg enable-background="new 0 0 496 496" viewBox="0 0 496 496" xmlns="http://www.w3.org/2000/svg"><g fill="#464747"><path d="m248 320c-21.9 0-43.3-8.9-60.2-25-16.9-16.2-28.9-39-34.9-66.2-10.9-4-24.9-16.3-24.9-44.8 0-21.5 8.9-29.1 10.7-30.4.4-.3.8-.5 1.2-.7s41-20.6 52.4-59.1c.8-2.9 3.2-5 6.1-5.6s5.9.5 7.8 2.8c.3.3 27.5 32.7 79.5 36.7-.8-6.4-.6-15.2 2.7-25.9 1.2-4 5.3-6.4 9.4-5.5 2 .4 49.1 11.3 62 59.7 3.3 3.7 8.3 12.1 8.3 28.1 0 28.5-14 40.8-24.9 44.8-5.9 27.3-18 50.1-35 66.3-17 16-38.4 24.8-60.2 24.8zm-87.4-105.7c3.6.2 6.4 2.9 7.1 6.5 9.4 50.6 41 83.3 80.4 83.3s70.9-32.7 80.4-83.2c.7-3.6 3.4-6.3 7.1-6.5 2-.3 16.6-3.4 16.6-30.3 0-12.1-3.6-16.8-4.4-17.7-1.7-1.1-2.4-2.4-2.8-4.5-7.2-30-30.6-42.8-42.9-47.6-1.7 11 1 17.5 1.3 18.2 1.3 2.5 1.2 5.3-.3 7.7-1.4 2.4-4.1 3.8-6.9 3.8-47.4 0-78.4-20.9-92.9-33.6-15.5 34-48.1 52.5-54.9 56.1-1.1 1.3-4.2 6.2-4.2 17.4-.2 27 14.3 30.1 16.4 30.4z"/><path d="m488 496c-4.4 0-8-3.6-8-8 0-19.2-17.7-67.6-72.3-94.8-9.4-4.7-21.1-9.1-33.4-13.7-36.7-13.8-78.3-29.4-78.3-62.8v-28.9c0-4.4 3.6-8 8-8s8 3.6 8 8v28.9c0 22.3 36.1 35.9 68 47.8 12.7 4.8 24.7 9.3 34.9 14.3 59.1 29.5 81.1 82.6 81.1 109.2 0 4.4-3.6 8-8 8z"/><path d="m8 496c-4.4 0-8-3.6-8-8 0-26.6 22-79.7 81.1-109.2 10.2-5.1 22.2-9.6 34.9-14.3 31.9-11.9 68-25.5 68-47.8v-28.9c0-4.4 3.6-8 8-8s8 3.6 8 8v28.9c0 33.4-41.6 49-78.3 62.8-12.3 4.6-23.9 9-33.4 13.7-54.6 27.2-72.3 75.6-72.3 94.8 0 4.4-3.6 8-8 8z"/><path d="m354.6 170.3c-.9 0-1.8-.1-2.7-.5-4.2-1.5-6.4-6-4.9-10.2 4.9-14 4.9-31.1 4.9-46.2.1-59.1-40.7-97.4-103.9-97.4-41.5 0-56.8 18.7-67.9 36.3-.9 1.4-2.1 2.4-3.6 3.1-15.4 6.5-32.5 35.6-32.5 64.6 0 20.8 2.7 32.3 5 40 1.3 4.2-1.1 8.7-5.3 10s-8.7-1.1-10-5.3c-2.7-8.8-5.7-21.7-5.7-44.6 0-32.1 18-67.1 39.8-78.2 13.7-21.1 34.2-41.9 80.2-41.9 33.2 0 63.2 10.2 84.4 28.6 23.3 20.3 35.6 49.6 35.6 84.9 0 16.4 0 34.9-5.8 51.5-1.2 3.3-4.3 5.3-7.6 5.3z"/><path d="m280 456c-2.6 0-5.1-1.3-6.7-3.6l-25.3-38-25.3 38c-2.5 3.7-7.4 4.7-11.1 2.2s-4.7-7.4-2.2-11.1l32-48c1.5-2.2 4-3.6 6.7-3.6s5.2 1.3 6.7 3.6l32 48c2.5 3.7 1.5 8.6-2.2 11.1-1.5 1-3.1 1.4-4.6 1.4z"/><path d="m248 408c-.8 0-1.7-.1-2.5-.4-31.2-10.1-58.7-30.5-77.4-57.4-2.5-3.6-1.6-8.6 2-11.1s8.6-1.6 11.1 2c16.2 23.3 39.8 41.2 66.7 50.5 26.9-9.3 50.5-27.1 66.7-50.5 2.5-3.6 7.5-4.5 11.1-2s4.5 7.5 2 11.1c-18.7 26.9-46.2 47.3-77.4 57.4-.6.3-1.5.4-2.3.4z"/><path d="m280 456c-2.7 0-5.4-1.4-6.9-3.9-2.3-3.8-1-8.7 2.7-11 31.2-18.7 55.3-47.9 67.9-82 1.5-4.1 6.1-6.3 10.3-4.7 4.1 1.5 6.3 6.1 4.7 10.3-13.8 37.6-40.3 69.6-74.7 90.2-1.2.7-2.6 1.1-4 1.1z"/><path d="m216 456c-1.4 0-2.8-.4-4.1-1.1-34.3-20.6-60.8-52.6-74.7-90.2-1.5-4.1.6-8.7 4.7-10.3 4.1-1.5 8.7.6 10.3 4.7 12.6 34.2 36.7 63.3 67.9 82 3.8 2.3 5 7.2 2.7 11-1.4 2.5-4.1 3.9-6.8 3.9z"/></g></svg>