<svg enable-background="new 0 0 496 496" viewBox="0 0 496 496" xmlns="http://www.w3.org/2000/svg"><g fill="#464747"><path d="m248 304c-19.4 0-39.4-9.3-56.3-26.2-15.9-15.9-27.3-37.2-32.5-60.3-10.3-3.9-23.3-15.8-23.3-42.7 0-7.5 1.1-14.1 3.4-19.5 2.3-5.5 6.9-9.7 12.7-11.4 14.1-4.3 46.7-41.7 56.4-74.1.9-2.9 3.3-5 6.2-5.6 3-.5 6 .6 7.8 3 .5.7 55.7 72.7 117.5 76.7 8 .5 14.9 5.7 17.6 13.3 1.8 5 2.7 10.9 2.7 17.6 0 26.9-13 38.8-23.3 42.7-5.2 23.1-16.7 44.4-32.5 60.3-17 16.9-37 26.2-56.4 26.2zm-29.4-216.3c-14.5 32.8-44.5 66-62.1 71.4-1.2.3-2.1 1.2-2.5 2.3-1 2.4-2.2 6.6-2.2 13.4 0 26.5 14.7 28.2 14.9 28.2 3.6.3 6.5 3 7.1 6.5 9 48.5 45.5 78.5 74.2 78.5s65.2-30 74.2-78.5c.7-3.6 3.4-6.3 7-6.5 1.9-.3 14.9-3.2 14.9-28.3 0-4.8-.6-9-1.8-12.3-.5-1.5-1.9-2.6-3.5-2.7-54-3.4-101-50.2-120.2-72z"/><path d="m472 496c-4.4 0-8-3.6-8-8v-16c0-30.2-19.5-59.1-54.8-81.2-3.7-2.3-4.9-7.3-2.5-11 2.3-3.7 7.3-4.9 11-2.5 54.2 34 62.3 74 62.3 94.8v16c0 4.3-3.6 7.9-8 7.9z"/><path d="m332.5 356.2c-1.1 0-2.3-.2-3.4-.8-17.6-8.3-41.1-22.3-41.1-46.8v-32.2c0-4.4 3.6-8 8-8s8 3.6 8 8v32.2c0 11.9 9.8 21.9 31.9 32.3 4 1.9 5.7 6.7 3.8 10.7-1.4 3-4.2 4.6-7.2 4.6z"/><path d="m24 496c-4.4 0-8-3.6-8-8v-16c0-20.8 8.1-60.8 62.3-94.8 3.7-2.3 8.7-1.2 11 2.5s1.2 8.7-2.5 11c-35.3 22.2-54.8 51.1-54.8 81.3v16c0 4.4-3.6 8-8 8z"/><path d="m164 356c-3 0-5.9-1.7-7.2-4.6-1.9-4-.2-8.8 3.8-10.7 21.4-10.2 31.4-20.4 31.4-32.1v-32.2c0-4.4 3.6-8 8-8s8 3.6 8 8v32.2c0 24.4-23.2 38.2-40.6 46.5-1.1.7-2.2.9-3.4.9z"/><path d="m360 480c-1.7 0-3.4-.6-4.8-1.6-45-33.8-32.2-160.3-19-216.2 1-4.3 5.3-7 9.6-5.9 4.3 1 7 5.3 5.9 9.6-14.5 61-19.3 159 6.3 192.9 3.4-5.4 7-10.2 10.4-14.6 8.7-11.3 15.6-20.3 15.6-36.2 0-10-3.2-21.2-7.3-35.3-7-24.2-16.7-57.4-16.7-108.7 0-4.4 3.6-8 8-8s8 3.6 8 8c0 49 8.9 79.6 16 104.2 4.5 15.4 8 27.5 8 39.8 0 21.3-9.6 33.8-18.9 45.9-5 6.5-10.1 13.2-13.8 21.4-1 2.2-2.9 3.9-5.3 4.5-.7.1-1.3.2-2 .2z"/><path d="m368 272h-24c-2.1 0-4.2-.8-5.7-2.3l-8-8c-3.1-3.1-3.1-8.2 0-11.3s8.2-3.1 11.3 0l5.7 5.7h15.7c4.1-9.1 13-31.6 13-56 0-19.6-3.2-45.9-5.8-67-1-8.1-1.9-15.7-2.6-22.2-.1-1.2-3.1-28.6-18.4-54.1-16.3-27.1-39.6-40.8-69.2-40.8-36.3 0-49.2 8.7-50.3 9.6-2.8 2.7-6.3 3-9.4.8-.8-.4-5.6-2.3-16-2.3-22.4 0-40.1 12.2-52.5 36.3-11.4 22-14.3 46-14.8 50.6-1.1 10.5-4.1 23.1-7.4 36.5-4.5 18.5-9.1 37.5-9.1 52.7 0 24.5 8.9 46.9 13 56h15.7l5.7-5.7c3.1-3.1 8.2-3.1 11.3 0s3.1 8.2 0 11.3l-8 8c-1.5 1.5-3.5 2.3-5.7 2.3h-24c-3 0-5.7-1.6-7.1-4.2-.7-1.3-16.9-32.2-16.9-67.8 0-17.1 4.8-37.1 9.5-56.5 3.1-12.8 6-25 7-34.4.5-5.1 3.8-31.7 16.5-56.3 15.2-29.4 38.3-44.9 66.8-44.9 9.2 0 15.4 1.3 19.4 2.5 7.2-4 24-10.5 56.3-10.5 35.1 0 63.8 16.8 82.8 48.5 16.8 28 20.3 57.4 20.6 60.7.7 6.4 1.6 13.9 2.6 21.9 2.8 22.7 6 48.3 6 68.9 0 35.6-16.2 66.5-16.9 67.8-1.4 2.6-4.1 4.2-7.1 4.2z"/><path d="m136.5 480c-.7 0-1.3-.1-2-.3-2.4-.6-4.3-2.3-5.3-4.5-3.7-8.2-8.8-14.9-13.8-21.4-9.3-12.1-18.9-24.6-18.9-45.9 0-12.3 3.5-24.4 8-39.8 7.1-24.6 16-55.2 16-104.2 0-4.4 3.6-8 8-8s8 3.6 8 8c0 51.3-9.6 84.5-16.7 108.7-4.1 14.2-7.3 25.3-7.3 35.3 0 15.9 6.9 24.8 15.6 36.2 3.4 4.4 7 9.1 10.4 14.6 25.5-33.9 20.7-131.8 6.3-192.9-1-4.3 1.6-8.6 5.9-9.6s8.6 1.6 9.6 5.9c13.3 56 26.1 182.5-19 216.2-1.4 1.1-3.1 1.7-4.8 1.7z"/><path d="m280 424c-22 0-37.6-32.9-39.3-36.7-1.1-2.5-.9-5.4.6-7.6 1.5-2.3 4-3.7 6.7-3.7.2 0 25.6-.5 50.8-22.1 3.4-2.9 8.4-2.5 11.3.9s2.5 8.4-.9 11.3c-18.4 15.8-36.8 21.9-48.6 24.4 5.6 8.9 13.3 17.6 19.4 17.6 13.6 0 26-13.2 26.1-13.4 3-3.3 8-3.5 11.3-.6 3.3 3 3.5 8 .6 11.3-.8.7-17.2 18.6-38 18.6z"/><path d="m216 424c-20.8 0-37.2-17.9-37.9-18.6-3-3.3-2.7-8.3.6-11.3s8.3-2.7 11.3.6c.1.1 12.4 13.4 26.1 13.4 6.1 0 13.8-8.6 19.4-17.6-11.8-2.4-30.2-8.6-48.6-24.4-3.4-2.9-3.7-7.9-.9-11.3 2.9-3.4 7.9-3.7 11.3-.9 25.2 21.6 50.6 22.1 50.8 22.1 2.7 0 5.2 1.4 6.7 3.7s1.7 5.1.6 7.6c-1.8 3.8-17.4 36.7-39.4 36.7z"/><circle cx="248" cy="432" r="8"/><circle cx="248" cy="464" r="8"/></g></svg>