<svg enable-background="new 0 0 496 496" viewBox="0 0 496 496" xmlns="http://www.w3.org/2000/svg"><g fill="#464747"><path d="m248 320c-20.7 0-42.1-9.8-60.1-27.5-17.1-16.8-29.4-39.3-34.9-63.7-10.9-3.9-25-16.3-25-44.8 0-8.3 1.3-15.5 4-21.3 2.4-5.3 7.1-9.3 12.7-10.9 14.6-4.2 51.7-35.4 55.3-64.7.4-3.2 2.7-5.9 5.9-6.8 3.2-.8 6.5.3 8.5 3 25.1 34 94 66.1 132.8 68.6 7.5.5 14 5 17 11.9 2.5 5.6 3.7 12.5 3.7 20.2 0 28.5-14.1 40.9-25 44.8-5.6 24.4-17.9 46.9-34.9 63.7-17.9 17.7-39.3 27.5-60 27.5zm-87.4-105.7c3.6.2 6.4 2.9 7.1 6.5 9.7 51.4 49.3 83.3 80.4 83.3s70.7-31.8 80.4-83.3c.7-3.6 3.4-6.2 7.1-6.5 2-.3 16.6-3.4 16.6-30.3 0-5.5-.8-10.3-2.4-13.8-.6-1.4-1.9-2.3-3.4-2.4-21.9-1.4-50.6-10.4-78.8-24.7-22.8-11.6-42-24.9-55.5-38.5-12.4 31.6-47.2 58.1-62.8 62.5-1.1.3-2.1 1.1-2.6 2.2-1.2 2.6-2.6 7.2-2.6 14.7-.1 26.9 14.4 30 16.5 30.3z"/><path d="m472 496c-4.4 0-8-3.6-8-8 0-30.2-19.4-59.1-54.7-81.2-3.7-2.3-4.9-7.3-2.5-11 2.3-3.7 7.3-4.9 11-2.5 54.1 34 62.2 74 62.2 94.8 0 4.3-3.6 7.9-8 7.9z"/><path d="m24 496c-4.4 0-8-3.6-8-8 0-33.3 19.2-65 54.1-89.4 5.1-3.5 10.4-6.8 15.7-9.9 3.8-2.2 8.7-.9 10.9 3 2.2 3.8.9 8.7-3 10.9-5 2.8-9.9 5.9-14.6 9.2-38.9 27.2-47.1 56.4-47.1 76.2 0 4.4-3.6 8-8 8z"/><path d="m74.6 413.2c-4.4 0-8-3.6-8-8 0-77.2 20.4-164.3 32.5-216.3 3.6-15.4 6.5-27.6 7.9-35.8 15.2-84.6 52.6-119.6 73.6-132.9 17-10.8 35.6-15.4 50.4-12.6 5.8-2.6 19.9-7.6 41-7.6 26.6 0 49.9 11.4 69.1 33.9 15.3 17.8 28 42.7 37.9 74 17.2 54.5 21 113.8 21 132.1 0 10.9 1.6 24.3 3.4 38.5 2.2 17.5 4.6 37.4 4.6 57.5 0 4.4-3.6 8-8 8s-8-3.6-8-8c0-19.1-2.4-38.5-4.5-55.6-1.8-14.7-3.5-28.6-3.5-40.4 0-17.6-3.6-74.7-20.3-127.3-9.2-29.2-20.9-52.2-34.8-68.4-16-18.8-35.2-28.3-56.9-28.3-23.2 0-36 6.9-36.1 7-1.8 1-3.9 1.3-6 .8-8.5-2.3-23.7-.9-40.7 9.9-18.7 11.9-52.3 43.6-66.4 122.3-1.5 8.6-4.4 21-8.1 36.6-12 51.4-32.1 137.3-32.1 212.7 0 4.3-3.5 7.9-8 7.9z"/><path d="m392 496c-41.7 0-69.9-16.6-86.2-50.8-15.8-33.2-17.8-80.1-17.8-117.2 0-4.4 3.6-8 8-8s8 3.6 8 8c0 35.4 1.9 80 16.3 110.3 11.4 24 29.4 37.1 55.9 40.7-4.2-7.9-8.2-18.7-8.2-31 0-28.7 7.4-49.8 14-68.4 5.4-15.3 10-28.5 10-43.6 0-4.4 3.6-8 8-8s8 3.6 8 8c0 17.8-5.3 32.9-10.9 48.9-6.5 18.2-13.1 37.1-13.1 63.1 0 19.6 13.7 34.4 13.8 34.5 2.2 2.3 2.8 5.7 1.5 8.7-1.2 2.9-4.1 4.8-7.3 4.8z"/><path d="m104 496c-3.3 0-6.2-2-7.4-5s-.5-6.5 1.8-8.7c.1-.1 13.6-13.6 13.6-34.3 0-24.7-2.4-44.3-4.5-61.6-1.8-15-3.5-29.1-3.5-44.4 0-19.2 2.6-39.4 8.2-63.8 1-4.3 5.3-7 9.6-6s7 5.3 6 9.6c-5.3 23.1-7.8 42.2-7.8 60.2 0 14.3 1.7 28 3.4 42.5 2.1 17.7 4.6 37.8 4.6 63.5 0 12.7-3.7 23.2-7.8 31 26.3-3.6 44.2-16.8 55.6-40.7 14.3-30.3 16.2-74.9 16.2-110.3 0-4.4 3.6-8 8-8s8 3.6 8 8c0 37.1-2 84-17.8 117.2-16.3 34.2-44.5 50.8-86.2 50.8z"/><path d="m248 480c-1.1 0-2.2-.2-3.2-.7-17.2-7.6-32.1-19.5-43.2-34.6-2.6-3.6-1.9-8.6 1.7-11.2s8.6-1.9 11.2 1.7c8.7 11.9 20.3 21.5 33.6 27.9 13.3-6.5 24.8-16.1 33.6-27.9 2.6-3.6 7.6-4.3 11.2-1.7s4.3 7.6 1.7 11.2c-11.1 15.1-26 27-43.2 34.6-1.2.5-2.3.7-3.4.7z"/></g></svg>