<svg enable-background="new 0 0 496 496" viewBox="0 0 496 496" xmlns="http://www.w3.org/2000/svg"><g fill="#464747"><path d="m248 320c-27.1 0-36.5-6.5-45.5-12.8-2.2-1.5-4.2-2.9-6.5-4.3-24.4-14.1-41.3-39.7-49.2-74.1-.8-.3-1.7-.6-2.6-1-4.1-1.7-6-6.4-4.3-10.5s6.4-6 10.5-4.3c2 .9 3.6 1.1 3.9 1.2 3.6.2 6.4 2.9 7.1 6.4 6.5 32.8 20.9 55.8 42.6 68.4 2.9 1.7 5.3 3.4 7.6 5 8 5.6 14.3 9.9 36.4 9.9s28.4-4.4 36.4-9.9c2.3-1.6 4.7-3.3 7.6-5 21.8-12.6 36.1-35.6 42.6-68.4.7-3.5 3.5-6.2 7.1-6.4.3 0 1.9-.3 3.9-1.2 4.1-1.7 8.8.2 10.5 4.3s-.2 8.8-4.3 10.5c-.9.4-1.8.7-2.6 1-7.9 34.4-24.9 60-49.3 74.1-2.3 1.3-4.3 2.8-6.5 4.3-8.9 6.3-18.3 12.8-45.4 12.8z"/><path d="m304.5 279.9c-.4.9-.5 1.9-.5 2.9v17.7 16.3c0 4.9.9 9.6 2.7 14.2 1 2.6 2.3 5.1 3.8 7.6s4.1 3.8 6.8 3.8c1.4 0 2.9-.4 4.2-1.2 1.2-.7 2.1-1.7 2.7-2.8 1.4-2.5 1.5-5.6-.1-8.2-1.3-2.1-2.3-4.2-2.9-6.3-.1-.3-.2-.5-.2-.8-.6-2.1-.9-4.2-.9-6.3v-29.6-4.3c0-4.4-3.6-8-8-8-1 0-1.9.2-2.8.5z"/><path d="m488 496c-4.4 0-8-3.6-8-8v-.4c0-44 0-78.7-62.6-93.8-33.3-8.1-59.7-18-78.8-29.4-2.5-1.4-4.2-4-4.2-7 0-4.4 3.5-8 8-8h.1c1.5 0 2.9.4 4.1 1.2 17.4 10.5 43.2 20.1 74.6 27.7 33.4 8.1 54.8 22.7 65.4 44.9 9.4 19.5 9.4 42.3 9.4 64.4v.4c0 4.4-3.6 8-8 8z"/><path d="m186.8 275.3c-.9-.3-1.8-.5-2.8-.5-4.4 0-8 3.6-8 8v4.3 29.6c0 2.1-.3 4.2-.9 6.3-.1.3-.1.6-.2.8-.7 2.1-1.6 4.3-2.9 6.4-1.6 2.6-1.5 5.7-.1 8.1.7 1.2 1.6 2.2 2.8 2.9 1.3.8 2.7 1.2 4.1 1.2 2.7 0 5.4-1.4 6.9-3.9s2.8-5 3.7-7.6c1.8-4.6 2.6-9.4 2.6-14.2v-16.3-17.7c0-1-.2-2-.5-2.9z"/><path d="m8 496c-4.4 0-8-3.6-8-8v-.4c0-22.1 0-44.9 9.4-64.4 10.6-22.2 32.1-36.9 65.4-45 31.4-7.6 57.1-17.2 74.5-27.7 1.2-.8 2.7-1.2 4.1-1.2 4.4 0 8 3.6 8 8 0 3.2-1.9 6-4.6 7.2-19 11.3-45.4 21.1-78.4 29.2-62.4 15.2-62.4 49.9-62.4 93.9v.4c0 4.4-3.6 8-8 8z"/><path d="m401.5 327.9c-2.8 0-5.5-1.4-6.9-4-10.1-17.6-18.5-31.2-25.3-42.1-28.9-46.4-33.3-53.6-33.3-145.8 0-5.6-12.4-16-36-16-8.8 0-16.8 1.9-25.2 3.9-8.5 2-17.3 4.1-26.8 4.1s-18.3-2.1-26.8-4.1-16.5-3.9-25.2-3.9c-23.6 0-36 10.4-36 16 0 92.2-4.4 99.4-33.2 145.7-6.8 10.9-15.2 24.6-25.3 42.1-2.2 3.8-7.1 5.2-10.9 3s-5.2-7.1-3-10.9c10.2-17.8 18.8-31.6 25.6-42.6 27.9-44.9 30.8-49.6 30.8-137.3 0-15.7 19.5-32 52-32 10.6 0 19.9 2.2 28.9 4.3 7.9 1.9 15.4 3.7 23.1 3.7s15.1-1.8 23.1-3.7c9-2.1 18.3-4.3 28.9-4.3 32.5 0 52 16.3 52 32 0 87.7 2.9 92.4 30.8 137.3 6.9 11 15.4 24.8 25.6 42.6 2.2 3.8.9 8.7-3 10.9-1.2.7-2.6 1.1-3.9 1.1z"/><path d="m352 64c-2.7 0-5.4-1.4-6.9-3.9-.1-.1-7-11.2-22.4-22.1-20.6-14.6-45.7-22-74.8-22-69.7 0-96.9 43.7-97.2 44.1-2.3 3.8-7.2 5-11 2.7s-5-7.2-2.7-11c1.4-2.1 32.4-51.8 111-51.8s109.6 49.7 110.8 51.9c2.3 3.8 1.1 8.7-2.7 11-1.3.7-2.7 1.1-4.1 1.1z"/><path d="m349.5 96.5c-1.9 0-4-.4-7.7-1.1-11.2-2.2-37.5-7.4-93.8-7.4s-82.6 5.2-93.8 7.4c-3.8.7-5.8 1.1-7.7 1.1-16.3 0-26.5-9.4-26.5-24.5s19-22.7 21.2-23.5c.6-.2 1.3-.4 1.9-.5 14.4-1.6 24.7-2.9 33-4 21.9-2.7 31.8-4 71.9-4s50 1.3 71.9 4.1c8.3 1.1 18.6 2.4 33 4 .7.1 1.3.2 1.9.5 2.2.7 21.2 8.3 21.2 23.4s-10.2 24.5-26.5 24.5zm-203.5-32.7c-4.7 2-10 5.9-10 8.2 0 4.1.8 8.5 10.5 8.5.5 0 2.7-.5 4.6-.8 11.7-2.3 39-7.7 96.9-7.7s85.2 5.4 96.9 7.7c1.9.4 4 .8 4.7.8 9.6 0 10.4-4.4 10.4-8.5 0-2.3-5.3-6.2-9.9-8.2-14-1.5-24.1-2.8-32.2-3.9-21.7-2.8-30.7-4-69.8-4s-48.1 1.2-69.8 4c-8.2 1.1-18.3 2.4-32.3 3.9z"/><path d="m410.9 391.9c-4.4 0-8-3.6-8-8 0-30.5-9-62.5-17.7-93.5-8.8-31.6-17.2-61.4-17.2-90.4 0-41.5-4.5-94.7-12.9-111.4-2-4-.4-8.8 3.6-10.7 4-2 8.8-.4 10.7 3.6 11.5 23 14.6 85.4 14.6 118.6 0 26.8 8.1 55.6 16.6 86 9 32 18.3 65.2 18.3 97.9 0 4.3-3.6 7.9-8 7.9z"/><path d="m85.1 391.9c-4.4 0-8-3.6-8-8 0-32.7 9.3-65.8 18.3-97.9 8.5-30.5 16.6-59.2 16.6-86 0-33.2 3.1-95.5 14.6-118.6 2-4 6.8-5.6 10.7-3.6 4 2 5.6 6.8 3.6 10.7-8.4 16.8-12.9 70-12.9 111.5 0 29-8.4 58.8-17.2 90.4-8.7 31-17.7 63.1-17.7 93.5 0 4.4-3.6 8-8 8z"/><path d="m296 256c-11.4 0-19.3-2.3-26.3-4.3-6.5-1.9-12.7-3.7-21.7-3.7s-15.2 1.8-21.7 3.7c-7 2-14.9 4.3-26.3 4.3-8.5 0-15.2-6-22.3-12.3-7.4-6.6-15.1-13.4-24.2-13.4-4.4 0-8-3.6-8-8s3.6-8 8-8c15.3 0 26.1 9.7 34.9 17.5 3.9 3.5 9.2 8.3 11.6 8.3 9.1 0 15.3-1.8 21.9-3.7 7-2 14.8-4.3 26.1-4.3s19.2 2.3 26.1 4.3c6.6 1.9 12.7 3.7 21.9 3.7 2.4 0 7.7-4.8 11.6-8.3 8.7-7.8 19.6-17.5 34.9-17.5 4.4 0 8 3.6 8 8s-3.6 8-8 8c-9.2 0-16.8 6.8-24.2 13.4-7.1 6.3-13.8 12.3-22.3 12.3z"/><path d="m342.5 365.4c-3 0-5.8-1.6-7.2-4.5l-14.5-29.4c-2-4-.3-8.8 3.6-10.7 4-2 8.8-.3 10.7 3.6l14.5 29.4c2 4 .3 8.8-3.6 10.7-1.1.6-2.3.9-3.5.9z"/><path d="m153.5 365.4c-1.2 0-2.4-.3-3.5-.8-4-2-5.6-6.8-3.6-10.7l14.5-29.4c2-4 6.7-5.6 10.7-3.6s5.6 6.8 3.6 10.7l-14.5 29.4c-1.4 2.7-4.2 4.4-7.2 4.4z"/><path d="m248 360c-30.2 0-59.4-8.8-84.4-25.3-3.7-2.4-4.7-7.4-2.2-11.1 2.4-3.7 7.4-4.7 11.1-2.2 22.4 14.8 48.5 22.7 75.6 22.7 27.9 0 52.6-7.4 75.6-22.7 3.7-2.4 8.6-1.4 11.1 2.2 2.4 3.7 1.4 8.6-2.2 11.1-25.5 16.8-53.9 25.3-84.6 25.3z"/><path d="m248 400c-37.1 0-72.5-13-99.7-36.6-3.3-2.9-3.7-7.9-.8-11.3 2.9-3.3 7.9-3.7 11.3-.8 24.3 21.1 56 32.7 89.2 32.7s64.9-11.6 89.2-32.7c3.3-2.9 8.4-2.5 11.3.8s2.5 8.4-.8 11.3c-27.2 23.6-62.6 36.6-99.7 36.6z"/><path d="m232 496c-4.4 0-8-3.6-8-8v-96.9c0-4.4 3.6-8 8-8s8 3.6 8 8v96.9c0 4.4-3.6 8-8 8z"/><circle cx="256" cy="424" r="8"/><circle cx="256" cy="464" r="8"/></g></svg>